<?xml version="1.0" standalone="no"?>
<!DOCTYPE svg PUBLIC "-//W3C//DTD SVG 1.1//EN" "http://www.w3.org/Graphics/SVG/1.1/DTD/svg11.dtd" >
<svg>
<metadata>
Created by FontForge 20090914 at Mon Jun 13 08:56:22 2022
 By www-data
Copyright &#194;&#169; 2017 by Martin V&#195;&#161;cha. All rights reserved.
</metadata>
<defs>
<font id="Hellix-Light" horiz-adv-x="737" >
  <font-face 
    font-family="Hellix Light"
    font-weight="300"
    font-stretch="normal"
    units-per-em="2048"
    panose-1="0 0 4 0 0 0 0 0 0 0"
    ascent="1651"
    descent="-397"
    x-height="991"
    cap-height="1434"
    bbox="-979 -434.002 2572 2245"
    underline-thickness="102"
    underline-position="-205"
    unicode-range="U+000D-U+25CF"
  />
<missing-glyph horiz-adv-x="2252" 
d="M1092 1630l-0.000976562 -2048c-134.667 4.66699 -263.167 35 -385.5 91s-227.666 129.5 -315.999 220.5s-158.5 198.5 -210.5 322.5s-78 253.333 -78 388c0 134 26.167 263.167 78.5 387.5s122.833 232.333 211.5 324s194 165.834 316 222.501s250 87.334 384 92.001z
M1161 -412.002l0.000976562 2036c56 -16.667 107.833 -72.667 155.5 -168s85.667 -218.5 114 -369.5s42.5 -311.833 42.5 -482.5s-14 -331.167 -42 -481.5s-65.833 -273 -113.5 -368s-99.834 -150.5 -156.501 -166.5zM1538 603.998c0 218 -20.833 415.501 -62.5 592.501
s-97.834 309.167 -168.501 396.5c100 -38.667 189.5 -106.334 268.5 -203.001s140.667 -213.667 185 -351s66.5 -282.333 66.5 -435c0 -154 -22.167 -299.5 -66.5 -436.5s-106 -253.333 -185 -349s-168.5 -162.167 -268.5 -199.5c70.667 86.667 126.834 218 168.501 394
s62.5 373 62.5 591zM1507 -344.001c118.667 95.333 212.832 227.832 282.499 397.499s104.5 353.167 104.5 550.5c0 198 -35.167 382 -105.5 552s-166.166 303.333 -287.499 400c193.333 -77.333 349.833 -203.166 469.5 -377.499s179.5 -365.833 179.5 -574.5
s-59.333 -399.667 -178 -573s-273.667 -298.333 -465 -375z" />
    <glyph glyph-name=".notdef" horiz-adv-x="2252" 
d="M1092 1630l-0.000976562 -2048c-134.667 4.66699 -263.167 35 -385.5 91s-227.666 129.5 -315.999 220.5s-158.5 198.5 -210.5 322.5s-78 253.333 -78 388c0 134 26.167 263.167 78.5 387.5s122.833 232.333 211.5 324s194 165.834 316 222.501s250 87.334 384 92.001z
M1161 -412.002l0.000976562 2036c56 -16.667 107.833 -72.667 155.5 -168s85.667 -218.5 114 -369.5s42.5 -311.833 42.5 -482.5s-14 -331.167 -42 -481.5s-65.833 -273 -113.5 -368s-99.834 -150.5 -156.501 -166.5zM1538 603.998c0 218 -20.833 415.501 -62.5 592.501
s-97.834 309.167 -168.501 396.5c100 -38.667 189.5 -106.334 268.5 -203.001s140.667 -213.667 185 -351s66.5 -282.333 66.5 -435c0 -154 -22.167 -299.5 -66.5 -436.5s-106 -253.333 -185 -349s-168.5 -162.167 -268.5 -199.5c70.667 86.667 126.834 218 168.501 394
s62.5 373 62.5 591zM1507 -344.001c118.667 95.333 212.832 227.832 282.499 397.499s104.5 353.167 104.5 550.5c0 198 -35.167 382 -105.5 552s-166.166 303.333 -287.499 400c193.333 -77.333 349.833 -203.166 469.5 -377.499s179.5 -365.833 179.5 -574.5
s-59.333 -399.667 -178 -573s-273.667 -298.333 -465 -375z" />
    <glyph glyph-name="uni0000" horiz-adv-x="0" 
 />
    <glyph glyph-name="uni0000" horiz-adv-x="0" 
 />
    <glyph glyph-name="uni000D" unicode="&#xd;" horiz-adv-x="512" 
 />
    <glyph glyph-name="space" unicode=" " horiz-adv-x="526" 
 />
    <glyph glyph-name="exclam" unicode="!" horiz-adv-x="432" 
d="M164 1434h102l-6 -1080h-88zM215 -20c-25.333 0 -46.666 8.66699 -63.999 26s-26 38.666 -26 63.999s8.66699 47 26 65s38.666 27 63.999 27c26 0 47.833 -8.83301 65.5 -26.5s26.5 -39.5 26.5 -65.5c0 -25.333 -8.66699 -46.666 -26 -63.999s-39.333 -26 -66 -26z" />
    <glyph glyph-name="quotedbl" unicode="&#x22;" horiz-adv-x="520" 
d="M115 1004l-13 430h95l-13 -430h-69zM334 1004l-10 430h94l-12 -430h-72z" />
    <glyph glyph-name="numbersign" unicode="#" horiz-adv-x="1298" 
d="M1235 895h-293l-100 -354h311v-80h-334l-129 -461h-84l129 461h-311l-129 -461h-86l129 461h-275v80h297l99 354h-314v78h336l129 461h86l-129 -461h312l129 461h86l-129 -461h270v-78zM758 541l98 354h-311l-99 -354h312z" />
    <glyph glyph-name="dollar" unicode="$" horiz-adv-x="1140" 
d="M1044 381c0 -110 -40.833 -202.669 -122.5 -278.002s-187.5 -116.333 -317.5 -123v-226h-86v228c-162 10.667 -312 71.334 -450 182.001l55 72c138.667 -113.333 288 -170 448 -170c110.667 0 201.5 29.5 272.5 88.5s106.5 134.5 106.5 226.5
c0 45.333 -9.5 84.833 -28.5 118.5s-44.667 60.834 -77 81.501s-69.333 38.834 -111 54.501s-85.667 29.667 -132 42l-138.5 38.5c-46 13.333 -89.833 30 -131.5 50s-78.667 43.5 -111 70.5s-58 62.167 -77 105.5s-28.5 93.333 -28.5 150c0 99.333 37.667 182.333 113 249
s172 103.667 290 111v227h86v-227c80 -4.66699 154 -22.334 222 -53.001s120.333 -69 157 -115l-59 -67c-35.333 46 -86.166 82.667 -152.499 110s-138.5 41 -216.5 41c-100.667 0 -183.834 -25.667 -249.501 -77s-98.5 -116.333 -98.5 -195
c0 -47.333 9.5 -88.833 28.5 -124.5s44.667 -64.667 77 -87s69.5 -41.666 111.5 -57.999s86.167 -31 132.5 -44l138.5 -39.5c46 -13.333 90 -29.5 132 -48.5s79.167 -41.5 111.5 -67.5s58 -59.833 77 -101.5s28.5 -89.834 28.5 -144.501z" />
    <glyph glyph-name="percent" unicode="%" horiz-adv-x="1474" 
d="M678 1174c0 -82 -23.998 -149.667 -71.998 -203s-110 -80 -186 -80c-74.667 0 -136.334 26.667 -185.001 80s-73 121 -73 203s24.167 149.167 72.5 201.5s110.166 78.5 185.499 78.5c76 0 138 -26.167 186 -78.5s72 -119.5 72 -201.5zM1174 1434h79l-952 -1434h-80z
M606.002 1174c0 62.667 -17 113.669 -51 153.002s-79 59 -135 59c-55.333 0 -100.333 -19.667 -135 -59s-52 -90.333 -52 -153s17.333 -114.334 52 -155.001s79.667 -61 135 -61c56 0 101 20.167 135 60.5s51 92.166 51 155.499zM1313 262.002
c0 -82 -24.001 -149.5 -72.001 -202.5s-110 -79.5 -186 -79.5c-75.333 0 -137.166 26.5 -185.499 79.5s-72.5 120.5 -72.5 202.5c0 81.333 24.333 148.5 73 201.5s110.334 79.5 185.001 79.5c75.333 0 137.166 -26.5 185.499 -79.5s72.5 -120.167 72.5 -201.5zM1241 262.002
c0 62 -17 113 -51 153s-79 60 -135 60c-55.333 0 -100 -20 -134 -60s-51 -91 -51 -153c0 -62.667 17 -114.167 51 -154.5s78.667 -60.5 134 -60.5c56 0 101 20 135 60s51 91.667 51 155z" />
    <glyph glyph-name="ampersand" unicode="&#x26;" horiz-adv-x="1390" 
d="M1315 0l-115.002 -0.00195312l-233 244l-43 -43c-78.667 -78.667 -149.667 -135.167 -213 -169.5s-135 -51.5 -215 -51.5c-103.333 0 -192.666 36.167 -267.999 108.5s-113 160.833 -113 265.5c0 44.667 6.66699 86.167 20 124.5s30 71 50 98s46.333 53.333 79 79
s63.5 46.667 92.5 63s63.833 34.166 104.5 53.499c-28.667 28.667 -52 53.334 -70 74.001s-37.833 46.667 -59.5 78s-38 64 -49 98s-16.5 69.333 -16.5 106c0 93.333 33 171 99 233s149 93 249 93c94.667 0 173.667 -31 237 -93s95 -139.667 95 -233
c0 -33.333 -4.16699 -64.5 -12.5 -93.5s-21.166 -55.333 -38.499 -79s-35.333 -44.667 -54 -63s-43 -36.666 -73 -54.999s-56.5 -33.666 -79.5 -45.999s-52.5 -26.833 -88.5 -43.5l369 -386l237 230l60 -57l-240 -234zM351.998 1128
c0 -36.667 10.335 -75.166 31.002 -115.499s42.667 -74.333 66 -102s54.666 -61.5 93.999 -101.5l98.5 46.5c23.667 11.667 51.5 28 83.5 49s56.333 41.167 73 60.5s31.167 43.166 43.5 71.499s18.5 58.833 18.5 91.5c0 68.667 -23.833 126.5 -71.5 173.5
s-105.834 70.5 -174.501 70.5c-73.333 0 -135.333 -23.5 -186 -70.5s-76 -104.833 -76 -173.5zM854 249.999l55.001 53l-387 408c-38.667 -18.667 -71.167 -35.334 -97.5 -50.001s-54.333 -33 -84 -55s-53.334 -44.167 -71.001 -66.5s-32.5 -49.166 -44.5 -80.499
s-18 -65 -18 -101c0 -81.333 29.167 -150.333 87.5 -207s127.5 -85 207.5 -85c58 0 114.833 14.833 170.5 44.5s116.167 76.167 181.5 139.5z" />
    <glyph glyph-name="quotesingle" unicode="'" horiz-adv-x="299" 
d="M115 1004l-13 430h95l-13 -430h-69z" />
    <glyph glyph-name="parenleft" unicode="(" horiz-adv-x="577" 
d="M559 -412c-122.667 94 -220.5 230.835 -293.5 410.502s-109.5 372.834 -109.5 579.501s36.5 399.667 109.5 579s170.833 316 293.5 410l53 -62c-112 -86.667 -201.667 -214.334 -269 -383.001s-101 -350 -101 -544c0 -194.667 33.5 -376.334 100.5 -545.001
s156.833 -296.334 269.5 -383.001z" />
    <glyph glyph-name="parenright" unicode=")" horiz-adv-x="577" 
d="M18 -412l-53 62.001c112.667 87.333 202.667 215.166 270 383.499s101 349.833 101 544.5c0 194 -33.5 375.333 -100.5 544s-157.167 296.334 -270.5 383.001l53 62c122.667 -94 220.667 -230.833 294 -410.5s110 -372.5 110 -578.5
c0 -206.667 -36.667 -399.834 -110 -579.501s-171.333 -316.5 -294 -410.5z" />
    <glyph glyph-name="asterisk" unicode="*" horiz-adv-x="960" 
d="M872 1147l-337 -88l215 -316l-54 -41l-217 316l-217 -318l-55 43l217 316l-340 88l20 65l340 -88v351h70v-351l340 88z" />
    <glyph glyph-name="plus" unicode="+" horiz-adv-x="1163" 
d="M1001 670v-84h-378v-379h-84v379h-377v84h377v377h84v-377h378z" />
    <glyph glyph-name="comma" unicode="," horiz-adv-x="458" 
d="M334 178l-141 -368h-68l90 368h119z" />
    <glyph glyph-name="hyphen" unicode="-" horiz-adv-x="593" 
d="M51 485v82h492v-82h-492z" />
    <glyph glyph-name="period" unicode="." horiz-adv-x="432" 
d="M215 -20c-25.333 0 -46.666 8.66699 -63.999 26s-26 38.666 -26 63.999s8.66699 47 26 65s38.666 27 63.999 27c26 0 47.833 -8.83301 65.5 -26.5s26.5 -39.5 26.5 -65.5c0 -25.333 -8.66699 -46.666 -26 -63.999s-39.333 -26 -66 -26z" />
    <glyph glyph-name="slash" unicode="/" horiz-adv-x="770" 
d="M23 0l630 1434h95l-631 -1434h-94z" />
    <glyph glyph-name="zero" unicode="0" horiz-adv-x="1212" 
d="M606 -20c-156 0 -277.833 65.333 -365.5 196s-131.5 311 -131.5 541s43.833 410.333 131.5 541s209.5 196 365.5 196s278 -65.333 366 -196s132 -311 132 -541s-44 -410.333 -132 -541s-210 -196 -366 -196zM606 66c128 0 227.667 57 299 171s107 274 107 480
s-35.667 366 -107 480s-171 171 -299 171s-227.5 -57 -298.5 -171s-106.5 -274 -106.5 -480s35.5 -366 106.5 -480s170.5 -171 298.5 -171z" />
    <glyph glyph-name="one" unicode="1" horiz-adv-x="716" 
d="M532 1434v-1434h-92v1309l-334 -299v116l353 308h73z" />
    <glyph glyph-name="two" unicode="2" horiz-adv-x="1107" 
d="M92 0l-0.000976562 71.999l588 594c142 146 213 276.333 213 391c0 90.667 -30.667 165.167 -92 223.5s-140 87.5 -236 87.5c-105.333 0 -191.5 -30.667 -258.5 -92s-104.167 -143.333 -111.5 -246l-91 6c6.66699 124.667 52.834 225.5 138.501 302.5
s193.167 115.5 322.5 115.5c120.667 0 221.167 -37.333 301.5 -112s120.5 -169.667 120.5 -285c0 -67.333 -21 -139.166 -63 -215.499s-101.667 -152.833 -179 -229.5l-522 -526h789v-86h-920z" />
    <glyph glyph-name="three" unicode="3" horiz-adv-x="1081" 
d="M362 805l486 543.001h-756v86h879v-70l-488 -541c40.667 7.33301 73.667 11 99 11c114 0 210 -37.667 288 -113s117 -170.333 117 -285c0 -132.667 -44.333 -241.834 -133 -327.501s-200.667 -128.5 -336 -128.5c-113.333 0 -214.5 31.333 -303.5 94
s-146.167 143.667 -171.5 243l80 31c21.333 -82 69 -149.5 143 -202.5s158 -79.5 252 -79.5c109.333 0 199.166 34.833 269.499 104.5s105.5 158.167 105.5 265.5c0 99.333 -32.667 178.5 -98 237.5s-149.333 88.5 -252 88.5c-47.333 0 -96.666 -7 -147.999 -21z" />
    <glyph glyph-name="four" unicode="4" horiz-adv-x="1144" 
d="M1081 422v-88h-213v-334h-90v334h-737v74l541 1026h102l-537 -1012h631v553h90v-553h213z" />
    <glyph glyph-name="five" unicode="5" horiz-adv-x="1075" 
d="M528 -20c-113.333 0 -214.832 31.999 -304.499 95.999s-145.834 144.333 -168.501 241l80 27c24.667 -82 73 -148.833 145 -200.5s154.667 -77.5 248 -77.5c103.333 0 190.666 35 261.999 105s107 155.667 107 257c0 104.667 -35.667 193.334 -107 266.001
s-158.666 109 -261.999 109c-62 0 -119.667 -9.66699 -173 -29s-95.333 -46.666 -126 -81.999l-77 27l67 715h684v-86h-604l-55 -560c31.333 30 73.333 53.667 126 71s107.667 26 165 26c128.667 0 236.5 -43.833 323.5 -131.5s130.5 -196.834 130.5 -327.501
c0 -124.667 -44.5 -230.167 -133.5 -316.5s-198.167 -129.5 -327.5 -129.5z" />
    <glyph glyph-name="six" unicode="6" horiz-adv-x="1079" 
d="M553 909c78.667 0 153.5 -20.333 224.5 -61s128.5 -97.167 172.5 -169.5s66 -150.5 66 -234.5c0 -128.667 -46 -238.167 -138 -328.5s-203 -135.5 -333 -135.5s-240.667 45.167 -332 135.5s-137 199.833 -137 328.5c0 52 10.5 109.667 31.5 173s50.833 126 89.5 188
l393 629h102l-360 -570c75.333 30 149 45 221 45zM545 66c105.333 0 195.501 37.168 270.501 111.501s112.5 163.166 112.5 266.499c0 104 -38.167 194.167 -114.5 270.5s-166.5 114.5 -270.5 114.5c-96.667 0 -187 -19.667 -271 -59c-72 -118 -108 -226.667 -108 -326
c0 -104 37.167 -193 111.5 -267s164.166 -111 269.499 -111z" />
    <glyph glyph-name="seven" unicode="7" horiz-adv-x="997" 
d="M31 1434h913v-72l-647 -1362h-100l647 1348h-813v86z" />
    <glyph glyph-name="eight" unicode="8" horiz-adv-x="1081" 
d="M541 -18c-132.667 0 -242.335 38.668 -329.002 116.001s-130 175.666 -130 294.999c0 90 29.167 170.5 87.5 241.5s132.833 116.167 223.5 135.5c-73.333 21.333 -133.666 62.166 -180.999 122.499s-71 126.833 -71 199.5c0 104.667 37.5 190.5 112.5 257.5
s170.833 100.5 287.5 100.5s212.334 -33.5 287.001 -100.5s112 -152.833 112 -257.5c0 -72.667 -23.5 -139.167 -70.5 -199.5s-106.833 -101.166 -179.5 -122.499c91.333 -21.333 166 -67.333 224 -138s87 -150.334 87 -239.001
c0 -119.333 -43.167 -217.666 -129.5 -294.999s-196.5 -116 -330.5 -116zM540.999 813.001c91.333 0 166.335 26 225.002 78s88 118.333 88 199s-29.333 147.167 -88 199.5s-133.667 78.5 -225 78.5c-90.667 0 -165.334 -26 -224.001 -78s-88 -118.667 -88 -200
c0 -80.667 29.167 -147 87.5 -199s133.166 -78 224.499 -78zM541.001 66.001c108.667 0 197.833 31 267.5 93s104.5 141.333 104.5 238c0 95.333 -35 173.833 -105 235.5s-159 92.5 -267 92.5c-107.333 0 -196 -30.833 -266 -92.5s-105 -140.167 -105 -235.5
c0 -96.667 35 -176 105 -238s158.667 -93 266 -93z" />
    <glyph glyph-name="nine" unicode="9" horiz-adv-x="1079" 
d="M535 1454c130 0 240.667 -45.333 332 -136s137 -200.334 137 -329.001c0 -51.333 -10.5 -108.666 -31.5 -171.999s-50.833 -126 -89.5 -188l-394 -629h-102l358 567c-70 -28.667 -143 -43 -219 -43c-78.667 0 -153.5 20.5 -224.5 61.5s-128.5 97.667 -172.5 170
s-66 150.166 -66 233.499c0 128.667 46.167 238.334 138.5 329.001s203.5 136 333.5 136zM805 664c75.333 118 113 226.333 113 325c0 104 -37.5 193.167 -112.5 267.5s-165.167 111.5 -270.5 111.5s-195.5 -37.167 -270.5 -111.5s-112.5 -163.5 -112.5 -267.5
c0 -102.667 38.167 -192.167 114.5 -268.5s166.5 -114.5 270.5 -114.5c96.667 0 186 19.333 268 58z" />
    <glyph glyph-name="colon" unicode=":" horiz-adv-x="432" 
d="M215 690c-25.333 0 -46.666 8.66699 -63.999 26s-26 38.666 -26 63.999s8.66699 47 26 65s38.666 27 63.999 27c26 0 47.833 -8.83301 65.5 -26.5s26.5 -39.5 26.5 -65.5c0 -25.333 -8.66699 -46.666 -26 -63.999s-39.333 -26 -66 -26zM215 -20
c-25.333 0 -46.666 8.66699 -63.999 26s-26 38.666 -26 63.999s8.66699 47 26 65s38.666 27 63.999 27c26 0 47.833 -8.83301 65.5 -26.5s26.5 -39.5 26.5 -65.5c0 -25.333 -8.66699 -46.666 -26 -63.999s-39.333 -26 -66 -26z" />
    <glyph glyph-name="semicolon" unicode=";" horiz-adv-x="499" 
d="M285 596c-25.333 0 -46.666 8.66699 -63.999 26s-26 38.666 -26 63.999s8.66699 47 26 65s38.666 27 63.999 27s46.666 -9 63.999 -27s26 -39.667 26 -65s-8.66699 -46.666 -26 -63.999s-38.666 -26 -63.999 -26zM334 174l-141 -369h-68l90 369h119z" />
    <glyph glyph-name="less" unicode="&#x3c;" horiz-adv-x="1173" 
d="M1012 295l-850 393v74l850 393v-92l-742 -338l742 -336v-94z" />
    <glyph glyph-name="equal" unicode="=" horiz-adv-x="1163" 
d="M1001 840v-82h-839v82h839zM1001 506v-82h-839v82h839z" />
    <glyph glyph-name="greater" unicode="&#x3e;" horiz-adv-x="1173" 
d="M162 295v94l739 336l-739 338v92l850 -393v-74z" />
    <glyph glyph-name="question" unicode="?" horiz-adv-x="976" 
d="M496 1454c122.667 0 222.502 -36.8311 299.502 -110.498s115.5 -167.834 115.5 -282.501c0 -49.333 -7.66699 -94.666 -23 -135.999s-35.166 -76.5 -59.499 -105.5s-51.166 -56.667 -80.499 -83l-88.5 -78c-29.667 -25.667 -56.667 -52.334 -81 -80.001
s-44.333 -60.834 -60 -99.501s-23.834 -81 -24.501 -127h-86c0 53.333 7.5 102.333 22.5 147s34.5 82.167 58.5 112.5s50.667 58.833 80 85.5l87.5 76.5c29 24.333 55.5 49.5 79.5 75.5s43.5 56.667 58.5 92s22.5 74 22.5 116c0 91.333 -29.833 166 -89.5 224
s-136.834 87 -231.501 87c-102.667 0 -187.834 -32 -255.501 -96s-104.167 -146 -109.5 -246l-88 10c5.33301 121.333 50.166 221.333 134.499 300s190.5 118 318.5 118zM457.002 -19.998c-25.333 0 -46.666 8.66699 -63.999 26s-26 38.666 -26 63.999s8.66699 47 26 65
s38.666 27 63.999 27c26 0 47.833 -8.83301 65.5 -26.5s26.5 -39.5 26.5 -65.5c0 -25.333 -8.66699 -46.666 -26 -63.999s-39.333 -26 -66 -26z" />
    <glyph glyph-name="at" unicode="@" horiz-adv-x="1855" 
d="M932 1307c112 0 214.169 -14 306.502 -42s169.833 -65.667 232.5 -113s115.5 -103 158.5 -167s74.333 -131.333 94 -202s29.5 -144 29.5 -220c0 -156.667 -24.5 -277.334 -73.5 -362.001s-117.167 -127 -204.5 -127c-109.333 0 -182.666 45.667 -219.999 137
c-33.333 -45.333 -81.833 -83 -145.5 -113s-127.5 -45 -191.5 -45c-119.333 0 -220.166 42.5 -302.499 127.5s-123.5 189.5 -123.5 313.5s41.167 228.333 123.5 313s183.166 127 302.499 127c56 0 112.667 -12.333 170 -37s103.666 -56 138.999 -94v115h80v-515
c0 -94.667 13.667 -161.667 41 -201s69.666 -59 126.999 -59c65.333 0 115.666 36.333 150.999 109s53 176.334 53 311.001c0 62.667 -7.66699 124 -23 184s-41.5 119.833 -78.5 179.5s-83.167 111.834 -138.5 156.501s-126.666 80.834 -213.999 108.501
s-185 41.5 -293 41.5c-106 0 -205.833 -19.333 -299.5 -58s-173.834 -91.167 -240.501 -157.5s-119.334 -145.833 -158.001 -238.5s-58 -191.334 -58 -296.001c0 -136 31.5 -259.667 94.5 -371s150 -198.833 261 -262.5s234.833 -95.5 371.5 -95.5
c70.667 0 141.334 10 212.001 30s129 46.333 175 79l39 -60c-47.333 -36.667 -110 -65.834 -188 -87.501s-157.333 -32.5 -238 -32.5c-112.667 0 -218.5 20.5 -317.5 61.5s-183.833 96.833 -254.5 167.5s-126.5 155.5 -167.5 254.5s-61.5 204.5 -61.5 316.5
c0 114.667 21.167 223 63.5 325s100.166 189.5 173.499 262.5s161.333 130.667 264 173s212.334 63.5 329.001 63.5zM924.002 129c62.667 0 123.502 14.832 182.502 44.499s101.833 66.834 128.5 111.501c-5.33301 46.667 -8 86 -8 118v310
c-28.667 42 -71.334 76.667 -128.001 104s-115 41 -175 41c-100 0 -184.5 -35.167 -253.5 -105.5s-103.5 -156.5 -103.5 -258.5c0 -101.333 34.667 -187.5 104 -258.5s153.666 -106.5 252.999 -106.5z" />
    <glyph glyph-name="A" unicode="A" horiz-adv-x="1312" 
d="M1180 0l-158 397h-733l-160 -397h-96l575 1434h94l578 -1434h-100zM324 483h663l-332 830z" />
    <glyph glyph-name="B" unicode="B" horiz-adv-x="1212" 
d="M184 0l0.00195312 1434h480c108.667 0 201 -34.167 277 -102.5s114 -151.166 114 -248.499c0 -82 -25.333 -154.167 -76 -216.5s-113.334 -98.5 -188.001 -108.5c95.333 -7.33301 176.166 -46.333 242.499 -117s99.5 -154.667 99.5 -252
c0 -108.667 -39.167 -200.667 -117.5 -276s-174.5 -113 -288.5 -113h-543zM274.002 785.999l390 -0.000976562c83.333 0 154 28 212 84s87 124.333 87 205c0 76.667 -29.167 141.334 -87.5 194.001s-128.833 79 -211.5 79h-390v-562zM274.002 85.998h449
c91.333 0 167 29.833 227 89.5s90 133.5 90 221.5c0 86.667 -30.5 160 -91.5 220s-135.5 90 -223.5 90h-451v-621z" />
    <glyph glyph-name="C" unicode="C" horiz-adv-x="1536" 
d="M1434 340c-43.333 -108.667 -120.168 -195.831 -230.501 -261.498s-235.166 -98.5 -374.499 -98.5c-136.667 0 -259.5 32.333 -368.5 97s-193.833 153.5 -254.5 266.5s-91 239.5 -91 379.5c0 137.333 30.333 261.666 91 372.999s145.5 198.833 254.5 262.5
s231.833 95.5 368.5 95.5c130.667 0 249.5 -29.167 356.5 -87.5s183.5 -136.166 229.5 -233.499l-80 -41c-42 83.333 -109 150.166 -201 200.499s-193.667 75.5 -305 75.5c-120 0 -227.5 -28 -322.5 -84s-168.667 -133 -221 -231s-78.5 -208 -78.5 -330
c0 -124 26.167 -236 78.5 -336s126 -178.5 221 -235.5s202.5 -85.5 322.5 -85.5c117.333 0 224 28.167 320 84.5s164.333 131.166 205 224.499z" />
    <glyph glyph-name="D" unicode="D" horiz-adv-x="1417" 
d="M608 1434c96.667 0 187.832 -17.832 273.499 -53.499s159.334 -84.5 221.001 -146.5s110.5 -137.333 146.5 -226s54 -183.667 54 -285c0 -100.667 -18 -195.834 -54 -285.501s-84.833 -166.5 -146.5 -230.5s-135.5 -114.5 -221.5 -151.5s-177 -55.5 -273 -55.5h-424v1434
h424zM611.998 86.001c84 0 162.833 16.167 236.5 48.5s137 76.5 190 132.5s94.833 123.5 125.5 202.5s46 163.5 46 253.5c0 120 -26 227.667 -78 323s-123.5 169.5 -214.5 222.5s-192.833 79.5 -305.5 79.5h-338v-1262h338z" />
    <glyph glyph-name="E" unicode="E" horiz-adv-x="1081" 
d="M184 1434h768v-86h-678v-527h605v-86h-605v-649h678v-86h-768v1434z" />
    <glyph glyph-name="F" unicode="F" horiz-adv-x="1038" 
d="M184 1434h768v-86h-678v-533h605v-86h-605v-729h-90v1434z" />
    <glyph glyph-name="G" unicode="G" horiz-adv-x="1564" 
d="M891 653l0.000976562 86.002h504v-522c-136 -158 -324 -237 -564 -237c-135.333 0 -257.666 32.167 -366.999 96.5s-194.833 153.166 -256.5 266.499s-92.5 240 -92.5 380c0 84 11.5 163.833 34.5 239.5s56 143.167 99 202.5s93.667 110.666 152 153.999
s124.166 76.666 197.499 99.999s150.333 35 231 35c130.667 0 249.5 -29.167 356.5 -87.5s183.5 -136.166 229.5 -233.499l-80 -41c-42 83.333 -109 150.166 -201 200.499s-193.667 75.5 -305 75.5c-118.667 0 -225.334 -27.5 -320.001 -82.5s-168.667 -131.667 -222 -230
s-80 -209.166 -80 -332.499c0 -124 26.833 -236 80.5 -336s128 -178.167 223 -234.5s201.833 -84.5 320.5 -84.5c192 0 350 58.667 474 176v409h-414z" />
    <glyph glyph-name="H" unicode="H" horiz-adv-x="1439" 
d="M1165 1434h92v-1434h-92v705h-891v-705h-90v1434h90v-643h891v643z" />
    <glyph glyph-name="I" unicode="I" horiz-adv-x="458" 
d="M184 1434h90v-1434h-90v1434z" />
    <glyph glyph-name="J" unicode="J" horiz-adv-x="591" 
d="M49 66h28.999c166.667 0 250 112.333 250 337v1031h90v-1045c0 -135.333 -27.667 -237.333 -83 -306s-136.333 -103 -243 -103c-23.333 0 -39.666 0.666992 -48.999 2z" />
    <glyph glyph-name="K" unicode="K" horiz-adv-x="1189" 
d="M1153 0h-127l-752 731v-731h-90v1434h90v-666l689 666h122l-712 -684z" />
    <glyph glyph-name="L" unicode="L" horiz-adv-x="1116" 
d="M184 1434h90v-1348h756v-86h-846v1434z" />
    <glyph glyph-name="M" unicode="M" horiz-adv-x="1761" 
d="M184 0v1434h103l598 -1301l600 1301h92v-1434h-92v1241l-570 -1241h-71l-570 1241v-1241h-90z" />
    <glyph glyph-name="N" unicode="N" horiz-adv-x="1454" 
d="M184 1434h97l899 -1284v1284h90v-1434h-96l-900 1284v-1284h-90v1434z" />
    <glyph glyph-name="O" unicode="O" horiz-adv-x="1665" 
d="M831 1454c99.333 0 193.333 -19 282 -57s165 -89.5 229 -154.5s114.667 -142.667 152 -233s56 -185.833 56 -286.5c0 -102.667 -18.667 -200 -56 -292s-88 -170.833 -152 -236.5s-140.333 -117.834 -229 -156.501s-182.667 -58 -282 -58
c-98.667 0 -192.167 19.333 -280.5 58s-164.333 90.834 -228 156.501s-114.167 144.5 -151.5 236.5s-56 189.333 -56 292c0 100.667 18.667 196.167 56 286.5s87.833 168 151.5 233s139.667 116.5 228 154.5s181.833 57 280.5 57zM831 1368
c-114.667 0 -219.833 -28.332 -315.5 -84.999s-171 -134.5 -226 -233.5s-82.5 -207.833 -82.5 -326.5c0 -121.333 27.5 -232.333 82.5 -333s130.333 -179.834 226 -237.501s200.834 -86.5 315.501 -86.5c115.333 0 221 28.833 317 86.5s171.667 136.834 227 237.501
s83 211.667 83 333c0 89.333 -16.333 173.833 -49 253.5s-76.834 148.167 -132.501 205.5s-122.167 102.666 -199.5 135.999s-159.333 50 -246 50z" />
    <glyph glyph-name="P" unicode="P" horiz-adv-x="1218" 
d="M739 1434c111.333 0 205.166 -37.666 281.499 -112.999s114.5 -168.333 114.5 -279s-38.167 -203.834 -114.5 -279.501s-170.166 -113.5 -281.499 -113.5h-465v-649h-90v1434h555zM739 735.001c84.667 0 156.332 29.667 214.999 89s88 132 88 218
s-29.167 158.5 -87.5 217.5s-130.166 88.5 -215.499 88.5h-465v-613h465z" />
    <glyph glyph-name="Q" unicode="Q" horiz-adv-x="1671" 
d="M1550 723c0 -105.333 -19.332 -204.501 -57.999 -297.501s-92.334 -173.5 -161.001 -241.5l144 -184h-105l-100 129c-128 -99.333 -274.333 -149 -439 -149c-98.667 0 -192.167 19.333 -280.5 58s-164.333 90.834 -228 156.501s-114.167 144.5 -151.5 236.5
s-56 189.333 -56 292c0 100.667 18.667 196.167 56 286.5s87.833 168 151.5 233s139.667 116.5 228 154.5s181.833 57 280.5 57c99.333 0 193.333 -19 282 -57s165 -89.5 229 -154.5s114.667 -142.667 152 -233s56 -185.833 56 -286.5zM831.001 65.999
c145.333 0 273.001 44.333 383.001 133l-362 465h104l320 -410c57.333 60.667 102 131.334 134 212.001s48 166.334 48 257.001c0 89.333 -16.333 173.833 -49 253.5s-76.834 148.167 -132.501 205.5s-122.167 102.666 -199.5 135.999s-159.333 50 -246 50
c-114.667 0 -219.834 -28.333 -315.501 -85s-171 -134.5 -226 -233.5s-82.5 -207.833 -82.5 -326.5c0 -121.333 27.5 -232.333 82.5 -333s130.333 -179.834 226 -237.501s200.834 -86.5 315.501 -86.5z" />
    <glyph glyph-name="R" unicode="R" horiz-adv-x="1230" 
d="M1155 0h-111l-436 645h-334v-645h-90v1434h504c118.667 0 217 -37.167 295 -111.5s117 -167.833 117 -280.5c0 -113.333 -36.167 -206.5 -108.5 -279.5s-165.833 -112.167 -280.5 -117.5zM274 1348v-617.001h414c93.333 0 170.333 29.167 231 87.5s91 132.833 91 223.5
c0 88.667 -30.333 161.834 -91 219.501s-137.667 86.5 -231 86.5h-414z" />
    <glyph glyph-name="S" unicode="S" horiz-adv-x="1140" 
d="M559 1454c87.333 0 170.001 -15.835 248.001 -47.502s136.667 -72.5 176 -122.5l-59 -67c-35.333 46 -86.166 82.667 -152.499 110s-138.5 41 -216.5 41c-100.667 0 -183.834 -25.667 -249.501 -77s-98.5 -116.333 -98.5 -195c0 -47.333 9.5 -88.833 28.5 -124.5
s44.667 -64.667 77 -87s69.5 -41.666 111.5 -57.999s86.167 -31 132.5 -44l138.5 -39.5c46 -13.333 90 -29.5 132 -48.5s79.167 -41.5 111.5 -67.5s58 -59.833 77 -101.5s28.5 -89.834 28.5 -144.501c0 -114.667 -44.167 -210.167 -132.5 -286.5
s-201.833 -114.5 -340.5 -114.5c-182.667 0 -350.334 61.333 -503.001 184l55 72c138.667 -113.333 288 -170 448 -170c110.667 0 201.5 29.5 272.5 88.5s106.5 134.5 106.5 226.5c0 45.333 -9.5 84.833 -28.5 118.5s-44.667 60.834 -77 81.501s-69.333 38.834 -111 54.501
s-85.667 29.667 -132 42l-138.5 38.5c-46 13.333 -89.833 30 -131.5 50s-78.667 43.5 -111 70.5s-58 62.167 -77 105.5s-28.5 93.333 -28.5 150c0 105.333 42 192 126 260s190 102 318 102z" />
    <glyph glyph-name="T" unicode="T" horiz-adv-x="1208" 
d="M1141 1434v-86h-492v-1348h-90v1348h-491v86h1073z" />
    <glyph glyph-name="U" unicode="U" horiz-adv-x="1441" 
d="M721 -20c-154.667 0 -282.832 52 -384.499 156s-152.5 234.667 -152.5 392v906h90v-906c0 -132.667 42.167 -242.5 126.5 -329.5s191.166 -130.5 320.499 -130.5c128 0 234 43.5 318 130.5s126 196.833 126 329.5v906h92v-906c0 -157.333 -50.667 -288 -152 -392
s-229.333 -156 -384 -156z" />
    <glyph glyph-name="V" unicode="V" horiz-adv-x="1267" 
d="M43 1434h98l494 -1311l491 1311h97l-545 -1434h-88z" />
    <glyph glyph-name="W" unicode="W" horiz-adv-x="2084" 
d="M1946 1434h96l-481 -1434h-91l-423 1307l-429 -1307h-88l-487 1434h98l434 -1309l431 1309h88l422 -1309z" />
    <glyph glyph-name="X" unicode="X" horiz-adv-x="1183" 
d="M1139 0h-107l-440 664l-442 -664h-107l496 743l-459 691h106l406 -611l405 611h105l-457 -689z" />
    <glyph glyph-name="Y" unicode="Y" horiz-adv-x="1216" 
d="M43 1434h111l458 -684l455 684h107l-517 -775v-659h-92v659z" />
    <glyph glyph-name="Z" unicode="Z" horiz-adv-x="1177" 
d="M115 1434h981v-72l-920 -1276h928v-86h-1041v72l924 1276h-872v86z" />
    <glyph glyph-name="bracketleft" unicode="[" horiz-adv-x="608" 
d="M248 1470v-1751h299v-75h-385v1904h385v-78h-299z" />
    <glyph glyph-name="backslash" unicode="\" horiz-adv-x="749" 
d="M715 0h-94l-631 1434h94z" />
    <glyph glyph-name="bracketright" unicode="]" horiz-adv-x="610" 
d="M362 1470h-299v78h386v-1904h-386v75h299v1751z" />
    <glyph glyph-name="asciicircum" unicode="^" horiz-adv-x="1064" 
d="M963 606h-93l-338 740l-335 -740h-95l394 848h73z" />
    <glyph glyph-name="underscore" unicode="_" horiz-adv-x="970" 
d="M41 -102v82h889v-82h-889z" />
    <glyph glyph-name="grave" unicode="`" horiz-adv-x="485" 
d="M102 1391h119l162 -275h-86z" />
    <glyph glyph-name="a" unicode="a" horiz-adv-x="1226" 
d="M975 991h90v-991h-90v170c-30.667 -53.333 -81.5 -98.333 -152.5 -135s-143.833 -55 -218.5 -55c-145.333 0 -266.333 49.167 -363 147.5s-145 221.833 -145 370.5c0 146.667 48.333 269 145 367s217.667 147 363 147c76 0 149.333 -18.5 220 -55.5
s121 -82.167 151 -135.5v170zM614 63c71.333 0 141.166 19.334 209.499 58.001s118.833 87.667 151.5 147v455c-31.333 60 -81.166 109.5 -149.499 148.5s-138.833 58.5 -211.5 58.5c-123.333 0 -225.833 -41 -307.5 -123s-122.5 -185 -122.5 -309
c0 -124.667 40.833 -228.334 122.5 -311.001s184.167 -124 307.5 -124z" />
    <glyph glyph-name="b" unicode="b" horiz-adv-x="1226" 
d="M623 1012c145.333 0 266.166 -49 362.499 -147s144.5 -220.333 144.5 -367c0 -148.667 -48.167 -272.167 -144.5 -370.5s-217.166 -147.5 -362.499 -147.5c-74.667 0 -147.5 18.333 -218.5 55s-121.833 81.667 -152.5 135v-170h-90v1434h90v-613
c30 53.333 80.333 98.5 151 135.5s144 55.5 220 55.5zM612 63c123.333 0 225.833 41.332 307.5 123.999s122.5 186.334 122.5 311.001c0 124 -40.833 227 -122.5 309s-184.167 123 -307.5 123c-72.667 0 -143 -19.5 -211 -58.5s-117.667 -88.5 -149 -148.5v-455
c33.333 -59.333 83.833 -108.333 151.5 -147s137.167 -58 208.5 -58z" />
    <glyph glyph-name="c" unicode="c" horiz-adv-x="1105" 
d="M1040 223c-39.333 -75.333 -97.5 -134.666 -174.5 -177.999s-163.5 -65 -259.5 -65c-94 0 -180 22.667 -258 68s-139.5 107.5 -184.5 186.5s-67.5 166.167 -67.5 261.5c0 145.333 49 267.666 147 366.999s218.333 149 361 149c94 0 178.167 -21.5 252.5 -64.5
s126.166 -100.167 155.499 -171.5l-76 -39c-23.333 58.667 -65.166 105.5 -125.499 140.5s-129.166 52.5 -206.499 52.5c-118.667 0 -218.334 -41.833 -299.001 -125.5s-121 -186.5 -121 -308.5c0 -121.333 40.667 -223.833 122 -307.5s181.333 -125.5 300 -125.5
c80 0 151.667 17.333 215 52s111.333 83 144 145z" />
    <glyph glyph-name="d" unicode="d" horiz-adv-x="1226" 
d="M975 1434h90v-1434h-90v170c-30.667 -53.333 -81.5 -98.333 -152.5 -135s-143.833 -55 -218.5 -55c-145.333 0 -266.333 49.167 -363 147.5s-145 221.833 -145 370.5c0 146.667 48.333 269 145 367s217.667 147 363 147c76 0 149.333 -18.5 220 -55.5
s121 -82.167 151 -135.5v613zM614 63c71.333 0 141.166 19.334 209.499 58.001s118.833 87.667 151.5 147v455c-31.333 60 -81.166 109.5 -149.499 148.5s-138.833 58.5 -211.5 58.5c-123.333 0 -225.833 -41 -307.5 -123s-122.5 -185 -122.5 -309
c0 -124.667 40.833 -228.334 122.5 -311.001s184.167 -124 307.5 -124z" />
    <glyph glyph-name="e" unicode="e" horiz-adv-x="1159" 
d="M1063 508h-881.002v-4c0 -128.667 39.833 -234.667 119.5 -318s177.834 -125 294.501 -125c83.333 0 157.833 17 223.5 51s114.834 81.333 147.501 142l71 -45c-39.333 -70.667 -98.166 -126.5 -176.499 -167.5s-167.5 -61.5 -267.5 -61.5
c-68 0 -132.5 13.167 -193.5 39.5s-113.833 62.166 -158.5 107.499s-80.167 100.666 -106.5 165.999s-39.5 135 -39.5 209c0 142.667 48.167 263.334 144.5 362.001s214.166 148 353.499 148c132.667 0 244 -45.167 334 -135.5s135 -202.166 135 -335.499v-33zM591.998 936
c-103.333 0 -192.331 -33.167 -266.998 -99.5s-120.334 -151.166 -137.001 -254.499h785c-4.66699 101.333 -43.334 185.666 -116.001 252.999s-161 101 -265 101z" />
    <glyph glyph-name="f" unicode="f" horiz-adv-x="663" 
d="M563 1378c-69.333 0 -126.166 -22.832 -170.499 -68.499s-66.5 -108.834 -66.5 -189.501v-129h292v-82h-292v-909h-90v909h-201v82h201v131c0 105.333 29.667 188 89 248s136.666 90 231.999 90c24.667 0 48 -3.33301 70 -10l-6 -78c-18 4 -37.333 6 -58 6z" />
    <glyph glyph-name="g" unicode="g" horiz-adv-x="1226" 
d="M975 991l90 0.000976562v-966c0 -132.667 -42.5 -241.334 -127.5 -326.001s-195.5 -127 -331.5 -127c-93.333 0 -179.5 16.667 -258.5 50s-137.5 78 -175.5 134l53 56c31.333 -48 81.5 -86.333 150.5 -115s145.167 -43 228.5 -43c110 0 199.333 34.833 268 104.5
s103 158.5 103 266.5v149c-30.667 -52.667 -81.5 -97.167 -152.5 -133.5s-143.833 -54.5 -218.5 -54.5c-145.333 0 -266.333 48.833 -363 146.5s-145 220.167 -145 367.5c0 146.667 48.333 268.667 145 366s217.667 146 363 146c76 0 149.333 -18.5 220 -55.5
s121 -82.167 151 -135.5v170zM614 68.001c72 0 141.999 19.168 209.999 57.501s118.333 87.166 151 146.499v451c-31.333 60 -81.166 109.5 -149.499 148.5s-138.833 58.5 -211.5 58.5c-123.333 0 -225.833 -40.667 -307.5 -122s-122.5 -184 -122.5 -308
s40.833 -227 122.5 -309s184.167 -123 307.5 -123z" />
    <glyph glyph-name="h" unicode="h" horiz-adv-x="1202" 
d="M631 1012c122 0 220.667 -40.167 296 -120.5s113 -185.833 113 -316.5v-575h-88v567c0 107.333 -30.833 194.333 -92.5 261s-142.167 100 -241.5 100c-76.667 0 -148 -18.5 -214 -55.5s-116.667 -86.833 -152 -149.5v-723h-90v1434h90v-613c34 58 85.5 104.333 154.5 139
s143.833 52 224.5 52z" />
    <glyph glyph-name="i" unicode="i" horiz-adv-x="413" 
d="M209 1401c20 0 38 -7.66797 54 -23.001s24 -33 24 -53c0 -22 -8 -40.5 -24 -55.5s-34 -22.5 -54 -22.5c-22.667 0 -41.667 7.33301 -57 22s-23 33.334 -23 56.001c0 20.667 7.83301 38.5 23.5 53.5s34.5 22.5 56.5 22.5zM162 990.999h90v-991h-90v991z" />
    <glyph glyph-name="j" unicode="j" horiz-adv-x="413" 
d="M207 1401c20 0 38 -7.66797 54 -23.001s24 -33 24 -53c0 -22 -8 -40.5 -24 -55.5s-34 -22.5 -54 -22.5c-22.667 0 -41.667 7.33301 -57 22s-23 33.334 -23 56.001c0 20.667 7.83301 38.5 23.5 53.5s34.5 22.5 56.5 22.5zM-6 -336.001
c2.66699 -0.666992 5.83301 -1.33398 9.5 -2.00098s6.5 -1.16699 8.5 -1.5s4 -0.5 6 -0.5c96 0 144 80 144 240v1091h90v-1097c0 -107.333 -18.5 -187.166 -55.5 -239.499s-93.5 -78.5 -169.5 -78.5c-18 0 -31 1.33301 -39 4z" />
    <glyph glyph-name="k" unicode="k" horiz-adv-x="983" 
d="M938 0h-123l-563 500v-500h-90v1434h90v-895l536 452h119l-561 -471z" />
    <glyph glyph-name="l" unicode="l" horiz-adv-x="413" 
d="M252 1434v-1434h-90v1434h90z" />
    <glyph glyph-name="m" unicode="m" horiz-adv-x="1886" 
d="M1321 1012c124 0 222.168 -38.168 294.501 -114.501s108.5 -180.166 108.5 -311.499v-586h-88v575c0 109.333 -29 195.833 -87 259.5s-137.333 95.5 -238 95.5c-67.333 0 -132.166 -20.167 -194.499 -60.5s-110.833 -89.833 -145.5 -148.5
c8.66699 -32.667 14 -75.667 16 -129v-592h-88v575c0 109.333 -28.833 195.833 -86.5 259.5s-135.834 95.5 -234.501 95.5c-69.333 0 -132.833 -18 -190.5 -54s-102.834 -83.667 -135.501 -143v-733h-90v991h90v-166c31.333 48.667 75.833 92 133.5 130s127.167 57 208.5 57
c84 0 156 -18.333 216 -55s104.667 -89.334 134 -158.001c46 60.667 100.667 111.334 164 152.001s134.333 61 213 61z" />
    <glyph glyph-name="n" unicode="n" horiz-adv-x="1202" 
d="M631 1012c122 0 220.668 -40.167 296.001 -120.5s113 -185.833 113 -316.5v-575h-88v567c0 107.333 -30.833 194.333 -92.5 261s-142.167 100 -241.5 100c-76 0 -147.333 -18.5 -214 -55.5s-117.334 -86.833 -152.001 -149.5v-723h-90v991h90v-170
c34 58 85.5 104.333 154.5 139s143.833 52 224.5 52z" />
    <glyph glyph-name="o" unicode="o" horiz-adv-x="1212" 
d="M606 1012c94 0 180.167 -22.667 258.5 -68s140.166 -107.5 185.499 -186.5s68 -166.167 68 -261.5s-22.667 -182.5 -68 -261.5s-107.166 -141.167 -185.499 -186.5s-164.5 -68 -258.5 -68s-180 22.667 -258 68s-139.5 107.5 -184.5 186.5s-67.5 166.167 -67.5 261.5
s22.5 182.5 67.5 261.5s106.5 141.167 184.5 186.5s164 68 258 68zM606 930c-118.667 0 -218.667 -41.833 -300 -125.5s-122 -186.5 -122 -308.5c0 -121.333 40.667 -223.833 122 -307.5s181.333 -125.5 300 -125.5c118 0 218.167 42 300.5 126s123.5 186.333 123.5 307
c0 122 -41.167 224.833 -123.5 308.5s-182.5 125.5 -300.5 125.5z" />
    <glyph glyph-name="p" unicode="p" horiz-adv-x="1226" 
d="M623 1012c145.333 0 266.167 -49.1699 362.5 -147.503s144.5 -221.166 144.5 -368.499s-48.167 -270.166 -144.5 -368.499s-217.166 -147.5 -362.499 -147.5c-76.667 0 -150.334 18.333 -221.001 55s-120.667 82.334 -150 137.001v-569h-90v1388h90v-170
c30.667 53.333 81.5 98.5 152.5 135.5s143.833 55.5 218.5 55.5zM612.001 62.9971c123.333 0 225.833 41 307.5 123s122.5 185.333 122.5 310c0 124 -41 227.333 -123 310s-184.333 124 -307 124c-71.333 0 -140.833 -19.333 -208.5 -58s-118.167 -87.667 -151.5 -147v-455
c31.333 -60 81 -109.5 149 -148.5s138.333 -58.5 211 -58.5z" />
    <glyph glyph-name="q" unicode="q" horiz-adv-x="1226" 
d="M975 991l90.001 0.00292969v-1388h-90v569c-29.333 -54.667 -79.333 -100.334 -150 -137.001s-144.334 -55 -221.001 -55c-145.333 0 -266.333 49.167 -363 147.5s-145 221.166 -145 368.499s48.333 270.166 145 368.499s217.667 147.5 363 147.5
c74.667 0 147.5 -18.5 218.5 -55.5s121.833 -82.167 152.5 -135.5v170zM614.001 63.0029c72.667 0 143.167 19.5 211.5 58.5s118.166 88.5 149.499 148.5v455c-32.667 59.333 -83.167 108.333 -151.5 147s-138.166 58 -209.499 58c-122.667 0 -225 -41.333 -307 -124
s-123 -186 -123 -310c0 -124.667 40.833 -228 122.5 -310s184.167 -123 307.5 -123z" />
    <glyph glyph-name="r" unicode="r" horiz-adv-x="688" 
d="M537 1012c31.333 0 63.999 -5 97.999 -15l-6 -84c-32.667 11.333 -65 17 -97 17c-49.333 0 -99.666 -18.833 -150.999 -56.5s-94.333 -88.5 -129 -152.5v-721h-90v991h90v-172c29.333 58 70.333 104.667 123 140s106.667 53 162 53z" />
    <glyph glyph-name="s" unicode="s" horiz-adv-x="909" 
d="M453 -20c-69.333 0 -138.168 13.1689 -206.501 39.502s-125.166 61.5 -170.499 105.5l49 65c38.667 -40 88.167 -72.167 148.5 -96.5s120.166 -36.5 179.499 -36.5c81.333 0 147 18.833 197 56.5s75 85.167 75 142.5c0 42 -11.5 77 -34.5 105s-53 49 -90 63
s-77.667 26 -122 36s-88.833 20.667 -133.5 32s-85.5 25.666 -122.5 42.999s-67 43.166 -90 77.499s-34.5 76.5 -34.5 126.5c0 82.667 31.5 148.834 94.5 198.501s146.833 74.5 251.5 74.5c66 0 129.167 -12.167 189.5 -36.5s107.833 -57.166 142.5 -98.499l-55 -64
c-28 37.333 -68.333 67.166 -121 89.499s-106.667 33.5 -162 33.5c-75.333 0 -135.833 -17.667 -181.5 -53s-68.5 -82 -68.5 -140c0 -30 7.16699 -56.167 21.5 -78.5s33.5 -40 57.5 -53s51.833 -24.167 83.5 -33.5s64.834 -17.833 99.501 -25.5
s69.167 -15.834 103.5 -24.501s67.333 -20 99 -34s59.5 -30.667 83.5 -50s43.167 -45 57.5 -77s21.5 -69 21.5 -111c0 -80 -33.5 -146 -100.5 -198s-154.167 -78 -261.5 -78z" />
    <glyph glyph-name="t" unicode="t" horiz-adv-x="694" 
d="M621 80l6 -77.999c-22 -6.66699 -45.333 -10 -70 -10c-95.333 0 -172.666 30 -231.999 90s-89 142.667 -89 248v579h-201v82h201v281h90v-281h292v-82h-292v-577c0 -80.667 22.167 -143.834 66.5 -189.501s101.166 -68.5 170.499 -68.5c20.667 0 40 2 58 6z" />
    <glyph glyph-name="u" unicode="u" horiz-adv-x="1202" 
d="M952 991h88v-991h-88v172c-34.667 -58 -86.834 -104.5 -156.501 -139.5s-144.5 -52.5 -224.5 -52.5c-122 0 -220.667 40.167 -296 120.5s-113 185.5 -113 315.5v575h90v-567c0 -107.333 30.667 -193.833 92 -259.5s141.333 -98.5 240 -98.5
c77.333 0 149.333 18.167 216 54.5s117.334 85.5 152.001 147.5v723z" />
    <glyph glyph-name="v" unicode="v" horiz-adv-x="1026" 
d="M981 991l-428 -991h-82l-428 991h98l371 -891l373 891h96z" />
    <glyph glyph-name="w" unicode="w" horiz-adv-x="1605" 
d="M408 0l-365 991h94l312 -878l311 878h84l315 -878l309 878h95l-365 -991h-80l-315 883l-318 -883h-77z" />
    <glyph glyph-name="x" unicode="x" horiz-adv-x="968" 
d="M913 0h-104l-326 440l-325 -440h-103l377 510l-354 481h104l303 -409l301 409h105l-354 -479z" />
    <glyph glyph-name="y" unicode="y" horiz-adv-x="1021" 
d="M883 991h96l-584 -1388h-94l166 391l-424 997h96l371 -893z" />
    <glyph glyph-name="z" unicode="z" horiz-adv-x="1019" 
d="M924 991v-71l-736 -838l738 2v-84h-852v72l735 837h-688v82h803z" />
    <glyph glyph-name="braceleft" unicode="{" horiz-adv-x="716" 
d="M530 -356c-85.333 0 -154.665 27.668 -207.998 83.001s-80 129.333 -80 222v381c0 52.667 -18.833 101.167 -56.5 145.5s-85.834 74.166 -144.501 89.499v60c58 15.333 106 45.333 144 90s57 93 57 145v383c0 92 26.667 165.5 80 220.5s122.666 83.167 207.999 84.5h125
v-78h-125c-60.667 0 -110.167 -20.5 -148.5 -61.5s-57.5 -96.167 -57.5 -165.5v-379c0 -57.333 -16.167 -111 -48.5 -161s-73.5 -85.667 -123.5 -107c50.667 -24 92 -60.667 124 -110s48 -102 48 -158v-379c0 -69.333 19.167 -125 57.5 -167s87.833 -63 148.5 -63h125v-75
h-125z" />
    <glyph glyph-name="bar" unicode="|" horiz-adv-x="413" 
d="M162 1638h90v-2035h-90v2035z" />
    <glyph glyph-name="braceright" unicode="}" horiz-adv-x="716" 
d="M186 -356l-124.999 -0.000976562v75h125c60.667 0 110.334 21 149.001 63s58 97.667 58 167v379c0 56 16 108.667 48 158s73.333 86 124 110c-50 21.333 -91.167 57 -123.5 107s-48.5 103.667 -48.5 161v379c0 69.333 -19.333 124.5 -58 165.5
s-88.334 61.5 -149.001 61.5h-125v78h125c85.333 -1.33301 154.833 -29.5 208.5 -84.5s80.5 -128.5 80.5 -220.5v-383c0 -52 19 -100.333 57 -145s86 -74.667 144 -90v-60c-58.667 -15.333 -106.834 -45.166 -144.501 -89.499s-56.5 -92.833 -56.5 -145.5v-381
c0 -92.667 -26.833 -166.667 -80.5 -222s-123.167 -83 -208.5 -83z" />
    <glyph glyph-name="asciitilde" unicode="~" horiz-adv-x="1142" 
d="M240 532l-77.998 11c8 68.667 31.167 124 69.5 166s84.166 63 137.499 63c30.667 0 65.667 -8 105 -24s74.666 -33.667 105.999 -53s64.833 -37 100.5 -53s65.5 -24 89.5 -24c35.333 0 64.666 13.167 87.999 39.5s38.333 66.5 45 120.5l78 -10
c-8 -68.667 -31.167 -124 -69.5 -166s-84.166 -63 -137.499 -63c-28.667 0 -62 8 -100 24s-72.5 33.5 -103.5 52.5s-65 36.5 -102 52.5s-68.833 24 -95.5 24c-34 0 -62.667 -13.167 -86 -39.5s-39 -66.5 -47 -120.5z" />
    <glyph glyph-name="uni00A0" unicode="&#xa0;" horiz-adv-x="526" 
 />
    <glyph glyph-name="exclamdown" unicode="&#xa1;" horiz-adv-x="432" 
d="M215 1454c26.667 0 48.667 -8.66699 66 -26s26 -38.666 26 -63.999c0 -26 -8.83301 -47.833 -26.5 -65.5s-39.5 -26.5 -65.5 -26.5c-25.333 0 -46.666 9 -63.999 27s-26 39.667 -26 65s8.66699 46.666 26 63.999s38.666 26 63.999 26zM164 0l8 1079h88l6 -1079h-102z" />
    <glyph glyph-name="cent" unicode="&#xa2;" horiz-adv-x="1105" 
d="M1040 223c-36 -69.333 -88.667 -125.331 -158 -167.998s-147.666 -67 -234.999 -73v-228h-90v228c-131.333 12.667 -241 67.5 -329 164.5s-132 213.5 -132 349.5c0 136.667 44 253.667 132 351s197.667 151.666 329 162.999v229h90v-229
c85.333 -6 160.666 -29.833 225.999 -71.5s111.666 -95.834 138.999 -162.501l-76 -39c-23.333 58.667 -65.166 105.5 -125.499 140.5s-129.166 52.5 -206.499 52.5c-118.667 0 -218.334 -41.833 -299.001 -125.5s-121 -186.5 -121 -308.5
c0 -121.333 40.667 -223.833 122 -307.5s181.333 -125.5 300 -125.5c80 0 151.667 17.333 215 52s111.333 83 144 145z" />
    <glyph glyph-name="sterling" unicode="&#xa3;" horiz-adv-x="1210" 
d="M295 86l825.001 -0.000976562v-86h-936v86c124.667 86 187 212.333 187 379v227h-170v78h170v287c0 114.667 35 209.5 105 284.5s159.667 112.5 269 112.5c84.667 0 160.667 -23.333 228 -70s111 -110.667 131 -192l-88 -27c-9.33301 62 -41 111.333 -95 148
s-112.667 55 -176 55c-82.667 0 -150.334 -29.833 -203.001 -89.5s-79 -136.167 -79 -229.5v-279h444v-78h-444v-227c0 -173.333 -56 -299.666 -168 -378.999z" />
    <glyph glyph-name="currency" unicode="&#xa4;" horiz-adv-x="1536" 
d="M1282 713c0 -124.667 -41.001 -233.334 -123.001 -326.001l215 -215l-61 -61l-215 215c-92.667 -82 -200.667 -123 -324 -123c-126.667 0 -238 41.667 -334 125l-217 -217l-61 61l217 217c-80.667 93.333 -121 201.333 -121 324c0 126.667 41 236.334 123 329.001
l-219 218l61 61l219 -217c92.667 82 203.334 123 332.001 123c124.667 0 232.667 -40.333 324 -121l215 215l61 -61l-215 -216c82 -94.667 123 -205 123 -331zM773.999 285c118 0 218.5 41.666 301.5 124.999s124.5 184.333 124.5 303
c0 120.667 -41.5 222.834 -124.5 306.501s-183.5 125.5 -301.5 125.5c-120 0 -222.333 -42 -307 -126s-127 -186 -127 -306c0 -116.667 42.5 -217.167 127.5 -301.5s187.167 -126.5 306.5 -126.5z" />
    <glyph glyph-name="yen" unicode="&#xa5;" horiz-adv-x="1216" 
d="M1174 1434l-472 -707h347v-78h-392v-649h-92v649h-395v78h350l-477 707h111l458 -684l455 684h107z" />
    <glyph glyph-name="brokenbar" unicode="&#xa6;" horiz-adv-x="413" 
d="M162 907v731h90v-731h-90zM162 -397v731h90v-731h-90z" />
    <glyph glyph-name="section" unicode="&#xa7;" horiz-adv-x="1312" 
d="M997 201c75.333 -54 113.005 -136.001 113.005 -246.001c0 -101.333 -42 -187.5 -126 -258.5s-191.333 -106.5 -322 -106.5c-172.667 0 -332 59 -478 177l54 67c134.667 -106.667 276 -160 424 -160c104 0 190 27 258 81s102 120.667 102 200
c0 40.667 -7.5 76.334 -22.5 107.001s-35.5 55 -61.5 73s-56.333 34.167 -91 48.5s-71.334 25.333 -110.001 33s-78.5 16.5 -119.5 26.5l-119.5 29.5c-38.667 9.66699 -75.334 23.334 -110.001 41.001s-65 38 -91 61s-46.5 53.5 -61.5 91.5s-22.5 81.333 -22.5 130
c0 49.333 12.333 98 37 146s56.667 87.333 96 118c-76.667 53.333 -115 135.333 -115 246c0 99.333 39.667 181.5 119 246.5s179.666 97.5 300.999 97.5c83.333 0 162.166 -15.167 236.499 -45.5s130.166 -69.166 167.499 -116.499l-58 -63c-34 43.333 -82.667 78 -146 104
s-131.333 39 -204 39c-94 0 -172.5 -24.333 -235.5 -73s-94.5 -110.334 -94.5 -185.001c0 -41.333 7.5 -77.5 22.5 -108.5s35.5 -55.667 61.5 -74s56.333 -34.666 91 -48.999s71.5 -25.333 110.5 -33s79 -16.334 120 -26.001l120 -28c39 -9 75.833 -21.833 110.5 -38.5
s65 -36 91 -58s46.5 -51 61.5 -87s22.5 -77.667 22.5 -125c0 -50.667 -12 -101.834 -36 -153.501s-55.667 -94.5 -95 -128.5zM299.005 595.999c0 -47.333 10 -87.835 30 -121.502s45.5 -59.5 76.5 -77.5s69 -34 114 -48s88.5 -24.667 130.5 -32s88.5 -17.166 139.5 -29.499
s93.833 -26.166 128.5 -41.499c37.333 26 67 61.167 89 105.5s33 88.833 33 133.5c0 44 -9.83301 81.667 -29.5 113s-44.834 55.5 -75.501 72.5s-68.167 32 -112.5 45s-87.5 23 -129.5 30s-88.167 16.667 -138.5 29s-93.166 25.833 -128.499 40.5
c-37.333 -21.333 -67.833 -52.5 -91.5 -93.5s-35.5 -82.833 -35.5 -125.5z" />
    <glyph glyph-name="dieresis" unicode="&#xa8;" horiz-adv-x="632" 
d="M182 1401c20 0 38 -7.66797 54 -23.001s24 -33 24 -53c0 -22 -8 -40.5 -24 -55.5s-34 -22.5 -54 -22.5c-22.667 0 -41.667 7.33301 -57 22s-23 33.334 -23 56.001c0 20.667 7.83301 38.5 23.5 53.5s34.5 22.5 56.5 22.5zM451 1401c20.667 0 39.001 -7.66699 55.001 -23
s24 -33 24 -53c0 -22 -7.83301 -40.5 -23.5 -55.5s-34.167 -22.5 -55.5 -22.5c-22 0 -40.5 7.5 -55.5 22.5s-22.5 33.5 -22.5 55.5c0 20.667 7.66699 38.5 23 53.5s33.666 22.5 54.999 22.5z" />
    <glyph glyph-name="copyright" unicode="&#xa9;" horiz-adv-x="1701" 
d="M850 -20c-132 0 -254.5 33 -367.5 99s-202.5 155.5 -268.5 268.5s-99 236.167 -99 369.5s33 256.5 99 369.5s155.5 202.5 268.5 268.5s235.5 99 367.5 99c134 0 257.667 -33 371 -99s203 -155.5 269 -268.5s99 -236.167 99 -369.5s-33 -256.5 -99 -369.5
s-155.667 -202.5 -269 -268.5s-237 -99 -371 -99zM852 37c91.333 0 178.833 18 262.5 54s155.667 84.333 216 145s108.333 133 144 217s53.5 172 53.5 264s-17.833 180 -53.5 264s-83.667 156.333 -144 217s-132.333 109 -216 145s-171.167 54 -262.5 54
s-178.833 -18 -262.5 -54s-155.834 -84.333 -216.501 -145s-109 -133 -145 -217s-54 -172 -54 -264s18 -180 54 -264s84.333 -156.333 145 -217s132.834 -109 216.501 -145s171.167 -54 262.5 -54zM1219 496c-24.667 -64.667 -70.168 -116.668 -136.501 -156.001
s-141.166 -59 -224.499 -59c-122 0 -223.167 41.833 -303.5 125.5s-120.5 188.5 -120.5 314.5c0 123.333 40.333 226.5 121 309.5s181.667 124.5 303 124.5c78 0 149.167 -17.833 213.5 -53.5s109.833 -82.5 136.5 -140.5l-57 -29c-24.667 48 -63.667 86.667 -117 116
s-112 44 -176 44c-102.667 0 -187.667 -35.333 -255 -106s-101 -159 -101 -265c0 -108 33.667 -198.167 101 -270.5s152.333 -108.5 255 -108.5c68.667 0 130.5 16.333 185.5 49s94.167 76.334 117.5 131.001z" />
    <glyph glyph-name="ordfeminine" unicode="&#xaa;" horiz-adv-x="731" 
d="M571 1440l66 -0.000976562v-596h-66v92c-18.667 -29.333 -48.334 -54.166 -89.001 -74.499s-82 -30.5 -124 -30.5c-86 0 -157.667 30 -215 90s-86 134 -86 222s28.667 161.5 86 220.5s129 88.5 215 88.5c42 0 83.333 -10 124 -30s70.334 -44.667 89.001 -74v92z
M367 892.999c40 0 79.332 10.667 117.999 32s67.334 48.333 86.001 81v272c-18.667 34 -47.5 61.333 -86.5 82s-78.167 31 -117.5 31c-70 0 -128.833 -23.5 -176.5 -70.5s-71.5 -106.167 -71.5 -177.5s23.833 -130.833 71.5 -178.5s106.5 -71.5 176.5 -71.5z" />
    <glyph glyph-name="guillemotleft" unicode="&#xab;" horiz-adv-x="1255" 
d="M643 68l-549 432v67l549 432v-98l-467 -366l467 -367v-100zM1135 68l-549 432v67l549 432v-98l-467 -366l467 -367v-100z" />
    <glyph glyph-name="logicalnot" unicode="&#xac;" horiz-adv-x="1189" 
d="M1028 682v-502h-86v418h-780v84h866z" />
    <glyph glyph-name="uni00AD" unicode="&#xad;" horiz-adv-x="593" 
d="M51 485v82h492v-82h-492z" />
    <glyph glyph-name="registered" unicode="&#xae;" horiz-adv-x="1701" 
d="M850 1454c134 0 257.667 -33 371 -99s203 -155.5 269 -268.5s99 -236.167 99 -369.5s-33 -256.5 -99 -369.5s-155.667 -202.5 -269 -268.5s-237 -99 -371 -99c-132 0 -254.5 33 -367.5 99s-202.5 155.5 -268.5 268.5s-99 236.167 -99 369.5s33 256.5 99 369.5
s155.5 202.5 268.5 268.5s235.5 99 367.5 99zM852 37c91.333 0 178.833 18 262.5 54s155.667 84.333 216 145s108.333 133 144 217s53.5 172 53.5 264s-17.833 180 -53.5 264s-83.667 156.333 -144 217s-132.333 109 -216 145s-171.167 54 -262.5 54
s-178.833 -18 -262.5 -54s-155.834 -84.333 -216.501 -145s-109 -133 -145 -217s-54 -172 -54 -264s18 -180 54 -264s84.333 -156.333 145 -217s132.834 -109 216.501 -145s171.167 -54 262.5 -54zM1141 907c0 -66 -20.334 -120.668 -61.001 -164.001
s-94 -67.666 -160 -72.999l258 -377h-78l-254 377h-187v-377h-67v850h303c70.667 0 129.334 -22.5 176.001 -67.5s70 -101.167 70 -168.5zM656.999 1079l2 -348h234c52 0 95.333 16.667 130 50s52 75.333 52 126c0 50 -17.333 91.167 -52 123.5s-78 48.5 -130 48.5h-236z
" />
    <glyph glyph-name="macron" unicode="&#xaf;" horiz-adv-x="860" 
d="M102 1151v76h656v-76h-656z" />
    <glyph glyph-name="degree" unicode="&#xb0;" horiz-adv-x="804" 
d="M680 1176c0 -78 -27.667 -145 -83 -201s-121.333 -84 -198 -84c-78 0 -144.5 28 -199.5 84s-82.5 123 -82.5 201c0 76.667 27.5 142.167 82.5 196.5s121.5 81.5 199.5 81.5c77.333 0 143.5 -27.167 198.5 -81.5s82.5 -119.833 82.5 -196.5zM612 1176
c0 58 -20.833 107.501 -62.5 148.501s-91.834 61.5 -150.501 61.5c-59.333 0 -110 -20.333 -152 -61s-63 -90.334 -63 -149.001c0 -60 21 -111.333 63 -154s92.667 -64 152 -64c58.667 0 108.834 21.5 150.501 64.5s62.5 94.167 62.5 153.5z" />
    <glyph glyph-name="plusminus" unicode="&#xb1;" horiz-adv-x="1163" 
d="M623 713h378v-84h-378v-379h-84v379h-377v84h377v377h84v-377zM162 0v82h839v-82h-839z" />
    <glyph glyph-name="twosuperior" unicode="&#xb2;" horiz-adv-x="641" 
d="M39 573l0.000976562 52.001l336 348c84.667 88.667 127 165 127 229c0 52 -17.833 95 -53.5 129s-80.834 51 -135.501 51c-60.667 0 -110.667 -18 -150 -54s-60.333 -84.667 -63 -146l-65 6c2.66699 77.333 30 139.666 82 186.999s117.333 71 196 71
c74 0 135.5 -22.833 184.5 -68.5s73.5 -103.5 73.5 -173.5c0 -80 -49.667 -170.667 -149 -272l-283 -295h445v-64h-545z" />
    <glyph glyph-name="threesuperior" unicode="&#xb3;" horiz-adv-x="651" 
d="M213 1059l279.001 310.998h-439v64h531v-50l-283 -313c18 4 36.333 6 55 6c67.333 0 124.166 -22.833 170.499 -68.5s69.5 -103.167 69.5 -172.5c0 -79.333 -26.667 -145 -80 -197s-121 -78 -203 -78c-69.333 0 -131 19.333 -185 58s-88.333 88.334 -103 149.001l59 23
c13.333 -49.333 41.5 -89.333 84.5 -120s91.167 -46 144.5 -46c62.667 0 114.167 20.167 154.5 60.5s60.5 91.833 60.5 154.5c0 56.667 -19.167 101.834 -57.5 135.501s-87.166 50.5 -146.499 50.5c-26.667 0 -55.334 -4 -86.001 -12z" />
    <glyph glyph-name="acute" unicode="&#xb4;" horiz-adv-x="485" 
d="M383 1391l-193 -275h-88l162 275h119z" />
    <glyph glyph-name="mu" unicode="&#xb5;" horiz-adv-x="1202" 
d="M952 991l88.002 -0.000976562v-991h-88v172c-34.667 -58 -86.834 -104.5 -156.501 -139.5s-144.5 -52.5 -224.5 -52.5c-66.667 0 -127.334 12.833 -182.001 38.5s-100.334 61.834 -137.001 108.501v-524h-90v1388h90v-567c0 -107.333 30.667 -193.833 92 -259.5
s141.333 -98.5 240 -98.5c77.333 0 149.333 18.167 216 54.5s117.334 85.5 152.001 147.5v723z" />
    <glyph glyph-name="paragraph" unicode="&#xb6;" horiz-adv-x="1263" 
d="M1198 1434v-86.001h-154v-1745h-90v1745h-200v-1745h-88v1046h-183c-110.667 0 -204.5 38.5 -281.5 115.5s-115.5 170.167 -115.5 279.5c0 108.667 38.5 200.834 115.5 276.501s170.833 113.5 281.5 113.5h715zM666 734.999v612.999h-185
c-84 0 -155.5 -29.667 -214.5 -89s-88.5 -131 -88.5 -215c0 -85.333 29.5 -158.166 88.5 -218.499s130.5 -90.5 214.5 -90.5h185z" />
    <glyph glyph-name="periodcentered" unicode="&#xb7;" horiz-adv-x="432" 
d="M215 432c-25.333 0 -46.666 8.66699 -63.999 26s-26 38.666 -26 63.999s8.66699 47 26 65s38.666 27 63.999 27c26 0 47.833 -8.83301 65.5 -26.5s26.5 -39.5 26.5 -65.5c0 -25.333 -8.66699 -46.666 -26 -63.999s-39.333 -26 -66 -26z" />
    <glyph glyph-name="cedilla" unicode="&#xb8;" horiz-adv-x="483" 
d="M160 25l76 -0.000976562c50 -41.333 87.167 -84.5 111.5 -129.5s35.333 -86.5 33 -124.5s-13.666 -72.5 -33.999 -103.5s-50 -55.5 -89 -73.5s-83.167 -27.333 -132.5 -28l-23 69c58 7.33301 104.167 23 138.5 47s54.666 53.333 60.999 88s-2.5 74.334 -26.5 119.001
s-62.333 90 -115 136z" />
    <glyph glyph-name="onesuperior" unicode="&#xb9;" horiz-adv-x="385" 
d="M281 1434v-861h-68v779l-182 -117v74l198 125h52z" />
    <glyph glyph-name="ordmasculine" unicode="&#xba;" horiz-adv-x="724" 
d="M362 1452c85.333 0 157.666 -30 216.999 -90s89 -133 89 -219c0 -88 -29.667 -162 -89 -222s-131.666 -90 -216.999 -90c-86 0 -158.333 30 -217 90s-88 134 -88 222c0 86 29.333 159 88 219s131 90 217 90zM362 1391c-68.667 0 -126.333 -24 -173 -72
s-70 -106.667 -70 -176c0 -70 23.5 -129.167 70.5 -177.5s104.5 -72.5 172.5 -72.5c67.333 0 124.833 24.333 172.5 73s71.5 107.667 71.5 177s-23.667 128 -71 176s-105 72 -173 72z" />
    <glyph glyph-name="guillemotright" unicode="&#xbb;" horiz-adv-x="1255" 
d="M121 68v100l467 367l-467 366v98l549 -432v-67zM612 68v100l467 367l-467 366v98l549 -432v-67z" />
    <glyph glyph-name="onequarter" unicode="&#xbc;" horiz-adv-x="1597" 
d="M213 573v779l-182 -117v74l198 125h52v-861h-68zM1087 1434h78l-952 -1434h-78zM1561 262v-63h-127v-199h-66v199h-440v49l323 612h74l-317 -598h360v320h66v-320h127z" />
    <glyph glyph-name="onehalf" unicode="&#xbd;" horiz-adv-x="1482" 
d="M281 1434v-861h-68v779l-182 -117v74l198 125h52zM1087 1434h78l-952 -1434h-78zM926 0l0.000976562 50.999l336 348c84.667 88.667 127 165.334 127 230.001c0 52 -17.833 95 -53.5 129s-80.834 51 -135.501 51c-60.667 0 -110.667 -18.167 -150 -54.5
s-60.333 -85.166 -63 -146.499l-65 6c2.66699 77.333 30 139.666 82 186.999s117.333 71 196 71c74 0 135.5 -22.667 184.5 -68s73.5 -103 73.5 -173c0 -80.667 -49.667 -171.667 -149 -273l-283 -295h444v-63h-544z" />
    <glyph glyph-name="threequarters" unicode="&#xbe;" horiz-adv-x="1837" 
d="M596 836c0 -79.333 -26.666 -145.002 -79.999 -197.002s-121 -78 -203 -78c-69.333 0 -131 19.333 -185 58s-88.333 88.334 -103 149.001l59 23c13.333 -49.333 41.5 -89.333 84.5 -120s91.167 -46 144.5 -46c62.667 0 114.167 20.167 154.5 60.5s60.5 91.833 60.5 154.5
c0 56.667 -19.167 101.834 -57.5 135.501s-87.166 50.5 -146.499 50.5c-26.667 0 -55.334 -4 -86.001 -12l-25 45l279 311h-439v64h531v-50l-283 -313c18 4 36.333 6 55 6c67.333 0 124.166 -22.833 170.499 -68.5s69.5 -103.167 69.5 -172.5zM1329 1434h78l-952 -1434h-78z
M1802 261.998v-63h-127v-199h-65v199h-441v49l324 612h74l-318 -598h361v320h65v-320h127z" />
    <glyph glyph-name="questiondown" unicode="&#xbf;" horiz-adv-x="974" 
d="M518 1454c25.333 0 46.666 -8.66699 63.999 -26s26 -38.666 26 -63.999s-8.66699 -47 -26 -65s-38.666 -27 -63.999 -27c-26 0 -47.833 8.83301 -65.5 26.5s-26.5 39.5 -26.5 65.5c0 25.333 8.66699 46.666 26 63.999s39.333 26 66 26zM479 -20
c-122.667 0 -222.67 36.832 -300.003 110.499s-116 167.834 -116 282.501c0 49.333 7.66699 94.666 23 135.999s35.166 76.5 59.499 105.5s51.166 56.667 80.499 83l88.5 77.5c29.667 25.333 56.834 51.833 81.501 79.5s44.834 60.834 60.501 99.501s23.834 81 24.501 127
h86c0 -53.333 -7.5 -102.166 -22.5 -146.499s-34.5 -81.833 -58.5 -112.5s-50.667 -59.334 -80 -86.001l-87.5 -76.5c-29 -24.333 -55.5 -49.333 -79.5 -75s-43.5 -56.167 -58.5 -91.5s-22.5 -74 -22.5 -116c0 -91.333 29.833 -166 89.5 -224s136.834 -87 231.501 -87
c102.667 0 187.834 32.167 255.501 96.5s104.167 146.166 109.5 245.499l88 -11c-5.33301 -121.333 -50 -221.166 -134 -299.499s-190.333 -117.5 -319 -117.5z" />
    <glyph glyph-name="Agrave" unicode="&#xc0;" horiz-adv-x="1312" 
d="M709 1559h-86l-195 274h119zM1180 0l-158 397h-733l-160 -397h-96l575 1434h94l578 -1434h-100zM324 483h663l-332 830z" />
    <glyph glyph-name="Aacute" unicode="&#xc1;" horiz-adv-x="1312" 
d="M874 1833l-192 -274h-88l162 274h118zM1180 0l-158 397h-733l-160 -397h-96l575 1434h94l578 -1434h-100zM324 483h663l-332 830z" />
    <glyph glyph-name="Acircumflex" unicode="&#xc2;" horiz-adv-x="1312" 
d="M657 1786l-149 -209h-82l180 274h105l178 -274h-82zM1180 0l-158 397h-733l-160 -397h-96l575 1434h94l578 -1434h-100zM324 483h663l-332 830z" />
    <glyph glyph-name="Atilde" unicode="&#xc3;" horiz-adv-x="1312" 
d="M516 1706c-30 0 -54 -11.3301 -72 -33.9971s-26.667 -52.334 -26 -89.001l-76 10c2.66699 56.667 20 102.667 52 138s71.333 53 118 53c24.667 0 51.167 -6.33301 79.5 -19s53 -26.834 74 -42.501s43.667 -29.834 68 -42.501s45.5 -19 63.5 -19c30 0 54.333 11.333 73 34
s27.667 51.667 27 87l76 -10c-2.66699 -56.667 -20.167 -102.667 -52.5 -138s-71.5 -53 -117.5 -53c-26 0 -53 6.5 -81 19.5s-52.167 27.333 -72.5 43s-42.833 30 -67.5 43s-46.667 19.5 -66 19.5zM1180 0.00292969l-158 397h-733l-160 -397h-96l575 1434h94l578 -1434h-100
zM324 483.003h663l-332 830z" />
    <glyph glyph-name="Adieresis" unicode="&#xc4;" horiz-adv-x="1312" 
d="M522 1593c-21.333 0 -39.666 7.66699 -54.999 23s-23 34.333 -23 57c0 20 7.66699 37.667 23 53s33.666 23 54.999 23c20.667 0 39.167 -7.83301 55.5 -23.5s24.5 -33.167 24.5 -52.5c0 -22 -8.16699 -40.833 -24.5 -56.5s-34.833 -23.5 -55.5 -23.5zM793 1593
c-22 0 -40.833 7.83301 -56.5 23.5s-23.5 34.5 -23.5 56.5c0 20 8 37.667 24 53s34.667 23 56 23c19.333 0 37 -7.83301 53 -23.5s24 -33.167 24 -52.5c0 -22 -7.83301 -40.833 -23.5 -56.5s-33.5 -23.5 -53.5 -23.5zM1180 0l-158 397h-733l-160 -397h-96l575 1434h94
l578 -1434h-100zM324 483h663l-332 830z" />
    <glyph glyph-name="Aring" unicode="&#xc5;" horiz-adv-x="1312" 
d="M657 1556c-64.667 0 -118 20.333 -160 61s-63 92.334 -63 155.001s21 114.167 63 154.5s95.333 60.5 160 60.5c65.333 0 119.333 -20.167 162 -60.5s64 -91.833 64 -154.5s-21.333 -114.334 -64 -155.001s-96.667 -61 -162 -61zM657 1923c-44.667 0 -82 -14.333 -112 -43
s-45 -64.667 -45 -108s15 -79.5 45 -108.5s67.333 -43.5 112 -43.5c46 0 83.833 14.5 113.5 43.5s44.5 65.167 44.5 108.5s-14.833 79.333 -44.5 108s-67.5 43 -113.5 43zM1180 0l-158 397h-733l-160 -397h-96l575 1434h94l578 -1434h-100zM324 483h663l-332 830z" />
    <glyph glyph-name="AE" unicode="&#xc6;" horiz-adv-x="1871" 
d="M1743 1348h-676v-527h602v-86h-602v-649h676v-86h-768v410h-580l-258 -410h-104l909 1434h801v-86zM446 492h529v837z" />
    <glyph glyph-name="Ccedilla" unicode="&#xc7;" horiz-adv-x="1536" 
d="M1434 340c-40.667 -103.333 -112.168 -187.331 -214.501 -251.998s-218.833 -100 -349.5 -106c38 -39.333 65 -79.5 81 -120.5s21 -78.667 15 -113s-19.667 -65.166 -41 -92.499s-50.5 -49 -87.5 -65s-78.5 -24.333 -124.5 -25l-23 69
c71.333 8.66699 124.5 29.5 159.5 62.5s48 74.333 39 124s-40.167 102.5 -93.5 158.5c-98 4.66699 -189.167 26.667 -273.5 66s-156.166 91.666 -215.499 156.999s-106 143 -140 233s-51 185.667 -51 287c0 137.333 30.333 261.666 91 372.999s145.5 198.833 254.5 262.5
s231.833 95.5 368.5 95.5c130.667 0 249.5 -29.167 356.5 -87.5s183.5 -136.166 229.5 -233.499l-80 -41c-42 83.333 -109 150.166 -201 200.499s-193.667 75.5 -305 75.5c-120 0 -227.5 -28 -322.5 -84s-168.667 -133 -221 -231s-78.5 -208 -78.5 -330
c0 -124 26.167 -236 78.5 -336s126 -178.5 221 -235.5s202.5 -85.5 322.5 -85.5c117.333 0 224 28.167 320 84.5s164.333 131.166 205 224.499z" />
    <glyph glyph-name="Egrave" unicode="&#xc8;" horiz-adv-x="1081" 
d="M338 1833h119l161 -274h-86zM184 1434h768v-86h-678v-527h605v-86h-605v-649h678v-86h-768v1434z" />
    <glyph glyph-name="Eacute" unicode="&#xc9;" horiz-adv-x="1081" 
d="M784 1833l-192 -274h-88l162 274h118zM184 1434h768v-86h-678v-527h605v-86h-605v-649h678v-86h-768v1434z" />
    <glyph glyph-name="Ecircumflex" unicode="&#xca;" horiz-adv-x="1081" 
d="M567 1786l-149 -209h-82l180 274h105l178 -274h-82zM952 1348h-678v-527h605v-86h-605v-649h678v-86h-768v1434h768v-86z" />
    <glyph glyph-name="Edieresis" unicode="&#xcb;" horiz-adv-x="1081" 
d="M432 1749c20.667 0 39.167 -7.83301 55.5 -23.5s24.5 -33.167 24.5 -52.5c0 -22 -8.16699 -40.833 -24.5 -56.5s-34.833 -23.5 -55.5 -23.5c-21.333 0 -39.666 7.66699 -54.999 23s-23 34.333 -23 57c0 20 7.66699 37.667 23 53s33.666 23 54.999 23zM702 1749
c19.333 0 37.167 -7.83301 53.5 -23.5s24.5 -33.167 24.5 -52.5c0 -22 -8 -40.833 -24 -56.5s-34 -23.5 -54 -23.5c-21.333 0 -39.833 7.83301 -55.5 23.5s-23.5 34.5 -23.5 56.5c0 20 7.83301 37.667 23.5 53s34.167 23 55.5 23zM184.001 1434h768v-86h-678v-527h605v-86
h-605v-649h678v-86h-768v1434z" />
    <glyph glyph-name="Igrave" unicode="&#xcc;" horiz-adv-x="458" 
d="M0 1833h119l162 -274h-86zM184 1434h90v-1434h-90v1434z" />
    <glyph glyph-name="Iacute" unicode="&#xcd;" horiz-adv-x="458" 
d="M446 1833l-192 -274h-88l162 274h118zM184 1434h90v-1434h-90v1434z" />
    <glyph glyph-name="Icircumflex" unicode="&#xce;" horiz-adv-x="458" 
d="M283 1851l178 -274h-82l-150 209l-149 -209h-82l180 274h105zM184 0v1434h90v-1434h-90z" />
    <glyph glyph-name="Idieresis" unicode="&#xcf;" horiz-adv-x="458" 
d="M94 1749c20.667 0 39.167 -7.83301 55.5 -23.5s24.5 -33.167 24.5 -52.5c0 -22 -8.16699 -40.833 -24.5 -56.5s-34.833 -23.5 -55.5 -23.5c-21.333 0 -39.666 7.66699 -54.999 23s-23 34.333 -23 57c0 20 7.66699 37.667 23 53s33.666 23 54.999 23zM365 1749
c19.333 0 37 -7.83301 53 -23.5s24 -33.167 24 -52.5c0 -22 -7.83301 -40.833 -23.5 -56.5s-33.5 -23.5 -53.5 -23.5c-22 0 -40.833 7.83301 -56.5 23.5s-23.5 34.5 -23.5 56.5c0 20 8 37.667 24 53s34.667 23 56 23zM184 1434h90v-1434h-90v1434z" />
    <glyph glyph-name="Eth" unicode="&#xd0;" horiz-adv-x="1417" 
d="M608 1434c96.667 0 187.832 -17.832 273.499 -53.499s159.334 -84.5 221.001 -146.5s110.5 -137.333 146.5 -226s54 -183.667 54 -285c0 -100.667 -18 -195.834 -54 -285.501s-84.833 -166.5 -146.5 -230.5s-135.5 -114.5 -221.5 -151.5s-177 -55.5 -273 -55.5h-424v688
h-243v70h243v676h424zM611.998 86.001c84 0 162.833 16.167 236.5 48.5s137 76.5 190 132.5s94.833 123.5 125.5 202.5s46 163.5 46 253.5c0 120 -26 227.667 -78 323s-123.5 169.5 -214.5 222.5s-192.833 79.5 -305.5 79.5h-338v-590h252v-70h-252v-602h338z" />
    <glyph glyph-name="Ntilde" unicode="&#xd1;" horiz-adv-x="1454" 
d="M416 1593c2.66699 56.667 20 102.67 52 138.003s71.333 53 118 53c24.667 0 51.167 -6.33301 79.5 -19s52.833 -26.834 73.5 -42.501s43.167 -29.834 67.5 -42.501s45.5 -19 63.5 -19c30 0 54.5 11.333 73.5 34s28.167 51.667 27.5 87l76 -10
c-2.66699 -56.667 -20.167 -102.667 -52.5 -138s-71.5 -53 -117.5 -53c-26 0 -53 6.5 -81 19.5s-52.167 27.333 -72.5 43s-42.833 30 -67.5 43s-46.667 19.5 -66 19.5c-30 0 -54 -11.333 -72 -34s-26.667 -52.334 -26 -89.001zM184 1434h97l899 -1284v1284h90v-1434h-96
l-900 1284v-1284h-90v1434z" />
    <glyph glyph-name="Ograve" unicode="&#xd2;" horiz-adv-x="1665" 
d="M602 1833h119l162 -274h-86zM831 1454c99.333 0 193.333 -19 282 -57s165 -89.5 229 -154.5s114.667 -142.667 152 -233s56 -185.833 56 -286.5c0 -102.667 -18.667 -200 -56 -292s-88 -170.833 -152 -236.5s-140.333 -117.834 -229 -156.501s-182.667 -58 -282 -58
c-98.667 0 -192.167 19.333 -280.5 58s-164.333 90.834 -228 156.501s-114.167 144.5 -151.5 236.5s-56 189.333 -56 292c0 100.667 18.667 196.167 56 286.5s87.833 168 151.5 233s139.667 116.5 228 154.5s181.833 57 280.5 57zM831 1368
c-114.667 0 -219.833 -28.332 -315.5 -84.999s-171 -134.5 -226 -233.5s-82.5 -207.833 -82.5 -326.5c0 -121.333 27.5 -232.333 82.5 -333s130.333 -179.834 226 -237.501s200.834 -86.5 315.501 -86.5c115.333 0 221 28.833 317 86.5s171.667 136.834 227 237.501
s83 211.667 83 333c0 89.333 -16.333 173.833 -49 253.5s-76.834 148.167 -132.501 205.5s-122.167 102.666 -199.5 135.999s-159.333 50 -246 50z" />
    <glyph glyph-name="Oacute" unicode="&#xd3;" horiz-adv-x="1665" 
d="M1049 1833l-193 -274h-88l162 274h119zM831 1454c99.333 0 193.333 -19 282 -57s165 -89.5 229 -154.5s114.667 -142.667 152 -233s56 -185.833 56 -286.5c0 -102.667 -18.667 -200 -56 -292s-88 -170.833 -152 -236.5s-140.333 -117.834 -229 -156.501
s-182.667 -58 -282 -58c-98.667 0 -192.167 19.333 -280.5 58s-164.333 90.834 -228 156.501s-114.167 144.5 -151.5 236.5s-56 189.333 -56 292c0 100.667 18.667 196.167 56 286.5s87.833 168 151.5 233s139.667 116.5 228 154.5s181.833 57 280.5 57zM831 1368
c-114.667 0 -219.833 -28.332 -315.5 -84.999s-171 -134.5 -226 -233.5s-82.5 -207.833 -82.5 -326.5c0 -121.333 27.5 -232.333 82.5 -333s130.333 -179.834 226 -237.501s200.834 -86.5 315.501 -86.5c115.333 0 221 28.833 317 86.5s171.667 136.834 227 237.501
s83 211.667 83 333c0 89.333 -16.333 173.833 -49 253.5s-76.834 148.167 -132.501 205.5s-122.167 102.666 -199.5 135.999s-159.333 50 -246 50z" />
    <glyph glyph-name="Ocircumflex" unicode="&#xd4;" horiz-adv-x="1665" 
d="M831 1786l-149 -209h-82l180 274h105l178 -274h-82zM831 1454c99.333 0 193.333 -19 282 -57s165 -89.5 229 -154.5s114.667 -142.667 152 -233s56 -185.833 56 -286.5c0 -102.667 -18.667 -200 -56 -292s-88 -170.833 -152 -236.5s-140.333 -117.834 -229 -156.501
s-182.667 -58 -282 -58c-98.667 0 -192.167 19.333 -280.5 58s-164.333 90.834 -228 156.501s-114.167 144.5 -151.5 236.5s-56 189.333 -56 292c0 100.667 18.667 196.167 56 286.5s87.833 168 151.5 233s139.667 116.5 228 154.5s181.833 57 280.5 57zM831 66
c115.333 0 221.001 28.834 317.001 86.501s171.667 136.834 227 237.501s83 211.667 83 333c0 89.333 -16.333 173.833 -49 253.5s-76.834 148.167 -132.501 205.5s-122.167 102.666 -199.5 135.999s-159.333 50 -246 50c-114.667 0 -219.834 -28.333 -315.501 -85
s-171 -134.5 -226 -233.5s-82.5 -207.833 -82.5 -326.5c0 -121.333 27.5 -232.333 82.5 -333s130.333 -179.834 226 -237.501s200.834 -86.5 315.501 -86.5z" />
    <glyph glyph-name="Otilde" unicode="&#xd5;" horiz-adv-x="1665" 
d="M516 1593c2.66699 56.667 20 102.67 52 138.003s71.333 53 118 53c24.667 0 51.167 -6.33301 79.5 -19s53 -26.834 74 -42.501s43.667 -29.834 68 -42.501s45.5 -19 63.5 -19c30 0 54.333 11.333 73 34s27.667 51.667 27 87l76 -10
c-2.66699 -56.667 -20.167 -102.667 -52.5 -138s-71.5 -53 -117.5 -53c-26 0 -53 6.5 -81 19.5s-52.167 27.333 -72.5 43s-42.833 30 -67.5 43s-46.667 19.5 -66 19.5c-30 0 -54 -11.333 -72 -34s-26.667 -52.334 -26 -89.001zM831 1454c99.333 0 193.333 -19 282 -57
s165 -89.5 229 -154.5s114.667 -142.667 152 -233s56 -185.833 56 -286.5c0 -102.667 -18.667 -200 -56 -292s-88 -170.833 -152 -236.5s-140.333 -117.834 -229 -156.501s-182.667 -58 -282 -58c-98.667 0 -192.167 19.333 -280.5 58s-164.333 90.834 -228 156.501
s-114.167 144.5 -151.5 236.5s-56 189.333 -56 292c0 100.667 18.667 196.167 56 286.5s87.833 168 151.5 233s139.667 116.5 228 154.5s181.833 57 280.5 57zM831 1368c-114.667 0 -219.833 -28.332 -315.5 -84.999s-171 -134.5 -226 -233.5s-82.5 -207.833 -82.5 -326.5
c0 -121.333 27.5 -232.333 82.5 -333s130.333 -179.834 226 -237.501s200.834 -86.5 315.501 -86.5c115.333 0 221 28.833 317 86.5s171.667 136.834 227 237.501s83 211.667 83 333c0 89.333 -16.333 173.833 -49 253.5s-76.834 148.167 -132.501 205.5
s-122.167 102.666 -199.5 135.999s-159.333 50 -246 50z" />
    <glyph glyph-name="Odieresis" unicode="&#xd6;" horiz-adv-x="1665" 
d="M696 1749c20.667 0 39.167 -7.83301 55.5 -23.5s24.5 -33.167 24.5 -52.5c0 -22 -8.16699 -40.833 -24.5 -56.5s-34.833 -23.5 -55.5 -23.5c-21.333 0 -39.666 7.66699 -54.999 23s-23 34.333 -23 57c0 20 7.66699 37.667 23 53s33.666 23 54.999 23zM967 1749
c19.333 0 37 -7.83301 53 -23.5s24 -33.167 24 -52.5c0 -22 -7.83301 -40.833 -23.5 -56.5s-33.5 -23.5 -53.5 -23.5c-22 0 -40.833 7.83301 -56.5 23.5s-23.5 34.5 -23.5 56.5c0 20 8 37.667 24 53s34.667 23 56 23zM831 1454c99.333 0 193.333 -19 282 -57
s165 -89.5 229 -154.5s114.667 -142.667 152 -233s56 -185.833 56 -286.5c0 -102.667 -18.667 -200 -56 -292s-88 -170.833 -152 -236.5s-140.333 -117.834 -229 -156.501s-182.667 -58 -282 -58c-98.667 0 -192.167 19.333 -280.5 58s-164.333 90.834 -228 156.501
s-114.167 144.5 -151.5 236.5s-56 189.333 -56 292c0 100.667 18.667 196.167 56 286.5s87.833 168 151.5 233s139.667 116.5 228 154.5s181.833 57 280.5 57zM831 1368c-114.667 0 -219.833 -28.332 -315.5 -84.999s-171 -134.5 -226 -233.5s-82.5 -207.833 -82.5 -326.5
c0 -121.333 27.5 -232.333 82.5 -333s130.333 -179.834 226 -237.501s200.834 -86.5 315.501 -86.5c115.333 0 221 28.833 317 86.5s171.667 136.834 227 237.501s83 211.667 83 333c0 89.333 -16.333 173.833 -49 253.5s-76.834 148.167 -132.501 205.5
s-122.167 102.666 -199.5 135.999s-159.333 50 -246 50z" />
    <glyph glyph-name="multiply" unicode="&#xd7;" horiz-adv-x="1032" 
d="M870 346l-59 -59l-295 295l-295 -295l-59 59l295 295l-293 293l57 59l295 -293l293 293l59 -59l-293 -293z" />
    <glyph glyph-name="Oslash" unicode="&#xd8;" horiz-adv-x="1665" 
d="M831 1454c99.333 0 193.333 -19 282 -57s165 -89.5 229 -154.5s114.667 -142.667 152 -233s56 -185.833 56 -286.5c0 -102.667 -18.667 -200 -56 -292s-88 -170.833 -152 -236.5s-140.333 -117.834 -229 -156.501s-182.667 -58 -282 -58
c-98.667 0 -192.167 19.333 -280.5 58s-164.333 90.834 -228 156.501s-114.167 144.5 -151.5 236.5s-56 189.333 -56 292c0 100.667 18.667 196.167 56 286.5s87.833 168 151.5 233s139.667 116.5 228 154.5s181.833 57 280.5 57zM207 723c0 -92 16.333 -178.667 49 -260
s78.334 -152.333 137.001 -213l815 991c-110 84.667 -235.667 127 -377 127c-114.667 0 -219.834 -28.333 -315.501 -85s-171 -134.5 -226 -233.5s-82.5 -207.833 -82.5 -326.5zM831 66c115.333 0 221 28.833 317 86.5s171.667 136.834 227 237.501s83 211.667 83 333
c0 90.667 -16.167 175.667 -48.5 255s-78.166 148.666 -137.499 207.999l-817 -991c109.333 -86 234.666 -129 375.999 -129z" />
    <glyph glyph-name="Ugrave" unicode="&#xd9;" horiz-adv-x="1441" 
d="M492 1833h118l162 -274h-86zM721 -20c-154.667 0 -282.832 52 -384.499 156s-152.5 234.667 -152.5 392v906h90v-906c0 -132.667 42.167 -242.5 126.5 -329.5s191.166 -130.5 320.499 -130.5c128 0 234 43.5 318 130.5s126 196.833 126 329.5v906h92v-906
c0 -157.333 -50.667 -288 -152 -392s-229.333 -156 -384 -156z" />
    <glyph glyph-name="Uacute" unicode="&#xda;" horiz-adv-x="1441" 
d="M938 1833l-193 -274h-88l162 274h119zM721 -20c-154.667 0 -282.832 52 -384.499 156s-152.5 234.667 -152.5 392v906h90v-906c0 -132.667 42.167 -242.5 126.5 -329.5s191.166 -130.5 320.499 -130.5c128 0 234 43.5 318 130.5s126 196.833 126 329.5v906h92v-906
c0 -157.333 -50.667 -288 -152 -392s-229.333 -156 -384 -156z" />
    <glyph glyph-name="Ucircumflex" unicode="&#xdb;" horiz-adv-x="1441" 
d="M721 1786l-150 -209h-82l181 274h104l178 -274h-82zM1165 1434h92.002v-906c0 -157.333 -50.667 -288 -152 -392s-229.333 -156 -384 -156s-282.834 52 -384.501 156s-152.5 234.667 -152.5 392v906h90v-906c0 -132.667 42.167 -242.5 126.5 -329.5
s191.166 -130.5 320.499 -130.5c128 0 234 43.5 318 130.5s126 196.833 126 329.5v906z" />
    <glyph glyph-name="Udieresis" unicode="&#xdc;" horiz-adv-x="1441" 
d="M586 1749c20.667 0 39.167 -7.83301 55.5 -23.5s24.5 -33.167 24.5 -52.5c0 -22 -8.16699 -40.833 -24.5 -56.5s-34.833 -23.5 -55.5 -23.5c-21.333 0 -39.666 7.66699 -54.999 23s-23 34.333 -23 57c0 20 7.66699 37.667 23 53s33.666 23 54.999 23zM856 1749
c19.333 0 37.167 -7.83301 53.5 -23.5s24.5 -33.167 24.5 -52.5c0 -22 -8 -40.833 -24 -56.5s-34 -23.5 -54 -23.5c-22 0 -40.833 7.83301 -56.5 23.5s-23.5 34.5 -23.5 56.5c0 20 8 37.667 24 53s34.667 23 56 23zM721.001 -20c-154.667 0 -282.832 52 -384.499 156
s-152.5 234.667 -152.5 392v906h90v-906c0 -132.667 42.167 -242.5 126.5 -329.5s191.166 -130.5 320.499 -130.5c128 0 234 43.5 318 130.5s126 196.833 126 329.5v906h92v-906c0 -157.333 -50.667 -288 -152 -392s-229.333 -156 -384 -156z" />
    <glyph glyph-name="Yacute" unicode="&#xdd;" horiz-adv-x="1216" 
d="M827 1833l-192 -274h-88l162 274h118zM43 1434h111l458 -684l455 684h107l-517 -775v-659h-92v659z" />
    <glyph glyph-name="Thorn" unicode="&#xde;" horiz-adv-x="1212" 
d="M739 1112c111.333 0 205.167 -37.834 281.5 -113.501s114.5 -168.167 114.5 -277.5c0 -111.333 -38 -204.666 -114 -279.999s-170 -113 -282 -113h-465v-328h-90v1434h90v-322h465zM739.001 413.999c84.667 0 156.332 29.667 214.999 89s88 132 88 218
s-29.167 158.333 -87.5 217s-130.166 88 -215.499 88h-465v-612h465z" />
    <glyph glyph-name="germandbls" unicode="&#xdf;" horiz-adv-x="1200" 
d="M162 0l0.00292969 1040c0 126 41.667 226.5 125 301.5s191.666 112.5 324.999 112.5c116 0 215 -37.5 297 -112.5s123 -164.5 123 -268.5c0 -84.667 -25.5 -156.667 -76.5 -216s-116.167 -93 -195.5 -101c102 -8 185.5 -45.667 250.5 -113s97.5 -150.666 97.5 -249.999
c0 -109.333 -38.333 -202.166 -115 -278.499s-169.334 -114.5 -278.001 -114.5h-305v86h301c86 0 158.667 30 218 90s89 132.333 89 217c0 90.667 -33.333 165.334 -100 224.001s-156.334 88 -269.001 88h-239v83h233c84 0 154.833 27.333 212.5 82s86.5 121.667 86.5 201
c0 81.333 -32 151.5 -96 210.5s-142.667 88.5 -236 88.5c-103.333 0 -188.5 -30.833 -255.5 -92.5s-100.5 -140.834 -100.5 -237.501v-1040h-92z" />
    <glyph glyph-name="agrave" unicode="&#xe0;" horiz-adv-x="1226" 
d="M684 1116h-88l-193 275h119zM975 991h90v-991h-90v170c-30.667 -53.333 -81.5 -98.333 -152.5 -135s-143.833 -55 -218.5 -55c-145.333 0 -266.333 49.167 -363 147.5s-145 221.833 -145 370.5c0 146.667 48.333 269 145 367s217.667 147 363 147
c76 0 149.333 -18.5 220 -55.5s121 -82.167 151 -135.5v170zM614 63c71.333 0 141.166 19.334 209.499 58.001s118.833 87.667 151.5 147v455c-31.333 60 -81.166 109.5 -149.499 148.5s-138.833 58.5 -211.5 58.5c-123.333 0 -225.833 -41 -307.5 -123
s-122.5 -185 -122.5 -309c0 -124.667 40.833 -228.334 122.5 -311.001s184.167 -124 307.5 -124z" />
    <glyph glyph-name="aacute" unicode="&#xe1;" horiz-adv-x="1226" 
d="M850 1391l-195 -275h-86l162 275h119zM975 991h90v-991h-90v170c-30.667 -53.333 -81.5 -98.333 -152.5 -135s-143.833 -55 -218.5 -55c-145.333 0 -266.333 49.167 -363 147.5s-145 221.833 -145 370.5c0 146.667 48.333 269 145 367s217.667 147 363 147
c76 0 149.333 -18.5 220 -55.5s121 -82.167 151 -135.5v170zM614 63c71.333 0 141.166 19.334 209.499 58.001s118.833 87.667 151.5 147v455c-31.333 60 -81.166 109.5 -149.499 148.5s-138.833 58.5 -211.5 58.5c-123.333 0 -225.833 -41 -307.5 -123
s-122.5 -185 -122.5 -309c0 -124.667 40.833 -228.334 122.5 -311.001s184.167 -124 307.5 -124z" />
    <glyph glyph-name="acircumflex" unicode="&#xe2;" horiz-adv-x="1226" 
d="M631 1343l-150 -208h-82l181 274h104l178 -274h-82zM975 991h90v-991h-90v170c-30.667 -53.333 -81.5 -98.333 -152.5 -135s-143.833 -55 -218.5 -55c-145.333 0 -266.333 49.167 -363 147.5s-145 221.833 -145 370.5c0 146.667 48.333 269 145 367s217.667 147 363 147
c76 0 149.333 -18.5 220 -55.5s121 -82.167 151 -135.5v170zM614 63c71.333 0 141.166 19.334 209.499 58.001s118.833 87.667 151.5 147v455c-31.333 60 -81.166 109.5 -149.499 148.5s-138.833 58.5 -211.5 58.5c-123.333 0 -225.833 -41 -307.5 -123
s-122.5 -185 -122.5 -309c0 -124.667 40.833 -228.334 122.5 -311.001s184.167 -124 307.5 -124z" />
    <glyph glyph-name="atilde" unicode="&#xe3;" horiz-adv-x="1208" 
d="M481 1264c-28.667 0 -52.001 -11.332 -70.001 -33.999s-26.667 -52.334 -26 -89.001l-78 10c2.66699 56.667 20.334 102.5 53.001 137.5s72.334 52.5 119.001 52.5c24.667 0 51.167 -6.33301 79.5 -19s53 -26.667 74 -42s43.667 -29.333 68 -42s45.5 -19 63.5 -19
c29.333 0 53.333 11 72 33s28 51 28 87l76 -10c-2.66699 -56.667 -20.167 -102.5 -52.5 -137.5s-71.5 -52.5 -117.5 -52.5c-26 0 -53 6.5 -81 19.5s-52.333 27.333 -73 43s-43.334 30 -68.001 43s-47 19.5 -67 19.5zM974.999 991.001h90v-991h-90v170
c-30.667 -53.333 -81.5 -98.333 -152.5 -135s-143.833 -55 -218.5 -55c-145.333 0 -266.333 49.167 -363 147.5s-145 221.833 -145 370.5c0 146.667 48.333 269 145 367s217.667 147 363 147c76 0 149.333 -18.5 220 -55.5s121 -82.167 151 -135.5v170zM613.999 63.001
c71.333 0 141.166 19.334 209.499 58.001s118.833 87.667 151.5 147v455c-31.333 60 -81.166 109.5 -149.499 148.5s-138.833 58.5 -211.5 58.5c-123.333 0 -225.833 -41 -307.5 -123s-122.5 -185 -122.5 -309c0 -124.667 40.833 -228.334 122.5 -311.001
s184.167 -124 307.5 -124z" />
    <glyph glyph-name="adieresis" unicode="&#xe4;" horiz-adv-x="1226" 
d="M500 1247c-22.667 0 -41.667 7.33203 -57 21.999s-23 33.334 -23 56.001c0 20.667 7.83301 38.5 23.5 53.5s34.5 22.5 56.5 22.5c20 0 38 -7.66699 54 -23s24 -33 24 -53c0 -22 -8 -40.5 -24 -55.5s-34 -22.5 -54 -22.5zM768 1247c-22 0 -40.499 7.5 -55.499 22.5
s-22.5 33.5 -22.5 55.5c0 20.667 7.66699 38.5 23 53.5s33.666 22.5 54.999 22.5c20.667 0 39.167 -7.66699 55.5 -23s24.5 -33 24.5 -53c0 -22 -8 -40.5 -24 -55.5s-34.667 -22.5 -56 -22.5zM975.001 990.999h90v-991h-90v170c-30.667 -53.333 -81.5 -98.333 -152.5 -135
s-143.833 -55 -218.5 -55c-145.333 0 -266.333 49.167 -363 147.5s-145 221.833 -145 370.5c0 146.667 48.333 269 145 367s217.667 147 363 147c76 0 149.333 -18.5 220 -55.5s121 -82.167 151 -135.5v170zM614.001 62.999c71.333 0 141.166 19.334 209.499 58.001
s118.833 87.667 151.5 147v455c-31.333 60 -81.166 109.5 -149.499 148.5s-138.833 58.5 -211.5 58.5c-123.333 0 -225.833 -41 -307.5 -123s-122.5 -185 -122.5 -309c0 -124.667 40.833 -228.334 122.5 -311.001s184.167 -124 307.5 -124z" />
    <glyph glyph-name="aring" unicode="&#xe5;" horiz-adv-x="1226" 
d="M633 1114c-65.333 0 -119.166 20.167 -161.499 60.5s-63.5 91.833 -63.5 154.5s21.167 114.167 63.5 154.5s96.166 60.5 161.499 60.5c64.667 0 118 -20.167 160 -60.5s63 -91.833 63 -154.5s-21 -114.167 -63 -154.5s-95.333 -60.5 -160 -60.5zM633 1481
c-46 0 -83.833 -14.5 -113.5 -43.5s-44.5 -65.167 -44.5 -108.5s14.833 -79.333 44.5 -108s67.5 -43 113.5 -43c44.667 0 82.167 14.333 112.5 43s45.5 64.667 45.5 108s-15.167 79.5 -45.5 108.5s-67.833 43.5 -112.5 43.5zM975 991h90v-991h-90v170
c-30.667 -53.333 -81.5 -98.333 -152.5 -135s-143.833 -55 -218.5 -55c-145.333 0 -266.333 49.167 -363 147.5s-145 221.833 -145 370.5c0 146.667 48.333 269 145 367s217.667 147 363 147c76 0 149.333 -18.5 220 -55.5s121 -82.167 151 -135.5v170zM614 63
c71.333 0 141.166 19.334 209.499 58.001s118.833 87.667 151.5 147v455c-31.333 60 -81.166 109.5 -149.499 148.5s-138.833 58.5 -211.5 58.5c-123.333 0 -225.833 -41 -307.5 -123s-122.5 -185 -122.5 -309c0 -124.667 40.833 -228.334 122.5 -311.001
s184.167 -124 307.5 -124z" />
    <glyph glyph-name="ae" unicode="&#xe6;" horiz-adv-x="2041" 
d="M1946 508l-879 0.000976562v-4c0 -128.667 39.5 -234.667 118.5 -318s176.833 -125 293.5 -125c84 0 158.667 17 224 51s114.666 81.333 147.999 142l70 -45c-38 -70.667 -96.167 -126.5 -174.5 -167.5s-167.5 -61.5 -267.5 -61.5c-85.333 0 -164.333 19.833 -237 59.5
s-131.667 94.167 -177 163.5v-203h-90v170c-30.667 -53.333 -81.5 -98.333 -152.5 -135s-143.833 -55 -218.5 -55c-145.333 0 -266.333 49.167 -363 147.5s-145 221.833 -145 370.5c0 146.667 48.333 269 145 367s217.667 147 363 147c76 0 149.333 -18.5 220 -55.5
s121 -82.167 151 -135.5v170h90v-200c46 68 105.167 121.833 177.5 161.5s150.5 59.5 234.5 59.5c132.667 0 244.334 -45.333 335.001 -136s136 -202.334 136 -335.001c0 -15.333 -0.666992 -26.333 -2 -33zM1475 936.001c-102.667 0 -191.166 -33.167 -265.499 -99.5
s-119.833 -151.166 -136.5 -254.499h782c-4.66699 101.333 -43.334 185.666 -116.001 252.999s-160.667 101 -264 101zM614.001 63.001c71.333 0 141.166 19.334 209.499 58.001s118.833 87.667 151.5 147v455c-31.333 60 -81.166 109.5 -149.499 148.5
s-138.833 58.5 -211.5 58.5c-123.333 0 -225.833 -41 -307.5 -123s-122.5 -185 -122.5 -309c0 -124.667 40.833 -228.334 122.5 -311.001s184.167 -124 307.5 -124z" />
    <glyph glyph-name="ccedilla" unicode="&#xe7;" horiz-adv-x="1105" 
d="M1040 223c-38.667 -74.667 -96.1719 -133.499 -172.505 -176.499s-162.166 -65.167 -257.499 -66.5c46.667 -48.667 76.334 -98.334 89.001 -149.001s10 -95 -8 -133s-48.167 -69.333 -90.5 -94s-92.166 -37.334 -149.499 -38.001l-23 69
c72 8.66699 125.333 29.834 160 63.501s46.834 76 36.501 127s-43.166 104.5 -98.499 160.5c-124 18.667 -226.667 75.834 -308 171.501s-122 208.5 -122 338.5c0 145.333 49 267.666 147 366.999s218.333 149 361 149c94 0 178.167 -21.5 252.5 -64.5
s126.166 -100.167 155.499 -171.5l-76 -39c-23.333 58.667 -65.166 105.5 -125.499 140.5s-129.166 52.5 -206.499 52.5c-118.667 0 -218.334 -41.833 -299.001 -125.5s-121 -186.5 -121 -308.5c0 -121.333 40.667 -223.833 122 -307.5s181.333 -125.5 300 -125.5
c80 0 151.667 17.333 215 52s111.333 83 144 145z" />
    <glyph glyph-name="egrave" unicode="&#xe8;" horiz-adv-x="1159" 
d="M637 1116h-86l-195 275h119zM1063 508h-881.002v-4c0 -128.667 39.833 -234.667 119.5 -318s177.834 -125 294.501 -125c83.333 0 157.833 17 223.5 51s114.834 81.333 147.501 142l71 -45c-39.333 -70.667 -98.166 -126.5 -176.499 -167.5s-167.5 -61.5 -267.5 -61.5
c-68 0 -132.5 13.167 -193.5 39.5s-113.833 62.166 -158.5 107.499s-80.167 100.666 -106.5 165.999s-39.5 135 -39.5 209c0 142.667 48.167 263.334 144.5 362.001s214.166 148 353.499 148c132.667 0 244 -45.167 334 -135.5s135 -202.166 135 -335.499v-33zM591.998 936
c-103.333 0 -192.331 -33.167 -266.998 -99.5s-120.334 -151.166 -137.001 -254.499h785c-4.66699 101.333 -43.334 185.666 -116.001 252.999s-161 101 -265 101z" />
    <glyph glyph-name="eacute" unicode="&#xe9;" horiz-adv-x="1159" 
d="M803 1391l-193 -275h-88l162 275h119zM1063 508h-881.002v-4c0 -128.667 39.833 -234.667 119.5 -318s177.834 -125 294.501 -125c83.333 0 157.833 17 223.5 51s114.834 81.333 147.501 142l71 -45c-39.333 -70.667 -98.166 -126.5 -176.499 -167.5
s-167.5 -61.5 -267.5 -61.5c-68 0 -132.5 13.167 -193.5 39.5s-113.833 62.166 -158.5 107.499s-80.167 100.666 -106.5 165.999s-39.5 135 -39.5 209c0 142.667 48.167 263.334 144.5 362.001s214.166 148 353.499 148c132.667 0 244 -45.167 334 -135.5
s135 -202.166 135 -335.499v-33zM591.998 936c-103.333 0 -192.331 -33.167 -266.998 -99.5s-120.334 -151.166 -137.001 -254.499h785c-4.66699 101.333 -43.334 185.666 -116.001 252.999s-161 101 -265 101z" />
    <glyph glyph-name="ecircumflex" unicode="&#xea;" horiz-adv-x="1159" 
d="M586 1343l-150 -208h-82l181 274h104l178 -274h-82zM1063 508h-881.002v-4c0 -128.667 39.833 -234.667 119.5 -318s177.834 -125 294.501 -125c83.333 0 157.833 17 223.5 51s114.834 81.333 147.501 142l71 -45c-39.333 -70.667 -98.166 -126.5 -176.499 -167.5
s-167.5 -61.5 -267.5 -61.5c-68 0 -132.5 13.167 -193.5 39.5s-113.833 62.166 -158.5 107.499s-80.167 100.666 -106.5 165.999s-39.5 135 -39.5 209c0 142.667 48.167 263.334 144.5 362.001s214.166 148 353.499 148c132.667 0 244 -45.167 334 -135.5
s135 -202.166 135 -335.499v-33zM591.998 936c-103.333 0 -192.331 -33.167 -266.998 -99.5s-120.334 -151.166 -137.001 -254.499h785c-4.66699 101.333 -43.334 185.666 -116.001 252.999s-161 101 -265 101z" />
    <glyph glyph-name="edieresis" unicode="&#xeb;" horiz-adv-x="1159" 
d="M453 1247c-22 0 -40.499 7.5 -55.499 22.5s-22.5 33.5 -22.5 55.5c0 20.667 7.66699 38.5 23 53.5s33.666 22.5 54.999 22.5c20.667 0 39 -7.66699 55 -23s24 -33 24 -53c0 -22 -7.83301 -40.5 -23.5 -55.5s-34.167 -22.5 -55.5 -22.5zM723.001 1247
c-22 0 -40.833 7.5 -56.5 22.5s-23.5 33.5 -23.5 55.5c0 20.667 8 38.5 24 53.5s34.667 22.5 56 22.5c20 0 38 -7.66699 54 -23s24 -33 24 -53c0 -22 -8 -40.5 -24 -55.5s-34 -22.5 -54 -22.5zM1063 508h-881.002v-4c0 -128.667 39.833 -234.667 119.5 -318
s177.834 -125 294.501 -125c83.333 0 157.833 17 223.5 51s114.834 81.333 147.501 142l71 -45c-39.333 -70.667 -98.166 -126.5 -176.499 -167.5s-167.5 -61.5 -267.5 -61.5c-68 0 -132.5 13.167 -193.5 39.5s-113.833 62.166 -158.5 107.499
s-80.167 100.666 -106.5 165.999s-39.5 135 -39.5 209c0 142.667 48.167 263.334 144.5 362.001s214.166 148 353.499 148c132.667 0 244 -45.167 334 -135.5s135 -202.166 135 -335.499v-33zM591.999 936c-103.333 0 -192.331 -33.167 -266.998 -99.5
s-120.334 -151.166 -137.001 -254.499h785c-4.66699 101.333 -43.334 185.666 -116.001 252.999s-161 101 -265 101z" />
    <glyph glyph-name="igrave" unicode="&#xec;" horiz-adv-x="413" 
d="M-20 1391h118l162 -275h-86zM162 991h90v-991h-90v991z" />
    <glyph glyph-name="iacute" unicode="&#xed;" horiz-adv-x="413" 
d="M426 1391l-193 -275h-88l162 275h119zM162 991h90v-991h-90v991z" />
    <glyph glyph-name="icircumflex" unicode="&#xee;" horiz-adv-x="413" 
d="M260 1409l178 -274h-82l-149 208l-150 -208h-82l181 274h104zM162 0v991h90v-991h-90z" />
    <glyph glyph-name="idieresis" unicode="&#xef;" horiz-adv-x="413" 
d="M74 1401c20.667 0 39.168 -7.66699 55.501 -23s24.5 -33 24.5 -53c0 -22 -8 -40.5 -24 -55.5s-34.667 -22.5 -56 -22.5c-22 0 -40.5 7.5 -55.5 22.5s-22.5 33.5 -22.5 55.5c0 20.667 7.66699 38.5 23 53.5s33.666 22.5 54.999 22.5zM344.001 1401
c20 0 38 -7.66699 54 -23s24 -33 24 -53c0 -22 -8 -40.5 -24 -55.5s-34 -22.5 -54 -22.5c-22 0 -40.833 7.5 -56.5 22.5s-23.5 33.5 -23.5 55.5c0 20.667 8 38.5 24 53.5s34.667 22.5 56 22.5zM162.001 991h90v-991h-90v991z" />
    <glyph glyph-name="eth" unicode="&#xf0;" horiz-adv-x="1306" 
d="M1409 1290l0.00195312 -68.999h-279v-707c0 -158.667 -49.167 -287.334 -147.5 -386.001s-222.5 -148 -372.5 -148c-96 0 -183.333 23 -262 69s-140.334 108.5 -185.001 187.5s-67 166.167 -67 261.5c0 94.667 22.167 181.5 66.5 260.5s105.166 141 182.499 186
s162.333 67.5 255 67.5c107.333 0 200 -27 278 -81s132.667 -128.667 164 -224v514h-276v69h276v144h88v-144h279zM610.002 63.001c126 0 229.5 41 310.5 123s121.5 186 121.5 312c0 125.333 -40.5 228.666 -121.5 309.999s-184.5 122 -310.5 122
c-120.667 0 -222.5 -41.667 -305.5 -125s-124.5 -185.666 -124.5 -306.999c0 -122 41.5 -225 124.5 -309s184.833 -126 305.5 -126z" />
    <glyph glyph-name="ntilde" unicode="&#xf1;" horiz-adv-x="1202" 
d="M449 1264c-30 0 -54.1699 -11.332 -72.5029 -33.999s-27.166 -52.334 -26.499 -89.001l-76 10c2.66699 56.667 20 102.5 52 137.5s71.333 52.5 118 52.5c31.333 0 65 -10.167 101 -30.5s70.333 -40.666 103 -60.999s60.334 -30.5 83.001 -30.5
c28.667 0 52.334 11.167 71.001 33.5s27.667 51.166 27 86.499l76 -10c-2.66699 -56.667 -20.167 -102.5 -52.5 -137.5s-71.5 -52.5 -117.5 -52.5c-32.667 0 -66.667 10.5 -102 31.5l-100.5 62.5c-31.667 20.667 -59.5 31 -83.5 31zM630.997 1012
c122 0 220.668 -40.167 296.001 -120.5s113 -185.833 113 -316.5v-575h-88v567c0 107.333 -30.833 194.333 -92.5 261s-142.167 100 -241.5 100c-76 0 -147.333 -18.5 -214 -55.5s-117.334 -86.833 -152.001 -149.5v-723h-90v991h90v-170c34 58 85.5 104.333 154.5 139
s143.833 52 224.5 52z" />
    <glyph glyph-name="ograve" unicode="&#xf2;" horiz-adv-x="1212" 
d="M377 1391h119l161 -275h-86zM606 1012c94 0 180.167 -22.667 258.5 -68s140.166 -107.5 185.499 -186.5s68 -166.167 68 -261.5s-22.667 -182.5 -68 -261.5s-107.166 -141.167 -185.499 -186.5s-164.5 -68 -258.5 -68s-180 22.667 -258 68s-139.5 107.5 -184.5 186.5
s-67.5 166.167 -67.5 261.5s22.5 182.5 67.5 261.5s106.5 141.167 184.5 186.5s164 68 258 68zM606 930c-118.667 0 -218.667 -41.833 -300 -125.5s-122 -186.5 -122 -308.5c0 -121.333 40.667 -223.833 122 -307.5s181.333 -125.5 300 -125.5c118 0 218.167 42 300.5 126
s123.5 186.333 123.5 307c0 122 -41.167 224.833 -123.5 308.5s-182.5 125.5 -300.5 125.5z" />
    <glyph glyph-name="oacute" unicode="&#xf3;" horiz-adv-x="1212" 
d="M825 1391l-192 -275h-88l162 275h118zM606 1012c94 0 180.167 -22.667 258.5 -68s140.166 -107.5 185.499 -186.5s68 -166.167 68 -261.5s-22.667 -182.5 -68 -261.5s-107.166 -141.167 -185.499 -186.5s-164.5 -68 -258.5 -68s-180 22.667 -258 68
s-139.5 107.5 -184.5 186.5s-67.5 166.167 -67.5 261.5s22.5 182.5 67.5 261.5s106.5 141.167 184.5 186.5s164 68 258 68zM606 930c-118.667 0 -218.667 -41.833 -300 -125.5s-122 -186.5 -122 -308.5c0 -121.333 40.667 -223.833 122 -307.5s181.333 -125.5 300 -125.5
c118 0 218.167 42 300.5 126s123.5 186.333 123.5 307c0 122 -41.167 224.833 -123.5 308.5s-182.5 125.5 -300.5 125.5z" />
    <glyph glyph-name="ocircumflex" unicode="&#xf4;" horiz-adv-x="1212" 
d="M606 1343l-149 -208h-82l180 274h104l179 -274h-82zM606 1012c94 0 180.167 -22.667 258.5 -68s140.166 -107.5 185.499 -186.5s68 -166.167 68 -261.5s-22.667 -182.5 -68 -261.5s-107.166 -141.167 -185.499 -186.5s-164.5 -68 -258.5 -68s-180 22.667 -258 68
s-139.5 107.5 -184.5 186.5s-67.5 166.167 -67.5 261.5s22.5 182.5 67.5 261.5s106.5 141.167 184.5 186.5s164 68 258 68zM606 63c118 0 218.167 42 300.5 126s123.5 186.333 123.5 307c0 122 -41.167 224.833 -123.5 308.5s-182.5 125.5 -300.5 125.5
c-118.667 0 -218.667 -41.833 -300 -125.5s-122 -186.5 -122 -308.5c0 -121.333 40.667 -223.833 122 -307.5s181.333 -125.5 300 -125.5z" />
    <glyph glyph-name="otilde" unicode="&#xf5;" horiz-adv-x="1212" 
d="M291 1151c2.66699 56.667 20 102.501 52 137.501s71.333 52.5 118 52.5c31.333 0 64.833 -10.167 100.5 -30.5s69.667 -40.666 102 -60.999s59.5 -30.5 81.5 -30.5c30 0 54.5 11.167 73.5 33.5s28.167 51.166 27.5 86.499l76 -10
c-2.66699 -56.667 -20.167 -102.5 -52.5 -137.5s-71.5 -52.5 -117.5 -52.5c-26 0 -53 6.5 -81 19.5s-52.167 27.333 -72.5 43s-42.833 30 -67.5 43s-46.667 19.5 -66 19.5c-30 0 -54 -11.333 -72 -34s-26.667 -52.334 -26 -89.001zM606 1012c94 0 180.167 -22.667 258.5 -68
s140.166 -107.5 185.499 -186.5s68 -166.167 68 -261.5s-22.667 -182.5 -68 -261.5s-107.166 -141.167 -185.499 -186.5s-164.5 -68 -258.5 -68s-180 22.667 -258 68s-139.5 107.5 -184.5 186.5s-67.5 166.167 -67.5 261.5s22.5 182.5 67.5 261.5s106.5 141.167 184.5 186.5
s164 68 258 68zM606 930.001c-118.667 0 -218.667 -41.833 -300 -125.5s-122 -186.5 -122 -308.5c0 -121.333 40.667 -223.833 122 -307.5s181.333 -125.5 300 -125.5c118 0 218.167 42 300.5 126s123.5 186.333 123.5 307c0 122 -41.167 224.833 -123.5 308.5
s-182.5 125.5 -300.5 125.5z" />
    <glyph glyph-name="odieresis" unicode="&#xf6;" horiz-adv-x="1212" 
d="M473 1401c20.667 0 39.168 -7.66699 55.501 -23s24.5 -33 24.5 -53c0 -22 -8 -40.5 -24 -55.5s-34.667 -22.5 -56 -22.5c-22 0 -40.5 7.5 -55.5 22.5s-22.5 33.5 -22.5 55.5c0 20.667 7.66699 38.5 23 53.5s33.666 22.5 54.999 22.5zM743.001 1401
c20 0 38 -7.66699 54 -23s24 -33 24 -53c0 -22 -8 -40.5 -24 -55.5s-34 -22.5 -54 -22.5c-22 0 -40.667 7.5 -56 22.5s-23 33.5 -23 55.5c0 20.667 7.83301 38.5 23.5 53.5s34.167 22.5 55.5 22.5zM606.001 1012c94 0 180.167 -22.667 258.5 -68
s140.166 -107.5 185.499 -186.5s68 -166.167 68 -261.5s-22.667 -182.5 -68 -261.5s-107.166 -141.167 -185.499 -186.5s-164.5 -68 -258.5 -68s-180 22.667 -258 68s-139.5 107.5 -184.5 186.5s-67.5 166.167 -67.5 261.5s22.5 182.5 67.5 261.5s106.5 141.167 184.5 186.5
s164 68 258 68zM606.001 930c-118.667 0 -218.667 -41.833 -300 -125.5s-122 -186.5 -122 -308.5c0 -121.333 40.667 -223.833 122 -307.5s181.333 -125.5 300 -125.5c118 0 218.167 42 300.5 126s123.5 186.333 123.5 307c0 122 -41.167 224.833 -123.5 308.5
s-182.5 125.5 -300.5 125.5z" />
    <glyph glyph-name="divide" unicode="&#xf7;" horiz-adv-x="1163" 
d="M584 868c-26 0 -47.833 9 -65.5 27s-26.5 40 -26.5 66c0 25.333 8.66699 46.666 26 63.999s39.333 26 66 26c25.333 0 46.666 -8.66699 63.999 -26s26 -38.666 26 -63.999c0 -26 -8.66699 -48 -26 -66s-38.666 -27 -63.999 -27zM1001 682v-84h-839v84h839zM584 229
c-26.667 0 -48.667 8.66699 -66 26s-26 38.666 -26 63.999c0 26 8.83301 48 26.5 66s39.5 27 65.5 27c25.333 0 46.666 -9 63.999 -27s26 -40 26 -66c0 -25.333 -8.66699 -46.666 -26 -63.999s-38.666 -26 -63.999 -26z" />
    <glyph glyph-name="oslash" unicode="&#xf8;" horiz-adv-x="1212" 
d="M606 1012c94 0 180.167 -22.667 258.5 -68s140.166 -107.5 185.499 -186.5s68 -166.167 68 -261.5s-22.667 -182.5 -68 -261.5s-107.166 -141.167 -185.499 -186.5s-164.5 -68 -258.5 -68s-180 22.667 -258 68s-139.5 107.5 -184.5 186.5s-67.5 166.167 -67.5 261.5
s22.5 182.5 67.5 261.5s106.5 141.167 184.5 186.5s164 68 258 68zM184 496c0 -83.333 20.833 -159.5 62.5 -228.5s97.5 -121.833 167.5 -158.5l309 804c-42 11.333 -81 17 -117 17c-118.667 0 -218.667 -41.833 -300 -125.5s-122 -186.5 -122 -308.5zM606 63
c118 0 218.167 41.999 300.5 125.999s123.5 186.333 123.5 307c0 84.667 -21 161.334 -63 230.001s-98 121 -168 157l-307 -803c42 -11.333 80 -17 114 -17z" />
    <glyph glyph-name="ugrave" unicode="&#xf9;" horiz-adv-x="1202" 
d="M662 1116h-89l-192 275h119zM952 991h88v-991h-88v172c-34.667 -58 -86.834 -104.5 -156.501 -139.5s-144.5 -52.5 -224.5 -52.5c-122 0 -220.667 40.167 -296 120.5s-113 185.5 -113 315.5v575h90v-567c0 -107.333 30.667 -193.833 92 -259.5s141.333 -98.5 240 -98.5
c77.333 0 149.333 18.167 216 54.5s117.334 85.5 152.001 147.5v723z" />
    <glyph glyph-name="uacute" unicode="&#xfa;" horiz-adv-x="1202" 
d="M827 1391l-194 -275h-86l162 275h118zM952 991h88v-991h-88v172c-34.667 -58 -86.834 -104.5 -156.501 -139.5s-144.5 -52.5 -224.5 -52.5c-122 0 -220.667 40.167 -296 120.5s-113 185.5 -113 315.5v575h90v-567c0 -107.333 30.667 -193.833 92 -259.5
s141.333 -98.5 240 -98.5c77.333 0 149.333 18.167 216 54.5s117.334 85.5 152.001 147.5v723z" />
    <glyph glyph-name="ucircumflex" unicode="&#xfb;" horiz-adv-x="1202" 
d="M608 1343l-149 -208h-82l180 274h105l178 -274h-82zM952 991h88v-991h-88v172c-34.667 -58 -86.834 -104.5 -156.501 -139.5s-144.5 -52.5 -224.5 -52.5c-122 0 -220.667 40.167 -296 120.5s-113 185.5 -113 315.5v575h90v-567c0 -107.333 30.667 -193.833 92 -259.5
s141.333 -98.5 240 -98.5c77.333 0 149.333 18.167 216 54.5s117.334 85.5 152.001 147.5v723z" />
    <glyph glyph-name="udieresis" unicode="&#xfc;" horiz-adv-x="1202" 
d="M477 1247c-22.667 0 -41.667 7.33203 -57 21.999s-23 33.334 -23 56.001c0 20.667 7.83301 38.5 23.5 53.5s34.5 22.5 56.5 22.5c20 0 38 -7.66699 54 -23s24 -33 24 -53c0 -22 -8 -40.5 -24 -55.5s-34 -22.5 -54 -22.5zM745 1247c-22 0 -40.333 7.5 -55 22.5
s-22 33.5 -22 55.5c0 20.667 7.5 38.5 22.5 53.5s33.167 22.5 54.5 22.5c20.667 0 39.167 -7.66699 55.5 -23s24.5 -33 24.5 -53c0 -22 -8 -40.5 -24 -55.5s-34.667 -22.5 -56 -22.5zM952 990.999h88v-991h-88v172c-34.667 -58 -86.834 -104.5 -156.501 -139.5
s-144.5 -52.5 -224.5 -52.5c-122 0 -220.667 40.167 -296 120.5s-113 185.5 -113 315.5v575h90v-567c0 -107.333 30.667 -193.833 92 -259.5s141.333 -98.5 240 -98.5c77.333 0 149.333 18.167 216 54.5s117.334 85.5 152.001 147.5v723z" />
    <glyph glyph-name="yacute" unicode="&#xfd;" horiz-adv-x="1021" 
d="M741 1391l-192 -275h-88l162 275h118zM883 991h96l-584 -1388h-94l166 391l-424 997h96l371 -893z" />
    <glyph glyph-name="thorn" unicode="&#xfe;" horiz-adv-x="1226" 
d="M623 1012c145.333 0 266.167 -49.1699 362.5 -147.503s144.5 -221.166 144.5 -368.499s-48.167 -270.166 -144.5 -368.499s-217.166 -147.5 -362.499 -147.5c-76.667 0 -150.334 18.333 -221.001 55s-120.667 82.334 -150 137.001v-569h-90v1831h90v-613
c30.667 53.333 81.5 98.5 152.5 135.5s143.833 55.5 218.5 55.5zM612.001 62.9971c123.333 0 225.833 41 307.5 123s122.5 185.333 122.5 310c0 124 -41 227.333 -123 310s-184.333 124 -307 124c-71.333 0 -140.833 -19.333 -208.5 -58s-118.167 -87.667 -151.5 -147v-455
c31.333 -60 81 -109.5 149 -148.5s138.333 -58.5 211 -58.5z" />
    <glyph glyph-name="ydieresis" unicode="&#xff;" horiz-adv-x="1021" 
d="M391 1247c-22 0 -40.499 7.5 -55.499 22.5s-22.5 33.5 -22.5 55.5c0 20.667 7.66699 38.5 23 53.5s33.666 22.5 54.999 22.5c20.667 0 39.167 -7.66699 55.5 -23s24.5 -33 24.5 -53c0 -22 -8 -40.5 -24 -55.5s-34.667 -22.5 -56 -22.5zM662.001 1247
c-22 0 -40.833 7.5 -56.5 22.5s-23.5 33.5 -23.5 55.5c0 20.667 8 38.5 24 53.5s34.667 22.5 56 22.5c20 0 37.833 -7.66699 53.5 -23s23.5 -33 23.5 -53c0 -22 -7.83301 -40.5 -23.5 -55.5s-33.5 -22.5 -53.5 -22.5zM883.001 991h96l-584 -1388h-94l166 391l-424 997h96
l371 -893z" />
    <glyph glyph-name="Amacron" unicode="&#x100;" horiz-adv-x="1312" 
d="M985 1669v-76h-655v76h655zM1180 0l-158 397h-733l-160 -397h-96l575 1434h94l578 -1434h-100zM324 483h663l-332 830z" />
    <glyph glyph-name="amacron" unicode="&#x101;" horiz-adv-x="1208" 
d="M934 1227v-76h-655v76h655zM975 991h90v-991h-90v170c-30.667 -53.333 -81.5 -98.333 -152.5 -135s-143.833 -55 -218.5 -55c-145.333 0 -266.333 49.167 -363 147.5s-145 221.833 -145 370.5c0 146.667 48.333 269 145 367s217.667 147 363 147
c76 0 149.333 -18.5 220 -55.5s121 -82.167 151 -135.5v170zM614 63c71.333 0 141.166 19.334 209.499 58.001s118.833 87.667 151.5 147v455c-31.333 60 -81.166 109.5 -149.499 148.5s-138.833 58.5 -211.5 58.5c-123.333 0 -225.833 -41 -307.5 -123
s-122.5 -185 -122.5 -309c0 -124.667 40.833 -228.334 122.5 -311.001s184.167 -124 307.5 -124z" />
    <glyph glyph-name="Abreve" unicode="&#x102;" horiz-adv-x="1312" 
d="M657 1554c-80.667 0 -147.669 28 -201.002 84s-81 127.667 -83 215h76c0.666992 -67.333 20.834 -122.666 60.501 -165.999s88.834 -65 147.501 -65c60 0 110 21.667 150 65s60.333 98.666 61 165.999h74c-0.666992 -87.333 -28 -159 -82 -215s-121.667 -84 -203 -84z
M1180 0l-158 397h-733l-160 -397h-96l575 1434h94l578 -1434h-100zM323.998 483h663l-332 830z" />
    <glyph glyph-name="abreve" unicode="&#x103;" horiz-adv-x="1208" 
d="M590 1112c-80.667 0 -147.832 28 -201.499 84s-81.5 127.667 -83.5 215h76c0.666992 -67.333 21 -122.666 61 -165.999s89.333 -65 148 -65c60 0 110 21.667 150 65s60.333 98.666 61 165.999h73c-0.666992 -87.333 -27.834 -159 -81.501 -215s-121.167 -84 -202.5 -84z
M975.002 991h90v-991h-90v170c-30.667 -53.333 -81.5 -98.333 -152.5 -135s-143.833 -55 -218.5 -55c-145.333 0 -266.333 49.167 -363 147.5s-145 221.833 -145 370.5c0 146.667 48.333 269 145 367s217.667 147 363 147c76 0 149.333 -18.5 220 -55.5
s121 -82.167 151 -135.5v170zM614.002 63c71.333 0 141.166 19.334 209.499 58.001s118.833 87.667 151.5 147v455c-31.333 60 -81.166 109.5 -149.499 148.5s-138.833 58.5 -211.5 58.5c-123.333 0 -225.833 -41 -307.5 -123s-122.5 -185 -122.5 -309
c0 -124.667 40.833 -228.334 122.5 -311.001s184.167 -124 307.5 -124z" />
    <glyph glyph-name="Aogonek" unicode="&#x104;" horiz-adv-x="1312" 
d="M1276 -305l27 -63.9971c-50.667 -26 -104.667 -39 -162 -39c-55.333 0 -99.666 16 -132.999 48s-50 72.667 -50 122c0 55.333 18.167 106.166 54.5 152.499s87.166 86.5 152.499 120.5l-143 362h-733l-160 -397h-96l575 1434h94l578 -1434h-41
c-62 -22 -111 -52.833 -147 -92.5s-54 -83.834 -54 -132.501c0 -32.667 10.5 -59.334 31.5 -80.001s49.5 -31 85.5 -31c46.667 0 87 10.333 121 31zM324 483.003h663l-332 830z" />
    <glyph glyph-name="aogonek" unicode="&#x105;" horiz-adv-x="1226" 
d="M1100 -305l28 -63.998c-50.667 -26 -105 -39 -163 -39c-55.333 0 -99.333 16 -132 48s-49 72.667 -49 122c0 53.333 16.667 102.5 50 147.5s80.333 83.5 141 115.5v145c-30.667 -53.333 -81.5 -98.333 -152.5 -135s-143.833 -55 -218.5 -55
c-145.333 0 -266.333 49.167 -363 147.5s-145 221.833 -145 370.5c0 146.667 48.333 269 145 367s217.667 147 363 147c76 0 149.333 -18.5 220 -55.5s121 -82.167 151 -135.5v170h90v-991c-62 -22 -111.333 -52.833 -148 -92.5s-55 -83.834 -55 -132.501
c0 -32.667 10.5 -59.334 31.5 -80.001s50.167 -31 87.5 -31c45.333 0 85 10.333 119 31zM614 63.002c71.333 0 141.166 19.334 209.499 58.001s118.833 87.667 151.5 147v455c-31.333 60 -81.166 109.5 -149.499 148.5s-138.833 58.5 -211.5 58.5
c-123.333 0 -225.833 -41 -307.5 -123s-122.5 -185 -122.5 -309c0 -124.667 40.833 -228.334 122.5 -311.001s184.167 -124 307.5 -124z" />
    <glyph glyph-name="Cacute" unicode="&#x106;" horiz-adv-x="1536" 
d="M1042 1833l-192 -274h-88l162 274h118zM1434 340c-43.333 -108.667 -120.168 -195.831 -230.501 -261.498s-235.166 -98.5 -374.499 -98.5c-136.667 0 -259.5 32.333 -368.5 97s-193.833 153.5 -254.5 266.5s-91 239.5 -91 379.5c0 137.333 30.333 261.666 91 372.999
s145.5 198.833 254.5 262.5s231.833 95.5 368.5 95.5c130.667 0 249.5 -29.167 356.5 -87.5s183.5 -136.166 229.5 -233.499l-80 -41c-42 83.333 -109 150.166 -201 200.499s-193.667 75.5 -305 75.5c-120 0 -227.5 -28 -322.5 -84s-168.667 -133 -221 -231
s-78.5 -208 -78.5 -330c0 -124 26.167 -236 78.5 -336s126 -178.5 221 -235.5s202.5 -85.5 322.5 -85.5c117.333 0 224 28.167 320 84.5s164.333 131.166 205 224.499z" />
    <glyph glyph-name="cacute" unicode="&#x107;" horiz-adv-x="1105" 
d="M811 1391l-193 -275h-88l162 275h119zM1040 223c-39.333 -75.333 -97.5 -134.666 -174.5 -177.999s-163.5 -65 -259.5 -65c-94 0 -180 22.667 -258 68s-139.5 107.5 -184.5 186.5s-67.5 166.167 -67.5 261.5c0 145.333 49 267.666 147 366.999s218.333 149 361 149
c94 0 178.167 -21.5 252.5 -64.5s126.166 -100.167 155.499 -171.5l-76 -39c-23.333 58.667 -65.166 105.5 -125.499 140.5s-129.166 52.5 -206.499 52.5c-118.667 0 -218.334 -41.833 -299.001 -125.5s-121 -186.5 -121 -308.5c0 -121.333 40.667 -223.833 122 -307.5
s181.333 -125.5 300 -125.5c80 0 151.667 17.333 215 52s111.333 83 144 145z" />
    <glyph glyph-name="Ccircumflex" unicode="&#x108;" horiz-adv-x="1536" 
d="M825 1786l-149 -209h-82l180 274h105l178 -274h-82zM1354 375l79.998 -34.9971c-43.333 -108.667 -120.166 -195.834 -230.499 -261.501s-235.166 -98.5 -374.499 -98.5c-136.667 0 -259.5 32.333 -368.5 97s-193.833 153.5 -254.5 266.5s-91 239.5 -91 379.5
c0 137.333 30.333 261.666 91 372.999s145.5 198.833 254.5 262.5s231.833 95.5 368.5 95.5c130.667 0 249.5 -29.167 356.5 -87.5s183.5 -136.166 229.5 -233.499l-80 -41c-42 83.333 -109 150.166 -201 200.499s-193.667 75.5 -305 75.5c-120 0 -227.5 -28 -322.5 -84
s-168.667 -133 -221 -231s-78.5 -208 -78.5 -330c0 -124 26.167 -236 78.5 -336s126 -178.5 221 -235.5s202.5 -85.5 322.5 -85.5c117.333 0 224 28.167 320 84.5s164.333 131.166 205 224.499z" />
    <glyph glyph-name="ccircumflex" unicode="&#x109;" horiz-adv-x="1105" 
d="M594 1343l-150 -208h-82l181 274h104l178 -274h-82zM965 260l75 -37c-39.333 -75.333 -97.5 -134.666 -174.5 -177.999s-163.5 -65 -259.5 -65c-94 0 -180 22.667 -258 68s-139.5 107.5 -184.5 186.5s-67.5 166.167 -67.5 261.5c0 145.333 49 267.666 147 366.999
s218.333 149 361 149c94 0 178.167 -21.5 252.5 -64.5s126.166 -100.167 155.499 -171.5l-76 -39c-23.333 58.667 -65.166 105.5 -125.499 140.5s-129.166 52.5 -206.499 52.5c-118.667 0 -218.334 -41.833 -299.001 -125.5s-121 -186.5 -121 -308.5
c0 -121.333 40.667 -223.833 122 -307.5s181.333 -125.5 300 -125.5c80 0 151.667 17.333 215 52s111.333 83 144 145z" />
    <glyph glyph-name="Cdotaccent" unicode="&#x10a;" horiz-adv-x="1536" 
d="M827 1749c19.333 0 37.167 -7.83301 53.5 -23.5s24.5 -33.167 24.5 -52.5c0 -22 -8 -40.833 -24 -56.5s-34 -23.5 -54 -23.5c-22.667 0 -41.5 7.66699 -56.5 23s-22.5 34.333 -22.5 57c0 20 7.66699 37.667 23 53s34 23 56 23zM1434 340
c-43.333 -108.667 -120.168 -195.831 -230.501 -261.498s-235.166 -98.5 -374.499 -98.5c-136.667 0 -259.5 32.333 -368.5 97s-193.833 153.5 -254.5 266.5s-91 239.5 -91 379.5c0 137.333 30.333 261.666 91 372.999s145.5 198.833 254.5 262.5s231.833 95.5 368.5 95.5
c130.667 0 249.5 -29.167 356.5 -87.5s183.5 -136.166 229.5 -233.499l-80 -41c-42 83.333 -109 150.166 -201 200.499s-193.667 75.5 -305 75.5c-120 0 -227.5 -28 -322.5 -84s-168.667 -133 -221 -231s-78.5 -208 -78.5 -330c0 -124 26.167 -236 78.5 -336
s126 -178.5 221 -235.5s202.5 -85.5 322.5 -85.5c117.333 0 224 28.167 320 84.5s164.333 131.166 205 224.499z" />
    <glyph glyph-name="cdotaccent" unicode="&#x10b;" horiz-adv-x="1105" 
d="M594 1401c20 0 38 -7.66797 54 -23.001s24 -33 24 -53c0 -22 -8 -40.5 -24 -55.5s-34 -22.5 -54 -22.5c-22.667 0 -41.667 7.33301 -57 22s-23 33.334 -23 56.001c0 20.667 7.83301 38.5 23.5 53.5s34.5 22.5 56.5 22.5zM1040 222.999
c-39.333 -75.333 -97.5 -134.666 -174.5 -177.999s-163.5 -65 -259.5 -65c-94 0 -180 22.667 -258 68s-139.5 107.5 -184.5 186.5s-67.5 166.167 -67.5 261.5c0 145.333 49 267.666 147 366.999s218.333 149 361 149c94 0 178.167 -21.5 252.5 -64.5
s126.166 -100.167 155.499 -171.5l-76 -39c-23.333 58.667 -65.166 105.5 -125.499 140.5s-129.166 52.5 -206.499 52.5c-118.667 0 -218.334 -41.833 -299.001 -125.5s-121 -186.5 -121 -308.5c0 -121.333 40.667 -223.833 122 -307.5s181.333 -125.5 300 -125.5
c80 0 151.667 17.333 215 52s111.333 83 144 145z" />
    <glyph glyph-name="Ccaron" unicode="&#x10c;" horiz-adv-x="1536" 
d="M774 1559l-180 274h82l149 -209l150 209h82l-178 -274h-105zM1354 375l79.998 -34.9971c-43.333 -108.667 -120.166 -195.834 -230.499 -261.501s-235.166 -98.5 -374.499 -98.5c-136.667 0 -259.5 32.333 -368.5 97s-193.833 153.5 -254.5 266.5s-91 239.5 -91 379.5
c0 137.333 30.333 261.666 91 372.999s145.5 198.833 254.5 262.5s231.833 95.5 368.5 95.5c130.667 0 249.5 -29.167 356.5 -87.5s183.5 -136.166 229.5 -233.499l-80 -41c-42 83.333 -109 150.166 -201 200.499s-193.667 75.5 -305 75.5c-120 0 -227.5 -28 -322.5 -84
s-168.667 -133 -221 -231s-78.5 -208 -78.5 -330c0 -124 26.167 -236 78.5 -336s126 -178.5 221 -235.5s202.5 -85.5 322.5 -85.5c117.333 0 224 28.167 320 84.5s164.333 131.166 205 224.499z" />
    <glyph glyph-name="ccaron" unicode="&#x10d;" horiz-adv-x="1105" 
d="M543 1116l-181 275h82l150 -209l149 209h82l-178 -275h-104zM965 260l75 -37c-39.333 -75.333 -97.5 -134.666 -174.5 -177.999s-163.5 -65 -259.5 -65c-94 0 -180 22.667 -258 68s-139.5 107.5 -184.5 186.5s-67.5 166.167 -67.5 261.5
c0 145.333 49 267.666 147 366.999s218.333 149 361 149c94 0 178.167 -21.5 252.5 -64.5s126.166 -100.167 155.499 -171.5l-76 -39c-23.333 58.667 -65.166 105.5 -125.499 140.5s-129.166 52.5 -206.499 52.5c-118.667 0 -218.334 -41.833 -299.001 -125.5
s-121 -186.5 -121 -308.5c0 -121.333 40.667 -223.833 122 -307.5s181.333 -125.5 300 -125.5c80 0 151.667 17.333 215 52s111.333 83 144 145z" />
    <glyph glyph-name="Dcaron" unicode="&#x10e;" horiz-adv-x="1417" 
d="M590 1559l-180 274h82l149 -209l150 209h81l-178 -274h-104zM608 1434c96.667 0 187.832 -17.832 273.499 -53.499s159.334 -84.5 221.001 -146.5s110.5 -137.333 146.5 -226s54 -183.667 54 -285c0 -100.667 -18 -195.834 -54 -285.501s-84.833 -166.5 -146.5 -230.5
s-135.5 -114.5 -221.5 -151.5s-177 -55.5 -273 -55.5h-424v1434h424zM611.998 86.001c84 0 162.833 16.167 236.5 48.5s137 76.5 190 132.5s94.833 123.5 125.5 202.5s46 163.5 46 253.5c0 120 -26 227.667 -78 323s-123.5 169.5 -214.5 222.5s-192.833 79.5 -305.5 79.5
h-338v-1262h338z" />
    <glyph glyph-name="dcaron" unicode="&#x10f;" horiz-adv-x="1273" 
d="M1219 1528h96l-68 -412h-73zM975 821v613h90v-1434h-90v170c-30.667 -53.333 -81.5 -98.333 -152.5 -135s-143.833 -55 -218.5 -55c-145.333 0 -266.333 49.167 -363 147.5s-145 221.833 -145 370.5c0 146.667 48.333 269 145 367s217.667 147 363 147
c76 0 149.333 -18.5 220 -55.5s121 -82.167 151 -135.5zM614 63c71.333 0 141.166 19.334 209.499 58.001s118.833 87.667 151.5 147v455c-31.333 60 -81.166 109.5 -149.499 148.5s-138.833 58.5 -211.5 58.5c-123.333 0 -225.833 -41 -307.5 -123s-122.5 -185 -122.5 -309
c0 -124.667 40.833 -228.334 122.5 -311.001s184.167 -124 307.5 -124z" />
    <glyph glyph-name="Dcroat" unicode="&#x110;" horiz-adv-x="1417" 
d="M608 1434c96.667 0 187.832 -17.832 273.499 -53.499s159.334 -84.5 221.001 -146.5s110.5 -137.333 146.5 -226s54 -183.667 54 -285c0 -100.667 -18 -195.834 -54 -285.501s-84.833 -166.5 -146.5 -230.5s-135.5 -114.5 -221.5 -151.5s-177 -55.5 -273 -55.5h-424v688
h-243v70h243v676h424zM611.998 86.001c84 0 162.833 16.167 236.5 48.5s137 76.5 190 132.5s94.833 123.5 125.5 202.5s46 163.5 46 253.5c0 120 -26 227.667 -78 323s-123.5 169.5 -214.5 222.5s-192.833 79.5 -305.5 79.5h-338v-590h252v-70h-252v-602h338z" />
    <glyph glyph-name="dcroat" unicode="&#x111;" horiz-adv-x="1226" 
d="M1329 1288v-67h-264v-1221h-90v170c-30.667 -53.333 -81.5 -98.333 -152.5 -135s-143.833 -55 -218.5 -55c-145.333 0 -266.333 49.167 -363 147.5s-145 221.833 -145 370.5c0 146.667 48.333 269 145 367s217.667 147 363 147c76 0 149.333 -18.5 220 -55.5
s121 -82.167 151 -135.5v400h-230v67h230v146h90v-146h264zM614 63c71.333 0 141.166 19.334 209.499 58.001s118.833 87.667 151.5 147v455c-31.333 60 -81.166 109.5 -149.499 148.5s-138.833 58.5 -211.5 58.5c-123.333 0 -225.833 -41 -307.5 -123
s-122.5 -185 -122.5 -309c0 -124.667 40.833 -228.334 122.5 -311.001s184.167 -124 307.5 -124z" />
    <glyph glyph-name="Emacron" unicode="&#x112;" horiz-adv-x="1081" 
d="M240 1593v76h655v-76h-655zM184 1434h768v-86h-678v-527h605v-86h-605v-649h678v-86h-768v1434z" />
    <glyph glyph-name="emacron" unicode="&#x113;" horiz-adv-x="1159" 
d="M913 1227v-76h-655v76h655zM1063 508h-881.002v-4c0 -128.667 39.833 -234.667 119.5 -318s177.834 -125 294.501 -125c83.333 0 157.833 17 223.5 51s114.834 81.333 147.501 142l71 -45c-39.333 -70.667 -98.166 -126.5 -176.499 -167.5s-167.5 -61.5 -267.5 -61.5
c-68 0 -132.5 13.167 -193.5 39.5s-113.833 62.166 -158.5 107.499s-80.167 100.666 -106.5 165.999s-39.5 135 -39.5 209c0 142.667 48.167 263.334 144.5 362.001s214.166 148 353.499 148c132.667 0 244 -45.167 334 -135.5s135 -202.166 135 -335.499v-33zM591.998 936
c-103.333 0 -192.331 -33.167 -266.998 -99.5s-120.334 -151.166 -137.001 -254.499h785c-4.66699 101.333 -43.334 185.666 -116.001 252.999s-161 101 -265 101z" />
    <glyph glyph-name="Ebreve" unicode="&#x114;" horiz-adv-x="1081" 
d="M852 1853c-0.666992 -87.333 -28 -159 -82 -215s-121.667 -84 -203 -84c-80.667 0 -147.667 28 -201 84s-81 127.667 -83 215h75c0.666992 -67.333 21 -122.666 61 -165.999s89.333 -65 148 -65c60 0 110 21.667 150 65s60.333 98.666 61 165.999h74zM184 1434h768v-86
h-678v-527h605v-86h-605v-649h678v-86h-768v1434z" />
    <glyph glyph-name="ebreve" unicode="&#x115;" horiz-adv-x="1159" 
d="M586 1112c-80.667 0 -147.832 28 -201.499 84s-81.5 127.667 -83.5 215h76c0.666992 -67.333 21 -122.666 61 -165.999s89.333 -65 148 -65c60 0 110 21.667 150 65s60.333 98.666 61 165.999h73c-0.666992 -87.333 -27.834 -159 -81.501 -215s-121.167 -84 -202.5 -84z
M1063 508h-881.002v-4c0 -128.667 39.833 -234.667 119.5 -318s177.834 -125 294.501 -125c83.333 0 157.833 17 223.5 51s114.834 81.333 147.501 142l71 -45c-39.333 -70.667 -98.166 -126.5 -176.499 -167.5s-167.5 -61.5 -267.5 -61.5c-68 0 -132.5 13.167 -193.5 39.5
s-113.833 62.166 -158.5 107.499s-80.167 100.666 -106.5 165.999s-39.5 135 -39.5 209c0 142.667 48.167 263.334 144.5 362.001s214.166 148 353.499 148c132.667 0 244 -45.167 334 -135.5s135 -202.166 135 -335.499v-33zM592 936
c-103.333 0 -192.331 -33.167 -266.998 -99.5s-120.334 -151.166 -137.001 -254.499h785c-4.66699 101.333 -43.334 185.666 -116.001 252.999s-161 101 -265 101z" />
    <glyph glyph-name="Edotaccent" unicode="&#x116;" horiz-adv-x="1081" 
d="M569 1749c19.333 0 37.167 -7.83301 53.5 -23.5s24.5 -33.167 24.5 -52.5c0 -22 -8 -40.833 -24 -56.5s-34 -23.5 -54 -23.5c-22.667 0 -41.667 7.66699 -57 23s-23 34.333 -23 57c0 20 7.83301 37.667 23.5 53s34.5 23 56.5 23zM184.001 1434h768v-86h-678v-527h605v-86
h-605v-649h678v-86h-768v1434z" />
    <glyph glyph-name="edotaccent" unicode="&#x117;" horiz-adv-x="1159" 
d="M588 1247c-22.667 0 -41.667 7.33203 -57 21.999s-23 33.334 -23 56.001c0 20.667 7.83301 38.5 23.5 53.5s34.5 22.5 56.5 22.5c20 0 38 -7.66699 54 -23s24 -33 24 -53c0 -22 -8 -40.5 -24 -55.5s-34 -22.5 -54 -22.5zM1063 507.999h-881.002v-4
c0 -128.667 39.833 -234.667 119.5 -318s177.834 -125 294.501 -125c83.333 0 157.833 17 223.5 51s114.834 81.333 147.501 142l71 -45c-39.333 -70.667 -98.166 -126.5 -176.499 -167.5s-167.5 -61.5 -267.5 -61.5c-68 0 -132.5 13.167 -193.5 39.5
s-113.833 62.166 -158.5 107.499s-80.167 100.666 -106.5 165.999s-39.5 135 -39.5 209c0 142.667 48.167 263.334 144.5 362.001s214.166 148 353.499 148c132.667 0 244 -45.167 334 -135.5s135 -202.166 135 -335.499v-33zM591.998 935.999
c-103.333 0 -192.331 -33.167 -266.998 -99.5s-120.334 -151.166 -137.001 -254.499h785c-4.66699 101.333 -43.334 185.666 -116.001 252.999s-161 101 -265 101z" />
    <glyph glyph-name="Eogonek" unicode="&#x118;" horiz-adv-x="1081" 
d="M952 1348l-678 0.000976562v-527h605v-86h-605v-649h678v-86h-172c-62 -21.333 -110.833 -52 -146.5 -92s-53.5 -84.333 -53.5 -133c0 -32.667 10.333 -59.334 31 -80.001s49 -31 85 -31c46.667 0 87 10.333 121 31l27 -64c-50.667 -26 -104.667 -39 -162 -39
c-55.333 0 -99.5 16 -132.5 48s-49.5 72.667 -49.5 122c0 92.667 49.667 172 149 238h-465v1434h768v-86z" />
    <glyph glyph-name="eogonek" unicode="&#x119;" horiz-adv-x="1159" 
d="M1063 508h-881.002v-4c0 -128.667 39.833 -234.667 119.5 -318s177.834 -125 294.501 -125c83.333 0 157.833 17 223.5 51s114.834 81.333 147.501 142l71 -45c-31.333 -55.333 -73.666 -101.666 -126.999 -138.999c-73.333 -61.333 -126.5 -114 -159.5 -158
s-49.5 -89.667 -49.5 -137c0 -32.667 10.5 -59.334 31.5 -80.001s49.5 -31 85.5 -31c46.667 0 87 10.333 121 31l27 -64c-50.667 -26 -104.667 -39 -162 -39c-55.333 0 -99.5 16 -132.5 48s-49.5 72.667 -49.5 122c0 76 41.667 154.667 125 236
c-46.667 -12 -98 -18 -154 -18c-68 0 -132.5 13.167 -193.5 39.5s-113.833 62.166 -158.5 107.499s-80.167 100.666 -106.5 165.999s-39.5 135 -39.5 209c0 142.667 48.167 263.334 144.5 362.001s214.166 148 353.499 148c132.667 0 244 -45.167 334 -135.5
s135 -202.166 135 -335.499v-33zM591.998 936c-103.333 0 -192.331 -33.167 -266.998 -99.5s-120.334 -151.166 -137.001 -254.499h785c-4.66699 101.333 -43.334 185.666 -116.001 252.999s-161 101 -265 101z" />
    <glyph glyph-name="Ecaron" unicode="&#x11a;" horiz-adv-x="1081" 
d="M516 1559l-180 274h82l149 -209l150 209h82l-178 -274h-105zM952 1348h-678v-527h605v-86h-605v-649h678v-86h-768v1434h768v-86z" />
    <glyph glyph-name="ecaron" unicode="&#x11b;" horiz-adv-x="1159" 
d="M535 1116l-181 275h82l150 -209l149 209h82l-178 -275h-104zM1063 508h-881.002v-4c0 -128.667 39.833 -234.667 119.5 -318s177.834 -125 294.501 -125c83.333 0 157.833 17 223.5 51s114.834 81.333 147.501 142l71 -45
c-39.333 -70.667 -98.166 -126.5 -176.499 -167.5s-167.5 -61.5 -267.5 -61.5c-68 0 -132.5 13.167 -193.5 39.5s-113.833 62.166 -158.5 107.499s-80.167 100.666 -106.5 165.999s-39.5 135 -39.5 209c0 142.667 48.167 263.334 144.5 362.001s214.166 148 353.499 148
c132.667 0 244 -45.167 334 -135.5s135 -202.166 135 -335.499v-33zM591.998 936c-103.333 0 -192.331 -33.167 -266.998 -99.5s-120.334 -151.166 -137.001 -254.499h785c-4.66699 101.333 -43.334 185.666 -116.001 252.999s-161 101 -265 101z" />
    <glyph glyph-name="Gcircumflex" unicode="&#x11c;" horiz-adv-x="1564" 
d="M829 1786l-149 -209h-82l180 274h105l178 -274h-82zM891 653l0.000976562 86.002h504v-522c-136 -158 -324 -237 -564 -237c-135.333 0 -257.666 32.167 -366.999 96.5s-194.833 153.166 -256.5 266.499s-92.5 240 -92.5 380c0 84 11.5 163.833 34.5 239.5
s56 143.167 99 202.5s93.667 110.666 152 153.999s124.166 76.666 197.499 99.999s150.333 35 231 35c130.667 0 249.5 -29.167 356.5 -87.5s183.5 -136.166 229.5 -233.499l-80 -41c-42 83.333 -109 150.166 -201 200.499s-193.667 75.5 -305 75.5
c-118.667 0 -225.334 -27.5 -320.001 -82.5s-168.667 -131.667 -222 -230s-80 -209.166 -80 -332.499c0 -124 26.833 -236 80.5 -336s128 -178.167 223 -234.5s201.833 -84.5 320.5 -84.5c192 0 350 58.667 474 176v409h-414z" />
    <glyph glyph-name="gcircumflex" unicode="&#x11d;" horiz-adv-x="1226" 
d="M659 1343l-149 -208h-82l180 274h105l178 -274h-82zM975 991l90 0.000976562v-966c0 -132.667 -42.5 -241.334 -127.5 -326.001s-195.5 -127 -331.5 -127c-93.333 0 -179.5 16.667 -258.5 50s-137.5 78 -175.5 134l53 56c31.333 -48 81.5 -86.333 150.5 -115
s145.167 -43 228.5 -43c110 0 199.333 34.833 268 104.5s103 158.5 103 266.5v149c-30.667 -52.667 -81.5 -97.167 -152.5 -133.5s-143.833 -54.5 -218.5 -54.5c-145.333 0 -266.333 48.833 -363 146.5s-145 220.167 -145 367.5c0 146.667 48.333 268.667 145 366
s217.667 146 363 146c76 0 149.333 -18.5 220 -55.5s121 -82.167 151 -135.5v170zM614 68.001c72 0 141.999 19.168 209.999 57.501s118.333 87.166 151 146.499v451c-31.333 60 -81.166 109.5 -149.499 148.5s-138.833 58.5 -211.5 58.5
c-123.333 0 -225.833 -40.667 -307.5 -122s-122.5 -184 -122.5 -308s40.833 -227 122.5 -309s184.167 -123 307.5 -123z" />
    <glyph glyph-name="Gbreve" unicode="&#x11e;" horiz-adv-x="1564" 
d="M831 1554c-80.667 0 -147.669 28 -201.002 84s-81 127.667 -83 215h76c0.666992 -67.333 20.834 -122.666 60.501 -165.999s88.834 -65 147.501 -65c60 0 110 21.667 150 65s60.333 98.666 61 165.999h74c-0.666992 -87.333 -28 -159 -82 -215s-121.667 -84 -203 -84z
M890.998 653l0.000976562 86.002h504v-522c-136 -158 -324 -237 -564 -237c-135.333 0 -257.666 32.167 -366.999 96.5s-194.833 153.166 -256.5 266.499s-92.5 240 -92.5 380c0 84 11.5 163.833 34.5 239.5s56 143.167 99 202.5s93.667 110.666 152 153.999
s124.166 76.666 197.499 99.999s150.333 35 231 35c130.667 0 249.5 -29.167 356.5 -87.5s183.5 -136.166 229.5 -233.499l-80 -41c-42 83.333 -109 150.166 -201 200.499s-193.667 75.5 -305 75.5c-118.667 0 -225.334 -27.5 -320.001 -82.5s-168.667 -131.667 -222 -230
s-80 -209.166 -80 -332.499c0 -124 26.833 -236 80.5 -336s128 -178.167 223 -234.5s201.833 -84.5 320.5 -84.5c192 0 350 58.667 474 176v409h-414z" />
    <glyph glyph-name="gbreve" unicode="&#x11f;" horiz-adv-x="1226" 
d="M659 1112c-80.667 0 -147.669 28 -201.002 84s-81 127.667 -83 215h76c0.666992 -67.333 20.834 -122.666 60.501 -165.999s88.834 -65 147.501 -65c60 0 110 21.667 150 65s60.333 98.666 61 165.999h74c-0.666992 -87.333 -28 -159 -82 -215s-121.667 -84 -203 -84z
M974.998 991l90 0.000976562v-966c0 -132.667 -42.5 -241.334 -127.5 -326.001s-195.5 -127 -331.5 -127c-93.333 0 -179.5 16.667 -258.5 50s-137.5 78 -175.5 134l53 56c31.333 -48 81.5 -86.333 150.5 -115s145.167 -43 228.5 -43c110 0 199.333 34.833 268 104.5
s103 158.5 103 266.5v149c-30.667 -52.667 -81.5 -97.167 -152.5 -133.5s-143.833 -54.5 -218.5 -54.5c-145.333 0 -266.333 48.833 -363 146.5s-145 220.167 -145 367.5c0 146.667 48.333 268.667 145 366s217.667 146 363 146c76 0 149.333 -18.5 220 -55.5
s121 -82.167 151 -135.5v170zM613.998 68.001c72 0 141.999 19.168 209.999 57.501s118.333 87.166 151 146.499v451c-31.333 60 -81.166 109.5 -149.499 148.5s-138.833 58.5 -211.5 58.5c-123.333 0 -225.833 -40.667 -307.5 -122s-122.5 -184 -122.5 -308
s40.833 -227 122.5 -309s184.167 -123 307.5 -123z" />
    <glyph glyph-name="Gdotaccent" unicode="&#x120;" horiz-adv-x="1564" 
d="M831 1593c-22.667 0 -41.499 7.66699 -56.499 23s-22.5 34.333 -22.5 57c0 20 7.66699 37.667 23 53s34 23 56 23c19.333 0 37.166 -7.83301 53.499 -23.5s24.5 -33.167 24.5 -52.5c0 -22 -8 -40.833 -24 -56.5s-34 -23.5 -54 -23.5zM891.001 653l0.000976562 86.002h504
v-522c-136 -158 -324 -237 -564 -237c-135.333 0 -257.666 32.167 -366.999 96.5s-194.833 153.166 -256.5 266.499s-92.5 240 -92.5 380c0 84 11.5 163.833 34.5 239.5s56 143.167 99 202.5s93.667 110.666 152 153.999s124.166 76.666 197.499 99.999s150.333 35 231 35
c130.667 0 249.5 -29.167 356.5 -87.5s183.5 -136.166 229.5 -233.499l-80 -41c-42 83.333 -109 150.166 -201 200.499s-193.667 75.5 -305 75.5c-118.667 0 -225.334 -27.5 -320.001 -82.5s-168.667 -131.667 -222 -230s-80 -209.166 -80 -332.499
c0 -124 26.833 -236 80.5 -336s128 -178.167 223 -234.5s201.833 -84.5 320.5 -84.5c192 0 350 58.667 474 176v409h-414z" />
    <glyph glyph-name="gdotaccent" unicode="&#x121;" horiz-adv-x="1226" 
d="M662 1247c-22.667 0 -41.667 7.33203 -57 21.999s-23 33.334 -23 56.001c0 20.667 7.83301 38.5 23.5 53.5s34.5 22.5 56.5 22.5c20 0 37.833 -7.66699 53.5 -23s23.5 -33 23.5 -53c0 -22 -7.83301 -40.5 -23.5 -55.5s-33.5 -22.5 -53.5 -22.5zM975 990.999
l90 0.000976562v-966c0 -132.667 -42.5 -241.334 -127.5 -326.001s-195.5 -127 -331.5 -127c-93.333 0 -179.5 16.667 -258.5 50s-137.5 78 -175.5 134l53 56c31.333 -48 81.5 -86.333 150.5 -115s145.167 -43 228.5 -43c110 0 199.333 34.833 268 104.5
s103 158.5 103 266.5v149c-30.667 -52.667 -81.5 -97.167 -152.5 -133.5s-143.833 -54.5 -218.5 -54.5c-145.333 0 -266.333 48.833 -363 146.5s-145 220.167 -145 367.5c0 146.667 48.333 268.667 145 366s217.667 146 363 146c76 0 149.333 -18.5 220 -55.5
s121 -82.167 151 -135.5v170zM614 68c72 0 141.999 19.168 209.999 57.501s118.333 87.166 151 146.499v451c-31.333 60 -81.166 109.5 -149.499 148.5s-138.833 58.5 -211.5 58.5c-123.333 0 -225.833 -40.667 -307.5 -122s-122.5 -184 -122.5 -308s40.833 -227 122.5 -309
s184.167 -123 307.5 -123z" />
    <glyph glyph-name="uni0122" unicode="&#x122;" horiz-adv-x="1564" 
d="M891 653l0.000976562 86.002h504v-522c-136 -158 -324 -237 -564 -237c-135.333 0 -257.666 32.167 -366.999 96.5s-194.833 153.166 -256.5 266.499s-92.5 240 -92.5 380c0 84 11.5 163.833 34.5 239.5s56 143.167 99 202.5s93.667 110.666 152 153.999
s124.166 76.666 197.499 99.999s150.333 35 231 35c130.667 0 249.5 -29.167 356.5 -87.5s183.5 -136.166 229.5 -233.499l-80 -41c-42 83.333 -109 150.166 -201 200.499s-193.667 75.5 -305 75.5c-118.667 0 -225.334 -27.5 -320.001 -82.5s-168.667 -131.667 -222 -230
s-80 -209.166 -80 -332.499c0 -124 26.833 -236 80.5 -336s128 -178.167 223 -234.5s201.833 -84.5 320.5 -84.5c192 0 350 58.667 474 176v409h-414zM604.001 -433.998l162 276h119l-195 -276h-86z" />
    <glyph glyph-name="uni0123" unicode="&#x123;" horiz-adv-x="1226" 
d="M872 1395l-163 -277h-117l192 277h88zM975 991l90 0.000976562v-966c0 -132.667 -42.5 -241.334 -127.5 -326.001s-195.5 -127 -331.5 -127c-93.333 0 -179.5 16.667 -258.5 50s-137.5 78 -175.5 134l53 56c31.333 -48 81.5 -86.333 150.5 -115s145.167 -43 228.5 -43
c110 0 199.333 34.833 268 104.5s103 158.5 103 266.5v149c-30.667 -52.667 -81.5 -97.167 -152.5 -133.5s-143.833 -54.5 -218.5 -54.5c-145.333 0 -266.333 48.833 -363 146.5s-145 220.167 -145 367.5c0 146.667 48.333 268.667 145 366s217.667 146 363 146
c76 0 149.333 -18.5 220 -55.5s121 -82.167 151 -135.5v170zM614 68.001c72 0 141.999 19.168 209.999 57.501s118.333 87.166 151 146.499v451c-31.333 60 -81.166 109.5 -149.499 148.5s-138.833 58.5 -211.5 58.5c-123.333 0 -225.833 -40.667 -307.5 -122
s-122.5 -184 -122.5 -308s40.833 -227 122.5 -309s184.167 -123 307.5 -123z" />
    <glyph glyph-name="Hcircumflex" unicode="&#x124;" horiz-adv-x="1439" 
d="M721 1786l-150 -209h-82l181 274h104l178 -274h-82zM1165 1434h92v-1434h-92v705h-891v-705h-90v1434h90v-643h891v643z" />
    <glyph glyph-name="hcircumflex" unicode="&#x125;" horiz-adv-x="1202" 
d="M354 1575l-147 209l-150 -209h-82l181 276h102l178 -276h-82zM631 1012c122 0 220.667 -40.167 296 -120.5s113 -185.833 113 -316.5v-575h-88v567c0 107.333 -30.833 194.333 -92.5 261s-142.167 100 -241.5 100c-76.667 0 -148 -18.5 -214 -55.5
s-116.667 -86.833 -152 -149.5v-723h-90v1434h90v-613c34 58 85.5 104.333 154.5 139s143.833 52 224.5 52z" />
    <glyph glyph-name="Hbar" unicode="&#x126;" horiz-adv-x="1439" 
d="M1399 1167v-77h-142v-1090h-92v705h-891v-705h-90v1090h-145v77h145v267h90v-267h891v267h92v-267h142zM1165 791v299h-891v-299h891z" />
    <glyph glyph-name="hbar" unicode="&#x127;" horiz-adv-x="1202" 
d="M631 1012c122 0 220.667 -40.167 296 -120.5s113 -185.833 113 -316.5v-575h-88v567c0 107.333 -30.833 194.333 -92.5 261s-142.167 100 -241.5 100c-76.667 0 -148 -18.5 -214 -55.5s-116.667 -86.833 -152 -149.5v-723h-90v1221h-250v67h250v146h90v-146h246v-67h-246
v-400c34 58 85.5 104.333 154.5 139s143.833 52 224.5 52z" />
    <glyph glyph-name="Itilde" unicode="&#x128;" horiz-adv-x="458" 
d="M-88 1593c2.66699 56.667 20.332 102.67 52.999 138.003s72.334 53 119.001 53c24.667 0 51.167 -6.33301 79.5 -19s53 -26.834 74 -42.501s43.667 -29.834 68 -42.501s45.5 -19 63.5 -19c30 0 54.333 11.333 73 34s27.667 51.667 27 87l76 -10
c-2.66699 -56.667 -20.167 -102.667 -52.5 -138s-71.5 -53 -117.5 -53c-26 0 -53 6.5 -81 19.5s-52.167 27.333 -72.5 43s-42.833 30 -67.5 43s-46.667 19.5 -66 19.5c-30 0 -54 -11.333 -72 -34s-26.667 -52.334 -26 -89.001zM183.998 1434h90v-1434h-90v1434z" />
    <glyph glyph-name="itilde" unicode="&#x129;" horiz-adv-x="413" 
d="M-111 1151c2.66699 56.667 20.3311 102.502 52.998 137.502s72.334 52.5 119.001 52.5c24.667 0 51.167 -6.33301 79.5 -19s53 -26.667 74 -42s43.667 -29.333 68 -42s45.5 -19 63.5 -19c30 0 54.333 11.167 73 33.5s27.667 51.166 27 86.499l76 -10
c-2.66699 -56.667 -20.167 -102.5 -52.5 -137.5s-71.5 -52.5 -117.5 -52.5c-32.667 0 -66.667 10.5 -102 31.5l-100.5 62.5c-31.667 20.667 -59.5 31 -83.5 31c-30 0 -54.167 -11.333 -72.5 -34s-27.166 -52.334 -26.499 -89.001zM161.997 991.002h90v-991h-90v991z" />
    <glyph glyph-name="Imacron" unicode="&#x12a;" horiz-adv-x="458" 
d="M-98 1593v76h655v-76h-655zM184 1434h90v-1434h-90v1434z" />
    <glyph glyph-name="imacron" unicode="&#x12b;" horiz-adv-x="413" 
d="M-119 1151v76h656v-76h-656zM162 991h90v-991h-90v991z" />
    <glyph glyph-name="Ibreve" unicode="&#x12c;" horiz-adv-x="458" 
d="M514 1853c-0.666992 -87.333 -28 -159 -82 -215s-121.667 -84 -203 -84c-80.667 0 -147.667 28 -201 84s-81 127.667 -83 215h75c0.666992 -67.333 21 -122.666 61 -165.999s89.333 -65 148 -65c60 0 110 21.667 150 65s60.333 98.666 61 165.999h74zM184 1434h90v-1434
h-90v1434z" />
    <glyph glyph-name="ibreve" unicode="&#x12d;" horiz-adv-x="413" 
d="M494 1411c-0.666992 -87.333 -27.999 -159 -81.999 -215s-121.667 -84 -203 -84c-80.667 0 -147.834 28 -201.501 84s-81.5 127.667 -83.5 215h74c2 -67.333 23 -122.666 63 -165.999s89.333 -65 148 -65c60 0 110 21.667 150 65s60.333 98.666 61 165.999h74z
M162.001 991h90v-991h-90v991z" />
    <glyph glyph-name="Iogonek" unicode="&#x12e;" horiz-adv-x="458" 
d="M309 -305l26.999 -63.999c-50.667 -26 -104.667 -39 -162 -39c-55.333 0 -99.5 16 -132.5 48s-49.5 72.667 -49.5 122c0 53.333 16.833 102.833 50.5 148.5s80.834 84.5 141.501 116.5v1407h90v-1434h-2c-62 -21.333 -110.833 -52 -146.5 -92s-53.5 -84.333 -53.5 -133
c0 -32.667 10.333 -59.334 31 -80.001s49 -31 85 -31c46.667 0 87 10.333 121 31z" />
    <glyph glyph-name="iogonek" unicode="&#x12f;" horiz-adv-x="413" 
d="M209 1247c-22.667 0 -41.667 7.33203 -57 21.999s-23 33.334 -23 56.001c0 20.667 7.83301 38.5 23.5 53.5s34.5 22.5 56.5 22.5c20 0 38 -7.66699 54 -23s24 -33 24 -53c0 -22 -8 -40.5 -24 -55.5s-34 -22.5 -54 -22.5zM287 -305.001l26 -63.998
c-50.667 -26 -104.334 -39 -161.001 -39c-55.333 0 -99.666 16 -132.999 48s-50 72.667 -50 122c0 53.333 17 102.833 51 148.5s81.333 84.5 142 116.5v964h90v-991h-2c-62 -22 -111 -52.833 -147 -92.5s-54 -83.834 -54 -132.501c0 -32.667 10.5 -59.334 31.5 -80.001
s49.5 -31 85.5 -31c46.667 0 87 10.333 121 31z" />
    <glyph glyph-name="Idotaccent" unicode="&#x130;" horiz-adv-x="458" 
d="M229 1749c19.333 0 37.167 -7.83301 53.5 -23.5s24.5 -33.167 24.5 -52.5c0 -22 -8 -40.833 -24 -56.5s-34 -23.5 -54 -23.5c-22.667 0 -41.5 7.66699 -56.5 23s-22.5 34.333 -22.5 57c0 20 7.66699 37.667 23 53s34 23 56 23zM184.001 1434h90v-1434h-90v1434z" />
    <glyph glyph-name="dotlessi" unicode="&#x131;" horiz-adv-x="413" 
d="M162 991h90v-991h-90v991z" />
    <glyph glyph-name="IJ" unicode="&#x132;" horiz-adv-x="1050" 
d="M184 1434h90v-1434h-90v1434zM508 66h28.999c166 0 249 112.333 249 337v1031h91v-1045c0 -135.333 -27.667 -237.333 -83 -306s-136.333 -103 -243 -103c-23.333 0 -39.666 0.666992 -48.999 2z" />
    <glyph glyph-name="ij" unicode="&#x133;" horiz-adv-x="827" 
d="M209 1401c20 0 38 -7.66797 54 -23.001s24 -33 24 -53c0 -22 -8 -40.5 -24 -55.5s-34 -22.5 -54 -22.5c-22.667 0 -41.667 7.33301 -57 22s-23 33.334 -23 56.001c0 20.667 7.83301 38.5 23.5 53.5s34.5 22.5 56.5 22.5zM621 1401c20 0 37.833 -7.66699 53.5 -23
s23.5 -33 23.5 -53c0 -22 -7.83301 -40.5 -23.5 -55.5s-33.5 -22.5 -53.5 -22.5c-22 0 -40.833 7.5 -56.5 22.5s-23.5 33.5 -23.5 55.5c0 20.667 8 38.5 24 53.5s34.667 22.5 56 22.5zM162 990.999h90v-991h-90v991zM408 -336.001
c2.66699 -0.666992 5.83301 -1.33398 9.5 -2.00098s6.5 -1.16699 8.5 -1.5s4 -0.5 6 -0.5c95.333 0 143 80 143 240v1091h91v-1097c0 -107.333 -18.667 -187.166 -56 -239.499s-94 -78.5 -170 -78.5c-18 0 -31 1.33301 -39 4z" />
    <glyph glyph-name="Jcircumflex" unicode="&#x134;" horiz-adv-x="591" 
d="M430 1851l178 -274h-82l-149 209l-150 -209h-82l181 274h104zM328 403l-0.000976562 1031h90v-1045c0 -135.333 -27.667 -237.333 -83 -306s-136.333 -103 -243 -103c-23.333 0 -39.666 0.666992 -48.999 2l6 84h29c166.667 0 250 112.333 250 337z" />
    <glyph glyph-name="jcircumflex" unicode="&#x135;" horiz-adv-x="413" 
d="M260 1409l178 -274h-82l-149 208l-150 -208h-82l181 274h104zM162 -100l-0.000976562 1091h90v-1097c0 -107.333 -18.5 -187.166 -55.5 -239.499s-93.5 -78.5 -169.5 -78.5c-18 0 -31 1.33301 -39 4l6 84c2.66699 -0.666992 5.83398 -1.33398 9.50098 -2.00098
s6.5 -1.16699 8.5 -1.5s4 -0.5 6 -0.5c96 0 144 80 144 240z" />
    <glyph glyph-name="uni0136" unicode="&#x136;" horiz-adv-x="1189" 
d="M373 750l780 -750h-127l-752 731v-731h-90v1434h90v-666l689 666h122zM430 -434l162 276h119l-195 -276h-86z" />
    <glyph glyph-name="uni0137" unicode="&#x137;" horiz-adv-x="983" 
d="M346 520l592 -520h-123l-563 500v-500h-90v1434h90v-895l536 452h119zM326 -434l161 276h119l-194 -276h-86z" />
    <glyph glyph-name="kgreenlandic" unicode="&#x138;" horiz-adv-x="987" 
d="M942 0h-123l-567 506v-506h-90v991h90v-456l541 456h118l-559 -471z" />
    <glyph glyph-name="Lacute" unicode="&#x139;" horiz-adv-x="1116" 
d="M446 1833l-192 -274h-88l162 274h118zM184 1434h90v-1348h756v-86h-846v1434z" />
    <glyph glyph-name="lacute" unicode="&#x13a;" horiz-adv-x="413" 
d="M420 1833l-193 -274h-88l162 274h119zM252 1434v-1434h-90v1434h90z" />
    <glyph glyph-name="uni013B" unicode="&#x13b;" horiz-adv-x="1116" 
d="M184 1434h90v-1348h756v-86h-846v1434zM698 -158l-194 -276h-86l162 276h118z" />
    <glyph glyph-name="uni013C" unicode="&#x13c;" horiz-adv-x="413" 
d="M252 1434v-1434h-90v1434h90zM311 -158l-194 -276h-86l162 276h118z" />
    <glyph glyph-name="Lcaron" unicode="&#x13d;" horiz-adv-x="1116" 
d="M659 1528l-67 -412h-74l45 412h96zM184 1434h90v-1348h756v-86h-846v1434z" />
    <glyph glyph-name="lcaron" unicode="&#x13e;" horiz-adv-x="460" 
d="M502 1528l-68 -412h-74l46 412h96zM252 1434v-1434h-90v1434h90z" />
    <glyph glyph-name="Ldot" unicode="&#x13f;" horiz-adv-x="1110" 
d="M184 1434h90v-1348h756v-86h-846v1434zM723 655c-26.667 0 -48.667 8.66699 -66 26s-26 38.666 -26 63.999c0 26 8.83301 48 26.5 66s39.5 27 65.5 27c25.333 0 46.666 -9 63.999 -27s26 -40 26 -66c0 -25.333 -8.66699 -46.666 -26 -63.999s-38.666 -26 -63.999 -26z
" />
    <glyph glyph-name="ldot" unicode="&#x140;" horiz-adv-x="538" 
d="M256 1434v-1434h-90v1434h90zM473 614c-25.333 0 -46.666 8.83301 -63.999 26.5s-26 39.167 -26 64.5s8.66699 47 26 65s38.666 27 63.999 27c26 0 47.833 -8.83301 65.5 -26.5s26.5 -39.5 26.5 -65.5s-8.83301 -47.667 -26.5 -65s-39.5 -26 -65.5 -26z" />
    <glyph glyph-name="Lslash" unicode="&#x141;" horiz-adv-x="1116" 
d="M274 86h756v-86h-846v594l-137 -66v84l137 64v758h90v-715l465 215v-80l-465 -219v-549z" />
    <glyph glyph-name="lslash" unicode="&#x142;" horiz-adv-x="413" 
d="M412 989v-84l-160 -74v-831h-90v791l-158 -72v82l158 73v560h90v-519z" />
    <glyph glyph-name="Nacute" unicode="&#x143;" horiz-adv-x="1454" 
d="M950 1833l-192 -274h-88l161 274h119zM184 1434h97l899 -1284v1284h90v-1434h-96l-900 1284v-1284h-90v1434z" />
    <glyph glyph-name="nacute" unicode="&#x144;" horiz-adv-x="1202" 
d="M807 1391l-193 -275h-88l164 275h117zM631 1012c122 0 220.668 -40.167 296.001 -120.5s113 -185.833 113 -316.5v-575h-88v567c0 107.333 -30.833 194.333 -92.5 261s-142.167 100 -241.5 100c-76 0 -147.333 -18.5 -214 -55.5s-117.334 -86.833 -152.001 -149.5v-723
h-90v991h90v-170c34 58 85.5 104.333 154.5 139s143.833 52 224.5 52z" />
    <glyph glyph-name="uni0145" unicode="&#x145;" horiz-adv-x="1454" 
d="M184 1434h97l899 -1284v1284h90v-1434h-96l-900 1284v-1284h-90v1434zM834 -158l-195 -276h-86l162 276h119z" />
    <glyph glyph-name="uni0146" unicode="&#x146;" horiz-adv-x="1202" 
d="M631 1012c122 0 220.668 -40.167 296.001 -120.5s113 -185.833 113 -316.5v-575h-88v567c0 107.333 -30.833 194.333 -92.5 261s-142.167 100 -241.5 100c-76 0 -147.333 -18.5 -214 -55.5s-117.334 -86.833 -152.001 -149.5v-723h-90v991h90v-170
c34 58 85.5 104.333 154.5 139s143.833 52 224.5 52zM414.001 -434l161 276h119l-192 -276h-88z" />
    <glyph glyph-name="Ncaron" unicode="&#x147;" horiz-adv-x="1454" 
d="M680 1559l-180 274h82l149 -209l150 209h82l-179 -274h-104zM1180 1434h90v-1434h-96l-900 1284v-1284h-90v1434h97l899 -1284v1284z" />
    <glyph glyph-name="ncaron" unicode="&#x148;" horiz-adv-x="1202" 
d="M539 1116l-181 275h82l150 -209l149 209h82l-178 -275h-104zM631 1012c122 0 220.668 -40.167 296.001 -120.5s113 -185.833 113 -316.5v-575h-88v567c0 107.333 -30.833 194.333 -92.5 261s-142.167 100 -241.5 100c-76 0 -147.333 -18.5 -214 -55.5
s-117.334 -86.833 -152.001 -149.5v-723h-90v991h90v-170c34 58 85.5 104.333 154.5 139s143.833 52 224.5 52z" />
    <glyph glyph-name="napostrophe" unicode="&#x149;" horiz-adv-x="1181" 
d="M176 1116h-59l53 144c-20.667 5.33301 -37.167 15.833 -49.5 31.5s-18.5 34.5 -18.5 56.5c0 26 8.66699 47.5 26 64.5s39 25.5 65 25.5s47.5 -8.5 64.5 -25.5s25.5 -38.5 25.5 -64.5c0 -20 -7 -42 -21 -66zM631 1012c122 0 220.668 -40.167 296.001 -120.5
s113 -185.833 113 -316.5v-575h-88v567c0 107.333 -30.833 194.333 -92.5 261s-142.167 100 -241.5 100c-76 0 -147.333 -18.5 -214 -55.5s-117.334 -86.833 -152.001 -149.5v-723h-90v991h90v-170c34 58 85.5 104.333 154.5 139s143.833 52 224.5 52z" />
    <glyph glyph-name="Eng" unicode="&#x14a;" horiz-adv-x="1454" 
d="M1180 1434h89.999v-1444c0 -135.333 -27.667 -237.5 -83 -306.5s-136.333 -103.5 -243 -103.5c-23.333 0 -39.666 0.666992 -48.999 2l6 84h29c162.667 0 246 108.667 250 326l-906 1292v-1284h-90v1434h97l899 -1284v1284z" />
    <glyph glyph-name="eng" unicode="&#x14b;" horiz-adv-x="1202" 
d="M631 1012c122 0 220.668 -40.1689 296.001 -120.502s113 -185.833 113 -316.5v-681c0 -107.333 -18.333 -187.166 -55 -239.499s-92.667 -78.5 -168 -78.5c-20.667 0 -37 1.33301 -49 4l8 84c13.333 -2.66699 23 -4 29 -4c50 0 87 19.333 111 58s36 99.334 36 182.001
v667c0 107.333 -30.833 194.333 -92.5 261s-142.167 100 -241.5 100c-76 0 -147.333 -18.5 -214 -55.5s-117.334 -86.833 -152.001 -149.5v-723h-90v991h90v-170c34 58 85.5 104.333 154.5 139s143.833 52 224.5 52z" />
    <glyph glyph-name="Omacron" unicode="&#x14c;" horiz-adv-x="1665" 
d="M504 1593v76h655v-76h-655zM831 1454c99.333 0 193.333 -19 282 -57s165 -89.5 229 -154.5s114.667 -142.667 152 -233s56 -185.833 56 -286.5c0 -102.667 -18.667 -200 -56 -292s-88 -170.833 -152 -236.5s-140.333 -117.834 -229 -156.501s-182.667 -58 -282 -58
c-98.667 0 -192.167 19.333 -280.5 58s-164.333 90.834 -228 156.501s-114.167 144.5 -151.5 236.5s-56 189.333 -56 292c0 100.667 18.667 196.167 56 286.5s87.833 168 151.5 233s139.667 116.5 228 154.5s181.833 57 280.5 57zM831 1368
c-114.667 0 -219.833 -28.332 -315.5 -84.999s-171 -134.5 -226 -233.5s-82.5 -207.833 -82.5 -326.5c0 -121.333 27.5 -232.333 82.5 -333s130.333 -179.834 226 -237.501s200.834 -86.5 315.501 -86.5c115.333 0 221 28.833 317 86.5s171.667 136.834 227 237.501
s83 211.667 83 333c0 89.333 -16.333 173.833 -49 253.5s-76.834 148.167 -132.501 205.5s-122.167 102.666 -199.5 135.999s-159.333 50 -246 50z" />
    <glyph glyph-name="omacron" unicode="&#x14d;" horiz-adv-x="1212" 
d="M279 1151v76h655v-76h-655zM606 1012c94 0 180.167 -22.667 258.5 -68s140.166 -107.5 185.499 -186.5s68 -166.167 68 -261.5s-22.667 -182.5 -68 -261.5s-107.166 -141.167 -185.499 -186.5s-164.5 -68 -258.5 -68s-180 22.667 -258 68s-139.5 107.5 -184.5 186.5
s-67.5 166.167 -67.5 261.5s22.5 182.5 67.5 261.5s106.5 141.167 184.5 186.5s164 68 258 68zM606 930c-118.667 0 -218.667 -41.833 -300 -125.5s-122 -186.5 -122 -308.5c0 -121.333 40.667 -223.833 122 -307.5s181.333 -125.5 300 -125.5c118 0 218.167 42 300.5 126
s123.5 186.333 123.5 307c0 122 -41.167 224.833 -123.5 308.5s-182.5 125.5 -300.5 125.5z" />
    <glyph glyph-name="Obreve" unicode="&#x14e;" horiz-adv-x="1665" 
d="M1116 1853c-0.666992 -87.333 -28.002 -159 -82.002 -215s-121.667 -84 -203 -84c-80.667 0 -147.667 28 -201 84s-81 127.667 -83 215h76c0.666992 -67.333 20.834 -122.666 60.501 -165.999s88.834 -65 147.501 -65c60 0 110 21.667 150 65s60.333 98.666 61 165.999
h74zM830.998 1454c99.333 0 193.333 -19 282 -57s165 -89.5 229 -154.5s114.667 -142.667 152 -233s56 -185.833 56 -286.5c0 -102.667 -18.667 -200 -56 -292s-88 -170.833 -152 -236.5s-140.333 -117.834 -229 -156.501s-182.667 -58 -282 -58
c-98.667 0 -192.167 19.333 -280.5 58s-164.333 90.834 -228 156.501s-114.167 144.5 -151.5 236.5s-56 189.333 -56 292c0 100.667 18.667 196.167 56 286.5s87.833 168 151.5 233s139.667 116.5 228 154.5s181.833 57 280.5 57zM830.998 1368
c-114.667 0 -219.833 -28.332 -315.5 -84.999s-171 -134.5 -226 -233.5s-82.5 -207.833 -82.5 -326.5c0 -121.333 27.5 -232.333 82.5 -333s130.333 -179.834 226 -237.501s200.834 -86.5 315.501 -86.5c115.333 0 221 28.833 317 86.5s171.667 136.834 227 237.501
s83 211.667 83 333c0 89.333 -16.333 173.833 -49 253.5s-76.834 148.167 -132.501 205.5s-122.167 102.666 -199.5 135.999s-159.333 50 -246 50z" />
    <glyph glyph-name="obreve" unicode="&#x14f;" horiz-adv-x="1212" 
d="M891 1411c-0.666992 -87.333 -28 -159 -82 -215s-121.667 -84 -203 -84c-80.667 0 -147.667 28 -201 84s-81 127.667 -83 215h75c0.666992 -67.333 21 -122.666 61 -165.999s89.333 -65 148 -65c60 0 110 21.667 150 65s60.333 98.666 61 165.999h74zM606 1012
c94 0 180.167 -22.667 258.5 -68s140.166 -107.5 185.499 -186.5s68 -166.167 68 -261.5s-22.667 -182.5 -68 -261.5s-107.166 -141.167 -185.499 -186.5s-164.5 -68 -258.5 -68s-180 22.667 -258 68s-139.5 107.5 -184.5 186.5s-67.5 166.167 -67.5 261.5
s22.5 182.5 67.5 261.5s106.5 141.167 184.5 186.5s164 68 258 68zM606 930c-118.667 0 -218.667 -41.833 -300 -125.5s-122 -186.5 -122 -308.5c0 -121.333 40.667 -223.833 122 -307.5s181.333 -125.5 300 -125.5c118 0 218.167 42 300.5 126s123.5 186.333 123.5 307
c0 122 -41.167 224.833 -123.5 308.5s-182.5 125.5 -300.5 125.5z" />
    <glyph glyph-name="Ohungarumlaut" unicode="&#x150;" horiz-adv-x="1665" 
d="M727 1559l147 292h-94l-147 -292h94zM993 1559l146 292h-92l-146 -292h92zM831 1454c99.333 0 193.333 -19 282 -57s165 -89.5 229 -154.5s114.667 -142.667 152 -233s56 -185.833 56 -286.5c0 -102.667 -18.667 -200 -56 -292s-88 -170.833 -152 -236.5
s-140.333 -117.834 -229 -156.501s-182.667 -58 -282 -58c-98.667 0 -192.167 19.333 -280.5 58s-164.333 90.834 -228 156.501s-114.167 144.5 -151.5 236.5s-56 189.333 -56 292c0 100.667 18.667 196.167 56 286.5s87.833 168 151.5 233s139.667 116.5 228 154.5
s181.833 57 280.5 57zM831 1368c-114.667 0 -219.833 -28.332 -315.5 -84.999s-171 -134.5 -226 -233.5s-82.5 -207.833 -82.5 -326.5c0 -121.333 27.5 -232.333 82.5 -333s130.333 -179.834 226 -237.501s200.834 -86.5 315.501 -86.5c115.333 0 221 28.833 317 86.5
s171.667 136.834 227 237.501s83 211.667 83 333c0 89.333 -16.333 173.833 -49 253.5s-76.834 148.167 -132.501 205.5s-122.167 102.666 -199.5 135.999s-159.333 50 -246 50z" />
    <glyph glyph-name="ohungarumlaut" unicode="&#x151;" horiz-adv-x="1212" 
d="M504 1116l147 293h-94l-147 -293h94zM770 1116l145 293h-92l-145 -293h92zM606 1012c94 0 180.167 -22.667 258.5 -68s140.166 -107.5 185.499 -186.5s68 -166.167 68 -261.5s-22.667 -182.5 -68 -261.5s-107.166 -141.167 -185.499 -186.5s-164.5 -68 -258.5 -68
s-180 22.667 -258 68s-139.5 107.5 -184.5 186.5s-67.5 166.167 -67.5 261.5s22.5 182.5 67.5 261.5s106.5 141.167 184.5 186.5s164 68 258 68zM606 930c-118.667 0 -218.667 -41.833 -300 -125.5s-122 -186.5 -122 -308.5c0 -121.333 40.667 -223.833 122 -307.5
s181.333 -125.5 300 -125.5c118 0 218.167 42 300.5 126s123.5 186.333 123.5 307c0 122 -41.167 224.833 -123.5 308.5s-182.5 125.5 -300.5 125.5z" />
    <glyph glyph-name="OE" unicode="&#x152;" horiz-adv-x="2039" 
d="M1911 1348l-678 -0.000976562v-527h604v-86h-604v-649h678v-86h-1102c-128.667 0 -246 31.5 -352 94.5s-189.5 149.833 -250.5 260.5s-91.5 233.334 -91.5 368.001c0 101.333 17.833 196.333 53.5 285s84.5 164 146.5 226s135.667 110.833 221 146.5
s176.333 53.5 273 53.5h1102v-86zM1143 85.999v1262h-338c-112.667 0 -214.5 -26.5 -305.5 -79.5s-162.5 -127.167 -214.5 -222.5s-78 -203 -78 -323c0 -90 15.333 -174.5 46 -253.5s72.5 -146.5 125.5 -202.5s116.333 -100.167 190 -132.5s152.5 -48.5 236.5 -48.5h338z
" />
    <glyph glyph-name="oe" unicode="&#x153;" horiz-adv-x="2093" 
d="M1997 508l-878.999 -0.000976562v-4c0 -128.667 39.5 -234.667 118.5 -318s176.833 -125 293.5 -125c84 0 158.667 17 224 51s115 81.333 149 142l69 -45c-38 -70.667 -96.333 -126.5 -175 -167.5s-167.667 -61.5 -267 -61.5c-101.333 0 -193 27.333 -275 82
s-142.667 128.334 -182 221.001c-40.667 -91.333 -102.834 -164.666 -186.501 -219.999s-177.167 -83 -280.5 -83c-94 0 -180 22.667 -258 68s-139.5 107.5 -184.5 186.5s-67.5 166.167 -67.5 261.5s22.5 182.5 67.5 261.5s106.5 141.167 184.5 186.5s164 68 258 68
c103.333 0 196.833 -27.333 280.5 -82s145.834 -127.667 186.501 -219c39.333 90.667 100 163.5 182 218.5s173 82.5 273 82.5c133.333 0 245.166 -45.333 335.499 -136s135.5 -202.334 135.5 -335.001c0 -3.33301 -0.333008 -8.83301 -1 -16.5s-1 -13.167 -1 -16.5z
M1526 935.999c-102.667 0 -191.166 -33.167 -265.499 -99.5s-119.833 -151.166 -136.5 -254.499h783c-4.66699 101.333 -43.334 185.666 -116.001 252.999s-161 101 -265 101zM606.002 62.999c118 0 218.167 42 300.5 126s123.5 186.333 123.5 307
c0 122 -41.167 224.833 -123.5 308.5s-182.5 125.5 -300.5 125.5c-118.667 0 -218.667 -41.833 -300 -125.5s-122 -186.5 -122 -308.5c0 -121.333 40.667 -223.833 122 -307.5s181.333 -125.5 300 -125.5z" />
    <glyph glyph-name="Racute" unicode="&#x154;" horiz-adv-x="1230" 
d="M795 1833l-193 -274h-88l162 274h119zM1155 0h-111l-436 645h-334v-645h-90v1434h504c118.667 0 217 -37.167 295 -111.5s117 -167.833 117 -280.5c0 -113.333 -36.167 -206.5 -108.5 -279.5s-165.833 -112.167 -280.5 -117.5zM274 1348v-617.001h414
c93.333 0 170.333 29.167 231 87.5s91 132.833 91 223.5c0 88.667 -30.333 161.834 -91 219.501s-137.667 86.5 -231 86.5h-414z" />
    <glyph glyph-name="racute" unicode="&#x155;" horiz-adv-x="688" 
d="M618 1391l-192 -275h-88l162 275h118zM537 1012c31.333 0 63.999 -5 97.999 -15l-6 -84c-32.667 11.333 -65 17 -97 17c-49.333 0 -99.666 -18.833 -150.999 -56.5s-94.333 -88.5 -129 -152.5v-721h-90v991h90v-172c29.333 58 70.333 104.667 123 140s106.667 53 162 53z
" />
    <glyph glyph-name="uni0156" unicode="&#x156;" horiz-adv-x="1230" 
d="M711 645l444 -645h-111l-436 645h-334v-645h-90v1434h504c118.667 0 217 -37.167 295 -111.5s117 -167.833 117 -280.5c0 -113.333 -36.167 -206.5 -108.5 -279.5s-165.833 -112.167 -280.5 -117.5zM274 1348v-617.001h414c93.333 0 170.333 29.167 231 87.5
s91 132.833 91 223.5c0 88.667 -30.333 161.834 -91 219.501s-137.667 86.5 -231 86.5h-414zM444 -434.001l162 276h119l-195 -276h-86z" />
    <glyph glyph-name="uni0157" unicode="&#x157;" horiz-adv-x="688" 
d="M537 1012c31.333 0 63.999 -5 97.999 -15l-6 -84c-32.667 11.333 -65 17 -97 17c-49.333 0 -99.666 -18.833 -150.999 -56.5s-94.333 -88.5 -129 -152.5v-721h-90v991h90v-172c29.333 58 70.333 104.667 123 140s106.667 53 162 53zM7.99902 -434l162 276h119l-195 -276
h-86z" />
    <glyph glyph-name="Rcaron" unicode="&#x158;" horiz-adv-x="1230" 
d="M524 1559l-180 274h82l149 -209l150 209h82l-178 -274h-105zM1155 0h-111l-436 645h-334v-645h-90v1434h504c118.667 0 217 -37.167 295 -111.5s117 -167.833 117 -280.5c0 -113.333 -36.167 -206.5 -108.5 -279.5s-165.833 -112.167 -280.5 -117.5zM274 1348v-617.001
h414c93.333 0 170.333 29.167 231 87.5s91 132.833 91 223.5c0 88.667 -30.333 161.834 -91 219.501s-137.667 86.5 -231 86.5h-414z" />
    <glyph glyph-name="rcaron" unicode="&#x159;" horiz-adv-x="688" 
d="M350 1116l-180 275h82l149 -209l150 209h82l-178 -275h-105zM537 1012c31.333 0 63.999 -5 97.999 -15l-6 -84c-32.667 11.333 -65 17 -97 17c-49.333 0 -99.666 -18.833 -150.999 -56.5s-94.333 -88.5 -129 -152.5v-721h-90v991h90v-172
c29.333 58 70.333 104.667 123 140s106.667 53 162 53z" />
    <glyph glyph-name="Sacute" unicode="&#x15a;" horiz-adv-x="1140" 
d="M788 1833l-192 -274h-88l162 274h118zM559 1454c87.333 0 170.001 -15.835 248.001 -47.502s136.667 -72.5 176 -122.5l-59 -67c-35.333 46 -86.166 82.667 -152.499 110s-138.5 41 -216.5 41c-100.667 0 -183.834 -25.667 -249.501 -77s-98.5 -116.333 -98.5 -195
c0 -47.333 9.5 -88.833 28.5 -124.5s44.667 -64.667 77 -87s69.5 -41.666 111.5 -57.999s86.167 -31 132.5 -44l138.5 -39.5c46 -13.333 90 -29.5 132 -48.5s79.167 -41.5 111.5 -67.5s58 -59.833 77 -101.5s28.5 -89.834 28.5 -144.501
c0 -114.667 -44.167 -210.167 -132.5 -286.5s-201.833 -114.5 -340.5 -114.5c-182.667 0 -350.334 61.333 -503.001 184l55 72c138.667 -113.333 288 -170 448 -170c110.667 0 201.5 29.5 272.5 88.5s106.5 134.5 106.5 226.5c0 45.333 -9.5 84.833 -28.5 118.5
s-44.667 60.834 -77 81.501s-69.333 38.834 -111 54.501s-85.667 29.667 -132 42l-138.5 38.5c-46 13.333 -89.833 30 -131.5 50s-78.667 43.5 -111 70.5s-58 62.167 -77 105.5s-28.5 93.333 -28.5 150c0 105.333 42 192 126 260s190 102 318 102z" />
    <glyph glyph-name="sacute" unicode="&#x15b;" horiz-adv-x="909" 
d="M659 1391l-192 -275h-88l162 275h118zM453 -20c-69.333 0 -138.168 13.1689 -206.501 39.502s-125.166 61.5 -170.499 105.5l49 65c38.667 -40 88.167 -72.167 148.5 -96.5s120.166 -36.5 179.499 -36.5c81.333 0 147 18.833 197 56.5s75 85.167 75 142.5
c0 42 -11.5 77 -34.5 105s-53 49 -90 63s-77.667 26 -122 36s-88.833 20.667 -133.5 32s-85.5 25.666 -122.5 42.999s-67 43.166 -90 77.499s-34.5 76.5 -34.5 126.5c0 82.667 31.5 148.834 94.5 198.501s146.833 74.5 251.5 74.5c66 0 129.167 -12.167 189.5 -36.5
s107.833 -57.166 142.5 -98.499l-55 -64c-28 37.333 -68.333 67.166 -121 89.499s-106.667 33.5 -162 33.5c-75.333 0 -135.833 -17.667 -181.5 -53s-68.5 -82 -68.5 -140c0 -30 7.16699 -56.167 21.5 -78.5s33.5 -40 57.5 -53s51.833 -24.167 83.5 -33.5
s64.834 -17.833 99.501 -25.5s69.167 -15.834 103.5 -24.501s67.333 -20 99 -34s59.5 -30.667 83.5 -50s43.167 -45 57.5 -77s21.5 -69 21.5 -111c0 -80 -33.5 -146 -100.5 -198s-154.167 -78 -261.5 -78z" />
    <glyph glyph-name="Scircumflex" unicode="&#x15c;" horiz-adv-x="1140" 
d="M569 1786l-149 -209h-82l180 274h105l178 -274h-82zM207 1096c0 -47.333 9.50098 -88.835 28.501 -124.502s44.667 -64.667 77 -87s69.5 -41.666 111.5 -57.999s86.167 -31 132.5 -44l138.5 -39.5c46 -13.333 90 -29.5 132 -48.5s79.167 -41.5 111.5 -67.5
s58 -59.833 77 -101.5s28.5 -89.834 28.5 -144.501c0 -114.667 -44.167 -210.167 -132.5 -286.5s-201.833 -114.5 -340.5 -114.5c-182.667 0 -350.334 61.333 -503.001 184l55 72c138.667 -113.333 288 -170 448 -170c110.667 0 201.5 29.5 272.5 88.5
s106.5 134.5 106.5 226.5c0 45.333 -9.5 84.833 -28.5 118.5s-44.667 60.834 -77 81.501s-69.333 38.834 -111 54.501s-85.667 29.667 -132 42l-138.5 38.5c-46 13.333 -89.833 30 -131.5 50s-78.667 43.5 -111 70.5s-58 62.167 -77 105.5s-28.5 93.333 -28.5 150
c0 105.333 42 192 126 260s190 102 318 102c87.333 0 170 -15.833 248 -47.5s136.667 -72.5 176 -122.5l-59 -67c-35.333 46 -86.166 82.667 -152.499 110s-138.5 41 -216.5 41c-100.667 0 -183.834 -25.667 -249.501 -77s-98.5 -116.333 -98.5 -195z" />
    <glyph glyph-name="scircumflex" unicode="&#x15d;" horiz-adv-x="909" 
d="M442 1343l-149 -208h-82l180 274h105l178 -274h-82zM188 743c0 -30 7.16504 -56.165 21.498 -78.498s33.5 -40 57.5 -53s51.833 -24.167 83.5 -33.5s64.834 -17.833 99.501 -25.5s69.167 -15.834 103.5 -24.501s67.333 -20 99 -34s59.5 -30.667 83.5 -50
s43.167 -45 57.5 -77s21.5 -69 21.5 -111c0 -80 -33.5 -146 -100.5 -198s-154.167 -78 -261.5 -78c-69.333 0 -138.166 13.167 -206.499 39.5s-125.166 61.5 -170.499 105.5l49 65c38.667 -40 88.167 -72.167 148.5 -96.5s120.166 -36.5 179.499 -36.5
c81.333 0 147 18.833 197 56.5s75 85.167 75 142.5c0 42 -11.5 77 -34.5 105s-53 49 -90 63s-77.667 26 -122 36s-88.833 20.667 -133.5 32s-85.5 25.666 -122.5 42.999s-67 43.166 -90 77.499s-34.5 76.5 -34.5 126.5c0 82.667 31.5 148.834 94.5 198.501
s146.833 74.5 251.5 74.5c66 0 129.167 -12.167 189.5 -36.5s107.833 -57.166 142.5 -98.499l-55 -64c-28 37.333 -68.333 67.166 -121 89.499s-106.667 33.5 -162 33.5c-75.333 0 -135.833 -17.667 -181.5 -53s-68.5 -82 -68.5 -140z" />
    <glyph glyph-name="Scedilla" unicode="&#x15e;" horiz-adv-x="1140" 
d="M1044 381c0 -106 -37.667 -195.834 -113 -269.501s-174.666 -116.834 -297.999 -129.501c38 -39.333 65.167 -79.5 81.5 -120.5s21.5 -78.667 15.5 -113s-19.667 -65.166 -41 -92.499s-50.5 -49 -87.5 -65s-78.5 -24.333 -124.5 -25l-22 69
c71.333 8.66699 124.166 29.5 158.499 62.5s47 74.333 38 124s-39.833 102.5 -92.5 158.5c-178 3.33301 -341.667 64.666 -491 183.999l55 72c138.667 -113.333 288 -170 448 -170c110.667 0 201.5 29.5 272.5 88.5s106.5 134.5 106.5 226.5
c0 45.333 -9.5 84.833 -28.5 118.5s-44.667 60.834 -77 81.501s-69.333 38.834 -111 54.501s-85.667 29.667 -132 42l-138.5 38.5c-46 13.333 -89.833 30 -131.5 50s-78.667 43.5 -111 70.5s-58 62.167 -77 105.5s-28.5 93.333 -28.5 150c0 105.333 42 192 126 260
s190 102 318 102c87.333 0 170 -15.833 248 -47.5s136.667 -72.5 176 -122.5l-59 -67c-35.333 46 -86.166 82.667 -152.499 110s-138.5 41 -216.5 41c-100.667 0 -183.834 -25.667 -249.501 -77s-98.5 -116.333 -98.5 -195c0 -47.333 9.5 -88.833 28.5 -124.5
s44.667 -64.667 77 -87s69.5 -41.666 111.5 -57.999s86.167 -31 132.5 -44l138.5 -39.5c46 -13.333 90 -29.5 132 -48.5s79.167 -41.5 111.5 -67.5s58 -59.833 77 -101.5s28.5 -89.834 28.5 -144.501z" />
    <glyph glyph-name="scedilla" unicode="&#x15f;" horiz-adv-x="909" 
d="M815 256c0 -72.667 -28.833 -134.499 -86.5 -185.499s-133.167 -80.5 -226.5 -88.5c38 -39.333 65 -79.5 81 -120.5s20.833 -78.667 14.5 -113s-20 -65.166 -41 -92.499s-50.167 -49 -87.5 -65s-79 -24.333 -125 -25l-22 69c71.333 8.66699 124.333 29.5 159 62.5
s47.5 74.333 38.5 124s-40.167 102.5 -93.5 158.5c-66 4 -130.333 19 -193 45s-115 59.333 -157 100l49 65c38.667 -40 88.167 -72.167 148.5 -96.5s120.166 -36.5 179.499 -36.5c81.333 0 147 18.833 197 56.5s75 85.167 75 142.5c0 42 -11.5 77 -34.5 105s-53 49 -90 63
s-77.667 26 -122 36s-88.833 20.667 -133.5 32s-85.5 25.666 -122.5 42.999s-67 43.166 -90 77.499s-34.5 76.5 -34.5 126.5c0 82.667 31.5 148.834 94.5 198.501s146.833 74.5 251.5 74.5c66 0 129.167 -12.167 189.5 -36.5s107.833 -57.166 142.5 -98.499l-55 -64
c-28 37.333 -68.333 67.166 -121 89.499s-106.667 33.5 -162 33.5c-75.333 0 -135.833 -17.667 -181.5 -53s-68.5 -82 -68.5 -140c0 -30 7.16699 -56.167 21.5 -78.5s33.5 -40 57.5 -53s51.833 -24.167 83.5 -33.5s64.834 -17.833 99.501 -25.5
s69.167 -15.834 103.5 -24.501s67.333 -20 99 -34s59.5 -30.667 83.5 -50s43.167 -45 57.5 -77s21.5 -69 21.5 -111z" />
    <glyph glyph-name="Scaron" unicode="&#x160;" horiz-adv-x="1140" 
d="M518 1559l-180 274h82l149 -209l150 209h82l-178 -274h-105zM207 1096c0 -47.333 9.50098 -88.835 28.501 -124.502s44.667 -64.667 77 -87s69.5 -41.666 111.5 -57.999s86.167 -31 132.5 -44l138.5 -39.5c46 -13.333 90 -29.5 132 -48.5s79.167 -41.5 111.5 -67.5
s58 -59.833 77 -101.5s28.5 -89.834 28.5 -144.501c0 -114.667 -44.167 -210.167 -132.5 -286.5s-201.833 -114.5 -340.5 -114.5c-182.667 0 -350.334 61.333 -503.001 184l55 72c138.667 -113.333 288 -170 448 -170c110.667 0 201.5 29.5 272.5 88.5
s106.5 134.5 106.5 226.5c0 45.333 -9.5 84.833 -28.5 118.5s-44.667 60.834 -77 81.501s-69.333 38.834 -111 54.501s-85.667 29.667 -132 42l-138.5 38.5c-46 13.333 -89.833 30 -131.5 50s-78.667 43.5 -111 70.5s-58 62.167 -77 105.5s-28.5 93.333 -28.5 150
c0 105.333 42 192 126 260s190 102 318 102c87.333 0 170 -15.833 248 -47.5s136.667 -72.5 176 -122.5l-59 -67c-35.333 46 -86.166 82.667 -152.499 110s-138.5 41 -216.5 41c-100.667 0 -183.834 -25.667 -249.501 -77s-98.5 -116.333 -98.5 -195z" />
    <glyph glyph-name="scaron" unicode="&#x161;" horiz-adv-x="909" 
d="M391 1116l-180 275h82l149 -209l150 209h82l-178 -275h-105zM188 743c0 -30 7.16504 -56.165 21.498 -78.498s33.5 -40 57.5 -53s51.833 -24.167 83.5 -33.5s64.834 -17.833 99.501 -25.5s69.167 -15.834 103.5 -24.501s67.333 -20 99 -34s59.5 -30.667 83.5 -50
s43.167 -45 57.5 -77s21.5 -69 21.5 -111c0 -80 -33.5 -146 -100.5 -198s-154.167 -78 -261.5 -78c-69.333 0 -138.166 13.167 -206.499 39.5s-125.166 61.5 -170.499 105.5l49 65c38.667 -40 88.167 -72.167 148.5 -96.5s120.166 -36.5 179.499 -36.5
c81.333 0 147 18.833 197 56.5s75 85.167 75 142.5c0 42 -11.5 77 -34.5 105s-53 49 -90 63s-77.667 26 -122 36s-88.833 20.667 -133.5 32s-85.5 25.666 -122.5 42.999s-67 43.166 -90 77.499s-34.5 76.5 -34.5 126.5c0 82.667 31.5 148.834 94.5 198.501
s146.833 74.5 251.5 74.5c66 0 129.167 -12.167 189.5 -36.5s107.833 -57.166 142.5 -98.499l-55 -64c-28 37.333 -68.333 67.166 -121 89.499s-106.667 33.5 -162 33.5c-75.333 0 -135.833 -17.667 -181.5 -53s-68.5 -82 -68.5 -140z" />
    <glyph glyph-name="uni0162" unicode="&#x162;" horiz-adv-x="1208" 
d="M1141 1348l-492.002 -0.00195312v-1328c48.667 -41.333 84.834 -84.166 108.501 -128.499s34.167 -85.166 31.5 -122.499s-14 -71.333 -34 -102s-49.5 -55 -88.5 -73s-82.833 -27.333 -131.5 -28l-23 69c74 8.66699 128.333 30.667 163 66s45.334 79.5 32.001 132.5
s-50.333 108.5 -111 166.5h-37v1348h-491v86h1073v-86z" />
    <glyph glyph-name="uni0163" unicode="&#x163;" horiz-adv-x="694" 
d="M516 -6c50.667 -50 83.668 -101.166 99.001 -153.499s14.5 -98.166 -2.5 -137.499s-46.833 -71.833 -89.5 -97.5s-93.334 -38.834 -152.001 -39.501l-23 69c78 9.33301 134 33 168 71s41.833 85.333 23.5 142s-62.166 115.667 -131.499 177
c-53.333 25.333 -95.333 64 -126 116s-46 115 -46 189v579h-201v82h201v281h90v-281h292v-82h-292v-577c0 -80.667 22.167 -143.834 66.5 -189.501s101.166 -68.5 170.499 -68.5c20.667 0 40 2 58 6l6 -78c-22 -6.66699 -45.333 -10 -70 -10c-19.333 0 -33 0.666992 -41 2z
" />
    <glyph glyph-name="Tcaron" unicode="&#x164;" horiz-adv-x="1208" 
d="M549 1559l-180 274h82l149 -209l150 209h81l-178 -274h-104zM1141 1434v-86h-492v-1348h-90v1348h-491v86h1073z" />
    <glyph glyph-name="tcaron" unicode="&#x165;" horiz-adv-x="694" 
d="M659 1528l-67 -412h-74l45 412h96zM563 74c20.667 0 40 2.00098 58 6.00098l6 -78c-22 -6.66699 -45.333 -10 -70 -10c-95.333 0 -172.666 30 -231.999 90s-89 142.667 -89 248v579h-201v82h201v281h90v-281h292v-82h-292v-577c0 -80.667 22.167 -143.834 66.5 -189.501
s101.166 -68.5 170.499 -68.5z" />
    <glyph glyph-name="Tbar" unicode="&#x166;" horiz-adv-x="1208" 
d="M1141 1348h-492v-596h244v-70h-244v-682h-90v682h-252v70h252v596h-491v86h1073v-86z" />
    <glyph glyph-name="tbar" unicode="&#x167;" horiz-adv-x="694" 
d="M621 80l6 -77.999c-22 -6.66699 -45.333 -10 -70 -10c-95.333 0 -172.666 30 -231.999 90s-89 142.667 -89 248v133h-201v67h201v379h-201v82h201v281h90v-281h292v-82h-292v-379h288v-67h-288v-131c0 -80.667 22.167 -143.834 66.5 -189.501
s101.166 -68.5 170.499 -68.5c20.667 0 40 2 58 6z" />
    <glyph glyph-name="Utilde" unicode="&#x168;" horiz-adv-x="1441" 
d="M406 1593c2.66699 56.667 19.8311 102.67 51.498 138.003s70.834 53 117.501 53c24.667 0 51.167 -6.33301 79.5 -19s53 -26.834 74 -42.501s43.667 -29.834 68 -42.501s45.5 -19 63.5 -19c30 0 54.5 11.333 73.5 34s28.167 51.667 27.5 87l75 -10
c-2.66699 -56.667 -20.167 -102.667 -52.5 -138s-71.5 -53 -117.5 -53c-32.667 0 -66.667 10.5 -102 31.5l-100.5 62.5c-31.667 20.667 -59.5 31 -83.5 31c-30 0 -54.167 -11.333 -72.5 -34s-27.166 -52.334 -26.499 -89.001zM720.997 -19.9971
c-154.667 0 -282.832 52 -384.499 156s-152.5 234.667 -152.5 392v906h90v-906c0 -132.667 42.167 -242.5 126.5 -329.5s191.166 -130.5 320.499 -130.5c128 0 234 43.5 318 130.5s126 196.833 126 329.5v906h92v-906c0 -157.333 -50.667 -288 -152 -392
s-229.333 -156 -384 -156z" />
    <glyph glyph-name="utilde" unicode="&#x169;" horiz-adv-x="1202" 
d="M467 1264c-28.667 0 -52.333 -11.3311 -71 -33.998s-27.667 -52.334 -27 -89.001l-76 10c2.66699 56.667 20 102.5 52 137.5s71.333 52.5 118 52.5c25.333 0 52.166 -6.33301 80.499 -19s53 -26.667 74 -42s43.667 -29.333 68 -42s45.833 -19 64.5 -19
c28.667 0 52.334 11.167 71.001 33.5s27.667 51.166 27 86.499l78 -10c-4 -56.667 -22 -102.5 -54 -137.5s-71.333 -52.5 -118 -52.5c-26 0 -53 6.5 -81 19.5s-52.167 27.333 -72.5 43s-42.833 30 -67.5 43s-46.667 19.5 -66 19.5zM952.001 991.002h88v-991h-88v172
c-34.667 -58 -86.834 -104.5 -156.501 -139.5s-144.5 -52.5 -224.5 -52.5c-122 0 -220.667 40.167 -296 120.5s-113 185.5 -113 315.5v575h90v-567c0 -107.333 30.667 -193.833 92 -259.5s141.333 -98.5 240 -98.5c77.333 0 149.333 18.167 216 54.5
s117.334 85.5 152.001 147.5v723z" />
    <glyph glyph-name="Umacron" unicode="&#x16a;" horiz-adv-x="1441" 
d="M393 1593v76h656v-76h-656zM721 -20c-154.667 0 -282.832 52 -384.499 156s-152.5 234.667 -152.5 392v906h90v-906c0 -132.667 42.167 -242.5 126.5 -329.5s191.166 -130.5 320.499 -130.5c128 0 234 43.5 318 130.5s126 196.833 126 329.5v906h92v-906
c0 -157.333 -50.667 -288 -152 -392s-229.333 -156 -384 -156z" />
    <glyph glyph-name="umacron" unicode="&#x16b;" horiz-adv-x="1202" 
d="M938 1227v-76h-655v76h655zM952 991h88v-991h-88v172c-34.667 -58 -86.834 -104.5 -156.501 -139.5s-144.5 -52.5 -224.5 -52.5c-122 0 -220.667 40.167 -296 120.5s-113 185.5 -113 315.5v575h90v-567c0 -107.333 30.667 -193.833 92 -259.5s141.333 -98.5 240 -98.5
c77.333 0 149.333 18.167 216 54.5s117.334 85.5 152.001 147.5v723z" />
    <glyph glyph-name="Ubreve" unicode="&#x16c;" horiz-adv-x="1441" 
d="M1006 1853c-0.666992 -87.333 -27.999 -159 -81.999 -215s-121.667 -84 -203 -84c-80.667 0 -147.834 28 -201.501 84s-81.5 127.667 -83.5 215h76c0.666992 -67.333 21 -122.666 61 -165.999s89.333 -65 148 -65c60 0 110 21.667 150 65s60.333 98.666 61 165.999h74z
M721.001 -20c-154.667 0 -282.832 52 -384.499 156s-152.5 234.667 -152.5 392v906h90v-906c0 -132.667 42.167 -242.5 126.5 -329.5s191.166 -130.5 320.499 -130.5c128 0 234 43.5 318 130.5s126 196.833 126 329.5v906h92v-906c0 -157.333 -50.667 -288 -152 -392
s-229.333 -156 -384 -156z" />
    <glyph glyph-name="ubreve" unicode="&#x16d;" horiz-adv-x="1202" 
d="M610 1112c-81.333 0 -148.502 27.833 -201.502 83.5s-80.5 127.5 -82.5 215.5h73c2 -67.333 22.833 -122.666 62.5 -165.999s89.167 -65 148.5 -65s108.833 21.667 148.5 65s59.834 98.666 60.501 165.999h74c-0.666992 -88 -27.667 -159.833 -81 -215.5
s-120.666 -83.5 -201.999 -83.5zM951.998 991h88v-991h-88v172c-34.667 -58 -86.834 -104.5 -156.501 -139.5s-144.5 -52.5 -224.5 -52.5c-122 0 -220.667 40.167 -296 120.5s-113 185.5 -113 315.5v575h90v-567c0 -107.333 30.667 -193.833 92 -259.5
s141.333 -98.5 240 -98.5c77.333 0 149.333 18.167 216 54.5s117.334 85.5 152.001 147.5v723z" />
    <glyph glyph-name="Uring" unicode="&#x16e;" horiz-adv-x="1441" 
d="M721 1556c-64.667 0 -118 20.333 -160 61s-63 92.334 -63 155.001s21 114.167 63 154.5s95.333 60.5 160 60.5c65.333 0 119.166 -20.167 161.499 -60.5s63.5 -91.833 63.5 -154.5s-21.167 -114.334 -63.5 -155.001s-96.166 -61 -161.499 -61zM721 1620
c46 0 83.833 14.5 113.5 43.5s44.5 65.167 44.5 108.5s-14.833 79.333 -44.5 108s-67.5 43 -113.5 43c-44.667 0 -82.167 -14.333 -112.5 -43s-45.5 -64.667 -45.5 -108s15.167 -79.5 45.5 -108.5s67.833 -43.5 112.5 -43.5zM721 -20c-154.667 0 -282.832 52 -384.499 156
s-152.5 234.667 -152.5 392v906h90v-906c0 -132.667 42.167 -242.5 126.5 -329.5s191.166 -130.5 320.499 -130.5c128 0 234 43.5 318 130.5s126 196.833 126 329.5v906h92v-906c0 -157.333 -50.667 -288 -152 -392s-229.333 -156 -384 -156z" />
    <glyph glyph-name="uring" unicode="&#x16f;" horiz-adv-x="1202" 
d="M610 1114c-65.333 0 -119.166 20.167 -161.499 60.5s-63.5 91.833 -63.5 154.5s21.167 114.167 63.5 154.5s96.166 60.5 161.499 60.5c64.667 0 118.167 -20.167 160.5 -60.5s63.5 -91.833 63.5 -154.5s-21.167 -114.167 -63.5 -154.5s-95.833 -60.5 -160.5 -60.5z
M610 1481c-45.333 0 -82.833 -14.5 -112.5 -43.5s-44.5 -65.167 -44.5 -108.5s14.667 -79.333 44 -108s67 -43 113 -43c44.667 0 82.167 14.333 112.5 43s45.5 64.667 45.5 108s-15.167 79.5 -45.5 108.5s-67.833 43.5 -112.5 43.5zM952 991h88v-991h-88v172
c-34.667 -58 -86.834 -104.5 -156.501 -139.5s-144.5 -52.5 -224.5 -52.5c-122 0 -220.667 40.167 -296 120.5s-113 185.5 -113 315.5v575h90v-567c0 -107.333 30.667 -193.833 92 -259.5s141.333 -98.5 240 -98.5c77.333 0 149.333 18.167 216 54.5
s117.334 85.5 152.001 147.5v723z" />
    <glyph glyph-name="Uhungarumlaut" unicode="&#x170;" horiz-adv-x="1441" 
d="M616 1559l148 292h-94l-148 -292h94zM883 1559l145 292h-92l-145 -292h92zM721 -20c-154.667 0 -282.832 52 -384.499 156s-152.5 234.667 -152.5 392v906h90v-906c0 -132.667 42.167 -242.5 126.5 -329.5s191.166 -130.5 320.499 -130.5c128 0 234 43.5 318 130.5
s126 196.833 126 329.5v906h92v-906c0 -157.333 -50.667 -288 -152 -392s-229.333 -156 -384 -156z" />
    <glyph glyph-name="uhungarumlaut" unicode="&#x171;" horiz-adv-x="1202" 
d="M653 1409l-147 -293h-94l147 293h94zM918 1409l-146 -293h-94l145 293h95zM952 991h88v-991h-88v172c-34.667 -58 -86.834 -104.5 -156.501 -139.5s-144.5 -52.5 -224.5 -52.5c-122 0 -220.667 40.167 -296 120.5s-113 185.5 -113 315.5v575h90v-567
c0 -107.333 30.667 -193.833 92 -259.5s141.333 -98.5 240 -98.5c77.333 0 149.333 18.167 216 54.5s117.334 85.5 152.001 147.5v723z" />
    <glyph glyph-name="Uogonek" unicode="&#x172;" horiz-adv-x="1441" 
d="M1165 1434h92.001v-906c0 -128.667 -34.667 -240.5 -104 -335.5s-161.333 -159.167 -276 -192.5c-62 -22 -111 -52.833 -147 -92.5s-54 -83.834 -54 -132.501c0 -32.667 10.5 -59.334 31.5 -80.001s49.5 -31 85.5 -31c46 0 86 10.333 120 31l27 -64
c-50.667 -26 -104.667 -39 -162 -39c-55.333 0 -99.5 16 -132.5 48s-49.5 72.667 -49.5 122c0 82.667 40.333 155.334 121 218.001c-100.667 0.666992 -191.667 24.667 -273 72s-145 112.833 -191 196.5s-69 176.834 -69 279.501v906h90v-906
c0 -132.667 42.167 -242.5 126.5 -329.5s191.166 -130.5 320.499 -130.5c128 0 234 43.5 318 130.5s126 196.833 126 329.5v906z" />
    <glyph glyph-name="uogonek" unicode="&#x173;" horiz-adv-x="1202" 
d="M1077 -305l26.999 -63.999c-50.667 -26 -104.667 -39 -162 -39c-55.333 0 -99.5 16 -132.5 48s-49.5 72.667 -49.5 122c0 53.333 16.833 102.833 50.5 148.5s80.834 84.5 141.501 116.5v145c-34.667 -58 -86.834 -104.5 -156.501 -139.5s-144.5 -52.5 -224.5 -52.5
c-122 0 -220.667 40.167 -296 120.5s-113 185.5 -113 315.5v575h90v-567c0 -107.333 30.667 -193.833 92 -259.5s141.333 -98.5 240 -98.5c77.333 0 149.333 18.167 216 54.5s117.334 85.5 152.001 147.5v723h88v-991c-62 -21.333 -110.833 -52 -146.5 -92
s-53.5 -84.333 -53.5 -133c0 -32.667 10.333 -59.334 31 -80.001s49 -31 85 -31c46.667 0 87 10.333 121 31z" />
    <glyph glyph-name="Wcircumflex" unicode="&#x174;" horiz-adv-x="2084" 
d="M1042 1786l-149 -209h-82l180 274h105l178 -274h-82zM1946 1434h96l-481 -1434h-91l-423 1307l-429 -1307h-88l-487 1434h98l434 -1309l431 1309h88l422 -1309z" />
    <glyph glyph-name="wcircumflex" unicode="&#x175;" horiz-adv-x="1605" 
d="M803 1343l-150 -208h-82l181 274h104l178 -274h-82zM1468 991h95l-365 -991h-80l-315 883l-318 -883h-77l-365 991h94l312 -878l311 878h84l315 -878z" />
    <glyph glyph-name="Ycircumflex" unicode="&#x176;" horiz-adv-x="1216" 
d="M610 1786l-149 -209h-82l180 274h105l178 -274h-82zM1067 1434h107l-517 -775v-659h-92v659l-522 775h111l458 -684z" />
    <glyph glyph-name="ycircumflex" unicode="&#x177;" horiz-adv-x="1021" 
d="M524 1343l-149 -208h-82l180 274h105l178 -274h-82zM883 991h96l-584 -1388h-94l166 391l-424 997h96l371 -893z" />
    <glyph glyph-name="Ydieresis" unicode="&#x178;" horiz-adv-x="1216" 
d="M475 1749c20.667 0 39.167 -7.83301 55.5 -23.5s24.5 -33.167 24.5 -52.5c0 -22 -8.16699 -40.833 -24.5 -56.5s-34.833 -23.5 -55.5 -23.5c-21.333 0 -39.666 7.66699 -54.999 23s-23 34.333 -23 57c0 20 7.66699 37.667 23 53s33.666 23 54.999 23zM745 1749
c19.333 0 37.167 -7.83301 53.5 -23.5s24.5 -33.167 24.5 -52.5c0 -22 -8 -40.833 -24 -56.5s-34 -23.5 -54 -23.5c-22 0 -40.667 7.83301 -56 23.5s-23 34.5 -23 56.5c0 20 7.83301 37.667 23.5 53s34.167 23 55.5 23zM43.001 1434h111l458 -684l455 684h107l-517 -775
v-659h-92v659z" />
    <glyph glyph-name="Zacute" unicode="&#x179;" horiz-adv-x="1177" 
d="M815 1833l-192 -274h-88l161 274h119zM115 1434h981v-72l-920 -1276h928v-86h-1041v72l924 1276h-872v86z" />
    <glyph glyph-name="zacute" unicode="&#x17a;" horiz-adv-x="1019" 
d="M717 1391l-193 -275h-88l162 275h119zM924 991v-71l-736 -838l738 2v-84h-852v72l735 837h-688v82h803z" />
    <glyph glyph-name="Zdotaccent" unicode="&#x17b;" horiz-adv-x="1177" 
d="M600 1749c19.333 0 37.167 -7.83301 53.5 -23.5s24.5 -33.167 24.5 -52.5c0 -22 -8 -40.833 -24 -56.5s-34 -23.5 -54 -23.5c-22.667 0 -41.667 7.66699 -57 23s-23 34.333 -23 57c0 20 7.83301 37.667 23.5 53s34.5 23 56.5 23zM115.001 1434h981v-72l-920 -1276h928
v-86h-1041v72l924 1276h-872v86z" />
    <glyph glyph-name="zdotaccent" unicode="&#x17c;" horiz-adv-x="1019" 
d="M502 1401c20 0 38 -7.66797 54 -23.001s24 -33 24 -53c0 -22 -8 -40.5 -24 -55.5s-34 -22.5 -54 -22.5c-22.667 0 -41.667 7.33301 -57 22s-23 33.334 -23 56.001c0 20.667 7.83301 38.5 23.5 53.5s34.5 22.5 56.5 22.5zM924 990.999v-71l-736 -838l738 2v-84h-852v72
l735 837h-688v82h803z" />
    <glyph glyph-name="Zcaron" unicode="&#x17d;" horiz-adv-x="1177" 
d="M547 1559l-180 274h82l149 -209l150 209h81l-178 -274h-104zM176 86h928v-86h-1041v72l924 1276h-872v86h981v-72z" />
    <glyph glyph-name="zcaron" unicode="&#x17e;" horiz-adv-x="1019" 
d="M449 1116l-181 275h82l150 -209l149 209h82l-178 -275h-104zM188 82l738 2v-84h-852v72l735 837h-688v82h803v-71z" />
    <glyph glyph-name="longs" unicode="&#x17f;" horiz-adv-x="858" 
d="M336 0l-1.99902 909.001h-246v82h246v127c0 105.333 30 188 90 248s139.333 90 238 90c38 0 76.667 -5.83301 116 -17.5s73 -27.5 101 -47.5l-29 -78c-24.667 19.333 -53.834 34.666 -87.501 45.999s-67.167 17 -100.5 17c-70 0 -127.5 -23.333 -172.5 -70
s-67.5 -110.667 -67.5 -192v-205l2 -909h-88z" />
    <glyph glyph-name="uni0180" unicode="&#x180;" horiz-adv-x="1226" 
d="M623 1012c145.333 0 266.166 -49 362.499 -147s144.5 -220.333 144.5 -367c0 -148.667 -48.167 -272.167 -144.5 -370.5s-217.166 -147.5 -362.499 -147.5c-74.667 0 -147.5 18.333 -218.5 55s-121.833 81.667 -152.5 135v-170h-90v1237h-244v70h244v127h90v-127h252v-70
h-252v-416c30 53.333 80.333 98.5 151 135.5s144 55.5 220 55.5zM612 63c123.333 0 225.833 41.332 307.5 123.999s122.5 186.334 122.5 311.001c0 124 -40.833 227 -122.5 309s-184.167 123 -307.5 123c-72.667 0 -143 -19.5 -211 -58.5s-117.667 -88.5 -149 -148.5v-455
c33.333 -59.333 83.833 -108.333 151.5 -147s137.167 -58 208.5 -58z" />
    <glyph glyph-name="florin" unicode="&#x192;" horiz-adv-x="718" 
d="M379 1120v-129h295v-82h-295v-989c0 -105.333 -29.833 -188 -89.5 -248s-137.167 -90 -232.5 -90c-24 0 -47 3.33301 -69 10l6 78c18 -4 37 -6 57 -6c70 0 127.5 22.833 172.5 68.5s67.5 108.834 67.5 189.501v987h-203v82h203v131c0 105.333 29.667 188 89 248
s136 90 230 90c22.667 0 46.667 -3.33301 72 -10l-8 -78c-16 4 -34.667 6 -56 6c-70 0 -127.333 -22.833 -172 -68.5s-67 -108.834 -67 -189.501z" />
    <glyph glyph-name="uni01EA" unicode="&#x1ea;" horiz-adv-x="1665" 
d="M973 -6c-56.667 -22.667 -101.167 -53.168 -133.5 -91.501s-48.5 -80.833 -48.5 -127.5c0 -32.667 10.333 -59.334 31 -80.001s49 -31 85 -31c46.667 0 87 10.333 121 31l27 -64c-50.667 -26 -104.667 -39 -162 -39c-55.333 0 -99.5 16 -132.5 48s-49.5 72.667 -49.5 122
c0 83.333 40 156 120 218c-98.667 0 -192.167 19.333 -280.5 58s-164.333 90.834 -228 156.501s-114.167 144.5 -151.5 236.5s-56 189.333 -56 292c0 100.667 18.667 196.167 56 286.5s87.833 168 151.5 233s139.667 116.5 228 154.5s181.833 57 280.5 57
c99.333 0 193.333 -19 282 -57s165 -89.5 229 -154.5s114.667 -142.667 152 -233s56 -185.833 56 -286.5c0 -182 -54.167 -340.667 -162.5 -476s-246.5 -219.666 -414.5 -252.999zM207 722.999c0 -121.333 27.501 -232.332 82.501 -332.999s130.333 -179.834 226 -237.501
s200.834 -86.5 315.501 -86.5c115.333 0 221 28.833 317 86.5s171.667 136.834 227 237.501s83 211.667 83 333c0 89.333 -16.333 173.833 -49 253.5s-76.834 148.167 -132.501 205.5s-122.167 102.666 -199.5 135.999s-159.333 50 -246 50
c-114.667 0 -219.834 -28.333 -315.501 -85s-171 -134.5 -226 -233.5s-82.5 -207.833 -82.5 -326.5z" />
    <glyph glyph-name="uni01EB" unicode="&#x1eb;" horiz-adv-x="1212" 
d="M735 -4c-58 -22.667 -103.831 -53.499 -137.498 -92.499s-50.5 -81.833 -50.5 -128.5c0 -32.667 10.5 -59.334 31.5 -80.001s49.5 -31 85.5 -31c46 0 86 10.333 120 31l27 -64c-50.667 -26 -104.667 -39 -162 -39c-55.333 0 -99.5 16 -132.5 48s-49.5 72.667 -49.5 122
c0 82.667 40.333 155.334 121 218.001c-138.667 5.33301 -255.334 57.166 -350.001 155.499s-142 218.5 -142 360.5c0 95.333 22.5 182.5 67.5 261.5s106.5 141.167 184.5 186.5s164 68 258 68s180.167 -22.667 258.5 -68s140.166 -107.5 185.499 -186.5
s68 -166.167 68 -261.5c0 -121.333 -35.833 -228 -107.5 -320s-163.5 -152 -275.5 -180zM184.002 496.001c0 -121.333 40.667 -223.833 122 -307.5s181.333 -125.5 300 -125.5c118 0 218.167 42 300.5 126s123.5 186.333 123.5 307c0 122 -41.167 224.833 -123.5 308.5
s-182.5 125.5 -300.5 125.5c-118.667 0 -218.667 -41.833 -300 -125.5s-122 -186.5 -122 -308.5z" />
    <glyph glyph-name="Aringacute" unicode="&#x1fa;" horiz-adv-x="1312" 
d="M657 1556c-64.667 0 -118 20.333 -160 61s-63 92.334 -63 155.001c0 51.333 15.333 96 46 134s70.667 62.667 120 74l156 265h118l-182 -260c56.667 -7.33301 102.667 -30.5 138 -69.5s53 -86.833 53 -143.5c0 -62.667 -21.333 -114.334 -64 -155.001
s-96.667 -61 -162 -61zM657 1923c-44.667 0 -82 -14.333 -112 -43s-45 -64.667 -45 -108s15 -79.5 45 -108.5s67.333 -43.5 112 -43.5c46 0 83.833 14.5 113.5 43.5s44.5 65.167 44.5 108.5s-14.833 79.333 -44.5 108s-67.5 43 -113.5 43zM1180 0l-158 397h-733l-160 -397
h-96l575 1434h94l578 -1434h-100zM324 483h663l-332 830z" />
    <glyph glyph-name="aringacute" unicode="&#x1fb;" horiz-adv-x="1226" 
d="M633 1114c-65.333 0 -119.167 20.166 -161.5 60.499s-63.5 91.833 -63.5 154.5c0 52.667 15.167 97.834 45.5 135.501s70.833 62.167 121.5 73.5l156 266h119l-184 -262c56.667 -7.33301 102.5 -30.333 137.5 -69s52.5 -86.667 52.5 -144
c0 -62.667 -21 -114.167 -63 -154.5s-95.333 -60.5 -160 -60.5zM632.999 1481c-46 0 -83.833 -14.5 -113.5 -43.5s-44.5 -65.167 -44.5 -108.5s14.833 -79.333 44.5 -108s67.5 -43 113.5 -43c44.667 0 82.167 14.333 112.5 43s45.5 64.667 45.5 108
s-15.167 79.5 -45.5 108.5s-67.833 43.5 -112.5 43.5zM974.999 990.999h90v-991h-90v170c-30.667 -53.333 -81.5 -98.333 -152.5 -135s-143.833 -55 -218.5 -55c-145.333 0 -266.333 49.167 -363 147.5s-145 221.833 -145 370.5c0 146.667 48.333 269 145 367
s217.667 147 363 147c76 0 149.333 -18.5 220 -55.5s121 -82.167 151 -135.5v170zM613.999 62.999c71.333 0 141.166 19.334 209.499 58.001s118.833 87.667 151.5 147v455c-31.333 60 -81.166 109.5 -149.499 148.5s-138.833 58.5 -211.5 58.5
c-123.333 0 -225.833 -41 -307.5 -123s-122.5 -185 -122.5 -309c0 -124.667 40.833 -228.334 122.5 -311.001s184.167 -124 307.5 -124z" />
    <glyph glyph-name="AEacute" unicode="&#x1fc;" horiz-adv-x="1871" 
d="M1550 1833l-192 -274h-88l162 274h118zM1743 1348h-676v-527h602v-86h-602v-649h676v-86h-768v410h-580l-258 -410h-104l909 1434h801v-86zM446 492h529v837z" />
    <glyph glyph-name="aeacute" unicode="&#x1fd;" horiz-adv-x="2041" 
d="M1237 1391l-193 -275h-88l162 275h119zM1946 508l-879 0.000976562v-4c0 -128.667 39.5 -234.667 118.5 -318s176.833 -125 293.5 -125c84 0 158.667 17 224 51s114.666 81.333 147.999 142l70 -45c-38 -70.667 -96.167 -126.5 -174.5 -167.5s-167.5 -61.5 -267.5 -61.5
c-85.333 0 -164.333 19.833 -237 59.5s-131.667 94.167 -177 163.5v-203h-90v170c-30.667 -53.333 -81.5 -98.333 -152.5 -135s-143.833 -55 -218.5 -55c-145.333 0 -266.333 49.167 -363 147.5s-145 221.833 -145 370.5c0 146.667 48.333 269 145 367s217.667 147 363 147
c76 0 149.333 -18.5 220 -55.5s121 -82.167 151 -135.5v170h90v-200c46 68 105.167 121.833 177.5 161.5s150.5 59.5 234.5 59.5c132.667 0 244.334 -45.333 335.001 -136s136 -202.334 136 -335.001c0 -15.333 -0.666992 -26.333 -2 -33zM1475 936.001
c-102.667 0 -191.166 -33.167 -265.499 -99.5s-119.833 -151.166 -136.5 -254.499h782c-4.66699 101.333 -43.334 185.666 -116.001 252.999s-160.667 101 -264 101zM614.001 63.001c71.333 0 141.166 19.334 209.499 58.001s118.833 87.667 151.5 147v455
c-31.333 60 -81.166 109.5 -149.499 148.5s-138.833 58.5 -211.5 58.5c-123.333 0 -225.833 -41 -307.5 -123s-122.5 -185 -122.5 -309c0 -124.667 40.833 -228.334 122.5 -311.001s184.167 -124 307.5 -124z" />
    <glyph glyph-name="uni0218" unicode="&#x218;" horiz-adv-x="1140" 
d="M559 1454c87.333 0 170.001 -15.835 248.001 -47.502s136.667 -72.5 176 -122.5l-59 -67c-35.333 46 -86.166 82.667 -152.499 110s-138.5 41 -216.5 41c-100.667 0 -183.834 -25.667 -249.501 -77s-98.5 -116.333 -98.5 -195c0 -47.333 9.5 -88.833 28.5 -124.5
s44.667 -64.667 77 -87s69.5 -41.666 111.5 -57.999s86.167 -31 132.5 -44l138.5 -39.5c46 -13.333 90 -29.5 132 -48.5s79.167 -41.5 111.5 -67.5s58 -59.833 77 -101.5s28.5 -89.834 28.5 -144.501c0 -114.667 -44.167 -210.167 -132.5 -286.5
s-201.833 -114.5 -340.5 -114.5c-182.667 0 -350.334 61.333 -503.001 184l55 72c138.667 -113.333 288 -170 448 -170c110.667 0 201.5 29.5 272.5 88.5s106.5 134.5 106.5 226.5c0 45.333 -9.5 84.833 -28.5 118.5s-44.667 60.834 -77 81.501s-69.333 38.834 -111 54.501
s-85.667 29.667 -132 42l-138.5 38.5c-46 13.333 -89.833 30 -131.5 50s-78.667 43.5 -111 70.5s-58 62.167 -77 105.5s-28.5 93.333 -28.5 150c0 105.333 42 192 126 260s190 102 318 102zM659.001 -158.002l-194 -276h-86l162 276h118z" />
    <glyph glyph-name="uni0219" unicode="&#x219;" horiz-adv-x="909" 
d="M453 -20c-69.333 0 -138.168 13.1689 -206.501 39.502s-125.166 61.5 -170.499 105.5l49 65c38.667 -40 88.167 -72.167 148.5 -96.5s120.166 -36.5 179.499 -36.5c81.333 0 147 18.833 197 56.5s75 85.167 75 142.5c0 42 -11.5 77 -34.5 105s-53 49 -90 63
s-77.667 26 -122 36s-88.833 20.667 -133.5 32s-85.5 25.666 -122.5 42.999s-67 43.166 -90 77.499s-34.5 76.5 -34.5 126.5c0 82.667 31.5 148.834 94.5 198.501s146.833 74.5 251.5 74.5c66 0 129.167 -12.167 189.5 -36.5s107.833 -57.166 142.5 -98.499l-55 -64
c-28 37.333 -68.333 67.166 -121 89.499s-106.667 33.5 -162 33.5c-75.333 0 -135.833 -17.667 -181.5 -53s-68.5 -82 -68.5 -140c0 -30 7.16699 -56.167 21.5 -78.5s33.5 -40 57.5 -53s51.833 -24.167 83.5 -33.5s64.834 -17.833 99.501 -25.5
s69.167 -15.834 103.5 -24.501s67.333 -20 99 -34s59.5 -30.667 83.5 -50s43.167 -45 57.5 -77s21.5 -69 21.5 -111c0 -80 -33.5 -146 -100.5 -198s-154.167 -78 -261.5 -78zM527.998 -157.998l-194 -276h-86l162 276h118z" />
    <glyph glyph-name="uni021A" unicode="&#x21a;" horiz-adv-x="1208" 
d="M1141 1434v-86h-492v-1348h-90v1348h-491v86h1073zM428 -434l162 276h119l-195 -276h-86z" />
    <glyph glyph-name="uni021B" unicode="&#x21b;" horiz-adv-x="694" 
d="M621 80l6 -77.999c-22 -6.66699 -45.333 -10 -70 -10c-95.333 0 -172.666 30 -231.999 90s-89 142.667 -89 248v579h-201v82h201v281h90v-281h292v-82h-292v-577c0 -80.667 22.167 -143.834 66.5 -189.501s101.166 -68.5 170.499 -68.5c20.667 0 40 2 58 6zM274 -433.999
l162 276h119l-195 -276h-86z" />
    <glyph glyph-name="uni0237" unicode="&#x237;" horiz-adv-x="413" 
d="M-6 -336c2.66699 -0.666992 5.83301 -1.33398 9.5 -2.00098s6.5 -1.16699 8.5 -1.5s4 -0.5 6 -0.5c96 0 144 80 144 240v1091h90v-1097c0 -107.333 -18.5 -187.166 -55.5 -239.499s-93.5 -78.5 -169.5 -78.5c-18 0 -31 1.33301 -39 4z" />
    <glyph glyph-name="uni0243" unicode="&#x243;" horiz-adv-x="1212" 
d="M791 758c95.333 -7.33301 176.168 -46.334 242.501 -117.001s99.5 -154.667 99.5 -252c0 -108.667 -39.167 -200.667 -117.5 -276s-174.5 -113 -288.5 -113h-543v348h-247v70h247v1016h480c108.667 0 201 -34.167 277 -102.5s114 -151.166 114 -248.499
c0 -82 -25.333 -154.167 -76 -216.5s-113.334 -98.5 -188.001 -108.5zM274.002 1348v-562.001h390c83.333 0 154 28 212 84s87 124.333 87 205c0 76.667 -29.167 141.334 -87.5 194.001s-128.833 79 -211.5 79h-390zM723.002 85.998c91.333 0 167 29.833 227 89.5
s90 133.5 90 221.5c0 86.667 -30.5 160 -91.5 220s-135.5 90 -223.5 90h-451v-289h248v-70h-248v-262h449z" />
    <glyph glyph-name="circumflex" unicode="&#x2c6;" horiz-adv-x="667" 
d="M565 1135h-82l-149 208l-150 -208h-82l181 274h104z" />
    <glyph glyph-name="caron" unicode="&#x2c7;" horiz-adv-x="667" 
d="M483 1391h82l-178 -275h-104l-181 275h82l150 -209z" />
    <glyph glyph-name="breve" unicode="&#x2d8;" horiz-adv-x="772" 
d="M670 1411c-0.666992 -88 -27.6699 -159.833 -81.0029 -215.5s-120.666 -83.5 -201.999 -83.5s-148.666 27.833 -201.999 83.5s-81 127.5 -83 215.5h74c2 -67.333 22.833 -122.666 62.5 -165.999s89.167 -65 148.5 -65s108.833 21.667 148.5 65
s59.834 98.666 60.501 165.999h74z" />
    <glyph glyph-name="dotaccent" unicode="&#x2d9;" horiz-adv-x="362" 
d="M182 1401c20 0 38 -7.66797 54 -23.001s24 -33 24 -53c0 -22 -8 -40.5 -24 -55.5s-34 -22.5 -54 -22.5c-22.667 0 -41.667 7.33301 -57 22s-23 33.334 -23 56.001c0 20.667 7.83301 38.5 23.5 53.5s34.5 22.5 56.5 22.5z" />
    <glyph glyph-name="ring" unicode="&#x2da;" horiz-adv-x="653" 
d="M328 1114c-65.333 0 -119.333 20.167 -162 60.5s-64 91.833 -64 154.5s21.333 114.167 64 154.5s96.667 60.5 162 60.5c64.667 0 118 -20.167 160 -60.5s63 -91.833 63 -154.5s-21 -114.167 -63 -154.5s-95.333 -60.5 -160 -60.5zM328 1178c44.667 0 82 14.333 112 43
s45 64.667 45 108s-15 79.5 -45 108.5s-67.333 43.5 -112 43.5c-46 0 -83.833 -14.5 -113.5 -43.5s-44.5 -65.167 -44.5 -108.5s14.833 -79.333 44.5 -108s67.5 -43 113.5 -43z" />
    <glyph glyph-name="ogonek" unicode="&#x2db;" horiz-adv-x="548" 
d="M383 66v-65.998c-62 -22 -111 -52.833 -147 -92.5s-54 -83.834 -54 -132.501c0 -32.667 10.5 -59.334 31.5 -80.001s49.5 -31 85.5 -31c44.667 0 85 10.333 121 31l26 -64c-50.667 -26 -104.334 -39 -161.001 -39c-55.333 0 -99.666 16 -132.999 48s-50 72.667 -50 122
c0 65.333 25.333 124.5 76 177.5s119 95.167 205 126.5z" />
    <glyph glyph-name="tilde" unicode="&#x2dc;" horiz-adv-x="837" 
d="M102 1151c2.66699 56.667 20 102.502 52 137.502s71.333 52.5 118 52.5c25.333 0 52.333 -6.33301 81 -19s53.5 -26.667 74.5 -42s43.667 -29.333 68 -42s45.5 -19 63.5 -19c28.667 0 52.334 11.167 71.001 33.5s27.667 51.166 27 86.499l78 -10
c-4 -56.667 -22 -102.5 -54 -137.5s-71.333 -52.5 -118 -52.5c-26 0 -53 6.5 -81 19.5s-52 27.333 -72 43s-42.333 30 -67 43s-47 19.5 -67 19.5c-28.667 0 -52.334 -11.333 -71.001 -34s-27.667 -52.334 -27 -89.001z" />
    <glyph glyph-name="hungarumlaut" unicode="&#x2dd;" horiz-adv-x="710" 
d="M344 1409l-147 -293h-95l148 293h94zM608 1409l-145 -293h-94l145 293h94z" />
    <glyph glyph-name="gravecomb" unicode="&#x300;" horiz-adv-x="0" 
d="M-950 1391h119l161 -275h-86z" />
    <glyph glyph-name="acutecomb" unicode="&#x301;" horiz-adv-x="0" 
d="M-410 1391l-192 -275h-88l162 275h118z" />
    <glyph glyph-name="uni0302" unicode="&#x302;" horiz-adv-x="0" 
d="M-109 1135h-81l-150 208l-149 -208h-82l180 274h104z" />
    <glyph glyph-name="tildecomb" unicode="&#x303;" horiz-adv-x="0" 
d="M-907 1151c2.66699 56.667 20 102.501 52 137.501s71.333 52.5 118 52.5c31.333 0 64.833 -10.167 100.5 -30.5s69.667 -40.666 102 -60.999s59.5 -30.5 81.5 -30.5c30 0 54.5 11.167 73.5 33.5s28.167 51.166 27.5 86.499l76 -10
c-2.66699 -56.667 -20.167 -102.5 -52.5 -137.5s-71.5 -52.5 -117.5 -52.5c-26 0 -53 6.5 -81 19.5s-52.167 27.333 -72.5 43s-42.833 30 -67.5 43s-46.667 19.5 -66 19.5c-30 0 -54 -11.333 -72 -34s-26.667 -52.334 -26 -89.001z" />
    <glyph glyph-name="uni0304" unicode="&#x304;" horiz-adv-x="0" 
d="M-979 1151v76h655v-76h-655z" />
    <glyph glyph-name="uni0306" unicode="&#x306;" horiz-adv-x="0" 
d="M-338 1411c-0.666992 -87.333 -28.002 -159 -82.002 -215s-121.667 -84 -203 -84c-80.667 0 -147.667 28 -201 84s-81 127.667 -83 215h76c0.666992 -67.333 20.834 -122.666 60.501 -165.999s88.834 -65 147.501 -65c60 0 110 21.667 150 65s60.333 98.666 61 165.999
h74z" />
    <glyph glyph-name="uni0307" unicode="&#x307;" horiz-adv-x="0" 
d="M-571 1401c20 0 37.833 -7.66797 53.5 -23.001s23.5 -33 23.5 -53c0 -22 -7.83301 -40.5 -23.5 -55.5s-33.5 -22.5 -53.5 -22.5c-22.667 0 -41.667 7.33301 -57 22s-23 33.334 -23 56.001c0 20.667 7.83301 38.5 23.5 53.5s34.5 22.5 56.5 22.5z" />
    <glyph glyph-name="uni0308" unicode="&#x308;" horiz-adv-x="0" 
d="M-729 1401c20.667 0 39.168 -7.66699 55.501 -23s24.5 -33 24.5 -53c0 -22 -8 -40.5 -24 -55.5s-34.667 -22.5 -56 -22.5c-22 0 -40.5 7.5 -55.5 22.5s-22.5 33.5 -22.5 55.5c0 20.667 7.66699 38.5 23 53.5s33.666 22.5 54.999 22.5zM-458.999 1401
c20 0 38 -7.66699 54 -23s24 -33 24 -53c0 -22 -8 -40.5 -24 -55.5s-34 -22.5 -54 -22.5c-22 0 -40.833 7.5 -56.5 22.5s-23.5 33.5 -23.5 55.5c0 20.667 8 38.5 24 53.5s34.667 22.5 56 22.5z" />
    <glyph glyph-name="uni030A" unicode="&#x30a;" horiz-adv-x="0" 
d="M-590 1114c-64.667 0 -118 20.167 -160 60.5s-63 91.833 -63 154.5s21 114.167 63 154.5s95.333 60.5 160 60.5c65.333 0 119.166 -20.167 161.499 -60.5s63.5 -91.833 63.5 -154.5s-21.167 -114.167 -63.5 -154.5s-96.166 -60.5 -161.499 -60.5zM-590 1178
c46 0 83.833 14.333 113.5 43s44.5 64.667 44.5 108s-14.833 79.5 -44.5 108.5s-67.5 43.5 -113.5 43.5c-44.667 0 -82.167 -14.5 -112.5 -43.5s-45.5 -65.167 -45.5 -108.5s15.167 -79.333 45.5 -108s67.833 -43 112.5 -43z" />
    <glyph glyph-name="uni030B" unicode="&#x30b;" horiz-adv-x="0" 
d="M-586 1409l-147 -293h-94l147 293h94zM-322 1409l-145 -293h-92l145 293h92z" />
    <glyph glyph-name="uni030C" unicode="&#x30c;" horiz-adv-x="0" 
d="M-401 1391h82l-179 -275h-104l-180 275h82l149 -209z" />
    <glyph glyph-name="uni0312" unicode="&#x312;" horiz-adv-x="0" 
d="M-293 1118l193 277h88l-164 -277h-117z" />
    <glyph glyph-name="uni0326" unicode="&#x326;" horiz-adv-x="0" 
d="M-117 -158l-194 -276h-86l161 276h119z" />
    <glyph glyph-name="uni0327" unicode="&#x327;" horiz-adv-x="0" 
d="M-264 25l76.001 -0.000976562c50 -41.333 87.167 -84.5 111.5 -129.5s35.333 -86.5 33 -124.5s-13.666 -72.5 -33.999 -103.5s-50 -55.5 -89 -73.5s-83.167 -27.333 -132.5 -28l-23 69c58 7.33301 104 23 138 47s54.167 53.333 60.5 88s-2.33398 74.334 -26.001 119.001
s-61.834 90 -114.501 136z" />
    <glyph glyph-name="uni0328" unicode="&#x328;" horiz-adv-x="0" 
d="M-508 66v-65.998c-62 -22 -111 -52.833 -147 -92.5s-54 -83.834 -54 -132.501c0 -32.667 10.5 -59.334 31.5 -80.001s49.5 -31 85.5 -31c46.667 0 87 10.333 121 31l27 -64c-50.667 -26 -104.667 -39 -162 -39c-55.333 0 -99.5 16 -132.5 48s-49.5 72.667 -49.5 122
c0 65.333 25.167 124.5 75.5 177.5s118.5 95.167 204.5 126.5z" />
    <glyph glyph-name="uni0394" unicode="&#x394;" horiz-adv-x="1236" 
d="M33 0v86l540 1350h93l538 -1350v-86h-1171zM129 86h979l-490 1235z" />
    <glyph glyph-name="uni03A9" unicode="&#x3a9;" horiz-adv-x="1593" 
d="M172 0l-0.00195312 86h336c-273.333 155.333 -410 375 -410 659c0 102.667 18 198.167 54 286.5s85.167 163.333 147.5 225s136.5 110 222.5 145s177.667 52.5 275 52.5c98 0 189.833 -17.5 275.5 -52.5s159.334 -83.333 221.001 -145s110.334 -136.667 146.001 -225
s53.5 -183.833 53.5 -286.5c0 -284 -135.333 -503.667 -406 -659h334v-86h-458v86c292 161.333 438 380.333 438 657c0 91.333 -15.333 176.166 -46 254.499s-72.834 144.5 -126.501 198.5s-117.667 96.167 -192 126.5s-154.166 45.5 -239.499 45.5
s-165.166 -15.167 -239.499 -45.5s-138.333 -72.5 -192 -126.5s-95.834 -120.167 -126.501 -198.5s-46 -163.166 -46 -254.499c0 -274.667 146.667 -493.667 440 -657v-86h-461z" />
    <glyph glyph-name="uni03BC" unicode="&#x3bc;" horiz-adv-x="1202" 
d="M952 991l88.002 -0.000976562v-991h-88v172c-34.667 -58 -86.834 -104.5 -156.501 -139.5s-144.5 -52.5 -224.5 -52.5c-66.667 0 -127.334 12.833 -182.001 38.5s-100.334 61.834 -137.001 108.501v-524h-90v1388h90v-567c0 -107.333 30.667 -193.833 92 -259.5
s141.333 -98.5 240 -98.5c77.333 0 149.333 18.167 216 54.5s117.334 85.5 152.001 147.5v723z" />
    <glyph glyph-name="pi" unicode="&#x3c0;" horiz-adv-x="1384" 
d="M1307 78l8 -77.999c-25.333 -6.66699 -49.333 -10 -72 -10c-94 0 -170.667 30 -230 90s-89 142.667 -89 248v581h-449v-909h-88v909h-291v82h1209v-82h-293v-579c0 -80.667 22.333 -143.834 67 -189.501s102 -68.5 172 -68.5c21.333 0 40 2 56 6z" />
    <glyph glyph-name="uni0E3F" unicode="&#xe3f;" horiz-adv-x="1140" 
d="M698 758c95.333 -7.33301 175.832 -46.334 241.499 -117.001s98.5 -154.667 98.5 -252c0 -108.667 -38.833 -200.667 -116.5 -276s-173.167 -113 -286.5 -113h-98v-246h-86v246h-361v1434h361v245h86v-245h34c108.667 0 200.834 -34.167 276.501 -102.5
s113.5 -151.166 113.5 -248.499c0 -82 -25.333 -154.167 -76 -216.5s-113 -98.5 -187 -108.5zM179.999 1348v-562.001h389c84 0 155.167 28 213.5 84s87.5 124.333 87.5 205c0 76.667 -29.333 141.334 -88 194.001s-129.667 79 -213 79h-389zM630.999 85.998
c90 0 165.001 30 225.001 90s90 133.667 90 221s-30.333 160.833 -91 220.5s-135.334 89.5 -224.001 89.5h-451v-621h451z" />
    <glyph glyph-name="Wgrave" unicode="&#x1e80;" horiz-adv-x="2084" 
d="M813 1833h119l162 -274h-86zM1946 1434h96l-481 -1434h-91l-423 1307l-429 -1307h-88l-487 1434h98l434 -1309l431 1309h88l422 -1309z" />
    <glyph glyph-name="wgrave" unicode="&#x1e81;" horiz-adv-x="1605" 
d="M573 1391h119l162 -275h-86zM408 0l-365 991h94l312 -878l311 878h84l315 -878l309 878h95l-365 -991h-80l-315 883l-318 -883h-77z" />
    <glyph glyph-name="Wacute" unicode="&#x1e82;" horiz-adv-x="2084" 
d="M1262 1833l-193 -274h-88l162 274h119zM1946 1434h96l-481 -1434h-91l-423 1307l-429 -1307h-88l-487 1434h98l434 -1309l431 1309h88l422 -1309z" />
    <glyph glyph-name="wacute" unicode="&#x1e83;" horiz-adv-x="1605" 
d="M1022 1391l-193 -275h-88l162 275h119zM408 0l-365 991h94l312 -878l311 878h84l315 -878l309 878h95l-365 -991h-80l-315 883l-318 -883h-77z" />
    <glyph glyph-name="Wdieresis" unicode="&#x1e84;" horiz-adv-x="2084" 
d="M909 1749c20.667 0 39.167 -7.83301 55.5 -23.5s24.5 -33.167 24.5 -52.5c0 -22 -8.16699 -40.833 -24.5 -56.5s-34.833 -23.5 -55.5 -23.5c-21.333 0 -39.666 7.66699 -54.999 23s-23 34.333 -23 57c0 20 7.66699 37.667 23 53s33.666 23 54.999 23zM1180 1749
c19.333 0 37 -7.83301 53 -23.5s24 -33.167 24 -52.5c0 -22 -7.83301 -40.833 -23.5 -56.5s-33.5 -23.5 -53.5 -23.5c-22 0 -40.833 7.83301 -56.5 23.5s-23.5 34.5 -23.5 56.5c0 20 8 37.667 24 53s34.667 23 56 23zM1946 1434h96l-481 -1434h-91l-423 1307l-429 -1307h-88
l-487 1434h98l434 -1309l431 1309h88l422 -1309z" />
    <glyph glyph-name="wdieresis" unicode="&#x1e85;" horiz-adv-x="1605" 
d="M670 1401c20.667 0 39.168 -7.66699 55.501 -23s24.5 -33 24.5 -53c0 -22 -8 -40.5 -24 -55.5s-34.667 -22.5 -56 -22.5c-22 0 -40.5 7.5 -55.5 22.5s-22.5 33.5 -22.5 55.5c0 20.667 7.66699 38.5 23 53.5s33.666 22.5 54.999 22.5zM940.001 1401
c20 0 38 -7.66699 54 -23s24 -33 24 -53c0 -22 -8 -40.5 -24 -55.5s-34 -22.5 -54 -22.5c-22 0 -40.833 7.5 -56.5 22.5s-23.5 33.5 -23.5 55.5c0 20.667 8 38.5 24 53.5s34.667 22.5 56 22.5zM408.001 0l-365 991h94l312 -878l311 878h84l315 -878l309 878h95l-365 -991
h-80l-315 883l-318 -883h-77z" />
    <glyph glyph-name="Germandbls" unicode="&#x1e9e;" horiz-adv-x="1212" 
d="M623 1454c109.333 0 205.501 -32.332 288.501 -96.999s132.833 -145.667 149.5 -243l-377 -348c4.66699 0 11.667 0.333008 21 1s16 1 20 1c126 0 225.5 -33.667 298.5 -101s109.5 -158 109.5 -272c0 -108 -39 -200.833 -117 -278.5s-171 -116.5 -279 -116.5h-307v86h305
c84.667 0 156.667 29.833 216 89.5s89 131.5 89 215.5c0 95.333 -28 170.666 -84 225.999s-133 83 -231 83h-137l-13 68l386 358c-18 68.667 -58.333 126.5 -121 173.5s-134.334 70.5 -215.001 70.5c-101.333 0 -184.833 -33.5 -250.5 -100.5s-98.5 -150.833 -98.5 -251.5
v-1018h-92v1018c0 127.333 41 231.833 123 313.5s187.333 122.5 316 122.5z" />
    <glyph glyph-name="Ygrave" unicode="&#x1ef2;" horiz-adv-x="1216" 
d="M381 1833h119l162 -274h-87zM43 1434h111l458 -684l455 684h107l-517 -775v-659h-92v659z" />
    <glyph glyph-name="ygrave" unicode="&#x1ef3;" horiz-adv-x="1021" 
d="M575 1116h-86l-194 275h119zM883 991h96l-584 -1388h-94l166 391l-424 997h96l371 -893z" />
    <glyph glyph-name="uni2009" unicode="&#x2009;" horiz-adv-x="423" 
 />
    <glyph glyph-name="endash" unicode="&#x2013;" horiz-adv-x="1107" 
d="M102 485v82h904v-82h-904z" />
    <glyph glyph-name="emdash" unicode="&#x2014;" horiz-adv-x="2252" 
d="M102 485v82h2048v-82h-2048z" />
    <glyph glyph-name="quoteleft" unicode="&#x2018;" horiz-adv-x="391" 
d="M102 1194c0 12.667 7 34.667 21 66l119 241h53l-78 -219c19.333 -5.33301 35.166 -16 47.499 -32s18.5 -34.667 18.5 -56c0 -26.667 -8.66699 -48.667 -26 -66s-38.666 -26 -63.999 -26c-26 0 -47.667 8.66699 -65 26s-26 39.333 -26 66z" />
    <glyph glyph-name="quoteright" unicode="&#x2019;" horiz-adv-x="391" 
d="M289 1411c0 -14 -6.99902 -36.666 -20.999 -67.999l-116 -241h-56l80 219c-20.667 6 -37 17 -49 33s-18 35 -18 57c0 25.333 8.66699 46.666 26 63.999s38.666 26 63.999 26c26 0 47.5 -8.5 64.5 -25.5s25.5 -38.5 25.5 -64.5z" />
    <glyph glyph-name="quotesinglbase" unicode="&#x201a;" horiz-adv-x="391" 
d="M289 119c0 -14 -6.99902 -36.666 -20.999 -67.999l-116 -241h-56l80 219c-20.667 6 -37 17 -49 33s-18 35 -18 57c0 25.333 8.66699 46.666 26 63.999s38.666 26 63.999 26c26 0 47.5 -8.5 64.5 -25.5s25.5 -38.5 25.5 -64.5z" />
    <glyph glyph-name="quotedblleft" unicode="&#x201c;" horiz-adv-x="663" 
d="M102 1194c0 12.667 7 34.667 21 66l119 241h53l-78 -219c19.333 -5.33301 35.166 -16 47.499 -32s18.5 -34.667 18.5 -56c0 -26.667 -8.66699 -48.667 -26 -66s-38.666 -26 -63.999 -26c-26 0 -47.667 8.66699 -65 26s-26 39.333 -26 66zM373 1194
c0 16 7.33398 38 22.001 66l117 241h53l-78 -219c19.333 -5.33301 35.166 -16 47.499 -32s18.5 -34.667 18.5 -56c0 -26.667 -8.33301 -48.667 -25 -66s-38.334 -26 -65.001 -26c-25.333 0 -46.666 8.66699 -63.999 26s-26 39.333 -26 66z" />
    <glyph glyph-name="quotedblright" unicode="&#x201d;" horiz-adv-x="663" 
d="M289 1411c0 -14 -6.99902 -36.666 -20.999 -67.999l-116 -241h-56l80 219c-20.667 6 -37 17 -49 33s-18 35 -18 57c0 25.333 8.66699 46.666 26 63.999s38.666 26 63.999 26c26 0 47.5 -8.5 64.5 -25.5s25.5 -38.5 25.5 -64.5zM561.001 1411
c0 -15.333 -6.66602 -38.001 -19.999 -68.001l-119 -241h-53l77 219c-20 6 -35.833 17 -47.5 33s-17.5 35 -17.5 57c0 26 8.5 47.5 25.5 64.5s38.5 25.5 64.5 25.5c25.333 0 46.666 -8.66699 63.999 -26s26 -38.666 26 -63.999z" />
    <glyph glyph-name="quotedblbase" unicode="&#x201e;" horiz-adv-x="663" 
d="M289 119c0 -14 -6.99902 -36.666 -20.999 -67.999l-116 -241h-56l80 219c-20.667 6 -37 17 -49 33s-18 35 -18 57c0 25.333 8.66699 46.666 26 63.999s38.666 26 63.999 26c26 0 47.5 -8.5 64.5 -25.5s25.5 -38.5 25.5 -64.5zM561.001 119.001
c0 -15.333 -6.66602 -38.001 -19.999 -68.001l-119 -241h-53l77 219c-20 6 -35.833 17 -47.5 33s-17.5 35 -17.5 57c0 26 8.5 47.5 25.5 64.5s38.5 25.5 64.5 25.5c25.333 0 46.666 -8.66699 63.999 -26s26 -38.666 26 -63.999z" />
    <glyph glyph-name="dagger" unicode="&#x2020;" horiz-adv-x="911" 
d="M809 1118v-78h-313v-594h-84v594h-310v78h310v357h84v-357h313z" />
    <glyph glyph-name="daggerdbl" unicode="&#x2021;" horiz-adv-x="913" 
d="M496 434h313v-78h-313v-356h-84v356h-310v78h310v606h-310v78h310v357h84v-357h313v-78h-313v-606z" />
    <glyph glyph-name="bullet" unicode="&#x2022;" horiz-adv-x="571" 
d="M285 293c-58.667 0 -107.5 19.667 -146.5 59s-58.5 88.666 -58.5 147.999c0 58.667 19.5 107.5 58.5 146.5s87.833 58.5 146.5 58.5s107.834 -19.5 147.501 -58.5s59.5 -87.833 59.5 -146.5c0 -59.333 -19.833 -108.666 -59.5 -147.999s-88.834 -59 -147.501 -59z" />
    <glyph glyph-name="ellipsis" unicode="&#x2026;" horiz-adv-x="1091" 
d="M215 -20c-25.333 0 -46.666 8.66699 -63.999 26s-26 38.666 -26 63.999s8.66699 47 26 65s38.666 27 63.999 27c26 0 47.833 -8.83301 65.5 -26.5s26.5 -39.5 26.5 -65.5c0 -25.333 -8.66699 -46.666 -26 -63.999s-39.333 -26 -66 -26zM557 -20
c-25.333 0 -46.666 8.66699 -63.999 26s-26 38.666 -26 63.999s8.66699 47 26 65s38.666 27 63.999 27s47 -9 65 -27s27 -39.667 27 -65s-9 -46.666 -27 -63.999s-39.667 -26 -65 -26zM874 -20c-25.333 0 -46.666 8.66699 -63.999 26s-26 38.666 -26 63.999
s8.66699 47 26 65s38.666 27 63.999 27c26.667 0 48.834 -9 66.501 -27s26.5 -39.667 26.5 -65s-8.83301 -46.666 -26.5 -63.999s-39.834 -26 -66.501 -26z" />
    <glyph glyph-name="perthousand" unicode="&#x2030;" horiz-adv-x="2078" 
d="M678 1174c0 -82 -23.998 -149.667 -71.998 -203s-110 -80 -186 -80c-74.667 0 -136.334 26.667 -185.001 80s-73 121 -73 203s24.167 149.167 72.5 201.5s110.166 78.5 185.499 78.5c76 0 138 -26.167 186 -78.5s72 -119.5 72 -201.5zM1174 1434h79l-952 -1434h-80z
M606.002 1174c0 62.667 -17 113.669 -51 153.002s-79 59 -135 59c-55.333 0 -100.333 -19.667 -135 -59s-52 -90.333 -52 -153s17.333 -114.334 52 -155.001s79.667 -61 135 -61c56 0 101 20.167 135 60.5s51 92.166 51 155.499zM1313 262.002
c0 -82 -24.001 -149.5 -72.001 -202.5s-110 -79.5 -186 -79.5c-75.333 0 -137.166 26.5 -185.499 79.5s-72.5 120.5 -72.5 202.5c0 81.333 24.333 148.5 73 201.5s110.334 79.5 185.001 79.5c75.333 0 137.166 -26.5 185.499 -79.5s72.5 -120.167 72.5 -201.5zM1917 262.002
c0 -82 -24.001 -149.5 -72.001 -202.5s-110 -79.5 -186 -79.5c-75.333 0 -137.166 26.5 -185.499 79.5s-72.5 120.5 -72.5 202.5c0 81.333 24.333 148.5 73 201.5s110.334 79.5 185.001 79.5c75.333 0 137.166 -26.5 185.499 -79.5s72.5 -120.167 72.5 -201.5zM1241 262.002
c0 62 -17 113 -51 153s-79 60 -135 60c-55.333 0 -100 -20 -134 -60s-51 -91 -51 -153c0 -62.667 17 -114.167 51 -154.5s78.667 -60.5 134 -60.5c56 0 101 20 135 60s51 91.667 51 155zM1845 262.002c0 62 -17 113 -51 153s-79 60 -135 60
c-55.333 0 -100.166 -20 -134.499 -60s-51.5 -91 -51.5 -153c0 -62.667 17.167 -114.167 51.5 -154.5s79.166 -60.5 134.499 -60.5c56 0 101 20 135 60s51 91.667 51 155z" />
    <glyph glyph-name="guilsinglleft" unicode="&#x2039;" horiz-adv-x="745" 
d="M643 68l-549 432v67l549 432v-98l-467 -366l467 -367v-100z" />
    <glyph glyph-name="guilsinglright" unicode="&#x203a;" horiz-adv-x="765" 
d="M123 68v100l467 367l-467 366v98l549 -432v-67z" />
    <glyph glyph-name="fraction" unicode="&#x2044;" horiz-adv-x="477" 
d="M678 1434h78l-953 -1434h-79z" />
    <glyph glyph-name="Euro" unicode="&#x20ac;" horiz-adv-x="1683" 
d="M1503 375l78 -34.999c-42 -108.667 -118.333 -195.834 -229 -261.501s-235.667 -98.5 -375 -98.5c-99.333 0 -192.333 17.833 -279 53.5s-161.167 84.667 -223.5 147s-112.166 137 -149.499 224s-58.333 180.167 -63 279.5h-194v80h194
c6.66699 130.667 41.167 248.334 103.5 353.001s147 187 254 247s226.167 90 357.5 90s250.666 -29.167 357.999 -87.5s183.333 -136.166 228 -233.499l-78 -41c-42 83.333 -109.167 150.166 -201.5 200.499s-194.5 75.5 -306.5 75.5c-174 0 -319 -57 -435 -171
s-178 -258.333 -186 -433h746l-37 -80h-711c6 -117.333 36 -222.833 90 -316.5s127.5 -167.334 220.5 -221.001s197.167 -80.5 312.5 -80.5c118 0 224.667 28 320 84s164 131 206 225z" />
    <glyph glyph-name="uni20BD" unicode="&#x20bd;" horiz-adv-x="1314" 
d="M834 1434c111.333 0 205 -37.666 281 -112.999s114 -168.333 114 -279s-38 -203.834 -114 -279.501s-169.667 -113.5 -281 -113.5h-463v-272h456v-78h-456v-299h-92v299h-211v78h211v272h-211v86h211v699h555zM834 735.001c86 0 158 29.667 216 89s87 132 87 218
s-29 158.5 -87 217.5s-130 88.5 -216 88.5h-463v-613h463z" />
    <glyph glyph-name="uni2116" unicode="&#x2116;" horiz-adv-x="2756" 
d="M2060 1454c93.333 0 179.333 -22.833 258 -68.5s140.667 -108.167 186 -187.5s68 -166.666 68 -261.999s-22.667 -182.5 -68 -261.5s-107.166 -141.167 -185.499 -186.5s-164.5 -68 -258.5 -68s-180 22.667 -258 68s-139.5 107.5 -184.5 186.5s-67.5 166.167 -67.5 261.5
s22.5 182.666 67.5 261.999s106.667 141.833 185 187.5s164.166 68.5 257.499 68.5zM184 1434h97l899 -1284v1284h90v-1434h-96l-900 1284v-1284h-90v1434zM2060 1370c-118.667 0 -218.667 -41.835 -300 -125.502s-122 -186.5 -122 -308.5
c0 -121.333 40.667 -223.666 122 -306.999s181.333 -125 300 -125c118 0 218.167 41.833 300.5 125.5s123.5 185.834 123.5 306.501c0 122 -41.167 224.833 -123.5 308.5s-182.5 125.5 -300.5 125.5zM2480 81.998v-82h-840v82h840z" />
    <glyph glyph-name="uni2117" unicode="&#x2117;" horiz-adv-x="1701" 
d="M850 1454c134 0 257.667 -33 371 -99s203 -155.5 269 -268.5s99 -236.167 99 -369.5s-33 -256.5 -99 -369.5s-155.667 -202.5 -269 -268.5s-237 -99 -371 -99c-132 0 -254.5 33 -367.5 99s-202.5 155.5 -268.5 268.5s-99 236.167 -99 369.5s33 256.5 99 369.5
s155.5 202.5 268.5 268.5s235.5 99 367.5 99zM852 37c91.333 0 178.833 18 262.5 54s155.667 84.333 216 145s108.333 133 144 217s53.5 172 53.5 264s-17.833 180 -53.5 264s-83.667 156.333 -144 217s-132.333 109 -216 145s-171.167 54 -262.5 54
s-178.833 -18 -262.5 -54s-155.834 -84.333 -216.501 -145s-109 -133 -145 -217s-54 -172 -54 -264s18 -180 54 -264s84.333 -156.333 145 -217s132.834 -109 216.501 -145s171.167 -54 262.5 -54zM958 1143c66.667 0 123.334 -22.834 170.001 -68.501s70 -101.5 70 -167.5
c0 -67.333 -23.333 -123.666 -70 -168.999s-103.334 -68 -170.001 -68h-262v-377h-67v850h329zM958 732.999c48 0 88.667 17 122 51s50 75 50 123s-16.667 88.667 -50 122s-74 50 -122 50h-262v-346h262z" />
    <glyph glyph-name="trademark" unicode="&#x2122;" horiz-adv-x="1822" 
d="M688 1434v-64h-291v-797h-67v797h-291v64h649zM1647 1434h71v-861h-67v709l-338 -709h-56l-339 709v-709h-68v861h70l364 -756z" />
    <glyph glyph-name="Omega" unicode="&#x2126;" horiz-adv-x="1593" 
d="M172 0l-0.00195312 86h336c-273.333 155.333 -410 375 -410 659c0 102.667 18 198.167 54 286.5s85.167 163.333 147.5 225s136.5 110 222.5 145s177.667 52.5 275 52.5c98 0 189.833 -17.5 275.5 -52.5s159.334 -83.333 221.001 -145s110.334 -136.667 146.001 -225
s53.5 -183.833 53.5 -286.5c0 -284 -135.333 -503.667 -406 -659h334v-86h-458v86c292 161.333 438 380.333 438 657c0 91.333 -15.333 176.166 -46 254.499s-72.834 144.5 -126.501 198.5s-117.667 96.167 -192 126.5s-154.166 45.5 -239.499 45.5
s-165.166 -15.167 -239.499 -45.5s-138.333 -72.5 -192 -126.5s-95.834 -120.167 -126.501 -198.5s-46 -163.166 -46 -254.499c0 -274.667 146.667 -493.667 440 -657v-86h-461z" />
    <glyph glyph-name="oneeighth" unicode="&#x215b;" horiz-adv-x="1538" 
d="M281 1434v-861h-68v779l-182 -117v74l198 125h52zM1087 1434h78l-952 -1434h-78zM1212 -10c-80 0 -146.332 23.499 -198.999 70.499s-79 106.167 -79 177.5c0 52 16.5 99.167 49.5 141.5s77.167 70.166 132.5 83.499c-42 12.667 -76.667 36.834 -104 72.501
s-41 74.834 -41 117.501c0 62.667 22.667 114.5 68 155.5s103 61.5 173 61.5c70.667 0 129 -20.5 175 -61.5s69 -92.833 69 -155.5c0 -42 -13.5 -80.833 -40.5 -116.5s-62.5 -60.167 -106.5 -73.5c52.667 -13.333 96.167 -41.333 130.5 -84s51.5 -89.667 51.5 -141
c0 -70.667 -26.333 -129.667 -79 -177s-119.334 -71 -200.001 -71zM1212 493.999c53.333 0 97.168 14.667 131.501 44s51.5 67 51.5 113s-17.333 84.167 -52 114.5s-78.334 45.5 -131.001 45.5s-95.834 -15.167 -129.501 -45.5s-50.5 -68.5 -50.5 -114.5
s16.833 -83.667 50.5 -113s76.834 -44 129.501 -44zM1212 50.999c62.667 0 114.167 18 154.5 54s60.5 81.667 60.5 137s-20.167 100.833 -60.5 136.5s-91.833 53.5 -154.5 53.5s-114.167 -17.833 -154.5 -53.5s-60.5 -81.167 -60.5 -136.5
c0 -54.667 20.333 -100.167 61 -136.5s92 -54.5 154 -54.5z" />
    <glyph glyph-name="threeeighths" unicode="&#x215c;" horiz-adv-x="1779" 
d="M213 1059l279.001 310.998h-439v64h531v-50l-283 -313c18 4 36.333 6 55 6c67.333 0 124.166 -22.833 170.499 -68.5s69.5 -103.167 69.5 -172.5c0 -79.333 -26.667 -145 -80 -197s-121 -78 -203 -78c-69.333 0 -131 19.333 -185 58s-88.333 88.334 -103 149.001l59 23
c13.333 -49.333 41.5 -89.333 84.5 -120s91.167 -46 144.5 -46c62.667 0 114.167 20.167 154.5 60.5s60.5 91.833 60.5 154.5c0 56.667 -19.167 101.834 -57.5 135.501s-87.166 50.5 -146.499 50.5c-26.667 0 -55.334 -4 -86.001 -12zM1329 1434h78l-952 -1434h-78z
M1454 -10.002c-80 0 -146.333 23.499 -199 70.499s-79 106.167 -79 177.5c0 52 16.5 99.167 49.5 141.5s77.167 70.166 132.5 83.499c-42 12.667 -76.833 36.834 -104.5 72.501s-41.5 74.834 -41.5 117.501c0 62.667 22.833 114.5 68.5 155.5s103.5 61.5 173.5 61.5
c70.667 0 129 -20.5 175 -61.5s69 -92.833 69 -155.5c0 -42 -13.667 -80.833 -41 -116.5s-63 -60.167 -107 -73.5c52.667 -13.333 96.334 -41.333 131.001 -84s52 -89.667 52 -141c0 -70.667 -26.333 -129.667 -79 -177s-119.334 -71 -200.001 -71zM1454 493.997
c53.333 0 97 14.667 131 44s51 67 51 113s-17.167 84.167 -51.5 114.5s-77.833 45.5 -130.5 45.5s-95.834 -15.167 -129.501 -45.5s-50.5 -68.5 -50.5 -114.5s16.833 -83.667 50.5 -113s76.834 -44 129.501 -44zM1454 50.9971c62.667 0 114.167 18 154.5 54
s60.5 81.667 60.5 137s-20.167 100.833 -60.5 136.5s-91.833 53.5 -154.5 53.5s-114.167 -17.833 -154.5 -53.5s-60.5 -81.167 -60.5 -136.5c0 -54.667 20.333 -100.167 61 -136.5s92 -54.5 154 -54.5z" />
    <glyph glyph-name="fiveeighths" unicode="&#x215d;" horiz-adv-x="1761" 
d="M317 561c-67.333 0 -128.166 19.5 -182.499 58.5s-88.833 88.5 -103.5 148.5l61 20c13.333 -48 41.166 -87.167 83.499 -117.5s89.5 -45.5 141.5 -45.5c59.333 0 109.666 20 150.999 60s62 88.667 62 146c0 61.333 -20.667 113 -62 155s-91.666 63 -150.999 63
c-33.333 0 -65.833 -5.33301 -97.5 -16s-57.167 -26.667 -76.5 -48l-55 16l39 433h420v-62h-359l-34 -321c40 38 97.333 57 172 57c77.333 0 142 -26.5 194 -79.5s78 -118.833 78 -197.5c0 -76 -27.333 -140 -82 -192s-121 -78 -199 -78zM1303 1434h79l-952 -1434h-80z
M1436 -10c-80 0 -146.5 23.499 -199.5 70.499s-79.5 106.167 -79.5 177.5c0 52 16.5 99.167 49.5 141.5s77.167 70.166 132.5 83.499c-42 12.667 -77 36.834 -105 72.501s-42 74.834 -42 117.501c0 62.667 23 114.5 69 155.5s104.333 61.5 175 61.5
c70 0 127.667 -20.5 173 -61.5s68 -92.833 68 -155.5c0 -42 -13.5 -80.833 -40.5 -116.5s-62.5 -60.167 -106.5 -73.5c54 -13.333 98.167 -41.333 132.5 -84s51.5 -89.667 51.5 -141c0 -70.667 -26.167 -129.667 -78.5 -177s-118.833 -71 -199.5 -71zM1436 493.999
c52.667 0 95.834 14.667 129.501 44s50.5 67 50.5 113s-16.833 84.167 -50.5 114.5s-76.834 45.5 -129.501 45.5s-96 -15.167 -130 -45.5s-51 -68.5 -51 -114.5s16.833 -83.667 50.5 -113s77.167 -44 130.5 -44zM1436 50.999c62 0 113.333 18 154 54s61 81.667 61 137
s-20.333 100.833 -61 136.5s-92 53.5 -154 53.5c-62.667 0 -114.167 -17.833 -154.5 -53.5s-60.5 -81.167 -60.5 -136.5c0 -54.667 20.333 -100.167 61 -136.5s92 -54.5 154 -54.5z" />
    <glyph glyph-name="seveneighths" unicode="&#x215e;" horiz-adv-x="1626" 
d="M18 1434h553v-52l-385 -809h-73l383 797h-478v64zM1176 1434h77l-952 -1434h-78zM1300 -10c-80 0 -146.332 23.499 -198.999 70.499s-79 106.167 -79 177.5c0 52 16.5 99.167 49.5 141.5s77.167 70.166 132.5 83.499c-42 12.667 -76.667 36.834 -104 72.501
s-41 74.834 -41 117.501c0 62.667 22.667 114.5 68 155.5s103 61.5 173 61.5c70.667 0 129 -20.5 175 -61.5s69 -92.833 69 -155.5c0 -42 -13.5 -80.833 -40.5 -116.5s-62.5 -60.167 -106.5 -73.5c52.667 -13.333 96.167 -41.333 130.5 -84s51.5 -89.667 51.5 -141
c0 -70.667 -26.333 -129.667 -79 -177s-119.334 -71 -200.001 -71zM1300 493.999c53.333 0 97.168 14.667 131.501 44s51.5 67 51.5 113s-17.333 84.167 -52 114.5s-78.334 45.5 -131.001 45.5s-95.834 -15.167 -129.501 -45.5s-50.5 -68.5 -50.5 -114.5
s16.833 -83.667 50.5 -113s76.834 -44 129.501 -44zM1300 50.999c62.667 0 114.334 18 155.001 54s61 81.667 61 137s-20.333 100.833 -61 136.5s-92.334 53.5 -155.001 53.5s-114.167 -17.833 -154.5 -53.5s-60.5 -81.167 -60.5 -136.5
c0 -54.667 20.333 -100.167 61 -136.5s92 -54.5 154 -54.5z" />
    <glyph glyph-name="arrowleft" unicode="&#x2190;" horiz-adv-x="1484" 
d="M1382 684v-82h-1128l467 -459l-59 -59l-560 559l560 561l59 -59l-467 -461h1128z" />
    <glyph glyph-name="arrowup" unicode="&#x2191;" horiz-adv-x="1325" 
d="M1223 721l-60 -59l-458 466v-1128h-80v1130l-463 -468l-60 59l562 559z" />
    <glyph glyph-name="arrowright" unicode="&#x2192;" horiz-adv-x="1484" 
d="M823 1204l559 -561l-559 -559l-59 59l467 459h-1129v82h1129l-467 461z" />
    <glyph glyph-name="arrowdown" unicode="&#x2193;" horiz-adv-x="1325" 
d="M1163 598l60 -59l-561 -559l-560 559l60 59l461 -469v1131h79v-1129z" />
    <glyph glyph-name="uni2196" unicode="&#x2196;" horiz-adv-x="1138" 
d="M1036 147l-57 -57l-799 799l6 -656h-84v791l793 2v-84l-657 4z" />
    <glyph glyph-name="uni2197" unicode="&#x2197;" horiz-adv-x="1138" 
d="M1036 231h-86l6 656l-798 -799l-56 57l799 799l-657 -4v84l790 -2z" />
    <glyph glyph-name="uni2198" unicode="&#x2198;" horiz-adv-x="1138" 
d="M950 791h86l-2 -791l-790 -2v84l657 -4l-799 799l56 57l798 -797z" />
    <glyph glyph-name="uni2199" unicode="&#x2199;" horiz-adv-x="1138" 
d="M1036 877l-798 -799l657 4v-84l-793 2v791h84l-6 -656l799 799z" />
    <glyph glyph-name="partialdiff" unicode="&#x2202;" horiz-adv-x="1142" 
d="M905 805c38.667 -62 68.833 -124.833 90.5 -188.5s32.5 -121.167 32.5 -172.5c0 -128.667 -46 -238.167 -138 -328.5s-203 -135.5 -333 -135.5s-240.667 45.167 -332 135.5s-137 199.833 -137 328.5c0 84 22 162.167 66 234.5s101.5 128.833 172.5 169.5
s145.833 61 224.5 61c74 0 147.667 -15 221 -45l-362 570h104zM556.999 66c106 0 196.333 36.999 271 110.999s112 163 112 267c0 98 -36.333 206.667 -109 326c-86 39.333 -176.667 59 -272 59c-103.333 0 -193.333 -38.333 -270 -115s-115 -166.667 -115 -270
s37.667 -192.166 113 -266.499s165.333 -111.5 270 -111.5z" />
    <glyph glyph-name="emptyset" unicode="&#x2205;" horiz-adv-x="1536" 
d="M1374 1260l-213 -213.003c80.667 -95.333 121 -206.666 121 -333.999c0 -92.667 -22.667 -178.167 -68 -256.5s-107 -140.166 -185 -185.499s-163 -68 -255 -68c-126.667 0 -238.667 41 -336 123l-215 -215l-61 61l215 215c-79.333 96.667 -119 205.334 -119 326.001
c0 93.333 23 179.5 69 258.5s108.667 141.333 188 187s165.666 68.5 258.999 68.5c122.667 0 231.334 -39.667 326.001 -119l213 213zM340 712.997c0 -98 32 -187 96 -267l606 605c-78.667 62.667 -168 94 -268 94c-120 0 -222.333 -42 -307 -126s-127 -186 -127 -306z
M1200 712.997c0 101.333 -32 193.333 -96 276l-606 -604c78 -66.667 170 -100 276 -100c118 0 218.5 41.667 301.5 125s124.5 184.333 124.5 303z" />
    <glyph glyph-name="Delta" unicode="&#x2206;" horiz-adv-x="1236" 
d="M33 0v86l540 1350h93l538 -1350v-86h-1171zM129 86h979l-490 1235z" />
    <glyph glyph-name="product" unicode="&#x220f;" horiz-adv-x="1280" 
d="M1178 1434v-1434h-93v1348h-890v-1348h-93v1434h1076z" />
    <glyph glyph-name="summation" unicode="&#x2211;" horiz-adv-x="1187" 
d="M1085 1434v-86h-876l459 -631l-459 -631h876v-86h-983v84l457 633l-457 633v84h983z" />
    <glyph glyph-name="minus" unicode="&#x2212;" horiz-adv-x="1163" 
d="M1001 678v-82h-839v82h839z" />
    <glyph glyph-name="radical" unicode="&#x221a;" horiz-adv-x="1351" 
d="M1161 1434h88l-489 -1434h-109l-291 905h-258v86h328l279 -897z" />
    <glyph glyph-name="infinity" unicode="&#x221e;" horiz-adv-x="1986" 
d="M1397 1126c126 0 228.835 -43.833 308.502 -131.5s119.5 -197.834 119.5 -330.501s-40 -243 -120 -331s-182.667 -132 -308 -132c-92.667 0 -177.834 31.167 -255.501 93.5s-127.167 134.833 -148.5 217.5c-21.333 -82.667 -70.833 -155.167 -148.5 -217.5
s-163.167 -93.5 -256.5 -93.5c-124.667 0 -226.834 44 -306.501 132s-119.5 198.333 -119.5 331s39.833 242.834 119.5 330.501s181.834 131.5 306.501 131.5c94 0 179.667 -31.167 257 -93.5s126 -134.833 146 -217.5c21.333 83.333 71.166 156 149.499 218
s163.833 93 256.5 93zM592.002 285c95.333 0 178 35.833 248 107.5s108 162.167 114 271.5c-6 109.333 -44 199.666 -114 270.999s-152.667 107 -248 107c-101.333 0 -184 -35.667 -248 -107s-96 -161.666 -96 -270.999c0 -110 31.833 -200.667 95.5 -272
s146.5 -107 248.5 -107zM1395 285c102 0 184.833 35.667 248.5 107s95.5 162 95.5 272c0 109.333 -32 199.666 -96 270.999s-146.667 107 -248 107c-95.333 0 -177.666 -35.667 -246.999 -107s-107.333 -161.666 -114 -270.999c6.66699 -109.333 44.667 -199.833 114 -271.5
s151.666 -107.5 246.999 -107.5z" />
    </font>
</defs>
</svg>
