<?xml version="1.0" standalone="no"?>
<!DOCTYPE svg PUBLIC "-//W3C//DTD SVG 1.1//EN" "http://www.w3.org/Graphics/SVG/1.1/DTD/svg11.dtd" >
<svg>
<metadata>
Created by FontForge 20090914 at Mon Jun 13 08:56:37 2022
 By www-data
Copyright &#194;&#169; 2017 by Martin V&#195;&#161;cha. All rights reserved.
</metadata>
<defs>
<font id="Hellix-Medium" horiz-adv-x="737" >
  <font-face 
    font-family="Hellix Medium"
    font-weight="500"
    font-stretch="normal"
    units-per-em="2048"
    panose-1="0 0 6 0 0 0 0 0 0 0"
    ascent="1683"
    descent="-365"
    x-height="999"
    cap-height="1434"
    bbox="-991 -442.005 2519 2308"
    underline-thickness="102"
    underline-position="-205"
    unicode-range="U+000D-U+25CF"
  />
<missing-glyph horiz-adv-x="2252" 
d="M1092 1630l-0.000976562 -2048c-134.667 4.66699 -263.167 35 -385.5 91s-227.666 129.5 -315.999 220.5s-158.5 198.5 -210.5 322.5s-78 253.333 -78 388c0 134 26.167 263.167 78.5 387.5s122.833 232.333 211.5 324s194 165.834 316 222.501s250 87.334 384 92.001z
M1161 -412.002l0.000976562 2036c56 -16.667 107.833 -72.667 155.5 -168s85.667 -218.5 114 -369.5s42.5 -311.833 42.5 -482.5s-14 -331.167 -42 -481.5s-65.833 -273 -113.5 -368s-99.834 -150.5 -156.501 -166.5zM1538 603.998c0 218 -20.833 415.501 -62.5 592.501
s-97.834 309.167 -168.501 396.5c100 -38.667 189.5 -106.334 268.5 -203.001s140.667 -213.667 185 -351s66.5 -282.333 66.5 -435c0 -154 -22.167 -299.5 -66.5 -436.5s-106 -253.333 -185 -349s-168.5 -162.167 -268.5 -199.5c70.667 86.667 126.834 218 168.501 394
s62.5 373 62.5 591zM1507 -344.001c118.667 95.333 212.832 227.832 282.499 397.499s104.5 353.167 104.5 550.5c0 198 -35.167 382 -105.5 552s-166.166 303.333 -287.499 400c193.333 -77.333 349.833 -203.166 469.5 -377.499s179.5 -365.833 179.5 -574.5
s-59.333 -399.667 -178 -573s-273.667 -298.333 -465 -375z" />
    <glyph glyph-name=".notdef" horiz-adv-x="2252" 
d="M1092 1630l-0.000976562 -2048c-134.667 4.66699 -263.167 35 -385.5 91s-227.666 129.5 -315.999 220.5s-158.5 198.5 -210.5 322.5s-78 253.333 -78 388c0 134 26.167 263.167 78.5 387.5s122.833 232.333 211.5 324s194 165.834 316 222.501s250 87.334 384 92.001z
M1161 -412.002l0.000976562 2036c56 -16.667 107.833 -72.667 155.5 -168s85.667 -218.5 114 -369.5s42.5 -311.833 42.5 -482.5s-14 -331.167 -42 -481.5s-65.833 -273 -113.5 -368s-99.834 -150.5 -156.501 -166.5zM1538 603.998c0 218 -20.833 415.501 -62.5 592.501
s-97.834 309.167 -168.501 396.5c100 -38.667 189.5 -106.334 268.5 -203.001s140.667 -213.667 185 -351s66.5 -282.333 66.5 -435c0 -154 -22.167 -299.5 -66.5 -436.5s-106 -253.333 -185 -349s-168.5 -162.167 -268.5 -199.5c70.667 86.667 126.834 218 168.501 394
s62.5 373 62.5 591zM1507 -344.001c118.667 95.333 212.832 227.832 282.499 397.499s104.5 353.167 104.5 550.5c0 198 -35.167 382 -105.5 552s-166.166 303.333 -287.499 400c193.333 -77.333 349.833 -203.166 469.5 -377.499s179.5 -365.833 179.5 -574.5
s-59.333 -399.667 -178 -573s-273.667 -298.333 -465 -375z" />
    <glyph glyph-name="uni0000" horiz-adv-x="0" 
 />
    <glyph glyph-name="uni0000" horiz-adv-x="0" 
 />
    <glyph glyph-name="uni000D" unicode="&#xd;" horiz-adv-x="512" 
 />
    <glyph glyph-name="space" unicode=" " horiz-adv-x="471" 
 />
    <glyph glyph-name="exclam" unicode="!" horiz-adv-x="507" 
d="M152 1434h204l-8 -1035h-188zM254 -20c-40 0 -73.167 13 -99.5 39s-39.5 58.667 -39.5 98c0 38 13.167 70.333 39.5 97s59.5 40 99.5 40c38.667 0 71.5 -13.333 98.5 -40s40.5 -59 40.5 -97c0 -38.667 -13.333 -71.167 -40 -97.5s-59.667 -39.5 -99 -39.5z" />
    <glyph glyph-name="quotedbl" unicode="&#x22;" horiz-adv-x="706" 
d="M119 963l-17 471h191l-14 -471h-160zM428 963l-14 471h190l-14 -471h-162z" />
    <glyph glyph-name="numbersign" unicode="#" horiz-adv-x="1366" 
d="M1315 872h-281l-86 -309h285v-164h-330l-112 -399h-166l112 399h-280l-113 -399h-166l113 399h-238v164h283l86 309h-287v162h332l113 400h165l-112 -400h280l113 400h166l-113 -400h236v-162zM782 563l86 309h-280l-86 -309h280z" />
    <glyph glyph-name="dollar" unicode="$" horiz-adv-x="1177" 
d="M1098 403c0 -106 -37.8301 -198.167 -113.497 -276.5s-176.5 -125.166 -302.5 -140.499v-232h-182v232c-88 12 -171.5 37.833 -250.5 77.5s-145.833 87.5 -200.5 143.5l125 147c130.667 -122.667 272 -184 424 -184c87.333 0 158.666 21.5 213.999 64.5s83 98.5 83 166.5
c0 35.333 -8.83301 66.333 -26.5 93s-41.667 48.167 -72 64.5s-65 31 -104 44s-80 25.333 -123 37s-86 24.334 -129 38.001s-84 30.834 -123 51.501s-73.667 44.667 -104 72s-54.333 62.833 -72 106.5s-26.5 93.5 -26.5 149.5c0 100.667 35.667 186.834 107 258.501
s164 115.834 278 132.501v231h182v-231c76.667 -11.333 149 -33.833 217 -67.5s120.667 -73.834 158 -120.501l-117 -154c-44.667 48.667 -99.834 87.167 -165.501 115.5s-132.834 42.5 -201.501 42.5c-76 0 -138.333 -18 -187 -54s-73 -82.333 -73 -139
c0 -36.667 9 -68.834 27 -96.501s42.167 -50.334 72.5 -68.001s65 -33.334 104 -47.001s80.333 -26.667 124 -39s87.167 -25.5 130.5 -39.5s84.5 -31.333 123.5 -52s73.667 -44.834 104 -72.501s54.5 -63 72.5 -106s27 -92.167 27 -147.5z" />
    <glyph glyph-name="percent" unicode="%" horiz-adv-x="1492" 
d="M698 1157c0 -86 -26.5 -157.333 -79.5 -214s-120.5 -85 -202.5 -85s-150 28.333 -204 85s-81 128 -81 214s27 157 81 213s122 84 204 84s149.5 -28 202.5 -84s79.5 -127 79.5 -213zM1145 1434h155l-952 -1434h-155zM569 1157c0 51.333 -13.999 93.166 -41.999 125.499
s-65 48.5 -111 48.5c-46.667 0 -84.334 -16.167 -113.001 -48.5s-43 -74.166 -43 -125.499s14.333 -93.5 43 -126.5s66.334 -49.5 113.001 -49.5c45.333 0 82.166 16.5 110.499 49.5s42.5 75.167 42.5 126.5zM1360 279c0 -86 -26.667 -157.333 -80 -214s-121 -85 -203 -85
s-149.5 28.333 -202.5 85s-79.5 128 -79.5 214s26.5 156.833 79.5 212.5s120.5 83.5 202.5 83.5s149.667 -27.833 203 -83.5s80 -126.5 80 -212.5zM1231 279c0 51.333 -13.999 93.5 -41.999 126.5s-65.333 49.5 -112 49.5s-83.834 -16.333 -111.501 -49
s-41.5 -75 -41.5 -127s14 -94.5 42 -127.5s65 -49.5 111 -49.5c46.667 0 84 16.5 112 49.5s42 75.5 42 127.5z" />
    <glyph glyph-name="ampersand" unicode="&#x26;" horiz-adv-x="1439" 
d="M1384 0h-254l-176 188c-72 -70.667 -141.833 -123 -209.5 -157s-143.834 -51 -228.501 -51c-118.667 0 -219 37.833 -301 113.5s-123 169.5 -123 281.5c0 43.333 5.66699 83.5 17 120.5s26 69 44 96s40.833 52.5 68.5 76.5s55 44.167 82 60.5s58.167 32.833 93.5 49.5
c-45.333 48.667 -81.166 98.167 -107.499 148.5s-39.5 106.833 -39.5 169.5c0 101.333 35.833 186.333 107.5 255s160.834 103 267.501 103c103.333 0 190.166 -34.333 260.499 -103s105.5 -153.667 105.5 -255c0 -48 -7.5 -91.667 -22.5 -131
s-37.167 -73.666 -66.5 -102.999s-59.5 -54.333 -90.5 -75s-68.167 -41.334 -111.5 -62.001l256 -272l228 223l133 -125l-234 -234zM430 1100c0 -38 12.333 -75.167 37 -111.5s61.667 -80.5 111 -132.5c74.667 33.333 131.834 68.333 171.501 105s59.5 83 59.5 139
c0 50.667 -17.667 93.334 -53 128.001s-79 52 -131 52c-54.667 0 -100.834 -17.333 -138.501 -52s-56.5 -77.334 -56.5 -128.001zM535 170c48.667 0 95.832 12.335 141.499 37.002s95.167 63.667 148.5 117l-303 321c-34.667 -16.667 -64.334 -32.5 -89.001 -47.5
s-48.167 -32.833 -70.5 -53.5s-39.166 -43.834 -50.499 -69.501s-17 -54.167 -17 -85.5c0 -62.667 22.833 -114.834 68.5 -156.501s102.834 -62.5 171.501 -62.5z" />
    <glyph glyph-name="quotesingle" unicode="'" horiz-adv-x="395" 
d="M119 963l-17 471h191l-14 -471h-160z" />
    <glyph glyph-name="parenleft" unicode="(" horiz-adv-x="630" 
d="M565 -440c-133.333 106.667 -238.668 252.332 -316.001 436.999s-116 383 -116 595c0 211.333 38.833 409.833 116.5 595.5s182.834 331.167 315.501 436.5l113 -127c-113.333 -89.333 -202.833 -215.666 -268.5 -378.999s-98.5 -338.666 -98.5 -525.999
c0 -188.667 33 -364.334 99 -527.001s155.333 -288.667 268 -378z" />
    <glyph glyph-name="parenright" unicode=")" horiz-adv-x="630" 
d="M66 -440l-113.002 127.003c112.667 88.667 201.834 214.5 267.501 377.5s98.5 338.833 98.5 527.5c0 187.333 -32.833 362.666 -98.5 525.999s-154.834 289.666 -267.501 378.999l113 127c132.667 -105.333 237.834 -250.833 315.501 -436.5s116.5 -384.167 116.5 -595.5
c0 -212 -38.667 -410.333 -116 -595s-182.666 -330.334 -315.999 -437.001z" />
    <glyph glyph-name="asterisk" unicode="*" horiz-adv-x="1013" 
d="M922 1124l-314 -92l207 -282l-98 -80l-211 282l-211 -284l-98 84l209 280l-316 92l43 123l309 -90v318h129v-318l310 90z" />
    <glyph glyph-name="plus" unicode="+" horiz-adv-x="1189" 
d="M1057 733v-176h-375v-375h-176v375h-375v176h375v375h176v-375h375z" />
    <glyph glyph-name="comma" unicode="," horiz-adv-x="518" 
d="M403 211l-135 -444h-153l86 444h202z" />
    <glyph glyph-name="hyphen" unicode="-" horiz-adv-x="679" 
d="M51 440v176h578v-176h-578z" />
    <glyph glyph-name="period" unicode="." horiz-adv-x="507" 
d="M254 -20c-40 0 -73.167 13 -99.5 39s-39.5 58.667 -39.5 98c0 38 13.167 70.333 39.5 97s59.5 40 99.5 40c38.667 0 71.5 -13.333 98.5 -40s40.5 -59 40.5 -97c0 -38.667 -13.333 -71.167 -40 -97.5s-59.667 -39.5 -99 -39.5z" />
    <glyph glyph-name="slash" unicode="/" horiz-adv-x="866" 
d="M16 0l631 1434h203l-631 -1434h-203z" />
    <glyph glyph-name="zero" unicode="0" horiz-adv-x="1230" 
d="M616 -20c-166 0 -295.833 66 -389.5 198s-140.5 311.667 -140.5 539s46.833 407 140.5 539s223.5 198 389.5 198c165.333 0 294.833 -66.167 388.5 -198.5s140.5 -311.833 140.5 -538.5s-46.833 -406.167 -140.5 -538.5s-223.167 -198.5 -388.5 -198.5zM616 170
c103.333 0 183.5 46.833 240.5 140.5s85.5 229.167 85.5 406.5s-28.5 312.833 -85.5 406.5s-137.167 140.5 -240.5 140.5c-104.667 0 -185.334 -46.833 -242.001 -140.5s-85 -229.167 -85 -406.5s28.333 -312.833 85 -406.5s137.334 -140.5 242.001 -140.5z" />
    <glyph glyph-name="one" unicode="1" horiz-adv-x="759" 
d="M614 1434v-1434h-198v1163l-326 -272v239l385 304h139z" />
    <glyph glyph-name="two" unicode="2" horiz-adv-x="1136" 
d="M90 0v142.998l524 523c78 78 134.167 143.667 168.5 197s51.5 107 51.5 161c0 69.333 -24.5 126.666 -73.5 171.999s-111.5 68 -187.5 68c-88 0 -158.333 -26.5 -211 -79.5s-80.334 -125.5 -83.001 -217.5l-193 10c0.666992 92 22.834 174.5 66.501 247.5
s102.5 129.5 176.5 169.5s156 60 246 60c132 0 241.833 -40.167 329.5 -120.5s131.5 -182.166 131.5 -305.499c0 -79.333 -23.833 -158.166 -71.5 -236.499s-117.167 -161.166 -208.5 -248.499l-353 -353h648v-190h-961z" />
    <glyph glyph-name="three" unicode="3" horiz-adv-x="1107" 
d="M338 825l379 420.001h-637v189h919v-136l-413 -438c10.667 1.33301 26.334 2 47.001 2c112.667 0 207 -38.5 283 -115.5s114 -174.167 114 -291.5c0 -139.333 -46.833 -253.333 -140.5 -342s-212.834 -133 -357.501 -133c-124 0 -232.5 35 -325.5 105
s-150.167 159.667 -171.5 269l178 62c15.333 -70.667 53 -129.334 113 -176.001s128.667 -70 206 -70c86 0 156.667 27.167 212 81.5s83 123.5 83 207.5c0 80 -27 143.667 -81 191s-121.667 71 -203 71c-46 0 -93.333 -8.33301 -142 -25z" />
    <glyph glyph-name="four" unicode="4" horiz-adv-x="1193" 
d="M1141 500v-187h-183v-313h-198v313h-719v133l520 988h221l-493 -934h471v442h198v-442h183z" />
    <glyph glyph-name="five" unicode="5" horiz-adv-x="1101" 
d="M541 -20c-124 0 -233.497 35.501 -328.497 106.501s-152.833 160.167 -173.5 267.5l180 58c19.333 -70.667 59 -128.667 119 -174s127.667 -68 203 -68c81.333 0 149.666 27.667 204.999 83s83 123.333 83 204c0 84 -27.5 154.167 -82.5 210.5s-123.5 84.5 -205.5 84.5
c-50 0 -97.167 -8.5 -141.5 -25.5s-79.833 -40.167 -106.5 -69.5l-170 37l63 740h756v-187h-580l-38 -395c27.333 22.667 63 40.667 107 54s88.667 20 134 20c134 0 245.333 -44.167 334 -132.5s133 -201.833 133 -340.5c0 -64.667 -12.833 -126.334 -38.5 -185.001
s-60.334 -109 -104.001 -151s-95.834 -75.333 -156.501 -100s-124.667 -37 -192 -37z" />
    <glyph glyph-name="six" unicode="6" horiz-adv-x="1097" 
d="M582 934c82 0 158.332 -20.332 228.999 -60.999s127.167 -97.334 169.5 -170.001s63.5 -152.667 63.5 -240s-22 -168 -66 -242s-103.667 -132.667 -179 -176s-157.333 -65 -246 -65c-89.333 0 -171.666 21.667 -246.999 65s-135 102 -179 176s-66 154.667 -66 242
c0 50.667 10 107.167 30 169.5s49 123.833 87 184.5l383 617h225l-327 -516c44 10.667 85 16 123 16zM552.999 168.001c84 0 155.167 28.999 213.5 86.999s87.5 128 87.5 210c0 80.667 -30 150.667 -90 210s-131 89 -213 89c-80 0 -151.667 -14.333 -215 -43
c-56 -97.333 -84 -182.666 -84 -255.999c0 -82 29.167 -152 87.5 -210s129.5 -87 213.5 -87z" />
    <glyph glyph-name="seven" unicode="7" horiz-adv-x="1034" 
d="M31 1434h956v-138l-616 -1296h-219l598 1245h-719v189z" />
    <glyph glyph-name="eight" unicode="8" horiz-adv-x="1093" 
d="M547 -18c-140 0 -255.167 39.667 -345.5 119s-135.5 180 -135.5 302c0 84 25 159.833 75 227.5s115.667 114.834 197 141.501c-64 24.667 -116.167 65.334 -156.5 122.001s-60.5 117.667 -60.5 183c0 108.667 40 198 120 268s182 105 306 105s226 -35 306 -105
s120 -159.333 120 -268c0 -65.333 -20.167 -126.333 -60.5 -183s-92.5 -97.334 -156.5 -122.001c81.333 -26.667 147 -73.834 197 -141.501s75 -143.5 75 -227.5c0 -122 -45.167 -222.667 -135.5 -302s-205.5 -119 -345.5 -119zM547 864c68.667 0 125 19.167 169 57.5
s66 87.5 66 147.5c0 59.333 -22 108 -66 146s-100.333 57 -169 57s-124.834 -19 -168.501 -57s-65.5 -86.667 -65.5 -146c0 -60.667 21.833 -110 65.5 -148s99.834 -57 168.501 -57zM547 166c84 0 153.167 23.833 207.5 71.5s81.5 107.834 81.5 180.501
c0 71.333 -27.167 130.5 -81.5 177.5s-123.5 70.5 -207.5 70.5c-82.667 0 -151.167 -23.5 -205.5 -70.5s-81.5 -106.167 -81.5 -177.5c0 -72.667 27.167 -132.834 81.5 -180.501s122.833 -71.5 205.5 -71.5z" />
    <glyph glyph-name="nine" unicode="9" horiz-adv-x="1097" 
d="M545 1454c89.333 0 171.833 -21.666 247.5 -64.999s135.5 -102 179.5 -176s66 -154.667 66 -242c0 -50.667 -10.167 -107.334 -30.5 -170.001s-49.5 -124.334 -87.5 -185.001l-383 -616h-226l328 516c-44 -10.667 -85 -16 -123 -16c-82 0 -158.333 20.333 -229 61
s-127.334 97.334 -170.001 170.001s-64 152.667 -64 240s22 168 66 242s103.833 132.667 179.5 176s157.834 65 246.501 65zM762 713.001c56 95.333 84 180.667 84 256c0 82 -29.167 152 -87.5 210s-129.5 87 -213.5 87c-83.333 0 -154.333 -29 -213 -87s-88 -128 -88 -210
c0 -80.667 30 -150.667 90 -210s131 -89 213 -89c80 0 151.667 14.333 215 43z" />
    <glyph glyph-name="colon" unicode=":" horiz-adv-x="507" 
d="M254 662c-40 0 -73.167 13.333 -99.5 40s-39.5 59 -39.5 97c0 39.333 13.167 72 39.5 98s59.5 39 99.5 39c39.333 0 72.333 -13.167 99 -39.5s40 -58.833 40 -97.5c0 -38 -13.5 -70.333 -40.5 -97s-59.833 -40 -98.5 -40zM254 -20c-40 0 -73.167 13 -99.5 39
s-39.5 58.667 -39.5 98c0 38 13.167 70.333 39.5 97s59.5 40 99.5 40c38.667 0 71.5 -13.333 98.5 -40s40.5 -59 40.5 -97c0 -38.667 -13.333 -71.167 -40 -97.5s-59.667 -39.5 -99 -39.5z" />
    <glyph glyph-name="semicolon" unicode=";" horiz-adv-x="569" 
d="M315 598c-39.333 0 -72.333 13.167 -99 39.5s-40 58.833 -40 97.5c0 38 13.5 70.333 40.5 97s59.833 40 98.5 40s71.667 -13.333 99 -40s41 -59 41 -97c0 -38.667 -13.5 -71.167 -40.5 -97.5s-60.167 -39.5 -99.5 -39.5zM403 221l-135 -442h-153l86 442h202z" />
    <glyph glyph-name="less" unicode="&#x3c;" horiz-adv-x="1134" 
d="M1004 244l-873 399v148l873 397v-193l-623 -278l623 -279v-194z" />
    <glyph glyph-name="equal" unicode="=" horiz-adv-x="1189" 
d="M1057 946v-176h-926v176h926zM1057 539v-177h-926v177h926z" />
    <glyph glyph-name="greater" unicode="&#x3e;" horiz-adv-x="1134" 
d="M131 244v194l623 279l-623 278v193l873 -397v-148z" />
    <glyph glyph-name="question" unicode="?" horiz-adv-x="1026" 
d="M518 1454c132.667 0 241.331 -38.6689 325.998 -116.002s127 -176.666 127 -297.999c0 -51.333 -7.16699 -98.166 -21.5 -140.499s-33.166 -78.166 -56.499 -107.499s-48.833 -56.5 -76.5 -81.5s-55.667 -48.5 -84 -70.5s-54.166 -44.167 -77.499 -66.5
s-42.333 -48.5 -57 -78.5s-22.334 -62.667 -23.001 -98h-186c0 51.333 7 98.166 21 140.499s32.167 77.5 54.5 105.5s46.833 54 73.5 78s53.5 46.5 80.5 67.5s51.667 42.167 74 63.5s40.5 46.666 54.5 75.999s21 61.333 21 96c0 70.667 -23.333 128.334 -70 173.001
s-108 67 -184 67c-83.333 0 -151.833 -26.667 -205.5 -80s-82.167 -122.333 -85.5 -207l-190 20c3.33301 132.667 50.333 242 141 328s205.334 129 344.001 129zM488.997 -20.002c-39.333 0 -72.333 13.167 -99 39.5s-40 58.833 -40 97.5c0 38 13.5 70.333 40.5 97
s59.833 40 98.5 40s71.667 -13.333 99 -40s41 -59 41 -97c0 -38.667 -13.5 -71.167 -40.5 -97.5s-60.167 -39.5 -99.5 -39.5z" />
    <glyph glyph-name="at" unicode="@" horiz-adv-x="1869" 
d="M934 1317c133.333 0 253.328 -19.4961 359.995 -58.4961s194.167 -92.5 262.5 -160.5s120.5 -146.5 156.5 -235.5s54 -184.833 54 -287.5c0 -154.667 -28.333 -275.834 -85 -363.501s-134.667 -131.5 -234 -131.5c-110.667 0 -190 39 -238 117
c-33.333 -38.667 -77.833 -69.834 -133.5 -93.501s-113.5 -35.5 -173.5 -35.5c-112.667 0 -208.334 42 -287.001 126s-118 186.667 -118 308c0 120.667 39.333 222.834 118 306.501s174.334 125.5 287.001 125.5c42.667 0 87 -9.16699 133 -27.5s85.667 -41.833 119 -70.5
v82h156v-467c0 -82 11.5 -140.833 34.5 -176.5s59.167 -53.5 108.5 -53.5c52.667 0 94.5 32 125.5 96s46.5 150 46.5 258c0 61.333 -8.5 120.666 -25.5 177.999s-43.833 111.666 -80.5 162.999s-81.667 96 -135 134s-118.666 68.167 -195.999 90.5s-162.333 33.5 -255 33.5
c-129.333 0 -246.5 -29.833 -351.5 -89.5s-187.333 -141.834 -247 -246.501s-89.5 -221 -89.5 -349c0 -93.333 16.833 -181.166 50.5 -263.499s79.834 -152.833 138.501 -211.5s129.167 -105 211.5 -139s170.5 -51 264.5 -51c62.667 0 126.834 9.33301 192.501 28
s119.834 43.334 162.501 74.001l82 -119c-46.667 -36.667 -110.667 -66.5 -192 -89.5s-163 -34.5 -245 -34.5c-113.333 0 -220.166 20.667 -320.499 62s-186.166 97.5 -257.499 168.5s-127.666 156.5 -168.999 256.5s-62 206.333 -62 319c0 116 21.167 225.167 63.5 327.5
s100.166 190.166 173.499 263.499s161.666 131.166 264.999 173.499s213.333 63.5 330 63.5zM923.995 219.004c48 0 93.833 10.501 137.5 31.501s77.5 47.5 101.5 79.5c-5.33301 32.667 -8 73 -8 121v223c-22.667 31.333 -55.667 57.166 -99 77.499s-87.333 30.5 -132 30.5
c-77.333 0 -142.5 -27 -195.5 -81s-79.5 -120.333 -79.5 -199s26.833 -145.5 80.5 -200.5s118.5 -82.5 194.5 -82.5z" />
    <glyph glyph-name="A" unicode="A" horiz-adv-x="1361" 
d="M1124 0l-125 317h-643l-125 -317h-208l571 1434h170l575 -1434h-215zM432 506h494l-246 629z" />
    <glyph glyph-name="B" unicode="B" horiz-adv-x="1208" 
d="M145 0v1434h510c116 0 214.667 -35.833 296 -107.5s122 -157.5 122 -257.5c0 -73.333 -21.833 -139.666 -65.5 -198.999s-98.834 -96.666 -165.501 -111.999c86.667 -11.333 158.834 -51.166 216.501 -119.499s86.5 -148.166 86.5 -239.499
c0 -112 -41.5 -206.5 -124.5 -283.5s-184.167 -115.5 -303.5 -115.5h-572zM342 822.996h307c62.667 0 115.834 21 159.501 63s65.5 93.333 65.5 154c0 57.333 -21.833 105.833 -65.5 145.5s-96.834 59.5 -159.501 59.5h-307v-422zM342 187.996h363
c68.667 0 125.667 22.833 171 68.5s68 102.167 68 169.5c0 65.333 -23 121 -69 167s-102 69 -168 69h-365v-474z" />
    <glyph glyph-name="C" unicode="C" horiz-adv-x="1505" 
d="M1427 358c-39.333 -112.667 -115.663 -203.834 -228.996 -273.501s-242.333 -104.5 -387 -104.5c-102 0 -197.5 19 -286.5 57s-165.167 89.833 -228.5 155.5s-113.166 144.334 -149.499 236.001s-54.5 189.167 -54.5 292.5c0 82 11.5 160.333 34.5 235
s56.167 142 99.5 202s94.166 112.333 152.499 157s124.666 79 198.999 103s152.166 36 233.499 36c138 0 262.167 -32 372.5 -96s186.166 -147.333 227.499 -250l-176 -86c-34 73.333 -89.167 132 -165.5 176s-162.5 66 -258.5 66c-100 0 -189.333 -23.667 -268 -71
s-139.667 -112.333 -183 -195s-65 -175 -65 -277c0 -158.667 48.167 -290.167 144.5 -394.5s220.166 -156.5 371.499 -156.5c101.333 0 191.833 24.5 271.5 73.5s135.167 114.5 166.5 196.5z" />
    <glyph glyph-name="D" unicode="D" horiz-adv-x="1406" 
d="M604 1434c98.667 0 191.833 -17.999 279.5 -53.999s163.167 -85.167 226.5 -147.5s113.333 -137.666 150 -225.999s55 -182.833 55 -283.5c0 -102 -18.333 -197.833 -55 -287.5s-86.5 -166.334 -149.5 -230.001s-138.5 -113.834 -226.5 -150.501s-181.333 -55 -280 -55
h-459v1434h459zM615.999 188.001c142.667 0 261 50.834 355 152.501s141 229.167 141 382.5c0 151.333 -46.833 276.166 -140.5 374.499s-212.167 147.5 -355.5 147.5h-272v-1057h272z" />
    <glyph glyph-name="E" unicode="E" horiz-adv-x="1073" 
d="M145 1434h824v-189h-625v-393h557v-188h-557v-476h625v-188h-824v1434z" />
    <glyph glyph-name="F" unicode="F" horiz-adv-x="1040" 
d="M145 1434h824v-189h-625v-416h557v-188h-557v-641h-199v1434z" />
    <glyph glyph-name="G" unicode="G" horiz-adv-x="1529" 
d="M836 604v189h561v-553c-66 -82 -149.167 -145.833 -249.5 -191.5s-211.833 -68.5 -334.5 -68.5c-101.333 0 -196.666 19.167 -285.999 57.5s-165.833 90.333 -229.5 156s-113.834 144.5 -150.501 236.5s-55 189.667 -55 293s18.333 200.333 55 291
s86.834 168.167 150.501 232.5s139.834 115 228.501 152s183.667 55.5 285 55.5c137.333 0 261.333 -32 372 -96s186 -147.333 226 -250l-176 -86c-34 72.667 -89.167 131.167 -165.5 175.5s-161.833 66.5 -256.5 66.5c-150.667 0 -274.334 -50.667 -371.001 -152
s-145 -231 -145 -389c0 -159.333 49 -291 147 -395s221.667 -156 371 -156c157.333 0 285.666 44.333 384.999 133v299h-362z" />
    <glyph glyph-name="H" unicode="H" horiz-adv-x="1437" 
d="M1094 1434h198v-1434h-198v649h-750v-649h-199v1434h199v-596h750v596z" />
    <glyph glyph-name="I" unicode="I" horiz-adv-x="489" 
d="M145 1434h199v-1434h-199v1434z" />
    <glyph glyph-name="J" unicode="J" horiz-adv-x="636" 
d="M57 170c6.66699 -1.33301 17.666 -2.00098 32.999 -2.00098c70.667 0 123.834 21.5 159.501 64.5s53.5 110.833 53.5 203.5v998h199v-1047c0 -127.333 -32.333 -226.666 -97 -297.999s-152 -107 -262 -107c-34 0 -66.667 2 -98 6z" />
    <glyph glyph-name="K" unicode="K" horiz-adv-x="1296" 
d="M1253 0h-262l-649 711v-711h-197v1434h197v-639l600 639h252l-643 -680z" />
    <glyph glyph-name="L" unicode="L" horiz-adv-x="1118" 
d="M145 1434h199v-1246h705v-188h-904v1434z" />
    <glyph glyph-name="M" unicode="M" horiz-adv-x="1763" 
d="M145 0v1434h236l512 -1145l524 1145h201v-1434h-199v1042l-467 -1042h-145l-463 1042v-1042h-199z" />
    <glyph glyph-name="N" unicode="N" horiz-adv-x="1409" 
d="M145 1434h179l741 -1061v1061h197v-1434h-175l-743 1059v-1059h-199v1434z" />
    <glyph glyph-name="O" unicode="O" horiz-adv-x="1634" 
d="M817 1454c100.667 0 195.834 -18.833 285.501 -56.5s166.667 -89 231 -154s115.166 -142.833 152.499 -233.5s56 -187 56 -289c0 -103.333 -18.667 -200.833 -56 -292.5s-88.166 -170.334 -152.499 -236.001s-141.333 -117.5 -231 -155.5s-184.834 -57 -285.501 -57
c-101.333 0 -196.833 19 -286.5 57s-166.5 89.833 -230.5 155.5s-114.667 144.334 -152 236.001s-56 189.167 -56 292.5c0 136 31.5 260 94.5 372s150 200.167 261 264.5s234.167 96.5 369.5 96.5zM817 1264c-96.667 0 -184.998 -23.833 -264.998 -71.5
s-142.833 -113.167 -188.5 -196.5s-68.5 -175 -68.5 -275c0 -155.333 50.167 -286 150.5 -392s224.166 -159 371.499 -159s271.166 53 371.499 159s150.5 236.667 150.5 392c0 100 -22.833 191.667 -68.5 275s-108.5 148.833 -188.5 196.5s-168.333 71.5 -265 71.5z" />
    <glyph glyph-name="P" unicode="P" horiz-adv-x="1206" 
d="M696 1434c126 0 231 -40.5 315 -121.5s126 -182.5 126 -304.5s-42 -223.833 -126 -305.5s-189 -122.5 -315 -122.5h-352v-580h-199v1434h551zM696 768c68.667 0 126.5 23.1689 173.5 69.502s70.5 103.166 70.5 170.499s-23.5 123.666 -70.5 168.999
s-104.833 68 -173.5 68h-352v-477h352z" />
    <glyph glyph-name="Q" unicode="Q" horiz-adv-x="1652" 
d="M1546 0l-229 -0.000976562l-88 104c-120.667 -82.667 -258 -124 -412 -124c-101.333 0 -196.833 19 -286.5 57s-166.5 89.833 -230.5 155.5s-114.667 144.334 -152 236.001s-56 189.167 -56 292.5c0 136 31.5 260 94.5 372s150 200.167 261 264.5
s234.167 96.5 369.5 96.5c100.667 0 195.834 -18.833 285.501 -56.5s166.667 -89 231 -154s115.166 -142.833 152.499 -233.5s56 -187 56 -289c0 -195.333 -60.667 -362 -182 -500zM817 169.999c106.667 0 201.668 28.666 285.001 85.999l-340 408h227l240 -287
c73.333 98.667 110 213.334 110 344.001c0 100 -22.833 191.667 -68.5 275s-108.5 148.833 -188.5 196.5s-168.333 71.5 -265 71.5s-185 -23.833 -265 -71.5s-142.833 -113.167 -188.5 -196.5s-68.5 -175 -68.5 -275c0 -155.333 50.167 -286 150.5 -392
s224.166 -159 371.499 -159z" />
    <glyph glyph-name="R" unicode="R" horiz-adv-x="1261" 
d="M1206 0l-237 -0.000976562l-381 596h-244v-596h-199v1434h529c120.667 0 222.834 -40 306.501 -120s125.5 -178.667 125.5 -296c0 -103.333 -27.333 -191.166 -82 -263.499s-128.334 -120.5 -221.001 -144.5zM342 1245l2 -460.999h326
c68.667 0 125.334 22.167 170.001 66.5s67 100.166 67 167.499c0 65.333 -22.333 119.5 -67 162.5s-101.334 64.5 -170.001 64.5h-328z" />
    <glyph glyph-name="S" unicode="S" horiz-adv-x="1177" 
d="M588 1454c90 0 179.169 -18.1641 267.502 -54.4971s155.5 -82.833 201.5 -139.5l-117 -154c-44.667 48.667 -99.834 87.167 -165.501 115.5s-132.834 42.5 -201.501 42.5c-76 0 -138.333 -18 -187 -54s-73 -82.333 -73 -139c0 -36.667 9 -68.834 27 -96.501
s42.167 -50.334 72.5 -68.001s65 -33.334 104 -47.001s80.333 -26.667 124 -39s87.167 -25.5 130.5 -39.5s84.5 -31.333 123.5 -52s73.667 -44.834 104 -72.501s54.5 -63 72.5 -106s27 -92.167 27 -147.5c0 -56.667 -11.833 -110.667 -35.5 -162s-56.667 -96.333 -99 -135
s-95.166 -69.334 -158.499 -92.001s-132.333 -34 -207 -34c-105.333 0 -207 21 -305 63s-179.333 96.667 -244 164l125 147c130.667 -122.667 272 -184 424 -184c87.333 0 158.666 21.5 213.999 64.5s83 98.5 83 166.5c0 35.333 -8.83301 66.333 -26.5 93
s-41.667 48.167 -72 64.5s-65 31 -104 44s-80 25.333 -123 37s-86 24.334 -129 38.001s-84 30.834 -123 51.501s-73.667 44.667 -104 72s-54.333 62.833 -72 106.5s-26.5 93.5 -26.5 149.5c0 114 44.667 208.667 134 284s202.333 113 339 113z" />
    <glyph glyph-name="T" unicode="T" horiz-adv-x="1218" 
d="M1163 1434v-189h-454v-1245h-199v1245h-455v189h1108z" />
    <glyph glyph-name="U" unicode="U" horiz-adv-x="1396" 
d="M698 -20c-158.667 0 -290.5 53.333 -395.5 160s-157.5 240.334 -157.5 401.001v893h199v-893c0 -106 33.5 -194 100.5 -264s151.5 -105 253.5 -105s186.667 35 254 105s101 158 101 264v893h198v-893c0 -160.667 -52.5 -294.334 -157.5 -401.001
s-236.833 -160 -395.5 -160z" />
    <glyph glyph-name="V" unicode="V" horiz-adv-x="1310" 
d="M31 1434h211l415 -1125l416 1125h207l-541 -1434h-166z" />
    <glyph glyph-name="W" unicode="W" horiz-adv-x="2080" 
d="M1843 1434h209l-479 -1434h-168l-363 1114l-362 -1114h-168l-481 1434h209l360 -1115l363 1115h167l359 -1117z" />
    <glyph glyph-name="X" unicode="X" horiz-adv-x="1277" 
d="M1247 0h-233l-377 567l-377 -567h-229l491 739l-461 695h236l342 -516l344 516h231l-458 -691z" />
    <glyph glyph-name="Y" unicode="Y" horiz-adv-x="1304" 
d="M31 1434h239l389 -603l385 603h232l-520 -801v-633h-199v633z" />
    <glyph glyph-name="Z" unicode="Z" horiz-adv-x="1200" 
d="M102 1434h1022v-138l-805 -1108h814v-188h-1076v139l807 1106h-762v189z" />
    <glyph glyph-name="bracketleft" unicode="[" horiz-adv-x="667" 
d="M305 1458v-1677h301v-154h-475v1987h475v-156h-301z" />
    <glyph glyph-name="backslash" unicode="\" horiz-adv-x="851" 
d="M829 0h-200l-631 1434h201z" />
    <glyph glyph-name="bracketright" unicode="]" horiz-adv-x="673" 
d="M369 1458h-301v156h475v-1987h-475v154h301v1677z" />
    <glyph glyph-name="asciicircum" unicode="^" horiz-adv-x="1148" 
d="M1047 584h-195l-279 622l-278 -622h-193l400 870h147z" />
    <glyph glyph-name="underscore" unicode="_" horiz-adv-x="1110" 
d="M41 -197v177h1028v-177h-1028z" />
    <glyph glyph-name="grave" unicode="`" horiz-adv-x="604" 
d="M102 1413h230l170 -297h-178z" />
    <glyph glyph-name="a" unicode="a" horiz-adv-x="1220" 
d="M899 999l191 -0.00292969v-999h-191v145c-28 -47.333 -73.333 -86.666 -136 -117.999s-128.667 -47 -198 -47c-90.667 0 -173.334 22.833 -248.001 68.5s-133.167 108.334 -175.5 188.001s-63.5 167.5 -63.5 263.5s21.167 183.833 63.5 263.5
s100.833 142.334 175.5 188.001s157.334 68.5 248.001 68.5c70 0 136.5 -15.833 199.5 -47.5s107.833 -71.167 134.5 -118.5v145zM602 157.997c61.333 0 119.5 15.5 174.5 46.5s95.833 70.833 122.5 119.5v350c-26.667 49.333 -67.5 89.666 -122.5 120.999
s-113.167 47 -174.5 47c-96.667 0 -177.5 -32.5 -242.5 -97.5s-97.5 -146.5 -97.5 -244.5c0 -97.333 32.5 -178.666 97.5 -243.999s145.833 -98 242.5 -98z" />
    <glyph glyph-name="b" unicode="b" horiz-adv-x="1220" 
d="M655 1020c90.667 0 173.335 -22.8301 248.002 -68.4971s133.334 -108.334 176.001 -188.001s64 -167.5 64 -263.5s-21.333 -183.833 -64 -263.5s-101.334 -142.334 -176.001 -188.001s-157.334 -68.5 -248.001 -68.5c-68.667 0 -134.334 15.667 -197.001 47
s-108 70.666 -136 117.999v-145h-191v1434h191v-580c26.667 47.333 71.5 86.833 134.5 118.5s129.167 47.5 198.5 47.5zM618.001 158.003c96.667 0 177.501 32.667 242.501 98s97.5 146.666 97.5 243.999c0 98 -32.5 179.5 -97.5 244.5s-145.833 97.5 -242.5 97.5
c-61.333 0 -119.333 -15.667 -174 -47s-95.334 -71.666 -122.001 -120.999v-350c26.667 -48.667 67.5 -88.5 122.5 -119.5s112.833 -46.5 173.5 -46.5z" />
    <glyph glyph-name="c" unicode="c" horiz-adv-x="1101" 
d="M1051 246c-39.333 -81.333 -99.4971 -145.999 -180.497 -193.999s-172.5 -72 -274.5 -72c-96 0 -183.667 22.667 -263 68s-141.666 107.666 -186.999 186.999s-68 167 -68 263c0 96.667 22.667 185 68 265s107.666 142.833 186.999 188.5s167 68.5 263 68.5
s182.167 -22.167 258.5 -66.5s132.166 -103.5 167.499 -177.5l-162 -88c-20.667 46 -54.834 82.833 -102.501 110.5s-101.5 41.5 -161.5 41.5c-94.667 0 -174 -32.833 -238 -98.5s-96 -146.834 -96 -243.501c0 -95.333 32 -175.5 96 -240.5s143.333 -97.5 238 -97.5
c64.667 0 122.667 14.333 174 43s89.666 68.334 114.999 119.001z" />
    <glyph glyph-name="d" unicode="d" horiz-adv-x="1220" 
d="M899 1434l191 -0.00292969v-1434h-191v145c-28 -47.333 -73.333 -86.666 -136 -117.999s-128.667 -47 -198 -47c-90.667 0 -173.334 22.833 -248.001 68.5s-133.167 108.334 -175.5 188.001s-63.5 167.5 -63.5 263.5s21.167 183.833 63.5 263.5
s100.833 142.334 175.5 188.001s157.334 68.5 248.001 68.5c70 0 136.5 -15.833 199.5 -47.5s107.833 -71.167 134.5 -118.5v580zM602 157.997c61.333 0 119.5 15.5 174.5 46.5s95.833 70.833 122.5 119.5v350c-26.667 49.333 -67.5 89.666 -122.5 120.999
s-113.167 47 -174.5 47c-96.667 0 -177.5 -32.5 -242.5 -97.5s-97.5 -146.5 -97.5 -244.5c0 -97.333 32.5 -178.666 97.5 -243.999s145.833 -98 242.5 -98z" />
    <glyph glyph-name="e" unicode="e" horiz-adv-x="1142" 
d="M1065 543c0 -18.667 -1.33203 -44.668 -3.99902 -78.001h-799c8.66699 -96 43.5 -172.5 104.5 -229.5s137.5 -85.5 229.5 -85.5c63.333 0 121.333 13.333 174 40s91.667 62.334 117 107.001l151 -98c-38 -68 -96.667 -121.5 -176 -160.5s-170 -58.5 -272 -58.5
c-70 0 -136.667 13.333 -200 40s-117.833 63.167 -163.5 109.5s-81.834 102 -108.501 167s-40 134.167 -40 207.5c0 94.667 22.333 181.5 67 260.5s106.167 141.333 184.5 187s164.5 68.5 258.5 68.5c134 0 247 -46 339 -138s138 -205 138 -339zM270.001 607.999h599.999
c-6 74.667 -36 135.667 -90 183s-120.667 71 -200 71c-78.667 0 -145.667 -23 -201 -69s-91.666 -107.667 -108.999 -185z" />
    <glyph glyph-name="f" unicode="f" horiz-adv-x="720" 
d="M606 1298c-57.333 0 -104.333 -18.334 -141 -55.001s-55 -87 -55 -151v-93h270v-180h-270v-819h-189v819h-194v180h194v101c0 116.667 33.167 208.334 99.5 275.001s153.5 100 261.5 100c38 0 74 -7 108 -21l-10 -166c-22 6.66699 -46.667 10 -74 10z" />
    <glyph glyph-name="g" unicode="g" horiz-adv-x="1220" 
d="M899 999l191.001 0.00292969v-964c0 -136 -45.667 -245.833 -137 -329.5s-208.333 -125.5 -351 -125.5c-90 0 -176.333 15.333 -259 46s-145 72 -187 124l96 129c38 -40.667 87.5 -72.334 148.5 -95.001s126.833 -34 197.5 -34c86.667 0 158.5 27 215.5 81
s85.5 122.667 85.5 206v123c-28 -46.667 -73.5 -85.334 -136.5 -116.001s-128.833 -46 -197.5 -46c-90.667 0 -173.334 22.5 -248.001 67.5s-133.167 106.667 -175.5 185s-63.5 164.833 -63.5 259.5c0 70.667 12.5 137.5 37.5 200.5s59 117.167 102 162.5
s94.667 81.166 155 107.499s124.5 39.5 192.5 39.5c70 0 136.5 -15.5 199.5 -46.5s107.833 -70.167 134.5 -117.5v143zM602.001 174.003c61.333 0 119.5 15.168 174.5 45.501s95.833 69.166 122.5 116.499v344c-26.667 48 -67.5 87.333 -122.5 118s-113.167 46 -174.5 46
c-96.667 0 -177.5 -31.667 -242.5 -95s-97.5 -143 -97.5 -239s32.5 -176 97.5 -240s145.833 -96 242.5 -96z" />
    <glyph glyph-name="h" unicode="h" horiz-adv-x="1187" 
d="M647 1020c124 0 223.333 -40.833 298 -122.5s112 -190.5 112 -326.5v-571h-189v545c0 87.333 -24.167 157.333 -72.5 210s-112.166 79 -191.499 79c-58 0 -112 -14.167 -162 -42.5s-90 -66.833 -120 -115.5v-676h-191v1434h191v-578c33.333 49.333 79.166 89 137.499 119
s120.833 45 187.5 45z" />
    <glyph glyph-name="i" unicode="i" horiz-adv-x="452" 
d="M227 1448c34 0 63.667 -12.667 89 -38s38 -55 38 -89c0 -34.667 -12.667 -64.5 -38 -89.5s-55 -37.5 -89 -37.5c-35.333 0 -65.333 12.333 -90 37s-37 54.667 -37 90c0 34 12.5 63.667 37.5 89s54.833 38 89.5 38zM131 999h191v-999h-191v999z" />
    <glyph glyph-name="j" unicode="j" horiz-adv-x="452" 
d="M227 1448c34 0 63.667 -12.667 89 -38s38 -55 38 -89c0 -34.667 -12.667 -64.5 -38 -89.5s-55 -37.5 -89 -37.5c-35.333 0 -65.333 12.333 -90 37s-37 54.667 -37 90c0 34 12.5 63.667 37.5 89s54.833 38 89.5 38zM-25 -231c6.66699 -1.33301 16.333 -2 29 -2
c84.667 0 127 60.667 127 182v1050h191v-1067c0 -109.333 -26.333 -193.333 -79 -252s-127 -88 -223 -88c-16 0 -35.667 2.33301 -59 7z" />
    <glyph glyph-name="k" unicode="k" horiz-adv-x="1062" 
d="M1032 0h-248l-462 477v-477h-191v1434h191v-873l442 438h235l-489 -479z" />
    <glyph glyph-name="l" unicode="l" horiz-adv-x="452" 
d="M322 1434v-1434h-191v1434h191z" />
    <glyph glyph-name="m" unicode="m" horiz-adv-x="1832" 
d="M1292 1020c122.667 0 221.333 -37.666 296 -112.999s112 -176.333 112 -303v-604h-189v571c0 84 -22.333 150.5 -67 199.5s-105.334 73.5 -182.001 73.5c-50.667 0 -100.167 -15.167 -148.5 -45.5s-85.833 -67.833 -112.5 -112.5c4 -16.667 7 -36.334 9 -59.001v-627
h-189v571c0 83.333 -22.5 149.666 -67.5 198.999s-104.5 74 -178.5 74c-55.333 0 -105.333 -14.167 -150 -42.5s-79 -66.166 -103 -113.499v-688h-191v999h191v-141c30 44 71.167 82 123.5 114s115.5 48 189.5 48c148.667 0 254.334 -59.333 317.001 -178
c38 50.667 86.5 93 145.5 127s123.833 51 194.5 51z" />
    <glyph glyph-name="n" unicode="n" horiz-adv-x="1189" 
d="M647 1020c124.667 0 224.167 -40.833 298.5 -122.5s111.5 -190.5 111.5 -326.5v-571h-189v545c0 88 -24 158.167 -72 210.5s-112 78.5 -192 78.5c-58 0 -112.667 -14.5 -164 -43.5s-90.666 -67.833 -117.999 -116.5v-674h-191v999h191v-145
c30.667 50 75.667 90.167 135 120.5s122.666 45.5 189.999 45.5z" />
    <glyph glyph-name="o" unicode="o" horiz-adv-x="1187" 
d="M594 1020c95.333 0 182.334 -22.8311 261.001 -68.498s140.834 -108.5 186.501 -188.5s68.5 -168.333 68.5 -265c0 -146 -49.833 -268.833 -149.5 -368.5s-221.834 -149.5 -366.501 -149.5c-95.333 0 -182.5 22.667 -261.5 68s-141.167 107.666 -186.5 186.999
s-68 167 -68 263c0 147.333 49.667 271.166 149 371.499s221.666 150.5 366.999 150.5zM594.001 840.002c-94 0 -172.833 -32.667 -236.5 -98s-95.5 -146.666 -95.5 -243.999c0 -95.333 31.833 -175.5 95.5 -240.5s142.5 -97.5 236.5 -97.5c93.333 0 172 32.667 236 98
s96 145.333 96 240c0 97.333 -32 178.666 -96 243.999s-142.667 98 -236 98z" />
    <glyph glyph-name="p" unicode="p" horiz-adv-x="1220" 
d="M655 1020c90.667 0 173.333 -22.8301 248 -68.4971s133.334 -108.334 176.001 -188.001s64 -167.5 64 -263.5s-21.333 -183.833 -64 -263.5s-101.334 -142.334 -176.001 -188.001s-157.334 -68.5 -248.001 -68.5c-69.333 0 -135.5 15.667 -198.5 47
s-107.833 70.666 -134.5 117.999v-510h-191v1364h191v-145c28 47.333 73.333 86.833 136 118.5s128.334 47.5 197.001 47.5zM617.999 158.003c96.667 0 177.499 32.5 242.499 97.5s97.5 146.5 97.5 244.5c0 97.333 -32.5 178.666 -97.5 243.999s-145.833 98 -242.5 98
c-60.667 0 -118.5 -15.5 -173.5 -46.5s-95.833 -70.833 -122.5 -119.5v-350c26.667 -49.333 67.334 -89.666 122.001 -120.999s112.667 -47 174 -47z" />
    <glyph glyph-name="q" unicode="q" horiz-adv-x="1220" 
d="M899 999l191 -0.00292969v-1364h-191v510c-26.667 -47.333 -71.5 -86.666 -134.5 -117.999s-129.5 -47 -199.5 -47c-90.667 0 -173.334 22.833 -248.001 68.5s-133.167 108.334 -175.5 188.001s-63.5 167.5 -63.5 263.5s21.167 183.833 63.5 263.5
s100.833 142.334 175.5 188.001s157.334 68.5 248.001 68.5c68.667 0 134.5 -15.833 197.5 -47.5s108.5 -71.167 136.5 -118.5v145zM602 157.997c61.333 0 119.5 15.667 174.5 47s95.833 71.666 122.5 120.999v350c-26.667 48.667 -67.5 88.5 -122.5 119.5
s-113.167 46.5 -174.5 46.5c-96.667 0 -177.5 -32.667 -242.5 -98s-97.5 -146.666 -97.5 -243.999c0 -98 32.5 -179.5 97.5 -244.5s145.833 -97.5 242.5 -97.5z" />
    <glyph glyph-name="r" unicode="r" horiz-adv-x="739" 
d="M584 1020c34.667 0 71.335 -5.33301 110.002 -16l-10 -179c-34.667 12.667 -72.334 19 -113.001 19c-43.333 0 -88.5 -16.167 -135.5 -48.5s-84.833 -75.5 -113.5 -129.5v-666h-191v999h191v-145c27.333 49.333 65.666 89.333 114.999 120s98.333 46 147 46z" />
    <glyph glyph-name="s" unicode="s" horiz-adv-x="937" 
d="M479 -20c-78 0 -154.832 12.998 -230.499 38.998s-137.5 60.667 -185.5 104l78 141c38.667 -37.333 89.667 -67.833 153 -91.5s124.333 -35.5 183 -35.5c57.333 0 104.166 12.833 140.499 38.5s54.5 57.834 54.5 96.501c0 30 -10.667 55 -32 75s-49 35.5 -83 46.5
s-71.5 21 -112.5 30s-82 20 -123 33s-78.5 29 -112.5 48s-61.667 46.333 -83 82s-32 78.5 -32 128.5c0 90.667 35 164.167 105 220.5s161.333 84.5 274 84.5c70 0 137.5 -11 202.5 -33s118.5 -53.333 160.5 -94l-82 -143c-34.667 34 -81 60.833 -139 80.5
s-111.333 29.5 -160 29.5c-52 0 -93.667 -11.833 -125 -35.5s-47 -54.834 -47 -93.501c0 -27.333 10.667 -50.166 32 -68.499s49 -33 83 -44s71.5 -21.333 112.5 -31s82.167 -21.667 123.5 -36s79 -31.833 113 -52.5s61.667 -49.667 83 -87s32 -81.666 32 -132.999
c0 -86.667 -35.667 -158.167 -107 -214.5s-163.333 -84.5 -276 -84.5z" />
    <glyph glyph-name="t" unicode="t" horiz-adv-x="751" 
d="M680 174l10 -166.001c-32 -13.333 -68 -20 -108 -20c-108 0 -195.167 32.833 -261.5 98.5s-99.5 156.834 -99.5 273.501v459h-194v180h194v271h189v-271h270v-180h-270v-450c0 -63.333 18.333 -113.333 55 -150s83.667 -55 141 -55c27.333 0 52 3.33301 74 10z" />
    <glyph glyph-name="u" unicode="u" horiz-adv-x="1189" 
d="M868 999h188.999v-999h-189v145c-30.667 -50 -75.667 -90 -135 -120s-123.333 -45 -192 -45c-124 0 -223.333 40.667 -298 122s-112 189.333 -112 324v573h191v-544c0 -88 23.833 -158.167 71.5 -210.5s111.167 -78.5 190.5 -78.5c58.667 0 113.834 14.5 165.501 43.5
s91.167 67.833 118.5 116.5v673z" />
    <glyph glyph-name="v" unicode="v" horiz-adv-x="1069" 
d="M1038 999l-422 -999h-163l-422 999h205l299 -753l296 753h207z" />
    <glyph glyph-name="w" unicode="w" horiz-adv-x="1611" 
d="M393 0l-362 999h200l240 -714l254 714h158l258 -714l237 714h203l-364 -999h-152l-260 717l-262 -717h-150z" />
    <glyph glyph-name="x" unicode="x" horiz-adv-x="1044" 
d="M1006 0h-228l-258 358l-258 -358h-223l371 516l-349 483h226l235 -325l234 325h225l-346 -483z" />
    <glyph glyph-name="y" unicode="y" horiz-adv-x="1062" 
d="M829 999h203l-571 -1364h-203l176 400l-403 964h202l297 -745z" />
    <glyph glyph-name="z" unicode="z" horiz-adv-x="1026" 
d="M940 999v-139l-616 -684l618 4v-180h-883v139l619 684l-576 -4v180h838z" />
    <glyph glyph-name="braceleft" unicode="{" horiz-adv-x="813" 
d="M616 -373c-113.333 0 -204 34.8301 -272 104.497s-102 164.5 -102 284.5v326c0 48.667 -18.333 92.834 -55 132.501s-85.334 67.834 -146.001 84.501v121c60.667 16 109.334 44.167 146.001 84.5s55 84.5 55 132.5v328c0 119.333 34 213.666 102 282.999
s158.667 104.666 272 105.999h136v-156h-136c-61.333 0 -111.333 -21.333 -150 -64s-58 -99 -58 -169v-314c0 -61.333 -15.167 -117.666 -45.5 -168.999s-70.5 -91.666 -120.5 -120.999c50.667 -31.333 91 -72.666 121 -123.999s45 -107 45 -167v-314
c0 -70.667 19.333 -127.5 58 -170.5s88.667 -64.5 150 -64.5h136v-154h-136z" />
    <glyph glyph-name="bar" unicode="|" horiz-adv-x="460" 
d="M131 1638h199v-2003h-199v2003z" />
    <glyph glyph-name="braceright" unicode="}" horiz-adv-x="813" 
d="M197 -373l-136 -0.00292969v154h136c61.333 0 111.5 21.5 150.5 64.5s58.5 99.833 58.5 170.5v314c0 60 15.167 115.667 45.5 167s70.166 92.666 119.499 123.999c-49.333 29.333 -89.166 69.833 -119.499 121.5s-45.5 107.834 -45.5 168.501v314
c0 70 -19.5 126.333 -58.5 169s-89.167 64 -150.5 64h-136v156h136c113.333 -1.33301 204 -36.666 272 -105.999s102 -163.666 102 -282.999v-328c0 -47.333 18.5 -91.166 55.5 -131.499s85.5 -68.833 145.5 -85.5v-121c-60 -16.667 -108.5 -45 -145.5 -85
s-55.5 -84 -55.5 -132v-326c0 -120 -34 -214.833 -102 -284.5s-158.667 -104.5 -272 -104.5z" />
    <glyph glyph-name="asciitilde" unicode="~" horiz-adv-x="1185" 
d="M293 487l-162.003 20.999c11.333 92.667 40.333 165.334 87 218.001s104.334 79 173.001 79c32.667 0 68.5 -7 107.5 -21s73.5 -29.5 103.5 -46.5s61.333 -32.5 94 -46.5s59.334 -21 80.001 -21c62.667 0 101 50.333 115 151l164 -20
c-13.333 -92.667 -43.5 -165.667 -90.5 -219s-104.167 -80 -171.5 -80c-31.333 0 -66 7.16699 -104 21.5s-71.5 30 -100.5 47s-60.167 32.667 -93.5 47s-61.666 21.5 -84.999 21.5c-62 0 -101 -50.667 -117 -152z" />
    <glyph glyph-name="uni00A0" unicode="&#xa0;" horiz-adv-x="471" 
 />
    <glyph glyph-name="exclamdown" unicode="&#xa1;" horiz-adv-x="507" 
d="M254 1454c39.333 0 72.333 -13.167 99 -39.5s40 -58.833 40 -97.5c0 -38 -13.5 -70.333 -40.5 -97s-59.833 -40 -98.5 -40c-40 0 -73.167 13.333 -99.5 40s-39.5 59 -39.5 97c0 39.333 13.167 72 39.5 98s59.5 39 99.5 39zM152 0l8 1034h188l8 -1034h-204z" />
    <glyph glyph-name="cent" unicode="&#xa2;" horiz-adv-x="1101" 
d="M1051 246c-34 -69.333 -83.3301 -126.831 -147.997 -172.498s-138.334 -74.834 -221.001 -87.501v-232h-188v236c-122 22.667 -221.833 81 -299.5 175s-116.5 205 -116.5 333c0 129.333 38.833 241.333 116.5 336s177.5 153.334 299.5 176.001v235h188v-231
c77.333 -12.667 146 -39.834 206 -81.501s104.667 -93.834 134 -156.501l-162 -88c-20.667 46 -54.834 82.833 -102.501 110.5s-101.5 41.5 -161.5 41.5c-94.667 0 -174 -32.833 -238 -98.5s-96 -146.834 -96 -243.501c0 -95.333 32 -175.5 96 -240.5
s143.333 -97.5 238 -97.5c64.667 0 122.667 14.333 174 43s89.666 68.334 114.999 119.001z" />
    <glyph glyph-name="sterling" unicode="&#xa3;" horiz-adv-x="1236" 
d="M520 514c0 -139.333 -50.335 -248 -151.002 -326h766v-188h-990v188c118 74 177 181.333 177 322v131h-164v162h164v213c0 129.333 38.333 234.666 115 315.999s178 122 304 122c103.333 0 194 -28.667 272 -86s125.333 -131.666 142 -222.999l-188 -60
c-7.33301 54 -33.166 97.333 -77.499 130s-92.5 49 -144.5 49c-69.333 0 -124.166 -25.833 -164.499 -77.5s-60.5 -119.5 -60.5 -203.5v-180h377v-162h-377v-127z" />
    <glyph glyph-name="currency" unicode="&#xa4;" horiz-adv-x="1593" 
d="M1360 721c0 -120.667 -34.333 -226.668 -103 -318.001l205 -202l-143 -142l-203 203c-94.667 -68 -199.667 -102 -315 -102c-120 0 -227.333 34.667 -322 104l-205 -205l-143 142l207 205c-70 93.333 -105 198.333 -105 315c0 119.333 35.667 225 107 317l-209 207
l143 141l207 -206c91.333 70.667 198 106 320 106c117.333 0 222.333 -34.667 315 -104l203 204l143 -141l-205 -205c68.667 -91.333 103 -197.666 103 -318.999zM801 343.999c104.667 0 193.334 36.5 266.001 109.5s109 162.167 109 267.5
c0 106.667 -36.333 196.834 -109 270.501s-161.334 110.5 -266.001 110.5s-194.667 -37.333 -270 -112s-113 -164.334 -113 -269.001c0 -103.333 37.667 -192 113 -266s165.333 -111 270 -111z" />
    <glyph glyph-name="yen" unicode="&#xa5;" horiz-adv-x="1304" 
d="M1276 1434l-434 -670h299v-162h-385v-602h-199v602h-391v162h305l-440 670h239l389 -603l385 603h232z" />
    <glyph glyph-name="brokenbar" unicode="&#xa6;" horiz-adv-x="460" 
d="M131 883v755h199v-755h-199zM131 -365v756h199v-756h-199z" />
    <glyph glyph-name="section" unicode="&#xa7;" horiz-adv-x="1314" 
d="M1061 223c64 -57.333 95.9902 -137.664 95.9902 -240.997c0 -106.667 -44.667 -198.667 -134 -276s-205.666 -116 -348.999 -116c-102.667 0 -200.667 20.333 -294 61s-171.666 92.667 -234.999 156l119 138c129.333 -116 266 -174 410 -174
c86 0 156.333 19.833 211 59.5s82 89.5 82 149.5c0 35.333 -8.83301 65.833 -26.5 91.5s-41.167 46 -70.5 61s-63.333 28.167 -102 39.5s-79.167 21.666 -121.5 30.999s-84.666 19.5 -126.999 30.5s-82.833 25.5 -121.5 43.5s-72.667 39.5 -102 64.5
s-52.833 57.667 -70.5 98s-26.5 87.166 -26.5 140.499c0 96.667 35.333 180.334 106 251.001c-64 59.333 -96 139.333 -96 240c0 108 43 197.833 129 269.5s194.667 107.5 326 107.5c86.667 0 172.667 -17.333 258 -52s150 -78.667 194 -132l-112 -144
c-42 45.333 -95.167 81.666 -159.5 108.999s-129.5 41 -195.5 41c-72.667 0 -133.167 -17.667 -181.5 -53s-72.5 -79.333 -72.5 -132c0 -35.333 8.83301 -65.833 26.5 -91.5s41.334 -46.167 71.001 -61.5s63.834 -28.833 102.501 -40.5s79.334 -22.334 122.001 -32.001
s85.334 -20 128.001 -31s83.334 -25.5 122.001 -43.5s72.834 -39.333 102.501 -64s53.334 -57 71.001 -97s26.5 -86.333 26.5 -139c0 -46 -9.16699 -92 -27.5 -138s-44.5 -87.333 -78.5 -124zM378.99 582.002c0 -33.333 7.83301 -62.3311 23.5 -86.998s35.5 -44 59.5 -58
s54.5 -26.833 91.5 -38.5s72.667 -20.834 107 -27.501s74 -15.334 119 -26.001s83.5 -21.334 115.5 -32.001c26.667 21.333 48.334 48.333 65.001 81s25 66 25 100c0 38 -10 69.667 -30 95s-49.167 45.166 -87.5 59.499s-76.833 25.833 -115.5 34.5
s-85.834 18.334 -141.501 29.001s-101.5 21.667 -137.5 33c-26.667 -17.333 -49 -40.666 -67 -69.999s-27 -60.333 -27 -93z" />
    <glyph glyph-name="dieresis" unicode="&#xa8;" horiz-adv-x="811" 
d="M229 1448c34.667 0 64.832 -12.667 90.499 -38s38.5 -55 38.5 -89c0 -34.667 -12.667 -64.5 -38 -89.5s-55.666 -37.5 -90.999 -37.5s-65.333 12.333 -90 37s-37 54.667 -37 90c0 34 12.5 63.667 37.5 89s54.833 38 89.5 38zM579.998 1448
c34.667 0 64.832 -12.667 90.499 -38s38.5 -55 38.5 -89c0 -34.667 -12.667 -64.5 -38 -89.5s-55.666 -37.5 -90.999 -37.5c-34.667 0 -64.5 12.333 -89.5 37s-37.5 54.667 -37.5 90c0 34 12.5 63.667 37.5 89s54.833 38 89.5 38z" />
    <glyph glyph-name="copyright" unicode="&#xa9;" horiz-adv-x="1656" 
d="M827 -20c-132 0 -254.5 33 -367.5 99s-202.5 155.5 -268.5 268.5s-99 236.167 -99 369.5s33 256.5 99 369.5s155.5 202.5 268.5 268.5s235.5 99 367.5 99c100 0 195.667 -19.5 287 -58.5s170.166 -91.5 236.499 -157.5s119 -144.333 158 -235s58.5 -186 58.5 -286
s-19.5 -195.333 -58.5 -286s-91.667 -169 -158 -235s-145.166 -118.5 -236.499 -157.5s-187 -58.5 -287 -58.5zM829 66c87.333 0 171 17.333 251 52s149 81 207 139s104.167 127.167 138.5 207.5s51.5 164.5 51.5 252.5s-17.167 172.167 -51.5 252.5
s-80.5 149.5 -138.5 207.5s-127 104.333 -207 139s-163.667 52 -251 52c-116.667 0 -224.834 -29.167 -324.501 -87.5s-178.667 -137.5 -237 -237.5s-87.5 -208.667 -87.5 -326s29.167 -226 87.5 -326s137.333 -179.167 237 -237.5s207.834 -87.5 324.501 -87.5zM1192 514
c-22.667 -65.333 -66.832 -118.165 -132.499 -158.498s-140.167 -60.5 -223.5 -60.5c-118.667 0 -217.334 40.667 -296.001 122s-118 182.666 -118 303.999c0 119.333 39.333 219.5 118 300.5s177.334 121.5 296.001 121.5c80 0 152 -18.833 216 -56.5
s107.333 -86.5 130 -146.5l-111 -53c-18.667 41.333 -49 74.5 -91 99.5s-90 37.5 -144 37.5c-83.333 0 -152 -28.833 -206 -86.5s-81 -129.834 -81 -216.501c0 -88 27 -161.167 81 -219.5s122.667 -87.5 206 -87.5c56 0 106.167 13.833 150.5 41.5
s75.166 64.167 92.499 109.5z" />
    <glyph glyph-name="ordfeminine" unicode="&#xaa;" horiz-adv-x="720" 
d="M520 1440h125v-600h-125v69c-18 -23.333 -43.833 -42.833 -77.5 -58.5s-68.5 -23.5 -104.5 -23.5c-82.667 0 -152.167 30.5 -208.5 91.5s-84.5 135.167 -84.5 222.5s28.333 161 85 221s126 90 208 90c36 0 71 -7.66699 105 -23s59.667 -35 77 -59v70zM358 946
c32.667 0 63.833 7.66504 93.5 22.998s52.5 35 68.5 59v223c-16 24.667 -39.5 44.834 -70.5 60.501s-61.5 23.5 -91.5 23.5c-54.667 0 -100.334 -18.5 -137.001 -55.5s-55 -83.167 -55 -138.5s18.333 -101.666 55 -138.999s82.334 -56 137.001 -56z" />
    <glyph glyph-name="guillemotleft" unicode="&#xab;" horiz-adv-x="1357" 
d="M664 74l-568 418v129l568 419v-198l-394 -285l394 -283v-200zM1243 74l-567 418v129l567 419v-198l-393 -285l393 -283v-200z" />
    <glyph glyph-name="logicalnot" unicode="&#xac;" horiz-adv-x="1193" 
d="M1061 735v-604h-178v426h-752v178h930z" />
    <glyph glyph-name="uni00AD" unicode="&#xad;" horiz-adv-x="679" 
d="M51 440v176h578v-176h-578z" />
    <glyph glyph-name="registered" unicode="&#xae;" horiz-adv-x="1656" 
d="M827 1454c100 0 195.667 -19.5 287 -58.5s170.166 -91.5 236.499 -157.5s119 -144.333 158 -235s58.5 -186 58.5 -286s-19.5 -195.333 -58.5 -286s-91.667 -169 -158 -235s-145.166 -118.5 -236.499 -157.5s-187 -58.5 -287 -58.5c-132 0 -254.5 33 -367.5 99
s-202.5 155.5 -268.5 268.5s-99 236.167 -99 369.5s33 256.5 99 369.5s155.5 202.5 268.5 268.5s235.5 99 367.5 99zM829 66c87.333 0 171 17.333 251 52s149 81 207 139s104.167 127.167 138.5 207.5s51.5 164.5 51.5 252.5s-17.167 172.167 -51.5 252.5
s-80.5 149.5 -138.5 207.5s-127 104.333 -207 139s-163.667 52 -251 52c-116.667 0 -224.834 -29.167 -324.501 -87.5s-178.667 -137.5 -237 -237.5s-87.5 -208.667 -87.5 -326s29.167 -226 87.5 -326s137.333 -179.167 237 -237.5s207.834 -87.5 324.501 -87.5zM1116 889
c0 -58 -15 -107.5 -45 -148.5s-71 -69.5 -123 -85.5l230 -348h-150l-213 338h-133v-338h-125v826h307c70 0 129.5 -23.667 178.5 -71s73.5 -105 73.5 -173zM682 1012v-248h180c37.333 0 68.166 11.833 92.499 35.5s36.5 53.5 36.5 89.5s-12.167 65.5 -36.5 88.5
s-55.166 34.5 -92.499 34.5h-180z" />
    <glyph glyph-name="macron" unicode="&#xaf;" horiz-adv-x="860" 
d="M102 1139v153h656v-153h-656z" />
    <glyph glyph-name="degree" unicode="&#xb0;" horiz-adv-x="825" 
d="M709 1159c0 -82.667 -29.333 -153.5 -88 -212.5s-129 -88.5 -211 -88.5s-152 29.333 -210 88s-87 129.667 -87 213c0 81.333 29 150.833 87 208.5s128 86.5 210 86.5s152.333 -29 211 -87s88 -127.333 88 -208zM586 1159c0 46.667 -17.333 87 -52 121s-76 51 -124 51
s-89.5 -17 -124.5 -51s-52.5 -74.333 -52.5 -121c0 -48.667 17.5 -90.5 52.5 -125.5s76.5 -52.5 124.5 -52.5s89.333 17.5 124 52.5s52 76.833 52 125.5z" />
    <glyph glyph-name="plusminus" unicode="&#xb1;" horiz-adv-x="1189" 
d="M682 883h375v-176h-375v-375h-176v375h-375v176h375v374h176v-374zM131 0v176h926v-176h-926z" />
    <glyph glyph-name="twosuperior" unicode="&#xb2;" horiz-adv-x="661" 
d="M39 573v95l301 305c48 48 81.833 87.167 101.5 117.5s29.5 61.5 29.5 93.5c0 40 -13.833 72.833 -41.5 98.5s-62.834 38.5 -105.501 38.5c-50 0 -90.667 -16 -122 -48s-46 -75.333 -44 -130l-131 10c0.666992 85.333 29.334 155.5 86.001 210.5s127 82.5 211 82.5
c80.667 0 147.5 -24.5 200.5 -73.5s79.5 -111.167 79.5 -186.5c0 -48 -14.667 -95.667 -44 -143s-72 -97.333 -128 -150l-186 -195h364v-125h-571z" />
    <glyph glyph-name="threesuperior" unicode="&#xb3;" horiz-adv-x="667" 
d="M199 1071l217.001 240h-369v123h555v-88l-240 -252h23c66.667 0 123 -23.5 169 -70.5s69 -105.5 69 -175.5c0 -82.667 -28.333 -151.167 -85 -205.5s-128.667 -81.5 -216 -81.5c-76.667 0 -143.334 21.667 -200.001 65s-90.667 98.333 -102 165l117 40
c8.66699 -43.333 30.5 -78.333 65.5 -105s74.833 -40 119.5 -40c48.667 0 88.667 15.667 120 47s47 71 47 119c0 45.333 -15.833 81.5 -47.5 108.5s-70.834 40.5 -117.501 40.5c-27.333 0 -54.666 -4.66699 -81.999 -14z" />
    <glyph glyph-name="acute" unicode="&#xb4;" horiz-adv-x="604" 
d="M502 1413l-223 -297h-177l168 297h232z" />
    <glyph glyph-name="mu" unicode="&#xb5;" horiz-adv-x="1189" 
d="M868 999h188.999v-999h-189v145c-30.667 -50 -75.667 -90 -135 -120s-123.333 -45 -192 -45c-83.333 0 -156.333 19 -219 57v-402h-191v1364h191v-544c0 -88 23.833 -158.167 71.5 -210.5s111.167 -78.5 190.5 -78.5c58.667 0 113.834 14.5 165.501 43.5
s91.167 67.833 118.5 116.5v673z" />
    <glyph glyph-name="paragraph" unicode="&#xb6;" horiz-adv-x="1454" 
d="M1399 1434v-189h-174v-1610h-189v1610h-198v-1610h-189v945h-135c-126 0 -231.5 41.167 -316.5 123.5s-127.5 184.5 -127.5 306.5c0 120 42.167 220.667 126.5 302s188.833 122 313.5 122h889zM649 768v477h-143c-66.667 0 -123.334 -22.833 -170.001 -68.5
s-70 -101.167 -70 -166.5c0 -67.333 23.333 -124.5 70 -171.5s103.334 -70.5 170.001 -70.5h143z" />
    <glyph glyph-name="periodcentered" unicode="&#xb7;" horiz-adv-x="507" 
d="M254 432c-40 0 -73.167 12.999 -99.5 38.999s-39.5 58.667 -39.5 98c0 38.667 13.333 71.334 40 98.001s59.667 40 99 40c38.667 0 71.5 -13.5 98.5 -40.5s40.5 -59.5 40.5 -97.5c0 -38.667 -13.333 -71.167 -40 -97.5s-59.667 -39.5 -99 -39.5z" />
    <glyph glyph-name="cedilla" unicode="&#xb8;" horiz-adv-x="559" 
d="M174 37l145 0.000976562c48.667 -44 84.5 -89.5 107.5 -136.5s32.5 -90.333 28.5 -130s-17.333 -75.5 -40 -107.5s-55.5 -57.167 -98.5 -75.5s-91.833 -27.5 -146.5 -27.5h-23l-45 137c81.333 3.33301 139 21.833 173 55.5s41.833 76.167 23.5 127.5
s-59.833 103.666 -124.5 156.999z" />
    <glyph glyph-name="onesuperior" unicode="&#xb9;" horiz-adv-x="407" 
d="M324 1434v-861h-129v695l-170 -107v146l211 127h88z" />
    <glyph glyph-name="ordmasculine" unicode="&#xba;" horiz-adv-x="708" 
d="M354 1452c87.333 0 160.833 -29.833 220.5 -89.5s89.5 -133.5 89.5 -221.5c0 -88.667 -29.833 -163.167 -89.5 -223.5s-133.167 -90.5 -220.5 -90.5s-160.666 30.167 -219.999 90.5s-89 134.833 -89 223.5c0 88 29.667 161.833 89 221.5s132.666 89.5 219.999 89.5z
M354 1335c-53.333 0 -98 -18.5 -134 -55.5s-54 -83.167 -54 -138.5s18 -101.666 54 -138.999s80.667 -56 134 -56s98.166 18.667 134.499 56s54.5 83.666 54.5 138.999c0 54.667 -18.167 100.667 -54.5 138s-81.166 56 -134.499 56z" />
    <glyph glyph-name="guillemotright" unicode="&#xbb;" horiz-adv-x="1357" 
d="M115 74v200l393 283l-393 285v198l567 -419v-129zM694 74v200l391 283l-391 285v198l566 -419v-129z" />
    <glyph glyph-name="onequarter" unicode="&#xbc;" horiz-adv-x="1609" 
d="M195 573v695l-170 -107v146l211 127h88v-861h-129zM1075 1434h154l-953 -1434h-153zM1579 307v-121h-106v-186h-130v186h-430v84l310 590h145l-291 -553h266v254h130v-254h106z" />
    <glyph glyph-name="onehalf" unicode="&#xbd;" horiz-adv-x="1544" 
d="M324 1434v-861h-129v695l-170 -107v146l211 127h88zM1075 1434h154l-953 -1434h-153zM958 0l-0.000976562 94l302 305c48 48 81.833 87.167 101.5 117.5s29.5 61.5 29.5 93.5c0 40 -14 73 -42 99s-63.333 39 -106 39c-50 0 -90.667 -16.167 -122 -48.5
s-46 -75.833 -44 -130.5l-131 11c0.666992 85.333 29.334 155.333 86.001 210s127 82 211 82c80.667 0 147.667 -24.5 201 -73.5s80 -111.167 80 -186.5c0 -48 -14.667 -95.667 -44 -143s-72 -97.333 -128 -150l-187 -194h365v-125h-572z" />
    <glyph glyph-name="threequarters" unicode="&#xbe;" horiz-adv-x="1843" 
d="M623 848c0 -82.667 -28.332 -151.167 -84.999 -205.5s-128.667 -81.5 -216 -81.5c-76.667 0 -143.334 21.667 -200.001 65s-90.667 98.333 -102 165l117 40c8.66699 -43.333 30.5 -78.333 65.5 -105s74.833 -40 119.5 -40c48.667 0 88.667 15.667 120 47s47 71 47 119
c0 45.333 -15.833 81.5 -47.5 108.5s-70.834 40.5 -117.501 40.5c-27.333 0 -54.666 -4.66699 -81.999 -14l-43 84l217 240h-369v123h555v-88l-240 -252h23c66.667 0 123 -23.5 169 -70.5s69 -105.5 69 -175.5zM1311 1434h153l-952 -1434h-154zM1812 307v-121h-106v-186
h-129v186h-430v84l309 590h146l-291 -553h266v254h129v-254h106z" />
    <glyph glyph-name="questiondown" unicode="&#xbf;" horiz-adv-x="1019" 
d="M530 1454c40 0 73.333 -13 100 -39s40 -58.667 40 -98c0 -38 -13.333 -70.333 -40 -97s-60 -40 -100 -40c-38.667 0 -71.5 13.333 -98.5 40s-40.5 59 -40.5 97c0 38.667 13.333 71.167 40 97.5s59.667 39.5 99 39.5zM502 -20c-132.667 0 -241.333 38.5 -326 115.5
s-127 176.167 -127 297.5c0 51.333 7.16699 98.333 21.5 141s33.166 78.5 56.499 107.5s49 56.167 77 81.5s56 49 84 71s53.667 44.167 77 66.5s42.333 48.5 57 78.5s22 62.333 22 97h187c0 -51.333 -7 -98.166 -21 -140.499s-32.167 -77.5 -54.5 -105.5
s-46.833 -54 -73.5 -78s-53.5 -46.333 -80.5 -67s-51.667 -41.667 -74 -63s-40.5 -46.666 -54.5 -75.999s-21 -61.333 -21 -96c0 -70.667 23.667 -128.334 71 -173.001s108.333 -67 183 -67c84.667 0 153.834 26.667 207.501 80s81.5 122.333 83.5 207l192 -21
c-4 -132.667 -51.5 -241.834 -142.5 -327.501s-205.833 -128.5 -344.5 -128.5z" />
    <glyph glyph-name="Agrave" unicode="&#xc0;" horiz-adv-x="1361" 
d="M786 1550h-176l-223 297h231zM1124 0l-125 317h-643l-125 -317h-208l571 1434h170l575 -1434h-215zM432 506h494l-246 629z" />
    <glyph glyph-name="Aacute" unicode="&#xc1;" horiz-adv-x="1361" 
d="M977 1847l-221 -297h-176l168 297h229zM1124 0l-125 317h-643l-125 -317h-208l571 1434h170l575 -1434h-215zM432 506h494l-246 629z" />
    <glyph glyph-name="Acircumflex" unicode="&#xc2;" horiz-adv-x="1361" 
d="M682 1737l-125 -174h-168l189 297h208l191 -297h-170zM1124 0l-125 317h-643l-125 -317h-208l571 1434h170l575 -1434h-215zM432 506h494l-246 629z" />
    <glyph glyph-name="Atilde" unicode="&#xc3;" horiz-adv-x="1361" 
d="M541 1675c-24.667 0 -44.332 -10.167 -58.999 -30.5s-21.667 -47.5 -21 -81.5l-156 26c4.66699 74 28 133.833 70 179.5s92.333 68.5 151 68.5c36 0 73.167 -9.83301 111.5 -29.5s73.166 -39.167 104.499 -58.5s56.333 -29 75 -29c24.667 0 45.167 10.333 61.5 31
s24.5 47.334 24.5 80.001l154 -25c-6 -72.667 -30.167 -132 -72.5 -178s-92.5 -69 -150.5 -69c-36.667 0 -74 9.66699 -112 29s-72.667 38.666 -104 57.999s-57 29 -77 29zM1124 0l-125 317h-643l-125 -317h-208l571 1434h170l575 -1434h-215zM432.002 506h494l-246 629z
" />
    <glyph glyph-name="Adieresis" unicode="&#xc4;" horiz-adv-x="1361" 
d="M506 1565c-34 0 -63.667 12.5 -89 37.5s-38 54.833 -38 89.5c0 34 12.667 63.333 38 88s55 37 89 37c35.333 0 65.666 -12.333 90.999 -37s38 -54 38 -88c0 -34.667 -12.667 -64.5 -38 -89.5s-55.666 -37.5 -90.999 -37.5zM858 1565c-35.333 0 -65.666 12.5 -90.999 37.5
s-38 54.833 -38 89.5c0 34 12.667 63.333 38 88s55.666 37 90.999 37c34 0 63.667 -12.333 89 -37s38 -54 38 -88c0 -34.667 -12.667 -64.5 -38 -89.5s-55 -37.5 -89 -37.5zM1124 0l-125 317h-643l-125 -317h-208l571 1434h170l575 -1434h-215zM432 506h494l-246 629z" />
    <glyph glyph-name="Aring" unicode="&#xc5;" horiz-adv-x="1361" 
d="M682 1544c-74 0 -135.499 23.5 -184.499 70.5s-73.5 106.167 -73.5 177.5c0 70.667 24.667 129.667 74 177s110.666 71 183.999 71s135 -23.667 185 -71s75 -106.333 75 -177c0 -71.333 -24.833 -130.5 -74.5 -177.5s-111.5 -70.5 -185.5 -70.5zM682.001 1925
c-38.667 0 -71.167 -12.833 -97.5 -38.5s-39.5 -57.167 -39.5 -94.5c0 -38 13 -69.667 39 -95s58.667 -38 98 -38c40 0 72.833 12.667 98.5 38s38.5 57 38.5 95c0 37.333 -13 68.833 -39 94.5s-58.667 38.5 -98 38.5zM1124 0l-125 317h-643l-125 -317h-208l571 1434h170
l575 -1434h-215zM432.001 506h494l-246 629z" />
    <glyph glyph-name="AE" unicode="&#xc6;" horiz-adv-x="1898" 
d="M1796 1245h-620v-393h553v-188h-553v-476h620v-188h-817v356h-524l-207 -356h-225l856 1434h917v-189zM557 532h422v725z" />
    <glyph glyph-name="Ccedilla" unicode="&#xc7;" horiz-adv-x="1505" 
d="M1427 358c-36 -103.333 -103.665 -189.003 -202.998 -257.003s-214.333 -107.667 -345 -119c28.667 -34 49.834 -68.667 63.501 -104s20 -68.333 19 -99s-8.5 -59.667 -22.5 -87s-33.167 -50.666 -57.5 -69.999s-54.166 -34.5 -89.499 -45.5s-74 -16.5 -116 -16.5h-23
l-45 137c72 2.66699 125.667 17.834 161 45.501s49.833 62.834 43.5 105.501s-31.5 88 -75.5 136c-92.667 8.66699 -179.167 33.5 -259.5 74.5s-148.666 93.833 -204.999 158.5s-100.5 140.5 -132.5 227.5s-48 179.167 -48 276.5c0 82 11.5 160.333 34.5 235
s56.167 142 99.5 202s94.166 112.333 152.499 157s124.666 79 198.999 103s152.166 36 233.499 36c138 0 262.167 -32 372.5 -96s186.166 -147.333 227.499 -250l-176 -86c-34 73.333 -89.167 132 -165.5 176s-162.5 66 -258.5 66c-100 0 -189.333 -23.667 -268 -71
s-139.667 -112.333 -183 -195s-65 -175 -65 -277c0 -158.667 48.167 -290.167 144.5 -394.5s220.166 -156.5 371.499 -156.5c101.333 0 191.833 24.5 271.5 73.5s135.167 114.5 166.5 196.5z" />
    <glyph glyph-name="Egrave" unicode="&#xc8;" horiz-adv-x="1073" 
d="M268 1847h232l168 -297h-176zM145 1434h824v-189h-625v-393h557v-188h-557v-476h625v-188h-824v1434z" />
    <glyph glyph-name="Eacute" unicode="&#xc9;" horiz-adv-x="1073" 
d="M858 1847l-221 -297h-176l168 297h229zM145 1434h824v-189h-625v-393h557v-188h-557v-476h625v-188h-824v1434z" />
    <glyph glyph-name="Ecircumflex" unicode="&#xca;" horiz-adv-x="1073" 
d="M563 1737l-125 -174h-168l189 297h209l190 -297h-170zM969 1245h-625v-393h557v-188h-557v-476h625v-188h-824v1434h824v-189z" />
    <glyph glyph-name="Edieresis" unicode="&#xcb;" horiz-adv-x="1073" 
d="M389 1817c35.333 0 65.666 -12.333 90.999 -37s38 -54 38 -88c0 -34.667 -12.667 -64.5 -38 -89.5s-55.666 -37.5 -90.999 -37.5c-34 0 -63.667 12.5 -89 37.5s-38 54.833 -38 89.5c0 34 12.667 63.333 38 88s55 37 89 37zM741 1817c34 0 63.667 -12.333 89 -37
s38 -54 38 -88c0 -34.667 -12.667 -64.5 -38 -89.5s-55 -37.5 -89 -37.5c-35.333 0 -65.666 12.5 -90.999 37.5s-38 54.833 -38 89.5c0 34 12.667 63.333 38 88s55.666 37 90.999 37zM145 1434h824v-189h-625v-393h557v-188h-557v-476h625v-188h-824v1434z" />
    <glyph glyph-name="Igrave" unicode="&#xcc;" horiz-adv-x="489" 
d="M-51 1847h231l168 -297h-176zM145 1434h199v-1434h-199v1434z" />
    <glyph glyph-name="Iacute" unicode="&#xcd;" horiz-adv-x="489" 
d="M539 1847l-222 -297h-176l168 297h230zM145 1434h199v-1434h-199v1434z" />
    <glyph glyph-name="Icircumflex" unicode="&#xce;" horiz-adv-x="489" 
d="M348 1860l191 -297h-170l-125 174l-125 -174h-170l190 297h209zM145 0v1434h199v-1434h-199z" />
    <glyph glyph-name="Idieresis" unicode="&#xcf;" horiz-adv-x="489" 
d="M68 1817c35.333 0 65.666 -12.333 90.999 -37s38 -54 38 -88c0 -34.667 -12.667 -64.5 -38 -89.5s-55.666 -37.5 -90.999 -37.5c-34.667 0 -64.5 12.5 -89.5 37.5s-37.5 54.833 -37.5 89.5c0 34 12.5 63.333 37.5 88s54.833 37 89.5 37zM420 1817
c34 0 63.667 -12.333 89 -37s38 -54 38 -88c0 -34.667 -12.667 -64.5 -38 -89.5s-55 -37.5 -89 -37.5c-35.333 0 -65.666 12.5 -90.999 37.5s-38 54.833 -38 89.5c0 34 12.667 63.333 38 88s55.666 37 90.999 37zM145 1434h199v-1434h-199v1434z" />
    <glyph glyph-name="Eth" unicode="&#xd0;" horiz-adv-x="1406" 
d="M604 1434c98.667 0 191.833 -17.999 279.5 -53.999s163.167 -85.167 226.5 -147.5s113.333 -137.666 150 -225.999s55 -182.833 55 -283.5c0 -102 -18.333 -197.833 -55 -287.5s-86.5 -166.334 -149.5 -230.001s-138.5 -113.834 -226.5 -150.501s-181.333 -55 -280 -55
h-459v657h-208v131h208v646h459zM615.999 188.001c142.667 0 261 50.834 355 152.501s141 229.167 141 382.5c0 151.333 -46.833 276.166 -140.5 374.499s-212.167 147.5 -355.5 147.5h-272v-457h229v-131h-229v-469h272z" />
    <glyph glyph-name="Ntilde" unicode="&#xd1;" horiz-adv-x="1409" 
d="M332 1589c4.66699 74 28.002 133.833 70.002 179.5s92.333 68.5 151 68.5c36 0 73.167 -9.83301 111.5 -29.5s73.166 -39.167 104.499 -58.5s56.333 -29 75 -29c24.667 0 45.167 10.333 61.5 31s24.5 47.334 24.5 80.001l153 -25c-6 -72.667 -30.167 -132 -72.5 -178
s-92.5 -69 -150.5 -69c-36.667 0 -74 9.66699 -112 29s-72.667 38.666 -104 57.999s-57 29 -77 29c-24.667 0 -44.334 -10.167 -59.001 -30.5s-21.667 -47.5 -21 -81.5zM145.002 1434h179l741 -1061v1061h197v-1434h-175l-743 1059v-1059h-199v1434z" />
    <glyph glyph-name="Ograve" unicode="&#xd2;" horiz-adv-x="1634" 
d="M520 1847h232l168 -297h-177zM817 1454c100.667 0 195.834 -18.833 285.501 -56.5s166.667 -89 231 -154s115.166 -142.833 152.499 -233.5s56 -187 56 -289c0 -103.333 -18.667 -200.833 -56 -292.5s-88.166 -170.334 -152.499 -236.001s-141.333 -117.5 -231 -155.5
s-184.834 -57 -285.501 -57c-101.333 0 -196.833 19 -286.5 57s-166.5 89.833 -230.5 155.5s-114.667 144.334 -152 236.001s-56 189.167 -56 292.5c0 136 31.5 260 94.5 372s150 200.167 261 264.5s234.167 96.5 369.5 96.5zM817 1264
c-96.667 0 -184.998 -23.833 -264.998 -71.5s-142.833 -113.167 -188.5 -196.5s-68.5 -175 -68.5 -275c0 -155.333 50.167 -286 150.5 -392s224.166 -159 371.499 -159s271.166 53 371.499 159s150.5 236.667 150.5 392c0 100 -22.833 191.667 -68.5 275
s-108.5 148.833 -188.5 196.5s-168.333 71.5 -265 71.5z" />
    <glyph glyph-name="Oacute" unicode="&#xd3;" horiz-adv-x="1634" 
d="M1110 1847l-221 -297h-176l168 297h229zM817 1454c100.667 0 195.834 -18.833 285.501 -56.5s166.667 -89 231 -154s115.166 -142.833 152.499 -233.5s56 -187 56 -289c0 -103.333 -18.667 -200.833 -56 -292.5s-88.166 -170.334 -152.499 -236.001
s-141.333 -117.5 -231 -155.5s-184.834 -57 -285.501 -57c-101.333 0 -196.833 19 -286.5 57s-166.5 89.833 -230.5 155.5s-114.667 144.334 -152 236.001s-56 189.167 -56 292.5c0 136 31.5 260 94.5 372s150 200.167 261 264.5s234.167 96.5 369.5 96.5zM817 1264
c-96.667 0 -184.998 -23.833 -264.998 -71.5s-142.833 -113.167 -188.5 -196.5s-68.5 -175 -68.5 -275c0 -155.333 50.167 -286 150.5 -392s224.166 -159 371.499 -159s271.166 53 371.499 159s150.5 236.667 150.5 392c0 100 -22.833 191.667 -68.5 275
s-108.5 148.833 -188.5 196.5s-168.333 71.5 -265 71.5z" />
    <glyph glyph-name="Ocircumflex" unicode="&#xd4;" horiz-adv-x="1634" 
d="M815 1737l-125 -174h-168l189 297h209l190 -297h-170zM817 1454c100.667 0 195.834 -18.833 285.501 -56.5s166.667 -89 231 -154s115.166 -142.833 152.499 -233.5s56 -187 56 -289c0 -103.333 -18.667 -200.833 -56 -292.5s-88.166 -170.334 -152.499 -236.001
s-141.333 -117.5 -231 -155.5s-184.834 -57 -285.501 -57c-101.333 0 -196.833 19 -286.5 57s-166.5 89.833 -230.5 155.5s-114.667 144.334 -152 236.001s-56 189.167 -56 292.5c0 136 31.5 260 94.5 372s150 200.167 261 264.5s234.167 96.5 369.5 96.5zM817 170
c147.333 0 271.168 53 371.501 159s150.5 236.667 150.5 392c0 100 -22.833 191.667 -68.5 275s-108.5 148.833 -188.5 196.5s-168.333 71.5 -265 71.5s-185 -23.833 -265 -71.5s-142.833 -113.167 -188.5 -196.5s-68.5 -175 -68.5 -275c0 -155.333 50.167 -286 150.5 -392
s224.166 -159 371.499 -159z" />
    <glyph glyph-name="Otilde" unicode="&#xd5;" horiz-adv-x="1634" 
d="M440 1589c4.66699 74 28.168 133.833 70.501 179.5s92.833 68.5 151.5 68.5c36 0 73.167 -9.83301 111.5 -29.5s73 -39.167 104 -58.5s55.833 -29 74.5 -29c24.667 0 45.167 10.333 61.5 31s24.5 47.334 24.5 80.001l154 -25c-6 -72.667 -30.167 -132 -72.5 -178
s-92.5 -69 -150.5 -69c-36.667 0 -74 9.66699 -112 29s-72.667 38.666 -104 57.999s-57 29 -77 29c-24.667 0 -44.334 -10.167 -59.001 -30.5s-21.667 -47.5 -21 -81.5zM817.001 1454c100.667 0 195.834 -18.833 285.501 -56.5s166.667 -89 231 -154
s115.166 -142.833 152.499 -233.5s56 -187 56 -289c0 -103.333 -18.667 -200.833 -56 -292.5s-88.166 -170.334 -152.499 -236.001s-141.333 -117.5 -231 -155.5s-184.834 -57 -285.501 -57c-101.333 0 -196.833 19 -286.5 57s-166.5 89.833 -230.5 155.5
s-114.667 144.334 -152 236.001s-56 189.167 -56 292.5c0 136 31.5 260 94.5 372s150 200.167 261 264.5s234.167 96.5 369.5 96.5zM817.001 1264c-96.667 0 -184.998 -23.833 -264.998 -71.5s-142.833 -113.167 -188.5 -196.5s-68.5 -175 -68.5 -275
c0 -155.333 50.167 -286 150.5 -392s224.166 -159 371.499 -159s271.166 53 371.499 159s150.5 236.667 150.5 392c0 100 -22.833 191.667 -68.5 275s-108.5 148.833 -188.5 196.5s-168.333 71.5 -265 71.5z" />
    <glyph glyph-name="Odieresis" unicode="&#xd6;" horiz-adv-x="1634" 
d="M641 1817c35.333 0 65.666 -12.333 90.999 -37s38 -54 38 -88c0 -34.667 -12.667 -64.5 -38 -89.5s-55.666 -37.5 -90.999 -37.5c-34 0 -63.667 12.5 -89 37.5s-38 54.833 -38 89.5c0 34 12.667 63.333 38 88s55 37 89 37zM993 1817c34 0 63.667 -12.333 89 -37
s38 -54 38 -88c0 -34.667 -12.667 -64.5 -38 -89.5s-55 -37.5 -89 -37.5c-35.333 0 -65.666 12.5 -90.999 37.5s-38 54.833 -38 89.5c0 34 12.667 63.333 38 88s55.666 37 90.999 37zM817 1454c100.667 0 195.834 -18.833 285.501 -56.5s166.667 -89 231 -154
s115.166 -142.833 152.499 -233.5s56 -187 56 -289c0 -103.333 -18.667 -200.833 -56 -292.5s-88.166 -170.334 -152.499 -236.001s-141.333 -117.5 -231 -155.5s-184.834 -57 -285.501 -57c-101.333 0 -196.833 19 -286.5 57s-166.5 89.833 -230.5 155.5
s-114.667 144.334 -152 236.001s-56 189.167 -56 292.5c0 136 31.5 260 94.5 372s150 200.167 261 264.5s234.167 96.5 369.5 96.5zM817 1264c-96.667 0 -184.998 -23.833 -264.998 -71.5s-142.833 -113.167 -188.5 -196.5s-68.5 -175 -68.5 -275
c0 -155.333 50.167 -286 150.5 -392s224.166 -159 371.499 -159s271.166 53 371.499 159s150.5 236.667 150.5 392c0 100 -22.833 191.667 -68.5 275s-108.5 148.833 -188.5 196.5s-168.333 71.5 -265 71.5z" />
    <glyph glyph-name="multiply" unicode="&#xd7;" horiz-adv-x="1099" 
d="M967 950l-291 -291l291 -290l-125 -127l-293 293l-291 -291l-127 125l293 293l-291 288l125 125l291 -289l291 291z" />
    <glyph glyph-name="Oslash" unicode="&#xd8;" horiz-adv-x="1634" 
d="M817 1454c100.667 0 195.834 -18.833 285.501 -56.5s166.667 -89 231 -154s115.166 -142.833 152.499 -233.5s56 -187 56 -289c0 -103.333 -18.667 -200.833 -56 -292.5s-88.166 -170.334 -152.499 -236.001s-141.333 -117.5 -231 -155.5s-184.834 -57 -285.501 -57
c-101.333 0 -196.833 19 -286.5 57s-166.5 89.833 -230.5 155.5s-114.667 144.334 -152 236.001s-56 189.167 -56 292.5c0 136 31.5 260 94.5 372s150 200.167 261 264.5s234.167 96.5 369.5 96.5zM295 721c0 -138 39.667 -256 119 -354l676 821c-84 50.667 -175 76 -273 76
c-96.667 0 -185 -23.833 -265 -71.5s-142.833 -113.167 -188.5 -196.5s-68.5 -175 -68.5 -275zM817 170c147.333 0 271.166 53 371.499 159s150.5 236.667 150.5 392c0 136 -40 253.333 -120 352l-680 -821c82.667 -54.667 175.334 -82 278.001 -82z" />
    <glyph glyph-name="Ugrave" unicode="&#xd9;" horiz-adv-x="1396" 
d="M403 1847h232l168 -297h-176zM698 -20c-158.667 0 -290.5 53.333 -395.5 160s-157.5 240.334 -157.5 401.001v893h199v-893c0 -106 33.5 -194 100.5 -264s151.5 -105 253.5 -105s186.667 35 254 105s101 158 101 264v893h198v-893
c0 -160.667 -52.5 -294.334 -157.5 -401.001s-236.833 -160 -395.5 -160z" />
    <glyph glyph-name="Uacute" unicode="&#xda;" horiz-adv-x="1396" 
d="M993 1847l-221 -297h-176l168 297h229zM698 -20c-158.667 0 -290.5 53.333 -395.5 160s-157.5 240.334 -157.5 401.001v893h199v-893c0 -106 33.5 -194 100.5 -264s151.5 -105 253.5 -105s186.667 35 254 105s101 158 101 264v893h198v-893
c0 -160.667 -52.5 -294.334 -157.5 -401.001s-236.833 -160 -395.5 -160z" />
    <glyph glyph-name="Ucircumflex" unicode="&#xdb;" horiz-adv-x="1396" 
d="M698 1737l-125 -174h-167l188 297h209l190 -297h-170zM1053 1434h198v-893c0 -160.667 -52.5 -294.334 -157.5 -401.001s-236.833 -160 -395.5 -160s-290.5 53.333 -395.5 160s-157.5 240.334 -157.5 401.001v893h199v-893c0 -106 33.5 -194 100.5 -264
s151.5 -105 253.5 -105s186.667 35 254 105s101 158 101 264v893z" />
    <glyph glyph-name="Udieresis" unicode="&#xdc;" horiz-adv-x="1396" 
d="M522 1817c35.333 0 65.666 -12.333 90.999 -37s38 -54 38 -88c0 -34.667 -12.667 -64.5 -38 -89.5s-55.666 -37.5 -90.999 -37.5c-34 0 -63.667 12.5 -89 37.5s-38 54.833 -38 89.5c0 34 12.667 63.333 38 88s55 37 89 37zM874 1817c34 0 63.667 -12.333 89 -37
s38 -54 38 -88c0 -34.667 -12.667 -64.5 -38 -89.5s-55 -37.5 -89 -37.5c-35.333 0 -65.666 12.5 -90.999 37.5s-38 54.833 -38 89.5c0 34 12.667 63.333 38 88s55.666 37 90.999 37zM698 -20c-158.667 0 -290.5 53.333 -395.5 160s-157.5 240.334 -157.5 401.001v893h199
v-893c0 -106 33.5 -194 100.5 -264s151.5 -105 253.5 -105s186.667 35 254 105s101 158 101 264v893h198v-893c0 -160.667 -52.5 -294.334 -157.5 -401.001s-236.833 -160 -395.5 -160z" />
    <glyph glyph-name="Yacute" unicode="&#xdd;" horiz-adv-x="1304" 
d="M948 1847l-221 -297h-176l168 297h229zM31 1434h239l389 -603l385 603h232l-520 -801v-633h-199v633z" />
    <glyph glyph-name="Thorn" unicode="&#xde;" horiz-adv-x="1200" 
d="M696 1145c126 0 231 -40.333 315 -121s126 -181.667 126 -303c0 -122.667 -42 -224.667 -126 -306s-189 -122 -315 -122h-352v-293h-199v1434h199v-289h352zM696 481c68.667 0 126.5 23.168 173.5 69.501s70.5 103.166 70.5 170.499c0 66.667 -23.5 122.5 -70.5 167.5
s-104.833 67.5 -173.5 67.5h-352v-475h352z" />
    <glyph glyph-name="germandbls" unicode="&#xdf;" horiz-adv-x="1206" 
d="M129 0l0.000976562 960.999c0 151.333 45 271.333 135 360s209.667 133 359 133c119.333 0 222.166 -38.667 308.499 -116s129.5 -171.666 129.5 -282.999c0 -71.333 -19.5 -133 -58.5 -185s-88.5 -85.333 -148.5 -100c82.667 -20 149.834 -61.167 201.501 -123.5
s77.5 -135.833 77.5 -220.5c0 -118.667 -41.167 -219.334 -123.5 -302.001s-182.5 -124 -300.5 -124h-244v188h233c65.333 0 120.666 22.833 165.999 68.5s68 100.834 68 165.501c0 68 -25 124.5 -75 169.5s-116.667 67.5 -200 67.5h-192v179h174
c64 0 117.167 20.167 159.5 60.5s63.5 89.833 63.5 148.5c0 61.333 -23.333 113.5 -70 156.5s-104.667 64.5 -174 64.5c-85.333 0 -155 -28.5 -209 -85.5s-81 -130.833 -81 -221.5v-961h-199z" />
    <glyph glyph-name="agrave" unicode="&#xe0;" horiz-adv-x="1220" 
d="M750 1116h-179l-221 297h230zM899 999l191 -0.00292969v-999h-191v145c-28 -47.333 -73.333 -86.666 -136 -117.999s-128.667 -47 -198 -47c-90.667 0 -173.334 22.833 -248.001 68.5s-133.167 108.334 -175.5 188.001s-63.5 167.5 -63.5 263.5
s21.167 183.833 63.5 263.5s100.833 142.334 175.5 188.001s157.334 68.5 248.001 68.5c70 0 136.5 -15.833 199.5 -47.5s107.833 -71.167 134.5 -118.5v145zM602 157.997c61.333 0 119.5 15.5 174.5 46.5s95.833 70.833 122.5 119.5v350
c-26.667 49.333 -67.5 89.666 -122.5 120.999s-113.167 47 -174.5 47c-96.667 0 -177.5 -32.5 -242.5 -97.5s-97.5 -146.5 -97.5 -244.5c0 -97.333 32.5 -178.666 97.5 -243.999s145.833 -98 242.5 -98z" />
    <glyph glyph-name="aacute" unicode="&#xe1;" horiz-adv-x="1220" 
d="M940 1413l-223 -297h-176l170 297h229zM899 999l191 -0.00292969v-999h-191v145c-28 -47.333 -73.333 -86.666 -136 -117.999s-128.667 -47 -198 -47c-90.667 0 -173.334 22.833 -248.001 68.5s-133.167 108.334 -175.5 188.001s-63.5 167.5 -63.5 263.5
s21.167 183.833 63.5 263.5s100.833 142.334 175.5 188.001s157.334 68.5 248.001 68.5c70 0 136.5 -15.833 199.5 -47.5s107.833 -71.167 134.5 -118.5v145zM602 157.997c61.333 0 119.5 15.5 174.5 46.5s95.833 70.833 122.5 119.5v350
c-26.667 49.333 -67.5 89.666 -122.5 120.999s-113.167 47 -174.5 47c-96.667 0 -177.5 -32.5 -242.5 -97.5s-97.5 -146.5 -97.5 -244.5c0 -97.333 32.5 -178.666 97.5 -243.999s145.833 -98 242.5 -98z" />
    <glyph glyph-name="acircumflex" unicode="&#xe2;" horiz-adv-x="1220" 
d="M645 1305l-125 -177h-170l191 297h209l190 -297h-170zM899 999l191 -0.00292969v-999h-191v145c-28 -47.333 -73.333 -86.666 -136 -117.999s-128.667 -47 -198 -47c-90.667 0 -173.334 22.833 -248.001 68.5s-133.167 108.334 -175.5 188.001s-63.5 167.5 -63.5 263.5
s21.167 183.833 63.5 263.5s100.833 142.334 175.5 188.001s157.334 68.5 248.001 68.5c70 0 136.5 -15.833 199.5 -47.5s107.833 -71.167 134.5 -118.5v145zM602 157.997c61.333 0 119.5 15.5 174.5 46.5s95.833 70.833 122.5 119.5v350
c-26.667 49.333 -67.5 89.666 -122.5 120.999s-113.167 47 -174.5 47c-96.667 0 -177.5 -32.5 -242.5 -97.5s-97.5 -146.5 -97.5 -244.5c0 -97.333 32.5 -178.666 97.5 -243.999s145.833 -98 242.5 -98z" />
    <glyph glyph-name="atilde" unicode="&#xe3;" horiz-adv-x="1183" 
d="M479 1241c-24.667 0 -44.332 -10.332 -58.999 -30.999s-21.667 -48 -21 -82l-155 27c4.66699 74 28 133.833 70 179.5s92.333 68.5 151 68.5c36 0 73.167 -9.83301 111.5 -29.5s73.166 -39.167 104.499 -58.5s56.333 -29 75 -29c24.667 0 45.167 10.333 61.5 31
s24.5 47.334 24.5 80.001l155 -25c-6.66699 -72.667 -31.334 -132.167 -74.001 -178.5s-93 -69.5 -151 -69.5c-29.333 0 -59.166 6.16699 -89.499 18.5s-56 25.666 -77 39.999s-43.167 27.666 -66.5 39.999s-43.333 18.5 -60 18.5zM899.002 999.001l191 -0.00292969v-999
h-191v145c-28 -47.333 -73.333 -86.666 -136 -117.999s-128.667 -47 -198 -47c-90.667 0 -173.334 22.833 -248.001 68.5s-133.167 108.334 -175.5 188.001s-63.5 167.5 -63.5 263.5s21.167 183.833 63.5 263.5s100.833 142.334 175.5 188.001s157.334 68.5 248.001 68.5
c70 0 136.5 -15.833 199.5 -47.5s107.833 -71.167 134.5 -118.5v145zM602.002 157.998c61.333 0 119.5 15.5 174.5 46.5s95.833 70.833 122.5 119.5v350c-26.667 49.333 -67.5 89.666 -122.5 120.999s-113.167 47 -174.5 47c-96.667 0 -177.5 -32.5 -242.5 -97.5
s-97.5 -146.5 -97.5 -244.5c0 -97.333 32.5 -178.666 97.5 -243.999s145.833 -98 242.5 -98z" />
    <glyph glyph-name="adieresis" unicode="&#xe4;" horiz-adv-x="1220" 
d="M471 1194c-35.333 0 -65.333 12.333 -90 37s-37 54.667 -37 90c0 34 12.5 63.667 37.5 89s54.833 38 89.5 38c34 0 63.667 -12.667 89 -38s38 -55 38 -89c0 -34.667 -12.667 -64.5 -38 -89.5s-55 -37.5 -89 -37.5zM821 1194c-35.333 0 -65.333 12.333 -90 37
s-37 54.667 -37 90c0 34 12.5 63.667 37.5 89s54.833 38 89.5 38c34 0 63.667 -12.667 89 -38s38 -55 38 -89c0 -34.667 -12.667 -64.5 -38 -89.5s-55 -37.5 -89 -37.5zM899 999l191 -0.00292969v-999h-191v145c-28 -47.333 -73.333 -86.666 -136 -117.999
s-128.667 -47 -198 -47c-90.667 0 -173.334 22.833 -248.001 68.5s-133.167 108.334 -175.5 188.001s-63.5 167.5 -63.5 263.5s21.167 183.833 63.5 263.5s100.833 142.334 175.5 188.001s157.334 68.5 248.001 68.5c70 0 136.5 -15.833 199.5 -47.5
s107.833 -71.167 134.5 -118.5v145zM602 157.997c61.333 0 119.5 15.5 174.5 46.5s95.833 70.833 122.5 119.5v350c-26.667 49.333 -67.5 89.666 -122.5 120.999s-113.167 47 -174.5 47c-96.667 0 -177.5 -32.5 -242.5 -97.5s-97.5 -146.5 -97.5 -244.5
c0 -97.333 32.5 -178.666 97.5 -243.999s145.833 -98 242.5 -98z" />
    <glyph glyph-name="aring" unicode="&#xe5;" horiz-adv-x="1220" 
d="M645 1110c-74 0 -135.499 23.5 -184.499 70.5s-73.5 106.167 -73.5 177.5c0 70.667 24.667 129.667 74 177s110.666 71 183.999 71s135 -23.667 185 -71s75 -106.333 75 -177c0 -71.333 -24.833 -130.5 -74.5 -177.5s-111.5 -70.5 -185.5 -70.5zM645.001 1491
c-38.667 0 -70.834 -12.833 -96.501 -38.5s-38.5 -57.167 -38.5 -94.5c0 -38 12.833 -69.667 38.5 -95s57.834 -38 96.501 -38c40 0 73.167 12.667 99.5 38s39.5 57 39.5 95c0 37.333 -13.167 68.833 -39.5 94.5s-59.5 38.5 -99.5 38.5zM899.001 999l191 -0.00292969v-999
h-191v145c-28 -47.333 -73.333 -86.666 -136 -117.999s-128.667 -47 -198 -47c-90.667 0 -173.334 22.833 -248.001 68.5s-133.167 108.334 -175.5 188.001s-63.5 167.5 -63.5 263.5s21.167 183.833 63.5 263.5s100.833 142.334 175.5 188.001s157.334 68.5 248.001 68.5
c70 0 136.5 -15.833 199.5 -47.5s107.833 -71.167 134.5 -118.5v145zM602.001 157.997c61.333 0 119.5 15.5 174.5 46.5s95.833 70.833 122.5 119.5v350c-26.667 49.333 -67.5 89.666 -122.5 120.999s-113.167 47 -174.5 47c-96.667 0 -177.5 -32.5 -242.5 -97.5
s-97.5 -146.5 -97.5 -244.5c0 -97.333 32.5 -178.666 97.5 -243.999s145.833 -98 242.5 -98z" />
    <glyph glyph-name="ae" unicode="&#xe6;" horiz-adv-x="1976" 
d="M1901 543c0 -22.667 -2.33203 -48.6689 -6.99902 -78.002h-796c8.66699 -96 43.167 -172.5 103.5 -229.5s136.5 -85.5 228.5 -85.5c63.333 0 121.166 13.167 173.499 39.5s91.833 62.166 118.5 107.499l150 -98c-37.333 -68 -95.666 -121.5 -174.999 -160.5
s-170 -58.5 -272 -58.5c-130.667 0 -242.334 41.333 -335.001 124v-104h-191v145c-28 -47.333 -73.333 -86.666 -136 -117.999s-128.667 -47 -198 -47c-90.667 0 -173.334 22.833 -248.001 68.5s-133.167 108.334 -175.5 188.001s-63.5 167.5 -63.5 263.5
s21.167 183.833 63.5 263.5s100.833 142.334 175.5 188.001s157.334 68.5 248.001 68.5c70 0 136.5 -15.833 199.5 -47.5s107.833 -71.167 134.5 -118.5v145h191v-100c93.333 80.667 203.666 121 330.999 121c134.667 0 248.334 -46 341.001 -138s139 -205 139 -339z
M1106 607.998h597.999c-6 74.667 -36.167 135.667 -90.5 183s-121.166 71 -200.499 71c-78 0 -144.167 -22.833 -198.5 -68.5s-90.5 -107.5 -108.5 -185.5zM602 157.998c61.333 0 119.5 15.5 174.5 46.5s95.833 70.833 122.5 119.5v350
c-26.667 49.333 -67.5 89.666 -122.5 120.999s-113.167 47 -174.5 47c-96.667 0 -177.5 -32.5 -242.5 -97.5s-97.5 -146.5 -97.5 -244.5c0 -97.333 32.5 -178.666 97.5 -243.999s145.833 -98 242.5 -98z" />
    <glyph glyph-name="ccedilla" unicode="&#xe7;" horiz-adv-x="1101" 
d="M1051 246c-36 -74 -89.666 -134.502 -160.999 -181.502s-151.666 -74.5 -240.999 -82.5c28.667 -34 49.834 -68.667 63.501 -104s20 -68.333 19 -99s-8.5 -59.667 -22.5 -87s-33.167 -50.666 -57.5 -69.999s-54.166 -34.5 -89.499 -45.5s-74 -16.5 -116 -16.5h-22
l-45 137c72.667 2.66699 126.5 18 161.5 46s49 63.667 42 107s-33.167 89.333 -78.5 138c-124 20.667 -226 78.334 -306 173.001s-120 207 -120 337c0 96.667 22.667 185 68 265s107.666 142.833 186.999 188.5s167 68.5 263 68.5s182.167 -22.167 258.5 -66.5
s132.166 -103.5 167.499 -177.5l-162 -88c-20.667 46 -54.834 82.833 -102.501 110.5s-101.5 41.5 -161.5 41.5c-94.667 0 -174 -32.833 -238 -98.5s-96 -146.834 -96 -243.501c0 -95.333 32 -175.5 96 -240.5s143.333 -97.5 238 -97.5c64.667 0 122.667 14.333 174 43
s89.666 68.334 114.999 119.001z" />
    <glyph glyph-name="egrave" unicode="&#xe8;" horiz-adv-x="1142" 
d="M682 1116h-176l-223 297h231zM1065 543c0 -18.667 -1.33203 -44.668 -3.99902 -78.001h-799c8.66699 -96 43.5 -172.5 104.5 -229.5s137.5 -85.5 229.5 -85.5c63.333 0 121.333 13.333 174 40s91.667 62.334 117 107.001l151 -98c-38 -68 -96.667 -121.5 -176 -160.5
s-170 -58.5 -272 -58.5c-70 0 -136.667 13.333 -200 40s-117.833 63.167 -163.5 109.5s-81.834 102 -108.501 167s-40 134.167 -40 207.5c0 94.667 22.333 181.5 67 260.5s106.167 141.333 184.5 187s164.5 68.5 258.5 68.5c134 0 247 -46 339 -138s138 -205 138 -339z
M270.001 607.999h599.999c-6 74.667 -36 135.667 -90 183s-120.667 71 -200 71c-78.667 0 -145.667 -23 -201 -69s-91.666 -107.667 -108.999 -185z" />
    <glyph glyph-name="eacute" unicode="&#xe9;" horiz-adv-x="1142" 
d="M872 1413l-221 -297h-176l168 297h229zM1065 543c0 -18.667 -1.33203 -44.668 -3.99902 -78.001h-799c8.66699 -96 43.5 -172.5 104.5 -229.5s137.5 -85.5 229.5 -85.5c63.333 0 121.333 13.333 174 40s91.667 62.334 117 107.001l151 -98
c-38 -68 -96.667 -121.5 -176 -160.5s-170 -58.5 -272 -58.5c-70 0 -136.667 13.333 -200 40s-117.833 63.167 -163.5 109.5s-81.834 102 -108.501 167s-40 134.167 -40 207.5c0 94.667 22.333 181.5 67 260.5s106.167 141.333 184.5 187s164.5 68.5 258.5 68.5
c134 0 247 -46 339 -138s138 -205 138 -339zM270.001 607.999h599.999c-6 74.667 -36 135.667 -90 183s-120.667 71 -200 71c-78.667 0 -145.667 -23 -201 -69s-91.666 -107.667 -108.999 -185z" />
    <glyph glyph-name="ecircumflex" unicode="&#xea;" horiz-adv-x="1142" 
d="M578 1303l-125 -175h-168l188 297h209l190 -297h-170zM1065 543c0 -18.667 -1.33203 -44.668 -3.99902 -78.001h-799c8.66699 -96 43.5 -172.5 104.5 -229.5s137.5 -85.5 229.5 -85.5c63.333 0 121.333 13.333 174 40s91.667 62.334 117 107.001l151 -98
c-38 -68 -96.667 -121.5 -176 -160.5s-170 -58.5 -272 -58.5c-70 0 -136.667 13.333 -200 40s-117.833 63.167 -163.5 109.5s-81.834 102 -108.501 167s-40 134.167 -40 207.5c0 94.667 22.333 181.5 67 260.5s106.167 141.333 184.5 187s164.5 68.5 258.5 68.5
c134 0 247 -46 339 -138s138 -205 138 -339zM270.001 607.999h599.999c-6 74.667 -36 135.667 -90 183s-120.667 71 -200 71c-78.667 0 -145.667 -23 -201 -69s-91.666 -107.667 -108.999 -185z" />
    <glyph glyph-name="edieresis" unicode="&#xeb;" horiz-adv-x="1142" 
d="M401 1194c-34 0 -63.6689 12.5 -89.002 37.5s-38 54.833 -38 89.5c0 34 12.667 63.667 38 89s55 38 89 38c34.667 0 64.834 -12.667 90.501 -38s38.5 -55 38.5 -89c0 -34.667 -12.667 -64.5 -38 -89.5s-55.666 -37.5 -90.999 -37.5zM753.998 1194
c-35.333 0 -65.668 12.5 -91.001 37.5s-38 54.833 -38 89.5c0 34 12.833 63.667 38.5 89s55.834 38 90.501 38c34 0 63.667 -12.667 89 -38s38 -55 38 -89c0 -34.667 -12.667 -64.5 -38 -89.5s-55 -37.5 -89 -37.5zM1065 543c0 -18.667 -1.33203 -44.668 -3.99902 -78.001
h-799c8.66699 -96 43.5 -172.5 104.5 -229.5s137.5 -85.5 229.5 -85.5c63.333 0 121.333 13.333 174 40s91.667 62.334 117 107.001l151 -98c-38 -68 -96.667 -121.5 -176 -160.5s-170 -58.5 -272 -58.5c-70 0 -136.667 13.333 -200 40s-117.833 63.167 -163.5 109.5
s-81.834 102 -108.501 167s-40 134.167 -40 207.5c0 94.667 22.333 181.5 67 260.5s106.167 141.333 184.5 187s164.5 68.5 258.5 68.5c134 0 247 -46 339 -138s138 -205 138 -339zM269.997 607.999h599.999c-6 74.667 -36 135.667 -90 183s-120.667 71 -200 71
c-78.667 0 -145.667 -23 -201 -69s-91.666 -107.667 -108.999 -185z" />
    <glyph glyph-name="igrave" unicode="&#xec;" horiz-adv-x="452" 
d="M-68 1413h232l168 -297h-176zM131 999h191v-999h-191v999z" />
    <glyph glyph-name="iacute" unicode="&#xed;" horiz-adv-x="452" 
d="M522 1413l-221 -297h-176l168 297h229zM131 999h191v-999h-191v999z" />
    <glyph glyph-name="icircumflex" unicode="&#xee;" horiz-adv-x="452" 
d="M332 1425l190 -297h-170l-125 175l-125 -175h-170l191 297h209zM131 0v999h191v-999h-191z" />
    <glyph glyph-name="idieresis" unicode="&#xef;" horiz-adv-x="452" 
d="M51 1448c34.667 0 64.832 -12.667 90.499 -38s38.5 -55 38.5 -89c0 -34.667 -12.667 -64.5 -38 -89.5s-55.666 -37.5 -90.999 -37.5s-65.333 12.333 -90 37s-37 54.667 -37 90c0 34 12.5 63.667 37.5 89s54.833 38 89.5 38zM402.998 1448c34 0 63.665 -12.667 88.998 -38
s38 -55 38 -89c0 -34.667 -12.667 -64.5 -38 -89.5s-55 -37.5 -89 -37.5c-35.333 0 -65.666 12.5 -90.999 37.5s-38 54.833 -38 89.5c0 34 12.833 63.667 38.5 89s55.834 38 90.501 38zM130.996 999h191v-999h-191v999z" />
    <glyph glyph-name="eth" unicode="&#xf0;" horiz-adv-x="1286" 
d="M1386 1307l0.000976562 -131.001h-253v-619c0 -172 -50.5 -311.167 -151.5 -417.5s-227.5 -159.5 -379.5 -159.5c-100.667 0 -191.167 23.167 -271.5 69.5s-142.5 109 -186.5 188s-66 166.5 -66 262.5c0 144.667 47.167 267.5 141.5 368.5s208.833 151.5 343.5 151.5
c89.333 0 167.166 -21.167 233.499 -63.5s115.5 -101.166 147.5 -176.499v396h-256v131h256v127h189v-127h253zM602.001 159.999c98.667 0 180.334 32 245.001 96s97 145.333 97 244s-32.333 180 -97 244s-146.334 96 -245.001 96c-95.333 0 -176.166 -33 -242.499 -99
s-99.5 -146.333 -99.5 -241s33.167 -175 99.5 -241s147.166 -99 242.499 -99z" />
    <glyph glyph-name="ntilde" unicode="&#xf1;" horiz-adv-x="1189" 
d="M440 1241c-24.667 0 -44.332 -10.3301 -58.999 -30.9971s-21.667 -48 -21 -82l-155 27c6 74 29.833 133.833 71.5 179.5s92.167 68.5 151.5 68.5c35.333 0 72 -9.83301 110 -29.5s72.667 -39.167 104 -58.5s56.333 -29 75 -29c25.333 0 46 10.167 62 30.5
s24.667 47.166 26 80.499l153 -25c-6 -72.667 -30.333 -132.167 -73 -178.5s-92.667 -69.5 -150 -69.5c-29.333 0 -59.333 6.16699 -90 18.5s-56.5 25.666 -77.5 39.999s-43.333 27.666 -67 39.999s-43.834 18.5 -60.501 18.5zM647.002 1020
c124.667 0 224.167 -40.833 298.5 -122.5s111.5 -190.5 111.5 -326.5v-571h-189v545c0 88 -24 158.167 -72 210.5s-112 78.5 -192 78.5c-58 0 -112.667 -14.5 -164 -43.5s-90.666 -67.833 -117.999 -116.5v-674h-191v999h191v-145c30.667 50 75.667 90.167 135 120.5
s122.666 45.5 189.999 45.5z" />
    <glyph glyph-name="ograve" unicode="&#xf2;" horiz-adv-x="1187" 
d="M299 1413h231l168 -297h-176zM594 1020c95.333 0 182.334 -22.8311 261.001 -68.498s140.834 -108.5 186.501 -188.5s68.5 -168.333 68.5 -265c0 -146 -49.833 -268.833 -149.5 -368.5s-221.834 -149.5 -366.501 -149.5c-95.333 0 -182.5 22.667 -261.5 68
s-141.167 107.666 -186.5 186.999s-68 167 -68 263c0 147.333 49.667 271.166 149 371.499s221.666 150.5 366.999 150.5zM594.001 840.002c-94 0 -172.833 -32.667 -236.5 -98s-95.5 -146.666 -95.5 -243.999c0 -95.333 31.833 -175.5 95.5 -240.5s142.5 -97.5 236.5 -97.5
c93.333 0 172 32.667 236 98s96 145.333 96 240c0 97.333 -32 178.666 -96 243.999s-142.667 98 -236 98z" />
    <glyph glyph-name="oacute" unicode="&#xf3;" horiz-adv-x="1187" 
d="M889 1413l-221 -297h-176l167 297h230zM594 1020c95.333 0 182.334 -22.8311 261.001 -68.498s140.834 -108.5 186.501 -188.5s68.5 -168.333 68.5 -265c0 -146 -49.833 -268.833 -149.5 -368.5s-221.834 -149.5 -366.501 -149.5c-95.333 0 -182.5 22.667 -261.5 68
s-141.167 107.666 -186.5 186.999s-68 167 -68 263c0 147.333 49.667 271.166 149 371.499s221.666 150.5 366.999 150.5zM594.001 840.002c-94 0 -172.833 -32.667 -236.5 -98s-95.5 -146.666 -95.5 -243.999c0 -95.333 31.833 -175.5 95.5 -240.5s142.5 -97.5 236.5 -97.5
c93.333 0 172 32.667 236 98s96 145.333 96 240c0 97.333 -32 178.666 -96 243.999s-142.667 98 -236 98z" />
    <glyph glyph-name="ocircumflex" unicode="&#xf4;" horiz-adv-x="1187" 
d="M594 1303l-125 -175h-168l188 297h209l191 -297h-170zM594 1020c95.333 0 182.334 -22.8311 261.001 -68.498s140.834 -108.5 186.501 -188.5s68.5 -168.333 68.5 -265c0 -146 -49.833 -268.833 -149.5 -368.5s-221.834 -149.5 -366.501 -149.5
c-95.333 0 -182.5 22.667 -261.5 68s-141.167 107.666 -186.5 186.999s-68 167 -68 263c0 147.333 49.667 271.166 149 371.499s221.666 150.5 366.999 150.5zM594.001 160.002c93.333 0 172 32.667 236 98s96 145.333 96 240c0 97.333 -32 178.666 -96 243.999
s-142.667 98 -236 98c-94 0 -172.833 -32.667 -236.5 -98s-95.5 -146.666 -95.5 -243.999c0 -95.333 31.833 -175.5 95.5 -240.5s142.5 -97.5 236.5 -97.5z" />
    <glyph glyph-name="otilde" unicode="&#xf5;" horiz-adv-x="1187" 
d="M217 1155c4.66699 74 28.001 133.834 70.001 179.501s92.333 68.5 151 68.5c36 0 73.167 -9.83301 111.5 -29.5s73.166 -39.167 104.499 -58.5s56.333 -29 75 -29c24.667 0 45.167 10.333 61.5 31s24.5 47.334 24.5 80.001l154 -25
c-6 -72.667 -30.333 -132.167 -73 -178.5s-93 -69.5 -151 -69.5c-29.333 0 -59.166 6.16699 -89.499 18.5s-55.833 25.666 -76.5 39.999s-42.667 27.666 -66 39.999s-43.333 18.5 -60 18.5c-24.667 0 -44.334 -10.333 -59.001 -31s-21.667 -48 -21 -82zM594.001 1020
c95.333 0 182.334 -22.8311 261.001 -68.498s140.834 -108.5 186.501 -188.5s68.5 -168.333 68.5 -265c0 -146 -49.833 -268.833 -149.5 -368.5s-221.834 -149.5 -366.501 -149.5c-95.333 0 -182.5 22.667 -261.5 68s-141.167 107.666 -186.5 186.999s-68 167 -68 263
c0 147.333 49.667 271.166 149 371.499s221.666 150.5 366.999 150.5zM594.002 840.003c-94 0 -172.833 -32.667 -236.5 -98s-95.5 -146.666 -95.5 -243.999c0 -95.333 31.833 -175.5 95.5 -240.5s142.5 -97.5 236.5 -97.5c93.333 0 172 32.667 236 98s96 145.333 96 240
c0 97.333 -32 178.666 -96 243.999s-142.667 98 -236 98z" />
    <glyph glyph-name="odieresis" unicode="&#xf6;" horiz-adv-x="1187" 
d="M418 1448c34.667 0 64.832 -12.667 90.499 -38s38.5 -55 38.5 -89c0 -34.667 -12.667 -64.5 -38 -89.5s-55.666 -37.5 -90.999 -37.5c-34 0 -63.667 12.5 -89 37.5s-38 54.833 -38 89.5c0 34 12.667 63.667 38 89s55 38 89 38zM769.998 1448
c34 0 63.665 -12.667 88.998 -38s38 -55 38 -89c0 -34.667 -12.667 -64.5 -38 -89.5s-55 -37.5 -89 -37.5c-35.333 0 -65.666 12.5 -90.999 37.5s-38 54.833 -38 89.5c0 34 12.833 63.667 38.5 89s55.834 38 90.501 38zM593.996 1020
c95.333 0 182.334 -22.8311 261.001 -68.498s140.834 -108.5 186.501 -188.5s68.5 -168.333 68.5 -265c0 -146 -49.833 -268.833 -149.5 -368.5s-221.834 -149.5 -366.501 -149.5c-95.333 0 -182.5 22.667 -261.5 68s-141.167 107.666 -186.5 186.999s-68 167 -68 263
c0 147.333 49.667 271.166 149 371.499s221.666 150.5 366.999 150.5zM593.997 840.002c-94 0 -172.833 -32.667 -236.5 -98s-95.5 -146.666 -95.5 -243.999c0 -95.333 31.833 -175.5 95.5 -240.5s142.5 -97.5 236.5 -97.5c93.333 0 172 32.667 236 98s96 145.333 96 240
c0 97.333 -32 178.666 -96 243.999s-142.667 98 -236 98z" />
    <glyph glyph-name="divide" unicode="&#xf7;" horiz-adv-x="1189" 
d="M596 881c-40 0 -73.167 13.167 -99.5 39.5s-39.5 58.833 -39.5 97.5c0 39.333 13.167 72 39.5 98s59.5 39 99.5 39c39.333 0 72.333 -13.167 99 -39.5s40 -58.833 40 -97.5c0 -38 -13.5 -70.333 -40.5 -97s-59.833 -40 -98.5 -40zM1057 737v-178h-926v178h926zM596 139
c-40 0 -73.167 13.1689 -99.5 39.502s-39.5 58.833 -39.5 97.5c0 39.333 13.167 72.166 39.5 98.499s59.5 39.5 99.5 39.5c39.333 0 72.333 -13.333 99 -40s40 -59.334 40 -98.001c0 -38 -13.5 -70.333 -40.5 -97s-59.833 -40 -98.5 -40z" />
    <glyph glyph-name="oslash" unicode="&#xf8;" horiz-adv-x="1187" 
d="M594 1020c95.333 0 182.334 -22.8311 261.001 -68.498s140.834 -108.5 186.501 -188.5s68.5 -168.333 68.5 -265c0 -146 -49.833 -268.833 -149.5 -368.5s-221.834 -149.5 -366.501 -149.5c-95.333 0 -182.5 22.667 -261.5 68s-141.167 107.666 -186.5 186.999
s-68 167 -68 263c0 147.333 49.667 271.166 149 371.499s221.666 150.5 366.999 150.5zM594.001 840.002c-94 0 -172.833 -32.668 -236.5 -98.001s-95.5 -146.666 -95.5 -243.999c0 -56 11.833 -108 35.5 -156s56.167 -87 97.5 -117l236 613c-8 1.33301 -20.333 2 -37 2z
M594.001 160.001c93.333 0 172 32.667 236 98s96 145.333 96 240c0 57.333 -11.667 109.833 -35 157.5s-56 87.167 -98 118.5l-236 -612c8 -1.33301 20.333 -2 37 -2z" />
    <glyph glyph-name="ugrave" unicode="&#xf9;" horiz-adv-x="1189" 
d="M700 1116h-176l-221 297h229zM868 999h188.999v-999h-189v145c-30.667 -50 -75.667 -90 -135 -120s-123.333 -45 -192 -45c-124 0 -223.333 40.667 -298 122s-112 189.333 -112 324v573h191v-544c0 -88 23.833 -158.167 71.5 -210.5s111.167 -78.5 190.5 -78.5
c58.667 0 113.834 14.5 165.501 43.5s91.167 67.833 118.5 116.5v673z" />
    <glyph glyph-name="uacute" unicode="&#xfa;" horiz-adv-x="1189" 
d="M891 1413l-221 -297h-176l168 297h229zM868 999h188.999v-999h-189v145c-30.667 -50 -75.667 -90 -135 -120s-123.333 -45 -192 -45c-124 0 -223.333 40.667 -298 122s-112 189.333 -112 324v573h191v-544c0 -88 23.833 -158.167 71.5 -210.5s111.167 -78.5 190.5 -78.5
c58.667 0 113.834 14.5 165.501 43.5s91.167 67.833 118.5 116.5v673z" />
    <glyph glyph-name="ucircumflex" unicode="&#xfb;" horiz-adv-x="1189" 
d="M598 1305l-127 -177h-168l189 297h210l189 -297h-168zM868 999h188.999v-999h-189v145c-30.667 -50 -75.667 -90 -135 -120s-123.333 -45 -192 -45c-124 0 -223.333 40.667 -298 122s-112 189.333 -112 324v573h191v-544c0 -88 23.833 -158.167 71.5 -210.5
s111.167 -78.5 190.5 -78.5c58.667 0 113.834 14.5 165.501 43.5s91.167 67.833 118.5 116.5v673z" />
    <glyph glyph-name="udieresis" unicode="&#xfc;" horiz-adv-x="1189" 
d="M422 1194c-34.667 0 -64.502 12.333 -89.502 37s-37.5 54.667 -37.5 90c0 34 12.5 63.667 37.5 89s54.833 38 89.5 38s64.834 -12.667 90.501 -38s38.5 -55 38.5 -89c0 -34.667 -12.667 -64.5 -38 -89.5s-55.666 -37.5 -90.999 -37.5zM771.998 1194
c-34.667 0 -64.502 12.333 -89.502 37s-37.5 54.667 -37.5 90c0 34 12.5 63.667 37.5 89s54.833 38 89.5 38s64.834 -12.667 90.501 -38s38.5 -55 38.5 -89c0 -34.667 -12.667 -64.5 -38 -89.5s-55.666 -37.5 -90.999 -37.5zM867.996 999h188.999v-999h-189v145
c-30.667 -50 -75.667 -90 -135 -120s-123.333 -45 -192 -45c-124 0 -223.333 40.667 -298 122s-112 189.333 -112 324v573h191v-544c0 -88 23.833 -158.167 71.5 -210.5s111.167 -78.5 190.5 -78.5c58.667 0 113.834 14.5 165.501 43.5s91.167 67.833 118.5 116.5v673z" />
    <glyph glyph-name="yacute" unicode="&#xfd;" horiz-adv-x="1062" 
d="M842 1413l-221 -297h-177l168 297h230zM829 999h203l-571 -1364h-203l176 400l-403 964h202l297 -745z" />
    <glyph glyph-name="thorn" unicode="&#xfe;" horiz-adv-x="1220" 
d="M653 1020c90.667 0 173.5 -22.8301 248.5 -68.4971s134 -108.334 177 -188.001s64.5 -167.5 64.5 -263.5s-21.5 -183.833 -64.5 -263.5s-102 -142.334 -177 -188.001s-157.833 -68.5 -248.5 -68.5c-69.333 0 -135.333 15.667 -198 47s-108 70.666 -136 117.999v-510h-188
v1799h188v-580c27.333 47.333 72.833 86.833 136.5 118.5s129.5 47.5 197.5 47.5zM618 158.003c96.667 0 177.167 32.5 241.5 97.5s96.5 146.5 96.5 244.5c0 97.333 -32.167 178.666 -96.5 243.999s-144.833 98 -241.5 98c-60.667 0 -118.667 -15.5 -174 -46.5
s-97 -70.833 -125 -119.5v-350c26.667 -49.333 67.667 -89.666 123 -120.999s114 -47 176 -47z" />
    <glyph glyph-name="ydieresis" unicode="&#xff;" horiz-adv-x="1062" 
d="M371 1194c-34 0 -63.6689 12.5 -89.002 37.5s-38 54.833 -38 89.5c0 34 12.667 63.667 38 89s55 38 89 38c34.667 0 64.834 -12.667 90.501 -38s38.5 -55 38.5 -89c0 -34.667 -12.667 -64.5 -38 -89.5s-55.666 -37.5 -90.999 -37.5zM722.998 1194
c-35.333 0 -65.668 12.5 -91.001 37.5s-38 54.833 -38 89.5c0 34 12.833 63.667 38.5 89s55.834 38 90.501 38c34 0 63.667 -12.667 89 -38s38 -55 38 -89c0 -34.667 -12.667 -64.5 -38 -89.5s-55 -37.5 -89 -37.5zM828.996 999h203l-571 -1364h-203l176 400l-403 964h202
l297 -745z" />
    <glyph glyph-name="Amacron" unicode="&#x100;" horiz-adv-x="1361" 
d="M1010 1726v-153h-656v153h656zM1124 0l-125 317h-643l-125 -317h-208l571 1434h170l575 -1434h-215zM432 506h494l-246 629z" />
    <glyph glyph-name="amacron" unicode="&#x101;" horiz-adv-x="1183" 
d="M938 1292v-153h-655v153h655zM899 999l191 -0.00292969v-999h-191v145c-28 -47.333 -73.333 -86.666 -136 -117.999s-128.667 -47 -198 -47c-90.667 0 -173.334 22.833 -248.001 68.5s-133.167 108.334 -175.5 188.001s-63.5 167.5 -63.5 263.5
s21.167 183.833 63.5 263.5s100.833 142.334 175.5 188.001s157.334 68.5 248.001 68.5c70 0 136.5 -15.833 199.5 -47.5s107.833 -71.167 134.5 -118.5v145zM602 157.997c61.333 0 119.5 15.5 174.5 46.5s95.833 70.833 122.5 119.5v350
c-26.667 49.333 -67.5 89.666 -122.5 120.999s-113.167 47 -174.5 47c-96.667 0 -177.5 -32.5 -242.5 -97.5s-97.5 -146.5 -97.5 -244.5c0 -97.333 32.5 -178.666 97.5 -243.999s145.833 -98 242.5 -98z" />
    <glyph glyph-name="Abreve" unicode="&#x102;" horiz-adv-x="1361" 
d="M684 1538c-90.667 0 -165.332 29 -223.999 87s-88.334 134 -89.001 228h145c0.666992 -55.333 16.834 -100.166 48.501 -134.499s71.5 -51.5 119.5 -51.5c47.333 0 86.666 17.167 117.999 51.5s47.333 79.166 48 134.499h145c0 -94 -29.333 -170 -88 -228
s-133 -87 -223 -87zM1124 0l-125 317h-643l-125 -317h-208l571 1434h170l575 -1434h-215zM432.002 506h494l-246 629z" />
    <glyph glyph-name="abreve" unicode="&#x103;" horiz-adv-x="1185" 
d="M580 1104c-90 0 -164.666 29 -223.999 87s-89.333 134 -90 228h148c0 -54.667 15.833 -99.334 47.5 -134.001s71.167 -52 118.5 -52s86.666 17.333 117.999 52s47 79.334 47 134.001h148c-0.666992 -94 -30.5 -170 -89.5 -228s-133.5 -87 -223.5 -87zM899.001 999
l191 -0.00292969v-999h-191v145c-28 -47.333 -73.333 -86.666 -136 -117.999s-128.667 -47 -198 -47c-90.667 0 -173.334 22.833 -248.001 68.5s-133.167 108.334 -175.5 188.001s-63.5 167.5 -63.5 263.5s21.167 183.833 63.5 263.5s100.833 142.334 175.5 188.001
s157.334 68.5 248.001 68.5c70 0 136.5 -15.833 199.5 -47.5s107.833 -71.167 134.5 -118.5v145zM602.001 157.997c61.333 0 119.5 15.5 174.5 46.5s95.833 70.833 122.5 119.5v350c-26.667 49.333 -67.5 89.666 -122.5 120.999s-113.167 47 -174.5 47
c-96.667 0 -177.5 -32.5 -242.5 -97.5s-97.5 -146.5 -97.5 -244.5c0 -97.333 32.5 -178.666 97.5 -243.999s145.833 -98 242.5 -98z" />
    <glyph glyph-name="Aogonek" unicode="&#x104;" horiz-adv-x="1361" 
d="M1315 -233l46.999 -125c-54 -28.667 -121 -43 -201 -43c-62 0 -112.333 18 -151 54s-58 82 -58 138c0 48 13.833 93.667 41.5 137s65.834 81 114.501 113l-109 276h-643l-125 -317h-208l571 1434h170l575 -1434h-55c-50.667 -16 -91 -39 -121 -69s-45 -63.667 -45 -101
c0 -24.667 9 -45.167 27 -61.5s42 -24.5 72 -24.5c35.333 0 68 7.66699 98 23zM431.999 506h494l-246 629z" />
    <glyph glyph-name="aogonek" unicode="&#x105;" horiz-adv-x="1220" 
d="M1118 -233l48.999 -125.003c-56 -28.667 -123.333 -43 -202 -43c-62 0 -112.333 18 -151 54s-58 82 -58 138c0 93.333 47.667 173.333 143 240v114c-28 -47.333 -73.333 -86.666 -136 -117.999s-128.667 -47 -198 -47c-90.667 0 -173.334 22.833 -248.001 68.5
s-133.167 108.334 -175.5 188.001s-63.5 167.5 -63.5 263.5s21.167 183.833 63.5 263.5s100.833 142.334 175.5 188.001s157.334 68.5 248.001 68.5c70 0 136.5 -15.833 199.5 -47.5s107.833 -71.167 134.5 -118.5v145h191v-999c-51.333 -16 -92.166 -39 -122.499 -69
s-45.5 -63.667 -45.5 -101c0 -25.333 9 -46 27 -62s42.333 -24 73 -24c34 0 66 7.66699 96 23zM601.999 157.997c61.333 0 119.5 15.5 174.5 46.5s95.833 70.833 122.5 119.5v350c-26.667 49.333 -67.5 89.666 -122.5 120.999s-113.167 47 -174.5 47
c-96.667 0 -177.5 -32.5 -242.5 -97.5s-97.5 -146.5 -97.5 -244.5c0 -97.333 32.5 -178.666 97.5 -243.999s145.833 -98 242.5 -98z" />
    <glyph glyph-name="Cacute" unicode="&#x106;" horiz-adv-x="1505" 
d="M1100 1847l-221 -297h-177l168 297h230zM1427 358c-39.333 -112.667 -115.663 -203.834 -228.996 -273.501s-242.333 -104.5 -387 -104.5c-102 0 -197.5 19 -286.5 57s-165.167 89.833 -228.5 155.5s-113.166 144.334 -149.499 236.001s-54.5 189.167 -54.5 292.5
c0 82 11.5 160.333 34.5 235s56.167 142 99.5 202s94.166 112.333 152.499 157s124.666 79 198.999 103s152.166 36 233.499 36c138 0 262.167 -32 372.5 -96s186.166 -147.333 227.499 -250l-176 -86c-34 73.333 -89.167 132 -165.5 176s-162.5 66 -258.5 66
c-100 0 -189.333 -23.667 -268 -71s-139.667 -112.333 -183 -195s-65 -175 -65 -277c0 -158.667 48.167 -290.167 144.5 -394.5s220.166 -156.5 371.499 -156.5c101.333 0 191.833 24.5 271.5 73.5s135.167 114.5 166.5 196.5z" />
    <glyph glyph-name="cacute" unicode="&#x107;" horiz-adv-x="1101" 
d="M887 1413l-221 -297h-177l168 297h230zM1051 246c-39.333 -81.333 -99.4971 -145.999 -180.497 -193.999s-172.5 -72 -274.5 -72c-96 0 -183.667 22.667 -263 68s-141.666 107.666 -186.999 186.999s-68 167 -68 263c0 96.667 22.667 185 68 265
s107.666 142.833 186.999 188.5s167 68.5 263 68.5s182.167 -22.167 258.5 -66.5s132.166 -103.5 167.499 -177.5l-162 -88c-20.667 46 -54.834 82.833 -102.501 110.5s-101.5 41.5 -161.5 41.5c-94.667 0 -174 -32.833 -238 -98.5s-96 -146.834 -96 -243.501
c0 -95.333 32 -175.5 96 -240.5s143.333 -97.5 238 -97.5c64.667 0 122.667 14.333 174 43s89.666 68.334 114.999 119.001z" />
    <glyph glyph-name="Ccircumflex" unicode="&#x108;" horiz-adv-x="1505" 
d="M807 1737l-125 -174h-168l188 297h209l191 -297h-170zM1249 440l178.003 -82c-39.333 -112.667 -115.666 -203.834 -228.999 -273.501s-242.333 -104.5 -387 -104.5c-102 0 -197.5 19 -286.5 57s-165.167 89.833 -228.5 155.5s-113.166 144.334 -149.499 236.001
s-54.5 189.167 -54.5 292.5c0 82 11.5 160.333 34.5 235s56.167 142 99.5 202s94.166 112.333 152.499 157s124.666 79 198.999 103s152.166 36 233.499 36c138 0 262.167 -32 372.5 -96s186.166 -147.333 227.499 -250l-176 -86c-34 73.333 -89.167 132 -165.5 176
s-162.5 66 -258.5 66c-100 0 -189.333 -23.667 -268 -71s-139.667 -112.333 -183 -195s-65 -175 -65 -277c0 -158.667 48.167 -290.167 144.5 -394.5s220.166 -156.5 371.499 -156.5c101.333 0 191.833 24.5 271.5 73.5s135.167 114.5 166.5 196.5z" />
    <glyph glyph-name="ccircumflex" unicode="&#x109;" horiz-adv-x="1101" 
d="M592 1303l-125 -175h-168l188 297h209l191 -297h-170zM885 322l166.003 -75.999c-39.333 -81.333 -99.5 -146 -180.5 -194s-172.5 -72 -274.5 -72c-96 0 -183.667 22.667 -263 68s-141.666 107.666 -186.999 186.999s-68 167 -68 263c0 96.667 22.667 185 68 265
s107.666 142.833 186.999 188.5s167 68.5 263 68.5s182.167 -22.167 258.5 -66.5s132.166 -103.5 167.499 -177.5l-162 -88c-20.667 46 -54.834 82.833 -102.501 110.5s-101.5 41.5 -161.5 41.5c-94.667 0 -174 -32.833 -238 -98.5s-96 -146.834 -96 -243.501
c0 -95.333 32 -175.5 96 -240.5s143.333 -97.5 238 -97.5c64.667 0 122.667 14.333 174 43s89.666 68.334 114.999 119.001z" />
    <glyph glyph-name="Cdotaccent" unicode="&#x10a;" horiz-adv-x="1505" 
d="M807 1817c34 0 63.667 -12.333 89 -37s38 -54 38 -88c0 -34.667 -12.667 -64.5 -38 -89.5s-55 -37.5 -89 -37.5c-35.333 0 -65.333 12.5 -90 37.5s-37 54.833 -37 89.5c0 34 12.5 63.333 37.5 88s54.833 37 89.5 37zM1427 358
c-39.333 -112.667 -115.663 -203.834 -228.996 -273.501s-242.333 -104.5 -387 -104.5c-102 0 -197.5 19 -286.5 57s-165.167 89.833 -228.5 155.5s-113.166 144.334 -149.499 236.001s-54.5 189.167 -54.5 292.5c0 82 11.5 160.333 34.5 235s56.167 142 99.5 202
s94.166 112.333 152.499 157s124.666 79 198.999 103s152.166 36 233.499 36c138 0 262.167 -32 372.5 -96s186.166 -147.333 227.499 -250l-176 -86c-34 73.333 -89.167 132 -165.5 176s-162.5 66 -258.5 66c-100 0 -189.333 -23.667 -268 -71s-139.667 -112.333 -183 -195
s-65 -175 -65 -277c0 -158.667 48.167 -290.167 144.5 -394.5s220.166 -156.5 371.499 -156.5c101.333 0 191.833 24.5 271.5 73.5s135.167 114.5 166.5 196.5z" />
    <glyph glyph-name="cdotaccent" unicode="&#x10b;" horiz-adv-x="1101" 
d="M592 1448c34 0 63.667 -12.667 89 -38s38 -55 38 -89c0 -34.667 -12.667 -64.5 -38 -89.5s-55 -37.5 -89 -37.5c-34.667 0 -64.5 12.333 -89.5 37s-37.5 54.667 -37.5 90c0 34 12.5 63.667 37.5 89s54.833 38 89.5 38zM1051 246
c-39.333 -81.333 -99.4971 -145.999 -180.497 -193.999s-172.5 -72 -274.5 -72c-96 0 -183.667 22.667 -263 68s-141.666 107.666 -186.999 186.999s-68 167 -68 263c0 96.667 22.667 185 68 265s107.666 142.833 186.999 188.5s167 68.5 263 68.5
s182.167 -22.167 258.5 -66.5s132.166 -103.5 167.499 -177.5l-162 -88c-20.667 46 -54.834 82.833 -102.501 110.5s-101.5 41.5 -161.5 41.5c-94.667 0 -174 -32.833 -238 -98.5s-96 -146.834 -96 -243.501c0 -95.333 32 -175.5 96 -240.5s143.333 -97.5 238 -97.5
c64.667 0 122.667 14.333 174 43s89.666 68.334 114.999 119.001z" />
    <glyph glyph-name="Ccaron" unicode="&#x10c;" horiz-adv-x="1505" 
d="M702 1550l-188 297h168l125 -174l125 174h170l-191 -297h-209zM1249 440l178.003 -82c-39.333 -112.667 -115.666 -203.834 -228.999 -273.501s-242.333 -104.5 -387 -104.5c-102 0 -197.5 19 -286.5 57s-165.167 89.833 -228.5 155.5s-113.166 144.334 -149.499 236.001
s-54.5 189.167 -54.5 292.5c0 82 11.5 160.333 34.5 235s56.167 142 99.5 202s94.166 112.333 152.499 157s124.666 79 198.999 103s152.166 36 233.499 36c138 0 262.167 -32 372.5 -96s186.166 -147.333 227.499 -250l-176 -86c-34 73.333 -89.167 132 -165.5 176
s-162.5 66 -258.5 66c-100 0 -189.333 -23.667 -268 -71s-139.667 -112.333 -183 -195s-65 -175 -65 -277c0 -158.667 48.167 -290.167 144.5 -394.5s220.166 -156.5 371.499 -156.5c101.333 0 191.833 24.5 271.5 73.5s135.167 114.5 166.5 196.5z" />
    <glyph glyph-name="ccaron" unicode="&#x10d;" horiz-adv-x="1101" 
d="M487 1116l-188 297h168l125 -174l125 174h170l-191 -297h-209zM885 322l166.003 -75.999c-39.333 -81.333 -99.5 -146 -180.5 -194s-172.5 -72 -274.5 -72c-96 0 -183.667 22.667 -263 68s-141.666 107.666 -186.999 186.999s-68 167 -68 263c0 96.667 22.667 185 68 265
s107.666 142.833 186.999 188.5s167 68.5 263 68.5s182.167 -22.167 258.5 -66.5s132.166 -103.5 167.499 -177.5l-162 -88c-20.667 46 -54.834 82.833 -102.501 110.5s-101.5 41.5 -161.5 41.5c-94.667 0 -174 -32.833 -238 -98.5s-96 -146.834 -96 -243.501
c0 -95.333 32 -175.5 96 -240.5s143.333 -97.5 238 -97.5c64.667 0 122.667 14.333 174 43s89.666 68.334 114.999 119.001z" />
    <glyph glyph-name="Dcaron" unicode="&#x10e;" horiz-adv-x="1406" 
d="M518 1550l-188 297h168l125 -174l125 174h170l-191 -297h-209zM604 1434c98.667 0 191.833 -17.999 279.5 -53.999s163.167 -85.167 226.5 -147.5s113.333 -137.666 150 -225.999s55 -182.833 55 -283.5c0 -102 -18.333 -197.833 -55 -287.5
s-86.5 -166.334 -149.5 -230.001s-138.5 -113.834 -226.5 -150.501s-181.333 -55 -280 -55h-459v1434h459zM615.999 188.001c142.667 0 261 50.834 355 152.501s141 229.167 141 382.5c0 151.333 -46.833 276.166 -140.5 374.499s-212.167 147.5 -355.5 147.5h-272v-1057
h272z" />
    <glyph glyph-name="dcaron" unicode="&#x10f;" horiz-adv-x="1384" 
d="M1227 1540h198l-84 -424h-157zM899 854v579.997h191v-1434h-191v145c-28 -47.333 -73.333 -86.666 -136 -117.999s-128.667 -47 -198 -47c-90.667 0 -173.334 22.833 -248.001 68.5s-133.167 108.334 -175.5 188.001s-63.5 167.5 -63.5 263.5s21.167 183.833 63.5 263.5
s100.833 142.334 175.5 188.001s157.334 68.5 248.001 68.5c70 0 136.5 -15.833 199.5 -47.5s107.833 -71.167 134.5 -118.5zM602 157.997c61.333 0 119.5 15.5 174.5 46.5s95.833 70.833 122.5 119.5v350c-26.667 49.333 -67.5 89.666 -122.5 120.999
s-113.167 47 -174.5 47c-96.667 0 -177.5 -32.5 -242.5 -97.5s-97.5 -146.5 -97.5 -244.5c0 -97.333 32.5 -178.666 97.5 -243.999s145.833 -98 242.5 -98z" />
    <glyph glyph-name="Dcroat" unicode="&#x110;" horiz-adv-x="1406" 
d="M604 1434c98.667 0 191.833 -17.999 279.5 -53.999s163.167 -85.167 226.5 -147.5s113.333 -137.666 150 -225.999s55 -182.833 55 -283.5c0 -102 -18.333 -197.833 -55 -287.5s-86.5 -166.334 -149.5 -230.001s-138.5 -113.834 -226.5 -150.501s-181.333 -55 -280 -55
h-459v657h-208v131h208v646h459zM615.999 188.001c142.667 0 261 50.834 355 152.501s141 229.167 141 382.5c0 151.333 -46.833 276.166 -140.5 374.499s-212.167 147.5 -355.5 147.5h-272v-457h229v-131h-229v-469h272z" />
    <glyph glyph-name="dcroat" unicode="&#x111;" horiz-adv-x="1220" 
d="M1321 1303v-123.003h-231v-1180h-191v145c-28 -47.333 -73.333 -86.666 -136 -117.999s-128.667 -47 -198 -47c-90.667 0 -173.334 22.833 -248.001 68.5s-133.167 108.334 -175.5 188.001s-63.5 167.5 -63.5 263.5s21.167 183.833 63.5 263.5
s100.833 142.334 175.5 188.001s157.334 68.5 248.001 68.5c70 0 136.5 -15.833 199.5 -47.5s107.833 -71.167 134.5 -118.5v326h-213v123h213v131h191v-131h231zM602 157.997c61.333 0 119.5 15.5 174.5 46.5s95.833 70.833 122.5 119.5v350
c-26.667 49.333 -67.5 89.666 -122.5 120.999s-113.167 47 -174.5 47c-96.667 0 -177.5 -32.5 -242.5 -97.5s-97.5 -146.5 -97.5 -244.5c0 -97.333 32.5 -178.666 97.5 -243.999s145.833 -98 242.5 -98z" />
    <glyph glyph-name="Emacron" unicode="&#x112;" horiz-adv-x="1073" 
d="M238 1573v153h655v-153h-655zM145 1434h824v-189h-625v-393h557v-188h-557v-476h625v-188h-824v1434z" />
    <glyph glyph-name="emacron" unicode="&#x113;" horiz-adv-x="1142" 
d="M905 1292v-153h-655v153h655zM1065 543c0 -18.667 -1.33203 -44.668 -3.99902 -78.001h-799c8.66699 -96 43.5 -172.5 104.5 -229.5s137.5 -85.5 229.5 -85.5c63.333 0 121.333 13.333 174 40s91.667 62.334 117 107.001l151 -98c-38 -68 -96.667 -121.5 -176 -160.5
s-170 -58.5 -272 -58.5c-70 0 -136.667 13.333 -200 40s-117.833 63.167 -163.5 109.5s-81.834 102 -108.501 167s-40 134.167 -40 207.5c0 94.667 22.333 181.5 67 260.5s106.167 141.333 184.5 187s164.5 68.5 258.5 68.5c134 0 247 -46 339 -138s138 -205 138 -339z
M270.001 607.999h599.999c-6 74.667 -36 135.667 -90 183s-120.667 71 -200 71c-78.667 0 -145.667 -23 -201 -69s-91.666 -107.667 -108.999 -185z" />
    <glyph glyph-name="Ebreve" unicode="&#x114;" horiz-adv-x="1073" 
d="M877 1853c0 -94 -29.498 -170 -88.498 -228s-133.5 -87 -223.5 -87c-90.667 0 -165.334 29 -224.001 87s-88.334 134 -89.001 228h145c0.666992 -55.333 16.834 -100.166 48.501 -134.499s71.5 -51.5 119.5 -51.5c47.333 0 86.666 17.167 117.999 51.5
s47.333 79.166 48 134.499h146zM145.002 1434h824v-189h-625v-393h557v-188h-557v-476h625v-188h-824v1434z" />
    <glyph glyph-name="ebreve" unicode="&#x115;" horiz-adv-x="1142" 
d="M580 1104c-90.667 0 -165.501 29 -224.501 87s-88.833 134 -89.5 228h146c0.666992 -55.333 16.834 -100.166 48.501 -134.499s71.5 -51.5 119.5 -51.5c47.333 0 86.5 17.167 117.5 51.5s46.833 79.166 47.5 134.499h146c0 -94 -29.333 -170 -88 -228s-133 -87 -223 -87z
M1065 543c0 -18.667 -1.33203 -44.668 -3.99902 -78.001h-799c8.66699 -96 43.5 -172.5 104.5 -229.5s137.5 -85.5 229.5 -85.5c63.333 0 121.333 13.333 174 40s91.667 62.334 117 107.001l151 -98c-38 -68 -96.667 -121.5 -176 -160.5s-170 -58.5 -272 -58.5
c-70 0 -136.667 13.333 -200 40s-117.833 63.167 -163.5 109.5s-81.834 102 -108.501 167s-40 134.167 -40 207.5c0 94.667 22.333 181.5 67 260.5s106.167 141.333 184.5 187s164.5 68.5 258.5 68.5c134 0 247 -46 339 -138s138 -205 138 -339zM270 607.999h599.999
c-6 74.667 -36 135.667 -90 183s-120.667 71 -200 71c-78.667 0 -145.667 -23 -201 -69s-91.666 -107.667 -108.999 -185z" />
    <glyph glyph-name="Edotaccent" unicode="&#x116;" horiz-adv-x="1073" 
d="M565 1817c34 0 63.667 -12.333 89 -37s38 -54 38 -88c0 -34.667 -12.667 -64.5 -38 -89.5s-55 -37.5 -89 -37.5c-35.333 0 -65.333 12.5 -90 37.5s-37 54.833 -37 89.5c0 34 12.5 63.333 37.5 88s54.833 37 89.5 37zM145 1434h824v-189h-625v-393h557v-188h-557v-476h625
v-188h-824v1434z" />
    <glyph glyph-name="edotaccent" unicode="&#x117;" horiz-adv-x="1142" 
d="M580 1194c-34.667 0 -64.5 12.333 -89.5 37s-37.5 54.667 -37.5 90c0 34 12.5 63.667 37.5 89s54.833 38 89.5 38c34 0 63.667 -12.667 89 -38s38 -55 38 -89c0 -34.667 -12.667 -64.5 -38 -89.5s-55 -37.5 -89 -37.5zM1065 543
c0 -18.667 -1.33203 -44.668 -3.99902 -78.001h-799c8.66699 -96 43.5 -172.5 104.5 -229.5s137.5 -85.5 229.5 -85.5c63.333 0 121.333 13.333 174 40s91.667 62.334 117 107.001l151 -98c-38 -68 -96.667 -121.5 -176 -160.5s-170 -58.5 -272 -58.5
c-70 0 -136.667 13.333 -200 40s-117.833 63.167 -163.5 109.5s-81.834 102 -108.501 167s-40 134.167 -40 207.5c0 94.667 22.333 181.5 67 260.5s106.167 141.333 184.5 187s164.5 68.5 258.5 68.5c134 0 247 -46 339 -138s138 -205 138 -339zM270.001 607.999h599.999
c-6 74.667 -36 135.667 -90 183s-120.667 71 -200 71c-78.667 0 -145.667 -23 -201 -69s-91.666 -107.667 -108.999 -185z" />
    <glyph glyph-name="Eogonek" unicode="&#x118;" horiz-adv-x="1073" 
d="M969 1245l-625 -0.000976562v-393h557v-188h-557v-476h625v-188h-156c-50.667 -16 -91 -39 -121 -69s-45 -63.667 -45 -101c0 -25.333 8.83301 -46 26.5 -62s41.5 -24 71.5 -24c36 0 69 7.66699 99 23l47 -125c-54 -28.667 -121 -43 -201 -43c-62 0 -112.333 18 -151 54
s-58 82 -58 138c0 78.667 35 148.334 105 209.001h-441v1434h824v-189z" />
    <glyph glyph-name="eogonek" unicode="&#x119;" horiz-adv-x="1142" 
d="M1065 543c0 -18.667 -1.33203 -44.667 -3.99902 -78h-799c8.66699 -96 43.5 -172.5 104.5 -229.5s137.5 -85.5 229.5 -85.5c63.333 0 121.333 13.333 174 40s91.667 62.334 117 107.001l151 -98c-29.333 -51.333 -69.333 -94.333 -120 -129
c-60.667 -48 -104.667 -90.333 -132 -127s-41 -74.334 -41 -113.001c0 -24.667 9 -45.167 27 -61.5s42 -24.5 72 -24.5c35.333 0 68 7.66699 98 23l47 -125c-54 -28.667 -121 -43 -201 -43c-62 0 -112.167 18 -150.5 54s-57.5 82 -57.5 138c0 66 28 130.333 84 193
c-33.333 -2.66699 -58 -4 -74 -4c-70 0 -136.667 13.333 -200 40s-117.833 63.167 -163.5 109.5s-81.834 102 -108.501 167s-40 134.167 -40 207.5c0 94.667 22.333 181.5 67 260.5s106.167 141.333 184.5 187s164.5 68.5 258.5 68.5c134 0 247 -46 339 -138
s138 -205 138 -339zM270.001 608h599.999c-6 74.667 -36 135.667 -90 183s-120.667 71 -200 71c-78.667 0 -145.667 -23 -201 -69s-91.666 -107.667 -108.999 -185z" />
    <glyph glyph-name="Ecaron" unicode="&#x11a;" horiz-adv-x="1073" 
d="M459 1550l-189 297h168l125 -174l125 174h170l-190 -297h-209zM969 1245h-625v-393h557v-188h-557v-476h625v-188h-824v1434h824v-189z" />
    <glyph glyph-name="ecaron" unicode="&#x11b;" horiz-adv-x="1142" 
d="M473 1116l-188 297h168l125 -174l124 174h170l-190 -297h-209zM1065 543c0 -18.667 -1.33203 -44.668 -3.99902 -78.001h-799c8.66699 -96 43.5 -172.5 104.5 -229.5s137.5 -85.5 229.5 -85.5c63.333 0 121.333 13.333 174 40s91.667 62.334 117 107.001l151 -98
c-38 -68 -96.667 -121.5 -176 -160.5s-170 -58.5 -272 -58.5c-70 0 -136.667 13.333 -200 40s-117.833 63.167 -163.5 109.5s-81.834 102 -108.501 167s-40 134.167 -40 207.5c0 94.667 22.333 181.5 67 260.5s106.167 141.333 184.5 187s164.5 68.5 258.5 68.5
c134 0 247 -46 339 -138s138 -205 138 -339zM270.001 607.999h599.999c-6 74.667 -36 135.667 -90 183s-120.667 71 -200 71c-78.667 0 -145.667 -23 -201 -69s-91.666 -107.667 -108.999 -185z" />
    <glyph glyph-name="Gcircumflex" unicode="&#x11c;" horiz-adv-x="1529" 
d="M811 1737l-125 -174h-168l189 297h208l191 -297h-170zM836 604v189h561v-553c-66 -82 -149.167 -145.833 -249.5 -191.5s-211.833 -68.5 -334.5 -68.5c-101.333 0 -196.666 19.167 -285.999 57.5s-165.833 90.333 -229.5 156s-113.834 144.5 -150.501 236.5
s-55 189.667 -55 293s18.333 200.333 55 291s86.834 168.167 150.501 232.5s139.834 115 228.501 152s183.667 55.5 285 55.5c137.333 0 261.333 -32 372 -96s186 -147.333 226 -250l-176 -86c-34 72.667 -89.167 131.167 -165.5 175.5s-161.833 66.5 -256.5 66.5
c-150.667 0 -274.334 -50.667 -371.001 -152s-145 -231 -145 -389c0 -159.333 49 -291 147 -395s221.667 -156 371 -156c157.333 0 285.666 44.333 384.999 133v299h-362z" />
    <glyph glyph-name="gcircumflex" unicode="&#x11d;" horiz-adv-x="1220" 
d="M651 1303l-125 -175h-168l189 297h209l190 -297h-170zM899 999l191.001 0.00292969v-964c0 -136 -45.667 -245.833 -137 -329.5s-208.333 -125.5 -351 -125.5c-90 0 -176.333 15.333 -259 46s-145 72 -187 124l96 129c38 -40.667 87.5 -72.334 148.5 -95.001
s126.833 -34 197.5 -34c86.667 0 158.5 27 215.5 81s85.5 122.667 85.5 206v123c-28 -46.667 -73.5 -85.334 -136.5 -116.001s-128.833 -46 -197.5 -46c-90.667 0 -173.334 22.5 -248.001 67.5s-133.167 106.667 -175.5 185s-63.5 164.833 -63.5 259.5
c0 70.667 12.5 137.5 37.5 200.5s59 117.167 102 162.5s94.667 81.166 155 107.499s124.5 39.5 192.5 39.5c70 0 136.5 -15.5 199.5 -46.5s107.833 -70.167 134.5 -117.5v143zM602.001 174.003c61.333 0 119.5 15.168 174.5 45.501s95.833 69.166 122.5 116.499v344
c-26.667 48 -67.5 87.333 -122.5 118s-113.167 46 -174.5 46c-96.667 0 -177.5 -31.667 -242.5 -95s-97.5 -143 -97.5 -239s32.5 -176 97.5 -240s145.833 -96 242.5 -96z" />
    <glyph glyph-name="Gbreve" unicode="&#x11e;" horiz-adv-x="1529" 
d="M813 1538c-90.667 0 -165.332 29 -223.999 87s-88.334 134 -89.001 228h145c0.666992 -55.333 16.834 -100.166 48.501 -134.499s71.5 -51.5 119.5 -51.5c47.333 0 86.666 17.167 117.999 51.5s47.333 79.166 48 134.499h145c0 -94 -29.333 -170 -88 -228
s-133 -87 -223 -87zM836.002 604v189h561v-553c-66 -82 -149.167 -145.833 -249.5 -191.5s-211.833 -68.5 -334.5 -68.5c-101.333 0 -196.666 19.167 -285.999 57.5s-165.833 90.333 -229.5 156s-113.834 144.5 -150.501 236.5s-55 189.667 -55 293s18.333 200.333 55 291
s86.834 168.167 150.501 232.5s139.834 115 228.501 152s183.667 55.5 285 55.5c137.333 0 261.333 -32 372 -96s186 -147.333 226 -250l-176 -86c-34 72.667 -89.167 131.167 -165.5 175.5s-161.833 66.5 -256.5 66.5c-150.667 0 -274.334 -50.667 -371.001 -152
s-145 -231 -145 -389c0 -159.333 49 -291 147 -395s221.667 -156 371 -156c157.333 0 285.666 44.333 384.999 133v299h-362z" />
    <glyph glyph-name="gbreve" unicode="&#x11f;" horiz-adv-x="1220" 
d="M653 1104c-90.667 0 -165.332 29 -223.999 87s-88.334 134 -89.001 228h145c0.666992 -55.333 16.834 -100.166 48.501 -134.499s71.5 -51.5 119.5 -51.5c47.333 0 86.666 17.167 117.999 51.5s47.333 79.166 48 134.499h146c0 -94 -29.5 -170 -88.5 -228
s-133.5 -87 -223.5 -87zM899.002 999l191.001 0.00292969v-964c0 -136 -45.667 -245.833 -137 -329.5s-208.333 -125.5 -351 -125.5c-90 0 -176.333 15.333 -259 46s-145 72 -187 124l96 129c38 -40.667 87.5 -72.334 148.5 -95.001s126.833 -34 197.5 -34
c86.667 0 158.5 27 215.5 81s85.5 122.667 85.5 206v123c-28 -46.667 -73.5 -85.334 -136.5 -116.001s-128.833 -46 -197.5 -46c-90.667 0 -173.334 22.5 -248.001 67.5s-133.167 106.667 -175.5 185s-63.5 164.833 -63.5 259.5c0 70.667 12.5 137.5 37.5 200.5
s59 117.167 102 162.5s94.667 81.166 155 107.499s124.5 39.5 192.5 39.5c70 0 136.5 -15.5 199.5 -46.5s107.833 -70.167 134.5 -117.5v143zM602.003 174.003c61.333 0 119.5 15.168 174.5 45.501s95.833 69.166 122.5 116.499v344c-26.667 48 -67.5 87.333 -122.5 118
s-113.167 46 -174.5 46c-96.667 0 -177.5 -31.667 -242.5 -95s-97.5 -143 -97.5 -239s32.5 -176 97.5 -240s145.833 -96 242.5 -96z" />
    <glyph glyph-name="Gdotaccent" unicode="&#x120;" horiz-adv-x="1529" 
d="M813 1565c-35.333 0 -65.333 12.5 -90 37.5s-37 54.833 -37 89.5c0 34 12.5 63.333 37.5 88s54.833 37 89.5 37c34 0 63.667 -12.333 89 -37s38 -54 38 -88c0 -34.667 -12.667 -64.5 -38 -89.5s-55 -37.5 -89 -37.5zM836 604v189h561v-553
c-66 -82 -149.167 -145.833 -249.5 -191.5s-211.833 -68.5 -334.5 -68.5c-101.333 0 -196.666 19.167 -285.999 57.5s-165.833 90.333 -229.5 156s-113.834 144.5 -150.501 236.5s-55 189.667 -55 293s18.333 200.333 55 291s86.834 168.167 150.501 232.5
s139.834 115 228.501 152s183.667 55.5 285 55.5c137.333 0 261.333 -32 372 -96s186 -147.333 226 -250l-176 -86c-34 72.667 -89.167 131.167 -165.5 175.5s-161.833 66.5 -256.5 66.5c-150.667 0 -274.334 -50.667 -371.001 -152s-145 -231 -145 -389
c0 -159.333 49 -291 147 -395s221.667 -156 371 -156c157.333 0 285.666 44.333 384.999 133v299h-362z" />
    <glyph glyph-name="gdotaccent" unicode="&#x121;" horiz-adv-x="1220" 
d="M653 1194c-35.333 0 -65.333 12.333 -90 37s-37 54.667 -37 90c0 34 12.5 63.667 37.5 89s54.833 38 89.5 38c34 0 63.667 -12.667 89 -38s38 -55 38 -89c0 -34.667 -12.667 -64.5 -38 -89.5s-55 -37.5 -89 -37.5zM899 999l191.001 0.00292969v-964
c0 -136 -45.667 -245.833 -137 -329.5s-208.333 -125.5 -351 -125.5c-90 0 -176.333 15.333 -259 46s-145 72 -187 124l96 129c38 -40.667 87.5 -72.334 148.5 -95.001s126.833 -34 197.5 -34c86.667 0 158.5 27 215.5 81s85.5 122.667 85.5 206v123
c-28 -46.667 -73.5 -85.334 -136.5 -116.001s-128.833 -46 -197.5 -46c-90.667 0 -173.334 22.5 -248.001 67.5s-133.167 106.667 -175.5 185s-63.5 164.833 -63.5 259.5c0 70.667 12.5 137.5 37.5 200.5s59 117.167 102 162.5s94.667 81.166 155 107.499
s124.5 39.5 192.5 39.5c70 0 136.5 -15.5 199.5 -46.5s107.833 -70.167 134.5 -117.5v143zM602.001 174.003c61.333 0 119.5 15.168 174.5 45.501s95.833 69.166 122.5 116.499v344c-26.667 48 -67.5 87.333 -122.5 118s-113.167 46 -174.5 46
c-96.667 0 -177.5 -31.667 -242.5 -95s-97.5 -143 -97.5 -239s32.5 -176 97.5 -240s145.833 -96 242.5 -96z" />
    <glyph glyph-name="uni0122" unicode="&#x122;" horiz-adv-x="1529" 
d="M836 604v189h561v-553c-66 -82 -149.167 -145.833 -249.5 -191.5s-211.833 -68.5 -334.5 -68.5c-101.333 0 -196.666 19.167 -285.999 57.5s-165.833 90.333 -229.5 156s-113.834 144.5 -150.501 236.5s-55 189.667 -55 293s18.333 200.333 55 291
s86.834 168.167 150.501 232.5s139.834 115 228.501 152s183.667 55.5 285 55.5c137.333 0 261.333 -32 372 -96s186 -147.333 226 -250l-176 -86c-34 72.667 -89.167 131.167 -165.5 175.5s-161.833 66.5 -256.5 66.5c-150.667 0 -274.334 -50.667 -371.001 -152
s-145 -231 -145 -389c0 -159.333 49 -291 147 -395s221.667 -156 371 -156c157.333 0 285.666 44.333 384.999 133v299h-362zM524 -442l170 297h230l-224 -297h-176z" />
    <glyph glyph-name="uni0123" unicode="&#x123;" horiz-adv-x="1220" 
d="M944 1423l-168 -299h-229l221 299h176zM899 999l191.001 0.00292969v-964c0 -136 -45.667 -245.833 -137 -329.5s-208.333 -125.5 -351 -125.5c-90 0 -176.333 15.333 -259 46s-145 72 -187 124l96 129c38 -40.667 87.5 -72.334 148.5 -95.001s126.833 -34 197.5 -34
c86.667 0 158.5 27 215.5 81s85.5 122.667 85.5 206v123c-28 -46.667 -73.5 -85.334 -136.5 -116.001s-128.833 -46 -197.5 -46c-90.667 0 -173.334 22.5 -248.001 67.5s-133.167 106.667 -175.5 185s-63.5 164.833 -63.5 259.5c0 70.667 12.5 137.5 37.5 200.5
s59 117.167 102 162.5s94.667 81.166 155 107.499s124.5 39.5 192.5 39.5c70 0 136.5 -15.5 199.5 -46.5s107.833 -70.167 134.5 -117.5v143zM602.001 174.003c61.333 0 119.5 15.168 174.5 45.501s95.833 69.166 122.5 116.499v344c-26.667 48 -67.5 87.333 -122.5 118
s-113.167 46 -174.5 46c-96.667 0 -177.5 -31.667 -242.5 -95s-97.5 -143 -97.5 -239s32.5 -176 97.5 -240s145.833 -96 242.5 -96z" />
    <glyph glyph-name="Hcircumflex" unicode="&#x124;" horiz-adv-x="1437" 
d="M719 1737l-125 -174h-168l188 297h209l191 -297h-170zM1094 1434h198v-1434h-198v649h-750v-649h-199v1434h199v-596h750v596z" />
    <glyph glyph-name="hcircumflex" unicode="&#x125;" horiz-adv-x="1187" 
d="M352 1563l-125 174l-125 -174h-170l191 297h209l188 -297h-168zM647 1020c124 0 223.333 -40.833 298 -122.5s112 -190.5 112 -326.5v-571h-189v545c0 87.333 -24.167 157.333 -72.5 210s-112.166 79 -191.499 79c-58 0 -112 -14.167 -162 -42.5s-90 -66.833 -120 -115.5
v-676h-191v1434h191v-578c33.333 49.333 79.166 89 137.499 119s120.833 45 187.5 45z" />
    <glyph glyph-name="Hbar" unicode="&#x126;" horiz-adv-x="1437" 
d="M1425 1231v-162h-133v-1069h-198v649h-750v-649h-199v1069h-137v162h137v203h199v-203h750v203h198v-203h133zM1094 838v231h-750v-231h750z" />
    <glyph glyph-name="hbar" unicode="&#x127;" horiz-adv-x="1187" 
d="M647 1020c124 0 223.333 -40.833 298 -122.5s112 -190.5 112 -326.5v-571h-189v545c0 87.333 -24.167 157.333 -72.5 210s-112.166 79 -191.499 79c-58 0 -112 -14.167 -162 -42.5s-90 -66.833 -120 -115.5v-676h-191v1180h-221v123h221v131h191v-131h223v-123h-223v-324
c33.333 49.333 79.166 89 137.499 119s120.833 45 187.5 45z" />
    <glyph glyph-name="Itilde" unicode="&#x128;" horiz-adv-x="489" 
d="M-131 1589c4.66699 74 28 133.833 70 179.5s92.333 68.5 151 68.5c36 0 73.167 -9.83301 111.5 -29.5s73.166 -39.167 104.499 -58.5s56.333 -29 75 -29c24.667 0 45.167 10.333 61.5 31s24.5 47.334 24.5 80.001l154 -25c-6 -72.667 -30.333 -132 -73 -178
s-93 -69 -151 -69c-36.667 0 -74 9.66699 -112 29s-72.667 38.666 -104 57.999s-57 29 -77 29c-24.667 0 -44.167 -10.167 -58.5 -30.5s-21.166 -47.5 -20.499 -81.5zM145 1434h199v-1434h-199v1434z" />
    <glyph glyph-name="itilde" unicode="&#x129;" horiz-adv-x="452" 
d="M-150 1155c4.66699 74 28.166 133.834 70.499 179.501s92.833 68.5 151.5 68.5c36 0 73.167 -9.83301 111.5 -29.5s73 -39.167 104 -58.5s55.833 -29 74.5 -29c24.667 0 45.334 10.333 62.001 31s25 47.334 25 80.001l153 -25c-6 -72.667 -30.167 -132.167 -72.5 -178.5
s-92.5 -69.5 -150.5 -69.5c-29.333 0 -59.166 6.16699 -89.499 18.5s-56 25.666 -77 39.999s-43.167 27.666 -66.5 39.999s-43.333 18.5 -60 18.5c-24.667 0 -44.334 -10.333 -59.001 -31s-21.667 -48 -21 -82zM130.999 999.001h191v-999h-191v999z" />
    <glyph glyph-name="Imacron" unicode="&#x12a;" horiz-adv-x="489" 
d="M-84 1573v153h655v-153h-655zM145 1434h199v-1434h-199v1434z" />
    <glyph glyph-name="imacron" unicode="&#x12b;" horiz-adv-x="452" 
d="M-100 1139v153h655v-153h-655zM131 999h191v-999h-191v999z" />
    <glyph glyph-name="Ibreve" unicode="&#x12c;" horiz-adv-x="489" 
d="M557 1853c0 -94 -29.333 -170 -88 -228s-133 -87 -223 -87c-91.333 0 -166.5 29 -225.5 87s-88.5 134 -88.5 228h146c0.666992 -55.333 16.834 -100.166 48.501 -134.499s71.5 -51.5 119.5 -51.5c47.333 0 86.666 17.167 117.999 51.5s47.333 79.166 48 134.499h145z
M145 1434h199v-1434h-199v1434z" />
    <glyph glyph-name="ibreve" unicode="&#x12d;" horiz-adv-x="452" 
d="M541 1419c0 -94 -29.5 -170 -88.5 -228s-133.5 -87 -223.5 -87c-91.333 0 -166.333 29 -225 87s-88 134 -88 228h145c0.666992 -55.333 16.834 -100.166 48.501 -134.499s71.5 -51.5 119.5 -51.5c47.333 0 86.666 17.167 117.999 51.5s47.333 79.166 48 134.499h146z
M131 999h191v-999h-191v999z" />
    <glyph glyph-name="Iogonek" unicode="&#x12e;" horiz-adv-x="489" 
d="M373 -233l47 -125c-54 -28.667 -121 -43 -201 -43c-62 0 -112.333 18 -151 54s-58 82 -58 138c0 90.667 45 168.667 135 234v1409h199v-1434h-2c-50.667 -16 -91 -39 -121 -69s-45 -63.667 -45 -101c0 -25.333 8.83301 -46 26.5 -62s41.5 -24 71.5 -24
c36 0 69 7.66699 99 23z" />
    <glyph glyph-name="iogonek" unicode="&#x12f;" horiz-adv-x="452" 
d="M227 1194c-35.333 0 -65.333 12.333 -90 37s-37 54.667 -37 90c0 34 12.5 63.667 37.5 89s54.833 38 89.5 38c34 0 63.667 -12.667 89 -38s38 -55 38 -89c0 -34.667 -12.667 -64.5 -38 -89.5s-55 -37.5 -89 -37.5zM350 -233l47.001 -125
c-54 -28.667 -120.667 -43 -200 -43c-62 0 -112.333 18 -151 54s-58 82 -58 138c0 95.333 47.667 175.333 143 240v968h191v-999h-3c-50.667 -16 -90.834 -39 -120.501 -69s-44.5 -63.667 -44.5 -101c0 -25.333 8.83301 -46 26.5 -62s41.5 -24 71.5 -24
c35.333 0 68 7.66699 98 23z" />
    <glyph glyph-name="Idotaccent" unicode="&#x130;" horiz-adv-x="489" 
d="M246 1817c34 0 63.667 -12.333 89 -37s38 -54 38 -88c0 -34.667 -12.667 -64.5 -38 -89.5s-55 -37.5 -89 -37.5c-34.667 0 -64.5 12.5 -89.5 37.5s-37.5 54.833 -37.5 89.5c0 34 12.5 63.333 37.5 88s54.833 37 89.5 37zM145 1434h199v-1434h-199v1434z" />
    <glyph glyph-name="dotlessi" unicode="&#x131;" horiz-adv-x="452" 
d="M131 999h191v-999h-191v999z" />
    <glyph glyph-name="IJ" unicode="&#x132;" horiz-adv-x="1126" 
d="M145 1434h199v-1434h-199v1434zM547 170c6.66699 -1.33301 17.666 -2.00098 32.999 -2.00098c70.667 0 123.834 21.5 159.501 64.5s53.5 110.833 53.5 203.5v998h198v-1047c0 -127.333 -32.167 -226.666 -96.5 -297.999s-151.5 -107 -261.5 -107c-34 0 -66.667 2 -98 6z
" />
    <glyph glyph-name="ij" unicode="&#x133;" horiz-adv-x="905" 
d="M227 1448c34 0 63.667 -12.667 89 -38s38 -55 38 -89c0 -34.667 -12.667 -64.5 -38 -89.5s-55 -37.5 -89 -37.5c-35.333 0 -65.333 12.333 -90 37s-37 54.667 -37 90c0 34 12.5 63.667 37.5 89s54.833 38 89.5 38zM680 1448c34 0 63.665 -12.667 88.998 -38
s38 -55 38 -89c0 -34.667 -12.667 -64.5 -38 -89.5s-55 -37.5 -89 -37.5c-35.333 0 -65.666 12.5 -90.999 37.5s-38 54.833 -38 89.5c0 34 12.833 63.667 38.5 89s55.834 38 90.501 38zM130.998 999h191v-999h-191v999zM427.998 -231c6.66699 -1.33301 16.333 -2 29 -2
c84.667 0 127 60.667 127 182v1050h190v-1067c0 -110 -26.167 -194.167 -78.5 -252.5s-126.5 -87.5 -222.5 -87.5c-16 0 -35.667 2.33301 -59 7z" />
    <glyph glyph-name="Jcircumflex" unicode="&#x134;" horiz-adv-x="636" 
d="M508 1860l190 -297h-170l-125 174l-124 -174h-168l188 297h209zM303 436l-0.000976562 997.999h199v-1047c0 -127.333 -32.333 -226.666 -97 -297.999s-152 -107 -262 -107c-34 0 -66.667 2 -98 6l12 182c6.66699 -1.33301 17.667 -2 33 -2
c70.667 0 123.834 21.5 159.501 64.5s53.5 110.833 53.5 203.5z" />
    <glyph glyph-name="jcircumflex" unicode="&#x135;" horiz-adv-x="452" 
d="M330 1425l190 -297h-170l-125 175l-125 -175h-170l191 297h209zM131 -51l-0.000976562 1050h191v-1067c0 -109.333 -26.333 -193.333 -79 -252s-127 -88 -223 -88c-16 0 -35.667 2.33301 -59 7l14 170c6.66699 -1.33301 16.334 -2 29.001 -2c84.667 0 127 60.667 127 182
z" />
    <glyph glyph-name="uni0136" unicode="&#x136;" horiz-adv-x="1296" 
d="M551 754l702 -754h-262l-649 711v-711h-197v1434h197v-639l600 639h252zM377 -442l170 297h229l-223 -297h-176z" />
    <glyph glyph-name="uni0137" unicode="&#x137;" horiz-adv-x="1062" 
d="M510 520l522 -520h-248l-462 477v-477h-191v1434h191v-873l442 438h235zM283 -442l170 297h229l-223 -297h-176z" />
    <glyph glyph-name="kgreenlandic" unicode="&#x138;" horiz-adv-x="1064" 
d="M1034 0h-246l-469 492v-492h-188v999h188v-452l447 452h238l-482 -479z" />
    <glyph glyph-name="Lacute" unicode="&#x139;" horiz-adv-x="1118" 
d="M539 1847l-222 -297h-176l168 297h230zM145 1434h199v-1246h705v-188h-904v1434z" />
    <glyph glyph-name="lacute" unicode="&#x13a;" horiz-adv-x="452" 
d="M537 1847l-222 -297h-176l168 297h230zM322 1434v-1434h-191v1434h191z" />
    <glyph glyph-name="uni013B" unicode="&#x13b;" horiz-adv-x="1118" 
d="M145 1434h199v-1246h705v-188h-904v1434zM713 -145l-224 -297h-176l170 297h230z" />
    <glyph glyph-name="uni013C" unicode="&#x13c;" horiz-adv-x="452" 
d="M322 1434v-1434h-191v1434h191zM387 -145l-223 -297h-176l170 297h229z" />
    <glyph glyph-name="Lcaron" unicode="&#x13d;" horiz-adv-x="1118" 
d="M795 1540l-86 -424h-156l41 424h201zM145 1434h199v-1246h705v-188h-904v1434z" />
    <glyph glyph-name="lcaron" unicode="&#x13e;" horiz-adv-x="616" 
d="M657 1540l-84 -424h-155l41 424h198zM322 1434v-1434h-191v1434h191z" />
    <glyph glyph-name="Ldot" unicode="&#x13f;" horiz-adv-x="1122" 
d="M145 1434h199v-1246h705v-188h-904v1434zM766 641c-40 0 -73.167 13.167 -99.5 39.5s-39.5 58.833 -39.5 97.5c0 39.333 13.167 72 39.5 98s59.5 39 99.5 39c39.333 0 72.333 -13.167 99 -39.5s40 -58.833 40 -97.5c0 -38 -13.5 -70.333 -40.5 -97s-59.833 -40 -98.5 -40
z" />
    <glyph glyph-name="ldot" unicode="&#x140;" horiz-adv-x="677" 
d="M307 1434v-1434h-190v1434h190zM553 600c-39.333 0 -72.333 13.333 -99 40s-40 59 -40 97c0 39.333 13.167 72 39.5 98s59.5 39 99.5 39c39.333 0 72.333 -13.167 99 -39.5s40 -58.833 40 -97.5c0 -38 -13.5 -70.333 -40.5 -97s-59.833 -40 -98.5 -40z" />
    <glyph glyph-name="Lslash" unicode="&#x141;" horiz-adv-x="1118" 
d="M344 188h705v-188h-904v580l-149 -70v172l149 70v682h199v-590l395 184v-170l-395 -184v-486z" />
    <glyph glyph-name="lslash" unicode="&#x142;" horiz-adv-x="452" 
d="M463 1014v-174l-141 -66v-774h-191v686l-139 -63v174l139 63v574h191v-486z" />
    <glyph glyph-name="Nacute" unicode="&#x143;" horiz-adv-x="1409" 
d="M1004 1847l-222 -297h-176l168 297h230zM145 1434h179l741 -1061v1061h197v-1434h-175l-743 1059v-1059h-199v1434z" />
    <glyph glyph-name="nacute" unicode="&#x144;" horiz-adv-x="1189" 
d="M877 1413l-222 -297h-178l170 297h230zM647 1020c124.667 0 224.167 -40.833 298.5 -122.5s111.5 -190.5 111.5 -326.5v-571h-189v545c0 88 -24 158.167 -72 210.5s-112 78.5 -192 78.5c-58 0 -112.667 -14.5 -164 -43.5s-90.666 -67.833 -117.999 -116.5v-674h-191v999
h191v-145c30.667 50 75.667 90.167 135 120.5s122.666 45.5 189.999 45.5z" />
    <glyph glyph-name="uni0145" unicode="&#x145;" horiz-adv-x="1409" 
d="M145 1434h179l741 -1061v1061h197v-1434h-175l-743 1059v-1059h-199v1434zM864 -145l-223 -297h-176l170 297h229z" />
    <glyph glyph-name="uni0146" unicode="&#x146;" horiz-adv-x="1189" 
d="M647 1020c124.667 0 224.167 -40.833 298.5 -122.5s111.5 -190.5 111.5 -326.5v-571h-189v545c0 88 -24 158.167 -72 210.5s-112 78.5 -192 78.5c-58 0 -112.667 -14.5 -164 -43.5s-90.666 -67.833 -117.999 -116.5v-674h-191v999h191v-145
c30.667 50 75.667 90.167 135 120.5s122.666 45.5 189.999 45.5zM342 -442l168 297h231l-223 -297h-176z" />
    <glyph glyph-name="Ncaron" unicode="&#x147;" horiz-adv-x="1409" 
d="M604 1550l-188 297h168l125 -174l125 174h170l-191 -297h-209zM1065 1434h197v-1434h-175l-743 1059v-1059h-199v1434h179l741 -1061v1061z" />
    <glyph glyph-name="ncaron" unicode="&#x148;" horiz-adv-x="1189" 
d="M477 1116l-190 297h170l125 -176l125 176h170l-191 -297h-209zM647 1020c124.667 0 224.167 -40.833 298.5 -122.5s111.5 -190.5 111.5 -326.5v-571h-189v545c0 88 -24 158.167 -72 210.5s-112 78.5 -192 78.5c-58 0 -112.667 -14.5 -164 -43.5
s-90.666 -67.833 -117.999 -116.5v-674h-191v999h191v-145c30.667 50 75.667 90.167 135 120.5s122.666 45.5 189.999 45.5z" />
    <glyph glyph-name="napostrophe" unicode="&#x149;" horiz-adv-x="1177" 
d="M240 1116h-121.001l63 148c-24 9.33301 -43.333 24.833 -58 46.5s-22 46.167 -22 73.5c0 37.333 12.667 68.666 38 93.999s56.333 38 93 38s67.834 -12.667 93.501 -38s38.5 -56.666 38.5 -93.999c0 -30 -12.333 -66 -37 -108zM646.999 1020
c124.667 0 224.167 -40.833 298.5 -122.5s111.5 -190.5 111.5 -326.5v-571h-189v545c0 88 -24 158.167 -72 210.5s-112 78.5 -192 78.5c-58 0 -112.667 -14.5 -164 -43.5s-90.666 -67.833 -117.999 -116.5v-674h-191v999h191v-145c30.667 50 75.667 90.167 135 120.5
s122.666 45.5 189.999 45.5z" />
    <glyph glyph-name="Eng" unicode="&#x14a;" horiz-adv-x="1409" 
d="M1065 1434l197 -0.00195312v-1416c0 -127.333 -32.333 -226.666 -97 -297.999s-152 -107 -262 -107c-32.667 0 -64.667 2 -96 6l10 182c6.66699 -1.33301 17.667 -2 33 -2c66.667 0 118 18.833 154 56.5s56.333 96.834 61 177.501l-721 1026v-1059h-199v1434h179
l741 -1061v1061z" />
    <glyph glyph-name="eng" unicode="&#x14b;" horiz-adv-x="1189" 
d="M647 1020c124.667 0 224.165 -40.833 298.498 -122.5s111.5 -190.5 111.5 -326.5v-639c0 -110 -26 -194.167 -78 -252.5s-125.667 -87.5 -221 -87.5c-18 0 -42.667 2.33301 -74 7l23 170c6.66699 -1.33301 17.334 -2 32.001 -2c42.667 0 74.834 14.5 96.501 43.5
s32.5 75.167 32.5 138.5v596c0 88 -24 158.167 -72 210.5s-112 78.5 -192 78.5c-58 0 -112.667 -14.5 -164 -43.5s-90.666 -67.833 -117.999 -116.5v-674h-191v999h191v-145c30.667 50 75.667 90.167 135 120.5s122.666 45.5 189.999 45.5z" />
    <glyph glyph-name="Omacron" unicode="&#x14c;" horiz-adv-x="1634" 
d="M489 1573v153h656v-153h-656zM817 1454c100.667 0 195.834 -18.833 285.501 -56.5s166.667 -89 231 -154s115.166 -142.833 152.499 -233.5s56 -187 56 -289c0 -103.333 -18.667 -200.833 -56 -292.5s-88.166 -170.334 -152.499 -236.001s-141.333 -117.5 -231 -155.5
s-184.834 -57 -285.501 -57c-101.333 0 -196.833 19 -286.5 57s-166.5 89.833 -230.5 155.5s-114.667 144.334 -152 236.001s-56 189.167 -56 292.5c0 136 31.5 260 94.5 372s150 200.167 261 264.5s234.167 96.5 369.5 96.5zM817 1264
c-96.667 0 -184.998 -23.833 -264.998 -71.5s-142.833 -113.167 -188.5 -196.5s-68.5 -175 -68.5 -275c0 -155.333 50.167 -286 150.5 -392s224.166 -159 371.499 -159s271.166 53 371.499 159s150.5 236.667 150.5 392c0 100 -22.833 191.667 -68.5 275
s-108.5 148.833 -188.5 196.5s-168.333 71.5 -265 71.5z" />
    <glyph glyph-name="omacron" unicode="&#x14d;" horiz-adv-x="1187" 
d="M266 1139v153h656v-153h-656zM594 1020c95.333 0 182.334 -22.8311 261.001 -68.498s140.834 -108.5 186.501 -188.5s68.5 -168.333 68.5 -265c0 -146 -49.833 -268.833 -149.5 -368.5s-221.834 -149.5 -366.501 -149.5c-95.333 0 -182.5 22.667 -261.5 68
s-141.167 107.666 -186.5 186.999s-68 167 -68 263c0 147.333 49.667 271.166 149 371.499s221.666 150.5 366.999 150.5zM594.001 840.002c-94 0 -172.833 -32.667 -236.5 -98s-95.5 -146.666 -95.5 -243.999c0 -95.333 31.833 -175.5 95.5 -240.5s142.5 -97.5 236.5 -97.5
c93.333 0 172 32.667 236 98s96 145.333 96 240c0 97.333 -32 178.666 -96 243.999s-142.667 98 -236 98z" />
    <glyph glyph-name="Obreve" unicode="&#x14e;" horiz-adv-x="1634" 
d="M1128 1853c0 -94 -29.3311 -170 -87.998 -228s-133 -87 -223 -87c-90.667 0 -165.334 29 -224.001 87s-88.334 134 -89.001 228h145c0.666992 -55.333 16.834 -100.166 48.501 -134.499s71.5 -51.5 119.5 -51.5c47.333 0 86.666 17.167 117.999 51.5
s47.333 79.166 48 134.499h145zM817.002 1454c100.667 0 195.834 -18.833 285.501 -56.5s166.667 -89 231 -154s115.166 -142.833 152.499 -233.5s56 -187 56 -289c0 -103.333 -18.667 -200.833 -56 -292.5s-88.166 -170.334 -152.499 -236.001s-141.333 -117.5 -231 -155.5
s-184.834 -57 -285.501 -57c-101.333 0 -196.833 19 -286.5 57s-166.5 89.833 -230.5 155.5s-114.667 144.334 -152 236.001s-56 189.167 -56 292.5c0 136 31.5 260 94.5 372s150 200.167 261 264.5s234.167 96.5 369.5 96.5zM817.002 1264
c-96.667 0 -184.998 -23.833 -264.998 -71.5s-142.833 -113.167 -188.5 -196.5s-68.5 -175 -68.5 -275c0 -155.333 50.167 -286 150.5 -392s224.166 -159 371.499 -159s271.166 53 371.499 159s150.5 236.667 150.5 392c0 100 -22.833 191.667 -68.5 275
s-108.5 148.833 -188.5 196.5s-168.333 71.5 -265 71.5z" />
    <glyph glyph-name="obreve" unicode="&#x14f;" horiz-adv-x="1187" 
d="M907 1419c0 -94 -29.3311 -170 -87.998 -228s-133 -87 -223 -87c-90.667 0 -165.334 29 -224.001 87s-88.334 134 -89.001 228h145c0.666992 -55.333 16.834 -100.166 48.501 -134.499s71.5 -51.5 119.5 -51.5c47.333 0 86.666 17.167 117.999 51.5
s47.333 79.166 48 134.499h145zM594.002 1020c95.333 0 182.334 -22.8311 261.001 -68.498s140.834 -108.5 186.501 -188.5s68.5 -168.333 68.5 -265c0 -146 -49.833 -268.833 -149.5 -368.5s-221.834 -149.5 -366.501 -149.5c-95.333 0 -182.5 22.667 -261.5 68
s-141.167 107.666 -186.5 186.999s-68 167 -68 263c0 147.333 49.667 271.166 149 371.499s221.666 150.5 366.999 150.5zM594.003 840.002c-94 0 -172.833 -32.667 -236.5 -98s-95.5 -146.666 -95.5 -243.999c0 -95.333 31.833 -175.5 95.5 -240.5s142.5 -97.5 236.5 -97.5
c93.333 0 172 32.667 236 98s96 145.333 96 240c0 97.333 -32 178.666 -96 243.999s-142.667 98 -236 98z" />
    <glyph glyph-name="Ohungarumlaut" unicode="&#x150;" horiz-adv-x="1634" 
d="M723 1550l135 310h-194l-138 -310h197zM1077 1550l135 310h-194l-135 -310h194zM817 1454c100.667 0 195.834 -18.833 285.501 -56.5s166.667 -89 231 -154s115.166 -142.833 152.499 -233.5s56 -187 56 -289c0 -103.333 -18.667 -200.833 -56 -292.5
s-88.166 -170.334 -152.499 -236.001s-141.333 -117.5 -231 -155.5s-184.834 -57 -285.501 -57c-101.333 0 -196.833 19 -286.5 57s-166.5 89.833 -230.5 155.5s-114.667 144.334 -152 236.001s-56 189.167 -56 292.5c0 136 31.5 260 94.5 372s150 200.167 261 264.5
s234.167 96.5 369.5 96.5zM817 1264c-96.667 0 -184.998 -23.833 -264.998 -71.5s-142.833 -113.167 -188.5 -196.5s-68.5 -175 -68.5 -275c0 -155.333 50.167 -286 150.5 -392s224.166 -159 371.499 -159s271.166 53 371.499 159s150.5 236.667 150.5 392
c0 100 -22.833 191.667 -68.5 275s-108.5 148.833 -188.5 196.5s-168.333 71.5 -265 71.5z" />
    <glyph glyph-name="ohungarumlaut" unicode="&#x151;" horiz-adv-x="1187" 
d="M502 1116l135 309h-195l-137 -309h197zM856 1116l135 309h-194l-135 -309h194zM594 1020c95.333 0 182.334 -22.8311 261.001 -68.498s140.834 -108.5 186.501 -188.5s68.5 -168.333 68.5 -265c0 -146 -49.833 -268.833 -149.5 -368.5s-221.834 -149.5 -366.501 -149.5
c-95.333 0 -182.5 22.667 -261.5 68s-141.167 107.666 -186.5 186.999s-68 167 -68 263c0 147.333 49.667 271.166 149 371.499s221.666 150.5 366.999 150.5zM594.001 840.002c-94 0 -172.833 -32.667 -236.5 -98s-95.5 -146.666 -95.5 -243.999
c0 -95.333 31.833 -175.5 95.5 -240.5s142.5 -97.5 236.5 -97.5c93.333 0 172 32.667 236 98s96 145.333 96 240c0 97.333 -32 178.666 -96 243.999s-142.667 98 -236 98z" />
    <glyph glyph-name="OE" unicode="&#x152;" horiz-adv-x="1988" 
d="M1886 1245l-625.999 -0.000976562v-393h559v-188h-559v-476h626v-188h-1083c-99.333 0 -193 18.333 -281 55s-163.333 86.834 -226 150.501s-112.334 140.334 -149.001 230.001s-55 185.5 -55 287.5c0 100.667 18.333 195.167 55 283.5s86.5 163.666 149.5 225.999
s138.333 111.5 226 147.5s181.167 54 280.5 54h1083v-189zM1063 187.999v1057h-272c-143.333 0 -261.833 -49.167 -355.5 -147.5s-140.5 -223.166 -140.5 -374.499c0 -153.333 47 -280.833 141 -382.5s212.333 -152.5 355 -152.5h272z" />
    <glyph glyph-name="oe" unicode="&#x153;" horiz-adv-x="1990" 
d="M1915 543c0 -27.333 -2.00098 -53.3291 -6.00098 -77.9961h-797c8.66699 -96 43.167 -172.5 103.5 -229.5s136.5 -85.5 228.5 -85.5c63.333 0 121.333 13.167 174 39.5s92.334 62.166 119.001 107.499l149 -98c-37.333 -68 -95.5 -121.5 -174.5 -160.5
s-169.5 -58.5 -271.5 -58.5c-86 0 -166 19.5 -240 58.5s-134.667 92.5 -182 160.5c-46.667 -68 -107.167 -121.5 -181.5 -160.5s-155.166 -58.5 -242.499 -58.5c-95.333 0 -182.5 22.667 -261.5 68s-141.167 107.666 -186.5 186.999s-68 167 -68 263
c0 147.333 49.667 271.166 149 371.499s221.666 150.5 366.999 150.5c86.667 0 167 -19.5 241 -58.5s135 -92.5 183 -160.5c46 67.333 105.667 120.666 179 159.999s153 59 239 59c134.667 0 248.167 -46 340.5 -138s138.5 -205 138.5 -339zM1120 608.004h597.999
c-6 74.667 -36.167 135.667 -90.5 183s-121.166 71 -200.499 71c-78 0 -144.167 -22.833 -198.5 -68.5s-90.5 -107.5 -108.5 -185.5zM593.998 160.004c93.333 0 172 32.667 236 98s96 145.333 96 240c0 97.333 -32 178.666 -96 243.999s-142.667 98 -236 98
c-94 0 -172.833 -32.667 -236.5 -98s-95.5 -146.666 -95.5 -243.999c0 -95.333 31.833 -175.5 95.5 -240.5s142.5 -97.5 236.5 -97.5z" />
    <glyph glyph-name="Racute" unicode="&#x154;" horiz-adv-x="1261" 
d="M858 1847l-221 -297h-176l168 297h229zM1206 0l-237 -0.000976562l-381 596h-244v-596h-199v1434h529c120.667 0 222.834 -40 306.501 -120s125.5 -178.667 125.5 -296c0 -103.333 -27.333 -191.166 -82 -263.499s-128.334 -120.5 -221.001 -144.5zM342 1245l2 -460.999
h326c68.667 0 125.334 22.167 170.001 66.5s67 100.166 67 167.499c0 65.333 -22.333 119.5 -67 162.5s-101.334 64.5 -170.001 64.5h-328z" />
    <glyph glyph-name="racute" unicode="&#x155;" horiz-adv-x="739" 
d="M713 1413l-221 -297h-177l168 297h230zM322 854c27.333 49.333 65.667 89.333 115 120s98.333 46 147 46c34.667 0 71.334 -5.33301 110.001 -16l-10 -179c-34.667 12.667 -72.334 19 -113.001 19c-43.333 0 -88.5 -16.167 -135.5 -48.5s-84.833 -75.5 -113.5 -129.5
v-666h-191v999h191v-145z" />
    <glyph glyph-name="uni0156" unicode="&#x156;" horiz-adv-x="1261" 
d="M803 610l403 -610.001h-237l-381 596h-244v-596h-199v1434h529c120.667 0 222.834 -40 306.501 -120s125.5 -178.667 125.5 -296c0 -103.333 -27.333 -191.166 -82 -263.499s-128.334 -120.5 -221.001 -144.5zM342 1245l2 -460.999h326
c68.667 0 125.334 22.167 170.001 66.5s67 100.166 67 167.499c0 65.333 -22.333 119.5 -67 162.5s-101.334 64.5 -170.001 64.5h-328zM377 -442l170 297h229l-223 -297h-176z" />
    <glyph glyph-name="uni0157" unicode="&#x157;" horiz-adv-x="739" 
d="M584 1020c34.667 0 71.335 -5.33301 110.002 -16l-10 -179c-34.667 12.667 -72.334 19 -113.001 19c-43.333 0 -88.5 -16.167 -135.5 -48.5s-84.833 -75.5 -113.5 -129.5v-666h-191v999h191v-145c27.333 49.333 65.666 89.333 114.999 120s98.333 46 147 46z
M-28.999 -442l170 297h230l-224 -297h-176z" />
    <glyph glyph-name="Rcaron" unicode="&#x158;" horiz-adv-x="1261" 
d="M459 1550l-189 297h168l125 -174l125 174h170l-190 -297h-209zM1206 0l-237 -0.000976562l-381 596h-244v-596h-199v1434h529c120.667 0 222.834 -40 306.501 -120s125.5 -178.667 125.5 -296c0 -103.333 -27.333 -191.166 -82 -263.499s-128.334 -120.5 -221.001 -144.5
zM342 1245l2 -460.999h326c68.667 0 125.334 22.167 170.001 66.5s67 100.166 67 167.499c0 65.333 -22.333 119.5 -67 162.5s-101.334 64.5 -170.001 64.5h-328z" />
    <glyph glyph-name="rcaron" unicode="&#x159;" horiz-adv-x="739" 
d="M313 1116l-188 297h168l125 -174l125 174h170l-191 -297h-209zM322 854c27.333 49.333 65.667 89.333 115 120s98.333 46 147 46c34.667 0 71.334 -5.33301 110.001 -16l-10 -179c-34.667 12.667 -72.334 19 -113.001 19c-43.333 0 -88.5 -16.167 -135.5 -48.5
s-84.833 -75.5 -113.5 -129.5v-666h-191v999h191v-145z" />
    <glyph glyph-name="Sacute" unicode="&#x15a;" horiz-adv-x="1177" 
d="M889 1847l-221 -297h-176l167 297h230zM588 1454c90 0 179.169 -18.1641 267.502 -54.4971s155.5 -82.833 201.5 -139.5l-117 -154c-44.667 48.667 -99.834 87.167 -165.501 115.5s-132.834 42.5 -201.501 42.5c-76 0 -138.333 -18 -187 -54s-73 -82.333 -73 -139
c0 -36.667 9 -68.834 27 -96.501s42.167 -50.334 72.5 -68.001s65 -33.334 104 -47.001s80.333 -26.667 124 -39s87.167 -25.5 130.5 -39.5s84.5 -31.333 123.5 -52s73.667 -44.834 104 -72.501s54.5 -63 72.5 -106s27 -92.167 27 -147.5
c0 -56.667 -11.833 -110.667 -35.5 -162s-56.667 -96.333 -99 -135s-95.166 -69.334 -158.499 -92.001s-132.333 -34 -207 -34c-105.333 0 -207 21 -305 63s-179.333 96.667 -244 164l125 147c130.667 -122.667 272 -184 424 -184c87.333 0 158.666 21.5 213.999 64.5
s83 98.5 83 166.5c0 35.333 -8.83301 66.333 -26.5 93s-41.667 48.167 -72 64.5s-65 31 -104 44s-80 25.333 -123 37s-86 24.334 -129 38.001s-84 30.834 -123 51.501s-73.667 44.667 -104 72s-54.333 62.833 -72 106.5s-26.5 93.5 -26.5 149.5
c0 114 44.667 208.667 134 284s202.333 113 339 113z" />
    <glyph glyph-name="sacute" unicode="&#x15b;" horiz-adv-x="937" 
d="M762 1413l-221 -297h-176l167 297h230zM479 -20c-78 0 -154.832 12.998 -230.499 38.998s-137.5 60.667 -185.5 104l78 141c38.667 -37.333 89.667 -67.833 153 -91.5s124.333 -35.5 183 -35.5c57.333 0 104.166 12.833 140.499 38.5s54.5 57.834 54.5 96.501
c0 30 -10.667 55 -32 75s-49 35.5 -83 46.5s-71.5 21 -112.5 30s-82 20 -123 33s-78.5 29 -112.5 48s-61.667 46.333 -83 82s-32 78.5 -32 128.5c0 90.667 35 164.167 105 220.5s161.333 84.5 274 84.5c70 0 137.5 -11 202.5 -33s118.5 -53.333 160.5 -94l-82 -143
c-34.667 34 -81 60.833 -139 80.5s-111.333 29.5 -160 29.5c-52 0 -93.667 -11.833 -125 -35.5s-47 -54.834 -47 -93.501c0 -27.333 10.667 -50.166 32 -68.499s49 -33 83 -44s71.5 -21.333 112.5 -31s82.167 -21.667 123.5 -36s79 -31.833 113 -52.5s61.667 -49.667 83 -87
s32 -81.666 32 -132.999c0 -86.667 -35.667 -158.167 -107 -214.5s-163.333 -84.5 -276 -84.5z" />
    <glyph glyph-name="Scircumflex" unicode="&#x15c;" horiz-adv-x="1177" 
d="M594 1737l-125 -174h-168l188 297h209l191 -297h-170zM313 1071c0 -36.667 9.00195 -68.8311 27.002 -96.498s42.167 -50.334 72.5 -68.001s65 -33.334 104 -47.001s80.333 -26.667 124 -39s87.167 -25.5 130.5 -39.5s84.5 -31.333 123.5 -52s73.667 -44.834 104 -72.501
s54.5 -63 72.5 -106s27 -92.167 27 -147.5c0 -56.667 -11.833 -110.667 -35.5 -162s-56.667 -96.333 -99 -135s-95.166 -69.334 -158.499 -92.001s-132.333 -34 -207 -34c-105.333 0 -207 21 -305 63s-179.333 96.667 -244 164l125 147c130.667 -122.667 272 -184 424 -184
c87.333 0 158.666 21.5 213.999 64.5s83 98.5 83 166.5c0 35.333 -8.83301 66.333 -26.5 93s-41.667 48.167 -72 64.5s-65 31 -104 44s-80 25.333 -123 37s-86 24.334 -129 38.001s-84 30.834 -123 51.501s-73.667 44.667 -104 72s-54.333 62.833 -72 106.5
s-26.5 93.5 -26.5 149.5c0 114 44.667 208.667 134 284s202.333 113 339 113c90 0 179.167 -18.167 267.5 -54.5s155.5 -82.833 201.5 -139.5l-117 -154c-44.667 48.667 -99.834 87.167 -165.501 115.5s-132.834 42.5 -201.501 42.5c-76 0 -138.333 -18 -187 -54
s-73 -82.333 -73 -139z" />
    <glyph glyph-name="scircumflex" unicode="&#x15d;" horiz-adv-x="937" 
d="M469 1303l-125 -175h-168l189 297h208l191 -297h-170zM283 731c0 -27.333 10.668 -50.168 32.001 -68.501s49 -33 83 -44s71.5 -21.333 112.5 -31s82.167 -21.667 123.5 -36s79 -31.833 113 -52.5s61.667 -49.667 83 -87s32 -81.666 32 -132.999
c0 -86.667 -35.667 -158.167 -107 -214.5s-163.333 -84.5 -276 -84.5c-78 0 -154.833 13 -230.5 39s-137.5 60.667 -185.5 104l78 141c38.667 -37.333 89.667 -67.833 153 -91.5s124.333 -35.5 183 -35.5c57.333 0 104.166 12.833 140.499 38.5s54.5 57.834 54.5 96.501
c0 30 -10.667 55 -32 75s-49 35.5 -83 46.5s-71.5 21 -112.5 30s-82 20 -123 33s-78.5 29 -112.5 48s-61.667 46.333 -83 82s-32 78.5 -32 128.5c0 90.667 35 164.167 105 220.5s161.333 84.5 274 84.5c70 0 137.5 -11 202.5 -33s118.5 -53.333 160.5 -94l-82 -143
c-34.667 34 -81 60.833 -139 80.5s-111.333 29.5 -160 29.5c-52 0 -93.667 -11.833 -125 -35.5s-47 -54.834 -47 -93.501z" />
    <glyph glyph-name="Scedilla" unicode="&#x15e;" horiz-adv-x="1177" 
d="M1098 403c0 -106 -38.165 -198.498 -114.498 -277.498s-178.166 -126.167 -305.499 -141.5c43.333 -51.333 69.833 -103 79.5 -155s4.33398 -97.5 -15.999 -136.5s-53.833 -70.833 -100.5 -95.5s-101.334 -37 -164.001 -37h-22l-45 137c72 2.66699 125.667 17.667 161 45
s49.833 62.166 43.5 104.499s-31.5 87.5 -75.5 135.5c-94.667 8 -185.5 32.333 -272.5 73s-159.5 91.334 -217.5 152.001l125 147c130.667 -122.667 272 -184 424 -184c87.333 0 158.666 21.5 213.999 64.5s83 98.5 83 166.5c0 35.333 -8.83301 66.333 -26.5 93
s-41.667 48.167 -72 64.5s-65 31 -104 44s-80 25.333 -123 37s-86 24.334 -129 38.001s-84 30.834 -123 51.501s-73.667 44.667 -104 72s-54.333 62.833 -72 106.5s-26.5 93.5 -26.5 149.5c0 114 44.667 208.667 134 284s202.333 113 339 113
c90 0 179.167 -18.167 267.5 -54.5s155.5 -82.833 201.5 -139.5l-117 -154c-44.667 48.667 -99.834 87.167 -165.501 115.5s-132.834 42.5 -201.501 42.5c-76 0 -138.333 -18 -187 -54s-73 -82.333 -73 -139c0 -36.667 9 -68.834 27 -96.501s42.167 -50.334 72.5 -68.001
s65 -33.334 104 -47.001s80.333 -26.667 124 -39s87.167 -25.5 130.5 -39.5s84.5 -31.333 123.5 -52s73.667 -44.834 104 -72.501s54.5 -63 72.5 -106s27 -92.167 27 -147.5z" />
    <glyph glyph-name="scedilla" unicode="&#x15f;" horiz-adv-x="937" 
d="M862 279c0 -76 -27.499 -140.503 -82.499 -193.503s-128.5 -86.167 -220.5 -99.5c35.333 -41.333 60 -83.166 74 -125.499s16.833 -81.166 8.5 -116.499s-24.5 -67 -48.5 -95s-56.333 -49.833 -97 -65.5s-86 -23.5 -136 -23.5h-22l-45 137
c72 2.66699 125.667 17.667 161 45s49.833 62.166 43.5 104.499s-31.5 87.5 -75.5 135.5c-68.667 6 -135.167 21.5 -199.5 46.5s-117.5 56.5 -159.5 94.5l78 141c38.667 -37.333 89.667 -67.833 153 -91.5s124.333 -35.5 183 -35.5c57.333 0 104.166 12.833 140.499 38.5
s54.5 57.834 54.5 96.501c0 30 -10.667 55 -32 75s-49 35.5 -83 46.5s-71.5 21 -112.5 30s-82 20 -123 33s-78.5 29 -112.5 48s-61.667 46.333 -83 82s-32 78.5 -32 128.5c0 90.667 35 164.167 105 220.5s161.333 84.5 274 84.5c70 0 137.5 -11 202.5 -33
s118.5 -53.333 160.5 -94l-82 -143c-34.667 34 -81 60.833 -139 80.5s-111.333 29.5 -160 29.5c-52 0 -93.667 -11.833 -125 -35.5s-47 -54.834 -47 -93.501c0 -27.333 10.667 -50.166 32 -68.499s49 -33 83 -44s71.5 -21.333 112.5 -31s82.167 -21.667 123.5 -36
s79 -31.833 113 -52.5s61.667 -49.667 83 -87s32 -81.666 32 -132.999z" />
    <glyph glyph-name="Scaron" unicode="&#x160;" horiz-adv-x="1177" 
d="M489 1550l-188 297h168l125 -174l125 174h170l-191 -297h-209zM313 1071c0 -36.667 9.00195 -68.8311 27.002 -96.498s42.167 -50.334 72.5 -68.001s65 -33.334 104 -47.001s80.333 -26.667 124 -39s87.167 -25.5 130.5 -39.5s84.5 -31.333 123.5 -52
s73.667 -44.834 104 -72.501s54.5 -63 72.5 -106s27 -92.167 27 -147.5c0 -56.667 -11.833 -110.667 -35.5 -162s-56.667 -96.333 -99 -135s-95.166 -69.334 -158.499 -92.001s-132.333 -34 -207 -34c-105.333 0 -207 21 -305 63s-179.333 96.667 -244 164l125 147
c130.667 -122.667 272 -184 424 -184c87.333 0 158.666 21.5 213.999 64.5s83 98.5 83 166.5c0 35.333 -8.83301 66.333 -26.5 93s-41.667 48.167 -72 64.5s-65 31 -104 44s-80 25.333 -123 37s-86 24.334 -129 38.001s-84 30.834 -123 51.501s-73.667 44.667 -104 72
s-54.333 62.833 -72 106.5s-26.5 93.5 -26.5 149.5c0 114 44.667 208.667 134 284s202.333 113 339 113c90 0 179.167 -18.167 267.5 -54.5s155.5 -82.833 201.5 -139.5l-117 -154c-44.667 48.667 -99.834 87.167 -165.501 115.5s-132.834 42.5 -201.501 42.5
c-76 0 -138.333 -18 -187 -54s-73 -82.333 -73 -139z" />
    <glyph glyph-name="scaron" unicode="&#x161;" horiz-adv-x="937" 
d="M365 1116l-189 297h168l125 -174l125 174h170l-191 -297h-208zM283 731c0 -27.333 10.668 -50.168 32.001 -68.501s49 -33 83 -44s71.5 -21.333 112.5 -31s82.167 -21.667 123.5 -36s79 -31.833 113 -52.5s61.667 -49.667 83 -87s32 -81.666 32 -132.999
c0 -86.667 -35.667 -158.167 -107 -214.5s-163.333 -84.5 -276 -84.5c-78 0 -154.833 13 -230.5 39s-137.5 60.667 -185.5 104l78 141c38.667 -37.333 89.667 -67.833 153 -91.5s124.333 -35.5 183 -35.5c57.333 0 104.166 12.833 140.499 38.5s54.5 57.834 54.5 96.501
c0 30 -10.667 55 -32 75s-49 35.5 -83 46.5s-71.5 21 -112.5 30s-82 20 -123 33s-78.5 29 -112.5 48s-61.667 46.333 -83 82s-32 78.5 -32 128.5c0 90.667 35 164.167 105 220.5s161.333 84.5 274 84.5c70 0 137.5 -11 202.5 -33s118.5 -53.333 160.5 -94l-82 -143
c-34.667 34 -81 60.833 -139 80.5s-111.333 29.5 -160 29.5c-52 0 -93.667 -11.833 -125 -35.5s-47 -54.834 -47 -93.501z" />
    <glyph glyph-name="uni0162" unicode="&#x162;" horiz-adv-x="1216" 
d="M1163 1245l-454.001 0.000976562v-1222c44 -43.333 76.333 -87.833 97 -133.5s28.334 -87.667 23.001 -126s-19.333 -73 -42 -104s-55.167 -55.333 -97.5 -73s-89.833 -26.5 -142.5 -26.5h-25l-45 137c75.333 3.33301 130.5 19.666 165.5 48.999s47.5 66.5 37.5 111.5
s-40 92.5 -90 142.5h-80v1245h-455v189h1108v-189z" />
    <glyph glyph-name="uni0163" unicode="&#x163;" horiz-adv-x="751" 
d="M690 8c-32 -13.333 -67.999 -20.002 -107.999 -20.002c36 -41.333 61.167 -83.333 75.5 -126s17.5 -81.667 9.5 -117s-23.667 -67.166 -47 -95.499s-55.333 -50.333 -96 -66s-86.334 -23.5 -137.001 -23.5h-25l-45 137c80 3.33301 137.167 21.5 171.5 54.5
s43 74.667 26 125s-56.167 101.833 -117.5 154.5c-56 29.333 -99.333 71.833 -130 127.5s-46 122.834 -46 201.501v459h-194v180h194v271h189v-271h270v-180h-270v-450c0 -63.333 18.333 -113.333 55 -150s83.667 -55 141 -55c27.333 0 52 3.33301 74 10z" />
    <glyph glyph-name="Tcaron" unicode="&#x164;" horiz-adv-x="1218" 
d="M502 1550l-189 297h168l125 -174l125 174h170l-190 -297h-209zM1163 1434v-189h-454v-1245h-199v1245h-455v189h1108z" />
    <glyph glyph-name="tcaron" unicode="&#x165;" horiz-adv-x="751" 
d="M594 1540h201l-86 -424h-156zM606 164c27.333 0 52 3.33203 74 9.99902l10 -166c-32 -13.333 -68 -20 -108 -20c-108 0 -195.167 32.833 -261.5 98.5s-99.5 156.834 -99.5 273.501v459h-194v180h194v271h189v-271h270v-180h-270v-450c0 -63.333 18.333 -113.333 55 -150
s83.667 -55 141 -55z" />
    <glyph glyph-name="Tbar" unicode="&#x166;" horiz-adv-x="1218" 
d="M1163 1245h-454v-463h217v-131h-217v-651h-199v651h-221v131h221v463h-455v189h1108v-189z" />
    <glyph glyph-name="tbar" unicode="&#x167;" horiz-adv-x="751" 
d="M680 174l10 -166.001c-32 -13.333 -68 -20 -108 -20c-108 0 -195.167 32.833 -261.5 98.5s-99.5 156.834 -99.5 273.501v80h-194v117h194v262h-194v180h194v271h189v-271h270v-180h-270v-262h249v-117h-249v-71c0 -63.333 18.333 -113.333 55 -150s83.667 -55 141 -55
c27.333 0 52 3.33301 74 10z" />
    <glyph glyph-name="Utilde" unicode="&#x168;" horiz-adv-x="1396" 
d="M322 1589c4.66699 74 28.002 133.833 70.002 179.5s92.333 68.5 151 68.5c36 0 73.167 -9.83301 111.5 -29.5s73.166 -39.167 104.499 -58.5s56.333 -29 75 -29c24.667 0 45.167 10.333 61.5 31s24.5 47.334 24.5 80.001l153 -25c-6 -72.667 -30.167 -132 -72.5 -178
s-92.5 -69 -150.5 -69c-36.667 0 -74 9.66699 -112 29s-72.667 38.666 -104 57.999s-57 29 -77 29c-24.667 0 -44.334 -10.167 -59.001 -30.5s-21.667 -47.5 -21 -81.5zM698.002 -20c-158.667 0 -290.5 53.333 -395.5 160s-157.5 240.334 -157.5 401.001v893h199v-893
c0 -106 33.5 -194 100.5 -264s151.5 -105 253.5 -105s186.667 35 254 105s101 158 101 264v893h198v-893c0 -160.667 -52.5 -294.334 -157.5 -401.001s-236.833 -160 -395.5 -160z" />
    <glyph glyph-name="utilde" unicode="&#x169;" horiz-adv-x="1189" 
d="M457 1241c-24.667 0 -44.6689 -10.499 -60.002 -31.499s-22.666 -48.167 -21.999 -81.5l-154 27c4.66699 74 27.834 133.833 69.501 179.5s92.167 68.5 151.5 68.5c36 0 73.167 -9.83301 111.5 -29.5s73.166 -39.167 104.499 -58.5s56.333 -29 75 -29
c24.667 0 45.167 10.333 61.5 31s24.5 47.334 24.5 80.001l154 -25c-6 -72.667 -30.167 -132.167 -72.5 -178.5s-92.5 -69.5 -150.5 -69.5c-29.333 0 -59.166 6.16699 -89.499 18.5s-56 25.666 -77 39.999s-43.167 27.666 -66.5 39.999s-43.333 18.5 -60 18.5z
M867.998 999.001h188.999v-999h-189v145c-30.667 -50 -75.667 -90 -135 -120s-123.333 -45 -192 -45c-124 0 -223.333 40.667 -298 122s-112 189.333 -112 324v573h191v-544c0 -88 23.833 -158.167 71.5 -210.5s111.167 -78.5 190.5 -78.5
c58.667 0 113.834 14.5 165.501 43.5s91.167 67.833 118.5 116.5v673z" />
    <glyph glyph-name="Umacron" unicode="&#x16a;" horiz-adv-x="1396" 
d="M371 1573v153h655v-153h-655zM698 -20c-158.667 0 -290.5 53.333 -395.5 160s-157.5 240.334 -157.5 401.001v893h199v-893c0 -106 33.5 -194 100.5 -264s151.5 -105 253.5 -105s186.667 35 254 105s101 158 101 264v893h198v-893
c0 -160.667 -52.5 -294.334 -157.5 -401.001s-236.833 -160 -395.5 -160z" />
    <glyph glyph-name="umacron" unicode="&#x16b;" horiz-adv-x="1189" 
d="M926 1292v-153h-656v153h656zM868 999h188.999v-999h-189v145c-30.667 -50 -75.667 -90 -135 -120s-123.333 -45 -192 -45c-124 0 -223.333 40.667 -298 122s-112 189.333 -112 324v573h191v-544c0 -88 23.833 -158.167 71.5 -210.5s111.167 -78.5 190.5 -78.5
c58.667 0 113.834 14.5 165.501 43.5s91.167 67.833 118.5 116.5v673z" />
    <glyph glyph-name="Ubreve" unicode="&#x16c;" horiz-adv-x="1396" 
d="M1012 1853c0 -94 -29.498 -170 -88.498 -228s-133.5 -87 -223.5 -87c-90.667 0 -165.334 29 -224.001 87s-88.334 134 -89.001 228h145c0.666992 -55.333 16.834 -100.166 48.501 -134.499s71.5 -51.5 119.5 -51.5c47.333 0 86.666 17.167 117.999 51.5
s47.333 79.166 48 134.499h146zM698.002 -20c-158.667 0 -290.5 53.333 -395.5 160s-157.5 240.334 -157.5 401.001v893h199v-893c0 -106 33.5 -194 100.5 -264s151.5 -105 253.5 -105s186.667 35 254 105s101 158 101 264v893h198v-893
c0 -160.667 -52.5 -294.334 -157.5 -401.001s-236.833 -160 -395.5 -160z" />
    <glyph glyph-name="ubreve" unicode="&#x16d;" horiz-adv-x="1189" 
d="M598 1104c-90.667 0 -165.332 29 -223.999 87s-88.334 134 -89.001 228h145c0.666992 -55.333 16.834 -100.166 48.501 -134.499s71.5 -51.5 119.5 -51.5c47.333 0 86.666 17.167 117.999 51.5s47.333 79.166 48 134.499h145c0 -94 -29.333 -170 -88 -228
s-133 -87 -223 -87zM868.002 999h188.999v-999h-189v145c-30.667 -50 -75.667 -90 -135 -120s-123.333 -45 -192 -45c-124 0 -223.333 40.667 -298 122s-112 189.333 -112 324v573h191v-544c0 -88 23.833 -158.167 71.5 -210.5s111.167 -78.5 190.5 -78.5
c58.667 0 113.834 14.5 165.501 43.5s91.167 67.833 118.5 116.5v673z" />
    <glyph glyph-name="Uring" unicode="&#x16e;" horiz-adv-x="1396" 
d="M698 1544c-74 0 -135.499 23.5 -184.499 70.5s-73.5 106.167 -73.5 177.5c0 70.667 24.667 129.667 74 177s110.666 71 183.999 71s135 -23.667 185 -71s75 -106.333 75 -177c0 -71.333 -24.833 -130.5 -74.5 -177.5s-111.5 -70.5 -185.5 -70.5zM698.001 1659
c40 0 72.999 12.667 98.999 38s39 57 39 95c0 37.333 -13.167 68.833 -39.5 94.5s-59.166 38.5 -98.499 38.5c-38.667 0 -71.167 -12.833 -97.5 -38.5s-39.5 -57.167 -39.5 -94.5c0 -38 13 -69.667 39 -95s58.667 -38 98 -38zM698 -20c-158.667 0 -290.5 53.333 -395.5 160
s-157.5 240.334 -157.5 401.001v893h199v-893c0 -106 33.5 -194 100.5 -264s151.5 -105 253.5 -105s186.667 35 254 105s101 158 101 264v893h198v-893c0 -160.667 -52.5 -294.334 -157.5 -401.001s-236.833 -160 -395.5 -160z" />
    <glyph glyph-name="uring" unicode="&#x16f;" horiz-adv-x="1189" 
d="M598 1110c-74 0 -135.498 23.5 -184.498 70.5s-73.5 106.167 -73.5 177.5c0 70.667 24.667 129.667 74 177s110.666 71 183.999 71s134.666 -23.667 183.999 -71s74 -106.333 74 -177c0 -71.333 -24.5 -130.5 -73.5 -177.5s-110.5 -70.5 -184.5 -70.5zM598.002 1491
c-39.333 0 -72 -12.833 -98 -38.5s-39 -57.167 -39 -94.5c0 -38 12.833 -69.667 38.5 -95s58.5 -38 98.5 -38c39.333 0 72 12.667 98 38s39 57 39 95c0 37.333 -13.167 68.833 -39.5 94.5s-58.833 38.5 -97.5 38.5zM868.002 999h188.999v-999h-189v145
c-30.667 -50 -75.667 -90 -135 -120s-123.333 -45 -192 -45c-124 0 -223.333 40.667 -298 122s-112 189.333 -112 324v573h191v-544c0 -88 23.833 -158.167 71.5 -210.5s111.167 -78.5 190.5 -78.5c58.667 0 113.834 14.5 165.501 43.5s91.167 67.833 118.5 116.5v673z" />
    <glyph glyph-name="Uhungarumlaut" unicode="&#x170;" horiz-adv-x="1396" 
d="M606 1550l135 310h-194l-137 -310h196zM961 1550l135 310h-195l-135 -310h195zM698 -20c-158.667 0 -290.5 53.333 -395.5 160s-157.5 240.334 -157.5 401.001v893h199v-893c0 -106 33.5 -194 100.5 -264s151.5 -105 253.5 -105s186.667 35 254 105s101 158 101 264v893
h198v-893c0 -160.667 -52.5 -294.334 -157.5 -401.001s-236.833 -160 -395.5 -160z" />
    <glyph glyph-name="uhungarumlaut" unicode="&#x171;" horiz-adv-x="1189" 
d="M639 1425l-135 -309h-195l135 309h195zM995 1425l-135 -309h-196l135 309h196zM868 999h188.999v-999h-189v145c-30.667 -50 -75.667 -90 -135 -120s-123.333 -45 -192 -45c-124 0 -223.333 40.667 -298 122s-112 189.333 -112 324v573h191v-544
c0 -88 23.833 -158.167 71.5 -210.5s111.167 -78.5 190.5 -78.5c58.667 0 113.834 14.5 165.501 43.5s91.167 67.833 118.5 116.5v673z" />
    <glyph glyph-name="Uogonek" unicode="&#x172;" horiz-adv-x="1396" 
d="M1053 1434h198v-893c0 -135.333 -38.333 -252.833 -115 -352.5s-176.667 -163.834 -300 -192.501c-46.667 -16.667 -83.667 -39.667 -111 -69s-41 -61.666 -41 -96.999c0 -25.333 8.83301 -46 26.5 -62s41.5 -24 71.5 -24c36 0 69 7.66699 99 23l47 -125
c-54 -28.667 -121 -43 -201 -43c-62 0 -112.333 18 -151 54s-58 82 -58 138c0 72 30 137 90 195c-136 20.667 -247.167 82.167 -333.5 184.5s-129.5 225.833 -129.5 370.5v893h199v-893c0 -106 33.5 -194 100.5 -264s151.5 -105 253.5 -105s186.667 35 254 105
s101 158 101 264v893z" />
    <glyph glyph-name="uogonek" unicode="&#x173;" horiz-adv-x="1189" 
d="M1087 -233l47.999 -125c-54 -28.667 -121 -43 -201 -43c-62 0 -112.333 18 -151 54s-58 82 -58 138c0 95.333 47.667 175.333 143 240v114c-30.667 -50 -75.667 -90 -135 -120s-123.333 -45 -192 -45c-124 0 -223.333 40.667 -298 122s-112 189.333 -112 324v573h191
v-544c0 -88 23.833 -158.167 71.5 -210.5s111.167 -78.5 190.5 -78.5c58.667 0 113.834 14.5 165.501 43.5s91.167 67.833 118.5 116.5v673h189v-999c-50.667 -16 -91 -39 -121 -69s-45 -63.667 -45 -101c0 -25.333 8.83301 -46 26.5 -62s41.5 -24 71.5 -24
c35.333 0 68 7.66699 98 23z" />
    <glyph glyph-name="Wcircumflex" unicode="&#x174;" horiz-adv-x="2080" 
d="M1040 1737l-125 -174h-167l188 297h209l190 -297h-170zM1843 1434h209l-479 -1434h-168l-363 1114l-362 -1114h-168l-481 1434h209l360 -1115l363 1115h167l359 -1117z" />
    <glyph glyph-name="wcircumflex" unicode="&#x175;" horiz-adv-x="1611" 
d="M805 1303l-125 -175h-168l188 297h209l191 -297h-170zM1378 999h203l-364 -999h-152l-260 717l-262 -717h-150l-362 999h200l240 -714l254 714h158l258 -714z" />
    <glyph glyph-name="Ycircumflex" unicode="&#x176;" horiz-adv-x="1304" 
d="M653 1737l-125 -174h-168l189 297h209l190 -297h-170zM1044 1434h232l-520 -801v-633h-199v633l-526 801h239l389 -603z" />
    <glyph glyph-name="ycircumflex" unicode="&#x177;" horiz-adv-x="1062" 
d="M547 1303l-125 -175h-168l188 297h209l191 -297h-170zM829 999h203l-571 -1364h-203l176 400l-403 964h202l297 -745z" />
    <glyph glyph-name="Ydieresis" unicode="&#x178;" horiz-adv-x="1304" 
d="M479 1817c35.333 0 65.666 -12.333 90.999 -37s38 -54 38 -88c0 -34.667 -12.667 -64.5 -38 -89.5s-55.666 -37.5 -90.999 -37.5c-34 0 -63.667 12.5 -89 37.5s-38 54.833 -38 89.5c0 34 12.667 63.333 38 88s55 37 89 37zM831 1817c34 0 63.667 -12.333 89 -37
s38 -54 38 -88c0 -34.667 -12.667 -64.5 -38 -89.5s-55 -37.5 -89 -37.5c-35.333 0 -65.666 12.5 -90.999 37.5s-38 54.833 -38 89.5c0 34 12.667 63.333 38 88s55.666 37 90.999 37zM31 1434h239l389 -603l385 603h232l-520 -801v-633h-199v633z" />
    <glyph glyph-name="Zacute" unicode="&#x179;" horiz-adv-x="1200" 
d="M897 1847l-221 -297h-176l168 297h229zM102 1434h1022v-138l-805 -1108h814v-188h-1076v139l807 1106h-762v189z" />
    <glyph glyph-name="zacute" unicode="&#x17a;" horiz-adv-x="1026" 
d="M797 1413l-222 -297h-176l168 297h230zM940 999v-139l-616 -684l618 4v-180h-883v139l619 684l-576 -4v180h838z" />
    <glyph glyph-name="Zdotaccent" unicode="&#x17b;" horiz-adv-x="1200" 
d="M604 1817c34 0 63.667 -12.333 89 -37s38 -54 38 -88c0 -34.667 -12.667 -64.5 -38 -89.5s-55 -37.5 -89 -37.5c-34.667 0 -64.5 12.5 -89.5 37.5s-37.5 54.833 -37.5 89.5c0 34 12.5 63.333 37.5 88s54.833 37 89.5 37zM102 1434h1022v-138l-805 -1108h814v-188h-1076
v139l807 1106h-762v189z" />
    <glyph glyph-name="zdotaccent" unicode="&#x17c;" horiz-adv-x="1026" 
d="M504 1448c34 0 63.667 -12.667 89 -38s38 -55 38 -89c0 -34.667 -12.667 -64.5 -38 -89.5s-55 -37.5 -89 -37.5c-34.667 0 -64.5 12.333 -89.5 37s-37.5 54.667 -37.5 90c0 34 12.5 63.667 37.5 89s54.833 38 89.5 38zM940 999v-139l-616 -684l618 4v-180h-883v139
l619 684l-576 -4v180h838z" />
    <glyph glyph-name="Zcaron" unicode="&#x17d;" horiz-adv-x="1200" 
d="M500 1550l-189 297h168l125 -174l125 174h170l-190 -297h-209zM319 188h814v-188h-1076v139l807 1106h-762v189h1022v-138z" />
    <glyph glyph-name="zcaron" unicode="&#x17e;" horiz-adv-x="1026" 
d="M397 1116l-188 297h168l125 -174l125 174h170l-191 -297h-209zM324 176l618 4v-180h-883v139l619 684l-576 -4v180h838v-139z" />
    <glyph glyph-name="longs" unicode="&#x17f;" horiz-adv-x="862" 
d="M293 0l-2 819.001h-221v180h221v91c0 117.333 34.333 208.666 103 273.999s162 98 280 98c79.333 0 149 -18.333 209 -55l-39 -172c-48.667 34 -105.334 51 -170.001 51c-57.333 0 -104.166 -18.5 -140.499 -55.5s-54.5 -87.5 -54.5 -151.5v-260l2 -819h-188z" />
    <glyph glyph-name="uni0180" unicode="&#x180;" horiz-adv-x="1220" 
d="M655 1020c90.667 0 173.335 -22.8301 248.002 -68.4971s133.334 -108.334 176.001 -188.001s64 -167.5 64 -263.5s-21.333 -183.833 -64 -263.5s-101.334 -142.334 -176.001 -188.001s-157.334 -68.5 -248.001 -68.5c-68.667 0 -134.334 15.667 -197.001 47
s-108 70.666 -136 117.999v-145h-191v1182h-221v131h221v121h191v-121h225v-131h-225v-328c26.667 47.333 71.5 86.833 134.5 118.5s129.167 47.5 198.5 47.5zM618.001 158.003c96.667 0 177.501 32.667 242.501 98s97.5 146.666 97.5 243.999c0 98 -32.5 179.5 -97.5 244.5
s-145.833 97.5 -242.5 97.5c-61.333 0 -119.333 -15.667 -174 -47s-95.334 -71.666 -122.001 -120.999v-350c26.667 -48.667 67.5 -88.5 122.5 -119.5s112.833 -46.5 173.5 -46.5z" />
    <glyph glyph-name="florin" unicode="&#x192;" horiz-adv-x="741" 
d="M430 1092l0.000976562 -93.001h270v-180h-270v-831c0 -116.667 -33.167 -208 -99.5 -274s-153.833 -99 -262.5 -99c-42 0 -77.667 6 -107 18l10 168c20 -6.66699 44 -10 72 -10c57.333 0 104.833 18.5 142.5 55.5s56.5 86.833 56.5 149.5v823h-195v180h195v101
c0 116.667 33.167 208.334 99.5 275.001s153.166 100 260.499 100c38.667 0 75 -7 109 -21l-11 -166c-20 6.66699 -43.667 10 -71 10c-57.333 0 -104.833 -18.5 -142.5 -55.5s-56.5 -87.167 -56.5 -150.5z" />
    <glyph glyph-name="uni01EA" unicode="&#x1ea;" horiz-adv-x="1634" 
d="M948 -8c-44 -18 -78.168 -40.832 -102.501 -68.499s-36.5 -58.834 -36.5 -93.501c0 -25.333 8.83301 -46 26.5 -62s41.5 -24 71.5 -24c36 0 69 7.66699 99 23l47 -125c-54 -28.667 -121 -43 -201 -43c-62 0 -112.333 18 -151 54s-58 82 -58 138
c0 70 29.333 134.333 88 193c-122 14 -231.5 54.667 -328.5 122s-173 154.666 -228 261.999s-82.5 225 -82.5 353c0 136 31.5 260 94.5 372s150 200.167 261 264.5s234.167 96.5 369.5 96.5c100.667 0 195.834 -18.833 285.501 -56.5s166.667 -89 231 -154
s115.166 -142.833 152.499 -233.5s56 -187 56 -289c0 -185.333 -55.667 -345.666 -167 -480.999s-253.666 -218 -426.999 -248zM294.999 721.001c0 -155.333 50.1689 -286 150.502 -392s224.166 -159 371.499 -159s271.166 53 371.499 159s150.5 236.667 150.5 392
c0 100 -22.833 191.667 -68.5 275s-108.5 148.833 -188.5 196.5s-168.333 71.5 -265 71.5s-185 -23.833 -265 -71.5s-142.833 -113.167 -188.5 -196.5s-68.5 -175 -68.5 -275z" />
    <glyph glyph-name="uni01EB" unicode="&#x1eb;" horiz-adv-x="1187" 
d="M721 -6c-46 -16 -82.5 -38.498 -109.5 -67.498s-40.5 -61.167 -40.5 -96.5c0 -24.667 9 -45.167 27 -61.5s42 -24.5 72 -24.5c35.333 0 68 7.66699 98 23l47 -125c-54 -28.667 -121 -43 -201 -43c-62 0 -112.167 18 -150.5 54s-57.5 82 -57.5 138c0 73.333 30 139 90 197
c-122 22.667 -222.167 81.167 -300.5 175.5s-117.5 205.833 -117.5 334.5c0 147.333 49.667 271.166 149 371.499s221.666 150.5 366.999 150.5c95.333 0 182.333 -22.833 261 -68.5s140.834 -108.5 186.501 -188.5s68.5 -168.333 68.5 -265
c0 -122.667 -36.333 -230.334 -109 -323.001s-166 -153 -280 -181zM262 498.002c0 -95.333 31.833 -175.5 95.5 -240.5s142.5 -97.5 236.5 -97.5c93.333 0 172 32.667 236 98s96 145.333 96 240c0 97.333 -32 178.666 -96 243.999s-142.667 98 -236 98
c-94 0 -172.833 -32.667 -236.5 -98s-95.5 -146.666 -95.5 -243.999z" />
    <glyph glyph-name="Aringacute" unicode="&#x1fa;" horiz-adv-x="1361" 
d="M682 1544c-74 0 -135.501 23.502 -184.501 70.502s-73.5 106.167 -73.5 177.5c0 53.333 14.833 100.666 44.5 141.999s68.834 71 117.501 89l162 285h229l-209 -280c52 -16.667 94 -46.334 126 -89.001s48 -91.667 48 -147c0 -71.333 -24.833 -130.5 -74.5 -177.5
s-111.5 -70.5 -185.5 -70.5zM681.999 1925c-38.667 0 -71.167 -12.833 -97.5 -38.5s-39.5 -57.167 -39.5 -94.5c0 -38 13 -69.667 39 -95s58.667 -38 98 -38c40 0 72.833 12.667 98.5 38s38.5 57 38.5 95c0 37.333 -13 68.833 -39 94.5s-58.667 38.5 -98 38.5z
M1124 0.00195312l-125 317h-643l-125 -317h-208l571 1434h170l575 -1434h-215zM431.999 506.002h494l-246 629z" />
    <glyph glyph-name="aringacute" unicode="&#x1fb;" horiz-adv-x="1220" 
d="M645 1110c-74 0 -135.501 23.5 -184.501 70.5s-73.5 106.167 -73.5 177.5c0 53.333 14.833 100.666 44.5 141.999s68.834 71 117.501 89l162 285h229l-209 -281c52 -16.667 94 -46.167 126 -88.5s48 -91.166 48 -146.499c0 -71.333 -24.833 -130.5 -74.5 -177.5
s-111.5 -70.5 -185.5 -70.5zM644.999 1491c-38.667 0 -70.834 -12.833 -96.501 -38.5s-38.5 -57.167 -38.5 -94.5c0 -38 12.833 -69.667 38.5 -95s57.834 -38 96.501 -38c40 0 73.167 12.667 99.5 38s39.5 57 39.5 95c0 37.333 -13.167 68.833 -39.5 94.5
s-59.5 38.5 -99.5 38.5zM898.999 999l191 -0.00292969v-999h-191v145c-28 -47.333 -73.333 -86.666 -136 -117.999s-128.667 -47 -198 -47c-90.667 0 -173.334 22.833 -248.001 68.5s-133.167 108.334 -175.5 188.001s-63.5 167.5 -63.5 263.5s21.167 183.833 63.5 263.5
s100.833 142.334 175.5 188.001s157.334 68.5 248.001 68.5c70 0 136.5 -15.833 199.5 -47.5s107.833 -71.167 134.5 -118.5v145zM601.999 157.997c61.333 0 119.5 15.5 174.5 46.5s95.833 70.833 122.5 119.5v350c-26.667 49.333 -67.5 89.666 -122.5 120.999
s-113.167 47 -174.5 47c-96.667 0 -177.5 -32.5 -242.5 -97.5s-97.5 -146.5 -97.5 -244.5c0 -97.333 32.5 -178.666 97.5 -243.999s145.833 -98 242.5 -98z" />
    <glyph glyph-name="AEacute" unicode="&#x1fc;" horiz-adv-x="1898" 
d="M1602 1847l-222 -297h-176l168 297h230zM1796 1245h-620v-393h553v-188h-553v-476h620v-188h-817v356h-524l-207 -356h-225l856 1434h917v-189zM557 532h422v725z" />
    <glyph glyph-name="aeacute" unicode="&#x1fd;" horiz-adv-x="1976" 
d="M1274 1413l-221 -297h-176l167 297h230zM1901 543c0 -22.667 -2.33203 -48.6689 -6.99902 -78.002h-796c8.66699 -96 43.167 -172.5 103.5 -229.5s136.5 -85.5 228.5 -85.5c63.333 0 121.166 13.167 173.499 39.5s91.833 62.166 118.5 107.499l150 -98
c-37.333 -68 -95.666 -121.5 -174.999 -160.5s-170 -58.5 -272 -58.5c-130.667 0 -242.334 41.333 -335.001 124v-104h-191v145c-28 -47.333 -73.333 -86.666 -136 -117.999s-128.667 -47 -198 -47c-90.667 0 -173.334 22.833 -248.001 68.5
s-133.167 108.334 -175.5 188.001s-63.5 167.5 -63.5 263.5s21.167 183.833 63.5 263.5s100.833 142.334 175.5 188.001s157.334 68.5 248.001 68.5c70 0 136.5 -15.833 199.5 -47.5s107.833 -71.167 134.5 -118.5v145h191v-100c93.333 80.667 203.666 121 330.999 121
c134.667 0 248.334 -46 341.001 -138s139 -205 139 -339zM1106 607.998h597.999c-6 74.667 -36.167 135.667 -90.5 183s-121.166 71 -200.499 71c-78 0 -144.167 -22.833 -198.5 -68.5s-90.5 -107.5 -108.5 -185.5zM602 157.998c61.333 0 119.5 15.5 174.5 46.5
s95.833 70.833 122.5 119.5v350c-26.667 49.333 -67.5 89.666 -122.5 120.999s-113.167 47 -174.5 47c-96.667 0 -177.5 -32.5 -242.5 -97.5s-97.5 -146.5 -97.5 -244.5c0 -97.333 32.5 -178.666 97.5 -243.999s145.833 -98 242.5 -98z" />
    <glyph glyph-name="uni0218" unicode="&#x218;" horiz-adv-x="1177" 
d="M588 1454c90 0 179.169 -18.1641 267.502 -54.4971s155.5 -82.833 201.5 -139.5l-117 -154c-44.667 48.667 -99.834 87.167 -165.501 115.5s-132.834 42.5 -201.501 42.5c-76 0 -138.333 -18 -187 -54s-73 -82.333 -73 -139c0 -36.667 9 -68.834 27 -96.501
s42.167 -50.334 72.5 -68.001s65 -33.334 104 -47.001s80.333 -26.667 124 -39s87.167 -25.5 130.5 -39.5s84.5 -31.333 123.5 -52s73.667 -44.834 104 -72.501s54.5 -63 72.5 -106s27 -92.167 27 -147.5c0 -56.667 -11.833 -110.667 -35.5 -162s-56.667 -96.333 -99 -135
s-95.166 -69.334 -158.499 -92.001s-132.333 -34 -207 -34c-105.333 0 -207 21 -305 63s-179.333 96.667 -244 164l125 147c130.667 -122.667 272 -184 424 -184c87.333 0 158.666 21.5 213.999 64.5s83 98.5 83 166.5c0 35.333 -8.83301 66.333 -26.5 93
s-41.667 48.167 -72 64.5s-65 31 -104 44s-80 25.333 -123 37s-86 24.334 -129 38.001s-84 30.834 -123 51.501s-73.667 44.667 -104 72s-54.333 62.833 -72 106.5s-26.5 93.5 -26.5 149.5c0 114 44.667 208.667 134 284s202.333 113 339 113zM735.002 -144.997l-223 -297
h-176l170 297h229z" />
    <glyph glyph-name="uni0219" unicode="&#x219;" horiz-adv-x="937" 
d="M479 -20c-78 0 -154.832 12.998 -230.499 38.998s-137.5 60.667 -185.5 104l78 141c38.667 -37.333 89.667 -67.833 153 -91.5s124.333 -35.5 183 -35.5c57.333 0 104.166 12.833 140.499 38.5s54.5 57.834 54.5 96.501c0 30 -10.667 55 -32 75s-49 35.5 -83 46.5
s-71.5 21 -112.5 30s-82 20 -123 33s-78.5 29 -112.5 48s-61.667 46.333 -83 82s-32 78.5 -32 128.5c0 90.667 35 164.167 105 220.5s161.333 84.5 274 84.5c70 0 137.5 -11 202.5 -33s118.5 -53.333 160.5 -94l-82 -143c-34.667 34 -81 60.833 -139 80.5
s-111.333 29.5 -160 29.5c-52 0 -93.667 -11.833 -125 -35.5s-47 -54.834 -47 -93.501c0 -27.333 10.667 -50.166 32 -68.499s49 -33 83 -44s71.5 -21.333 112.5 -31s82.167 -21.667 123.5 -36s79 -31.833 113 -52.5s61.667 -49.667 83 -87s32 -81.666 32 -132.999
c0 -86.667 -35.667 -158.167 -107 -214.5s-163.333 -84.5 -276 -84.5zM618.001 -145.002l-223 -297h-176l170 297h229z" />
    <glyph glyph-name="uni021A" unicode="&#x21a;" horiz-adv-x="1218" 
d="M1163 1434v-189h-454v-1245h-199v1245h-455v189h1108zM369 -442l170 297h229l-223 -297h-176z" />
    <glyph glyph-name="uni021B" unicode="&#x21b;" horiz-adv-x="751" 
d="M582 -12c-108 0 -195.167 32.832 -261.5 98.499s-99.5 156.834 -99.5 273.501v459h-194v180h194v271h189v-271h270v-180h-270v-450c0 -63.333 18.333 -113.333 55 -150s83.667 -55 141 -55c27.333 0 52 3.33301 74 10l10 -166c-32 -13.333 -68 -20 -108 -20z
M242 -442.001l170 297h229l-223 -297h-176z" />
    <glyph glyph-name="uni0237" unicode="&#x237;" horiz-adv-x="452" 
d="M-25 -231c6.66699 -1.33301 16.333 -2 29 -2c84.667 0 127 60.667 127 182v1050h191v-1067c0 -109.333 -26.333 -193.333 -79 -252s-127 -88 -223 -88c-16 0 -35.667 2.33301 -59 7z" />
    <glyph glyph-name="uni0243" unicode="&#x243;" horiz-adv-x="1208" 
d="M842 758c86.667 -11.333 158.834 -51.1699 216.501 -119.503s86.5 -148.166 86.5 -239.499c0 -112 -41.5 -206.5 -124.5 -283.5s-184.167 -115.5 -303.5 -115.5h-572v350h-219v131h219v953h510c116 0 214.667 -35.833 296 -107.5s122 -157.5 122 -257.5
c0 -73.333 -21.833 -139.666 -65.5 -198.999s-98.834 -96.666 -165.501 -111.999zM342 1245v-422h307c62.667 0 115.834 21 159.501 63s65.5 93.333 65.5 154c0 57.333 -21.833 105.833 -65.5 145.5s-96.834 59.5 -159.501 59.5h-307zM705 187.996
c68.667 0 125.667 22.833 171 68.5s68 102.167 68 169.5c0 65.333 -23 121 -69 167s-102 69 -168 69h-365v-181h221v-131h-221v-162h363z" />
    <glyph glyph-name="circumflex" unicode="&#x2c6;" horiz-adv-x="792" 
d="M690 1128h-168l-125 175l-125 -175h-170l191 297h209z" />
    <glyph glyph-name="caron" unicode="&#x2c7;" horiz-adv-x="792" 
d="M522 1413h168l-188 -297h-209l-191 297h170l125 -174z" />
    <glyph glyph-name="breve" unicode="&#x2d8;" horiz-adv-x="829" 
d="M727 1419c0 -94 -29.333 -170 -88 -228s-133 -87 -223 -87c-90.667 0 -165.5 29 -224.5 87s-88.833 134 -89.5 228h146c0.666992 -55.333 16.834 -100.166 48.501 -134.499s71.5 -51.5 119.5 -51.5c47.333 0 86.666 17.167 117.999 51.5s47.333 79.166 48 134.499h145z
" />
    <glyph glyph-name="dotaccent" unicode="&#x2d9;" horiz-adv-x="460" 
d="M229 1448c34.667 0 64.832 -12.667 90.499 -38s38.5 -55 38.5 -89c0 -34.667 -12.667 -64.5 -38 -89.5s-55.666 -37.5 -90.999 -37.5s-65.333 12.333 -90 37s-37 54.667 -37 90c0 34 12.5 63.667 37.5 89s54.833 38 89.5 38z" />
    <glyph glyph-name="ring" unicode="&#x2da;" horiz-adv-x="720" 
d="M360 1110c-74 0 -135.498 23.5 -184.498 70.5s-73.5 106.167 -73.5 177.5c0 70.667 24.667 129.667 74 177s110.666 71 183.999 71s134.666 -23.667 183.999 -71s74 -106.333 74 -177c0 -71.333 -24.5 -130.5 -73.5 -177.5s-110.5 -70.5 -184.5 -70.5zM360.002 1225
c39.333 0 72.168 12.667 98.501 38s39.5 57 39.5 95c0 37.333 -13.333 68.833 -40 94.5s-59.334 38.5 -98.001 38.5s-71.167 -12.833 -97.5 -38.5s-39.5 -57.167 -39.5 -94.5c0 -38 13 -69.667 39 -95s58.667 -38 98 -38z" />
    <glyph glyph-name="ogonek" unicode="&#x2db;" horiz-adv-x="616" 
d="M434 117v-117c-50.667 -16 -91 -39 -121 -69s-45 -63.667 -45 -101c0 -24.667 9 -45.167 27 -61.5s42 -24.5 72 -24.5c35.333 0 68 7.66699 98 23l49 -125c-56 -28.667 -123.667 -43 -203 -43c-62 0 -112.333 18 -151 54s-58 82 -58 138c0 72.667 30.5 138.5 91.5 197.5
s141.167 101.833 240.5 128.5z" />
    <glyph glyph-name="tilde" unicode="&#x2dc;" horiz-adv-x="958" 
d="M102 1155c6 74 29.833 133.834 71.5 179.501s91.834 68.5 150.501 68.5c36 0 73.167 -9.83301 111.5 -29.5s73 -39.167 104 -58.5s55.833 -29 74.5 -29c24.667 0 45.167 10.333 61.5 31s24.5 47.334 24.5 80.001l156 -25
c-6.66699 -72.667 -31.334 -132.167 -74.001 -178.5s-93 -69.5 -151 -69.5c-29.333 0 -59.166 6.16699 -89.499 18.5s-56 25.666 -77 39.999s-43.167 27.666 -66.5 39.999s-43.333 18.5 -60 18.5c-24.667 0 -44.334 -10.333 -59.001 -31s-21.667 -48 -21 -82z" />
    <glyph glyph-name="hungarumlaut" unicode="&#x2dd;" horiz-adv-x="890" 
d="M432 1425l-135 -309h-195l136 309h194zM788 1425l-135 -309h-196l135 309h196z" />
    <glyph glyph-name="gravecomb" unicode="&#x300;" horiz-adv-x="0" 
d="M-889 1413h232l168 -297h-177z" />
    <glyph glyph-name="acutecomb" unicode="&#x301;" horiz-adv-x="0" 
d="M-336 1413l-221 -297h-176l168 297h229z" />
    <glyph glyph-name="uni0302" unicode="&#x302;" horiz-adv-x="0" 
d="M-100 1128h-170l-125 175l-125 -175h-168l188 297h209z" />
    <glyph glyph-name="tildecomb" unicode="&#x303;" horiz-adv-x="0" 
d="M-991 1155c4.66699 74 28.001 133.834 70.001 179.501s92.333 68.5 151 68.5c36 0 73.167 -9.83301 111.5 -29.5s73.166 -39.167 104.499 -58.5s56.333 -29 75 -29c24.667 0 45.167 10.333 61.5 31s24.5 47.334 24.5 80.001l153 -25
c-6 -72.667 -30.167 -132.167 -72.5 -178.5s-92.5 -69.5 -150.5 -69.5c-29.333 0 -59.166 6.16699 -89.499 18.5s-56 25.666 -77 39.999s-43.167 27.666 -66.5 39.999s-43.333 18.5 -60 18.5c-24.667 0 -44.334 -10.333 -59.001 -31s-21.667 -48 -21 -82z" />
    <glyph glyph-name="uni0304" unicode="&#x304;" horiz-adv-x="0" 
d="M-940 1139v153h655v-153h-655z" />
    <glyph glyph-name="uni0306" unicode="&#x306;" horiz-adv-x="0" 
d="M-272 1419c0 -94 -29.498 -170 -88.498 -228s-133.5 -87 -223.5 -87c-90.667 0 -165.334 29 -224.001 87s-88.334 134 -89.001 228h145c0.666992 -55.333 16.834 -100.166 48.501 -134.499s71.5 -51.5 119.5 -51.5c47.333 0 86.666 17.167 117.999 51.5
s47.333 79.166 48 134.499h146z" />
    <glyph glyph-name="uni0307" unicode="&#x307;" horiz-adv-x="0" 
d="M-535 1448c34 0 63.667 -12.667 89 -38s38 -55 38 -89c0 -34.667 -12.667 -64.5 -38 -89.5s-55 -37.5 -89 -37.5c-35.333 0 -65.333 12.333 -90 37s-37 54.667 -37 90c0 34 12.5 63.667 37.5 89s54.833 38 89.5 38z" />
    <glyph glyph-name="uni0308" unicode="&#x308;" horiz-adv-x="0" 
d="M-752 1448c34.667 0 64.832 -12.667 90.499 -38s38.5 -55 38.5 -89c0 -34.667 -12.667 -64.5 -38 -89.5s-55.666 -37.5 -90.999 -37.5c-34 0 -63.667 12.5 -89 37.5s-38 54.833 -38 89.5c0 34 12.667 63.667 38 89s55 38 89 38zM-399.002 1448
c34 0 63.665 -12.667 88.998 -38s38 -55 38 -89c0 -34.667 -12.667 -64.5 -38 -89.5s-55 -37.5 -89 -37.5c-35.333 0 -65.666 12.5 -90.999 37.5s-38 54.833 -38 89.5c0 34 12.833 63.667 38.5 89s55.834 38 90.501 38z" />
    <glyph glyph-name="uni030A" unicode="&#x30a;" horiz-adv-x="0" 
d="M-582 1110c-74 0 -135.499 23.5 -184.499 70.5s-73.5 106.167 -73.5 177.5c0 70.667 24.667 129.667 74 177s110.666 71 183.999 71s135 -23.667 185 -71s75 -106.333 75 -177c0 -71.333 -24.833 -130.5 -74.5 -177.5s-111.5 -70.5 -185.5 -70.5zM-581.999 1225
c40 0 72.999 12.667 98.999 38s39 57 39 95c0 37.333 -13.167 68.833 -39.5 94.5s-59.166 38.5 -98.499 38.5c-38.667 0 -71.167 -12.833 -97.5 -38.5s-39.5 -57.167 -39.5 -94.5c0 -38 13 -69.667 39 -95s58.667 -38 98 -38z" />
    <glyph glyph-name="uni030B" unicode="&#x30b;" horiz-adv-x="0" 
d="M-571 1425l-136 -309h-196l137 309h195zM-217 1425l-135 -309h-195l135 309h195z" />
    <glyph glyph-name="uni030C" unicode="&#x30c;" horiz-adv-x="0" 
d="M-422 1413h170l-190 -297h-209l-189 297h168l125 -174z" />
    <glyph glyph-name="uni0312" unicode="&#x312;" horiz-adv-x="0" 
d="M-383 1124l221 299h178l-170 -299h-229z" />
    <glyph glyph-name="uni0326" unicode="&#x326;" horiz-adv-x="0" 
d="M-104 -145l-224 -297h-176l170 297h230z" />
    <glyph glyph-name="uni0327" unicode="&#x327;" horiz-adv-x="0" 
d="M-358 37l145 0.000976562c48.667 -44 84.5 -89.5 107.5 -136.5s32.5 -90.333 28.5 -130s-17.333 -75.5 -40 -107.5s-55.5 -57.167 -98.5 -75.5s-91.833 -27.5 -146.5 -27.5h-23l-45 137c81.333 3.33301 139 21.833 173 55.5s41.833 76.167 23.5 127.5
s-59.833 103.666 -124.5 156.999z" />
    <glyph glyph-name="uni0328" unicode="&#x328;" horiz-adv-x="0" 
d="M-496 117v-117c-50.667 -16 -91 -39 -121 -69s-45 -63.667 -45 -101c0 -24.667 9 -45.167 27 -61.5s42 -24.5 72 -24.5c35.333 0 68 7.66699 98 23l47 -125c-54 -28.667 -120.667 -43 -200 -43c-62 0 -112.333 18 -151 54s-58 82 -58 138c0 72.667 30.333 138.5 91 197.5
s140.667 101.833 240 128.5z" />
    <glyph glyph-name="uni0394" unicode="&#x394;" horiz-adv-x="1226" 
d="M23 0v188l505 1248h170l506 -1248v-188h-1181zM231 188h764l-381 967z" />
    <glyph glyph-name="uni03A9" unicode="&#x3a9;" horiz-adv-x="1593" 
d="M139 0l0.000976562 188h293c-108.667 62 -191.167 141.833 -247.5 239.5s-84.5 208.5 -84.5 332.5c0 100 17.833 193.167 53.5 279.5s84.334 159.666 146.001 219.999s135.5 107.833 221.5 142.5s178 52 276 52c97.333 0 188.833 -17.333 274.5 -52
s159 -82.167 220 -142.5s109.167 -133.666 144.5 -219.999s53 -179.5 53 -279.5c0 -126 -27.833 -237.5 -83.5 -334.5s-137.834 -176.167 -246.501 -237.5h293v-188h-530v188c120 64 211 144.167 273 240.5s93 203.5 93 321.5c0 154 -45.833 278.167 -137.5 372.5
s-209.5 141.5 -353.5 141.5c-144.667 0 -262.834 -47.167 -354.501 -141.5s-137.5 -218.5 -137.5 -372.5c0 -116.667 31.167 -223.5 93.5 -320.5s153.5 -177.5 273.5 -241.5v-188h-533z" />
    <glyph glyph-name="uni03BC" unicode="&#x3bc;" horiz-adv-x="1189" 
d="M868 999h188.999v-999h-189v145c-30.667 -50 -75.667 -90 -135 -120s-123.333 -45 -192 -45c-83.333 0 -156.333 19 -219 57v-402h-191v1364h191v-544c0 -88 23.833 -158.167 71.5 -210.5s111.167 -78.5 190.5 -78.5c58.667 0 113.834 14.5 165.501 43.5
s91.167 67.833 118.5 116.5v673z" />
    <glyph glyph-name="pi" unicode="&#x3c0;" horiz-adv-x="1439" 
d="M1370 819h-280v-457c0 -64 18.333 -114.333 55 -151s83.667 -55 141 -55c18 0 42 3.33301 72 10l12 -166c-34.667 -13.333 -70.667 -20 -108 -20c-108 0 -195.5 33.167 -262.5 99.5s-100.5 157.833 -100.5 274.5v465h-354v-819h-189v819h-278v180h1292v-180z" />
    <glyph glyph-name="uni0E3F" unicode="&#xe3f;" horiz-adv-x="1243" 
d="M840 758c86.667 -11.333 158.833 -51.1699 216.5 -119.503s86.5 -148.166 86.5 -239.499c0 -112 -41.5 -206.5 -124.5 -283.5s-184.167 -115.5 -303.5 -115.5h-66v-246h-180v246h-326v1434h326v245h180v-245h4c116 0 214.667 -35.833 296 -107.5s122 -157.5 122 -257.5
c0 -73.333 -22 -139.666 -66 -198.999s-99 -96.666 -165 -111.999zM339.999 1245v-422h307c62.667 0 115.834 21 159.501 63s65.5 93.333 65.5 154c0 57.333 -21.833 105.833 -65.5 145.5s-96.834 59.5 -159.501 59.5h-307zM701.999 187.996c68 0 125 23 171 69
s69 102.333 69 169c0 65.333 -23 121 -69 167s-102 69 -168 69h-365v-474h362z" />
    <glyph glyph-name="Wgrave" unicode="&#x1e80;" horiz-adv-x="2080" 
d="M745 1847h232l168 -297h-176zM1843 1434h209l-479 -1434h-168l-363 1114l-362 -1114h-168l-481 1434h209l360 -1115l363 1115h167l359 -1117z" />
    <glyph glyph-name="wgrave" unicode="&#x1e81;" horiz-adv-x="1611" 
d="M510 1413h231l168 -297h-176zM393 0l-362 999h200l240 -714l254 714h158l258 -714l237 714h203l-364 -999h-152l-260 717l-262 -717h-150z" />
    <glyph glyph-name="Wacute" unicode="&#x1e82;" horiz-adv-x="2080" 
d="M1335 1847l-221 -297h-176l168 297h229zM1843 1434h209l-479 -1434h-168l-363 1114l-362 -1114h-168l-481 1434h209l360 -1115l363 1115h167l359 -1117z" />
    <glyph glyph-name="wacute" unicode="&#x1e83;" horiz-adv-x="1611" 
d="M1100 1413l-221 -297h-177l168 297h230zM393 0l-362 999h200l240 -714l254 714h158l258 -714l237 714h203l-364 -999h-152l-260 717l-262 -717h-150z" />
    <glyph glyph-name="Wdieresis" unicode="&#x1e84;" horiz-adv-x="2080" 
d="M864 1817c35.333 0 65.666 -12.333 90.999 -37s38 -54 38 -88c0 -34.667 -12.667 -64.5 -38 -89.5s-55.666 -37.5 -90.999 -37.5c-34 0 -63.667 12.5 -89 37.5s-38 54.833 -38 89.5c0 34 12.667 63.333 38 88s55 37 89 37zM1217 1817c34 0 63.5 -12.333 88.5 -37
s37.5 -54 37.5 -88c0 -34.667 -12.5 -64.5 -37.5 -89.5s-54.5 -37.5 -88.5 -37.5c-35.333 0 -65.833 12.5 -91.5 37.5s-38.5 54.833 -38.5 89.5c0 34 12.833 63.333 38.5 88s56.167 37 91.5 37zM1843 1434h209l-479 -1434h-168l-363 1114l-362 -1114h-168l-481 1434h209
l360 -1115l363 1115h167l359 -1117z" />
    <glyph glyph-name="wdieresis" unicode="&#x1e85;" horiz-adv-x="1611" 
d="M631 1448c34.667 0 64.832 -12.667 90.499 -38s38.5 -55 38.5 -89c0 -34.667 -12.667 -64.5 -38 -89.5s-55.666 -37.5 -90.999 -37.5c-34 0 -63.667 12.5 -89 37.5s-38 54.833 -38 89.5c0 34 12.667 63.667 38 89s55 38 89 38zM982.998 1448
c34 0 63.665 -12.667 88.998 -38s38 -55 38 -89c0 -34.667 -12.667 -64.5 -38 -89.5s-55 -37.5 -89 -37.5c-35.333 0 -65.666 12.5 -90.999 37.5s-38 54.833 -38 89.5c0 34 12.833 63.667 38.5 89s55.834 38 90.501 38zM392.996 0l-362 999h200l240 -714l254 714h158
l258 -714l237 714h203l-364 -999h-152l-260 717l-262 -717h-150z" />
    <glyph glyph-name="Germandbls" unicode="&#x1e9e;" horiz-adv-x="1249" 
d="M631 1454c128.667 0 239.165 -36.334 331.498 -109.001s144.833 -163.334 157.5 -272.001l-307 -287c113.333 -6 203.833 -42.167 271.5 -108.5s101.5 -150.833 101.5 -253.5c0 -76 -19.5 -146.667 -58.5 -212s-91.667 -117 -158 -155s-138.166 -57 -215.499 -57h-275
v188h273c65.333 0 120.5 22.5 165.5 67.5s67.5 99.833 67.5 164.5c0 70.667 -21.667 126.834 -65 168.501s-101.666 62.5 -174.999 62.5h-165l-9 129l328 314c-14.667 48.667 -46 89.167 -94 121.5s-103.333 48.5 -166 48.5c-86 0 -156.667 -30.5 -212 -91.5
s-83 -139.167 -83 -234.5v-938h-199v938c0 152.667 45 276.834 135 372.501s207 143.5 351 143.5z" />
    <glyph glyph-name="Ygrave" unicode="&#x1ef2;" horiz-adv-x="1304" 
d="M358 1847h232l168 -297h-176zM31 1434h239l389 -603l385 603h232l-520 -801v-633h-199v633z" />
    <glyph glyph-name="ygrave" unicode="&#x1ef3;" horiz-adv-x="1062" 
d="M651 1116h-176l-223 297h231zM829 999h203l-571 -1364h-203l176 400l-403 964h202l297 -745z" />
    <glyph glyph-name="uni2009" unicode="&#x2009;" horiz-adv-x="368" 
 />
    <glyph glyph-name="endash" unicode="&#x2013;" horiz-adv-x="1179" 
d="M102 440v176h975v-176h-975z" />
    <glyph glyph-name="emdash" unicode="&#x2014;" horiz-adv-x="2252" 
d="M102 440v176h2048v-176h-2048z" />
    <glyph glyph-name="quoteleft" unicode="&#x2018;" horiz-adv-x="481" 
d="M102 1182c0 21.333 12.332 57.332 36.999 107.999l135 271h109l-98 -258c24.667 -8.66699 44.167 -24.167 58.5 -46.5s21.5 -47.166 21.5 -74.499c0 -36.667 -12.667 -67.667 -38 -93s-56.666 -38 -93.999 -38c-36.667 0 -67.667 12.5 -93 37.5s-38 56.167 -38 93.5z" />
    <glyph glyph-name="quoteright" unicode="&#x2019;" horiz-adv-x="481" 
d="M379 1430c0 -23.333 -12.333 -60.332 -37 -110.999l-135 -268h-109l99 258c-24.667 9.33301 -44.167 24.666 -58.5 45.999s-21.5 46.333 -21.5 75c0 37.333 12.5 68.5 37.5 93.5s56.167 37.5 93.5 37.5s68.5 -12.5 93.5 -37.5s37.5 -56.167 37.5 -93.5z" />
    <glyph glyph-name="quotesinglbase" unicode="&#x201a;" horiz-adv-x="481" 
d="M379 145c0 -21.333 -12.333 -57.332 -37 -107.999l-135 -268h-109l99 256c-24.667 10 -44.167 25.667 -58.5 47s-21.5 45.666 -21.5 72.999c0 38 12.5 69.333 37.5 94s56.167 37 93.5 37s68.5 -12.333 93.5 -37s37.5 -56 37.5 -94z" />
    <glyph glyph-name="quotedblleft" unicode="&#x201c;" horiz-adv-x="835" 
d="M102 1182c0 21.333 12.332 57.332 36.999 107.999l135 271h109l-98 -258c24.667 -8.66699 44.167 -24.167 58.5 -46.5s21.5 -47.166 21.5 -74.499c0 -36.667 -12.667 -67.667 -38 -93s-56.666 -38 -93.999 -38c-36.667 0 -67.667 12.5 -93 37.5s-38 56.167 -38 93.5z
M456.999 1182c0 21.333 12.334 57.333 37.001 108l135 271h108l-96 -258c23.333 -9.33301 42.166 -25 56.499 -47s21.5 -46.667 21.5 -74c0 -37.333 -12.333 -68.5 -37 -93.5s-56 -37.5 -94 -37.5c-37.333 0 -68.5 12.5 -93.5 37.5s-37.5 56.167 -37.5 93.5z" />
    <glyph glyph-name="quotedblright" unicode="&#x201d;" horiz-adv-x="835" 
d="M379 1430c0 -23.333 -12.333 -60.332 -37 -110.999l-135 -268h-109l99 258c-24.667 9.33301 -44.167 24.666 -58.5 45.999s-21.5 46.333 -21.5 75c0 37.333 12.5 68.5 37.5 93.5s56.167 37.5 93.5 37.5s68.5 -12.5 93.5 -37.5s37.5 -56.167 37.5 -93.5zM733 1430
c0 -27.333 -12.333 -64.333 -37 -111l-135 -268h-106l96 258c-24 9.33301 -43.333 24.833 -58 46.5s-22 46.5 -22 74.5c0 37.333 12.5 68.5 37.5 93.5s56.167 37.5 93.5 37.5s68.5 -12.5 93.5 -37.5s37.5 -56.167 37.5 -93.5z" />
    <glyph glyph-name="quotedblbase" unicode="&#x201e;" horiz-adv-x="835" 
d="M379 145c0 -21.333 -12.333 -57.332 -37 -107.999l-135 -268h-109l99 256c-24.667 10 -44.167 25.667 -58.5 47s-21.5 45.666 -21.5 72.999c0 38 12.5 69.333 37.5 94s56.167 37 93.5 37s68.5 -12.333 93.5 -37s37.5 -56 37.5 -94zM733 145.001
c0 -25.333 -12.333 -61.334 -37 -108.001l-135 -268h-106l96 256c-24 10 -43.333 25.833 -58 47.5s-22 45.834 -22 72.501c0 38 12.5 69.333 37.5 94s56.167 37 93.5 37s68.5 -12.333 93.5 -37s37.5 -56 37.5 -94z" />
    <glyph glyph-name="dagger" unicode="&#x2020;" horiz-adv-x="933" 
d="M831 1141v-162h-278v-567h-172v567h-279v162h279v334h172v-334h278z" />
    <glyph glyph-name="daggerdbl" unicode="&#x2021;" horiz-adv-x="946" 
d="M831 979h-278v-483h278v-162h-278v-334h-172v334h-279v162h279v483h-279v162h279v334h172v-334h278v-162z" />
    <glyph glyph-name="bullet" unicode="&#x2022;" horiz-adv-x="675" 
d="M336 254c-69.333 0 -127.666 23.667 -174.999 71s-71 106.333 -71 177s23.667 129.667 71 177s105.666 71 174.999 71c70.667 0 130 -23.667 178 -71s72 -106.333 72 -177s-24 -129.667 -72 -177s-107.333 -71 -178 -71z" />
    <glyph glyph-name="ellipsis" unicode="&#x2026;" horiz-adv-x="1310" 
d="M254 -20c-40 0 -73.167 13 -99.5 39s-39.5 58.667 -39.5 98c0 38 13.167 70.333 39.5 97s59.5 40 99.5 40c38.667 0 71.5 -13.333 98.5 -40s40.5 -59 40.5 -97c0 -38.667 -13.333 -71.167 -40 -97.5s-59.667 -39.5 -99 -39.5zM666 -20c-39.333 0 -72.5 13.167 -99.5 39.5
s-40.5 58.833 -40.5 97.5c0 38 13.667 70.333 41 97s60.333 40 99 40s71.5 -13.333 98.5 -40s40.5 -59 40.5 -97c0 -38.667 -13.333 -71.167 -40 -97.5s-59.667 -39.5 -99 -39.5zM1057 -20c-40 0 -73.167 13 -99.5 39s-39.5 58.667 -39.5 98c0 38 13.333 70.333 40 97
s59.667 40 99 40c38.667 0 71.5 -13.333 98.5 -40s40.5 -59 40.5 -97c0 -38.667 -13.333 -71.167 -40 -97.5s-59.667 -39.5 -99 -39.5z" />
    <glyph glyph-name="perthousand" unicode="&#x2030;" horiz-adv-x="2136" 
d="M698 1157c0 -86 -26.5 -157.333 -79.5 -214s-120.5 -85 -202.5 -85s-150 28.333 -204 85s-81 128 -81 214s27 157 81 213s122 84 204 84s149.5 -28 202.5 -84s79.5 -127 79.5 -213zM1145 1434h155l-952 -1434h-155zM569 1157c0 51.333 -13.999 93.166 -41.999 125.499
s-65 48.5 -111 48.5c-46.667 0 -84.334 -16.167 -113.001 -48.5s-43 -74.166 -43 -125.499s14.333 -93.5 43 -126.5s66.334 -49.5 113.001 -49.5c45.333 0 82.166 16.5 110.499 49.5s42.5 75.167 42.5 126.5zM1360 279c0 -86 -26.667 -157.333 -80 -214s-121 -85 -203 -85
s-149.5 28.333 -202.5 85s-79.5 128 -79.5 214s26.5 156.833 79.5 212.5s120.5 83.5 202.5 83.5s149.667 -27.833 203 -83.5s80 -126.5 80 -212.5zM2005 279c0 -86 -26.833 -157.333 -80.5 -214s-121.834 -85 -204.501 -85c-81.333 0 -148.666 28.333 -201.999 85
s-80 128 -80 214s26.667 156.833 80 212.5s120.666 83.5 201.999 83.5c82.667 0 150.834 -27.833 204.501 -83.5s80.5 -126.5 80.5 -212.5zM1231 279c0 51.333 -13.999 93.5 -41.999 126.5s-65.333 49.5 -112 49.5s-83.834 -16.333 -111.501 -49s-41.5 -75 -41.5 -127
s14 -94.5 42 -127.5s65 -49.5 111 -49.5c46.667 0 84 16.5 112 49.5s42 75.5 42 127.5zM1876 279c0 51.333 -14.333 93.5 -43 126.5s-66.334 49.5 -113.001 49.5c-45.333 0 -82.166 -16.5 -110.499 -49.5s-42.5 -75.167 -42.5 -126.5s14.167 -93.666 42.5 -126.999
s65.166 -50 110.499 -50c46.667 0 84.334 16.667 113.001 50s43 75.666 43 126.999z" />
    <glyph glyph-name="guilsinglleft" unicode="&#x2039;" horiz-adv-x="765" 
d="M664 74l-568 418v129l568 419v-198l-394 -285l394 -283v-200z" />
    <glyph glyph-name="guilsinglright" unicode="&#x203a;" horiz-adv-x="778" 
d="M115 74v200l393 283l-393 285v198l567 -419v-129z" />
    <glyph glyph-name="fraction" unicode="&#x2044;" horiz-adv-x="487" 
d="M643 1434h154l-953 -1434h-153z" />
    <glyph glyph-name="Euro" unicode="&#x20ac;" horiz-adv-x="1681" 
d="M1425 440l177.002 -81.9971c-38 -112.667 -113.833 -203.834 -227.5 -273.501s-242.834 -104.5 -387.501 -104.5c-96 0 -186.333 16.667 -271 50s-158 79.166 -220 137.499s-112.667 128.333 -152 210s-63.333 169.5 -72 263.5h-217v162h217
c9.33301 92.667 33.833 179 73.5 259s90.5 148.833 152.5 206.5s135.167 103 219.5 136s174.166 49.5 269.499 49.5c138 0 262.167 -32 372.5 -96s185.5 -147.333 225.5 -250l-174 -86c-34 73.333 -89.167 132 -165.5 176s-162.5 66 -258.5 66
c-138 0 -253.667 -42.833 -347 -128.5s-148.333 -196.5 -165 -332.5h653l-51 -162h-604c16.667 -138.667 72 -251.834 166 -339.501s210 -131.5 348 -131.5c101.333 0 191.333 24.5 270 73.5s134.667 114.5 168 196.5z" />
    <glyph glyph-name="uni20BD" unicode="&#x20bd;" horiz-adv-x="1335" 
d="M825 580h-352v-193h406v-160h-406v-227h-199v227h-219v160h219v193h-219v188h219v666h551c126 0 231 -40.5 315 -121.5s126 -182.5 126 -304.5s-42 -223.833 -126 -305.5s-189 -122.5 -315 -122.5zM473 1245v-476.998h352c68.667 0 126.167 23.167 172.5 69.5
s69.5 103.166 69.5 170.499s-23.167 123.666 -69.5 168.999s-103.833 68 -172.5 68h-352z" />
    <glyph glyph-name="uni2116" unicode="&#x2116;" horiz-adv-x="2668" 
d="M2001 1452c96 0 183.5 -22.667 262.5 -68s141.333 -107.833 187 -187.5s68.5 -167.834 68.5 -264.501s-22.833 -184.834 -68.5 -264.501s-108 -142.167 -187 -187.5s-166.5 -68 -262.5 -68c-95.333 0 -182.5 22.667 -261.5 68s-141.167 107.833 -186.5 187.5
s-68 167.834 -68 264.501s22.667 184.834 68 264.501s107.5 142.167 186.5 187.5s166.167 68 261.5 68zM145 1434h179l741 -1061v1061h197v-1434h-175l-743 1059v-1059h-199v1434zM2001 1272c-93.333 0 -171.668 -32.5 -235.001 -97.5s-95 -145.833 -95 -242.5
c0 -95.333 31.833 -175.833 95.5 -241.5s141.834 -98.5 234.501 -98.5s171.167 32.833 235.5 98.5s96.5 146.167 96.5 241.5c0 96 -32 176.667 -96 242s-142.667 98 -236 98zM2464 174v-176h-926v176h926z" />
    <glyph glyph-name="uni2117" unicode="&#x2117;" horiz-adv-x="1656" 
d="M827 1454c100 0 195.667 -19.5 287 -58.5s170.166 -91.5 236.499 -157.5s119 -144.333 158 -235s58.5 -186 58.5 -286s-19.5 -195.333 -58.5 -286s-91.667 -169 -158 -235s-145.166 -118.5 -236.499 -157.5s-187 -58.5 -287 -58.5c-132 0 -254.5 33 -367.5 99
s-202.5 155.5 -268.5 268.5s-99 236.167 -99 369.5s33 256.5 99 369.5s155.5 202.5 268.5 268.5s235.5 99 367.5 99zM829 66c87.333 0 171 17.333 251 52s149 81 207 139s104.167 127.167 138.5 207.5s51.5 164.5 51.5 252.5s-17.167 172.167 -51.5 252.5
s-80.5 149.5 -138.5 207.5s-127 104.333 -207 139s-163.667 52 -251 52c-116.667 0 -224.834 -29.167 -324.501 -87.5s-178.667 -137.5 -237 -237.5s-87.5 -208.667 -87.5 -326s29.167 -226 87.5 -326s137.333 -179.167 237 -237.5s207.834 -87.5 324.501 -87.5zM913 1133
c72.667 0 133.834 -23.833 183.501 -71.5s74.5 -106.5 74.5 -176.5c0 -72 -24.833 -132 -74.5 -180s-110.834 -72 -183.501 -72h-192v-326h-125v826h317zM913 754c36.667 0 67.667 12.667 93 38s38 56.333 38 93c0 36 -12.667 66.5 -38 91.5s-56.333 37.5 -93 37.5h-192
v-260h192z" />
    <glyph glyph-name="trademark" unicode="&#x2122;" horiz-adv-x="1794" 
d="M700 1434v-123h-268v-738h-131v738h-268v123h667zM1569 1434h141v-861h-129v568l-260 -568h-102l-263 568v-568h-129v861h142l301 -656z" />
    <glyph glyph-name="Omega" unicode="&#x2126;" horiz-adv-x="1593" 
d="M139 0l0.000976562 188h293c-108.667 62 -191.167 141.833 -247.5 239.5s-84.5 208.5 -84.5 332.5c0 100 17.833 193.167 53.5 279.5s84.334 159.666 146.001 219.999s135.5 107.833 221.5 142.5s178 52 276 52c97.333 0 188.833 -17.333 274.5 -52
s159 -82.167 220 -142.5s109.167 -133.666 144.5 -219.999s53 -179.5 53 -279.5c0 -126 -27.833 -237.5 -83.5 -334.5s-137.834 -176.167 -246.501 -237.5h293v-188h-530v188c120 64 211 144.167 273 240.5s93 203.5 93 321.5c0 154 -45.833 278.167 -137.5 372.5
s-209.5 141.5 -353.5 141.5c-144.667 0 -262.834 -47.167 -354.501 -141.5s-137.5 -218.5 -137.5 -372.5c0 -116.667 31.167 -223.5 93.5 -320.5s153.5 -177.5 273.5 -241.5v-188h-533z" />
    <glyph glyph-name="oneeighth" unicode="&#x215b;" horiz-adv-x="1576" 
d="M324 1434v-861h-129v695l-170 -107v146l211 127h88zM1075 1434h154l-953 -1434h-153zM1249 -10c-84 0 -153.83 24 -209.497 72s-83.5 108.667 -83.5 182c0 48 14.667 92.167 44 132.5s68.666 69.166 117.999 86.499c-37.333 15.333 -67.833 39.833 -91.5 73.5
s-35.5 69.834 -35.5 108.501c0 65.333 24.167 119.166 72.5 161.499s110.166 63.5 185.499 63.5s137.166 -21.167 185.499 -63.5s72.5 -96.166 72.5 -161.499c0 -37.333 -11.5 -73 -34.5 -107s-53.833 -59 -92.5 -75c47.333 -15.333 85.833 -43.5 115.5 -84.5
s44.5 -85.833 44.5 -134.5c0 -72.667 -27.5 -133.167 -82.5 -181.5s-124.5 -72.5 -208.5 -72.5zM1249 522c41.333 0 75 11.167 101 33.5s39 50.833 39 85.5c0 34 -13.167 62.333 -39.5 85s-59.833 34 -100.5 34s-74 -11.333 -100 -34s-39 -51 -39 -85
c0 -35.333 13 -64 39 -86s59.333 -33 100 -33zM1249 111c48 0 88 13.667 120 41s48 62 48 104c0 42.667 -16 77.834 -48 105.501s-72 41.5 -120 41.5c-49.333 0 -90 -13.833 -122 -41.5s-48 -62.834 -48 -105.501c0 -42 16 -76.667 48 -104s72.667 -41 122 -41z" />
    <glyph glyph-name="threeeighths" unicode="&#x215c;" horiz-adv-x="1810" 
d="M199 1071l217.001 240h-369v123h555v-88l-240 -252h23c66.667 0 123 -23.5 169 -70.5s69 -105.5 69 -175.5c0 -82.667 -28.333 -151.167 -85 -205.5s-128.667 -81.5 -216 -81.5c-76.667 0 -143.334 21.667 -200.001 65s-90.667 98.333 -102 165l117 40
c8.66699 -43.333 30.5 -78.333 65.5 -105s74.833 -40 119.5 -40c48.667 0 88.667 15.667 120 47s47 71 47 119c0 45.333 -15.833 81.5 -47.5 108.5s-70.834 40.5 -117.501 40.5c-27.333 0 -54.666 -4.66699 -81.999 -14zM1311 1434h153l-952 -1434h-154zM1483 -10
c-84 0 -153.83 24 -209.497 72s-83.5 108.667 -83.5 182c0 48 14.667 92.167 44 132.5s68.666 69.166 117.999 86.499c-37.333 15.333 -67.833 39.833 -91.5 73.5s-35.5 69.834 -35.5 108.501c0 65.333 24.167 119.166 72.5 161.499s110.166 63.5 185.499 63.5
s137.166 -21.167 185.499 -63.5s72.5 -96.166 72.5 -161.499c0 -37.333 -11.5 -73 -34.5 -107s-53.833 -59 -92.5 -75c47.333 -15.333 85.833 -43.5 115.5 -84.5s44.5 -85.833 44.5 -134.5c0 -72.667 -27.5 -133.167 -82.5 -181.5s-124.5 -72.5 -208.5 -72.5zM1483 522
c40.667 0 74 11 100 33s39 50.667 39 86c0 34 -13 62.333 -39 85s-59.333 34 -100 34s-74.167 -11.333 -100.5 -34s-39.5 -51 -39.5 -85c0 -34.667 13 -63.167 39 -85.5s59.667 -33.5 101 -33.5zM1483 111c48 0 88 13.667 120 41s48 62 48 104
c0 42.667 -16 77.834 -48 105.501s-72 41.5 -120 41.5c-49.333 0 -90 -13.833 -122 -41.5s-48 -62.834 -48 -105.501c0 -42 16 -76.667 48 -104s72.667 -41 122 -41z" />
    <glyph glyph-name="fiveeighths" unicode="&#x215d;" horiz-adv-x="1798" 
d="M326 561c-75.333 0 -142 21.833 -200 65.5s-93.333 98.5 -106 164.5l119 36c11.333 -42 34.5 -76 69.5 -102s74.167 -39 117.5 -39c46 0 85.167 16 117.5 48s48.5 70.667 48.5 116c0 48 -16 88 -48 120s-71.333 48 -118 48c-64.667 0 -112.667 -17.667 -144 -53l-112 24
l39 445h460v-117h-344l-24 -234c34 30 81 45 141 45c81.333 0 148.5 -25.833 201.5 -77.5s79.5 -119.167 79.5 -202.5c0 -80 -29 -147.833 -87 -203.5s-128 -83.5 -210 -83.5zM1292 1434h154l-952 -1434h-154zM1468 -10c-84 0 -153.329 24 -207.996 72s-82 108.667 -82 182
c0 48 14.167 92.167 42.5 132.5s67.166 69.166 116.499 86.499c-37.333 15.333 -67.833 39.833 -91.5 73.5s-35.5 69.834 -35.5 108.501c0 65.333 24.167 119.166 72.5 161.499s110.166 63.5 185.499 63.5s137.166 -21.167 185.499 -63.5s72.5 -96.166 72.5 -161.499
c0 -37.333 -11.5 -73 -34.5 -107s-53.833 -59 -92.5 -75c47.333 -15.333 85.833 -43.5 115.5 -84.5s44.5 -85.833 44.5 -134.5c0 -72.667 -27.333 -133.167 -82 -181.5s-124.334 -72.5 -209.001 -72.5zM1468 522c41.333 0 75 11.167 101 33.5s39 50.833 39 85.5
c0 34 -13.167 62.333 -39.5 85s-59.833 34 -100.5 34s-74 -11.333 -100 -34s-39 -51 -39 -85c0 -35.333 13 -64 39 -86s59.333 -33 100 -33zM1468 111c48 0 88 13.667 120 41s48 62 48 104c0 42.667 -16 77.834 -48 105.501s-72 41.5 -120 41.5
c-49.333 0 -90 -13.833 -122 -41.5s-48 -62.834 -48 -105.501c0 -42 16 -76.667 48 -104s72.667 -41 122 -41z" />
    <glyph glyph-name="seveneighths" unicode="&#x215e;" horiz-adv-x="1658" 
d="M18 1434h580v-91l-369 -770h-143l354 736h-422v125zM1157 1434h154l-953 -1434h-153zM1331 -10c-84 0 -153.83 24 -209.497 72s-83.5 108.667 -83.5 182c0 48 14.667 92.167 44 132.5s68.666 69.166 117.999 86.499c-37.333 15.333 -67.833 39.833 -91.5 73.5
s-35.5 69.834 -35.5 108.501c0 65.333 24.167 119.166 72.5 161.499s110.166 63.5 185.499 63.5s137.166 -21.167 185.499 -63.5s72.5 -96.166 72.5 -161.499c0 -37.333 -11.5 -73 -34.5 -107s-53.833 -59 -92.5 -75c47.333 -15.333 85.833 -43.5 115.5 -84.5
s44.5 -85.833 44.5 -134.5c0 -72.667 -27.5 -133.167 -82.5 -181.5s-124.5 -72.5 -208.5 -72.5zM1331 522c40.667 0 74 11 100 33s39 50.667 39 86c0 34 -13 62.333 -39 85s-59.333 34 -100 34s-74 -11.333 -100 -34s-39 -51 -39 -85c0 -35.333 13 -64 39 -86
s59.333 -33 100 -33zM1331 111c48 0 88 13.667 120 41s48 62 48 104c0 42.667 -16 77.834 -48 105.501s-72 41.5 -120 41.5c-49.333 0 -90 -13.833 -122 -41.5s-48 -62.834 -48 -105.501c0 -42 16 -76.667 48 -104s72.667 -41 122 -41z" />
    <glyph glyph-name="arrowleft" unicode="&#x2190;" horiz-adv-x="1576" 
d="M1475 727v-168h-1053l428 -416l-123 -120l-625 620l625 623l123 -121l-428 -418h1053z" />
    <glyph glyph-name="arrowup" unicode="&#x2191;" horiz-adv-x="1449" 
d="M1348 748l-123 -121l-414 424v-1051h-170v1053l-418 -426l-121 121l623 624z" />
    <glyph glyph-name="arrowright" unicode="&#x2192;" horiz-adv-x="1576" 
d="M850 1266l625 -623l-625 -620l-121 120l426 416h-1053v168h1053l-426 418z" />
    <glyph glyph-name="arrowdown" unicode="&#x2193;" horiz-adv-x="1449" 
d="M1225 725l123 -123l-625 -625l-621 625l121 123l416 -428v1053h170v-1051z" />
    <glyph glyph-name="uni2196" unicode="&#x2196;" horiz-adv-x="1234" 
d="M1133 197l-119 -119l-746 745l8 -596h-172l-2 881l883 -2v-172l-596 6z" />
    <glyph glyph-name="uni2197" unicode="&#x2197;" horiz-adv-x="1234" 
d="M250 1106h880l-2 -881h-172l9 594l-744 -743l-119 121l744 743l-596 -6v172z" />
    <glyph glyph-name="uni2198" unicode="&#x2198;" horiz-adv-x="1234" 
d="M250 0v172l594 -6l-742 743l119 119l744 -743l-9 594h172l2 -881z" />
    <glyph glyph-name="uni2199" unicode="&#x2199;" horiz-adv-x="1234" 
d="M1133 909l-744 -743l596 6v-172l-883 -2l2 881h172l-8 -596l746 745z" />
    <glyph glyph-name="partialdiff" unicode="&#x2202;" horiz-adv-x="1179" 
d="M952 817c38 -61.333 67.335 -123.168 88.002 -185.501s31 -118.5 31 -168.5c0 -87.333 -22 -168 -66 -242s-103.833 -132.667 -179.5 -176s-158.167 -65 -247.5 -65c-88.667 0 -170.667 21.667 -246 65s-134.833 102 -178.5 176s-65.5 154.667 -65.5 242
s21.333 167.333 64 240s99.167 129.334 169.5 170.001s146.166 61 227.499 61c39.333 0 79.666 -5.33301 120.999 -16l-326 516h225zM578.002 167.998c84 0 155.167 29.001 213.5 87.001s87.5 128 87.5 210c0 75.333 -28 160.666 -84 255.999
c-63.333 28.667 -135 43 -215 43c-82 0 -153.167 -29.667 -213.5 -89s-90.5 -129.333 -90.5 -210c0 -82 29.5 -152 88.5 -210s130.167 -87 213.5 -87z" />
    <glyph glyph-name="emptyset" unicode="&#x2205;" horiz-adv-x="1593" 
d="M1462 1245l-200 -201c65.333 -98.667 98 -206.334 98 -323.001c0 -102 -24.833 -196 -74.5 -282s-117.334 -154 -203.001 -204s-179.5 -75 -281.5 -75c-121.333 0 -229.333 34 -324 102l-203 -203l-143 142l203 202c-67.333 96 -101 202 -101 318
c0 102 25.5 196.333 76.5 283s120.167 155.334 207.5 206.001s182 76 284 76c114.667 0 220.334 -32.667 317.001 -98l201 198zM418 721c0 -64.667 16.333 -125.999 49 -183.999l518 516c-56 32.667 -117.333 49 -184 49c-104.667 0 -194.667 -37.333 -270 -112
s-113 -164.334 -113 -269.001zM1176 721.001c0 65.333 -16.6689 128.667 -50.002 190l-516 -516c58.667 -34 122.334 -51 191.001 -51c104.667 0 193.334 36.5 266.001 109.5s109 162.167 109 267.5z" />
    <glyph glyph-name="Delta" unicode="&#x2206;" horiz-adv-x="1226" 
d="M23 0v188l505 1248h170l506 -1248v-188h-1181zM231 188h764l-381 967z" />
    <glyph glyph-name="product" unicode="&#x220f;" horiz-adv-x="1351" 
d="M1249 1434v-1434h-198v1245h-750v-1245h-199v1434h1147z" />
    <glyph glyph-name="summation" unicode="&#x2211;" horiz-adv-x="1228" 
d="M1126 1434v-189h-764l386 -528l-386 -529h764v-188h-1024v152l414 565l-414 567v150h1024z" />
    <glyph glyph-name="minus" unicode="&#x2212;" horiz-adv-x="1189" 
d="M1057 739v-176h-926v176h926z" />
    <glyph glyph-name="radical" unicode="&#x221a;" horiz-adv-x="1447" 
d="M1141 1434h205l-512 -1434h-181l-280 811h-271v188h414l232 -700z" />
    <glyph glyph-name="infinity" unicode="&#x221e;" horiz-adv-x="2004" 
d="M1405 1163c137.333 0 249.501 -47.667 336.501 -143s130.5 -212 130.5 -350c0 -139.333 -43.5 -256.833 -130.5 -352.5s-199.167 -143.5 -336.5 -143.5c-90.667 0 -173.834 26.833 -249.501 80.5s-127.167 116.167 -154.5 187.5c-26.667 -72 -77.667 -134.667 -153 -188
s-158 -80 -248 -80c-92 0 -174 22.667 -246 68s-127.167 105.5 -165.5 180.5s-57.5 157.5 -57.5 247.5c0 137.333 43.667 253.833 131 349.5s200 143.5 338 143.5c90.667 0 173.5 -26.333 248.5 -79s125.833 -115 152.5 -187c26.667 71.333 78.167 133.5 154.5 186.5
s159.5 79.5 249.5 79.5zM608.001 354c78.667 0 148 28.833 208 86.5s96 134.167 108 229.5c-12 94.667 -48 170.5 -108 227.5s-129.333 85.5 -208 85.5c-84.667 0 -153.5 -29.333 -206.5 -88s-79.5 -133.667 -79.5 -225c0 -92.667 26.5 -168.5 79.5 -227.5
s121.833 -88.5 206.5 -88.5zM1397 354c84 0 152.667 29.667 206 89s80 135 80 227c0 91.333 -26.667 166.333 -80 225s-122 88 -206 88c-75.333 0 -142 -28.667 -200 -86s-93 -133 -105 -227c12 -95.333 47 -171.833 105 -229.5s124.667 -86.5 200 -86.5z" />
    </font>
</defs>
</svg>
