<?xml version="1.0" standalone="no"?>
<!DOCTYPE svg PUBLIC "-//W3C//DTD SVG 1.1//EN" "http://www.w3.org/Graphics/SVG/1.1/DTD/svg11.dtd" >
<svg>
<metadata>
Created by FontForge 20090914 at Tue Jun 21 12:39:04 2022
 By www-data
Copyright (c) 2018 by Ivy Foundry. All rights reserved. |DCNT
</metadata>
<defs>
<font id="IvyMode-Light" horiz-adv-x="0" >
  <font-face 
    font-family="Ivy Mode Light"
    font-weight="300"
    font-stretch="normal"
    units-per-em="1000"
    panose-1="2 11 4 4 2 1 1 1 1 2"
    ascent="810"
    descent="-190"
    x-height="526"
    cap-height="728"
    bbox="-383 -274.001 1679.04 1040"
    underline-thickness="50"
    underline-position="-150"
    unicode-range="U+000D-U+FEFF"
  />
<missing-glyph horiz-adv-x="832" 
d="M100 728h632v-760h-632v760zM710 708h-588v-720h588v720z" />
    <glyph glyph-name="f_f" unicode="ff" horiz-adv-x="648" 
d="M474 623l-0.000976562 -97h179l-13 -22h-166v-504h-63v504h-245v-504h-63v504h-84v22h84v95c0 61.333 14 107.833 42 139.5s68 47.5 120 47.5c48.667 0 96.334 -12.333 143.001 -37l-7 -13c-38 15.333 -74.333 23 -109 23c-84 0 -126 -54.667 -126 -164v-91h245v101
c0 61.333 13.833 107.833 41.5 139.5s67.5 47.5 119.5 47.5c51.333 0 100 -13 146 -39l-7 -12c-37.333 16 -74.333 24 -111 24c-84 0 -126 -54.667 -126 -164z" />
    <glyph glyph-name="f_f_i" unicode="ffi" horiz-adv-x="846" 
d="M755 526l23.999 9h4v-535h-63v504h-246v-504h-63v504h-245v-504h-63v504h-84v22h84v95c0 61.333 14 107.833 42 139.5s68 47.5 120 47.5c48.667 0 96.334 -12.333 143.001 -37l-7 -13c-38 15.333 -74.333 23 -109 23c-84 0 -126 -54.667 -126 -164v-91h245v101
c0 61.333 13.833 107.833 41.5 139.5s67.5 47.5 119.5 47.5c33.333 0 68.333 -8 105 -24l-4 -13c-24 6.66699 -48.333 10 -73 10c-84 0 -126 -54.667 -126 -164v-97h281zM804.999 686l-54 -53l-53 53l53 53z" />
    <glyph glyph-name="f_i" unicode="fi" horiz-adv-x="538" 
d="M447 526l24 9h4v-535h-63v504h-246v-504h-63v504h-84v22h84v101c0 61.333 13.833 107.833 41.5 139.5s67.5 47.5 119.5 47.5c33.333 0 68.333 -8 105 -24l-4 -13c-22.667 6.66699 -47 10 -73 10c-84 0 -126 -54.667 -126 -164v-97h281zM497 686l-54 -53l-53 53l53 53z
" />
    <glyph glyph-name="f_l" unicode="fl" horiz-adv-x="541" 
d="M474 810h4.00098v-810h-63v763c-43.333 16 -84.333 24 -123 24c-84 0 -126 -54.667 -126 -164v-97h180l-14 -22h-166v-504h-63v504h-84v22h84v101c0 61.333 14 107.833 42 139.5s68 47.5 120 47.5c49.333 0 99.666 -12 150.999 -36z" />
    <glyph glyph-name=".notdef" horiz-adv-x="832" 
d="M100 728h632v-760h-632v760zM710 708h-588v-720h588v720z" />
    <glyph glyph-name="uni000D" unicode="&#xd;" horiz-adv-x="214" 
 />
    <glyph glyph-name="space" unicode=" " horiz-adv-x="214" 
 />
    <glyph glyph-name="exclam" unicode="!" horiz-adv-x="195" 
d="M90 198l-29 530h74l-30 -530h-15zM98 -20l-57 56l57 57l57 -57z" />
    <glyph glyph-name="quotedbl" unicode="&#x22;" horiz-adv-x="277" 
d="M67 452l-27 288h64l-27 -288h-10zM200 452l-27 288h64l-27 -288h-10z" />
    <glyph glyph-name="numbersign" unicode="#" horiz-adv-x="534" 
d="M507 481h-107l-32 -234h100v-18h-103l-31 -229h-20l31 229h-195l-31 -229h-20l31 229h-104v18h107l32 234h-100v18h103l31 229h20l-31 -229h195l31 229h20l-31 -229h104v-18zM348 247l32 234h-195l-32 -234h195z" />
    <glyph glyph-name="dollar" unicode="$" horiz-adv-x="523" 
d="M493 190c0 -62 -22.666 -111.168 -67.999 -147.501s-101 -54.5 -167 -54.5c-10.667 0 -17.667 0.333008 -21 1l-8 -90h-20l8 91c-76.667 8.66699 -139.334 30.334 -188.001 65.001l15 48c19.333 -24 44.833 -44.5 76.5 -61.5s64.5 -28.167 98.5 -33.5l31 341l-21 10
c-34 15.333 -65.667 32 -95 50c-60 39.333 -90 89.333 -90 150c0 52 20.5 95.167 61.5 129.5s93.5 51.5 157.5 51.5c12 0 19.667 -0.333008 23 -1l8 90h20l-8 -92c58.667 -6.66699 111 -24 157 -52l-12 -43c-40 39.333 -89 65 -147 77l-28 -304l32 -15
c41.333 -18.667 74.333 -36.667 99 -54c57.333 -36 86 -88 86 -156zM257.001 423.999l26.999 298.001c-16 1.33301 -25.667 2 -29 2c-46 0 -83.167 -13.167 -111.5 -39.5s-42.5 -58.5 -42.5 -96.5c2 -39.333 14.833 -69.833 38.5 -91.5s62.834 -45.834 117.501 -72.501z
M438 158c-2 42.667 -15.832 76.5 -41.499 101.5s-64.834 50.167 -117.501 75.5l-10 5l-30 -335c3.33301 -0.666992 11.333 -1 24 -1c49.333 0 90.833 14.667 124.5 44s50.5 66 50.5 110z" />
    <glyph glyph-name="percent" unicode="%" horiz-adv-x="761" 
d="M27 555c0 54 14.999 97.333 44.999 130s69 49 117 49c46.667 0 84.834 -16.167 114.501 -48.5s44.5 -74.5 44.5 -126.5c0 -53.333 -14.833 -96.5 -44.5 -129.5s-68.167 -49.5 -115.5 -49.5s-86 16 -116 48s-45 74.333 -45 127zM148.999 0l440 728h23l-440 -728h-23z
M302.999 555c0 51.333 -10.5 92 -31.5 122s-49.167 45 -84.5 45s-63.333 -14.5 -84 -43.5s-31 -68.833 -31 -119.5c0 -51.333 10.667 -92 32 -122s50 -45 86 -45c35.333 0 63 14.5 83 43.5s30 68.833 30 119.5zM412.999 169c0 53.333 14.834 96.5 44.501 129.5
s68.167 49.5 115.5 49.5c48 0 86.667 -15.833 116 -47.5s44 -74.167 44 -127.5c0 -54 -14.833 -97.333 -44.5 -130s-68.5 -49 -116.5 -49c-46.667 0 -84.834 16.167 -114.501 48.5s-44.5 74.5 -44.5 126.5zM689 169c0 51.333 -10.667 92 -32 122s-50 45 -86 45
c-35.333 0 -63.166 -14.5 -83.499 -43.5s-30.5 -68.833 -30.5 -119.5c0 -51.333 10.667 -92 32 -122s49.666 -45 84.999 -45s63.333 14.5 84 43.5s31 68.833 31 119.5z" />
    <glyph glyph-name="ampersand" unicode="&#x26;" horiz-adv-x="680" 
d="M574 143l90 -76.999v-81h-4l-123 106c-60.667 -68.667 -147.667 -103 -261 -103c-71.333 0 -129.166 18 -173.499 54s-66.5 82.333 -66.5 139c0 42.667 14 82.167 42 118.5s67.667 65.5 119 87.5c-56 60 -84 119.333 -84 178c0 49.333 17.667 90.833 53 124.5
s78.666 50.5 129.999 50.5c49.333 0 91.333 -15.5 126 -46.5s52 -68.5 52 -112.5c0 -42 -15.167 -77.833 -45.5 -107.5s-70.166 -51.834 -119.499 -66.501l-11 10c82.667 30.667 124 82.667 124 156c0 44 -12.333 80.5 -37 109.5s-56.334 43.5 -95.001 43.5
c-40 0 -71.167 -13.833 -93.5 -41.5s-33.5 -60.167 -33.5 -97.5c0 -35.333 10.833 -68.333 32.5 -99s53.167 -64 94.5 -100l274 -235c25.333 47.333 38 104 38 170c0 32 -10.333 70 -31 114l47 20h4v-113c0 -77.333 -16 -144.333 -48 -201zM526 100.001l-271.999 233.999
c-16.667 14 -32.334 28.333 -47.001 43c-72.667 -39.333 -109 -98.666 -109 -177.999c0 -55.333 18.667 -101 56 -137s85 -54 143 -54c98 0 174.333 30.667 229 92z" />
    <glyph glyph-name="quotesingle" unicode="'" horiz-adv-x="144" 
d="M67 452l-27 288h64l-27 -288h-10z" />
    <glyph glyph-name="parenleft" unicode="(" horiz-adv-x="226" 
d="M37 304c0 186.667 52 346 156 478l13 -9c-83.333 -110 -125 -264.333 -125 -463c0 -201.333 41.667 -357 125 -467l-13 -9c-104 132 -156 288.667 -156 470z" />
    <glyph glyph-name="parenright" unicode=")" horiz-adv-x="225" 
d="M32 -166l-13 9c83.333 110 125 264.333 125 463c0 201.333 -41.667 357 -125 467l13 9c104 -132 156 -288.667 156 -470c0 -186.667 -52 -346 -156 -478z" />
    <glyph glyph-name="asterisk" unicode="*" horiz-adv-x="445" 
d="M406 619l-177 -75l177 -75l-27 -46l-153 116l24 -191h-54l24 191l-153 -116l-27 46l177 75l-177 75l27 46l153 -116l-24 191h54l-24 -191l153 116z" />
    <glyph glyph-name="plus" unicode="+" horiz-adv-x="508" 
d="M458 374v-20h-193v-200h-22v200h-193v20h193v200h22v-200h193z" />
    <glyph glyph-name="comma" unicode="," horiz-adv-x="176" 
d="M49 -142l-5 6.99902c36 24 54 52 54 84c0 35.333 -21.667 67.333 -65 96l45 50c46 -22 69 -56 69 -102c0 -26 -8.83301 -51.167 -26.5 -75.5s-41.5 -44.166 -71.5 -59.499z" />
    <glyph glyph-name="hyphen" unicode="-" horiz-adv-x="307" 
d="M46 262v31h215v-31h-215z" />
    <glyph glyph-name="period" unicode="." horiz-adv-x="167" 
d="M84 -20l-57 56l57 57l57 -57z" />
    <glyph glyph-name="slash" unicode="/" horiz-adv-x="365" 
d="M23 -64l292 846h25l-292 -846h-25z" />
    <glyph glyph-name="zero" unicode="0" horiz-adv-x="645" 
d="M46 359c0 115.333 25.167 207.666 75.5 276.999s117.5 104 201.5 104c82 0 148.5 -33.5 199.5 -100.5s76.5 -157.167 76.5 -270.5c0 -115.333 -25.167 -207.666 -75.5 -276.999s-117.833 -104 -202.5 -104c-82 0 -148.333 33.5 -199 100.5s-76 157.167 -76 270.5z
M528 360c0 110.667 -18.334 199.333 -55.001 266s-87.667 100 -153 100s-115.666 -32.667 -150.999 -98c-34.667 -64.667 -52 -151 -52 -259c0 -111.333 18.333 -200.333 55 -267s87.667 -100 153 -100c64.667 0 114.667 32.667 150 98s53 152 53 260z" />
    <glyph glyph-name="one" unicode="1" horiz-adv-x="279" 
d="M198 740l4 -0.000976562v-740h-64v630c-35.333 -23.333 -77.666 -43.333 -126.999 -60v12c34.667 14.667 69.167 36.334 103.5 65.001s62.166 59.667 83.499 93z" />
    <glyph glyph-name="two" unicode="2" horiz-adv-x="511" 
d="M480 68l-19.998 -68.001h-436v4l58 60c111.333 114.667 189.333 208 234 280c45.333 73.333 68 138.333 68 195c0 48.667 -13.333 87.834 -40 117.501s-63 44.5 -109 44.5c-84.667 0 -150.667 -44.667 -198 -134l-13 6c21.333 46 49 85 83 117
c35.333 33.333 85 50 149 50c59.333 0 107.833 -17.5 145.5 -52.5s56.5 -81.5 56.5 -139.5c0 -58.667 -26.333 -124.5 -79 -197.5s-145.334 -169.833 -278.001 -290.5l-13 -12h77c69.333 0 125 1.33301 167 4c39.333 2.66699 88.666 8 147.999 16z" />
    <glyph glyph-name="three" unicode="3" horiz-adv-x="501" 
d="M28 35l11.9971 43.999c52 -50 110.333 -75 175 -75c50.667 0 93.5 17.167 128.5 51.5s52.5 79.166 52.5 134.499c0 46 -16.667 85.667 -50 119c-34 34 -78.667 53.333 -134 58l-40 3l-4 11l40 12c45.333 14.667 82.5 38.334 111.5 71.001s43.5 70.334 43.5 113.001
c0 39.333 -12.167 70.5 -36.5 93.5s-56.166 34.5 -95.499 34.5c-40 0 -76 -10 -108 -30c-31.333 -20 -55.333 -41.667 -72 -65l-13 6c52.667 82.667 123.667 124 213 124c50.667 0 93.334 -13.333 128.001 -40s52 -63.334 52 -110.001c0 -40 -15 -76.333 -45 -109
c-30.667 -34 -66 -58.667 -106 -74v-2c50 -9.33301 92.167 -32 126.5 -68s51.5 -78.333 51.5 -127c0 -67.333 -23.667 -121.166 -71 -161.499s-106.666 -60.5 -177.999 -60.5c-60 0 -120.333 15.667 -181 47z" />
    <glyph glyph-name="four" unicode="4" horiz-adv-x="532" 
d="M514 257l-12 -47h-103v-210h-64v210h-327l-4 13l386 512h9v-478h115zM55 257h280v374z" />
    <glyph glyph-name="five" unicode="5" horiz-adv-x="483" 
d="M447 221c0 -68 -23.834 -123.833 -71.501 -167.5s-106.5 -65.5 -176.5 -65.5c-59.333 0 -117.666 15 -174.999 45l12 41c46.667 -46.667 102.334 -70 167.001 -70c52.667 0 96.667 18.5 132 55.5s53 83.5 53 139.5c0 64.667 -24 115 -72 151s-118 54 -210 54h-37l29 324
h333l-17 -52h-301l-18 -210h31c103.333 0 182.666 -22 237.999 -66s83 -103.667 83 -179z" />
    <glyph glyph-name="six" unicode="6" horiz-adv-x="535" 
d="M44 279c0 107.333 31.499 202.999 94.499 286.999s147.167 142 252.5 174l5 -15c-88.667 -30 -157.334 -85.333 -206.001 -166c-48.667 -79.333 -73 -173.666 -73 -282.999c0 -85.333 15.333 -152.333 46 -201s72.334 -73 125.001 -73c46.667 0 83.334 18.333 110.001 55
s40 86 40 148c0 64 -13.833 114.167 -41.5 150.5s-65.5 54.5 -113.5 54.5c-42 0 -79.667 -13.667 -113 -41l-10 12c42.667 37.333 91.334 56 146.001 56c58 0 106.667 -20.333 146 -61s59 -92.667 59 -156c0 -68 -22 -123.667 -66 -167s-98.667 -65 -164 -65
c-70.667 0 -127.834 26 -171.501 78s-65.5 123 -65.5 213z" />
    <glyph glyph-name="seven" unicode="7" horiz-adv-x="470" 
d="M22 728h441v-4l-269 -724h-68l300 676h-118c-134.667 0 -236 -8 -304 -24z" />
    <glyph glyph-name="eight" unicode="8" horiz-adv-x="545" 
d="M503 189c0 -56 -22.832 -103.503 -68.499 -142.503s-102.167 -58.5 -169.5 -58.5c-61.333 0 -114 16.333 -158 49s-66 75 -66 127c0 98.667 56.333 167.334 169 206.001c-90 46 -135 107.667 -135 185c0 51.333 18.667 95 56 131s86.666 54 147.999 54
c54 0 99.833 -15.5 137.5 -46.5s56.5 -68.833 56.5 -113.5c0 -83.333 -49.333 -146 -148 -188c60 -25.333 104.667 -54.166 134 -86.499s44 -71.166 44 -116.499zM273.001 413.997l34 -14c72 42.667 108 100.667 108 174c0 44 -13.333 80.333 -40 109s-61 43 -103 43
c-42.667 0 -77 -14.167 -103 -42.5s-39 -64.166 -39 -107.499c0 -36 11.667 -66.833 35 -92.5s59.333 -48.834 108 -69.501zM448.001 165.997c0 70 -51.668 126.001 -155.001 168.001l-50 21l-17 7c-41.333 -19.333 -72.666 -45.833 -93.999 -79.5s-32 -70.834 -32 -111.501
c0 -47.333 17.333 -87.333 52 -120s76 -49 124 -49c47.333 0 87.833 15.833 121.5 47.5s50.5 70.5 50.5 116.5z" />
    <glyph glyph-name="nine" unicode="9" horiz-adv-x="535" 
d="M144 -12l-4.99902 15c87.333 30 155.666 85 204.999 165c49.333 81.333 74 176 74 284c0 85.333 -15.333 152.333 -46 201s-72.334 73 -125.001 73c-46.667 0 -83.334 -18.333 -110.001 -55s-40 -86 -40 -148c0 -64 13.833 -114.167 41.5 -150.5s65.5 -54.5 113.5 -54.5
c42 0 79.667 13.667 113 41l10 -12c-41.333 -37.333 -88.666 -56 -141.999 -56c-59.333 0 -109 20.333 -149 61s-60 92.667 -60 156c0 68 22 123.667 66 167s98.667 65 164 65c70.667 0 128 -26 172 -78s66 -123 66 -213c0 -107.333 -31.667 -203 -95 -287
s-147.666 -142 -252.999 -174z" />
    <glyph glyph-name="colon" unicode=":" horiz-adv-x="215" 
d="M108 -20l-57 56l57 57l57 -57zM108 394l-57 56l57 57l57 -57z" />
    <glyph glyph-name="semicolon" unicode=";" horiz-adv-x="226" 
d="M72 -142l-5 6.99902c36 24 54 52 54 84c0 35.333 -21.667 67.333 -65 96l45 50c46 -22 69 -56 69 -102c0 -26 -8.83301 -51.167 -26.5 -75.5s-41.5 -44.166 -71.5 -59.499zM113 393.999l-57 56l57 57l57 -57z" />
    <glyph glyph-name="less" unicode="&#x3c;" horiz-adv-x="508" 
d="M446 544l-379 -180l379 -180l-10 -18l-398 189v18l398 189z" />
    <glyph glyph-name="equal" unicode="=" horiz-adv-x="508" 
d="M50 426v20h408v-20h-408zM50 282v20h408v-20h-408z" />
    <glyph glyph-name="greater" unicode="&#x3e;" horiz-adv-x="508" 
d="M72 562l398 -189v-18l-398 -189l-10 18l379 180l-379 180z" />
    <glyph glyph-name="question" unicode="?" horiz-adv-x="469" 
d="M166 263c0 19.333 6.33594 38.0029 19.0029 56.0029s34 41.333 64 70c39.333 38 67.5 70.333 84.5 97s25.5 56.667 25.5 90c0 39.333 -13.167 71.166 -39.5 95.499s-61.833 36.5 -106.5 36.5c-69.333 0 -129 -30 -179 -90l-12 8c24.667 30 54 56.333 88 79
c35.333 23.333 79.333 35 132 35c55.333 0 100.666 -14.333 135.999 -43c36.667 -28.667 55 -67.334 55 -116.001c0 -26 -6.66699 -51.333 -20 -76c-12.667 -22 -27.334 -41.833 -44.001 -59.5s-42 -40.834 -76 -69.501c-36.667 -31.333 -61.667 -55 -75 -71
s-20 -32.333 -20 -49c0 -29.333 18.667 -44 56 -44c8.66699 0 18 1 28 3l3 -14c-11.333 -2 -22 -3 -32 -3c-26.667 0 -47.834 5.5 -63.501 16.5s-23.5 27.167 -23.5 48.5zM238.003 -19.9971l-57 56l57 57l57 -57z" />
    <glyph glyph-name="at" unicode="@" horiz-adv-x="858" 
d="M648 527l-50 -240.004c-5.33301 -28.667 -8 -49.667 -8 -63c0 -44.667 20 -67 60 -67c42 0 79 23.333 111 70s48 102.334 48 167.001c2 91.333 -31.167 169.5 -99.5 234.5s-150.833 96.833 -247.5 95.5c-107.333 2 -199.833 -37.667 -277.5 -119
s-115.5 -178.666 -113.5 -291.999c-1.33301 -111.333 34.834 -205 108.501 -281s164.834 -113 273.501 -111c94 0 176 26.333 246 79l10 -12c-74.667 -55.333 -161.334 -83 -260.001 -83c-116.667 -2 -215.667 36 -297 114s-121 174.333 -119 289
c-1.33301 78 17.5 150.5 56.5 217.5s92 119.833 159 158.5s139.5 57.334 217.5 56.001c105.333 1.33301 194.666 -31.667 267.999 -99s109 -149.333 107 -246c0 -72 -19 -132.667 -57 -182s-86.667 -74 -146 -74c-60 0 -92.333 24.333 -97 73
c-44.667 -55.333 -95.334 -83 -152.001 -83c-37.333 0 -67.833 13 -91.5 39s-35.5 62 -35.5 108c-1.33301 66 20.834 125.333 66.501 178s99.5 78.334 161.5 77.001c48.667 0 86 -14.667 112 -44l40 40h6zM540 235.996c0.666992 20.667 3.33301 38.333 8 53l35 171
c-22 36.667 -54 55 -96 55c-46.667 0 -86.667 -23.5 -120 -70.5s-50 -100.833 -50 -161.5c0 -42 8.66699 -74 26 -96s40.333 -33 69 -33c49.333 0 92 27.333 128 82z" />
    <glyph glyph-name="A" unicode="A" horiz-adv-x="599" 
d="M520 0l-93.999 241h-303c-20.667 -53.333 -36 -99 -46 -137c-10.667 -38 -18.334 -72.667 -23.001 -104h-53l111 270l19 48l167 423h4l292 -741h-74zM130.001 259h289l-145 369l-124 -317z" />
    <glyph glyph-name="B" unicode="B" horiz-adv-x="611" 
d="M579 199c0 -62 -26.332 -110.668 -78.999 -146.001s-126.667 -53 -222 -53h-203v728h212c80 0 140.833 -15.167 182.5 -45.5s62.5 -72.833 62.5 -127.5c0 -44.667 -15.667 -82 -47 -112c-31.333 -29.333 -69 -49 -113 -59v-2c59.333 -4 108.666 -22.667 147.999 -56
s59 -75.666 59 -126.999zM273.001 711.999l-129.999 0.000976562v-329h147c52 0 93 15.333 123 46c30.667 30.667 46 70 46 118c0 49.333 -16.333 89.166 -49 119.499s-78.334 45.5 -137.001 45.5zM503.002 186c0 54.667 -17.5 98.501 -52.5 131.501
s-82.167 49.5 -141.5 49.5h-166v-344c12 -2.66699 29.333 -4.33398 52 -5.00098c33.333 -1.33301 55.333 -2 66 -2c161.333 0 242 56.667 242 170z" />
    <glyph glyph-name="C" unicode="C" horiz-adv-x="704" 
d="M40 359c-2 110.667 32.666 202.166 103.999 274.499s159 107.833 263 106.5c57.333 0 109.666 -10.333 156.999 -31s86.333 -49.667 117 -87l-39 -35c-62 91.333 -142 137 -240 137c-81.333 1.33301 -149.5 -31.167 -204.5 -97.5s-82.167 -149.166 -81.5 -248.499
c-1.33301 -104 27.334 -189.5 86.001 -256.5s131 -99.833 217 -98.5c110.667 0 197.334 48.667 260.001 146l12 -7c-72 -116 -172.667 -174 -302 -174c-101.333 0 -184.833 34.167 -250.5 102.5s-98.5 157.833 -98.5 268.5z" />
    <glyph glyph-name="D" unicode="D" horiz-adv-x="732" 
d="M691 373c0 -116 -34.332 -207.167 -102.999 -273.5s-161.334 -99.5 -278.001 -99.5h-235v728h245c114 0 204.333 -31.167 271 -93.5s100 -149.5 100 -261.5zM615.001 367c0 102.667 -28 185.834 -84 249.501s-129.667 95.5 -221 95.5h-167v-687
c28.667 -6 87.667 -9 177 -9c92.667 0 165 30.667 217 92s78 147.666 78 258.999z" />
    <glyph glyph-name="E" unicode="E" horiz-adv-x="523" 
d="M505 48h2l-17 -48h-415v728h401l12 -46h-2c-94 18.667 -187 28 -279 28h-64v-322h58c102 0 173 3.66699 213 11h2v-42h-2c-43.333 8.66699 -114.333 13 -213 13h-58v-352h65c108 0 207 10 297 30z" />
    <glyph glyph-name="F" unicode="F" horiz-adv-x="478" 
d="M188 710h-45v-334h48c102 0 173 3.66699 213 11h2v-42h-2c-43.333 8.66699 -114.333 13 -213 13h-48v-358h-68v728h382l12 -46h-2c-93.333 18.667 -186.333 28 -279 28z" />
    <glyph glyph-name="G" unicode="G" horiz-adv-x="745" 
d="M443 330h258.999v-246c-82.667 -64 -177.667 -96 -285 -96c-112.667 0 -203.667 33.667 -273 101s-104 157.333 -104 270c-1.33301 111.333 34.167 203 106.5 275s161.833 107.333 268.5 106c55.333 0 106.833 -10.5 154.5 -31.5s86.5 -49.833 116.5 -86.5l-40 -35
c-61.333 91.333 -141.666 137 -240.999 137c-84.667 0 -154 -32.833 -208 -98.5s-81 -152.167 -81 -259.5c-1.33301 -104.667 27 -191.167 85 -259.5s132 -101.833 222 -100.5c84.667 0 155.667 25.333 213 76v230h-182z" />
    <glyph glyph-name="H" unicode="H" horiz-adv-x="677" 
d="M534 728h69v-728h-69v370h-391v-370h-68v728h68v-340h391v340z" />
    <glyph glyph-name="I" unicode="I" horiz-adv-x="218" 
d="M75 0v728h68v-728h-68z" />
    <glyph glyph-name="J" unicode="J" horiz-adv-x="222" 
d="M-60 -150l-7 12.001c44 28 76.333 57 97 87c21.333 31.333 35.333 67.333 42 108c6.66699 39.333 10 93.666 10 162.999v508h68v-500c0 -80 -7 -142.667 -21 -188c-14 -46 -35.333 -81.667 -64 -107c-28 -26 -69.667 -53.667 -125 -83z" />
    <glyph glyph-name="K" unicode="K" horiz-adv-x="606" 
d="M75 0v728h68v-728h-68zM338 494l-94 -89l349 -331v-89h-5l-407 388l144 136c98.667 92.667 166 165.667 202 219h66v-2z" />
    <glyph glyph-name="L" unicode="L" horiz-adv-x="427" 
d="M414 50h1.99902l-17 -50h-324v728h68v-710h23c78.667 0 161.334 10.667 248.001 32z" />
    <glyph glyph-name="M" unicode="M" horiz-adv-x="836" 
d="M790 0l-69 0.000976562l-63 672l-252 -626h-4l-272 608l-30 -334c-9.33301 -104.667 -14 -191.667 -14 -261c0 -30.667 0.333008 -50.334 1 -59.001h-47c14.667 79.333 28 186.333 40 321l34 371l-15 33v3h74l255 -575l232 575h62z" />
    <glyph glyph-name="N" unicode="N" horiz-adv-x="638" 
d="M528 728h46c-8.66699 -74 -13 -180 -13 -318v-422h-7l-453 653v-323c0 -145.333 4.33301 -251.333 13 -318h-46c8.66699 74 13 180 13 318v352l-38 55v3h81l417 -606v288c0 145.333 -4.33301 251.333 -13 318z" />
    <glyph glyph-name="O" unicode="O" horiz-adv-x="824" 
d="M39 358c-1.33301 111.333 35.001 203.166 109.001 275.499s164 107.833 270 106.5c103.333 1.33301 190.666 -32.834 261.999 -102.501s106.333 -158.834 105 -267.501c1.33301 -111.333 -35 -203.166 -109 -275.499s-164 -107.833 -270 -106.5
c-103.333 -1.33301 -190.833 32.834 -262.5 102.501s-106.5 158.834 -104.5 267.501zM709.001 360c0 106 -28.502 193.166 -85.502 261.499s-128.167 102.5 -213.5 102.5c-84.667 1.33301 -155.167 -31.667 -211.5 -99s-84.166 -153 -83.499 -257
c-0.666992 -106 28 -193.5 86 -262.5s129.667 -102.833 215 -101.5c83.333 -1.33301 153.333 31.834 210 99.501s84.334 153.167 83.001 256.5z" />
    <glyph glyph-name="P" unicode="P" horiz-adv-x="539" 
d="M510 530c0 -68 -25.5 -122.333 -76.5 -163s-119.5 -61 -205.5 -61c-28.667 0 -57 2 -85 6v-312h-68v728h153c92 0 162 -17 210 -51s72 -83 72 -147zM435 518c0 61.333 -18 109 -54 143s-88.667 51 -158 51h-80v-382c21.333 -5.33301 47.333 -8 78 -8
c69.333 0 122.333 17 159 51s55 82.333 55 145z" />
    <glyph glyph-name="Q" unicode="Q" horiz-adv-x="824" 
d="M926 -116l-0.000976562 -4c-40 -20 -86.667 -30 -140 -30c-64.667 0 -129 13 -193 39c-63.333 24.667 -112.333 58.334 -147 101.001c-22.667 -1.33301 -36 -2 -40 -2c-103.333 -1.33301 -190.833 32.834 -262.5 102.501s-106.5 158.834 -104.5 267.501
c-1.33301 111.333 35 203.166 109 275.499s164 107.833 270 106.5c103.333 1.33301 190.666 -32.834 261.999 -102.501s106.333 -158.834 105 -267.501c0 -90 -24.167 -167.667 -72.5 -233s-111.5 -109.333 -189.5 -132c92.667 -86.667 196.334 -130 311.001 -130
c30.667 0 61.334 3 92.001 9zM415.999 4c83.333 -1.33301 153.331 31.833 209.998 99.5s84.334 153.167 83.001 256.5c0 106 -28.5 193.167 -85.5 261.5s-128.167 102.5 -213.5 102.5c-84.667 1.33301 -155.167 -31.667 -211.5 -99s-84.166 -153 -83.499 -257
c-0.666992 -106 28 -193.5 86 -262.5s129.667 -102.833 215 -101.5z" />
    <glyph glyph-name="R" unicode="R" horiz-adv-x="588" 
d="M337 346l234 -268.001v-93h-5l-279 320c-13.333 15.333 -32.333 23 -57 23h-87v-328h-68v728h149c93.333 0 164.333 -15.667 213 -47s73 -77.666 73 -138.999c0 -47.333 -14.667 -86.5 -44 -117.5s-72.333 -57.167 -129 -78.5zM437 535.999
c0 55.333 -18.334 98.501 -55.001 129.501s-89.667 46.5 -159 46.5h-80v-361c13.333 -2.66699 29.333 -4.33398 48 -5.00098c28 -1.33301 46 -2 54 -2c56.667 0 102.834 18.5 138.501 55.5s53.5 82.5 53.5 136.5z" />
    <glyph glyph-name="S" unicode="S" horiz-adv-x="529" 
d="M34 43l15 48.999c23.333 -25.333 56 -46.666 98 -63.999c42 -16 82.333 -24 121 -24c50 0 91.333 14 124 42s49 64 49 108c-1.33301 44.667 -14.666 79.334 -39.999 104.001s-65.333 50.334 -120 77.001l-50 23c-40 19.333 -71.333 36.333 -94 51
c-60 39.333 -90 89.333 -90 150c0 52.667 20.333 96 61 130s93 51 157 51c73.333 0 140 -18.333 200 -55l-12 -44c-58.667 55.333 -124.334 83 -197.001 83c-46.667 0 -83.834 -12.333 -111.501 -37s-41.5 -56.334 -41.5 -95.001c0 -28 7 -52 21 -72
c13.333 -18.667 30 -34.834 50 -48.501s49 -29.5 87 -47.5l50 -23c38.667 -18 71.334 -36 98.001 -54c57.333 -37.333 86 -89.333 86 -156c0 -60.667 -22.667 -109.667 -68 -147s-100.666 -56 -165.999 -56c-39.333 0 -79.333 5.33301 -120 16
c-42.667 11.333 -78.334 24.333 -107.001 39z" />
    <glyph glyph-name="T" unicode="T" horiz-adv-x="550" 
d="M528 728l13 -49h-2c-74 20.667 -141.333 31 -202 31h-27v-710h-69v710h-28c-60 0 -127 -10.333 -201 -31h-2l12 49h506z" />
    <glyph glyph-name="U" unicode="U" horiz-adv-x="643" 
d="M69 241v487.001h69v-483c0 -75.333 17.333 -132.5 52 -171.5s86 -58.5 154 -58.5c66.667 0 117.667 19.167 153 57.5s53 94.166 53 167.499v170c0 145.333 -4.33301 251.333 -13 318h47c-9.33301 -78 -14 -184 -14 -318v-165c0 -171.333 -83 -257 -249 -257
c-82 0 -144.5 21.667 -187.5 65s-64.5 106 -64.5 188z" />
    <glyph glyph-name="V" unicode="V" horiz-adv-x="599" 
d="M544 728h52.999l-60 -143l-38 -96l-31 -79l-167 -423h-4l-293 741h75l245 -627l125 316c30.667 76 52.667 137.667 66 185c14.667 48 24.334 90 29.001 126z" />
    <glyph glyph-name="W" unicode="W" horiz-adv-x="940" 
d="M884 728h50c-22 -58 -54 -149.667 -96 -275l-15 -44l-143 -422h-4l-205 613l-209 -613h-4l-250 741h73l205 -613l209 613h4l205 -612l100 299c40 116 66.667 220.333 80 313z" />
    <glyph glyph-name="X" unicode="X" horiz-adv-x="599" 
d="M381 463l-45 -63.002l244 -313v-102h-4l-285 364l-69 -96c-64 -91.333 -111 -175.666 -141 -252.999h-74c37.333 42.667 104 130.667 200 264l71 101l-284 363h86l243 -312l42 58c76.667 108.667 126.667 193.334 150 254.001h65c-60.667 -72.667 -127 -161 -199 -265z
" />
    <glyph glyph-name="Y" unicode="Y" horiz-adv-x="566" 
d="M379 431l-61 -107v-324h-68v320l-237 408h79l217 -381l53 93c72 125.333 118.667 221.333 140 288h51z" />
    <glyph glyph-name="Z" unicode="Z" horiz-adv-x="522" 
d="M510 48h2l-17 -48h-490v4l417 706h-74c-140 0 -247 -9.33301 -321 -28h-2l12 46h471v-4l-417 -706h89c137.333 0 247.333 10 330 30z" />
    <glyph glyph-name="bracketleft" unicode="[" horiz-adv-x="248" 
d="M251 782v-12h-156c13.333 -162 20 -316 20 -462s-6.66699 -300 -20 -462h156v-12h-180v948h180z" />
    <glyph glyph-name="backslash" unicode="\" horiz-adv-x="365" 
d="M316 -64l-292 846h25l292 -846h-25z" />
    <glyph glyph-name="bracketright" unicode="]" horiz-adv-x="248" 
d="M-3 782h180v-948h-180v12h156c-13.333 162 -20 316 -20 462s6.66699 300 20 462h-156v12z" />
    <glyph glyph-name="asciicircum" unicode="^" horiz-adv-x="508" 
d="M469 358l-18 -10l-197 354l-197 -354l-18 10l213 382h4z" />
    <glyph glyph-name="underscore" unicode="_" horiz-adv-x="376" 
d="M-2 -86v22h380v-22h-380z" />
    <glyph glyph-name="grave" unicode="`" horiz-adv-x="600" 
d="M317 606l-157 170h85l79 -165z" />
    <glyph glyph-name="a" unicode="a" horiz-adv-x="489" 
d="M481 21l0.000976562 -6c-24.667 -13.333 -46.667 -20 -66 -20c-40 0 -62 24.333 -66 73c-26 -24 -56.333 -43 -91 -57s-68.334 -21 -101.001 -21c-42 0 -75.667 10.833 -101 32.5s-38 50.834 -38 87.501c0 45.333 20.167 82.166 60.5 110.499s96.5 46.5 168.5 54.5
c36 4 70 7 102 9v59c0 111.333 -44.333 167 -133 167c-52 0 -102.667 -20.667 -152 -62l-9 11c58.667 52.667 120.667 79 186 79c58 0 101.167 -15.333 129.5 -46s42.5 -77.667 42.5 -141v-256c0 -30.667 2.66699 -51 8 -61s19 -15 41 -15c2 0 8.33301 0.666992 19 2z
M194.001 19c56.667 0 108.334 22.666 155.001 67.999v183c-92 -8.66699 -159.333 -23.667 -202 -45s-64 -54.666 -64 -99.999c0 -33.333 10.167 -59.333 30.5 -78s47.166 -28 80.499 -28z" />
    <glyph glyph-name="b" unicode="b" horiz-adv-x="562" 
d="M531 271c1.33301 -81.333 -23 -149.168 -73 -203.501s-109.667 -80.833 -179 -79.5c-70.667 0 -129 24.667 -175 74l-41 -63h-4v788l60 23h4v-355c54 55.333 114.667 83 182 83c64.667 0 118.5 -25.167 161.5 -75.5s64.5 -114.166 64.5 -191.499zM461 261.998
c0 75.333 -16.499 135.665 -49.499 180.998s-74.833 68 -125.5 68c-28 0 -56.5 -7.16699 -85.5 -21.5s-54.833 -34.166 -77.5 -59.499v-326c15.333 -30.667 36.666 -55 63.999 -73s57 -27 89 -27c53.333 0 97.5 23.833 132.5 71.5s52.5 109.834 52.5 186.501z" />
    <glyph glyph-name="c" unicode="c" horiz-adv-x="500" 
d="M31 259c0 80.667 24.167 147.334 72.5 200.001s107.5 79 177.5 79c87.333 0 153.666 -30.667 198.999 -92l-35 -31c-45.333 72.667 -99.333 109 -162 109c-52 0 -95.167 -23.333 -129.5 -70s-51.5 -107 -51.5 -181c0 -76.667 18 -137.834 54 -183.501s82 -68.5 138 -68.5
c33.333 0 66.5 8.83301 99.5 26.5s59.833 42.5 80.5 74.5l12 -7c-55.333 -84.667 -127 -127 -215 -127c-69.333 0 -126.666 25.167 -171.999 75.5s-68 115.5 -68 195.5z" />
    <glyph glyph-name="d" unicode="d" horiz-adv-x="564" 
d="M525 14l-59 -21.998l-26 81c-52.667 -56.667 -113.667 -85 -183 -85c-64.667 0 -118.5 25.167 -161.5 75.5s-64.5 114.166 -64.5 191.499c-1.33301 81.333 23 149.166 73 203.499s109.667 80.833 179 79.5c60.667 0 112.667 -20.667 156 -62v311l60 23h4v-721z
M439 96.002l-0.000976562 326.001c-15.333 30.667 -36.666 55 -63.999 73s-57 27 -89 27c-53.333 0 -97.5 -23.833 -132.5 -71.5s-52.5 -109.834 -52.5 -186.501c0 -75.333 16.5 -135.666 49.5 -180.999s74.833 -68 125.5 -68c28 0 56.5 7.16699 85.5 21.5
s54.833 34.166 77.5 59.499z" />
    <glyph glyph-name="e" unicode="e" horiz-adv-x="524" 
d="M497 302h-395.001c-0.666992 -3.33301 -1 -12 -1 -26c0 -78 18.333 -140 55 -186s83.334 -69 140.001 -69c33.333 0 66.666 9 99.999 27s60.333 42.667 81 74l12 -7c-54.667 -84.667 -127 -127 -217 -127c-70 0 -127.667 25 -173 75s-68 114.667 -68 194
c0 83.333 24.333 151 73 203s110.334 78 185.001 78c65.333 0 116.5 -21 153.5 -63s55.167 -99.667 54.5 -173zM102.999 318h328c0 62.667 -13.333 112.667 -40 150s-63 56 -109 56c-46.667 0 -86.667 -19 -120 -57c-32 -36 -51.667 -85.667 -59 -149z" />
    <glyph glyph-name="f" unicode="f" horiz-adv-x="340" 
d="M166 623v-97h180l-14 -22h-166v-504h-63v504h-84v22h84v101c0 61.333 14 107.833 42 139.5s68 47.5 120 47.5c50.667 0 99 -13 145 -39l-7 -12c-37.333 16 -74.333 24 -111 24c-84 0 -126 -54.667 -126 -164z" />
    <glyph glyph-name="g" unicode="g" horiz-adv-x="500" 
d="M488 -55c0 -50.667 -25.332 -94.1631 -75.999 -130.496s-113 -54.5 -187 -54.5c-64 0 -116.167 13.833 -156.5 41.5s-60.5 63.5 -60.5 107.5c0 24.667 6.33301 49.667 19 75l41 12h4c-11.333 -30.667 -17 -57.334 -17 -80.001c0 -42.667 15.167 -76.667 45.5 -102
s71.833 -38 124.5 -38c64.667 0 116.334 13 155.001 39s58 61 58 105c0 28.667 -10.833 51.167 -32.5 67.5s-52.834 25.833 -93.501 28.5l-148 9c-78 4.66699 -117 29.667 -117 75c0 17.333 5 32.166 15 44.499s26.667 25.5 50 39.5l24 14
c-30.667 16 -54.834 37.667 -72.501 65s-26.5 58.666 -26.5 93.999c0 52.667 19 96.167 57 130.5s85.667 51.5 143 51.5c45.333 0 85.666 -11.667 120.999 -35c34.667 42.667 79 64 133 64l-8 -67c-19.333 5.33301 -36.666 8 -51.999 8c-24 0 -44 -5 -60 -15
c42.667 -34 64 -79.667 64 -137c0 -52 -19 -95.167 -57 -129.5s-85.333 -51.5 -142 -51.5c-30.667 0 -58.667 5 -84 15l-26 -17c-22 -14.667 -33 -31 -33 -49c0 -24.667 25.333 -38.334 76 -41.001l152 -10c111.333 -7.33301 167 -50.333 167 -129zM102.001 357.004
c0 -48.667 12.499 -88.3311 37.499 -118.998s57.167 -46 96.5 -46c40 0 72.333 15.167 97 45.5s37 70.166 37 119.499c0 48 -12.667 87.667 -38 119s-57.333 47 -96 47c-39.333 0 -71.666 -15.667 -96.999 -47c-24.667 -30.667 -37 -70.334 -37 -119.001z" />
    <glyph glyph-name="h" unicode="h" horiz-adv-x="549" 
d="M492 351l-0.000976562 -351h-63v347c0 42 -8 79.333 -24 112c-15.333 33.333 -51 50 -107 50c-61.333 0 -119.666 -26.667 -174.999 -80v-429h-64v787l60 23h4v-361c64 59.333 131.667 89 203 89c110.667 0 166 -62.333 166 -187z" />
    <glyph glyph-name="i" unicode="i" horiz-adv-x="189" 
d="M94 633l-53 53l53 53l54 -53zM63 0v513l59 22h4v-535h-63z" />
    <glyph glyph-name="j" unicode="j" horiz-adv-x="193" 
d="M99 633l-54 53l54 53l53 -53zM-55 -228l-4 11.999c39.333 7.33301 70.166 27.5 92.499 60.5s33.5 75.167 33.5 126.5v542l60 22h4v-562c0 -55.333 -16.667 -100.666 -50 -135.999s-78.666 -57 -135.999 -65z" />
    <glyph glyph-name="k" unicode="k" horiz-adv-x="483" 
d="M59 787l60 23h4v-810h-64v787zM212 322l261.001 -253v-84h-4l-318 310l88 76l101 90l66 65h62v-2c-80.667 -54 -153.334 -110 -218.001 -168z" />
    <glyph glyph-name="l" unicode="l" horiz-adv-x="189" 
d="M63 0v787l59 23h4v-810h-63z" />
    <glyph glyph-name="m" unicode="m" horiz-adv-x="899" 
d="M843 351l-0.000976562 -351h-64v347c0 42 -8 79.333 -24 112c-15.333 33.333 -51 50 -107 50c-56.667 0 -114 -29.333 -172 -88c4.66699 -18 7 -41.333 7 -70v-351h-64v347c0 42 -8 79.333 -24 112c-15.333 33.333 -51 50 -107 50c-56.667 0 -111.667 -26.667 -165 -80
v-429h-64v513l60 22h4v-86c32 31.333 62.833 54 92.5 68s63.167 21 100.5 21c82.667 0 134.334 -33.333 155.001 -100c35.333 35.333 68.5 60.833 99.5 76.5s66.167 23.5 105.5 23.5c111.333 0 167 -62.333 167 -187z" />
    <glyph glyph-name="n" unicode="n" horiz-adv-x="548" 
d="M492 351l-0.000976562 -351h-63v347c0 42 -8 79.333 -24 112c-15.333 33.333 -51 50 -107 50c-61.333 0 -119.666 -26.667 -174.999 -80v-429h-64v513l60 22h4v-86c64 59.333 131.333 89 202 89c111.333 0 167 -62.333 167 -187z" />
    <glyph glyph-name="o" unicode="o" horiz-adv-x="578" 
d="M31 260c0 82 24.832 148.833 74.499 200.5s112.167 77.5 187.5 77.5c74.667 0 135.5 -24.667 182.5 -74s70.5 -115.333 70.5 -198c0 -82 -24.667 -148.833 -74 -200.5s-111.666 -77.5 -186.999 -77.5c-74.667 0 -135.667 24.667 -183 74s-71 115.333 -71 198z
M475.999 260c0 78 -17.833 141.5 -53.5 190.5s-80.834 73.5 -135.501 73.5c-54 0 -98.5 -23.833 -133.5 -71.5s-52.5 -109.834 -52.5 -186.501c0 -78 17.833 -141.5 53.5 -190.5s80.834 -73.5 135.501 -73.5c54 0 98.5 23.833 133.5 71.5s52.5 109.834 52.5 186.501z" />
    <glyph glyph-name="p" unicode="p" horiz-adv-x="562" 
d="M530 271c1.33301 -81.333 -22.833 -149.168 -72.5 -203.501s-109.167 -80.833 -178.5 -79.5c-59.333 0 -111.333 20.333 -156 61v-277h-64v741l60 22h4v-80c54 55.333 114.333 83 181 83c64.667 0 118.5 -25.167 161.5 -75.5s64.5 -114.166 64.5 -191.499z
M460.001 261.998c0 75.333 -16.332 135.667 -48.999 181s-74.334 68 -125.001 68c-28 0 -56.5 -7.16699 -85.5 -21.5s-54.833 -34.166 -77.5 -59.499v-325c14.667 -31.333 35.5 -56 62.5 -74s56.833 -27 89.5 -27c54 0 98.333 23.667 133 71s52 109.666 52 186.999z" />
    <glyph glyph-name="q" unicode="q" horiz-adv-x="562" 
d="M497 535l6 0.00195312v-763h-64v300c-54 -56 -114.667 -84 -182 -84c-64.667 0 -118.5 25.167 -161.5 75.5s-64.5 114.166 -64.5 191.499c-1.33301 81.333 23 149.166 73 203.499s109.667 80.833 179 79.5c66 0 122.333 -22 169 -66zM439 96.002l-0.000976562 326.001
c-15.333 30.667 -36.666 55 -63.999 73s-57 27 -89 27c-53.333 0 -97.5 -23.833 -132.5 -71.5s-52.5 -109.834 -52.5 -186.501c0 -75.333 16.5 -135.666 49.5 -180.999s74.833 -68 125.5 -68c28 0 56.5 7.16699 85.5 21.5s54.833 34.166 77.5 59.499z" />
    <glyph glyph-name="r" unicode="r" horiz-adv-x="340" 
d="M337 530l-22 -54c-18 8 -36.667 12 -56 12c-54.667 0 -100 -31.333 -136 -94v-394h-64v513l59 22h4v-116c46 78 101.333 117 166 117c16.667 0 33 -2 49 -6z" />
    <glyph glyph-name="s" unicode="s" horiz-adv-x="421" 
d="M23 40l11.9971 38.999c49.333 -51.333 108.333 -77 177 -77c40.667 0 73.834 10.167 99.501 30.5s38.5 46.833 38.5 79.5c0 20 -5.66699 37.667 -17 53c-17.333 22 -53.333 44.667 -108 68l-40 18c-31.333 14 -57.666 27 -78.999 39c-48 28 -72 66.333 -72 115
c0 40 16 72.167 48 96.5s73.667 36.5 125 36.5c64.667 0 121.334 -14.333 170.001 -43l-12 -38c-50.667 44.667 -105.334 67 -164.001 67c-35.333 0 -63.666 -9 -84.999 -27s-32 -40.667 -32 -68c0 -19.333 6 -36.666 18 -51.999c11.333 -12.667 23.833 -23 37.5 -31
s36.834 -19 69.501 -33l40 -18c31.333 -14 56.666 -26.667 75.999 -38c49.333 -28.667 74 -68.667 74 -120c0 -44.667 -17.667 -80.667 -53 -108s-82 -41 -140 -41c-70.667 0 -131.667 17.333 -183 52z" />
    <glyph glyph-name="t" unicode="t" horiz-adv-x="343" 
d="M341 40l7.99902 -12.001c-42.667 -26.667 -85 -40 -127 -40c-51.333 0 -84.666 13.667 -99.999 41c-14.667 26.667 -22 57.667 -22 93v382h-84v17l79 5l65 162h4v-162h180l-14 -22h-166v-376c0 -29.333 5 -55.666 15 -78.999c10.667 -22.667 35 -34 73 -34
c30 0 59.667 8.33301 89 25z" />
    <glyph glyph-name="u" unicode="u" horiz-adv-x="547" 
d="M485 89l22 -75l-59 -22l-26 86v4c-60.667 -62.667 -127.334 -94 -200.001 -94c-111.333 0 -167 62.333 -167 187v338l59 22h4v-356c0 -40.667 7.66699 -78 23 -112c16 -33.333 52 -50 108 -50c28.667 0 58.834 8 90.501 24s59.167 37.667 82.5 65v407l59 22h4v-446z" />
    <glyph glyph-name="v" unicode="v" horiz-adv-x="476" 
d="M426 526h49.001c-30 -62.667 -73 -160.334 -129 -293.001l-104 -245h-8l-228 538h68l188 -444l67 157c57.333 134.667 89.666 230.334 96.999 287.001z" />
    <glyph glyph-name="w" unicode="w" horiz-adv-x="749" 
d="M693 526h50c-29.333 -68 -68.333 -167.667 -117 -299l-89 -239h-8l-153 428l-153 -428h-8l-209 538h68l168 -433l154 433h7l155 -430l51 139c48 128.667 76 225.667 84 291z" />
    <glyph glyph-name="x" unicode="x" horiz-adv-x="440" 
d="M253 300l171.001 -221v-94h-5l-208 270l-58 -83c-44.667 -62.667 -74.667 -120 -90 -172h-62c31.333 36 77 96.667 137 182l61 87l-198 257h76l165 -212l30 43c47.333 66.667 79.666 123 96.999 169h53c-38.667 -46 -83.667 -105.333 -135 -178z" />
    <glyph glyph-name="y" unicode="y" horiz-adv-x="472" 
d="M419 526l48 -0.000976562c-18 -39.333 -36 -81.666 -54 -126.999l-41 -99l-27 -68l-129 -317c-40.667 -99.333 -110 -149 -208 -149l4 48c12 -3.33301 26 -5 42 -5c29.333 0 57 9.16699 83 27.5s46 44.833 60 79.5l34 86l-227 524h68l192 -442l64 155
c52.667 129.333 83 225 91 287z" />
    <glyph glyph-name="z" unicode="z" horiz-adv-x="419" 
d="M410 38h2.99902l-11 -38h-390v4l311 507h-71c-81.333 0 -158.333 -6.66699 -231 -20h-3l8 35h375v-4l-311 -507h78c84.667 0 165.334 7.66699 242.001 23z" />
    <glyph glyph-name="braceleft" unicode="{" horiz-adv-x="259" 
d="M113 661c0 -28.667 9.33301 -68.6689 28 -120.002c17.333 -46.667 26 -81.667 26 -105c0 -32 -10.333 -59.5 -31 -82.5s-48 -38.167 -82 -45.5c34 -7.33301 61.333 -22.5 82 -45.5s31 -50.5 31 -82.5c0 -23.333 -8.66699 -58.333 -26 -105
c-18.667 -51.333 -28 -91.333 -28 -120c0 -38 11.667 -65.667 35 -83s59.333 -26 108 -26v-12c-66 0 -114.333 10.833 -145 32.5s-46 56.5 -46 104.5c0 32.667 10 74.667 30 126c16.667 44.667 25 78 25 100c0 30 -9.5 54.833 -28.5 74.5s-43.5 29.834 -73.5 30.501v12
c30 0.666992 54.5 10.834 73.5 30.501s28.5 44.5 28.5 74.5c0 22 -8.33301 55.333 -25 100c-20 50.667 -30 92.667 -30 126c0 48 15.333 82.833 46 104.5s79 32.5 145 32.5v-12c-48.667 0 -84.667 -8.66699 -108 -26s-35 -45 -35 -83z" />
    <glyph glyph-name="bar" unicode="|" horiz-adv-x="166" 
d="M71 -64v846h24v-846h-24z" />
    <glyph glyph-name="braceright" unicode="}" horiz-adv-x="259" 
d="M139 197c0 -22 8.33301 -55.3311 25 -99.998c20 -51.333 30 -93.333 30 -126c0 -48 -15.167 -82.833 -45.5 -104.5s-78.5 -32.5 -144.5 -32.5v12c48.667 0 84.5 8.66699 107.5 26s34.5 45 34.5 83c0 28.667 -9.33301 68.667 -28 120c-16.667 46 -25 81 -25 105
c0 32 10.333 59.333 31 82s47.667 38 81 46c-33.333 8 -60.333 23.333 -81 46s-31 50 -31 82c0 24 8.33301 59 25 105c18.667 51.333 28 91.333 28 120c0 38 -11.5 65.667 -34.5 83s-58.833 26 -107.5 26v12c66 0 114.167 -10.833 144.5 -32.5s45.5 -56.5 45.5 -104.5
c0 -32.667 -10 -74.667 -30 -126c-16.667 -44.667 -25 -78 -25 -100c0 -30 9.33301 -54.833 28 -74.5s43.667 -29.834 75 -30.501v-12c-31.333 -0.666992 -56.333 -10.834 -75 -30.501s-28 -44.5 -28 -74.5z" />
    <glyph glyph-name="asciitilde" unicode="~" horiz-adv-x="521" 
d="M68 315l-11.999 3c12.667 74.667 46 112 100 112c24 0 64.667 -14.667 122 -44c48 -26.667 83 -40 105 -40c38.667 0 64 28.333 76 85l12 -3c-12.667 -74.667 -46 -112 -100 -112c-11.333 0 -23.333 2 -36 6s-24 8.33301 -34 13l-51 25
c-50.667 26.667 -85.667 40 -105 40c-38.667 0 -64.334 -28.333 -77.001 -85z" />
    <glyph glyph-name="uni00A0" unicode="&#xa0;" horiz-adv-x="214" 
 />
    <glyph glyph-name="exclamdown" unicode="&#xa1;" horiz-adv-x="184" 
d="M92 538l57 -56l-57 -57l-57 57zM85 320h14l30 -530h-74z" />
    <glyph glyph-name="cent" unicode="&#xa2;" horiz-adv-x="523" 
d="M481 122l11.998 -7.00098c-55.333 -84.667 -126.666 -127 -213.999 -127c-10.667 0 -17.667 0.333008 -21 1l-8 -89h-20l8 91c-59.333 9.33301 -107.333 38.333 -144 87s-55 109 -55 181c0 80.667 24 147.334 72 200.001s107 79 177 79l8 86h20l-8 -87
c77.333 -4 137.333 -34.333 180 -91l-35 -31c-43.333 67.333 -92 103.333 -146 108l-46 -498c15.333 -2.66699 29 -4 41 -4c33.333 0 66.333 9 99 27s59.334 42.667 80.001 74zM241.998 30.999l45 492.999c-52 -1.33301 -94.833 -25.166 -128.5 -71.499
s-50.5 -106.166 -50.5 -179.499c0 -61.333 12 -113.333 36 -156s56.667 -71.334 98 -86.001z" />
    <glyph glyph-name="sterling" unicode="&#xa3;" horiz-adv-x="548" 
d="M511 163l10.001 0.00195312l-5 -38c-3.33301 -20.667 -7 -37.5 -11 -50.5s-10.667 -26.667 -20 -41s-23 -25.333 -41 -33s-40.333 -11.834 -67 -12.501c-34.667 0 -89.667 11.667 -165 35c-40 13.333 -67.667 20 -83 20c-22 0 -50.333 -14.667 -85 -44l-10 18
c0.666992 0.666992 15 11.667 43 33c53.333 40.667 80 95.667 80 165c0 33.333 -9.33301 80.333 -28 141h-89v18h83c-24.667 78 -37 135 -37 171c0 59.333 17.333 106.666 52 141.999s81 53 139 53c88 0 155.667 -42 203 -126l-12 -7
c-44.667 63.333 -102.334 95 -173.001 95c-43.333 0 -77.833 -13.5 -103.5 -40.5s-38.5 -63.833 -38.5 -110.5c0 -24.667 3 -49.667 9 -75l31 -102h206v-18h-201c14 -44 21 -80.333 21 -109c0 -60.667 -27.667 -114.667 -83 -162c25.333 -0.666992 68 -9 128 -25
c56 -14.667 95.667 -22 119 -22c33.333 0 58.5 7.16699 75.5 21.5s30.167 35.5 39.5 63.5z" />
    <glyph glyph-name="currency" unicode="&#xa4;" horiz-adv-x="494" 
d="M378 215l71 -71l-14 -14l-71 71c-33.333 -29.333 -72.333 -44 -117 -44s-83.667 14.667 -117 44l-71 -71l-14 14l71 71c-30 34 -45 73 -45 117s15 83 45 117l-71 71l14 14l71 -71c33.333 29.333 72.333 44 117 44s83.667 -14.667 117 -44l71 71l14 -14l-71 -71
c30 -34 45 -73 45 -117s-15 -83 -45 -117zM401 332c0 42 -15.167 78.333 -45.5 109s-66.5 46 -108.5 46s-78.167 -15.333 -108.5 -46s-45.5 -67 -45.5 -109s15.167 -78.333 45.5 -109s66.5 -46 108.5 -46s78.167 15.333 108.5 46s45.5 67 45.5 109z" />
    <glyph glyph-name="yen" unicode="&#xa5;" horiz-adv-x="588" 
d="M390 431l-51 -89h168v-18h-178v-98h178v-18h-178v-208h-68v208h-178v18h178v94l-2 4h-176v18h165l-224 386h79l217 -381l53 93c72 125.333 118.667 221.333 140 288h51z" />
    <glyph glyph-name="brokenbar" unicode="&#xa6;" horiz-adv-x="166" 
d="M71 409v373h24v-373h-24zM71 -64v373h24v-373h-24z" />
    <glyph glyph-name="section" unicode="&#xa7;" horiz-adv-x="517" 
d="M488 156c1.33301 -66 -22.8311 -127.666 -72.498 -184.999s-105.834 -85 -168.501 -83c-25.333 0 -53.333 4.16699 -84 12.5s-55.667 18.833 -75 31.5l11 33c46.667 -42 97.667 -63 153 -63c36 0 64.833 11.167 86.5 33.5s32.5 50.833 32.5 85.5
c0 21.333 -5 40.666 -15 57.999c-9.33301 16 -21.5 30.833 -36.5 44.5s-38.167 31.834 -69.5 54.501l-30 22l-35 26c-31.333 23.333 -56 43.666 -74 60.999c-55.333 54 -83 115.667 -83 185c-1.33301 66 22.834 127.667 72.501 185s104.834 85 165.501 83
c53.333 0 105.333 -14.667 156 -44l-11 -33c-49.333 42 -99.333 63 -150 63c-34 0 -61.833 -11.333 -83.5 -34s-32.5 -51 -32.5 -85c0 -21.333 4.66699 -40.666 14 -57.999c9.33301 -16 21.666 -30.833 36.999 -44.5s38.666 -31.834 69.999 -54.501l30 -22l35 -26
c45.333 -33.333 82.666 -69 111.999 -107c30 -38 45 -84.333 45 -139zM452.003 126.001c0 48.667 -12.501 91.001 -37.501 127.001s-61.833 71.333 -110.5 106l-37 26c-21.333 15.333 -46.666 34.666 -75.999 57.999c-50 44 -75 91.667 -75 143
c0 33.333 11.333 65.333 34 96c-57.333 -48.667 -86 -108.667 -86 -180c0 -48.667 12.5 -91 37.5 -127s61.833 -71.333 110.5 -106l37 -26c25.333 -18 50.333 -37.333 75 -58c50.667 -43.333 76 -91 76 -143c0 -33.333 -11.333 -65.333 -34 -96
c57.333 48.667 86 108.667 86 180z" />
    <glyph glyph-name="dieresis" unicode="&#xa8;" horiz-adv-x="600" 
d="M212 624l-50 49l50 49l48 -49zM389 624l-49 49l49 49l49 -49z" />
    <glyph glyph-name="copyright" unicode="&#xa9;" horiz-adv-x="826" 
d="M38 364c-2 102 34.5 190.665 109.5 265.998s163.5 112 265.5 110c66.667 1.33301 129.167 -15.167 187.5 -49.5s104.5 -80.666 138.5 -138.999s50.333 -120.833 49 -187.5c1.33301 -66.667 -15 -129.167 -49 -187.5s-80.167 -104.666 -138.5 -138.999
s-120.833 -50.833 -187.5 -49.5c-102 -2 -190.5 34.667 -265.5 110s-111.5 164 -109.5 266zM766 363.998c2 97.333 -32.333 181.833 -103 253.5s-154 106.5 -250 104.5c-96 2 -179.333 -32.833 -250 -104.5s-105 -156.167 -103 -253.5
c-2 -97.333 32.333 -181.833 103 -253.5s154 -106.5 250 -104.5c96 -2 179.333 32.833 250 104.5s105 156.167 103 253.5zM193 360.998c0 67.333 20.8311 122.666 62.498 165.999s94.167 65 157.5 65c73.333 0 130 -28.333 170 -85l-34 -18
c-37.333 59.333 -84.333 89 -141 89c-47.333 0 -86.666 -19.333 -117.999 -58s-47 -89 -47 -151s16.167 -112 48.5 -150s72.5 -57 120.5 -57c30.667 0 61 7.83301 91 23.5s54 36.834 72 63.501l12 -7c-48 -70.667 -110.333 -106 -187 -106
c-59.333 0 -108.666 21 -147.999 63s-59 96 -59 162z" />
    <glyph glyph-name="ordfeminine" unicode="&#xaa;" horiz-adv-x="354" 
d="M328 414l-0.000976562 -4c-16 -10 -30 -15 -42 -15c-27.333 0 -42.333 15.333 -45 46c-34.667 -32.667 -73.667 -49 -117 -49c-27.333 0 -49.166 7 -65.499 21s-24.5 32.667 -24.5 56c0 28.667 12.833 52.167 38.5 70.5s61.5 29.833 107.5 34.5l61 6v35
c0 68.667 -27.333 103 -82 103c-32.667 0 -66 -13 -100 -39l-8 9c42.667 34.667 84.667 52 126 52c73.333 0 110 -40 110 -120v-162c0 -18 1.66699 -30 5 -36s11 -9 23 -9c6 0 10.333 0.333008 13 1zM146.999 415c36 0 67.333 13.334 94 40.001v113
c-54.667 -4.66699 -95.167 -13.834 -121.5 -27.501s-39.5 -34.167 -39.5 -61.5c0 -20 6 -35.667 18 -47s28.333 -17 49 -17z" />
    <glyph glyph-name="guillemotleft" unicode="&#xab;" horiz-adv-x="456" 
d="M238 504l-135 -240l135 -240h-12l-194 240l194 240h12zM418 504l-136 -240l136 -240h-12l-195 240l195 240h12z" />
    <glyph glyph-name="logicalnot" unicode="&#xac;" horiz-adv-x="508" 
d="M43 374h408v-220h-22v200h-386v20z" />
    <glyph glyph-name="uni00AD" unicode="&#xad;" horiz-adv-x="307" 
d="M46 262v31h215v-31h-215z" />
    <glyph glyph-name="registered" unicode="&#xae;" horiz-adv-x="627" 
d="M585 469c1.33301 -72.667 -25.334 -136.167 -80.001 -190.5s-118.334 -80.833 -191.001 -79.5c-73.333 -1.33301 -137.333 25.167 -192 79.5s-81.334 117.833 -80.001 190.5c-1.33301 72 25.334 135.5 80.001 190.5s118.667 81.833 192 80.5
c72.667 1.33301 136.334 -25.5 191.001 -80.5s81.334 -118.5 80.001 -190.5zM563 471c1.33301 67.333 -23.167 126.333 -73.5 177s-108.833 75.334 -175.5 74.001c-67.333 1.33301 -126.166 -23.334 -176.499 -74.001s-74.833 -109.667 -73.5 -177
c-1.33301 -67.333 23.167 -126.5 73.5 -177.5s109.166 -75.833 176.499 -74.5c66.667 -1.33301 125.167 23.5 175.5 74.5s74.833 110.167 73.5 177.5zM473 309l0.000976562 -5.99902c-6.66699 -1.33301 -12.667 -2 -18 -2c-16.667 0 -30.334 3.66699 -41.001 11
s-21.334 18.666 -32.001 33.999l-60 93c-3.33301 6.66699 -11.333 10 -24 10h-40v-147h-29v331h63c86 0 129 -28.667 129 -86c0 -39.333 -25.667 -69.333 -77 -90l67 -99c22.667 -32.667 43.334 -49 62.001 -49zM389.001 544.001c0 24 -8.33301 42.667 -25 56
s-40.667 20 -72 20h-34v-156c10.667 -2 25.667 -3 45 -3c24.667 0 45.167 7.83301 61.5 23.5s24.5 35.5 24.5 59.5z" />
    <glyph glyph-name="overscore" unicode="&#xaf;" horiz-adv-x="600" 
d="M170 654v25h261v-25h-261z" />
    <glyph glyph-name="degree" unicode="&#xb0;" horiz-adv-x="338" 
d="M29 613c0 38.667 13.667 71.5 41 98.5s60.333 40.5 99 40.5s71.667 -13.5 99 -40.5s41 -59.833 41 -98.5s-13.667 -71.5 -41 -98.5s-60.333 -40.5 -99 -40.5s-71.667 13.5 -99 40.5s-41 59.833 -41 98.5zM287 613c0 33.333 -11.666 61.666 -34.999 84.999
c-22.667 24 -50.334 36 -83.001 36s-60.667 -12 -84 -36c-22.667 -22.667 -34 -51 -34 -85s11.333 -62.667 34 -86c23.333 -23.333 51.333 -35 84 -35c32 0 59.667 11.667 83 35c23.333 24.667 35 53.334 35 86.001z" />
    <glyph glyph-name="plusminus" unicode="&#xb1;" horiz-adv-x="508" 
d="M265 374h193v-20h-193v-200h-22v200h-193v20h193v200h22v-200zM50 0v20h408v-20h-408z" />
    <glyph glyph-name="uni00B2" unicode="&#xb2;" horiz-adv-x="310" 
d="M284 355l-12.001 -43.001h-250v3l33 35c62 64 105.333 116.333 130 157c26 40.667 39 77.667 39 111c0 27.333 -7.5 49.166 -22.5 65.499s-34.5 24.5 -58.5 24.5c-47.333 0 -83.333 -25 -108 -75l-11 5c29.333 64 73 96 131 96c34.667 0 62.834 -10.167 84.501 -30.5
s32.5 -47.166 32.5 -80.499c0 -31.333 -15 -67.666 -45 -108.999c-30 -40.667 -82.333 -96 -157 -166l-4 -4h38c66.667 0 126.667 3.66699 180 11z" />
    <glyph glyph-name="uni00B3" unicode="&#xb3;" horiz-adv-x="305" 
d="M24 333l8.99805 29.999c30 -30 62 -45 96 -45c31.333 0 56.333 9.83301 75 29.5s28 43.834 28 72.501c0 28 -9.33301 51 -28 69s-43 28.333 -73 31l-23 1l-3 10l22 7c57.333 21.333 86 55.333 86 102c0 21.333 -6.66699 38.333 -20 51s-30.666 19 -51.999 19
c-39.333 0 -72.333 -17.667 -99 -53l-11 5c33.333 48 74 72 122 72c30.667 0 55.834 -8.16699 75.501 -24.5s29.5 -37.166 29.5 -62.499c0 -21.333 -8 -41 -24 -59s-36.333 -32 -61 -42v-2c29.333 -6 53.333 -19.333 72 -40s28 -45.334 28 -74.001
c0 -36 -13.333 -65.667 -40 -89s-60.667 -35 -102 -35c-34 0 -69.667 9 -107 27z" />
    <glyph glyph-name="acute" unicode="&#xb4;" horiz-adv-x="600" 
d="M291 606l-7 5l79 165h85z" />
    <glyph glyph-name="uni00B5" unicode="&#xb5;" horiz-adv-x="570" 
d="M499 89l21.999 -75.001l-59 -22l-26 86v4c-60.667 -62.667 -127.667 -94 -201 -94c-60 0 -102.667 21.667 -128 65c16.667 -93.333 25 -161.666 25 -204.999v-60h-63v725l59 22h4v-356c0 -40.667 7.66699 -78 23 -112c16 -33.333 52 -50 108 -50
c28.667 0 58.834 8 90.501 24s59.167 37.667 82.5 65v407l59 22h4v-446z" />
    <glyph glyph-name="paragraph" unicode="&#xb6;" horiz-adv-x="466" 
d="M238 -64l-0.000976562 440c-62.667 2.66699 -114 23 -154 61c-38.667 38 -58 87.333 -58 148c0 61.333 19.333 109.5 58 144.5s90.334 52.5 155.001 52.5h23v-846h-24zM361.999 782l24 0.00195312v-817c0 -52.667 -12.833 -95.834 -38.5 -129.501
s-62.167 -54.834 -109.5 -63.501v17c40 8.66699 70.667 28.167 92 58.5s32 69.5 32 117.5v817z" />
    <glyph glyph-name="middot" unicode="&#xb7;" horiz-adv-x="196" 
d="M98 226l-57 56l57 57l57 -57z" />
    <glyph glyph-name="cedilla" unicode="&#xb8;" horiz-adv-x="600" 
d="M403 -135c0 -24 -10 -43.667 -30 -59s-45 -23 -75 -23c-26.667 0 -51.334 5 -74.001 15l3 9c16.667 -6 36.667 -9 60 -9c22.667 0 41 5 55 15s21 22.667 21 38c0 14 -7.16699 25.833 -21.5 35.5s-32.5 14.5 -54.5 14.5h-25l44 99h20l-25 -55
c30.667 -2 55.334 -10.5 74.001 -25.5s28 -33.167 28 -54.5z" />
    <glyph glyph-name="uni00B9" unicode="&#xb9;" horiz-adv-x="182" 
d="M124 734l3.99902 0.000976562v-422h-43v351c-16 -9.33301 -40 -20 -72 -32v10c18.667 8 38.334 20.667 59.001 38s38 35.666 52 54.999z" />
    <glyph glyph-name="ordmasculine" unicode="&#xba;" horiz-adv-x="391" 
d="M32 564c0 52 15.333 94.333 46 127s70.667 49 120 49c48 0 87 -15.833 117 -47.5s45 -73.167 45 -124.5c0 -50.667 -15.833 -92.667 -47.5 -126s-71.5 -50 -119.5 -50s-86.833 15.667 -116.5 47s-44.5 73 -44.5 125zM311 564c0 48 -10.833 87.333 -32.5 118
s-49.5 46 -83.5 46s-61.5 -14.833 -82.5 -44.5s-31.5 -68.167 -31.5 -115.5c0 -48 10.667 -87.333 32 -118s49 -46 83 -46s61.667 14.833 83 44.5s32 68.167 32 115.5z" />
    <glyph glyph-name="guillemotright" unicode="&#xbb;" horiz-adv-x="456" 
d="M50 504l194 -240l-194 -240h-12l135 240l-135 240h12zM229 504l195 -240l-195 -240h-12l136 240l-136 240h12z" />
    <glyph glyph-name="onequarter" unicode="&#xbc;" horiz-adv-x="697" 
d="M143 734l3.99902 0.000976562v-422h-43v351c-16 -9.33301 -40 -20 -72 -32v10c18.667 8 38.334 20.667 59.001 38s38 35.666 52 54.999zM72.999 0.000976562l440 728h23l-440 -728h-23zM672.999 149.001l-8 -31h-59v-118h-42v118h-185l-2 10l222 293h7v-272h67z
M412.999 149.001h151v199z" />
    <glyph glyph-name="onehalf" unicode="&#xbd;" horiz-adv-x="669" 
d="M139 734l3.99902 0.000976562v-422h-43v351c-16 -9.33301 -40 -20 -72 -32v10c18.667 8 38.334 20.667 59.001 38s38 35.666 52 54.999zM67.999 0.000976562l440 728h23l-440 -728h-23zM640.999 43.001l-12.002 -43.001h-250v3l33 35c62 64 105.333 116.333 130 157
c26 40.667 39 77.667 39 111c0 27.333 -7.5 49.166 -22.5 65.499s-34.5 24.5 -58.5 24.5c-46.667 0 -82.667 -25 -108 -75l-11 5c28.667 64 72.334 96 131.001 96c34.667 0 62.834 -10.167 84.501 -30.5s32.5 -47.166 32.5 -80.499c0 -31.333 -15 -67.666 -45 -108.999
c-30 -40.667 -82.333 -96 -157 -166l-4 -4h38c66.667 0 126.667 3.66699 180 11z" />
    <glyph glyph-name="threequarters" unicode="&#xbe;" horiz-adv-x="760" 
d="M35 333l8.99902 29.999c30 -30 62 -45 96 -45c31.333 0 56.333 9.83301 75 29.5s28 43.834 28 72.501c0 28 -9.33301 51 -28 69s-43 28.333 -73 31l-23 1l-3 10l22 7c57.333 21.333 86 55.333 86 102c0 21.333 -6.66699 38.333 -20 51s-30.666 19 -51.999 19
c-39.333 0 -72.333 -17.667 -99 -53l-11 5c33.333 48 74 72 122 72c30.667 0 55.834 -8.16699 75.501 -24.5s29.5 -37.166 29.5 -62.499c0 -21.333 -8 -41 -24 -59s-36.333 -32 -61 -42v-2c29.333 -6 53.333 -19.333 72 -40s28 -45.334 28 -74.001
c0 -36 -13.333 -65.667 -40 -89s-60.667 -35 -102 -35c-34.667 0 -70.334 9 -107.001 27zM135.999 -0.000976562l440 728h23l-440 -728h-23zM736.999 148.999l-8 -31h-59v-118h-42v118h-185l-2 10l222 293h7v-272h67zM476.999 148.999h151v199z" />
    <glyph glyph-name="questiondown" unicode="&#xbf;" horiz-adv-x="460" 
d="M226 538l57 -56l-57 -57l-57 57zM299 255c0 -19.333 -6.00098 -37.5029 -18.001 -54.5029s-33.667 -40.833 -65 -71.5c-40 -37.333 -68.5 -69.333 -85.5 -96s-25.5 -57 -25.5 -91c0 -39.333 13.167 -71.166 39.5 -95.499s61.833 -36.5 106.5 -36.5
c69.333 0 129 30 179 90l12 -8c-24.667 -30 -54 -56.333 -88 -79c-34.667 -23.333 -78.334 -35 -131.001 -35c-55.333 0 -101.333 14.333 -138 43c-36 28.667 -54 67.334 -54 116.001c0 26 6.66699 51.333 20 76c12.667 22 27.334 41.833 44.001 59.5s42 40.834 76 69.501
c36 29.333 61 52.333 75 69s21 33.667 21 51c0 29.333 -19 44 -57 44c-8 0 -17 -1 -27 -3l-3 14c10 2 20.667 3 32 3c26.667 0 47.834 -5.5 63.501 -16.5s23.5 -27.167 23.5 -48.5z" />
    <glyph glyph-name="Agrave" unicode="&#xc0;" horiz-adv-x="599" 
d="M520 0l-93.999 241h-303c-20.667 -53.333 -36 -99 -46 -137c-10.667 -38 -18.334 -72.667 -23.001 -104h-53l111 270l19 48l167 423h4l292 -741h-74zM130.001 259h289l-145 369l-124 -317zM313.001 802l-168 160h98l77 -155z" />
    <glyph glyph-name="Aacute" unicode="&#xc1;" horiz-adv-x="599" 
d="M520 0l-93.999 241h-303c-20.667 -53.333 -36 -99 -46 -137c-10.667 -38 -18.334 -72.667 -23.001 -104h-53l111 270l19 48l167 423h4l292 -741h-74zM130.001 259h289l-145 369l-124 -317zM287.001 802l-7 5l77 155h98z" />
    <glyph glyph-name="Acircumflex" unicode="&#xc2;" horiz-adv-x="599" 
d="M520 0l-93.999 241h-303c-20.667 -53.333 -36 -99 -46 -137c-10.667 -38 -18.334 -72.667 -23.001 -104h-53l111 270l19 48l167 423h4l292 -741h-74zM130.001 259h289l-145 369l-124 -317zM463.001 807l-6 -5l-157 97l-157 -97l-6 5l160 155h6z" />
    <glyph glyph-name="Atilde" unicode="&#xc3;" horiz-adv-x="599" 
d="M520 0l-93.999 241h-303c-20.667 -53.333 -36 -99 -46 -137c-10.667 -38 -18.334 -72.667 -23.001 -104h-53l111 270l19 48l167 423h4l292 -741h-74zM130.001 259h289l-145 369l-124 -317zM138.001 814l-9.00195 2c10 64.667 37.667 97 83 97
c20 0 55.667 -10.333 107 -31c42.667 -17.333 72 -26 88 -26c26.667 0 45.334 19 56.001 57l9 -2c-11.333 -64.667 -39 -97 -83 -97c-21.333 0 -56.666 10 -105.999 30c-46 17.333 -75.667 26 -89 26c-26 0 -44.667 -18.667 -56 -56z" />
    <glyph glyph-name="Adieresis" unicode="&#xc4;" horiz-adv-x="599" 
d="M520 0l-93.999 241h-303c-20.667 -53.333 -36 -99 -46 -137c-10.667 -38 -18.334 -72.667 -23.001 -104h-53l111 270l19 48l167 423h4l292 -741h-74zM130.001 259h289l-145 369l-124 -317zM208.001 820l-50 49l50 49l48 -49zM393.001 820l-50 49l50 49l48 -49z" />
    <glyph glyph-name="Aring" unicode="&#xc5;" horiz-adv-x="599" 
d="M520 0l-93.999 241h-303c-20.667 -53.333 -36 -99 -46 -137c-10.667 -38 -18.334 -72.667 -23.001 -104h-53l111 270l19 48l167 423h4l292 -741h-74zM130.001 259h289l-145 369l-124 -317zM199.001 898c0 28 9.83301 51.167 29.5 69.5s43.5 27.5 71.5 27.5
s51.833 -9.16699 71.5 -27.5s29.5 -41.5 29.5 -69.5c0 -27.333 -9.83301 -50.166 -29.5 -68.499s-43.5 -27.5 -71.5 -27.5s-51.833 9.16699 -71.5 27.5s-29.5 41.166 -29.5 68.499zM365.001 898c0 26 -5.66699 46.667 -17 62s-27.333 23 -48 23s-36.667 -7.66699 -48 -23
s-17 -36 -17 -62s5.66699 -46.5 17 -61.5s27.333 -22.5 48 -22.5s36.667 7.5 48 22.5s17 35.5 17 61.5z" />
    <glyph glyph-name="AE" unicode="&#xc6;" horiz-adv-x="881" 
d="M862 48l2 -0.000976562l-17 -48h-415v262h-264c-60 -107.333 -101.667 -194.666 -125 -261.999h-55l434 728h411l12 -46h-2c-93.333 18.667 -186 28 -278 28h-64v-322h58c102 0 173 3.66699 213 11h2v-42h-2c-43.333 8.66699 -114.333 13 -213 13h-58v-352h65
c108 0 206.667 10 296 30zM179 279.999h253v427l-234 -394c-4 -5.33301 -10.333 -16.333 -19 -33z" />
    <glyph glyph-name="Ccedilla" unicode="&#xc7;" horiz-adv-x="704" 
d="M408 -12l-20.002 -42.999c30.667 -2 55.334 -10.5 74.001 -25.5s28 -33.167 28 -54.5c0 -24 -10 -43.667 -30 -59s-45 -23 -75 -23c-26 0 -50.667 5 -74 15l3 9c16.667 -6 36.334 -9 59.001 -9c23.333 0 42 5 56 15s21 22.667 21 38c0 14 -7.16699 25.833 -21.5 35.5
s-32.5 14.5 -54.5 14.5h-25l39 87c-100 -0.666992 -183.333 33.666 -250 102.999s-99.334 158.666 -98.001 267.999c-2 110.667 32.667 202.167 104 274.5s159 107.833 263 106.5c57.333 0 109.666 -10.333 156.999 -31s86.333 -49.667 117 -87l-39 -35
c-62 91.333 -142 137 -240 137c-81.333 1.33301 -149.5 -31.167 -204.5 -97.5s-82.167 -149.166 -81.5 -248.499c-1.33301 -104 27.334 -189.5 86.001 -256.5s131 -99.833 217 -98.5c110.667 0 197.334 48.667 260.001 146l12 -7c-70.667 -111.333 -165 -169.333 -283 -174z
" />
    <glyph glyph-name="Egrave" unicode="&#xc8;" horiz-adv-x="523" 
d="M505 48h2l-17 -48h-415v728h401l12 -46h-2c-94 18.667 -187 28 -279 28h-64v-322h58c102 0 173 3.66699 213 11h2v-42h-2c-43.333 8.66699 -114.333 13 -213 13h-58v-352h65c108 0 207 10 297 30zM287 802l-168 160h98l77 -155z" />
    <glyph glyph-name="Eacute" unicode="&#xc9;" horiz-adv-x="523" 
d="M505 48h2l-17 -48h-415v728h401l12 -46h-2c-94 18.667 -187 28 -279 28h-64v-322h58c102 0 173 3.66699 213 11h2v-42h-2c-43.333 8.66699 -114.333 13 -213 13h-58v-352h65c108 0 207 10 297 30zM260 802l-7 5l77 155h98z" />
    <glyph glyph-name="Ecircumflex" unicode="&#xca;" horiz-adv-x="523" 
d="M505 48h2l-17 -48h-415v728h401l12 -46h-2c-94 18.667 -187 28 -279 28h-64v-322h58c102 0 173 3.66699 213 11h2v-42h-2c-43.333 8.66699 -114.333 13 -213 13h-58v-352h65c108 0 207 10 297 30zM437 807l-6 -5l-157 97l-157 -97l-6 5l160 155h6z" />
    <glyph glyph-name="Edieresis" unicode="&#xcb;" horiz-adv-x="523" 
d="M505 48h2l-17 -48h-415v728h401l12 -46h-2c-94 18.667 -187 28 -279 28h-64v-322h58c102 0 173 3.66699 213 11h2v-42h-2c-43.333 8.66699 -114.333 13 -213 13h-58v-352h65c108 0 207 10 297 30zM182 820l-50 49l50 49l48 -49zM367 820l-50 49l50 49l48 -49z" />
    <glyph glyph-name="Igrave" unicode="&#xcc;" horiz-adv-x="218" 
d="M75 0v728h68v-728h-68zM122 802l-168 160h98l77 -155z" />
    <glyph glyph-name="Iacute" unicode="&#xcd;" horiz-adv-x="218" 
d="M75 0v728h68v-728h-68zM96 802l-7 5l77 155h98z" />
    <glyph glyph-name="Icircumflex" unicode="&#xce;" horiz-adv-x="218" 
d="M75 0v728h68v-728h-68zM272 807l-6 -5l-157 97l-157 -97l-6 5l160 155h6z" />
    <glyph glyph-name="Idieresis" unicode="&#xcf;" horiz-adv-x="218" 
d="M75 0v728h68v-728h-68zM17 820l-50 49l50 49l48 -49zM202 820l-50 49l50 49l48 -49z" />
    <glyph glyph-name="Eth" unicode="&#xd0;" horiz-adv-x="737" 
d="M696 373c0 -116 -34.332 -207.167 -102.999 -273.5s-161.334 -99.5 -278.001 -99.5h-235v371h-62v14h62v343h245c114 0 204.333 -31.167 271 -93.5s100 -149.5 100 -261.5zM620.001 367c0 102.667 -28 185.834 -84 249.501s-129.667 95.5 -221 95.5h-167v-327h207v-14
h-207v-346c29.333 -6 88.333 -9 177 -9c92.667 0 165 30.667 217 92s78 147.666 78 258.999z" />
    <glyph glyph-name="Ntilde" unicode="&#xd1;" horiz-adv-x="638" 
d="M528 728h46c-8.66699 -74 -13 -180 -13 -318v-422h-7l-453 653v-323c0 -145.333 4.33301 -251.333 13 -318h-46c8.66699 74 13 180 13 318v352l-38 55v3h81l417 -606v288c0 145.333 -4.33301 251.333 -13 318zM150 814l-9.00195 2c10 64.667 37.667 97 83 97
c20 0 55.667 -10.333 107 -31c42.667 -17.333 72 -26 88 -26c26.667 0 45.334 19 56.001 57l9 -2c-11.333 -64.667 -39 -97 -83 -97c-21.333 0 -56.666 10 -105.999 30c-46 17.333 -75.667 26 -89 26c-26 0 -44.667 -18.667 -56 -56z" />
    <glyph glyph-name="Ograve" unicode="&#xd2;" horiz-adv-x="824" 
d="M39 358c-1.33301 111.333 35.001 203.166 109.001 275.499s164 107.833 270 106.5c103.333 1.33301 190.666 -32.834 261.999 -102.501s106.333 -158.834 105 -267.501c1.33301 -111.333 -35 -203.166 -109 -275.499s-164 -107.833 -270 -106.5
c-103.333 -1.33301 -190.833 32.834 -262.5 102.501s-106.5 158.834 -104.5 267.501zM709.001 360c0 106 -28.502 193.166 -85.502 261.499s-128.167 102.5 -213.5 102.5c-84.667 1.33301 -155.167 -31.667 -211.5 -99s-84.166 -153 -83.499 -257
c-0.666992 -106 28 -193.5 86 -262.5s129.667 -102.833 215 -101.5c83.333 -1.33301 153.333 31.834 210 99.501s84.334 153.167 83.001 256.5zM424.999 801.999l-168 160h98l77 -155z" />
    <glyph glyph-name="Oacute" unicode="&#xd3;" horiz-adv-x="824" 
d="M39 358c-1.33301 111.333 35.001 203.166 109.001 275.499s164 107.833 270 106.5c103.333 1.33301 190.666 -32.834 261.999 -102.501s106.333 -158.834 105 -267.501c1.33301 -111.333 -35 -203.166 -109 -275.499s-164 -107.833 -270 -106.5
c-103.333 -1.33301 -190.833 32.834 -262.5 102.501s-106.5 158.834 -104.5 267.501zM709.001 360c0 106 -28.502 193.166 -85.502 261.499s-128.167 102.5 -213.5 102.5c-84.667 1.33301 -155.167 -31.667 -211.5 -99s-84.166 -153 -83.499 -257
c-0.666992 -106 28 -193.5 86 -262.5s129.667 -102.833 215 -101.5c83.333 -1.33301 153.333 31.834 210 99.501s84.334 153.167 83.001 256.5zM398.999 801.999l-7 5l77 155h98z" />
    <glyph glyph-name="Ocircumflex" unicode="&#xd4;" horiz-adv-x="824" 
d="M39 358c-1.33301 111.333 35.001 203.166 109.001 275.499s164 107.833 270 106.5c103.333 1.33301 190.666 -32.834 261.999 -102.501s106.333 -158.834 105 -267.501c1.33301 -111.333 -35 -203.166 -109 -275.499s-164 -107.833 -270 -106.5
c-103.333 -1.33301 -190.833 32.834 -262.5 102.501s-106.5 158.834 -104.5 267.501zM709.001 360c0 106 -28.502 193.166 -85.502 261.499s-128.167 102.5 -213.5 102.5c-84.667 1.33301 -155.167 -31.667 -211.5 -99s-84.166 -153 -83.499 -257
c-0.666992 -106 28 -193.5 86 -262.5s129.667 -102.833 215 -101.5c83.333 -1.33301 153.333 31.834 210 99.501s84.334 153.167 83.001 256.5zM574.999 806.999l-6 -5l-157 97l-157 -97l-6 5l160 155h6z" />
    <glyph glyph-name="Otilde" unicode="&#xd5;" horiz-adv-x="824" 
d="M39 358c-1.33301 111.333 35.001 203.166 109.001 275.499s164 107.833 270 106.5c103.333 1.33301 190.666 -32.834 261.999 -102.501s106.333 -158.834 105 -267.501c1.33301 -111.333 -35 -203.166 -109 -275.499s-164 -107.833 -270 -106.5
c-103.333 -1.33301 -190.833 32.834 -262.5 102.501s-106.5 158.834 -104.5 267.501zM709.001 360c0 106 -28.502 193.166 -85.502 261.499s-128.167 102.5 -213.5 102.5c-84.667 1.33301 -155.167 -31.667 -211.5 -99s-84.166 -153 -83.499 -257
c-0.666992 -106 28 -193.5 86 -262.5s129.667 -102.833 215 -101.5c83.333 -1.33301 153.333 31.834 210 99.501s84.334 153.167 83.001 256.5zM249.999 813.999l-9.00195 2c10 64.667 37.667 97 83 97c20 0 55.667 -10.333 107 -31c42.667 -17.333 72 -26 88 -26
c26.667 0 45.334 19 56.001 57l9 -2c-11.333 -64.667 -39 -97 -83 -97c-21.333 0 -56.666 10 -105.999 30c-46 17.333 -75.667 26 -89 26c-26 0 -44.667 -18.667 -56 -56z" />
    <glyph glyph-name="Odieresis" unicode="&#xd6;" horiz-adv-x="824" 
d="M39 358c-1.33301 111.333 35.001 203.166 109.001 275.499s164 107.833 270 106.5c103.333 1.33301 190.666 -32.834 261.999 -102.501s106.333 -158.834 105 -267.501c1.33301 -111.333 -35 -203.166 -109 -275.499s-164 -107.833 -270 -106.5
c-103.333 -1.33301 -190.833 32.834 -262.5 102.501s-106.5 158.834 -104.5 267.501zM709.001 360c0 106 -28.502 193.166 -85.502 261.499s-128.167 102.5 -213.5 102.5c-84.667 1.33301 -155.167 -31.667 -211.5 -99s-84.166 -153 -83.499 -257
c-0.666992 -106 28 -193.5 86 -262.5s129.667 -102.833 215 -101.5c83.333 -1.33301 153.333 31.834 210 99.501s84.334 153.167 83.001 256.5zM319.999 819.999l-50 49l50 49l48 -49zM504.999 819.999l-50 49l50 49l48 -49z" />
    <glyph glyph-name="multiply" unicode="&#xd7;" horiz-adv-x="508" 
d="M439 533l-170 -170l169 -169l-15 -15l-169 169l-169 -169l-15 15l169 169l-170 170l15 15l170 -170l170 170z" />
    <glyph glyph-name="Oslash" unicode="&#xd8;" horiz-adv-x="824" 
d="M785 370c1.33301 -111.333 -35 -203.167 -109 -275.5s-164 -107.833 -270 -106.5c-81.333 0 -151.666 20.333 -210.999 61l-73 -100l-16 11l73 100c-44.667 32.667 -79.167 74.5 -103.5 125.5s-36.5 108.5 -36.5 172.5c-1.33301 111.333 35 203.166 109 275.499
s164 107.833 270 106.5c81.333 0 151.666 -20.333 210.999 -61l73 100l16 -11l-73 -100c93.333 -71.333 140 -170.666 140 -297.999zM207 97.999l396.999 546c-53.333 53.333 -118 80 -194 80c-84.667 1.33301 -155.167 -31.667 -211.5 -99s-84.166 -153 -83.499 -257
c0 -112.667 30.667 -202.667 92 -270zM708.999 359.999c0 112.667 -30.667 202.666 -92 269.999l-397 -546c53.333 -53.333 118.666 -80 195.999 -80c83.333 -1.33301 153.333 31.834 210 99.501s84.334 153.167 83.001 256.5z" />
    <glyph glyph-name="Ugrave" unicode="&#xd9;" horiz-adv-x="643" 
d="M69 241v487.001h69v-483c0 -75.333 17.333 -132.5 52 -171.5s86 -58.5 154 -58.5c66.667 0 117.667 19.167 153 57.5s53 94.166 53 167.499v170c0 145.333 -4.33301 251.333 -13 318h47c-9.33301 -78 -14 -184 -14 -318v-165c0 -171.333 -83 -257 -249 -257
c-82 0 -144.5 21.667 -187.5 65s-64.5 106 -64.5 188zM340 802.001l-168 160h98l77 -155z" />
    <glyph glyph-name="Uacute" unicode="&#xda;" horiz-adv-x="643" 
d="M69 241v487.001h69v-483c0 -75.333 17.333 -132.5 52 -171.5s86 -58.5 154 -58.5c66.667 0 117.667 19.167 153 57.5s53 94.166 53 167.499v170c0 145.333 -4.33301 251.333 -13 318h47c-9.33301 -78 -14 -184 -14 -318v-165c0 -171.333 -83 -257 -249 -257
c-82 0 -144.5 21.667 -187.5 65s-64.5 106 -64.5 188zM314 802.001l-7 5l77 155h98z" />
    <glyph glyph-name="Ucircumflex" unicode="&#xdb;" horiz-adv-x="643" 
d="M69 241v487.001h69v-483c0 -75.333 17.333 -132.5 52 -171.5s86 -58.5 154 -58.5c66.667 0 117.667 19.167 153 57.5s53 94.166 53 167.499v170c0 145.333 -4.33301 251.333 -13 318h47c-9.33301 -78 -14 -184 -14 -318v-165c0 -171.333 -83 -257 -249 -257
c-82 0 -144.5 21.667 -187.5 65s-64.5 106 -64.5 188zM490 807.001l-6 -5l-157 97l-157 -97l-6 5l160 155h6z" />
    <glyph glyph-name="Udieresis" unicode="&#xdc;" horiz-adv-x="643" 
d="M69 241v487.001h69v-483c0 -75.333 17.333 -132.5 52 -171.5s86 -58.5 154 -58.5c66.667 0 117.667 19.167 153 57.5s53 94.166 53 167.499v170c0 145.333 -4.33301 251.333 -13 318h47c-9.33301 -78 -14 -184 -14 -318v-165c0 -171.333 -83 -257 -249 -257
c-82 0 -144.5 21.667 -187.5 65s-64.5 106 -64.5 188zM235 820.001l-50 49l50 49l48 -49zM420 820.001l-50 49l50 49l48 -49z" />
    <glyph glyph-name="Yacute" unicode="&#xdd;" horiz-adv-x="566" 
d="M379 431l-61 -107v-324h-68v320l-237 408h79l217 -381l53 93c72 125.333 118.667 221.333 140 288h51zM280 802l-7 5l77 155h98z" />
    <glyph glyph-name="Thorn" unicode="&#xde;" horiz-adv-x="536" 
d="M510 408c0 -68 -25.5 -122.333 -76.5 -163s-119.5 -61 -205.5 -61c-28.667 0 -57 2 -85 6v-190h-68v728h68v-122h85c92 0 162 -17 210 -51s72 -83 72 -147zM435 396c0 61.333 -18 109 -54 143s-88.667 51 -158 51h-80v-382c21.333 -5.33301 47.333 -8 78 -8
c69.333 0 122.333 17 159 51s55 82.333 55 145z" />
    <glyph glyph-name="germandbls" unicode="&#xdf;" horiz-adv-x="586" 
d="M565 144c0 -47.333 -16.5 -85.1689 -49.5 -113.502s-76.5 -42.5 -130.5 -42.5c-60 0 -113.333 17.333 -160 52l12 39c43.333 -51.333 94 -77 152 -77c39.333 0 70.666 11 93.999 33s35 49.667 35 83c-2 31.333 -11.5 55.833 -28.5 73.5s-45.833 38.834 -86.5 63.501
l-38 22c-31.333 18 -54.666 35.833 -69.999 53.5s-23 38.5 -23 62.5c0 20.667 5.33301 38.834 16 54.501s30 35.834 58 60.501c32.667 28 56 53 70 75s21 49 21 81c0 40 -12 72.667 -36 98s-55.667 38 -95 38c-44 0 -78.333 -14.833 -103 -44.5s-37 -72.167 -37 -127.5v-628
h-63v504h-84v22h84v73c0 68.667 18.833 121.667 56.5 159s87.167 56 148.5 56c51.333 0 95 -13.833 131 -41.5s54 -62.834 54 -105.501c-2 -32 -10 -57 -24 -75s-39 -40.667 -75 -68c-28 -21.333 -47.667 -38.833 -59 -52.5s-17 -28.834 -17 -45.501
c0 -32 26.333 -62.333 79 -91l38 -23c46.667 -27.333 80 -53.166 100 -77.499s30 -54.5 30 -90.5z" />
    <glyph glyph-name="agrave" unicode="&#xe0;" horiz-adv-x="489" 
d="M481 21l0.000976562 -6c-24.667 -13.333 -46.667 -20 -66 -20c-40 0 -62 24.333 -66 73c-26 -24 -56.333 -43 -91 -57s-68.334 -21 -101.001 -21c-42 0 -75.667 10.833 -101 32.5s-38 50.834 -38 87.501c0 45.333 20.167 82.166 60.5 110.499s96.5 46.5 168.5 54.5
c36 4 70 7 102 9v59c0 111.333 -44.333 167 -133 167c-52 0 -102.667 -20.667 -152 -62l-9 11c58.667 52.667 120.667 79 186 79c58 0 101.167 -15.333 129.5 -46s42.5 -77.667 42.5 -141v-256c0 -30.667 2.66699 -51 8 -61s19 -15 41 -15c2 0 8.33301 0.666992 19 2z
M194.001 19c56.667 0 108.334 22.666 155.001 67.999v183c-92 -8.66699 -159.333 -23.667 -202 -45s-64 -54.666 -64 -99.999c0 -33.333 10.167 -59.333 30.5 -78s47.166 -28 80.499 -28zM247.001 605.999l-157 170h85l79 -165z" />
    <glyph glyph-name="aacute" unicode="&#xe1;" horiz-adv-x="489" 
d="M481 21l0.000976562 -6c-24.667 -13.333 -46.667 -20 -66 -20c-40 0 -62 24.333 -66 73c-26 -24 -56.333 -43 -91 -57s-68.334 -21 -101.001 -21c-42 0 -75.667 10.833 -101 32.5s-38 50.834 -38 87.501c0 45.333 20.167 82.166 60.5 110.499s96.5 46.5 168.5 54.5
c36 4 70 7 102 9v59c0 111.333 -44.333 167 -133 167c-52 0 -102.667 -20.667 -152 -62l-9 11c58.667 52.667 120.667 79 186 79c58 0 101.167 -15.333 129.5 -46s42.5 -77.667 42.5 -141v-256c0 -30.667 2.66699 -51 8 -61s19 -15 41 -15c2 0 8.33301 0.666992 19 2z
M194.001 19c56.667 0 108.334 22.666 155.001 67.999v183c-92 -8.66699 -159.333 -23.667 -202 -45s-64 -54.666 -64 -99.999c0 -33.333 10.167 -59.333 30.5 -78s47.166 -28 80.499 -28zM222.001 605.999l-7 5l79 165h85z" />
    <glyph glyph-name="acircumflex" unicode="&#xe2;" horiz-adv-x="489" 
d="M481 21l0.000976562 -6c-24.667 -13.333 -46.667 -20 -66 -20c-40 0 -62 24.333 -66 73c-26 -24 -56.333 -43 -91 -57s-68.334 -21 -101.001 -21c-42 0 -75.667 10.833 -101 32.5s-38 50.834 -38 87.501c0 45.333 20.167 82.166 60.5 110.499s96.5 46.5 168.5 54.5
c36 4 70 7 102 9v59c0 111.333 -44.333 167 -133 167c-52 0 -102.667 -20.667 -152 -62l-9 11c58.667 52.667 120.667 79 186 79c58 0 101.167 -15.333 129.5 -46s42.5 -77.667 42.5 -141v-256c0 -30.667 2.66699 -51 8 -61s19 -15 41 -15c2 0 8.33301 0.666992 19 2z
M194.001 19c56.667 0 108.334 22.666 155.001 67.999v183c-92 -8.66699 -159.333 -23.667 -202 -45s-64 -54.666 -64 -99.999c0 -33.333 10.167 -59.333 30.5 -78s47.166 -28 80.499 -28zM379.001 610.999l-6 -5l-139 105l-139 -105l-6 5l142 165h6z" />
    <glyph glyph-name="atilde" unicode="&#xe3;" horiz-adv-x="489" 
d="M481 21l0.000976562 -6c-24.667 -13.333 -46.667 -20 -66 -20c-40 0 -62 24.333 -66 73c-26 -24 -56.333 -43 -91 -57s-68.334 -21 -101.001 -21c-42 0 -75.667 10.833 -101 32.5s-38 50.834 -38 87.501c0 45.333 20.167 82.166 60.5 110.499s96.5 46.5 168.5 54.5
c36 4 70 7 102 9v59c0 111.333 -44.333 167 -133 167c-52 0 -102.667 -20.667 -152 -62l-9 11c58.667 52.667 120.667 79 186 79c58 0 101.167 -15.333 129.5 -46s42.5 -77.667 42.5 -141v-256c0 -30.667 2.66699 -51 8 -61s19 -15 41 -15c2 0 8.33301 0.666992 19 2z
M194.001 19c56.667 0 108.334 22.666 155.001 67.999v183c-92 -8.66699 -159.333 -23.667 -202 -45s-64 -54.666 -64 -99.999c0 -33.333 10.167 -59.333 30.5 -78s47.166 -28 80.499 -28zM81.001 617.999l-9.99902 2c10.667 64.667 38.667 97 84 97
c23.333 0 55.666 -10 96.999 -30c37.333 -17.333 64 -26 80 -26c26 0 44.667 18.667 56 56l9 -2c-10 -64.667 -37.667 -97 -83 -97c-21.333 0 -53.666 10.333 -96.999 31c-37.333 17.333 -64 26 -80 26c-26.667 0 -45.334 -19 -56.001 -57z" />
    <glyph glyph-name="adieresis" unicode="&#xe4;" horiz-adv-x="489" 
d="M481 21l0.000976562 -6c-24.667 -13.333 -46.667 -20 -66 -20c-40 0 -62 24.333 -66 73c-26 -24 -56.333 -43 -91 -57s-68.334 -21 -101.001 -21c-42 0 -75.667 10.833 -101 32.5s-38 50.834 -38 87.501c0 45.333 20.167 82.166 60.5 110.499s96.5 46.5 168.5 54.5
c36 4 70 7 102 9v59c0 111.333 -44.333 167 -133 167c-52 0 -102.667 -20.667 -152 -62l-9 11c58.667 52.667 120.667 79 186 79c58 0 101.167 -15.333 129.5 -46s42.5 -77.667 42.5 -141v-256c0 -30.667 2.66699 -51 8 -61s19 -15 41 -15c2 0 8.33301 0.666992 19 2z
M194.001 19c56.667 0 108.334 22.666 155.001 67.999v183c-92 -8.66699 -159.333 -23.667 -202 -45s-64 -54.666 -64 -99.999c0 -33.333 10.167 -59.333 30.5 -78s47.166 -28 80.499 -28zM137.001 623.999l-50 49l50 49l48 -49zM314.001 623.999l-49 49l49 49l49 -49z" />
    <glyph glyph-name="aring" unicode="&#xe5;" horiz-adv-x="489" 
d="M481 21l0.000976562 -6c-24.667 -13.333 -46.667 -20 -66 -20c-40 0 -62 24.333 -66 73c-26 -24 -56.333 -43 -91 -57s-68.334 -21 -101.001 -21c-42 0 -75.667 10.833 -101 32.5s-38 50.834 -38 87.501c0 45.333 20.167 82.166 60.5 110.499s96.5 46.5 168.5 54.5
c36 4 70 7 102 9v59c0 111.333 -44.333 167 -133 167c-52 0 -102.667 -20.667 -152 -62l-9 11c58.667 52.667 120.667 79 186 79c58 0 101.167 -15.333 129.5 -46s42.5 -77.667 42.5 -141v-256c0 -30.667 2.66699 -51 8 -61s19 -15 41 -15c2 0 8.33301 0.666992 19 2z
M194.001 19c56.667 0 108.334 22.666 155.001 67.999v183c-92 -8.66699 -159.333 -23.667 -202 -45s-64 -54.666 -64 -99.999c0 -33.333 10.167 -59.333 30.5 -78s47.166 -28 80.499 -28zM133.001 702.999c0 27.333 9.83301 50.166 29.5 68.499s43.5 27.5 71.5 27.5
s51.833 -9.16699 71.5 -27.5s29.5 -41.166 29.5 -68.499c0 -28 -9.83301 -51.167 -29.5 -69.5s-43.5 -27.5 -71.5 -27.5s-51.833 9.16699 -71.5 27.5s-29.5 41.5 -29.5 69.5zM299.001 702.999c0 26 -5.83301 46.5 -17.5 61.5s-27.5 22.5 -47.5 22.5
s-35.833 -7.5 -47.5 -22.5s-17.5 -35.5 -17.5 -61.5s5.66699 -46.667 17 -62s27.333 -23 48 -23s36.667 7.66699 48 23s17 36 17 62z" />
    <glyph glyph-name="ae" unicode="&#xe6;" horiz-adv-x="839" 
d="M793 122l12 -6.99902c-54.667 -84.667 -127.334 -127 -218.001 -127c-42.667 0 -81.5 10 -116.5 30s-62.833 47.667 -83.5 83c-63.333 -74 -139 -111 -227 -111c-42 0 -75.667 10.667 -101 32s-38 50.666 -38 87.999c0 46 20.667 85.667 62 119
c42.667 33.333 98.334 55 167.001 65c32.667 5.33301 67 10.333 103 15v34c0 56 -11 97.833 -33 125.5s-56.333 41.5 -103 41.5c-54 0 -107.667 -20.667 -161 -62l-9 11c64.667 52.667 130.667 79 198 79c84.667 0 137.334 -33.667 158.001 -101
c49.333 67.333 116.666 101 201.999 101c64.667 0 115.5 -21 152.5 -63s55.5 -99.667 55.5 -173h-395c-0.666992 -3.33301 -1 -12 -1 -26c0 -78 18.333 -140 55 -186s83.334 -69 140.001 -69c33.333 0 66.666 9 99.999 27s60.333 42.667 81 74zM419 318.001h327
c0.666992 62.667 -12.5 112.667 -39.5 150s-63.5 56 -109.5 56s-85.667 -19 -119 -57c-32 -37.333 -51.667 -87 -59 -149zM197 19.001c59.333 0 111.335 22.333 156.002 67v209c-92.667 -16 -160.334 -36.833 -203.001 -62.5s-64 -61.5 -64 -107.5
c0 -33.333 10.167 -59.333 30.5 -78s47.166 -28 80.499 -28z" />
    <glyph glyph-name="ccedilla" unicode="&#xe7;" horiz-adv-x="500" 
d="M284 -12l-20.001 -43c30.667 -2 55.334 -10.5 74.001 -25.5s28 -33.167 28 -54.5c0 -24 -10 -43.667 -30 -59s-45 -23 -75 -23c-26 0 -50.667 5 -74 15l3 9c16.667 -6 36.334 -9 59.001 -9c23.333 0 42 5 56 15s21 22.667 21 38c0 14 -7.16699 25.833 -21.5 35.5
s-32.5 14.5 -54.5 14.5h-25l39 87c-68 2 -123.833 28 -167.5 78s-65.5 114.333 -65.5 193c0 80.667 24.167 147.334 72.5 200.001s107.5 79 177.5 79c87.333 0 153.666 -30.667 198.999 -92l-35 -31c-45.333 72.667 -99.333 109 -162 109c-52 0 -95.167 -23.333 -129.5 -70
s-51.5 -107 -51.5 -181c0 -76.667 18 -137.834 54 -183.501s82 -68.5 138 -68.5c33.333 0 66.5 8.83301 99.5 26.5s59.833 42.5 80.5 74.5l12 -7c-52.667 -80 -120 -122.333 -202 -127z" />
    <glyph glyph-name="egrave" unicode="&#xe8;" horiz-adv-x="524" 
d="M497 302h-395.001c-0.666992 -3.33301 -1 -12 -1 -26c0 -78 18.333 -140 55 -186s83.334 -69 140.001 -69c33.333 0 66.666 9 99.999 27s60.333 42.667 81 74l12 -7c-54.667 -84.667 -127 -127 -217 -127c-70 0 -127.667 25 -173 75s-68 114.667 -68 194
c0 83.333 24.333 151 73 203s110.334 78 185.001 78c65.333 0 116.5 -21 153.5 -63s55.167 -99.667 54.5 -173zM102.999 318h328c0 62.667 -13.333 112.667 -40 150s-63 56 -109 56c-46.667 0 -86.667 -19 -120 -57c-32 -36 -51.667 -85.667 -59 -149zM294.999 606l-157 170
h85l79 -165z" />
    <glyph glyph-name="eacute" unicode="&#xe9;" horiz-adv-x="524" 
d="M497 302h-395.001c-0.666992 -3.33301 -1 -12 -1 -26c0 -78 18.333 -140 55 -186s83.334 -69 140.001 -69c33.333 0 66.666 9 99.999 27s60.333 42.667 81 74l12 -7c-54.667 -84.667 -127 -127 -217 -127c-70 0 -127.667 25 -173 75s-68 114.667 -68 194
c0 83.333 24.333 151 73 203s110.334 78 185.001 78c65.333 0 116.5 -21 153.5 -63s55.167 -99.667 54.5 -173zM102.999 318h328c0 62.667 -13.333 112.667 -40 150s-63 56 -109 56c-46.667 0 -86.667 -19 -120 -57c-32 -36 -51.667 -85.667 -59 -149zM269.999 606l-7 5
l79 165h85z" />
    <glyph glyph-name="ecircumflex" unicode="&#xea;" horiz-adv-x="524" 
d="M497 302h-395.001c-0.666992 -3.33301 -1 -12 -1 -26c0 -78 18.333 -140 55 -186s83.334 -69 140.001 -69c33.333 0 66.666 9 99.999 27s60.333 42.667 81 74l12 -7c-54.667 -84.667 -127 -127 -217 -127c-70 0 -127.667 25 -173 75s-68 114.667 -68 194
c0 83.333 24.333 151 73 203s110.334 78 185.001 78c65.333 0 116.5 -21 153.5 -63s55.167 -99.667 54.5 -173zM102.999 318h328c0 62.667 -13.333 112.667 -40 150s-63 56 -109 56c-46.667 0 -86.667 -19 -120 -57c-32 -36 -51.667 -85.667 -59 -149zM426.999 611l-6 -5
l-139 105l-139 -105l-6 5l142 165h6z" />
    <glyph glyph-name="edieresis" unicode="&#xeb;" horiz-adv-x="524" 
d="M497 302h-395.001c-0.666992 -3.33301 -1 -12 -1 -26c0 -78 18.333 -140 55 -186s83.334 -69 140.001 -69c33.333 0 66.666 9 99.999 27s60.333 42.667 81 74l12 -7c-54.667 -84.667 -127 -127 -217 -127c-70 0 -127.667 25 -173 75s-68 114.667 -68 194
c0 83.333 24.333 151 73 203s110.334 78 185.001 78c65.333 0 116.5 -21 153.5 -63s55.167 -99.667 54.5 -173zM102.999 318h328c0 62.667 -13.333 112.667 -40 150s-63 56 -109 56c-46.667 0 -86.667 -19 -120 -57c-32 -36 -51.667 -85.667 -59 -149zM184.999 624l-50 49
l50 49l48 -49zM361.999 624l-49 49l49 49l49 -49z" />
    <glyph glyph-name="igrave" unicode="&#xec;" horiz-adv-x="189" 
d="M63 0v513l59 22h4v-535h-63zM107 606l-157 170h85l79 -165z" />
    <glyph glyph-name="iacute" unicode="&#xed;" horiz-adv-x="189" 
d="M63 0v513l59 22h4v-535h-63zM82 606l-7 5l79 165h85z" />
    <glyph glyph-name="icircumflex" unicode="&#xee;" horiz-adv-x="189" 
d="M63 0v513l59 22h4v-535h-63zM239 611l-6 -5l-139 105l-139 -105l-6 5l142 165h6z" />
    <glyph glyph-name="idieresis" unicode="&#xef;" horiz-adv-x="189" 
d="M63 0v513l59 22h4v-535h-63zM-3 624l-50 49l50 49l48 -49zM174 624l-49 49l49 49l49 -49z" />
    <glyph glyph-name="eth" unicode="&#xf0;" horiz-adv-x="554" 
d="M521 286c0 -86 -23.834 -157.164 -71.501 -213.497s-107.5 -84.5 -179.5 -84.5c-70.667 0 -128 24.167 -172 72.5s-66 111.166 -66 188.499c0 76 22 137.667 66 185s100 71 168 71c56 0 109.333 -21.667 160 -65c-26 79.333 -64.667 145.666 -116 198.999l-142 -63l-7 16
l135 60c-37.333 36.667 -78.666 63 -123.999 79l6 16c57.333 -19.333 108 -46 152 -80l110 49l7 -16l-102 -45c55.333 -46.667 98.5 -102.334 129.5 -167.001s46.5 -132 46.5 -202zM450.999 278.003c0 42.667 -5.66797 86.6689 -17.001 132.002
c-53.333 52 -109.666 78 -168.999 78c-50 0 -89.667 -21.333 -119 -64s-44 -99.334 -44 -170.001c0 -70 16.833 -129 50.5 -177s74.5 -72 122.5 -72c50.667 0 92.667 25.667 126 77s50 116.666 50 195.999z" />
    <glyph glyph-name="ntilde" unicode="&#xf1;" horiz-adv-x="548" 
d="M492 351l-0.000976562 -351h-63v347c0 42 -8 79.333 -24 112c-15.333 33.333 -51 50 -107 50c-61.333 0 -119.666 -26.667 -174.999 -80v-429h-64v513l60 22h4v-86c64 59.333 131.333 89 202 89c111.333 0 167 -62.333 167 -187zM127.999 618l-10 2
c10.667 64.667 38.667 97 84 97c24 0 56.333 -10 97 -30c37.333 -17.333 64 -26 80 -26c26 0 44.667 18.667 56 56l9 -2c-10 -64.667 -37.667 -97 -83 -97c-21.333 0 -53.666 10.333 -96.999 31c-37.333 17.333 -64 26 -80 26c-26.667 0 -45.334 -19 -56.001 -57z" />
    <glyph glyph-name="ograve" unicode="&#xf2;" horiz-adv-x="578" 
d="M31 260c0 82 24.832 148.833 74.499 200.5s112.167 77.5 187.5 77.5c74.667 0 135.5 -24.667 182.5 -74s70.5 -115.333 70.5 -198c0 -82 -24.667 -148.833 -74 -200.5s-111.666 -77.5 -186.999 -77.5c-74.667 0 -135.667 24.667 -183 74s-71 115.333 -71 198z
M475.999 260c0 78 -17.833 141.5 -53.5 190.5s-80.834 73.5 -135.501 73.5c-54 0 -98.5 -23.833 -133.5 -71.5s-52.5 -109.834 -52.5 -186.501c0 -78 17.833 -141.5 53.5 -190.5s80.834 -73.5 135.501 -73.5c54 0 98.5 23.833 133.5 71.5s52.5 109.834 52.5 186.501z
M301.999 606l-157 170h85l79 -165z" />
    <glyph glyph-name="oacute" unicode="&#xf3;" horiz-adv-x="578" 
d="M31 260c0 82 24.832 148.833 74.499 200.5s112.167 77.5 187.5 77.5c74.667 0 135.5 -24.667 182.5 -74s70.5 -115.333 70.5 -198c0 -82 -24.667 -148.833 -74 -200.5s-111.666 -77.5 -186.999 -77.5c-74.667 0 -135.667 24.667 -183 74s-71 115.333 -71 198z
M475.999 260c0 78 -17.833 141.5 -53.5 190.5s-80.834 73.5 -135.501 73.5c-54 0 -98.5 -23.833 -133.5 -71.5s-52.5 -109.834 -52.5 -186.501c0 -78 17.833 -141.5 53.5 -190.5s80.834 -73.5 135.501 -73.5c54 0 98.5 23.833 133.5 71.5s52.5 109.834 52.5 186.501z
M276.999 606l-7 5l79 165h85z" />
    <glyph glyph-name="ocircumflex" unicode="&#xf4;" horiz-adv-x="578" 
d="M31 260c0 82 24.832 148.833 74.499 200.5s112.167 77.5 187.5 77.5c74.667 0 135.5 -24.667 182.5 -74s70.5 -115.333 70.5 -198c0 -82 -24.667 -148.833 -74 -200.5s-111.666 -77.5 -186.999 -77.5c-74.667 0 -135.667 24.667 -183 74s-71 115.333 -71 198z
M475.999 260c0 78 -17.833 141.5 -53.5 190.5s-80.834 73.5 -135.501 73.5c-54 0 -98.5 -23.833 -133.5 -71.5s-52.5 -109.834 -52.5 -186.501c0 -78 17.833 -141.5 53.5 -190.5s80.834 -73.5 135.501 -73.5c54 0 98.5 23.833 133.5 71.5s52.5 109.834 52.5 186.501z
M433.999 611l-6 -5l-139 105l-139 -105l-6 5l142 165h6z" />
    <glyph glyph-name="otilde" unicode="&#xf5;" horiz-adv-x="578" 
d="M31 260c0 82 24.832 148.833 74.499 200.5s112.167 77.5 187.5 77.5c74.667 0 135.5 -24.667 182.5 -74s70.5 -115.333 70.5 -198c0 -82 -24.667 -148.833 -74 -200.5s-111.666 -77.5 -186.999 -77.5c-74.667 0 -135.667 24.667 -183 74s-71 115.333 -71 198z
M475.999 260c0 78 -17.833 141.5 -53.5 190.5s-80.834 73.5 -135.501 73.5c-54 0 -98.5 -23.833 -133.5 -71.5s-52.5 -109.834 -52.5 -186.501c0 -78 17.833 -141.5 53.5 -190.5s80.834 -73.5 135.501 -73.5c54 0 98.5 23.833 133.5 71.5s52.5 109.834 52.5 186.501z
M135.999 618l-10 2c10.667 64.667 38.667 97 84 97c24 0 56.333 -10 97 -30c37.333 -17.333 64 -26 80 -26c26 0 44.667 18.667 56 56l9 -2c-10 -64.667 -37.667 -97 -83 -97c-21.333 0 -53.666 10.333 -96.999 31c-37.333 17.333 -64 26 -80 26
c-26.667 0 -45.334 -19 -56.001 -57z" />
    <glyph glyph-name="odieresis" unicode="&#xf6;" horiz-adv-x="578" 
d="M31 260c0 82 24.832 148.833 74.499 200.5s112.167 77.5 187.5 77.5c74.667 0 135.5 -24.667 182.5 -74s70.5 -115.333 70.5 -198c0 -82 -24.667 -148.833 -74 -200.5s-111.666 -77.5 -186.999 -77.5c-74.667 0 -135.667 24.667 -183 74s-71 115.333 -71 198z
M475.999 260c0 78 -17.833 141.5 -53.5 190.5s-80.834 73.5 -135.501 73.5c-54 0 -98.5 -23.833 -133.5 -71.5s-52.5 -109.834 -52.5 -186.501c0 -78 17.833 -141.5 53.5 -190.5s80.834 -73.5 135.501 -73.5c54 0 98.5 23.833 133.5 71.5s52.5 109.834 52.5 186.501z
M191.999 624l-50 49l50 49l48 -49zM368.999 624l-49 49l49 49l49 -49z" />
    <glyph glyph-name="divide" unicode="&#xf7;" horiz-adv-x="508" 
d="M254 506l-41 41l41 41l41 -41zM50 354v20h408v-20h-408zM254 140l-41 41l41 41l41 -41z" />
    <glyph glyph-name="oslash" unicode="&#xf8;" horiz-adv-x="578" 
d="M546 266c0 -82 -24.668 -148.833 -74.001 -200.5s-111.666 -77.5 -186.999 -77.5c-54 0 -101.333 13.333 -142 40l-53 -79l-15 10l53 79c-64.667 50.667 -97 124.667 -97 222c0 82 24.833 148.833 74.5 200.5s112.167 77.5 187.5 77.5c54 0 101.333 -13.333 142 -40
l52 79l15 -10l-53 -79c64.667 -50 97 -124 97 -222zM152.999 77l259 387.001c-34 40 -75.667 60 -125 60c-54 0 -98.5 -23.833 -133.5 -71.5s-52.5 -109.834 -52.5 -186.501s17.333 -139.667 52 -189zM475.999 260.001c0 76.667 -17.333 139.666 -52 188.999l-259 -387
c34 -40 75.667 -60 125 -60c54 0 98.5 23.833 133.5 71.5s52.5 109.834 52.5 186.501z" />
    <glyph glyph-name="ugrave" unicode="&#xf9;" horiz-adv-x="547" 
d="M485 89l22 -75l-59 -22l-26 86v4c-60.667 -62.667 -127.334 -94 -200.001 -94c-111.333 0 -167 62.333 -167 187v338l59 22h4v-356c0 -40.667 7.66699 -78 23 -112c16 -33.333 52 -50 108 -50c28.667 0 58.834 8 90.501 24s59.167 37.667 82.5 65v407l59 22h4v-446z
M284 606l-157 170h85l79 -165z" />
    <glyph glyph-name="uacute" unicode="&#xfa;" horiz-adv-x="547" 
d="M485 89l22 -75l-59 -22l-26 86v4c-60.667 -62.667 -127.334 -94 -200.001 -94c-111.333 0 -167 62.333 -167 187v338l59 22h4v-356c0 -40.667 7.66699 -78 23 -112c16 -33.333 52 -50 108 -50c28.667 0 58.834 8 90.501 24s59.167 37.667 82.5 65v407l59 22h4v-446z
M259 606l-7 5l79 165h85z" />
    <glyph glyph-name="ucircumflex" unicode="&#xfb;" horiz-adv-x="547" 
d="M485 89l22 -75l-59 -22l-26 86v4c-60.667 -62.667 -127.334 -94 -200.001 -94c-111.333 0 -167 62.333 -167 187v338l59 22h4v-356c0 -40.667 7.66699 -78 23 -112c16 -33.333 52 -50 108 -50c28.667 0 58.834 8 90.501 24s59.167 37.667 82.5 65v407l59 22h4v-446z
M416 611l-6 -5l-139 105l-139 -105l-6 5l142 165h6z" />
    <glyph glyph-name="udieresis" unicode="&#xfc;" horiz-adv-x="547" 
d="M485 89l22 -75l-59 -22l-26 86v4c-60.667 -62.667 -127.334 -94 -200.001 -94c-111.333 0 -167 62.333 -167 187v338l59 22h4v-356c0 -40.667 7.66699 -78 23 -112c16 -33.333 52 -50 108 -50c28.667 0 58.834 8 90.501 24s59.167 37.667 82.5 65v407l59 22h4v-446z
M173 624l-50 49l50 49l48 -49zM350 624l-49 49l49 49l49 -49z" />
    <glyph glyph-name="yacute" unicode="&#xfd;" horiz-adv-x="472" 
d="M419 526l48 -0.000976562c-18 -39.333 -36 -81.666 -54 -126.999l-41 -99l-27 -68l-129 -317c-40.667 -99.333 -110 -149 -208 -149l4 48c12 -3.33301 26 -5 42 -5c29.333 0 57 9.16699 83 27.5s46 44.833 60 79.5l34 86l-227 524h68l192 -442l64 155
c52.667 129.333 83 225 91 287zM227 605.999l-7 5l79 165h85z" />
    <glyph glyph-name="thorn" unicode="&#xfe;" horiz-adv-x="562" 
d="M531 271c1.33301 -81.333 -23 -149.168 -73 -203.501s-109.667 -80.833 -179 -79.5c-60.667 0 -112.667 20.667 -156 62v-278h-64v1015l60 23h4v-355c54 55.333 114.667 83 182 83c64.667 0 118.5 -25.167 161.5 -75.5s64.5 -114.166 64.5 -191.499zM461 261.998
c0 75.333 -16.5 135.665 -49.5 180.998s-74.833 68 -125.5 68c-28 0 -56.5 -7.16699 -85.5 -21.5s-54.833 -34.166 -77.5 -59.499v-325c15.333 -31.333 36.5 -56 63.5 -74s56.833 -27 89.5 -27c53.333 0 97.5 23.833 132.5 71.5s52.5 109.834 52.5 186.501z" />
    <glyph glyph-name="ydieresis" unicode="&#xff;" horiz-adv-x="472" 
d="M419 526l48 -0.000976562c-18 -39.333 -36 -81.666 -54 -126.999l-41 -99l-27 -68l-129 -317c-40.667 -99.333 -110 -149 -208 -149l4 48c12 -3.33301 26 -5 42 -5c29.333 0 57 9.16699 83 27.5s46 44.833 60 79.5l34 86l-227 524h68l192 -442l64 155
c52.667 129.333 83 225 91 287zM142 623.999l-50 49l50 49l48 -49zM319 623.999l-49 49l49 49l49 -49z" />
    <glyph glyph-name="Amacron" unicode="&#x100;" horiz-adv-x="599" 
d="M520 0l-93.999 241h-303c-20.667 -53.333 -36 -99 -46 -137c-10.667 -38 -18.334 -72.667 -23.001 -104h-53l111 270l19 48l167 423h4l292 -741h-74zM130.001 259h289l-145 369l-124 -317zM146.001 821v26h309v-26h-309z" />
    <glyph glyph-name="amacron" unicode="&#x101;" horiz-adv-x="489" 
d="M481 21l0.000976562 -6c-24.667 -13.333 -46.667 -20 -66 -20c-40 0 -62 24.333 -66 73c-26 -24 -56.333 -43 -91 -57s-68.334 -21 -101.001 -21c-42 0 -75.667 10.833 -101 32.5s-38 50.834 -38 87.501c0 45.333 20.167 82.166 60.5 110.499s96.5 46.5 168.5 54.5
c36 4 70 7 102 9v59c0 111.333 -44.333 167 -133 167c-52 0 -102.667 -20.667 -152 -62l-9 11c58.667 52.667 120.667 79 186 79c58 0 101.167 -15.333 129.5 -46s42.5 -77.667 42.5 -141v-256c0 -30.667 2.66699 -51 8 -61s19 -15 41 -15c2 0 8.33301 0.666992 19 2z
M194.001 19c56.667 0 108.334 22.666 155.001 67.999v183c-92 -8.66699 -159.333 -23.667 -202 -45s-64 -54.666 -64 -99.999c0 -33.333 10.167 -59.333 30.5 -78s47.166 -28 80.499 -28zM104.001 653.999v25h261v-25h-261z" />
    <glyph glyph-name="Abreve" unicode="&#x102;" horiz-adv-x="599" 
d="M520 0l-93.999 241h-303c-20.667 -53.333 -36 -99 -46 -137c-10.667 -38 -18.334 -72.667 -23.001 -104h-53l111 270l19 48l167 423h4l292 -741h-74zM130.001 259h289l-145 369l-124 -317zM143.001 952l9 2.99902c12 -28.667 31.333 -52.167 58 -70.5
s56.667 -27.5 90 -27.5c34 0 64.333 9.16699 91 27.5s46 41.833 58 70.5l9 -3c-11.333 -41.333 -30.5 -74.666 -57.5 -99.999s-60.5 -38 -100.5 -38s-73.333 12.5 -100 37.5s-45.667 58.5 -57 100.5z" />
    <glyph glyph-name="abreve" unicode="&#x103;" horiz-adv-x="489" 
d="M481 21l0.000976562 -6c-24.667 -13.333 -46.667 -20 -66 -20c-40 0 -62 24.333 -66 73c-26 -24 -56.333 -43 -91 -57s-68.334 -21 -101.001 -21c-42 0 -75.667 10.833 -101 32.5s-38 50.834 -38 87.501c0 45.333 20.167 82.166 60.5 110.499s96.5 46.5 168.5 54.5
c36 4 70 7 102 9v59c0 111.333 -44.333 167 -133 167c-52 0 -102.667 -20.667 -152 -62l-9 11c58.667 52.667 120.667 79 186 79c58 0 101.167 -15.333 129.5 -46s42.5 -77.667 42.5 -141v-256c0 -30.667 2.66699 -51 8 -61s19 -15 41 -15c2 0 8.33301 0.666992 19 2z
M194.001 19c56.667 0 108.334 22.666 155.001 67.999v183c-92 -8.66699 -159.333 -23.667 -202 -45s-64 -54.666 -64 -99.999c0 -33.333 10.167 -59.333 30.5 -78s47.166 -28 80.499 -28zM86.001 756.999l9.00098 3c12 -30.667 30 -54.834 54 -72.501s52.333 -26.5 85 -26.5
c33.333 0 62 8.83301 86 26.5s42 41.834 54 72.501l9 -3c-24.667 -92.667 -74.334 -139 -149.001 -139c-74 0 -123.333 46.333 -148 139z" />
    <glyph glyph-name="Aogonek" unicode="&#x104;" horiz-adv-x="599" 
d="M620 -176l3.00098 -5.00098c-33.333 -24 -66.666 -36 -99.999 -36c-22.667 0 -41.334 6.5 -56.001 19.5s-22 30.167 -22 51.5c0 22.667 8.5 44.834 25.5 66.501s44.833 48.167 83.5 79.5h-34l-94 241h-303c-20.667 -53.333 -36 -99 -46 -137
c-10.667 -38 -18.334 -72.667 -23.001 -104h-53l111 270l19 48l167 423h4l292 -741h-25c-45.333 -48 -68 -91.333 -68 -130c0 -18 5.5 -32.5 16.5 -43.5s24.833 -16.5 41.5 -16.5c14.667 0 35 4.66699 61 14zM130.001 258.999h289l-145 369l-124 -317z" />
    <glyph glyph-name="aogonek" unicode="&#x105;" horiz-adv-x="489" 
d="M483 -176l3.00098 -5c-33.333 -24 -66.666 -36 -99.999 -36c-22.667 0 -41.334 6.5 -56.001 19.5s-22 30.167 -22 51.5c0 22.667 8.16699 44.5 24.5 65.5s42.5 46.167 78.5 75.5c-38 1.33301 -58.667 25.666 -62 72.999c-26 -24 -56.333 -43 -91 -57
s-68.334 -21 -101.001 -21c-42 0 -75.667 10.833 -101 32.5s-38 50.834 -38 87.501c0 45.333 20.167 82.166 60.5 110.499s96.5 46.5 168.5 54.5c36 4 70 7 102 9v59c0 111.333 -44.333 167 -133 167c-52 0 -102.667 -20.667 -152 -62l-9 11
c58.667 52.667 120.667 79 186 79c58 0 101.167 -15.333 129.5 -46s42.5 -77.667 42.5 -141v-256c0 -30.667 2.66699 -51 8 -61s19 -15 41 -15c2 0 8.33301 0.666992 19 2v-6c-18 -9.33301 -35.667 -15.666 -53 -18.999c-42.667 -46.667 -64 -88.667 -64 -126
c0 -18 5.5 -32.5 16.5 -43.5s24.833 -16.5 41.5 -16.5c14.667 0 35 4.66699 61 14zM194.001 19c56.667 0 108.334 22.666 155.001 67.999v183c-92 -8.66699 -159.333 -23.667 -202 -45s-64 -54.666 -64 -99.999c0 -33.333 10.167 -59.333 30.5 -78s47.166 -28 80.499 -28z
" />
    <glyph glyph-name="Cacute" unicode="&#x106;" horiz-adv-x="704" 
d="M40 359c-2 110.667 32.666 202.166 103.999 274.499s159 107.833 263 106.5c57.333 0 109.666 -10.333 156.999 -31s86.333 -49.667 117 -87l-39 -35c-62 91.333 -142 137 -240 137c-81.333 1.33301 -149.5 -31.167 -204.5 -97.5s-82.167 -149.166 -81.5 -248.499
c-1.33301 -104 27.334 -189.5 86.001 -256.5s131 -99.833 217 -98.5c110.667 0 197.334 48.667 260.001 146l12 -7c-72 -116 -172.667 -174 -302 -174c-101.333 0 -184.833 34.167 -250.5 102.5s-98.5 157.833 -98.5 268.5zM387.999 801.999l-7 5l77 155h98z" />
    <glyph glyph-name="cacute" unicode="&#x107;" horiz-adv-x="500" 
d="M31 259c0 80.667 24.167 147.334 72.5 200.001s107.5 79 177.5 79c87.333 0 153.666 -30.667 198.999 -92l-35 -31c-45.333 72.667 -99.333 109 -162 109c-52 0 -95.167 -23.333 -129.5 -70s-51.5 -107 -51.5 -181c0 -76.667 18 -137.834 54 -183.501s82 -68.5 138 -68.5
c33.333 0 66.5 8.83301 99.5 26.5s59.833 42.5 80.5 74.5l12 -7c-55.333 -84.667 -127 -127 -215 -127c-69.333 0 -126.666 25.167 -171.999 75.5s-68 115.5 -68 195.5zM265 606l-7 5l79 165h85z" />
    <glyph glyph-name="Ccircumflex" unicode="&#x108;" horiz-adv-x="704" 
d="M40 359c-2 110.667 32.666 202.166 103.999 274.499s159 107.833 263 106.5c57.333 0 109.666 -10.333 156.999 -31s86.333 -49.667 117 -87l-39 -35c-62 91.333 -142 137 -240 137c-81.333 1.33301 -149.5 -31.167 -204.5 -97.5s-82.167 -149.166 -81.5 -248.499
c-1.33301 -104 27.334 -189.5 86.001 -256.5s131 -99.833 217 -98.5c110.667 0 197.334 48.667 260.001 146l12 -7c-72 -116 -172.667 -174 -302 -174c-101.333 0 -184.833 34.167 -250.5 102.5s-98.5 157.833 -98.5 268.5zM563.999 806.999l-6 -5l-157 97l-157 -97l-6 5
l160 155h6z" />
    <glyph glyph-name="ccircumflex" unicode="&#x109;" horiz-adv-x="500" 
d="M31 259c0 80.667 24.167 147.334 72.5 200.001s107.5 79 177.5 79c87.333 0 153.666 -30.667 198.999 -92l-35 -31c-45.333 72.667 -99.333 109 -162 109c-52 0 -95.167 -23.333 -129.5 -70s-51.5 -107 -51.5 -181c0 -76.667 18 -137.834 54 -183.501s82 -68.5 138 -68.5
c33.333 0 66.5 8.83301 99.5 26.5s59.833 42.5 80.5 74.5l12 -7c-55.333 -84.667 -127 -127 -215 -127c-69.333 0 -126.666 25.167 -171.999 75.5s-68 115.5 -68 195.5zM422 611l-6 -5l-139 105l-139 -105l-6 5l142 165h6z" />
    <glyph glyph-name="Cdotaccent" unicode="&#x10a;" horiz-adv-x="704" 
d="M40 359c-2 110.667 32.666 202.166 103.999 274.499s159 107.833 263 106.5c57.333 0 109.666 -10.333 156.999 -31s86.333 -49.667 117 -87l-39 -35c-62 91.333 -142 137 -240 137c-81.333 1.33301 -149.5 -31.167 -204.5 -97.5s-82.167 -149.166 -81.5 -248.499
c-1.33301 -104 27.334 -189.5 86.001 -256.5s131 -99.833 217 -98.5c110.667 0 197.334 48.667 260.001 146l12 -7c-72 -116 -172.667 -174 -302 -174c-101.333 0 -184.833 34.167 -250.5 102.5s-98.5 157.833 -98.5 268.5zM400.999 819.999l-57 56l57 57l57 -57z" />
    <glyph glyph-name="cdotaccent" unicode="&#x10b;" horiz-adv-x="500" 
d="M31 259c0 80.667 24.167 147.334 72.5 200.001s107.5 79 177.5 79c87.333 0 153.666 -30.667 198.999 -92l-35 -31c-45.333 72.667 -99.333 109 -162 109c-52 0 -95.167 -23.333 -129.5 -70s-51.5 -107 -51.5 -181c0 -76.667 18 -137.834 54 -183.501s82 -68.5 138 -68.5
c33.333 0 66.5 8.83301 99.5 26.5s59.833 42.5 80.5 74.5l12 -7c-55.333 -84.667 -127 -127 -215 -127c-69.333 0 -126.666 25.167 -171.999 75.5s-68 115.5 -68 195.5zM277 624l-53 53l53 53l53 -53z" />
    <glyph glyph-name="Ccaron" unicode="&#x10c;" horiz-adv-x="704" 
d="M40 359c-2 110.667 32.666 202.166 103.999 274.499s159 107.833 263 106.5c57.333 0 109.666 -10.333 156.999 -31s86.333 -49.667 117 -87l-39 -35c-62 91.333 -142 137 -240 137c-81.333 1.33301 -149.5 -31.167 -204.5 -97.5s-82.167 -149.166 -81.5 -248.499
c-1.33301 -104 27.334 -189.5 86.001 -256.5s131 -99.833 217 -98.5c110.667 0 197.334 48.667 260.001 146l12 -7c-72 -116 -172.667 -174 -302 -174c-101.333 0 -184.833 34.167 -250.5 102.5s-98.5 157.833 -98.5 268.5zM557.999 961.999l6 -5l-160 -155h-6l-160 155l6 5
l157 -97z" />
    <glyph glyph-name="ccaron" unicode="&#x10d;" horiz-adv-x="500" 
d="M31 259c0 80.667 24.167 147.334 72.5 200.001s107.5 79 177.5 79c87.333 0 153.666 -30.667 198.999 -92l-35 -31c-45.333 72.667 -99.333 109 -162 109c-52 0 -95.167 -23.333 -129.5 -70s-51.5 -107 -51.5 -181c0 -76.667 18 -137.834 54 -183.501s82 -68.5 138 -68.5
c33.333 0 66.5 8.83301 99.5 26.5s59.833 42.5 80.5 74.5l12 -7c-55.333 -84.667 -127 -127 -215 -127c-69.333 0 -126.666 25.167 -171.999 75.5s-68 115.5 -68 195.5zM416 776l6 -5l-142 -165h-6l-142 165l6 5l139 -104z" />
    <glyph glyph-name="Dcaron" unicode="&#x10e;" horiz-adv-x="732" 
d="M691 373c0 -116 -34.332 -207.167 -102.999 -273.5s-161.334 -99.5 -278.001 -99.5h-235v728h245c114 0 204.333 -31.167 271 -93.5s100 -149.5 100 -261.5zM615.001 367c0 102.667 -28 185.834 -84 249.501s-129.667 95.5 -221 95.5h-167v-687
c28.667 -6 87.667 -9 177 -9c92.667 0 165 30.667 217 92s78 147.666 78 258.999zM451.001 962l6 -5l-160 -155h-6l-160 155l6 5l157 -97z" />
    <glyph glyph-name="dcaron" unicode="&#x10f;" horiz-adv-x="588" 
d="M525 14l-59 -21.998l-26 81c-52.667 -56.667 -113.667 -85 -183 -85c-64.667 0 -118.5 25.167 -161.5 75.5s-64.5 114.166 -64.5 191.499c-1.33301 81.333 23 149.166 73 203.499s109.667 80.833 179 79.5c60.667 0 112.667 -20.667 156 -62v311l60 23h4v-721z
M439 96.002l-0.000976562 326.001c-15.333 30.667 -36.666 55 -63.999 73s-57 27 -89 27c-53.333 0 -97.5 -23.833 -132.5 -71.5s-52.5 -109.834 -52.5 -186.501c0 -75.333 16.5 -135.666 49.5 -180.999s74.833 -68 125.5 -68c28 0 56.5 7.16699 85.5 21.5
s54.833 34.166 77.5 59.499zM572.999 631.003l-4 5c29.333 19.333 44 41.666 44 66.999c0 28.667 -17.667 53.667 -53 75l37 37c36 -17.333 54 -43.666 54 -78.999c0 -20 -7 -39.5 -21 -58.5s-33 -34.5 -57 -46.5z" />
    <glyph glyph-name="Dcroat" unicode="&#x110;" horiz-adv-x="737" 
d="M696 373c0 -116 -34.332 -207.167 -102.999 -273.5s-161.334 -99.5 -278.001 -99.5h-235v371h-62v14h62v343h245c114 0 204.333 -31.167 271 -93.5s100 -149.5 100 -261.5zM620.001 367c0 102.667 -28 185.834 -84 249.501s-129.667 95.5 -221 95.5h-167v-327h207v-14
h-207v-346c29.333 -6 88.333 -9 177 -9c92.667 0 165 30.667 217 92s78 147.666 78 258.999z" />
    <glyph glyph-name="dslash" unicode="&#x111;" horiz-adv-x="564" 
d="M565 662l-62 0.00195312v-573l22 -75l-59 -22l-26 81c-52.667 -56.667 -113.667 -85 -183 -85c-64.667 0 -118.5 25.167 -161.5 75.5s-64.5 114.166 -64.5 191.499c-1.33301 81.333 23 149.166 73 203.499s109.667 80.833 179 79.5c60.667 0 112.667 -20.667 156 -62v186
h-162v14h162v111l60 23h4v-134h62v-14zM439 96.002l-0.000976562 326.001c-15.333 30.667 -36.666 55 -63.999 73s-57 27 -89 27c-53.333 0 -97.5 -23.833 -132.5 -71.5s-52.5 -109.834 -52.5 -186.501c0 -75.333 16.5 -135.666 49.5 -180.999s74.833 -68 125.5 -68
c28 0 56.5 7.16699 85.5 21.5s54.833 34.166 77.5 59.499z" />
    <glyph glyph-name="Emacron" unicode="&#x112;" horiz-adv-x="523" 
d="M505 48h2l-17 -48h-415v728h401l12 -46h-2c-94 18.667 -187 28 -279 28h-64v-322h58c102 0 173 3.66699 213 11h2v-42h-2c-43.333 8.66699 -114.333 13 -213 13h-58v-352h65c108 0 207 10 297 30zM120 821v26h309v-26h-309z" />
    <glyph glyph-name="emacron" unicode="&#x113;" horiz-adv-x="524" 
d="M497 302h-395.001c-0.666992 -3.33301 -1 -12 -1 -26c0 -78 18.333 -140 55 -186s83.334 -69 140.001 -69c33.333 0 66.666 9 99.999 27s60.333 42.667 81 74l12 -7c-54.667 -84.667 -127 -127 -217 -127c-70 0 -127.667 25 -173 75s-68 114.667 -68 194
c0 83.333 24.333 151 73 203s110.334 78 185.001 78c65.333 0 116.5 -21 153.5 -63s55.167 -99.667 54.5 -173zM102.999 318h328c0 62.667 -13.333 112.667 -40 150s-63 56 -109 56c-46.667 0 -86.667 -19 -120 -57c-32 -36 -51.667 -85.667 -59 -149zM151.999 654v25h261
v-25h-261z" />
    <glyph glyph-name="Ebreve" unicode="&#x114;" horiz-adv-x="523" 
d="M505 48h2l-17 -48h-415v728h401l12 -46h-2c-94 18.667 -187 28 -279 28h-64v-322h58c102 0 173 3.66699 213 11h2v-42h-2c-43.333 8.66699 -114.333 13 -213 13h-58v-352h65c108 0 207 10 297 30zM117 952l9 2.99902c12 -28.667 31.333 -52.167 58 -70.5
s56.667 -27.5 90 -27.5c34 0 64.333 9.16699 91 27.5s46 41.833 58 70.5l9 -3c-11.333 -41.333 -30.5 -74.666 -57.5 -99.999s-60.5 -38 -100.5 -38s-73.333 12.5 -100 37.5s-45.667 58.5 -57 100.5z" />
    <glyph glyph-name="ebreve" unicode="&#x115;" horiz-adv-x="524" 
d="M497 302h-395.001c-0.666992 -3.33301 -1 -12 -1 -26c0 -78 18.333 -140 55 -186s83.334 -69 140.001 -69c33.333 0 66.666 9 99.999 27s60.333 42.667 81 74l12 -7c-54.667 -84.667 -127 -127 -217 -127c-70 0 -127.667 25 -173 75s-68 114.667 -68 194
c0 83.333 24.333 151 73 203s110.334 78 185.001 78c65.333 0 116.5 -21 153.5 -63s55.167 -99.667 54.5 -173zM102.999 318h328c0 62.667 -13.333 112.667 -40 150s-63 56 -109 56c-46.667 0 -86.667 -19 -120 -57c-32 -36 -51.667 -85.667 -59 -149zM133.999 757
l9.00098 3c12 -30.667 30 -54.834 54 -72.501s52.333 -26.5 85 -26.5c33.333 0 62 8.83301 86 26.5s42 41.834 54 72.501l9 -3c-24.667 -92.667 -74.334 -139 -149.001 -139c-74 0 -123.333 46.333 -148 139z" />
    <glyph glyph-name="Edotaccent" unicode="&#x116;" horiz-adv-x="523" 
d="M505 48h2l-17 -48h-415v728h401l12 -46h-2c-94 18.667 -187 28 -279 28h-64v-322h58c102 0 173 3.66699 213 11h2v-42h-2c-43.333 8.66699 -114.333 13 -213 13h-58v-352h65c108 0 207 10 297 30zM274 820l-57 56l57 57l57 -57z" />
    <glyph glyph-name="edotaccent" unicode="&#x117;" horiz-adv-x="524" 
d="M497 302h-395.001c-0.666992 -3.33301 -1 -12 -1 -26c0 -78 18.333 -140 55 -186s83.334 -69 140.001 -69c33.333 0 66.666 9 99.999 27s60.333 42.667 81 74l12 -7c-54.667 -84.667 -127 -127 -217 -127c-70 0 -127.667 25 -173 75s-68 114.667 -68 194
c0 83.333 24.333 151 73 203s110.334 78 185.001 78c65.333 0 116.5 -21 153.5 -63s55.167 -99.667 54.5 -173zM102.999 318h328c0 62.667 -13.333 112.667 -40 150s-63 56 -109 56c-46.667 0 -86.667 -19 -120 -57c-32 -36 -51.667 -85.667 -59 -149zM281.999 624l-53 53
l53 53l53 -53z" />
    <glyph glyph-name="Eogonek" unicode="&#x118;" horiz-adv-x="523" 
d="M502 -176l3 -5.00098c-33.333 -24 -66.666 -36 -99.999 -36c-22.667 0 -41.334 6.5 -56.001 19.5s-22 30.167 -22 51.5c0 22.667 8.5 44.834 25.5 66.501s44.833 48.167 83.5 79.5h-361v728h401l12 -46h-2c-94 18.667 -187 28 -279 28h-64v-322h58
c102 0 173 3.66699 213 11h2v-42h-2c-43.333 8.66699 -114.333 13 -213 13h-58v-352h65c108 0 207 10 297 30h2l-17 -48h-39c-46 -48.667 -69 -92 -69 -130c0 -18 5.5 -32.5 16.5 -43.5s24.833 -16.5 41.5 -16.5c15.333 0 36 4.66699 62 14z" />
    <glyph glyph-name="eogonek" unicode="&#x119;" horiz-adv-x="524" 
d="M497 302l-395 -0.00195312c-0.666992 -3.33301 -1 -12 -1 -26c0 -78 18.333 -140 55 -186s83.334 -69 140.001 -69c33.333 0 66.666 9 99.999 27s60.333 42.667 81 74l12 -7c-10 -16 -19.833 -29.167 -29.5 -39.5s-25.834 -25.5 -48.501 -45.5
c-66 -59.333 -99 -112.666 -99 -159.999c0 -18 5.5 -32.5 16.5 -43.5s24.833 -16.5 41.5 -16.5c16 0 36.333 4.66699 61 14l3 -5c-33.333 -24 -66.333 -36 -99 -36c-22.667 0 -41.334 6.5 -56.001 19.5s-22 30.167 -22 51.5c0 23.333 9.33301 46.833 28 70.5
s49.334 52.834 92.001 87.501c-36.667 -16 -71.667 -24 -105 -24c-70 0 -127.667 25 -173 75s-68 114.667 -68 194c0 83.333 24.333 151 73 203s110.334 78 185.001 78c65.333 0 116.5 -21 153.5 -63s55.167 -99.667 54.5 -173zM103 317.998h328
c0 62.667 -13.333 112.667 -40 150s-63 56 -109 56c-46.667 0 -86.667 -19 -120 -57c-32 -36 -51.667 -85.667 -59 -149z" />
    <glyph glyph-name="Ecaron" unicode="&#x11a;" horiz-adv-x="523" 
d="M505 48h2l-17 -48h-415v728h401l12 -46h-2c-94 18.667 -187 28 -279 28h-64v-322h58c102 0 173 3.66699 213 11h2v-42h-2c-43.333 8.66699 -114.333 13 -213 13h-58v-352h65c108 0 207 10 297 30zM431 962l6 -5l-160 -155h-6l-160 155l6 5l157 -97z" />
    <glyph glyph-name="ecaron" unicode="&#x11b;" horiz-adv-x="524" 
d="M497 302h-395.001c-0.666992 -3.33301 -1 -12 -1 -26c0 -78 18.333 -140 55 -186s83.334 -69 140.001 -69c33.333 0 66.666 9 99.999 27s60.333 42.667 81 74l12 -7c-54.667 -84.667 -127 -127 -217 -127c-70 0 -127.667 25 -173 75s-68 114.667 -68 194
c0 83.333 24.333 151 73 203s110.334 78 185.001 78c65.333 0 116.5 -21 153.5 -63s55.167 -99.667 54.5 -173zM102.999 318h328c0 62.667 -13.333 112.667 -40 150s-63 56 -109 56c-46.667 0 -86.667 -19 -120 -57c-32 -36 -51.667 -85.667 -59 -149zM420.999 776l6 -5
l-142 -165h-6l-142 165l6 5l139 -104z" />
    <glyph glyph-name="Gcircumflex" unicode="&#x11c;" horiz-adv-x="745" 
d="M443 330h258.999v-246c-82.667 -64 -177.667 -96 -285 -96c-112.667 0 -203.667 33.667 -273 101s-104 157.333 -104 270c-1.33301 111.333 34.167 203 106.5 275s161.833 107.333 268.5 106c55.333 0 106.833 -10.5 154.5 -31.5s86.5 -49.833 116.5 -86.5l-40 -35
c-61.333 91.333 -141.666 137 -240.999 137c-84.667 0 -154 -32.833 -208 -98.5s-81 -152.167 -81 -259.5c-1.33301 -104.667 27 -191.167 85 -259.5s132 -101.833 222 -100.5c84.667 0 155.667 25.333 213 76v230h-182zM567.999 807l-6 -5l-157 97l-157 -97l-6 5l160 155h6
z" />
    <glyph glyph-name="gcircumflex" unicode="&#x11d;" horiz-adv-x="500" 
d="M488 -55c0 -50.667 -25.332 -94.1631 -75.999 -130.496s-113 -54.5 -187 -54.5c-64 0 -116.167 13.833 -156.5 41.5s-60.5 63.5 -60.5 107.5c0 24.667 6.33301 49.667 19 75l41 12h4c-11.333 -30.667 -17 -57.334 -17 -80.001c0 -42.667 15.167 -76.667 45.5 -102
s71.833 -38 124.5 -38c64.667 0 116.334 13 155.001 39s58 61 58 105c0 28.667 -10.833 51.167 -32.5 67.5s-52.834 25.833 -93.501 28.5l-148 9c-78 4.66699 -117 29.667 -117 75c0 17.333 5 32.166 15 44.499s26.667 25.5 50 39.5l24 14
c-30.667 16 -54.834 37.667 -72.501 65s-26.5 58.666 -26.5 93.999c0 52.667 19 96.167 57 130.5s85.667 51.5 143 51.5c45.333 0 85.666 -11.667 120.999 -35c34.667 42.667 79 64 133 64l-8 -67c-19.333 5.33301 -36.666 8 -51.999 8c-24 0 -44 -5 -60 -15
c42.667 -34 64 -79.667 64 -137c0 -52 -19 -95.167 -57 -129.5s-85.333 -51.5 -142 -51.5c-30.667 0 -58.667 5 -84 15l-26 -17c-22 -14.667 -33 -31 -33 -49c0 -24.667 25.333 -38.334 76 -41.001l152 -10c111.333 -7.33301 167 -50.333 167 -129zM102.001 357.004
c0 -48.667 12.499 -88.3311 37.499 -118.998s57.167 -46 96.5 -46c40 0 72.333 15.167 97 45.5s37 70.166 37 119.499c0 48 -12.667 87.667 -38 119s-57.333 47 -96 47c-39.333 0 -71.666 -15.667 -96.999 -47c-24.667 -30.667 -37 -70.334 -37 -119.001zM381 611.007l-6 -5
l-139 105l-139 -105l-6 5l142 165h6z" />
    <glyph glyph-name="Gbreve" unicode="&#x11e;" horiz-adv-x="745" 
d="M443 330h258.999v-246c-82.667 -64 -177.667 -96 -285 -96c-112.667 0 -203.667 33.667 -273 101s-104 157.333 -104 270c-1.33301 111.333 34.167 203 106.5 275s161.833 107.333 268.5 106c55.333 0 106.833 -10.5 154.5 -31.5s86.5 -49.833 116.5 -86.5l-40 -35
c-61.333 91.333 -141.666 137 -240.999 137c-84.667 0 -154 -32.833 -208 -98.5s-81 -152.167 -81 -259.5c-1.33301 -104.667 27 -191.167 85 -259.5s132 -101.833 222 -100.5c84.667 0 155.667 25.333 213 76v230h-182zM247.999 952l9 2.99902
c12 -28.667 31.333 -52.167 58 -70.5s56.667 -27.5 90 -27.5c34 0 64.333 9.16699 91 27.5s46 41.833 58 70.5l9 -3c-11.333 -41.333 -30.5 -74.666 -57.5 -99.999s-60.5 -38 -100.5 -38s-73.333 12.5 -100 37.5s-45.667 58.5 -57 100.5z" />
    <glyph glyph-name="gbreve" unicode="&#x11f;" horiz-adv-x="500" 
d="M488 -55c0 -50.667 -25.332 -94.1631 -75.999 -130.496s-113 -54.5 -187 -54.5c-64 0 -116.167 13.833 -156.5 41.5s-60.5 63.5 -60.5 107.5c0 24.667 6.33301 49.667 19 75l41 12h4c-11.333 -30.667 -17 -57.334 -17 -80.001c0 -42.667 15.167 -76.667 45.5 -102
s71.833 -38 124.5 -38c64.667 0 116.334 13 155.001 39s58 61 58 105c0 28.667 -10.833 51.167 -32.5 67.5s-52.834 25.833 -93.501 28.5l-148 9c-78 4.66699 -117 29.667 -117 75c0 17.333 5 32.166 15 44.499s26.667 25.5 50 39.5l24 14
c-30.667 16 -54.834 37.667 -72.501 65s-26.5 58.666 -26.5 93.999c0 52.667 19 96.167 57 130.5s85.667 51.5 143 51.5c45.333 0 85.666 -11.667 120.999 -35c34.667 42.667 79 64 133 64l-8 -67c-19.333 5.33301 -36.666 8 -51.999 8c-24 0 -44 -5 -60 -15
c42.667 -34 64 -79.667 64 -137c0 -52 -19 -95.167 -57 -129.5s-85.333 -51.5 -142 -51.5c-30.667 0 -58.667 5 -84 15l-26 -17c-22 -14.667 -33 -31 -33 -49c0 -24.667 25.333 -38.334 76 -41.001l152 -10c111.333 -7.33301 167 -50.333 167 -129zM102.001 357.004
c0 -48.667 12.499 -88.3311 37.499 -118.998s57.167 -46 96.5 -46c40 0 72.333 15.167 97 45.5s37 70.166 37 119.499c0 48 -12.667 87.667 -38 119s-57.333 47 -96 47c-39.333 0 -71.666 -15.667 -96.999 -47c-24.667 -30.667 -37 -70.334 -37 -119.001zM88 757.007
l9.00098 3c12 -30.667 30 -54.834 54 -72.501s52.333 -26.5 85 -26.5c33.333 0 62 8.83301 86 26.5s42 41.834 54 72.501l9 -3c-24.667 -92.667 -74.334 -139 -149.001 -139c-74 0 -123.333 46.333 -148 139z" />
    <glyph glyph-name="Gdotaccent" unicode="&#x120;" horiz-adv-x="745" 
d="M443 330h258.999v-246c-82.667 -64 -177.667 -96 -285 -96c-112.667 0 -203.667 33.667 -273 101s-104 157.333 -104 270c-1.33301 111.333 34.167 203 106.5 275s161.833 107.333 268.5 106c55.333 0 106.833 -10.5 154.5 -31.5s86.5 -49.833 116.5 -86.5l-40 -35
c-61.333 91.333 -141.666 137 -240.999 137c-84.667 0 -154 -32.833 -208 -98.5s-81 -152.167 -81 -259.5c-1.33301 -104.667 27 -191.167 85 -259.5s132 -101.833 222 -100.5c84.667 0 155.667 25.333 213 76v230h-182zM404.999 820l-57 56l57 57l57 -57z" />
    <glyph glyph-name="gdotaccent" unicode="&#x121;" horiz-adv-x="500" 
d="M488 -55c0 -50.667 -25.332 -94.1631 -75.999 -130.496s-113 -54.5 -187 -54.5c-64 0 -116.167 13.833 -156.5 41.5s-60.5 63.5 -60.5 107.5c0 24.667 6.33301 49.667 19 75l41 12h4c-11.333 -30.667 -17 -57.334 -17 -80.001c0 -42.667 15.167 -76.667 45.5 -102
s71.833 -38 124.5 -38c64.667 0 116.334 13 155.001 39s58 61 58 105c0 28.667 -10.833 51.167 -32.5 67.5s-52.834 25.833 -93.501 28.5l-148 9c-78 4.66699 -117 29.667 -117 75c0 17.333 5 32.166 15 44.499s26.667 25.5 50 39.5l24 14
c-30.667 16 -54.834 37.667 -72.501 65s-26.5 58.666 -26.5 93.999c0 52.667 19 96.167 57 130.5s85.667 51.5 143 51.5c45.333 0 85.666 -11.667 120.999 -35c34.667 42.667 79 64 133 64l-8 -67c-19.333 5.33301 -36.666 8 -51.999 8c-24 0 -44 -5 -60 -15
c42.667 -34 64 -79.667 64 -137c0 -52 -19 -95.167 -57 -129.5s-85.333 -51.5 -142 -51.5c-30.667 0 -58.667 5 -84 15l-26 -17c-22 -14.667 -33 -31 -33 -49c0 -24.667 25.333 -38.334 76 -41.001l152 -10c111.333 -7.33301 167 -50.333 167 -129zM102.001 357.004
c0 -48.667 12.499 -88.3311 37.499 -118.998s57.167 -46 96.5 -46c40 0 72.333 15.167 97 45.5s37 70.166 37 119.499c0 48 -12.667 87.667 -38 119s-57.333 47 -96 47c-39.333 0 -71.666 -15.667 -96.999 -47c-24.667 -30.667 -37 -70.334 -37 -119.001zM236 624.007
l-53 53l53 53l53 -53z" />
    <glyph glyph-name="uni0122" unicode="&#x122;" horiz-adv-x="745" 
d="M443 330h258.999v-246c-82.667 -64 -177.667 -96 -285 -96c-112.667 0 -203.667 33.667 -273 101s-104 157.333 -104 270c-1.33301 111.333 34.167 203 106.5 275s161.833 107.333 268.5 106c55.333 0 106.833 -10.5 154.5 -31.5s86.5 -49.833 116.5 -86.5l-40 -35
c-61.333 91.333 -141.666 137 -240.999 137c-84.667 0 -154 -32.833 -208 -98.5s-81 -152.167 -81 -259.5c-1.33301 -104.667 27 -191.167 85 -259.5s132 -101.833 222 -100.5c84.667 0 155.667 25.333 213 76v230h-182zM389.999 -274l-4.99902 7.00098
c35.333 23.333 53 50.666 53 81.999c0 34.667 -21 64.667 -63 90l44 46c42.667 -20.667 64 -52.667 64 -96c0 -25.333 -8.33301 -49.5 -25 -72.5s-39.334 -41.833 -68.001 -56.5z" />
    <glyph glyph-name="uni0123" unicode="&#x123;" horiz-adv-x="500" 
d="M488 -55c0 -50.667 -25.332 -94.1631 -75.999 -130.496s-113 -54.5 -187 -54.5c-64 0 -116.167 13.833 -156.5 41.5s-60.5 63.5 -60.5 107.5c0 24.667 6.33301 49.667 19 75l41 12h4c-11.333 -30.667 -17 -57.334 -17 -80.001c0 -42.667 15.167 -76.667 45.5 -102
s71.833 -38 124.5 -38c64.667 0 116.334 13 155.001 39s58 61 58 105c0 28.667 -10.833 51.167 -32.5 67.5s-52.834 25.833 -93.501 28.5l-148 9c-78 4.66699 -117 29.667 -117 75c0 17.333 5 32.166 15 44.499s26.667 25.5 50 39.5l24 14
c-30.667 16 -54.834 37.667 -72.501 65s-26.5 58.666 -26.5 93.999c0 52.667 19 96.167 57 130.5s85.667 51.5 143 51.5c45.333 0 85.666 -11.667 120.999 -35c34.667 42.667 79 64 133 64l-8 -67c-19.333 5.33301 -36.666 8 -51.999 8c-24 0 -44 -5 -60 -15
c42.667 -34 64 -79.667 64 -137c0 -52 -19 -95.167 -57 -129.5s-85.333 -51.5 -142 -51.5c-30.667 0 -58.667 5 -84 15l-26 -17c-22 -14.667 -33 -31 -33 -49c0 -24.667 25.333 -38.334 76 -41.001l152 -10c111.333 -7.33301 167 -50.333 167 -129zM102.001 357.004
c0 -48.667 12.499 -88.3311 37.499 -118.998s57.167 -46 96.5 -46c40 0 72.333 15.167 97 45.5s37 70.166 37 119.499c0 48 -12.667 87.667 -38 119s-57.333 47 -96 47c-39.333 0 -71.666 -15.667 -96.999 -47c-24.667 -30.667 -37 -70.334 -37 -119.001zM192 692.007
c0 20 7 39.501 21 58.501s33 34.5 57 46.5l4 -5c-29.333 -19.333 -44 -41.666 -44 -66.999c0 -28.667 17.333 -53.334 52 -74.001l-37 -38c-35.333 17.333 -53 43.666 -53 78.999z" />
    <glyph glyph-name="Hcircumflex" unicode="&#x124;" horiz-adv-x="677" 
d="M534 728h69v-728h-69v370h-391v-370h-68v728h68v-340h391v340zM502 807l-6 -5l-157 97l-157 -97l-6 5l160 155h6z" />
    <glyph glyph-name="hcircumflex" unicode="&#x125;" horiz-adv-x="549" 
d="M492 351l-0.000976562 -351h-63v347c0 42 -8 79.333 -24 112c-15.333 33.333 -51 50 -107 50c-61.333 0 -119.666 -26.667 -174.999 -80v-429h-64v787l60 23h4v-361c64 59.333 131.667 89 203 89c110.667 0 166 -62.333 166 -187zM260.999 807l-6 -5l-157 97l-157 -97
l-6 5l160 155h6z" />
    <glyph glyph-name="Hbar" unicode="&#x126;" horiz-adv-x="682" 
d="M667 578v-14h-62v-564h-69v370h-390v-370h-69v564h-62v14h62v150h69v-150h390v150h69v-150h62zM536 388v176h-390v-176h390z" />
    <glyph glyph-name="hbar" unicode="&#x127;" horiz-adv-x="549" 
d="M492 351l-0.000976562 -351h-63v347c0 42 -8 79.333 -24 112c-15.333 33.333 -51 50 -107 50c-61.333 0 -119.666 -26.667 -174.999 -80v-429h-64v662h-62v14h62v111l60 23h4v-134h161v-14h-161v-213c64 59.333 131.667 89 203 89c110.667 0 166 -62.333 166 -187z" />
    <glyph glyph-name="Itilde" unicode="&#x128;" horiz-adv-x="218" 
d="M75 0v728h68v-728h-68zM-53 814l-9.00195 2c10 64.667 37.667 97 83 97c20 0 55.667 -10.333 107 -31c42.667 -17.333 72 -26 88 -26c26.667 0 45.334 19 56.001 57l9 -2c-11.333 -64.667 -39 -97 -83 -97c-21.333 0 -56.666 10 -105.999 30
c-46 17.333 -75.667 26 -89 26c-26 0 -44.667 -18.667 -56 -56z" />
    <glyph glyph-name="itilde" unicode="&#x129;" horiz-adv-x="189" 
d="M63 0v513l59 22h4v-535h-63zM-59 618l-9.99902 2c10.667 64.667 38.667 97 84 97c23.333 0 55.666 -10 96.999 -30c37.333 -17.333 64 -26 80 -26c26 0 44.667 18.667 56 56l9 -2c-10 -64.667 -37.667 -97 -83 -97c-21.333 0 -53.666 10.333 -96.999 31
c-37.333 17.333 -64 26 -80 26c-26.667 0 -45.334 -19 -56.001 -57z" />
    <glyph glyph-name="Imacron" unicode="&#x12a;" horiz-adv-x="218" 
d="M75 0v728h68v-728h-68zM-45 821v26h309v-26h-309z" />
    <glyph glyph-name="imacron" unicode="&#x12b;" horiz-adv-x="189" 
d="M63 0v513l59 22h4v-535h-63zM-36 654v25h261v-25h-261z" />
    <glyph glyph-name="Ibreve" unicode="&#x12c;" horiz-adv-x="218" 
d="M75 0v728h68v-728h-68zM-48 952l9 2.99902c12 -28.667 31.333 -52.167 58 -70.5s56.667 -27.5 90 -27.5c34 0 64.333 9.16699 91 27.5s46 41.833 58 70.5l9 -3c-11.333 -41.333 -30.5 -74.666 -57.5 -99.999s-60.5 -38 -100.5 -38s-73.333 12.5 -100 37.5
s-45.667 58.5 -57 100.5z" />
    <glyph glyph-name="ibreve" unicode="&#x12d;" horiz-adv-x="189" 
d="M63 0v513l59 22h4v-535h-63zM-54 757l9.00098 3c12 -30.667 30 -54.834 54 -72.501s52.333 -26.5 85 -26.5c33.333 0 62 8.83301 86 26.5s42 41.834 54 72.501l9 -3c-24.667 -92.667 -74.334 -139 -149.001 -139c-74 0 -123.333 46.333 -148 139z" />
    <glyph glyph-name="Iogonek" unicode="&#x12e;" horiz-adv-x="218" 
d="M172 -176l3 -5.00098c-33.333 -24 -66.666 -36 -99.999 -36c-22.667 0 -41.334 6.5 -56.001 19.5s-22 30.167 -22 51.5c0 22.667 8.5 44.834 25.5 66.501s44.833 48.167 83.5 79.5h-31v728h68v-728h-22c-46 -48.667 -69 -92 -69 -130c0 -18 5.5 -32.5 16.5 -43.5
s24.833 -16.5 41.5 -16.5c15.333 0 36 4.66699 62 14z" />
    <glyph glyph-name="iogonek" unicode="&#x12f;" horiz-adv-x="189" 
d="M148 686l-54 -53l-53 53l53 53zM156 -176l3 -5.00098c-33.333 -24 -66.666 -36 -99.999 -36c-22.667 0 -41.334 6.5 -56.001 19.5s-22 30.167 -22 51.5c0 22.667 8.5 44.834 25.5 66.501s44.833 48.167 83.5 79.5h-27v513l59 22h4v-535h-21
c-45.333 -48 -68 -91.333 -68 -130c0 -18 5.5 -32.5 16.5 -43.5s24.833 -16.5 41.5 -16.5c16 0 36.333 4.66699 61 14z" />
    <glyph glyph-name="Idot" unicode="&#x130;" horiz-adv-x="218" 
d="M75 0v728h68v-728h-68zM109 820l-57 56l57 57l57 -57z" />
    <glyph glyph-name="dotlessi" unicode="&#x131;" horiz-adv-x="189" 
d="M63 0v513l59 22h4v-535h-63z" />
    <glyph glyph-name="IJ" unicode="&#x132;" horiz-adv-x="416" 
d="M75 0v728h68v-728h-68zM134 -150l-7 12.001c44 28 76.333 57 97 87c21.333 31.333 35.333 67.333 42 108c6.66699 39.333 10 93.666 10 162.999v508h68v-500c0 -80 -7 -142.667 -21 -188c-14 -46 -35.333 -81.667 -64 -107c-28 -26 -69.667 -53.667 -125 -83z" />
    <glyph glyph-name="ij" unicode="&#x133;" horiz-adv-x="368" 
d="M94 633l-53 53l53 53l54 -53zM63 0v513l59 22h4v-535h-63zM273 633l-54 53l54 53l53 -53zM119 -228l-4 11.999c39.333 7.33301 70.166 27.5 92.499 60.5s33.5 75.167 33.5 126.5v542l60 22h4v-562c0 -55.333 -16.667 -100.666 -50 -135.999s-78.666 -57 -135.999 -65z
" />
    <glyph glyph-name="Jcircumflex" unicode="&#x134;" horiz-adv-x="222" 
d="M-60 -150l-7 12.001c44 28 76.333 57 97 87c21.333 31.333 35.333 67.333 42 108c6.66699 39.333 10 93.666 10 162.999v508h68v-500c0 -80 -7 -142.667 -21 -188c-14 -46 -35.333 -81.667 -64 -107c-28 -26 -69.667 -53.667 -125 -83zM279 807.001l-6 -5l-157 97
l-157 -97l-6 5l160 155h6z" />
    <glyph glyph-name="jcircumflex" unicode="&#x135;" horiz-adv-x="193" 
d="M-55 -228l-4 11.999c39.333 7.33301 70.166 27.5 92.499 60.5s33.5 75.167 33.5 126.5v542l60 22h4v-562c0 -55.333 -16.667 -100.666 -50 -135.999s-78.666 -57 -135.999 -65zM244 610.999l-6 -5l-139 105l-139 -105l-6 5l142 165h6z" />
    <glyph glyph-name="uni0136" unicode="&#x136;" horiz-adv-x="606" 
d="M75 0v728h68v-728h-68zM338 494l-94 -89l349 -331v-89h-5l-407 388l144 136c98.667 92.667 166 165.667 202 219h66v-2zM278 -274l-4.99902 7.00098c35.333 23.333 53 50.666 53 81.999c0 34.667 -21 64.667 -63 90l44 46c42.667 -20.667 64 -52.667 64 -96
c0 -25.333 -8.33301 -49.5 -25 -72.5s-39.334 -41.833 -68.001 -56.5z" />
    <glyph glyph-name="uni0137" unicode="&#x137;" horiz-adv-x="483" 
d="M59 787l60 23h4v-810h-64v787zM212 322l261.001 -253v-84h-4l-318 310l88 76l101 90l66 65h62v-2c-80.667 -54 -153.334 -110 -218.001 -168zM207.001 -274l-4.99902 7.00098c35.333 23.333 53 50.666 53 81.999c0 34.667 -21 64.667 -63 90l44 46
c42.667 -20.667 64 -52.667 64 -96c0 -25.333 -8.33301 -49.5 -25 -72.5s-39.334 -41.833 -68.001 -56.5z" />
    <glyph glyph-name="kgreenlandic" unicode="&#x138;" horiz-adv-x="483" 
d="M59 513l60 22h4v-535h-64v513zM212 323l261 -254.001v-84h-4l-318 310l87 76c75.333 64.667 131.333 116.334 168 155.001h62v-2c-78.667 -53.333 -151.667 -109.333 -219 -168z" />
    <glyph glyph-name="Lacute" unicode="&#x139;" horiz-adv-x="427" 
d="M414 50h1.99902l-17 -50h-324v728h68v-710h23c78.667 0 161.334 10.667 248.001 32zM95.999 802l-7 5l77 155h98z" />
    <glyph glyph-name="lacute" unicode="&#x13a;" horiz-adv-x="189" 
d="M63 0v787l59 23h4v-810h-63zM81 802l-7 5l77 155h98z" />
    <glyph glyph-name="uni013B" unicode="&#x13b;" horiz-adv-x="427" 
d="M414 50h1.99902l-17 -50h-324v728h68v-710h23c78.667 0 161.334 10.667 248.001 32zM210.999 -274l-4.99902 7.00098c35.333 23.333 53 50.666 53 81.999c0 34.667 -21 64.667 -63 90l44 46c42.667 -20.667 64 -52.667 64 -96c0 -25.333 -8.33301 -49.5 -25 -72.5
s-39.334 -41.833 -68.001 -56.5z" />
    <glyph glyph-name="uni013C" unicode="&#x13c;" horiz-adv-x="189" 
d="M63 0v787l59 23h4v-810h-63zM61 -274l-4.99902 7.00098c35.333 23.333 53 50.666 53 81.999c0 34.667 -21 64.667 -63 90l44 46c42.667 -20.667 64 -52.667 64 -96c0 -25.333 -8.33301 -49.5 -25 -72.5s-39.334 -41.833 -68.001 -56.5z" />
    <glyph glyph-name="Lcaron" unicode="&#x13d;" horiz-adv-x="449" 
d="M414 50h1.99902l-17 -50h-324v728h68v-710h23c78.667 0 161.334 10.667 248.001 32zM335.999 551l-4 5c29.333 19.333 44 41.666 44 66.999c0 28.667 -17.667 53.667 -53 75l37 37c36 -17.333 54 -43.666 54 -78.999c0 -20 -7 -39.5 -21 -58.5s-33 -34.5 -57 -46.5z" />
    <glyph glyph-name="lcaron" unicode="&#x13e;" horiz-adv-x="210" 
d="M63 0v787l59 23h4v-810h-63zM197 631l-4 5c29.333 19.333 44 41.666 44 66.999c0 28.667 -17.667 53.667 -53 75l37 37c36 -17.333 54 -43.666 54 -78.999c0 -20 -7 -39.5 -21 -58.5s-33 -34.5 -57 -46.5z" />
    <glyph glyph-name="Ldot" unicode="&#x13f;" horiz-adv-x="443" 
d="M414 50h1.99902l-17 -50h-324v728h68v-710h23c78.667 0 161.334 10.667 248.001 32zM351.999 342l-57 56l57 57l57 -57z" />
    <glyph glyph-name="ldot" unicode="&#x140;" horiz-adv-x="292" 
d="M63 0v787l59 23h4v-810h-63zM239 335l-57 56l57 57l57 -57z" />
    <glyph glyph-name="Lslash" unicode="&#x141;" horiz-adv-x="440" 
d="M425 50h2l-17 -50h-325v313l-55 -31l-7 12l62 35v399h69v-359l184 105l7 -12l-191 -109v-335h22c79.333 0 162.333 10.667 249 32z" />
    <glyph glyph-name="lslash" unicode="&#x142;" horiz-adv-x="220" 
d="M203 415l-62 -36v-379h-63v343l-55 -32l-7 12l62 36v428l59 23h4v-415l55 32z" />
    <glyph glyph-name="Nacute" unicode="&#x143;" horiz-adv-x="638" 
d="M528 728h46c-8.66699 -74 -13 -180 -13 -318v-422h-7l-453 653v-323c0 -145.333 4.33301 -251.333 13 -318h-46c8.66699 74 13 180 13 318v352l-38 55v3h81l417 -606v288c0 145.333 -4.33301 251.333 -13 318zM299 802l-7 5l77 155h98z" />
    <glyph glyph-name="nacute" unicode="&#x144;" horiz-adv-x="548" 
d="M492 351l-0.000976562 -351h-63v347c0 42 -8 79.333 -24 112c-15.333 33.333 -51 50 -107 50c-61.333 0 -119.666 -26.667 -174.999 -80v-429h-64v513l60 22h4v-86c64 59.333 131.333 89 202 89c111.333 0 167 -62.333 167 -187zM268.999 606l-7 5l79 165h85z" />
    <glyph glyph-name="uni0145" unicode="&#x145;" horiz-adv-x="638" 
d="M528 728h46c-8.66699 -74 -13 -180 -13 -318v-422h-7l-453 653v-323c0 -145.333 4.33301 -251.333 13 -318h-46c8.66699 74 13 180 13 318v352l-38 55v3h81l417 -606v288c0 145.333 -4.33301 251.333 -13 318zM278 -274l-4.99902 7.00098
c35.333 23.333 53 50.666 53 81.999c0 34.667 -21 64.667 -63 90l44 46c42.667 -20.667 64 -52.667 64 -96c0 -25.333 -8.33301 -49.5 -25 -72.5s-39.334 -41.833 -68.001 -56.5z" />
    <glyph glyph-name="uni0146" unicode="&#x146;" horiz-adv-x="548" 
d="M492 351l-0.000976562 -351h-63v347c0 42 -8 79.333 -24 112c-15.333 33.333 -51 50 -107 50c-61.333 0 -119.666 -26.667 -174.999 -80v-429h-64v513l60 22h4v-86c64 59.333 131.333 89 202 89c111.333 0 167 -62.333 167 -187zM241.999 -274l-4.99902 7.00098
c35.333 23.333 53 50.666 53 81.999c0 34.667 -21 64.667 -63 90l44 46c42.667 -20.667 64 -52.667 64 -96c0 -25.333 -8.33301 -49.5 -25 -72.5s-39.334 -41.833 -68.001 -56.5z" />
    <glyph glyph-name="Ncaron" unicode="&#x147;" horiz-adv-x="638" 
d="M528 728h46c-8.66699 -74 -13 -180 -13 -318v-422h-7l-453 653v-323c0 -145.333 4.33301 -251.333 13 -318h-46c8.66699 74 13 180 13 318v352l-38 55v3h81l417 -606v288c0 145.333 -4.33301 251.333 -13 318zM469 962l6 -5l-160 -155h-6l-160 155l6 5l157 -97z" />
    <glyph glyph-name="ncaron" unicode="&#x148;" horiz-adv-x="548" 
d="M492 351l-0.000976562 -351h-63v347c0 42 -8 79.333 -24 112c-15.333 33.333 -51 50 -107 50c-61.333 0 -119.666 -26.667 -174.999 -80v-429h-64v513l60 22h4v-86c64 59.333 131.333 89 202 89c111.333 0 167 -62.333 167 -187zM419.999 776l6 -5l-142 -165h-6l-142 165
l6 5l139 -104z" />
    <glyph glyph-name="napostrophe" unicode="&#x149;" horiz-adv-x="557" 
d="M-27 523l-5 6.99902c36 24 54 52 54 84c0 35.333 -21.667 67.333 -65 96l45 50c46 -22 69 -56 69 -102c0 -26 -8.83301 -51.167 -26.5 -75.5s-41.5 -44.166 -71.5 -59.499zM501 350.999l-0.000976562 -351h-63v347c0 42 -8 79.333 -24 112c-15.333 33.333 -51 50 -107 50
c-61.333 0 -119.666 -26.667 -174.999 -80v-429h-64v513l60 22h4v-86c64 59.333 131.333 89 202 89c111.333 0 167 -62.333 167 -187z" />
    <glyph glyph-name="Eng" unicode="&#x14a;" horiz-adv-x="638" 
d="M528 728h45.999c-8.66699 -74 -13 -180 -13 -318v-445c0 -54.667 -12.167 -98.5 -36.5 -131.5s-59.5 -53.5 -105.5 -61.5l-4 12c40.667 7.33301 71.834 26.333 93.501 57s32.5 72 32.5 124v42l-440 634v-323c0 -145.333 4.33301 -251.333 13 -318h-46
c8.66699 74 13 180 13 318v352l-38 55v3h81l417 -606v288c0 145.333 -4.33301 251.333 -13 318z" />
    <glyph glyph-name="eng" unicode="&#x14b;" horiz-adv-x="548" 
d="M492 351v-378.002c0 -55.333 -16.667 -100.666 -50 -135.999s-79 -57 -137 -65l-2 14c39.333 6.66699 70.166 26.334 92.499 59.001s33.5 74.667 33.5 126v376c0 42 -8 79.333 -24 112c-15.333 33.333 -51 50 -107 50c-61.333 0 -119.666 -26.667 -174.999 -80v-429h-64
v513l60 22h4v-86c64 59.333 131.333 89 202 89c111.333 0 167 -62.333 167 -187z" />
    <glyph glyph-name="Omacron" unicode="&#x14c;" horiz-adv-x="824" 
d="M39 358c-1.33301 111.333 35.001 203.166 109.001 275.499s164 107.833 270 106.5c103.333 1.33301 190.666 -32.834 261.999 -102.501s106.333 -158.834 105 -267.501c1.33301 -111.333 -35 -203.166 -109 -275.499s-164 -107.833 -270 -106.5
c-103.333 -1.33301 -190.833 32.834 -262.5 102.501s-106.5 158.834 -104.5 267.501zM709.001 360c0 106 -28.502 193.166 -85.502 261.499s-128.167 102.5 -213.5 102.5c-84.667 1.33301 -155.167 -31.667 -211.5 -99s-84.166 -153 -83.499 -257
c-0.666992 -106 28 -193.5 86 -262.5s129.667 -102.833 215 -101.5c83.333 -1.33301 153.333 31.834 210 99.501s84.334 153.167 83.001 256.5zM257.999 820.999v26h309v-26h-309z" />
    <glyph glyph-name="omacron" unicode="&#x14d;" horiz-adv-x="578" 
d="M31 260c0 82 24.832 148.833 74.499 200.5s112.167 77.5 187.5 77.5c74.667 0 135.5 -24.667 182.5 -74s70.5 -115.333 70.5 -198c0 -82 -24.667 -148.833 -74 -200.5s-111.666 -77.5 -186.999 -77.5c-74.667 0 -135.667 24.667 -183 74s-71 115.333 -71 198z
M475.999 260c0 78 -17.833 141.5 -53.5 190.5s-80.834 73.5 -135.501 73.5c-54 0 -98.5 -23.833 -133.5 -71.5s-52.5 -109.834 -52.5 -186.501c0 -78 17.833 -141.5 53.5 -190.5s80.834 -73.5 135.501 -73.5c54 0 98.5 23.833 133.5 71.5s52.5 109.834 52.5 186.501z
M158.999 654v25h261v-25h-261z" />
    <glyph glyph-name="Obreve" unicode="&#x14e;" horiz-adv-x="824" 
d="M39 358c-1.33301 111.333 35.001 203.166 109.001 275.499s164 107.833 270 106.5c103.333 1.33301 190.666 -32.834 261.999 -102.501s106.333 -158.834 105 -267.501c1.33301 -111.333 -35 -203.166 -109 -275.499s-164 -107.833 -270 -106.5
c-103.333 -1.33301 -190.833 32.834 -262.5 102.501s-106.5 158.834 -104.5 267.501zM709.001 360c0 106 -28.502 193.166 -85.502 261.499s-128.167 102.5 -213.5 102.5c-84.667 1.33301 -155.167 -31.667 -211.5 -99s-84.166 -153 -83.499 -257
c-0.666992 -106 28 -193.5 86 -262.5s129.667 -102.833 215 -101.5c83.333 -1.33301 153.333 31.834 210 99.501s84.334 153.167 83.001 256.5zM254.999 951.999l9 2.99902c12 -28.667 31.333 -52.167 58 -70.5s56.667 -27.5 90 -27.5c34 0 64.333 9.16699 91 27.5
s46 41.833 58 70.5l9 -3c-11.333 -41.333 -30.5 -74.666 -57.5 -99.999s-60.5 -38 -100.5 -38s-73.333 12.5 -100 37.5s-45.667 58.5 -57 100.5z" />
    <glyph glyph-name="obreve" unicode="&#x14f;" horiz-adv-x="578" 
d="M31 260c0 82 24.832 148.833 74.499 200.5s112.167 77.5 187.5 77.5c74.667 0 135.5 -24.667 182.5 -74s70.5 -115.333 70.5 -198c0 -82 -24.667 -148.833 -74 -200.5s-111.666 -77.5 -186.999 -77.5c-74.667 0 -135.667 24.667 -183 74s-71 115.333 -71 198z
M475.999 260c0 78 -17.833 141.5 -53.5 190.5s-80.834 73.5 -135.501 73.5c-54 0 -98.5 -23.833 -133.5 -71.5s-52.5 -109.834 -52.5 -186.501c0 -78 17.833 -141.5 53.5 -190.5s80.834 -73.5 135.501 -73.5c54 0 98.5 23.833 133.5 71.5s52.5 109.834 52.5 186.501z
M140.999 757l9.00098 3c12 -30.667 30 -54.834 54 -72.501s52.333 -26.5 85 -26.5c33.333 0 62 8.83301 86 26.5s42 41.834 54 72.501l9 -3c-24.667 -92.667 -74.334 -139 -149.001 -139c-74 0 -123.333 46.333 -148 139z" />
    <glyph glyph-name="Ohungarumlaut" unicode="&#x150;" horiz-adv-x="824" 
d="M39 358c-1.33301 111.333 35.001 203.166 109.001 275.499s164 107.833 270 106.5c103.333 1.33301 190.666 -32.834 261.999 -102.501s106.333 -158.834 105 -267.501c1.33301 -111.333 -35 -203.166 -109 -275.499s-164 -107.833 -270 -106.5
c-103.333 -1.33301 -190.833 32.834 -262.5 102.501s-106.5 158.834 -104.5 267.501zM709.001 360c0 106 -28.502 193.166 -85.502 261.499s-128.167 102.5 -213.5 102.5c-84.667 1.33301 -155.167 -31.667 -211.5 -99s-84.166 -153 -83.499 -257
c-0.666992 -106 28 -193.5 86 -262.5s129.667 -102.833 215 -101.5c83.333 -1.33301 153.333 31.834 210 99.501s84.334 153.167 83.001 256.5zM335.999 801.999l-7 5l78 155h84zM461.999 801.999l-7 5l77 155h84z" />
    <glyph glyph-name="ohungarumlaut" unicode="&#x151;" horiz-adv-x="578" 
d="M31 260c0 82 24.832 148.833 74.499 200.5s112.167 77.5 187.5 77.5c74.667 0 135.5 -24.667 182.5 -74s70.5 -115.333 70.5 -198c0 -82 -24.667 -148.833 -74 -200.5s-111.666 -77.5 -186.999 -77.5c-74.667 0 -135.667 24.667 -183 74s-71 115.333 -71 198z
M475.999 260c0 78 -17.833 141.5 -53.5 190.5s-80.834 73.5 -135.501 73.5c-54 0 -98.5 -23.833 -133.5 -71.5s-52.5 -109.834 -52.5 -186.501c0 -78 17.833 -141.5 53.5 -190.5s80.834 -73.5 135.501 -73.5c54 0 98.5 23.833 133.5 71.5s52.5 109.834 52.5 186.501z
M212.999 606l-7 5l79 165h75zM337.999 606l-7 5l80 165h75z" />
    <glyph glyph-name="OE" unicode="&#x152;" horiz-adv-x="1036" 
d="M1018 48h1.99902l-17 -48h-592c-114 0 -204.333 31.167 -271 93.5s-100 149.5 -100 261.5c0 116 34.333 207.167 103 273.5s161.334 99.5 278.001 99.5h567l13 -46h-2c-94 18.667 -187 28 -279 28h-64v-322h58c102 0 173 3.66699 213 11h2v-42h-2
c-43.333 8.66699 -114.333 13 -213 13h-58v-352h65c108 0 207 10 297 30zM420.999 16c82 0 137.667 3 167 9v678c-29.333 6 -88.333 9 -177 9c-92.667 0 -165 -30.667 -217 -92s-78 -147.666 -78 -258.999c0 -102.667 28 -185.834 84 -249.501s129.667 -95.5 221 -95.5z" />
    <glyph glyph-name="oe" unicode="&#x153;" horiz-adv-x="969" 
d="M942 302h-394.998c-0.666992 -3.33301 -1 -12 -1 -26c0 -78 18.333 -140 55 -186s83.334 -69 140.001 -69c33.333 0 66.666 9 99.999 27s60.333 42.667 81 74l12 -7c-54.667 -84.667 -127 -127 -217 -127c-47.333 0 -89 11.833 -125 35.5s-64 56.834 -84 99.501
c-21.333 -42.667 -51.333 -75.834 -90 -99.501s-83 -35.5 -133 -35.5c-74.667 0 -135.667 24.667 -183 74s-71 115.333 -71 198c0 82 24.833 148.833 74.5 200.5s112.167 77.5 187.5 77.5c50 0 94.167 -11.833 132.5 -35.5s67.166 -57.167 86.499 -100.5
c22 42.667 52.167 76 90.5 100s82.166 36 131.499 36c65.333 0 116.5 -21 153.5 -63s55.167 -99.667 54.5 -173zM476.002 260c0 78 -17.833 141.5 -53.5 190.5s-80.834 73.5 -135.501 73.5c-54 0 -98.5 -23.833 -133.5 -71.5s-52.5 -109.834 -52.5 -186.501
c0 -78 17.833 -141.5 53.5 -190.5s80.834 -73.5 135.501 -73.5c54 0 98.5 23.833 133.5 71.5s52.5 109.834 52.5 186.501zM548.002 318h328c0 62.667 -13.333 112.667 -40 150s-63 56 -109 56c-47.333 0 -87.333 -19 -120 -57c-32 -36 -51.667 -85.667 -59 -149z" />
    <glyph glyph-name="Racute" unicode="&#x154;" horiz-adv-x="588" 
d="M337 346l234 -268.001v-93h-5l-279 320c-13.333 15.333 -32.333 23 -57 23h-87v-328h-68v728h149c93.333 0 164.333 -15.667 213 -47s73 -77.666 73 -138.999c0 -47.333 -14.667 -86.5 -44 -117.5s-72.333 -57.167 -129 -78.5zM437 535.999
c0 55.333 -18.334 98.501 -55.001 129.501s-89.667 46.5 -159 46.5h-80v-361c13.333 -2.66699 29.333 -4.33398 48 -5.00098c28 -1.33301 46 -2 54 -2c56.667 0 102.834 18.5 138.501 55.5s53.5 82.5 53.5 136.5zM237.999 802l-7 5l77 155h98z" />
    <glyph glyph-name="racute" unicode="&#x155;" horiz-adv-x="340" 
d="M337 530l-22 -54c-18 8 -36.667 12 -56 12c-54.667 0 -100 -31.333 -136 -94v-394h-64v513l59 22h4v-116c46 78 101.333 117 166 117c16.667 0 33 -2 49 -6zM153 606l-7 5l79 165h85z" />
    <glyph glyph-name="uni0156" unicode="&#x156;" horiz-adv-x="588" 
d="M337 346l234 -268.001v-93h-5l-279 320c-13.333 15.333 -32.333 23 -57 23h-87v-328h-68v728h149c93.333 0 164.333 -15.667 213 -47s73 -77.666 73 -138.999c0 -47.333 -14.667 -86.5 -44 -117.5s-72.333 -57.167 -129 -78.5zM437 535.999
c0 55.333 -18.334 98.501 -55.001 129.501s-89.667 46.5 -159 46.5h-80v-361c13.333 -2.66699 29.333 -4.33398 48 -5.00098c28 -1.33301 46 -2 54 -2c56.667 0 102.834 18.5 138.501 55.5s53.5 82.5 53.5 136.5zM262.999 -274l-4.99902 7.00098
c35.333 23.333 53 50.666 53 81.999c0 34.667 -21 64.667 -63 90l44 46c42.667 -20.667 64 -52.667 64 -96c0 -25.333 -8.33301 -49.5 -25 -72.5s-39.334 -41.833 -68.001 -56.5z" />
    <glyph glyph-name="uni0157" unicode="&#x157;" horiz-adv-x="340" 
d="M337 530l-22 -54c-18 8 -36.667 12 -56 12c-54.667 0 -100 -31.333 -136 -94v-394h-64v513l59 22h4v-116c46 78 101.333 117 166 117c16.667 0 33 -2 49 -6zM57 -274l-4.99902 7.00098c35.333 23.333 53 50.666 53 81.999c0 34.667 -21 64.667 -63 90l44 46
c42.667 -20.667 64 -52.667 64 -96c0 -25.333 -8.33301 -49.5 -25 -72.5s-39.334 -41.833 -68.001 -56.5z" />
    <glyph glyph-name="Rcaron" unicode="&#x158;" horiz-adv-x="588" 
d="M337 346l234 -268.001v-93h-5l-279 320c-13.333 15.333 -32.333 23 -57 23h-87v-328h-68v728h149c93.333 0 164.333 -15.667 213 -47s73 -77.666 73 -138.999c0 -47.333 -14.667 -86.5 -44 -117.5s-72.333 -57.167 -129 -78.5zM437 535.999
c0 55.333 -18.334 98.501 -55.001 129.501s-89.667 46.5 -159 46.5h-80v-361c13.333 -2.66699 29.333 -4.33398 48 -5.00098c28 -1.33301 46 -2 54 -2c56.667 0 102.834 18.5 138.501 55.5s53.5 82.5 53.5 136.5zM407.999 962l6 -5l-160 -155h-6l-160 155l6 5l157 -97z" />
    <glyph glyph-name="rcaron" unicode="&#x159;" horiz-adv-x="340" 
d="M337 530l-22 -54c-18 8 -36.667 12 -56 12c-54.667 0 -100 -31.333 -136 -94v-394h-64v513l59 22h4v-116c46 78 101.333 117 166 117c16.667 0 33 -2 49 -6zM304 776l6 -5l-142 -165h-6l-142 165l6 5l139 -104z" />
    <glyph glyph-name="Sacute" unicode="&#x15a;" horiz-adv-x="529" 
d="M34 43l15 48.999c23.333 -25.333 56 -46.666 98 -63.999c42 -16 82.333 -24 121 -24c50 0 91.333 14 124 42s49 64 49 108c-1.33301 44.667 -14.666 79.334 -39.999 104.001s-65.333 50.334 -120 77.001l-50 23c-40 19.333 -71.333 36.333 -94 51
c-60 39.333 -90 89.333 -90 150c0 52.667 20.333 96 61 130s93 51 157 51c73.333 0 140 -18.333 200 -55l-12 -44c-58.667 55.333 -124.334 83 -197.001 83c-46.667 0 -83.834 -12.333 -111.501 -37s-41.5 -56.334 -41.5 -95.001c0 -28 7 -52 21 -72
c13.333 -18.667 30 -34.834 50 -48.501s49 -29.5 87 -47.5l50 -23c38.667 -18 71.334 -36 98.001 -54c57.333 -37.333 86 -89.333 86 -156c0 -60.667 -22.667 -109.667 -68 -147s-100.666 -56 -165.999 -56c-39.333 0 -79.333 5.33301 -120 16
c-42.667 11.333 -78.334 24.333 -107.001 39zM251 801.999l-7 5l77 155h98z" />
    <glyph glyph-name="sacute" unicode="&#x15b;" horiz-adv-x="421" 
d="M23 40l11.9971 38.999c49.333 -51.333 108.333 -77 177 -77c40.667 0 73.834 10.167 99.501 30.5s38.5 46.833 38.5 79.5c0 20 -5.66699 37.667 -17 53c-17.333 22 -53.333 44.667 -108 68l-40 18c-31.333 14 -57.666 27 -78.999 39c-48 28 -72 66.333 -72 115
c0 40 16 72.167 48 96.5s73.667 36.5 125 36.5c64.667 0 121.334 -14.333 170.001 -43l-12 -38c-50.667 44.667 -105.334 67 -164.001 67c-35.333 0 -63.666 -9 -84.999 -27s-32 -40.667 -32 -68c0 -19.333 6 -36.666 18 -51.999c11.333 -12.667 23.833 -23 37.5 -31
s36.834 -19 69.501 -33l40 -18c31.333 -14 56.666 -26.667 75.999 -38c49.333 -28.667 74 -68.667 74 -120c0 -44.667 -17.667 -80.667 -53 -108s-82 -41 -140 -41c-70.667 0 -131.667 17.333 -183 52zM190.997 605.999l-7 5l79 165h85z" />
    <glyph glyph-name="Scircumflex" unicode="&#x15c;" horiz-adv-x="529" 
d="M34 43l15 48.999c23.333 -25.333 56 -46.666 98 -63.999c42 -16 82.333 -24 121 -24c50 0 91.333 14 124 42s49 64 49 108c-1.33301 44.667 -14.666 79.334 -39.999 104.001s-65.333 50.334 -120 77.001l-50 23c-40 19.333 -71.333 36.333 -94 51
c-60 39.333 -90 89.333 -90 150c0 52.667 20.333 96 61 130s93 51 157 51c73.333 0 140 -18.333 200 -55l-12 -44c-58.667 55.333 -124.334 83 -197.001 83c-46.667 0 -83.834 -12.333 -111.501 -37s-41.5 -56.334 -41.5 -95.001c0 -28 7 -52 21 -72
c13.333 -18.667 30 -34.834 50 -48.501s49 -29.5 87 -47.5l50 -23c38.667 -18 71.334 -36 98.001 -54c57.333 -37.333 86 -89.333 86 -156c0 -60.667 -22.667 -109.667 -68 -147s-100.666 -56 -165.999 -56c-39.333 0 -79.333 5.33301 -120 16
c-42.667 11.333 -78.334 24.333 -107.001 39zM427 806.999l-6 -5l-157 97l-157 -97l-6 5l160 155h6z" />
    <glyph glyph-name="scircumflex" unicode="&#x15d;" horiz-adv-x="421" 
d="M23 40l11.9971 38.999c49.333 -51.333 108.333 -77 177 -77c40.667 0 73.834 10.167 99.501 30.5s38.5 46.833 38.5 79.5c0 20 -5.66699 37.667 -17 53c-17.333 22 -53.333 44.667 -108 68l-40 18c-31.333 14 -57.666 27 -78.999 39c-48 28 -72 66.333 -72 115
c0 40 16 72.167 48 96.5s73.667 36.5 125 36.5c64.667 0 121.334 -14.333 170.001 -43l-12 -38c-50.667 44.667 -105.334 67 -164.001 67c-35.333 0 -63.666 -9 -84.999 -27s-32 -40.667 -32 -68c0 -19.333 6 -36.666 18 -51.999c11.333 -12.667 23.833 -23 37.5 -31
s36.834 -19 69.501 -33l40 -18c31.333 -14 56.666 -26.667 75.999 -38c49.333 -28.667 74 -68.667 74 -120c0 -44.667 -17.667 -80.667 -53 -108s-82 -41 -140 -41c-70.667 0 -131.667 17.333 -183 52zM347.997 610.999l-6 -5l-139 105l-139 -105l-6 5l142 165h6z" />
    <glyph glyph-name="Scedilla" unicode="&#x15e;" horiz-adv-x="529" 
d="M275 -12l-20 -43c30.667 -2 55.334 -10.5 74.001 -25.5s28 -33.167 28 -54.5c0 -24 -10 -43.667 -30 -59s-45 -23 -75 -23c-26.667 0 -51.334 5 -74.001 15l3 9c16.667 -6 36.667 -9 60 -9c22.667 0 41 5 55 15s21 22.667 21 38c0 14 -7.16699 25.833 -21.5 35.5
s-32.5 14.5 -54.5 14.5h-25l39 87c-40 1.33301 -79 7 -117 17c-42 11.333 -76.667 24 -104 38l15 49c23.333 -25.333 56 -46.666 98 -63.999c42 -16 82.333 -24 121 -24c50 0 91.333 14 124 42s49 64 49 108c-1.33301 44.667 -14.666 79.334 -39.999 104.001
s-65.333 50.334 -120 77.001l-50 23c-40 19.333 -71.333 36.333 -94 51c-60 39.333 -90 89.333 -90 150c0 52.667 20.333 96 61 130s93 51 157 51c73.333 0 140 -18.333 200 -55l-12 -44c-58.667 55.333 -124.334 83 -197.001 83c-46.667 0 -83.834 -12.333 -111.501 -37
s-41.5 -56.334 -41.5 -95.001c0 -28 7 -52 21 -72c13.333 -18.667 30 -34.834 50 -48.501s49 -29.5 87 -47.5l50 -23c38.667 -18 71.334 -36 98.001 -54c57.333 -37.333 86 -89.333 86 -156c0 -58.667 -20.833 -106.334 -62.5 -143.001s-94.167 -56.667 -157.5 -60z" />
    <glyph glyph-name="scedilla" unicode="&#x15f;" horiz-adv-x="421" 
d="M217 -12l-20.0029 -43c30.667 -2 55.334 -10.5 74.001 -25.5s28 -33.167 28 -54.5c0 -24 -10 -43.667 -30 -59s-45 -23 -75 -23c-26.667 0 -51.334 5 -74.001 15l3 9c16.667 -6 36.667 -9 60 -9c22.667 0 41 5 55 15s21 22.667 21 38c0 14 -7.16699 25.833 -21.5 35.5
s-32.5 14.5 -54.5 14.5h-25l39 87c-68 3.33301 -126 20.666 -174 51.999l12 39c49.333 -51.333 108.333 -77 177 -77c40.667 0 73.834 10.167 99.501 30.5s38.5 46.833 38.5 79.5c0 20 -5.66699 37.667 -17 53c-17.333 22 -53.333 44.667 -108 68l-40 18
c-31.333 14 -57.666 27 -78.999 39c-48 28 -72 66.333 -72 115c0 40 16 72.167 48 96.5s73.667 36.5 125 36.5c64.667 0 121.334 -14.333 170.001 -43l-12 -38c-50.667 44.667 -105.334 67 -164.001 67c-35.333 0 -63.666 -9 -84.999 -27s-32 -40.667 -32 -68
c0 -19.333 6 -36.666 18 -51.999c11.333 -12.667 23.833 -23 37.5 -31s36.834 -19 69.501 -33l40 -18c31.333 -14 56.666 -26.667 75.999 -38c49.333 -28.667 74 -68.667 74 -120c0 -43.333 -16.5 -78.5 -49.5 -105.5s-77.167 -41.5 -132.5 -43.5z" />
    <glyph glyph-name="Scaron" unicode="&#x160;" horiz-adv-x="529" 
d="M34 43l15 48.999c23.333 -25.333 56 -46.666 98 -63.999c42 -16 82.333 -24 121 -24c50 0 91.333 14 124 42s49 64 49 108c-1.33301 44.667 -14.666 79.334 -39.999 104.001s-65.333 50.334 -120 77.001l-50 23c-40 19.333 -71.333 36.333 -94 51
c-60 39.333 -90 89.333 -90 150c0 52.667 20.333 96 61 130s93 51 157 51c73.333 0 140 -18.333 200 -55l-12 -44c-58.667 55.333 -124.334 83 -197.001 83c-46.667 0 -83.834 -12.333 -111.501 -37s-41.5 -56.334 -41.5 -95.001c0 -28 7 -52 21 -72
c13.333 -18.667 30 -34.834 50 -48.501s49 -29.5 87 -47.5l50 -23c38.667 -18 71.334 -36 98.001 -54c57.333 -37.333 86 -89.333 86 -156c0 -60.667 -22.667 -109.667 -68 -147s-100.666 -56 -165.999 -56c-39.333 0 -79.333 5.33301 -120 16
c-42.667 11.333 -78.334 24.333 -107.001 39zM421 961.999l6 -5l-160 -155h-6l-160 155l6 5l157 -97z" />
    <glyph glyph-name="scaron" unicode="&#x161;" horiz-adv-x="421" 
d="M23 40l11.9971 38.999c49.333 -51.333 108.333 -77 177 -77c40.667 0 73.834 10.167 99.501 30.5s38.5 46.833 38.5 79.5c0 20 -5.66699 37.667 -17 53c-17.333 22 -53.333 44.667 -108 68l-40 18c-31.333 14 -57.666 27 -78.999 39c-48 28 -72 66.333 -72 115
c0 40 16 72.167 48 96.5s73.667 36.5 125 36.5c64.667 0 121.334 -14.333 170.001 -43l-12 -38c-50.667 44.667 -105.334 67 -164.001 67c-35.333 0 -63.666 -9 -84.999 -27s-32 -40.667 -32 -68c0 -19.333 6 -36.666 18 -51.999c11.333 -12.667 23.833 -23 37.5 -31
s36.834 -19 69.501 -33l40 -18c31.333 -14 56.666 -26.667 75.999 -38c49.333 -28.667 74 -68.667 74 -120c0 -44.667 -17.667 -80.667 -53 -108s-82 -41 -140 -41c-70.667 0 -131.667 17.333 -183 52zM341.997 775.999l6 -5l-142 -165h-6l-142 165l6 5l139 -104z" />
    <glyph glyph-name="uni0162" unicode="&#x162;" horiz-adv-x="550" 
d="M528 728l13 -49h-2c-74 20.667 -141.333 31 -202 31h-27v-710h-69v710h-28c-60 0 -127 -10.333 -201 -31h-2l12 49h506zM368 -135c0 -24 -10.001 -43.667 -30.001 -59s-45 -23 -75 -23c-26 0 -50.667 5 -74 15l3 9c16.667 -6 36.667 -9 60 -9c22.667 0 41 5 55 15
s21 22.667 21 38c0 14 -7.16699 25.833 -21.5 35.5s-32.5 14.5 -54.5 14.5h-25l44 99h20l-25 -55c30.667 -2 55.334 -10.5 74.001 -25.5s28 -33.167 28 -54.5z" />
    <glyph glyph-name="uni0163" unicode="&#x163;" horiz-adv-x="343" 
d="M317 -135c0 -24 -10 -43.667 -30 -59s-45.333 -23 -76 -23c-26 0 -50.667 5 -74 15l3 9c16.667 -6 36.667 -9 60 -9c22.667 0 41 5 55 15s21 22.667 21 38c0 14 -7.16699 25.833 -21.5 35.5s-32.5 14.5 -54.5 14.5h-25l39 87c-48 2 -79 16.333 -93 43
c-14 27.333 -21 57.666 -21 90.999v382h-84v17l79 5l65 162h4v-162h180l-14 -22h-166v-376c0 -29.333 5 -55.666 15 -78.999c10.667 -22.667 35 -34 73 -34c30 0 59.667 8.33301 89 25l8 -12c-38.667 -24 -77 -37.333 -115 -40l-20 -43c31.333 -2 56.333 -10.333 75 -25
s28 -33 28 -55z" />
    <glyph glyph-name="Tcaron" unicode="&#x164;" horiz-adv-x="550" 
d="M528 728l13 -49h-2c-74 20.667 -141.333 31 -202 31h-27v-710h-69v710h-28c-60 0 -127 -10.333 -201 -31h-2l12 49h506zM432 962l6 -5l-160 -155h-6l-160 155l6 5l157 -97z" />
    <glyph glyph-name="tcaron" unicode="&#x165;" horiz-adv-x="343" 
d="M341 40l7.99902 -12.001c-42.667 -26.667 -85 -40 -127 -40c-51.333 0 -84.666 13.667 -99.999 41c-14.667 26.667 -22 57.667 -22 93v382h-84v17l79 5l65 162h4v-162h180l-14 -22h-166v-376c0 -29.333 5 -55.666 15 -78.999c10.667 -22.667 35 -34 73 -34
c30 0 59.667 8.33301 89 25zM277.999 572.999l-4 5c29.333 19.333 44 41.666 44 66.999c0 28.667 -17.667 53.667 -53 75l37 37c36 -17.333 54 -43.666 54 -78.999c0 -20 -7 -39.5 -21 -58.5s-33 -34.5 -57 -46.5z" />
    <glyph glyph-name="Tbar" unicode="&#x166;" horiz-adv-x="567" 
d="M346 710h-28v-325h136v-14h-136v-371h-69v371h-136v14h136v325h-27c-60.667 0 -128 -10.333 -202 -31h-2l13 49h506l12 -49h-2c-74 20.667 -141 31 -201 31z" />
    <glyph glyph-name="tbar" unicode="&#x167;" horiz-adv-x="358" 
d="M351 40l7.99902 -12c-42.667 -26.667 -85 -40 -127 -40c-51.333 0 -84.666 13.667 -99.999 41c-14.667 26.667 -22 57.667 -22 93v199h-84v14h84v169h-84v17l79 5l64 162h4v-162h181l-14 -22h-167v-169h176v-14h-176v-193c0 -30.667 5.33301 -57 16 -79
c10.667 -22.667 35 -34 73 -34c30 0 59.667 8.33301 89 25z" />
    <glyph glyph-name="Utilde" unicode="&#x168;" horiz-adv-x="643" 
d="M69 241v487.001h69v-483c0 -75.333 17.333 -132.5 52 -171.5s86 -58.5 154 -58.5c66.667 0 117.667 19.167 153 57.5s53 94.166 53 167.499v170c0 145.333 -4.33301 251.333 -13 318h47c-9.33301 -78 -14 -184 -14 -318v-165c0 -171.333 -83 -257 -249 -257
c-82 0 -144.5 21.667 -187.5 65s-64.5 106 -64.5 188zM165 814.001l-9.00195 2c10 64.667 37.667 97 83 97c20 0 55.667 -10.333 107 -31c42.667 -17.333 72 -26 88 -26c26.667 0 45.334 19 56.001 57l9 -2c-11.333 -64.667 -39 -97 -83 -97
c-21.333 0 -56.666 10 -105.999 30c-46 17.333 -75.667 26 -89 26c-26 0 -44.667 -18.667 -56 -56z" />
    <glyph glyph-name="utilde" unicode="&#x169;" horiz-adv-x="547" 
d="M485 89l22 -75l-59 -22l-26 86v4c-60.667 -62.667 -127.334 -94 -200.001 -94c-111.333 0 -167 62.333 -167 187v338l59 22h4v-356c0 -40.667 7.66699 -78 23 -112c16 -33.333 52 -50 108 -50c28.667 0 58.834 8 90.501 24s59.167 37.667 82.5 65v407l59 22h4v-446z
M118 618l-10 2c10.667 64.667 38.667 97 84 97c24 0 56.333 -10 97 -30c37.333 -17.333 64 -26 80 -26c26 0 44.667 18.667 56 56l9 -2c-10 -64.667 -37.667 -97 -83 -97c-21.333 0 -53.666 10.333 -96.999 31c-37.333 17.333 -64 26 -80 26
c-26.667 0 -45.334 -19 -56.001 -57z" />
    <glyph glyph-name="Umacron" unicode="&#x16a;" horiz-adv-x="643" 
d="M69 241v487.001h69v-483c0 -75.333 17.333 -132.5 52 -171.5s86 -58.5 154 -58.5c66.667 0 117.667 19.167 153 57.5s53 94.166 53 167.499v170c0 145.333 -4.33301 251.333 -13 318h47c-9.33301 -78 -14 -184 -14 -318v-165c0 -171.333 -83 -257 -249 -257
c-82 0 -144.5 21.667 -187.5 65s-64.5 106 -64.5 188zM173 821.001v26h309v-26h-309z" />
    <glyph glyph-name="umacron" unicode="&#x16b;" horiz-adv-x="547" 
d="M485 89l22 -75l-59 -22l-26 86v4c-60.667 -62.667 -127.334 -94 -200.001 -94c-111.333 0 -167 62.333 -167 187v338l59 22h4v-356c0 -40.667 7.66699 -78 23 -112c16 -33.333 52 -50 108 -50c28.667 0 58.834 8 90.501 24s59.167 37.667 82.5 65v407l59 22h4v-446z
M141 654v25h261v-25h-261z" />
    <glyph glyph-name="Ubreve" unicode="&#x16c;" horiz-adv-x="643" 
d="M69 241v487.001h69v-483c0 -75.333 17.333 -132.5 52 -171.5s86 -58.5 154 -58.5c66.667 0 117.667 19.167 153 57.5s53 94.166 53 167.499v170c0 145.333 -4.33301 251.333 -13 318h47c-9.33301 -78 -14 -184 -14 -318v-165c0 -171.333 -83 -257 -249 -257
c-82 0 -144.5 21.667 -187.5 65s-64.5 106 -64.5 188zM170 952.001l9 2.99902c12 -28.667 31.333 -52.167 58 -70.5s56.667 -27.5 90 -27.5c34 0 64.333 9.16699 91 27.5s46 41.833 58 70.5l9 -3c-11.333 -41.333 -30.5 -74.666 -57.5 -99.999s-60.5 -38 -100.5 -38
s-73.333 12.5 -100 37.5s-45.667 58.5 -57 100.5z" />
    <glyph glyph-name="ubreve" unicode="&#x16d;" horiz-adv-x="547" 
d="M485 89l22 -75l-59 -22l-26 86v4c-60.667 -62.667 -127.334 -94 -200.001 -94c-111.333 0 -167 62.333 -167 187v338l59 22h4v-356c0 -40.667 7.66699 -78 23 -112c16 -33.333 52 -50 108 -50c28.667 0 58.834 8 90.501 24s59.167 37.667 82.5 65v407l59 22h4v-446z
M123 757l9.00098 3c12 -30.667 30 -54.834 54 -72.501s52.333 -26.5 85 -26.5c33.333 0 62 8.83301 86 26.5s42 41.834 54 72.501l9 -3c-24.667 -92.667 -74.334 -139 -149.001 -139c-74 0 -123.333 46.333 -148 139z" />
    <glyph glyph-name="Uring" unicode="&#x16e;" horiz-adv-x="643" 
d="M69 241v487.001h69v-483c0 -75.333 17.333 -132.5 52 -171.5s86 -58.5 154 -58.5c66.667 0 117.667 19.167 153 57.5s53 94.166 53 167.499v170c0 145.333 -4.33301 251.333 -13 318h47c-9.33301 -78 -14 -184 -14 -318v-165c0 -171.333 -83 -257 -249 -257
c-82 0 -144.5 21.667 -187.5 65s-64.5 106 -64.5 188zM226 898.001c0 28 9.83301 51.167 29.5 69.5s43.5 27.5 71.5 27.5s51.833 -9.16699 71.5 -27.5s29.5 -41.5 29.5 -69.5c0 -27.333 -9.83301 -50.166 -29.5 -68.499s-43.5 -27.5 -71.5 -27.5s-51.833 9.16699 -71.5 27.5
s-29.5 41.166 -29.5 68.499zM392 898.001c0 26 -5.66699 46.667 -17 62s-27.333 23 -48 23s-36.667 -7.66699 -48 -23s-17 -36 -17 -62s5.66699 -46.5 17 -61.5s27.333 -22.5 48 -22.5s36.667 7.5 48 22.5s17 35.5 17 61.5z" />
    <glyph glyph-name="uring" unicode="&#x16f;" horiz-adv-x="547" 
d="M485 89l22 -75l-59 -22l-26 86v4c-60.667 -62.667 -127.334 -94 -200.001 -94c-111.333 0 -167 62.333 -167 187v338l59 22h4v-356c0 -40.667 7.66699 -78 23 -112c16 -33.333 52 -50 108 -50c28.667 0 58.834 8 90.501 24s59.167 37.667 82.5 65v407l59 22h4v-446z
M170 703c0 27.333 9.83301 50.166 29.5 68.499s43.5 27.5 71.5 27.5s51.833 -9.16699 71.5 -27.5s29.5 -41.166 29.5 -68.499c0 -28 -9.83301 -51.167 -29.5 -69.5s-43.5 -27.5 -71.5 -27.5s-51.833 9.16699 -71.5 27.5s-29.5 41.5 -29.5 69.5zM336 703
c0 26 -5.83301 46.5 -17.5 61.5s-27.5 22.5 -47.5 22.5s-35.833 -7.5 -47.5 -22.5s-17.5 -35.5 -17.5 -61.5s5.66699 -46.667 17 -62s27.333 -23 48 -23s36.667 7.66699 48 23s17 36 17 62z" />
    <glyph glyph-name="Uhungarumlaut" unicode="&#x170;" horiz-adv-x="643" 
d="M69 241v487.001h69v-483c0 -75.333 17.333 -132.5 52 -171.5s86 -58.5 154 -58.5c66.667 0 117.667 19.167 153 57.5s53 94.166 53 167.499v170c0 145.333 -4.33301 251.333 -13 318h47c-9.33301 -78 -14 -184 -14 -318v-165c0 -171.333 -83 -257 -249 -257
c-82 0 -144.5 21.667 -187.5 65s-64.5 106 -64.5 188zM252 802.001l-7 5l78 155h84zM378 802.001l-7 5l77 155h84z" />
    <glyph glyph-name="uhungarumlaut" unicode="&#x171;" horiz-adv-x="547" 
d="M485 89l22 -75l-59 -22l-26 86v4c-60.667 -62.667 -127.334 -94 -200.001 -94c-111.333 0 -167 62.333 -167 187v338l59 22h4v-356c0 -40.667 7.66699 -78 23 -112c16 -33.333 52 -50 108 -50c28.667 0 58.834 8 90.501 24s59.167 37.667 82.5 65v407l59 22h4v-446z
M195 606l-7 5l79 165h75zM320 606l-7 5l80 165h75z" />
    <glyph glyph-name="Uogonek" unicode="&#x172;" horiz-adv-x="643" 
d="M537 728l47 0.00292969c-9.33301 -78 -14 -184 -14 -318v-165c0 -156.667 -70.333 -241.667 -211 -255c-40 -45.333 -60 -85.333 -60 -120c0 -18 5.5 -32.5 16.5 -43.5s24.833 -16.5 41.5 -16.5c15.333 0 36 4.66699 62 14l3 -5c-33.333 -24 -66.666 -36 -99.999 -36
c-22.667 0 -41.334 6.5 -56.001 19.5s-22 30.167 -22 51.5s7.5 42.166 22.5 62.499s38.833 44.166 71.5 71.499h-17c-82 0 -144.5 21.667 -187.5 65s-64.5 106 -64.5 188v487h69v-483c0 -75.333 17.333 -132.5 52 -171.5s86 -58.5 154 -58.5
c66.667 0 117.667 19.167 153 57.5s53 94.166 53 167.499v170c0 145.333 -4.33301 251.333 -13 318z" />
    <glyph glyph-name="uogonek" unicode="&#x173;" horiz-adv-x="547" 
d="M511 -176l2.99902 -5c-33.333 -24 -66.666 -36 -99.999 -36c-22.667 0 -41.334 6.5 -56.001 19.5s-22 30.167 -22 51.5c0 26 11 52.333 33 79c20.667 25.333 46.334 48 77.001 68l-24 77v4c-60.667 -62.667 -127.334 -94 -200.001 -94c-111.333 0 -167 62.333 -167 187
v338l59 22h4v-356c0 -40.667 7.66699 -78 23 -112c16 -33.333 52 -50 108 -50c28.667 0 58.834 8 90.501 24s59.167 37.667 82.5 65v407l59 22h4v-446l22 -75l-30 -13c-22.667 -8.66699 -42.667 -26 -60 -52c-16.667 -24.667 -25 -50.667 -25 -78
c0 -18 5.5 -32.667 16.5 -44s24.833 -17 41.5 -17c14.667 0 35 4.66699 61 14z" />
    <glyph glyph-name="Wcircumflex" unicode="&#x174;" horiz-adv-x="940" 
d="M884 728h50c-22 -58 -54 -149.667 -96 -275l-15 -44l-143 -422h-4l-205 613l-209 -613h-4l-250 741h73l205 -613l209 613h4l205 -612l100 299c40 116 66.667 220.333 80 313zM660 807l-6 -5l-157 97l-157 -97l-6 5l160 155h6z" />
    <glyph glyph-name="wcircumflex" unicode="&#x175;" horiz-adv-x="749" 
d="M693 526h50c-29.333 -68 -68.333 -167.667 -117 -299l-89 -239h-8l-153 428l-153 -428h-8l-209 538h68l168 -433l154 433h7l155 -430l51 139c48 128.667 76 225.667 84 291zM540 611l-6 -5l-139 105l-139 -105l-6 5l142 165h6z" />
    <glyph glyph-name="Ycircumflex" unicode="&#x176;" horiz-adv-x="566" 
d="M379 431l-61 -107v-324h-68v320l-237 408h79l217 -381l53 93c72 125.333 118.667 221.333 140 288h51zM456 807l-6 -5l-157 97l-157 -97l-6 5l160 155h6z" />
    <glyph glyph-name="ycircumflex" unicode="&#x177;" horiz-adv-x="472" 
d="M419 526l48 -0.000976562c-18 -39.333 -36 -81.666 -54 -126.999l-41 -99l-27 -68l-129 -317c-40.667 -99.333 -110 -149 -208 -149l4 48c12 -3.33301 26 -5 42 -5c29.333 0 57 9.16699 83 27.5s46 44.833 60 79.5l34 86l-227 524h68l192 -442l64 155
c52.667 129.333 83 225 91 287zM384 610.999l-6 -5l-139 105l-139 -105l-6 5l142 165h6z" />
    <glyph glyph-name="Ydieresis" unicode="&#x178;" horiz-adv-x="566" 
d="M379 431l-61 -107v-324h-68v320l-237 408h79l217 -381l53 93c72 125.333 118.667 221.333 140 288h51zM201 820l-50 49l50 49l48 -49zM386 820l-50 49l50 49l48 -49z" />
    <glyph glyph-name="Zacute" unicode="&#x179;" horiz-adv-x="522" 
d="M510 48h2l-17 -48h-490v4l417 706h-74c-140 0 -247 -9.33301 -321 -28h-2l12 46h471v-4l-417 -706h89c137.333 0 247.333 10 330 30zM255 802l-7 5l77 155h98z" />
    <glyph glyph-name="zacute" unicode="&#x17a;" horiz-adv-x="419" 
d="M410 38h2.99902l-11 -38h-390v4l311 507h-71c-81.333 0 -158.333 -6.66699 -231 -20h-3l8 35h375v-4l-311 -507h78c84.667 0 165.334 7.66699 242.001 23zM201.999 606l-7 5l79 165h85z" />
    <glyph glyph-name="Zdotaccent" unicode="&#x17b;" horiz-adv-x="522" 
d="M510 48h2l-17 -48h-490v4l417 706h-74c-140 0 -247 -9.33301 -321 -28h-2l12 46h471v-4l-417 -706h89c137.333 0 247.333 10 330 30zM268 820l-57 56l57 57l57 -57z" />
    <glyph glyph-name="zdotaccent" unicode="&#x17c;" horiz-adv-x="419" 
d="M410 38h2.99902l-11 -38h-390v4l311 507h-71c-81.333 0 -158.333 -6.66699 -231 -20h-3l8 35h375v-4l-311 -507h78c84.667 0 165.334 7.66699 242.001 23zM213.999 624l-53 53l53 53l53 -53z" />
    <glyph glyph-name="Zcaron" unicode="&#x17d;" horiz-adv-x="522" 
d="M510 48h2l-17 -48h-490v4l417 706h-74c-140 0 -247 -9.33301 -321 -28h-2l12 46h471v-4l-417 -706h89c137.333 0 247.333 10 330 30zM425 962l6 -5l-160 -155h-6l-160 155l6 5l157 -97z" />
    <glyph glyph-name="zcaron" unicode="&#x17e;" horiz-adv-x="419" 
d="M410 38h2.99902l-11 -38h-390v4l311 507h-71c-81.333 0 -158.333 -6.66699 -231 -20h-3l8 35h375v-4l-311 -507h78c84.667 0 165.334 7.66699 242.001 23zM352.999 776l6 -5l-142 -165h-6l-142 165l6 5l139 -104z" />
    <glyph glyph-name="longs" unicode="&#x17f;" horiz-adv-x="202" 
d="M59 0l-0.000976562 627c0 60.667 14 107 42 139s68 48 120 48c50.667 0 99 -13 145 -39l-6 -12c-37.333 16 -74.666 24 -111.999 24c-83.333 0 -125 -54.667 -125 -164v-623h-64z" />
    <glyph glyph-name="florin" unicode="&#x192;" horiz-adv-x="581" 
d="M355 564l-27 -190h158l-5 -18h-155l-54 -384c-17.333 -124 -68 -186 -152 -186c-36.667 0 -71.334 11.667 -104.001 35l6 12c26.667 -15.333 55 -23 85 -23c32.667 0 58.5 13.667 77.5 41s32.5 70.333 40.5 129l53 376h-145v18h147l28 198c17.333 124 68 186 152 186
c36.667 0 71.334 -11.667 104.001 -35l-6 -12c-26.667 15.333 -55 23 -85 23c-32.667 0 -58.5 -13.667 -77.5 -41s-32.5 -70.333 -40.5 -129z" />
    <glyph glyph-name="Aringacute" unicode="&#x1fa;" horiz-adv-x="599" 
d="M448 1040l-167 -95l-7 5l76 90h98zM520 0l-94 241h-303c-22 -58 -37.667 -104 -47 -138c-9.33301 -36.667 -16.333 -71 -21 -103h-53l60 142c10 24 22.667 56.333 38 97l31 79l157 398c-26 2.66699 -47.333 12.834 -64 30.501s-25 39.167 -25 64.5
c0 28 9.83301 51.167 29.5 69.5s43.5 27.5 71.5 27.5c28.667 0 52.667 -9.16699 72 -27.5s29 -41.5 29 -69.5c0 -25.333 -8.33301 -46.833 -25 -64.5s-38 -27.834 -64 -30.501l283 -716h-75zM300 727c20 0 35.833 7.5 47.5 22.5s17.5 35.5 17.5 61.5s-5.66699 46.667 -17 62
s-27.333 23 -48 23s-36.667 -7.66699 -48 -23s-17 -36 -17 -62s5.83301 -46.5 17.5 -61.5s27.5 -22.5 47.5 -22.5zM130 259h289l-144 368l-125 -316z" />
    <glyph glyph-name="aringacute" unicode="&#x1fb;" horiz-adv-x="489" 
d="M384 936l-157 -105l-7 5l79 100h85zM133 703c0 27.333 9.66699 50.166 29 68.499s43.333 27.5 72 27.5c28 0 51.833 -9.16699 71.5 -27.5s29.5 -41.166 29.5 -68.499c0 -28 -9.83301 -51.167 -29.5 -69.5s-43.5 -27.5 -71.5 -27.5c-28.667 0 -52.667 9.16699 -72 27.5
s-29 41.5 -29 69.5zM169 703c0 -26 5.66699 -46.667 17 -62s27.333 -23 48 -23s36.667 7.66699 48 23s17 36 17 62s-5.83301 46.5 -17.5 61.5s-27.5 22.5 -47.5 22.5s-35.833 -7.5 -47.5 -22.5s-17.5 -35.5 -17.5 -61.5zM481 21l0.000976562 -6
c-24.667 -13.333 -46.667 -20 -66 -20c-40 0 -62 24.333 -66 73c-26 -24 -56.333 -43 -91 -57s-68.334 -21 -101.001 -21c-42 0 -75.667 10.833 -101 32.5s-38 50.834 -38 87.501c0 45.333 20.167 82.166 60.5 110.499s96.5 46.5 168.5 54.5c36 4 70 7 102 9v59
c0 111.333 -44.333 167 -133 167c-52 0 -102.667 -20.667 -152 -62l-9 11c58.667 52.667 120.667 79 186 79c58 0 101.167 -15.333 129.5 -46s42.5 -77.667 42.5 -141v-256c0 -30.667 2.66699 -51 8 -61s19 -15 41 -15c2 0 8.33301 0.666992 19 2zM194.001 19
c56.667 0 108.334 22.666 155.001 67.999v183c-92 -8.66699 -159.333 -23.667 -202 -45s-64 -54.666 -64 -99.999c0 -33.333 10.167 -59.333 30.5 -78s47.166 -28 80.499 -28z" />
    <glyph glyph-name="AEacute" unicode="&#x1fc;" horiz-adv-x="881" 
d="M862 48l2 -0.000976562l-17 -48h-415v262h-264c-60 -107.333 -101.667 -194.666 -125 -261.999h-55l434 728h411l12 -46h-2c-93.333 18.667 -186 28 -278 28h-64v-322h58c102 0 173 3.66699 213 11h2v-42h-2c-43.333 8.66699 -114.333 13 -213 13h-58v-352h65
c108 0 206.667 10 296 30zM179 279.999h253v427l-234 -394c-4 -5.33301 -10.333 -16.333 -19 -33zM468 801.999l-7 5l77 155h98z" />
    <glyph glyph-name="aeacute" unicode="&#x1fd;" horiz-adv-x="839" 
d="M793 122l12 -6.99902c-54.667 -84.667 -127.334 -127 -218.001 -127c-42.667 0 -81.5 10 -116.5 30s-62.833 47.667 -83.5 83c-63.333 -74 -139 -111 -227 -111c-42 0 -75.667 10.667 -101 32s-38 50.666 -38 87.999c0 46 20.667 85.667 62 119
c42.667 33.333 98.334 55 167.001 65c32.667 5.33301 67 10.333 103 15v34c0 56 -11 97.833 -33 125.5s-56.333 41.5 -103 41.5c-54 0 -107.667 -20.667 -161 -62l-9 11c64.667 52.667 130.667 79 198 79c84.667 0 137.334 -33.667 158.001 -101
c49.333 67.333 116.666 101 201.999 101c64.667 0 115.5 -21 152.5 -63s55.5 -99.667 55.5 -173h-395c-0.666992 -3.33301 -1 -12 -1 -26c0 -78 18.333 -140 55 -186s83.334 -69 140.001 -69c33.333 0 66.666 9 99.999 27s60.333 42.667 81 74zM419 318.001h327
c0.666992 62.667 -12.5 112.667 -39.5 150s-63.5 56 -109.5 56s-85.667 -19 -119 -57c-32 -37.333 -51.667 -87 -59 -149zM197 19.001c59.333 0 111.335 22.333 156.002 67v209c-92.667 -16 -160.334 -36.833 -203.001 -62.5s-64 -61.5 -64 -107.5
c0 -33.333 10.167 -59.333 30.5 -78s47.166 -28 80.499 -28zM393.002 606.001l-7 5l79 165h85z" />
    <glyph glyph-name="Oslashacute" unicode="&#x1fe;" horiz-adv-x="824" 
d="M785 370c1.33301 -111.333 -35 -203.167 -109 -275.5s-164 -107.833 -270 -106.5c-81.333 0 -151.666 20.333 -210.999 61l-73 -100l-16 11l73 100c-44.667 32.667 -79.167 74.5 -103.5 125.5s-36.5 108.5 -36.5 172.5c-1.33301 111.333 35 203.166 109 275.499
s164 107.833 270 106.5c81.333 0 151.666 -20.333 210.999 -61l73 100l16 -11l-73 -100c93.333 -71.333 140 -170.666 140 -297.999zM207 97.999l396.999 546c-53.333 53.333 -118 80 -194 80c-84.667 1.33301 -155.167 -31.667 -211.5 -99s-84.166 -153 -83.499 -257
c0 -112.667 30.667 -202.667 92 -270zM708.999 359.999c0 112.667 -30.667 202.666 -92 269.999l-397 -546c53.333 -53.333 118.666 -80 195.999 -80c83.333 -1.33301 153.333 31.834 210 99.501s84.334 153.167 83.001 256.5zM398.999 801.998l-7 5l77 155h98z" />
    <glyph glyph-name="oslashacute" unicode="&#x1ff;" horiz-adv-x="578" 
d="M546 266c0 -82 -24.668 -148.833 -74.001 -200.5s-111.666 -77.5 -186.999 -77.5c-54 0 -101.333 13.333 -142 40l-53 -79l-15 10l53 79c-64.667 50.667 -97 124.667 -97 222c0 82 24.833 148.833 74.5 200.5s112.167 77.5 187.5 77.5c54 0 101.333 -13.333 142 -40
l52 79l15 -10l-53 -79c64.667 -50 97 -124 97 -222zM152.999 77l259 387.001c-34 40 -75.667 60 -125 60c-54 0 -98.5 -23.833 -133.5 -71.5s-52.5 -109.834 -52.5 -186.501s17.333 -139.667 52 -189zM475.999 260.001c0 76.667 -17.333 139.666 -52 188.999l-259 -387
c34 -40 75.667 -60 125 -60c54 0 98.5 23.833 133.5 71.5s52.5 109.834 52.5 186.501zM276.999 606l-7 5l79 165h85z" />
    <glyph glyph-name="uni0218" unicode="&#x218;" horiz-adv-x="529" 
d="M34 43l15 48.999c23.333 -25.333 56 -46.666 98 -63.999c42 -16 82.333 -24 121 -24c50 0 91.333 14 124 42s49 64 49 108c-1.33301 44.667 -14.666 79.334 -39.999 104.001s-65.333 50.334 -120 77.001l-50 23c-40 19.333 -71.333 36.333 -94 51
c-60 39.333 -90 89.333 -90 150c0 52.667 20.333 96 61 130s93 51 157 51c73.333 0 140 -18.333 200 -55l-12 -44c-58.667 55.333 -124.334 83 -197.001 83c-46.667 0 -83.834 -12.333 -111.501 -37s-41.5 -56.334 -41.5 -95.001c0 -28 7 -52 21 -72
c13.333 -18.667 30 -34.834 50 -48.501s49 -29.5 87 -47.5l50 -23c38.667 -18 71.334 -36 98.001 -54c57.333 -37.333 86 -89.333 86 -156c0 -60.667 -22.667 -109.667 -68 -147s-100.666 -56 -165.999 -56c-39.333 0 -79.333 5.33301 -120 16
c-42.667 11.333 -78.334 24.333 -107.001 39zM230 -274.001l-4.99902 7.00098c35.333 23.333 53 50.666 53 81.999c0 34.667 -21 64.667 -63 90l44 46c42.667 -20.667 64 -52.667 64 -96c0 -25.333 -8.33301 -49.5 -25 -72.5s-39.334 -41.833 -68.001 -56.5z" />
    <glyph glyph-name="uni0219" unicode="&#x219;" horiz-adv-x="421" 
d="M23 40l11.9971 38.999c49.333 -51.333 108.333 -77 177 -77c40.667 0 73.834 10.167 99.501 30.5s38.5 46.833 38.5 79.5c0 20 -5.66699 37.667 -17 53c-17.333 22 -53.333 44.667 -108 68l-40 18c-31.333 14 -57.666 27 -78.999 39c-48 28 -72 66.333 -72 115
c0 40 16 72.167 48 96.5s73.667 36.5 125 36.5c64.667 0 121.334 -14.333 170.001 -43l-12 -38c-50.667 44.667 -105.334 67 -164.001 67c-35.333 0 -63.666 -9 -84.999 -27s-32 -40.667 -32 -68c0 -19.333 6 -36.666 18 -51.999c11.333 -12.667 23.833 -23 37.5 -31
s36.834 -19 69.501 -33l40 -18c31.333 -14 56.666 -26.667 75.999 -38c49.333 -28.667 74 -68.667 74 -120c0 -44.667 -17.667 -80.667 -53 -108s-82 -41 -140 -41c-70.667 0 -131.667 17.333 -183 52zM177.997 -274.001l-4.99902 7.00098
c35.333 23.333 53 50.666 53 81.999c0 34.667 -21 64.667 -63 90l44 46c42.667 -20.667 64 -52.667 64 -96c0 -25.333 -8.33301 -49.5 -25 -72.5s-39.334 -41.833 -68.001 -56.5z" />
    <glyph glyph-name="uni021A" unicode="&#x21a;" horiz-adv-x="550" 
d="M528 728l13 -49h-2c-74 20.667 -141.333 31 -202 31h-27v-710h-69v710h-28c-60 0 -127 -10.333 -201 -31h-2l12 49h506zM241 -274l-4.99902 7.00098c35.333 23.333 53 50.666 53 81.999c0 34.667 -21 64.667 -63 90l44 46c42.667 -20.667 64 -52.667 64 -96
c0 -25.333 -8.33301 -49.5 -25 -72.5s-39.334 -41.833 -68.001 -56.5z" />
    <glyph glyph-name="uni021B" unicode="&#x21b;" horiz-adv-x="343" 
d="M341 40l7.99902 -12.001c-42.667 -26.667 -85 -40 -127 -40c-51.333 0 -84.666 13.667 -99.999 41c-14.667 26.667 -22 57.667 -22 93v382h-84v17l79 5l65 162h4v-162h180l-14 -22h-166v-376c0 -29.333 5 -55.666 15 -78.999c10.667 -22.667 35 -34 73 -34
c30 0 59.667 8.33301 89 25zM194.999 -274.001l-4.99902 7.00098c35.333 23.333 53 50.666 53 81.999c0 34.667 -21 64.667 -63 90l44 46c42.667 -20.667 64 -52.667 64 -96c0 -25.333 -8.33301 -49.5 -25 -72.5s-39.334 -41.833 -68.001 -56.5z" />
    <glyph glyph-name="uni0237" unicode="&#x237;" horiz-adv-x="193" 
d="M-55 -228l-4 11.999c39.333 7.33301 70.166 27.5 92.499 60.5s33.5 75.167 33.5 126.5v542l60 22h4v-562c0 -55.333 -16.667 -100.666 -50 -135.999s-78.666 -57 -135.999 -65z" />
    <glyph glyph-name="uni0259" unicode="&#x259;" horiz-adv-x="523" 
d="M491 269c0 -83.333 -24.3291 -151 -72.9961 -203s-110 -78 -184 -78c-65.333 0 -116.5 21 -153.5 63s-55.167 99.667 -54.5 173h395c0.666992 4 1 12.667 1 26c0 78 -18.333 140 -55 186s-83.334 69 -140.001 69c-34.667 0 -68.334 -8.66699 -101.001 -26
s-59.334 -42 -80.001 -74l-12 7c54.667 84 127 126 217 126c69.333 0 126.666 -25.167 171.999 -75.5s68 -114.833 68 -193.5zM420.004 208h-328c0 -62.667 13.333 -112.667 40 -150s63 -56 109 -56s85.667 19 119 57c32.667 38 52.667 87.667 60 149z" />
    <glyph glyph-name="uni02BB" unicode="&#x2bb;" horiz-adv-x="142" 
d="M27 701c0 20 7 39.5 21 58.5s32.667 34.5 56 46.5l4 -5c-29.333 -19.333 -44 -41.666 -44 -66.999c0 -28 17.667 -52.667 53 -74l-37 -38c-35.333 17.333 -53 43.666 -53 78.999z" />
    <glyph glyph-name="uni02BC" unicode="&#x2bc;" horiz-adv-x="144" 
d="M42 622l-4 5c29.333 19.333 44 41.666 44 66.999c0 29.333 -17.667 54 -53 74l37 38c36 -17.333 54 -43.666 54 -78.999c0 -20 -7 -39.5 -21 -58.5s-33 -34.5 -57 -46.5z" />
    <glyph glyph-name="circumflex" unicode="&#x2c6;" horiz-adv-x="600" 
d="M445 611l-6 -5l-139 105l-139 -105l-6 5l142 165h6z" />
    <glyph glyph-name="caron" unicode="&#x2c7;" horiz-adv-x="600" 
d="M439 776l6 -5l-142 -165h-6l-142 165l6 5l139 -104z" />
    <glyph glyph-name="uni02C9" unicode="&#x2c9;" horiz-adv-x="600" 
d="M170 654v25h261v-25h-261z" />
    <glyph glyph-name="breve" unicode="&#x2d8;" horiz-adv-x="600" 
d="M152 757l9.00098 3c12 -30.667 30 -54.834 54 -72.501s52.333 -26.5 85 -26.5c33.333 0 62 8.83301 86 26.5s42 41.834 54 72.501l9 -3c-24.667 -92.667 -74.334 -139 -149.001 -139c-74 0 -123.333 46.333 -148 139z" />
    <glyph glyph-name="dotaccent" unicode="&#x2d9;" horiz-adv-x="600" 
d="M309 624l-53 53l53 53l53 -53z" />
    <glyph glyph-name="ring" unicode="&#x2da;" horiz-adv-x="600" 
d="M208 703c0 27.333 9.83301 50.166 29.5 68.499s43.5 27.5 71.5 27.5c28.667 0 52.667 -9.16699 72 -27.5s29 -41.166 29 -68.499c0 -28 -9.66699 -51.167 -29 -69.5s-43.333 -27.5 -72 -27.5c-28 0 -51.833 9.16699 -71.5 27.5s-29.5 41.5 -29.5 69.5zM374 703
c0 26 -5.83301 46.5 -17.5 61.5s-27.5 22.5 -47.5 22.5s-35.833 -7.5 -47.5 -22.5s-17.5 -35.5 -17.5 -61.5s5.66699 -46.667 17 -62s27.333 -23 48 -23s36.667 7.66699 48 23s17 36 17 62z" />
    <glyph glyph-name="ogonek" unicode="&#x2db;" horiz-adv-x="600" 
d="M264 -146c0 22.667 8.5 44.668 25.5 66.001s45.167 48.333 84.5 81h15c-46.667 -48.667 -70 -92.334 -70 -131.001c0 -18 5.5 -32.5 16.5 -43.5s24.833 -16.5 41.5 -16.5c15.333 0 36 4.66699 62 14l3 -5c-33.333 -24 -66.666 -36 -99.999 -36
c-22.667 0 -41.334 6.5 -56.001 19.5s-22 30.167 -22 51.5z" />
    <glyph glyph-name="tilde" unicode="&#x2dc;" horiz-adv-x="600" 
d="M140 618l-9.00293 2.00098c10.667 64.667 38.334 97 83.001 97c18.667 0 51.334 -10 98.001 -30c37.333 -17.333 64 -26 80 -26c26 0 44.667 18.667 56 56l9 -2c-11.333 -64.667 -39 -97 -83 -97c-22 0 -54.667 10.333 -98 31c-40 17.333 -66.333 26 -79 26
c-15.333 0 -27.166 -4.33301 -35.499 -13s-15.5 -23.334 -21.5 -44.001z" />
    <glyph glyph-name="hungarumlaut" unicode="&#x2dd;" horiz-adv-x="600" 
d="M184 606l-7 5l79 165h75zM309 606l-7 5l79 165h76z" />
    <glyph glyph-name="gravecomb" unicode="&#x300;" 
d="M-187 606l-157 170h85l79 -165z" />
    <glyph glyph-name="acutecomb" unicode="&#x301;" 
d="M-212 606l-7 5l79 165h85z" />
    <glyph glyph-name="uni0302" unicode="&#x302;" 
d="M-55 611l-6 -5l-139 105l-139 -105l-6 5l142 165h6z" />
    <glyph glyph-name="tildecomb" unicode="&#x303;" 
d="M-353 618l-9.99902 2c10.667 64.667 38.667 97 84 97c23.333 0 55.666 -10 96.999 -30c37.333 -17.333 64 -26 80 -26c26 0 44.667 18.667 56 56l9 -2c-10 -64.667 -37.667 -97 -83 -97c-21.333 0 -53.666 10.333 -96.999 31c-37.333 17.333 -64 26 -80 26
c-26.667 0 -45.334 -19 -56.001 -57z" />
    <glyph glyph-name="uni0304" unicode="&#x304;" 
d="M-330 654v25h261v-25h-261z" />
    <glyph glyph-name="uni0306" unicode="&#x306;" 
d="M-348 757l9.00098 3c12 -30.667 30 -54.834 54 -72.501s52.333 -26.5 85 -26.5c33.333 0 62 8.83301 86 26.5s42 41.834 54 72.501l9 -3c-24.667 -92.667 -74.334 -139 -149.001 -139c-74 0 -123.333 46.333 -148 139z" />
    <glyph glyph-name="uni0307" unicode="&#x307;" 
d="M-200 624l-53 53l53 53l53 -53z" />
    <glyph glyph-name="uni0308" unicode="&#x308;" 
d="M-290 624l-50 49l50 49l48 -49zM-113 624l-49 49l49 49l49 -49z" />
    <glyph glyph-name="uni030A" unicode="&#x30a;" 
d="M-301 703c0 27.333 9.83301 50.166 29.5 68.499s43.5 27.5 71.5 27.5s51.833 -9.16699 71.5 -27.5s29.5 -41.166 29.5 -68.499c0 -28 -9.83301 -51.167 -29.5 -69.5s-43.5 -27.5 -71.5 -27.5s-51.833 9.16699 -71.5 27.5s-29.5 41.5 -29.5 69.5zM-135 703
c0 26 -5.83301 46.5 -17.5 61.5s-27.5 22.5 -47.5 22.5s-35.833 -7.5 -47.5 -22.5s-17.5 -35.5 -17.5 -61.5s5.66699 -46.667 17 -62s27.333 -23 48 -23s36.667 7.66699 48 23s17 36 17 62z" />
    <glyph glyph-name="uni030B" unicode="&#x30b;" 
d="M-376 606l-7 5l79 165h75zM-251 606l-7 5l80 165h75z" />
    <glyph glyph-name="uni030C" unicode="&#x30c;" 
d="M-61 776l6 -5l-142 -165h-6l-142 165l6 5l139 -104z" />
    <glyph glyph-name="uni0312" unicode="&#x312;" 
d="M-244 692c0 20 7 39.501 21 58.501s33 34.5 57 46.5l4 -5c-29.333 -19.333 -44 -41.666 -44 -66.999c0 -28.667 17.333 -53.334 52 -74.001l-37 -38c-35.333 17.333 -53 43.666 -53 78.999z" />
    <glyph glyph-name="uni0313" unicode="&#x313;" 
d="M-230 613l-4 5c29.333 19.333 44 41.666 44 66.999c0 28.667 -17.667 53.667 -53 75l37 37c36 -17.333 54 -43.666 54 -78.999c0 -20 -7 -39.5 -21 -58.5s-33 -34.5 -57 -46.5z" />
    <glyph glyph-name="uni0326" unicode="&#x326;" 
d="M-234 -274l-4.99902 7.00098c35.333 23.333 53 50.666 53 81.999c0 34.667 -21 64.667 -63 90l44 46c42.667 -20.667 64 -52.667 64 -96c0 -25.333 -8.33301 -49.5 -25 -72.5s-39.334 -41.833 -68.001 -56.5z" />
    <glyph glyph-name="uni0327" unicode="&#x327;" 
d="M-113 -135c0 -24 -10 -43.667 -30 -59s-45 -23 -75 -23c-26.667 0 -51.334 5 -74.001 15l3 9c16.667 -6 36.667 -9 60 -9c22.667 0 41 5 55 15s21 22.667 21 38c0 14 -7.16699 25.833 -21.5 35.5s-32.5 14.5 -54.5 14.5h-25l44 99h20l-25 -55
c30.667 -2 55.334 -10.5 74.001 -25.5s28 -33.167 28 -54.5z" />
    <glyph glyph-name="uni0328" unicode="&#x328;" 
d="M-274 -146c0 22.667 8.5 44.667 25.5 66s45.167 48.333 84.5 81h15c-46 -50 -69 -93.667 -69 -131c0 -18 5.5 -32.5 16.5 -43.5s24.833 -16.5 41.5 -16.5c14.667 0 35 4.66699 61 14l3 -5c-33.333 -24 -66.666 -36 -99.999 -36c-22.667 0 -41.334 6.5 -56.001 19.5
s-22 30.167 -22 51.5z" />
    <glyph glyph-name="uni037E" unicode="&#x37e;" horiz-adv-x="226" 
d="M72 -142l-5 6.99902c36 24 54 52 54 84c0 35.333 -21.667 67.333 -65 96l45 50c46 -22 69 -56 69 -102c0 -26 -8.83301 -51.167 -26.5 -75.5s-41.5 -44.166 -71.5 -59.499zM113 393.999l-57 56l57 57l57 -57z" />
    <glyph glyph-name="uni0394" unicode="&#x394;" horiz-adv-x="587" 
d="M296 740l287 -740h-578l287 740h4zM519 18l-243 631l-245 -631h488z" />
    <glyph glyph-name="uni03A9" unicode="&#x3a9;" horiz-adv-x="777" 
d="M746 58l-18.001 -58.002h-287v26c77.333 56.667 134.333 115.334 171 176.001s55 127 55 199c0 94.667 -25.667 172.167 -77 232.5s-118.666 90.5 -201.999 90.5c-84 0 -151.5 -29.5 -202.5 -88.5s-76.5 -135.833 -76.5 -230.5c0 -70 18.167 -135.667 54.5 -197
s93.5 -122 171.5 -182v-26h-287l-18 58c58.667 -13.333 125.667 -20 201 -20h60c-83.333 66.667 -144.333 127.334 -183 182.001c-38 54.667 -57 115 -57 181c-1.33301 96.667 30.5 177.667 95.5 243s145.5 97.333 241.5 96c101.333 0 182.833 -30.833 244.5 -92.5
s92.5 -142.5 92.5 -242.5c0 -66 -19.333 -127.333 -58 -184c-40 -57.333 -100.667 -118.333 -182 -183h60c75.333 0 142.333 6.66699 201 20z" />
    <glyph glyph-name="uni03BC" unicode="&#x3bc;" horiz-adv-x="551" 
d="M489 89l21.999 -75.001l-59 -22l-26 86v4c-60.667 -62.667 -127.667 -94 -201 -94c-60 0 -102.667 21.667 -128 65c16.667 -93.333 25 -161.666 25 -204.999v-60h-63v725l59 22h4v-356c0 -40.667 7.66699 -78 23 -112c16 -33.333 52 -50 108 -50
c28.667 0 58.834 8 90.501 24s59.167 37.667 82.5 65v407l59 22h4v-446z" />
    <glyph glyph-name="pi" unicode="&#x3c0;" horiz-adv-x="607" 
d="M593 37l8 -12c-44 -24.667 -83.667 -37 -119 -37c-80 0 -120 48.667 -120 146v368h-187v-76c0 -171.333 -9.33301 -313.333 -28 -426h-48c18.667 98 28 240.667 28 428v74h-118v22h396c82.667 0 142.667 3.33301 180 10l-18 -32h-157v-360c0 -86.667 31 -130 93 -130
c29.333 0 59.333 8.33301 90 25z" />
    <glyph glyph-name="Wgrave" unicode="&#x1e80;" horiz-adv-x="940" 
d="M884 728h50c-22 -58 -54 -149.667 -96 -275l-15 -44l-143 -422h-4l-205 613l-209 -613h-4l-250 741h73l205 -613l209 613h4l205 -612l100 299c40 116 66.667 220.333 80 313zM510 802l-168 160h98l77 -155z" />
    <glyph glyph-name="wgrave" unicode="&#x1e81;" horiz-adv-x="749" 
d="M693 526h50c-29.333 -68 -68.333 -167.667 -117 -299l-89 -239h-8l-153 428l-153 -428h-8l-209 538h68l168 -433l154 433h7l155 -430l51 139c48 128.667 76 225.667 84 291zM408 606l-157 170h85l79 -165z" />
    <glyph glyph-name="Wacute" unicode="&#x1e82;" horiz-adv-x="940" 
d="M884 728h50c-22 -58 -54 -149.667 -96 -275l-15 -44l-143 -422h-4l-205 613l-209 -613h-4l-250 741h73l205 -613l209 613h4l205 -612l100 299c40 116 66.667 220.333 80 313zM484 802l-7 5l77 155h98z" />
    <glyph glyph-name="wacute" unicode="&#x1e83;" horiz-adv-x="749" 
d="M693 526h50c-29.333 -68 -68.333 -167.667 -117 -299l-89 -239h-8l-153 428l-153 -428h-8l-209 538h68l168 -433l154 433h7l155 -430l51 139c48 128.667 76 225.667 84 291zM383 606l-7 5l79 165h85z" />
    <glyph glyph-name="Wdieresis" unicode="&#x1e84;" horiz-adv-x="940" 
d="M884 728h50c-22 -58 -54 -149.667 -96 -275l-15 -44l-143 -422h-4l-205 613l-209 -613h-4l-250 741h73l205 -613l209 613h4l205 -612l100 299c40 116 66.667 220.333 80 313zM405 820l-50 49l50 49l48 -49zM590 820l-50 49l50 49l48 -49z" />
    <glyph glyph-name="wdieresis" unicode="&#x1e85;" horiz-adv-x="749" 
d="M693 526h50c-29.333 -68 -68.333 -167.667 -117 -299l-89 -239h-8l-153 428l-153 -428h-8l-209 538h68l168 -433l154 433h7l155 -430l51 139c48 128.667 76 225.667 84 291zM297 624l-50 49l50 49l48 -49zM474 624l-49 49l49 49l49 -49z" />
    <glyph glyph-name="uni1E9E" unicode="&#x1e9e;" horiz-adv-x="663" 
d="M642 195c0 -58 -22.002 -106.335 -66.002 -145.002s-101.333 -58 -172 -58c-61.333 0 -114 13.333 -158 40l14 45c38.667 -46 88.334 -69 149.001 -69c47.333 0 85.5 16.167 114.5 48.5s43.5 74.5 43.5 126.5c0 56.667 -18.667 101.834 -56 135.501
s-90.666 52.834 -159.999 57.501l-28 2l167 300c-54.667 30 -109.334 45 -164.001 45c-62.667 0 -109.667 -19.833 -141 -59.5s-47 -95.834 -47 -168.501v-495h-68v491c0 76.667 23 137.334 69 182.001s108.333 67 187 67c78 0 156.333 -22.333 235 -67l-156 -280
c74.667 -6.66699 132.834 -27.5 174.501 -62.5s62.5 -80.167 62.5 -135.5z" />
    <glyph glyph-name="Ygrave" unicode="&#x1ef2;" horiz-adv-x="566" 
d="M379 431l-61 -107v-324h-68v320l-237 408h79l217 -381l53 93c72 125.333 118.667 221.333 140 288h51zM306 802l-168 160h98l77 -155z" />
    <glyph glyph-name="ygrave" unicode="&#x1ef3;" horiz-adv-x="472" 
d="M419 526l48 -0.000976562c-18 -39.333 -36 -81.666 -54 -126.999l-41 -99l-27 -68l-129 -317c-40.667 -99.333 -110 -149 -208 -149l4 48c12 -3.33301 26 -5 42 -5c29.333 0 57 9.16699 83 27.5s46 44.833 60 79.5l34 86l-227 524h68l192 -442l64 155
c52.667 129.333 83 225 91 287zM252 605.999l-157 170h85l79 -165z" />
    <glyph glyph-name="uni200B" unicode="&#x200b;" 
 />
    <glyph glyph-name="endash" unicode="&#x2013;" horiz-adv-x="477" 
d="M44 295v18h390v-18h-390z" />
    <glyph glyph-name="emdash" unicode="&#x2014;" horiz-adv-x="767" 
d="M44 295v18h680v-18h-680z" />
    <glyph glyph-name="uni2015" unicode="&#x2015;" horiz-adv-x="767" 
d="M44 295v18h680v-18h-680z" />
    <glyph glyph-name="quoteleft" unicode="&#x2018;" horiz-adv-x="172" 
d="M128 740l5 -7c-36 -24 -54 -52.333 -54 -85c0 -34.667 21.667 -66.667 65 -96l-45 -49c-45.333 20.667 -68 54.334 -68 101.001c0 26.667 8.66699 52.167 26 76.5s41 44.166 71 59.499z" />
    <glyph glyph-name="quoteright" unicode="&#x2019;" horiz-adv-x="176" 
d="M50 503l-5 6.99902c36 24 54 52 54 84c0 35.333 -21.667 67.333 -65 96l45 50c46 -22 69 -56 69 -102c0 -26 -8.83301 -51.167 -26.5 -75.5s-41.5 -44.166 -71.5 -59.499z" />
    <glyph glyph-name="quotesinglbase" unicode="&#x201a;" horiz-adv-x="176" 
d="M49 -142l-5 6.99902c36 24 54 52 54 84c0 35.333 -21.667 67.333 -65 96l45 50c46 -22 69 -56 69 -102c0 -26 -8.83301 -51.167 -26.5 -75.5s-41.5 -44.166 -71.5 -59.499z" />
    <glyph glyph-name="quotedblleft" unicode="&#x201c;" horiz-adv-x="338" 
d="M128 740l5 -7c-36 -24 -54 -52.333 -54 -85c0 -34.667 21.667 -66.667 65 -96l-45 -49c-45.333 20.667 -68 54.334 -68 101.001c0 26.667 8.66699 52.167 26 76.5s41 44.166 71 59.499zM295 740l5 -7c-36 -24 -54 -52.333 -54 -85c0 -34.667 21.667 -66.667 65 -96
l-45 -49c-46 22 -69 55.667 -69 101c0 26 8.83301 51.333 26.5 76s41.5 44.667 71.5 60z" />
    <glyph glyph-name="quotedblright" unicode="&#x201d;" horiz-adv-x="343" 
d="M216 503l-5 6.99902c36 24 54 52 54 84c0 35.333 -21.667 67.333 -65 96l45 50c46 -22 69 -56 69 -102c0 -26 -8.83301 -51.167 -26.5 -75.5s-41.5 -44.166 -71.5 -59.499zM50 502.999l-5 6.99902c36 24 54 52 54 84c0 35.333 -21.667 67.333 -65 96l45 50
c46 -22 69 -56 69 -102c0 -26 -8.83301 -51.167 -26.5 -75.5s-41.5 -44.166 -71.5 -59.499z" />
    <glyph glyph-name="quotedblbase" unicode="&#x201e;" horiz-adv-x="343" 
d="M49 -142l-5 6.99902c36 24 54 52 54 84c0 35.333 -21.667 67.333 -65 96l45 50c46 -22 69 -56 69 -102c0 -26 -8.83301 -51.167 -26.5 -75.5s-41.5 -44.166 -71.5 -59.499zM216 -142.001l-5 6.99902c36 24 54 52 54 84c0 35.333 -21.667 67.333 -65 96l45 50
c46 -22 69 -56 69 -102c0 -26 -8.83301 -51.167 -26.5 -75.5s-41.5 -44.166 -71.5 -59.499z" />
    <glyph glyph-name="dagger" unicode="&#x2020;" horiz-adv-x="449" 
d="M426 513v-54l-196 21l18 -203v-427l-24 -36l-24 36v427l18 203l-196 -21v54l197 -21l-22 248h54l-22 -248z" />
    <glyph glyph-name="daggerdbl" unicode="&#x2021;" horiz-adv-x="480" 
d="M442 513v-54l-196 21l21 -203l-21 -203l196 21v-54l-197 21l22 -248h-54l22 248l-197 -21v54l196 -21l-21 203l21 203l-196 -21v54l197 -21l-22 248h54l-22 -248z" />
    <glyph glyph-name="bullet" unicode="&#x2022;" horiz-adv-x="310" 
d="M155 206l-90 90l90 90l91 -90z" />
    <glyph glyph-name="ellipsis" unicode="&#x2026;" horiz-adv-x="475" 
d="M84 -20l-57 56l57 57l57 -57zM238 -20l-57 56l57 57l57 -57zM392 -20l-57 56l57 57l57 -57z" />
    <glyph glyph-name="perthousand" unicode="&#x2030;" horiz-adv-x="1114" 
d="M27 555c0 54 14.999 97.333 44.999 130s69 49 117 49c46.667 0 84.834 -16.167 114.501 -48.5s44.5 -74.5 44.5 -126.5c0 -53.333 -14.833 -96.5 -44.5 -129.5s-68.167 -49.5 -115.5 -49.5s-86 16 -116 48s-45 74.333 -45 127zM148.999 0l440 728h22l-440 -728h-22z
M302.999 555c0 51.333 -10.5 92 -31.5 122s-49.167 45 -84.5 45s-63.333 -14.5 -84 -43.5s-31 -68.833 -31 -119.5c0 -51.333 10.667 -92 32 -122s50 -45 86 -45c35.333 0 63 14.5 83 43.5s30 68.833 30 119.5zM412.999 169c0 53.333 14.834 96.5 44.501 129.5
s68.167 49.5 115.5 49.5c48 0 86.667 -15.833 116 -47.5s44 -74.167 44 -127.5c0 -54 -14.833 -97.333 -44.5 -130s-68.5 -49 -116.5 -49c-46.667 0 -84.834 16.167 -114.501 48.5s-44.5 74.5 -44.5 126.5zM767 169c0 54 14.833 97.333 44.5 130s68.5 49 116.5 49
c47.333 0 85.833 -16 115.5 -48s44.5 -74.333 44.5 -127c0 -54 -14.833 -97.333 -44.5 -130s-68.5 -49 -116.5 -49c-46.667 0 -85 16.167 -115 48.5s-45 74.5 -45 126.5zM689 169c0 51.333 -10.667 92 -32 122s-50 45 -86 45c-35.333 0 -63.166 -14.5 -83.499 -43.5
s-30.5 -68.833 -30.5 -119.5c0 -51.333 10.667 -92 32 -122s49.666 -45 84.999 -45s63.333 14.5 84 43.5s31 68.833 31 119.5zM1043 169c0 51.333 -10.5 92 -31.5 122s-49.5 45 -85.5 45c-35.333 0 -63.166 -14.5 -83.499 -43.5s-30.5 -68.833 -30.5 -119.5
c0 -51.333 10.5 -92 31.5 -122s49.5 -45 85.5 -45c35.333 0 63.166 14.5 83.499 43.5s30.5 68.833 30.5 119.5z" />
    <glyph glyph-name="minute" unicode="&#x2032;" horiz-adv-x="158" 
d="M40 452l41 288h64l-95 -288h-10z" />
    <glyph glyph-name="second" unicode="&#x2033;" horiz-adv-x="291" 
d="M40 452l41 288h64l-95 -288h-10zM173 452l41 288h64l-95 -288h-10z" />
    <glyph glyph-name="guilsinglleft" unicode="&#x2039;" horiz-adv-x="276" 
d="M238 504l-135 -240l135 -240h-12l-194 240l194 240h12z" />
    <glyph glyph-name="guilsinglright" unicode="&#x203a;" horiz-adv-x="276" 
d="M50 504l194 -240l-194 -240h-12l135 240l-135 240h12z" />
    <glyph glyph-name="fraction" unicode="&#x2044;" horiz-adv-x="100" 
d="M-182 0l440 728h23l-440 -728h-23z" />
    <glyph glyph-name="uni2070" unicode="&#x2070;" horiz-adv-x="383" 
d="M32 517c0 65.333 14.666 117.666 43.999 156.999c28.667 40 67.334 60 116.001 60c48 0 86.5 -19.167 115.5 -57.5s43.5 -89.833 43.5 -154.5c0 -65.333 -14.667 -117.666 -44 -156.999s-68 -59 -116 -59s-86.5 19.167 -115.5 57.5s-43.5 89.5 -43.5 153.5zM300.999 518
c0 64 -9.66895 113.999 -29.002 149.999s-46.666 54 -81.999 54c-34 0 -60.5 -17.667 -79.5 -53s-28.5 -84 -28.5 -146c0 -63.333 9.83301 -113.5 29.5 -150.5s46.834 -55.5 81.501 -55.5c34 0 60.5 17.833 79.5 53.5s28.5 84.834 28.5 147.501z" />
    <glyph glyph-name="uni2074" unicode="&#x2074;" horiz-adv-x="322" 
d="M304 461l-8 -31h-59v-118h-42v118h-185l-2 10l222 293h7v-272h67zM44 461h151v199z" />
    <glyph glyph-name="uni2075" unicode="&#x2075;" horiz-adv-x="295" 
d="M266 439c0 -38 -13.667 -69.666 -41 -94.999s-61.333 -38 -102 -38c-30.667 0 -64.334 8.66699 -101.001 26l8 27c26.667 -26.667 58.334 -40 95.001 -40c29.333 0 53.5 10.167 72.5 30.5s28.5 46.166 28.5 77.499c0 36 -13.5 64 -40.5 84s-65.5 30 -115.5 30h-24l17 187
h195l-11 -34h-170l-10 -114h15c58 0 103.167 -12.5 135.5 -37.5s48.5 -59.5 48.5 -103.5z" />
    <glyph glyph-name="uni2076" unicode="&#x2076;" horiz-adv-x="324" 
d="M31 472c0 62 18.333 116.335 55 163.002c37.333 48 86.333 81 147 99l3 -10c-48 -16.667 -86 -47.834 -114 -93.501s-42 -98.834 -42 -159.501c0 -48 8.33301 -85.667 25 -113s39.334 -41 68.001 -41c25.333 0 45.166 10 59.499 30s21.5 47.667 21.5 83
c0 36 -7.5 64 -22.5 84s-35.5 30 -61.5 30c-22.667 0 -43.334 -7.66699 -62.001 -23l-7 8c24.667 22.667 52.334 34 83.001 34c34 0 62.333 -11.833 85 -35.5s34 -53.5 34 -89.5c0 -38 -12.667 -69.5 -38 -94.5s-57 -37.5 -95 -37.5c-42 0 -75.667 15 -101 45
s-38 70.333 -38 121z" />
    <glyph glyph-name="uni2077" unicode="&#x2077;" horiz-adv-x="280" 
d="M20 728h253v-4l-151 -412h-45l171 383h-65c-76.667 0 -134.667 -4.33301 -174 -13z" />
    <glyph glyph-name="uni2078" unicode="&#x2078;" horiz-adv-x="328" 
d="M297 421c0 -32.667 -13.334 -60 -40.001 -82c-26 -22 -58.667 -33 -98 -33c-35.333 0 -65.666 9.33301 -90.999 28s-38 43 -38 73c0 54 31.667 92.667 95 116c-50 27.333 -75 62 -75 104c0 30.667 11.167 56.167 33.5 76.5s50.5 30.5 84.5 30.5
c31.333 0 57.833 -8.83301 79.5 -26.5s32.5 -39.5 32.5 -65.5c0 -46.667 -27.667 -82 -83 -106c66.667 -28.667 100 -67 100 -115zM165.999 550l15.999 -7c39.333 23.333 59 55.333 59 96c0 24 -7.16699 43.833 -21.5 59.5s-32.833 23.5 -55.5 23.5
c-23.333 0 -42.166 -7.66699 -56.499 -23s-21.5 -35 -21.5 -59c0 -20 6.33301 -37 19 -51s33 -27 61 -39zM259.998 408c0 37.333 -28.668 68 -86.001 92l-27 12l-9 4c-45.333 -21.333 -68 -56.333 -68 -105c0 -26.667 9.33301 -49 28 -67s41.334 -27 68.001 -27
s49 8.83301 67 26.5s27 39.167 27 64.5z" />
    <glyph glyph-name="uni2079" unicode="&#x2079;" horiz-adv-x="322" 
d="M90 306l-4.00293 10.001c48.667 16.667 86.834 47.667 114.501 93s41.5 98.666 41.5 159.999c0 48 -8.16699 85.5 -24.5 112.5s-39.166 40.5 -68.499 40.5c-25.333 0 -45.166 -10.167 -59.499 -30.5s-21.5 -47.833 -21.5 -82.5c0 -35.333 7.5 -63 22.5 -83
s35.5 -30 61.5 -30c23.333 0 44.333 7.33301 63 22l7 -8c-25.333 -22 -53.333 -33 -84 -33c-34 0 -62.167 11.667 -84.5 35s-33.5 53 -33.5 89c0 38.667 12.5 70.5 37.5 95.5s56.833 37.5 95.5 37.5c42 0 75.5 -15 100.5 -45s37.5 -70.333 37.5 -121
c0 -62 -18.333 -116.667 -55 -164c-37.333 -48 -86 -80.667 -146 -98z" />
    <glyph glyph-name="uni2080" unicode="&#x2080;" horiz-adv-x="383" 
d="M32 49c0 65.333 14.667 117.666 44 156.999c29.333 40 68 60 116 60s86.5 -19.167 115.5 -57.5s43.5 -89.833 43.5 -154.5c0 -65.333 -14.667 -117.666 -44 -156.999s-68 -59 -116 -59s-86.5 19.167 -115.5 57.5s-43.5 89.5 -43.5 153.5zM301 50
c0 64 -9.66895 113.999 -29.002 149.999s-46.666 54 -81.999 54c-34 0 -60.5 -17.667 -79.5 -53s-28.5 -84 -28.5 -146c0 -63.333 9.83301 -113.5 29.5 -150.5s46.834 -55.5 81.501 -55.5c34 0 60.5 17.833 79.5 53.5s28.5 84.834 28.5 147.501z" />
    <glyph glyph-name="uni2081" unicode="&#x2081;" horiz-adv-x="182" 
d="M124 266l3.99902 0.000976562v-422h-43v351c-16 -9.33301 -40 -20 -72 -32v10c18.667 8 38.334 20.667 59.001 38s38 35.666 52 54.999z" />
    <glyph glyph-name="uni2082" unicode="&#x2082;" horiz-adv-x="310" 
d="M285 -113l-12.002 -43.001h-250v3l33 35c62 64 105.333 116.333 130 157c26 40.667 39 77.667 39 111c0 27.333 -7.5 49.166 -22.5 65.499s-34.5 24.5 -58.5 24.5c-46.667 0 -82.667 -25 -108 -75l-11 5c28.667 64 72.334 96 131.001 96
c34.667 0 62.834 -10.167 84.501 -30.5s32.5 -47.166 32.5 -80.499c0 -31.333 -15 -67.666 -45 -108.999c-30 -40.667 -82.333 -96 -157 -166l-4 -4h38c66.667 0 126.667 3.66699 180 11z" />
    <glyph glyph-name="uni2083" unicode="&#x2083;" horiz-adv-x="305" 
d="M25 -135l8.99902 29.999c30 -30 62 -45 96 -45c31.333 0 56.333 9.83301 75 29.5s28 43.834 28 72.501c0 28 -9.33301 51 -28 69s-43 28.333 -73 31l-23 1l-3 10l22 7c57.333 21.333 86 55.333 86 102c0 21.333 -6.66699 38.333 -20 51s-30.666 19 -51.999 19
c-39.333 0 -72.333 -17.667 -99 -53l-11 5c33.333 48 74 72 122 72c30.667 0 55.834 -8.16699 75.501 -24.5s29.5 -37.166 29.5 -62.499c0 -21.333 -8 -41 -24 -59s-36.333 -32 -61 -42v-2c29.333 -6 53.333 -19.333 72 -40s28 -45.334 28 -74.001
c0 -36 -13.333 -65.667 -40 -89s-60.667 -35 -102 -35c-34.667 0 -70.334 9 -107.001 27z" />
    <glyph glyph-name="uni2084" unicode="&#x2084;" horiz-adv-x="322" 
d="M305 -7l-8 -31h-59v-118h-42v118h-185l-2 10l222 293h7v-272h67zM45 -7h151v199z" />
    <glyph glyph-name="uni2085" unicode="&#x2085;" horiz-adv-x="295" 
d="M266 -29c0 -38 -13.667 -69.666 -41 -94.999s-61.333 -38 -102 -38c-30.667 0 -64.334 8.66699 -101.001 26l8 27c26.667 -26.667 58.334 -40 95.001 -40c29.333 0 53.5 10.167 72.5 30.5s28.5 46.166 28.5 77.499c0 36 -13.5 64 -40.5 84s-65.5 30 -115.5 30h-24l17 187
h195l-11 -34h-170l-10 -114h15c58 0 103.167 -12.5 135.5 -37.5s48.5 -59.5 48.5 -103.5z" />
    <glyph glyph-name="uni2086" unicode="&#x2086;" horiz-adv-x="324" 
d="M31 4c0 62 18.333 116.335 55 163.002c37.333 48 86.333 81 147 99l3 -10c-48 -16.667 -86 -47.834 -114 -93.501s-42 -98.834 -42 -159.501c0 -48 8.33301 -85.667 25 -113s39.334 -41 68.001 -41c25.333 0 45.166 10 59.499 30s21.5 47.667 21.5 83
c0 36 -7.5 64 -22.5 84s-35.5 30 -61.5 30c-22.667 0 -43.334 -7.66699 -62.001 -23l-7 8c24.667 22.667 52.334 34 83.001 34c34 0 62.333 -11.833 85 -35.5s34 -53.5 34 -89.5c0 -38 -12.667 -69.5 -38 -94.5s-57 -37.5 -95 -37.5c-42 0 -75.667 15 -101 45
s-38 70.333 -38 121z" />
    <glyph glyph-name="uni2087" unicode="&#x2087;" horiz-adv-x="280" 
d="M21 260h253v-4l-151 -412h-45l171 383h-65c-76.667 0 -134.667 -4.33301 -174 -13z" />
    <glyph glyph-name="uni2088" unicode="&#x2088;" horiz-adv-x="328" 
d="M297 -47c0 -32.667 -13.334 -60 -40.001 -82c-26 -22 -58.667 -33 -98 -33c-35.333 0 -65.666 9.33301 -90.999 28s-38 43 -38 73c0 54 31.667 92.667 95 116c-50 27.333 -75 62 -75 104c0 30.667 11.167 56.167 33.5 76.5s50.5 30.5 84.5 30.5
c31.333 0 57.833 -8.83301 79.5 -26.5s32.5 -39.5 32.5 -65.5c0 -46.667 -27.667 -82 -83 -106c66.667 -28.667 100 -67 100 -115zM165.999 82l15.999 -7c39.333 23.333 59 55.333 59 96c0 24 -7.16699 43.833 -21.5 59.5s-32.833 23.5 -55.5 23.5
c-23.333 0 -42.166 -7.66699 -56.499 -23s-21.5 -35 -21.5 -59c0 -20 6.33301 -37 19 -51s33 -27 61 -39zM259.998 -60c0 37.333 -28.668 68 -86.001 92l-27 12l-9 4c-45.333 -21.333 -68 -56.333 -68 -105c0 -26.667 9.33301 -49 28 -67s41.334 -27 68.001 -27
s49 8.83301 67 26.5s27 39.167 27 64.5z" />
    <glyph glyph-name="uni2089" unicode="&#x2089;" horiz-adv-x="322" 
d="M90 -162l-4.00293 10.001c48.667 16.667 86.834 47.667 114.501 93s41.5 98.666 41.5 159.999c0 48 -8.16699 85.5 -24.5 112.5s-39.166 40.5 -68.499 40.5c-25.333 0 -45.166 -10.167 -59.499 -30.5s-21.5 -47.833 -21.5 -82.5c0 -35.333 7.5 -63 22.5 -83
s35.5 -30 61.5 -30c23.333 0 44.333 7.33301 63 22l7 -8c-25.333 -22 -53.333 -33 -84 -33c-34 0 -62.167 11.667 -84.5 35s-33.5 53 -33.5 89c0 38.667 12.5 70.5 37.5 95.5s56.833 37.5 95.5 37.5c42 0 75.5 -15 100.5 -45s37.5 -70.333 37.5 -121
c0 -62 -18.333 -116.333 -55 -163c-37.333 -48 -86 -81 -146 -99z" />
    <glyph glyph-name="Euro" unicode="&#x20ac;" horiz-adv-x="664" 
d="M627 106l9.99902 -10.999c-62 -71.333 -138.333 -107 -229 -107c-82.667 0 -153 28 -211 84s-92.333 131.333 -103 226h-65v18h63c-1.33301 25.333 -2 39.666 -2 42.999c0 18.667 1 37 3 55h-64v18h66c12.667 93.333 49.167 168 109.5 224s133.833 84 220.5 84
c82 0 151 -26 207 -78l-32 -32c-51.333 62.667 -111.666 94 -180.999 94c-66.667 0 -123.167 -27 -169.5 -81s-73.5 -124.333 -81.5 -211h278l-5 -18h-275c-0.666992 -5.33301 -1 -17.333 -1 -36c0 -21.333 1 -42 3 -62h241l-6 -18h-232c12 -83.333 42.167 -150 90.5 -200
s105.833 -75 172.5 -75c76 0 140.333 27.667 193 83z" />
    <glyph glyph-name="uni2113" unicode="&#x2113;" horiz-adv-x="354" 
d="M318 80l13 -8.00098c-40.667 -56 -83.667 -84 -129 -84c-36.667 0 -65.167 14.667 -85.5 44s-30.5 70 -30.5 122v56c-22 -14.667 -40.667 -26 -56 -34l-8 14c18 10 39.333 23 64 39v265c0 164 39 246 117 246c35.333 0 64 -15.667 86 -47s33 -73.666 33 -126.999
c0 -121.333 -62.667 -229 -188 -323v-103c0 -88.667 25 -133 75 -133c36.667 0 73 24.333 109 73zM134 507.999l0.000976562 -245c96 78 144 179 144 303c0 50.667 -6.83301 90 -20.5 118s-31.834 42 -54.501 42c-30 0 -49 -20 -57 -60s-12 -92.667 -12 -158z" />
    <glyph glyph-name="uni2116" unicode="&#x2116;" horiz-adv-x="1054" 
d="M530 728h47c-9.33301 -78 -14 -184 -14 -318v-422h-7l-453 653v-323c0 -138 4.33301 -244 13 -318h-46c8.66699 66.667 13 172.667 13 318v352l-38 55v3h81l417 -606v288c0 145.333 -4.33301 251.333 -13 318zM645 471c0 56.667 18.1689 103.502 54.502 140.502
s82.166 55.5 137.499 55.5s100.166 -17.833 134.499 -53.5s51.5 -81.834 51.5 -138.501s-18 -103.334 -54 -140.001s-81.667 -55 -137 -55s-100.333 17.667 -135 53s-52 81.333 -52 138zM699.002 475.002c0 -52 12.834 -95.167 38.501 -129.5s58.167 -51.5 97.5 -51.5
s71.666 16.667 96.999 50c24.667 32.667 37 75 37 127c0 52.667 -12.833 96.167 -38.5 130.5s-58.167 51.5 -97.5 51.5c-40 0 -72.333 -16.667 -97 -50s-37 -76 -37 -128zM685.003 180.002v18h300v-18h-300z" />
    <glyph glyph-name="uni2117" unicode="&#x2117;" horiz-adv-x="627" 
d="M585 469c1.33301 -72.667 -25.334 -136.167 -80.001 -190.5s-118.334 -80.833 -191.001 -79.5c-73.333 -1.33301 -137.333 25.167 -192 79.5s-81.334 117.833 -80.001 190.5c-1.33301 72 25.334 135.5 80.001 190.5s118.667 81.833 192 80.5
c72.667 1.33301 136.334 -25.5 191.001 -80.5s81.334 -118.5 80.001 -190.5zM563 471c1.33301 67.333 -23.167 126.333 -73.5 177s-108.833 75.334 -175.5 74.001c-67.333 1.33301 -126.166 -23.334 -176.499 -74.001s-74.833 -109.667 -73.5 -177
c-1.33301 -67.333 23.167 -126.5 73.5 -177.5s109.166 -75.833 176.499 -74.5c66.667 -1.33301 125.167 23.5 175.5 74.5s74.833 110.167 73.5 177.5zM445 541c0 -30.667 -11.8301 -55.5 -35.4971 -74.5s-54.834 -28.5 -93.501 -28.5c-14.667 0 -26.334 1 -35.001 3v-139
h-29v331h64c41.333 0 73.166 -7.83301 95.499 -23.5s33.5 -38.5 33.5 -68.5zM413.003 535c0 27.333 -8.49902 48.333 -25.499 63s-40.833 22 -71.5 22h-35v-165c9.33301 -2 20.666 -3 33.999 -3c31.333 0 55.5 7.16699 72.5 21.5s25.5 34.833 25.5 61.5z" />
    <glyph glyph-name="trademark" unicode="&#x2122;" horiz-adv-x="761" 
d="M30 728h273.999l8 -26c-31.333 4.66699 -52 7.33398 -62 8.00098c-14 2 -32.333 3 -55 3h-12v-359h-32v359h-12c-22 0 -40.667 -1 -56 -3c-9.33301 -0.666992 -29.666 -3.33398 -60.999 -8.00098zM697.999 354h-33l-27 300l-128 -275h-4l-136 273l-11 -135
c-5.33301 -80 -8 -134.333 -8 -163h-25c3.33301 21.333 9 75.333 17 162l18 212h8l147 -298l138 298h8z" />
    <glyph glyph-name="uni2126" unicode="&#x2126;" horiz-adv-x="779" 
d="M747 58l-18.001 -58.002h-287v26c77.333 56.667 134.333 115.334 171 176.001s55 127 55 199c0 94.667 -25.667 172.167 -77 232.5s-118.666 90.5 -201.999 90.5c-84 0 -151.5 -29.5 -202.5 -88.5s-76.5 -135.833 -76.5 -230.5c0 -70 18.167 -135.667 54.5 -197
s93.5 -122 171.5 -182v-26h-287l-18 58c58.667 -13.333 125.667 -20 201 -20h60c-83.333 66.667 -144.333 127.334 -183 182.001c-38 54.667 -57 115 -57 181c-1.33301 96.667 30.5 177.667 95.5 243s145.5 97.333 241.5 96c101.333 0 182.833 -30.833 244.5 -92.5
s92.5 -142.5 92.5 -242.5c0 -66 -19.333 -127.333 -58 -184c-40 -57.333 -100.667 -118.333 -182 -183h60c75.333 0 142.333 6.66699 201 20z" />
    <glyph glyph-name="estimated" unicode="&#x212e;" horiz-adv-x="790" 
d="M709 200l15.998 -8.00293c-32.667 -64.667 -77.5 -115.167 -134.5 -151.5s-120.167 -54.5 -189.5 -54.5c-65.333 -1.33301 -126 15.334 -182 50.001s-99.667 81.334 -131 140.001s-46.666 121.334 -45.999 188.001c-1.33301 100.667 33.667 188 105 262s156 110 254 108
c100 2 185.5 -34.667 256.5 -110s105.5 -165.333 103.5 -270h-591v-229c0 -20 8.33301 -36.333 25 -49c62.667 -46.667 131.334 -70 206.001 -70c66 0 126.167 17.167 180.5 51.5s96.833 81.833 127.5 142.5zM169.998 590.997v-216.999h462v217c0 22 -8.33301 39.667 -25 53
c-61.333 46.667 -130 70 -206 70s-144.667 -23.333 -206 -70c-16.667 -12.667 -25 -30.334 -25 -53.001z" />
    <glyph glyph-name="oneeighth" unicode="&#x215b;" horiz-adv-x="680" 
d="M139 734l3.99902 0.000976562v-422h-43v351c-16 -9.33301 -40 -20 -72 -32v10c18.667 8 38.334 20.667 59.001 38s38 35.666 52 54.999zM67.999 0.000976562l440 728h23l-440 -728h-23zM648.999 109.001c0 -32.667 -13.334 -60 -40.001 -82c-26 -22 -58.667 -33 -98 -33
c-35.333 0 -65.666 9.33301 -90.999 28s-38 43 -38 73c0 54 31.667 92.667 95 116c-50 27.333 -75 62 -75 104c0 30.667 11.167 56.167 33.5 76.5s50.5 30.5 84.5 30.5c31.333 0 57.833 -8.83301 79.5 -26.5s32.5 -39.5 32.5 -65.5c0 -46.667 -27.667 -82 -83 -106
c66.667 -28.667 100 -67 100 -115zM517.998 238.001l15.999 -7c39.333 23.333 59 55.333 59 96c0 24 -7.16699 43.833 -21.5 59.5s-32.833 23.5 -55.5 23.5c-23.333 0 -42.166 -7.66699 -56.499 -23s-21.5 -35 -21.5 -59c0 -20 6.33301 -37 19 -51s33 -27 61 -39z
M611.997 96.001c0 37.333 -28.668 68 -86.001 92l-27 12l-9 4c-45.333 -21.333 -68 -56.333 -68 -105c0 -26.667 9.33301 -49 28 -67s41.334 -27 68.001 -27s49 8.83301 67 26.5s27 39.167 27 64.5z" />
    <glyph glyph-name="threeeighths" unicode="&#x215c;" horiz-adv-x="740" 
d="M28 333l8.99707 29.999c30 -30 62 -45 96 -45c31.333 0 56.333 9.83301 75 29.5s28 43.834 28 72.501c0 28 -9.33301 51 -28 69s-43 28.333 -73 31l-23 1l-3 10l22 7c57.333 21.333 86 55.333 86 102c0 21.333 -6.66699 38.333 -20 51s-30.666 19 -51.999 19
c-39.333 0 -72.333 -17.667 -99 -53l-11 5c32.667 48 73.334 72 122.001 72c30.667 0 55.834 -8.16699 75.501 -24.5s29.5 -37.166 29.5 -62.499c0 -21.333 -8 -41 -24 -59s-36.333 -32 -61 -42v-2c29.333 -6 53.333 -19.333 72 -40s28 -45.334 28 -74.001
c0 -36 -13.333 -65.667 -40 -89s-60.667 -35 -102 -35c-34 0 -69.667 9 -107 27zM128.997 -0.000976562l440 728h23l-440 -728h-23zM710.997 108.999c0 -32.667 -13.334 -60 -40.001 -82c-26 -22 -58.667 -33 -98 -33c-35.333 0 -65.666 9.33301 -90.999 28s-38 43 -38 73
c0 54 31.667 92.667 95 116c-50 27.333 -75 62 -75 104c0 30.667 11.167 56.167 33.5 76.5s50.5 30.5 84.5 30.5c31.333 0 57.833 -8.83301 79.5 -26.5s32.5 -39.5 32.5 -65.5c0 -46.667 -27.667 -82 -83 -106c66.667 -28.667 100 -67 100 -115zM579.996 237.999l15.999 -7
c39.333 23.333 59 55.333 59 96c0 24 -7.16699 43.833 -21.5 59.5s-32.833 23.5 -55.5 23.5c-23.333 0 -42.166 -7.66699 -56.499 -23s-21.5 -35 -21.5 -59c0 -20 6.33301 -37 19 -51s33 -27 61 -39zM673.995 95.999c0 37.333 -28.668 68 -86.001 92l-27 12l-9 4
c-45.333 -21.333 -68 -56.333 -68 -105c0 -26.667 9.33301 -49 28 -67s41.334 -27 68.001 -27s49 8.83301 67 26.5s27 39.167 27 64.5z" />
    <glyph glyph-name="fiveeighths" unicode="&#x215d;" horiz-adv-x="741" 
d="M272 439c0 -38 -13.667 -69.666 -41 -94.999s-61.333 -38 -102 -38c-30.667 0 -64.334 8.66699 -101.001 26l8 27c26.667 -26.667 58.334 -40 95.001 -40c29.333 0 53.5 10.167 72.5 30.5s28.5 46.166 28.5 77.499c0 36 -13.5 64 -40.5 84s-65.5 30 -115.5 30h-24l17 187
h195l-11 -34h-170l-10 -114h15c58 0 103.167 -12.5 135.5 -37.5s48.5 -59.5 48.5 -103.5zM130 0.000976562l440 728h23l-440 -728h-23zM711 109.001c0 -32.667 -13.334 -60 -40.001 -82c-26 -22 -58.667 -33 -98 -33c-35.333 0 -65.666 9.33301 -90.999 28s-38 43 -38 73
c0 54 31.667 92.667 95 116c-50 27.333 -75 62 -75 104c0 30.667 11.167 56.167 33.5 76.5s50.5 30.5 84.5 30.5c31.333 0 57.833 -8.83301 79.5 -26.5s32.5 -39.5 32.5 -65.5c0 -46.667 -27.667 -82 -83 -106c66.667 -28.667 100 -67 100 -115zM579.999 238.001l15.999 -7
c39.333 23.333 59 55.333 59 96c0 24 -7.16699 43.833 -21.5 59.5s-32.833 23.5 -55.5 23.5c-23.333 0 -42.166 -7.66699 -56.499 -23s-21.5 -35 -21.5 -59c0 -20 6.33301 -37 19 -51s33 -27 61 -39zM673.998 96.001c0 37.333 -28.668 68 -86.001 92l-27 12l-9 4
c-45.333 -21.333 -68 -56.333 -68 -105c0 -26.667 9.33301 -49 28 -67s41.334 -27 68.001 -27s49 8.83301 67 26.5s27 39.167 27 64.5z" />
    <glyph glyph-name="seveneighths" unicode="&#x215e;" horiz-adv-x="749" 
d="M34 728h253v-4l-151 -412h-45l171 383h-65c-76.667 0 -134.667 -4.33301 -174 -13zM130 0l440 728h23l-440 -728h-23zM711 109c0 -32.667 -13.334 -60 -40.001 -82c-26 -22 -58.667 -33 -98 -33c-35.333 0 -65.666 9.33301 -90.999 28s-38 43 -38 73
c0 54 31.667 92.667 95 116c-50 27.333 -75 62 -75 104c0 30.667 11.167 56.167 33.5 76.5s50.5 30.5 84.5 30.5c31.333 0 57.833 -8.83301 79.5 -26.5s32.5 -39.5 32.5 -65.5c0 -46.667 -27.667 -82 -83 -106c66.667 -28.667 100 -67 100 -115zM579.999 238l15.999 -7
c39.333 23.333 59 55.333 59 96c0 24 -7.16699 43.833 -21.5 59.5s-32.833 23.5 -55.5 23.5c-23.333 0 -42.166 -7.66699 -56.499 -23s-21.5 -35 -21.5 -59c0 -20 6.33301 -37 19 -51s33 -27 61 -39zM673.998 96c0 37.333 -28.668 68 -86.001 92l-27 12l-9 4
c-45.333 -21.333 -68 -56.333 -68 -105c0 -26.667 9.33301 -49 28 -67s41.334 -27 68.001 -27s49 8.83301 67 26.5s27 39.167 27 64.5z" />
    <glyph glyph-name="arrowleft" unicode="&#x2190;" horiz-adv-x="826" 
d="M788 364c1.33301 -66.667 -15 -129.169 -49 -187.502s-80.167 -104.666 -138.5 -138.999s-120.833 -50.833 -187.5 -49.5c-102 -2 -190.5 34.667 -265.5 110s-111.5 164 -109.5 266c-2 102 34.5 190.667 109.5 266s163.5 112 265.5 110
c66.667 1.33301 129.167 -15.167 187.5 -49.5s104.5 -80.666 138.5 -138.999s50.333 -120.833 49 -187.5zM766 363.998c2 97.333 -32.333 181.833 -103 253.5s-154 106.5 -250 104.5c-96 2 -179.333 -32.833 -250 -104.5s-105 -156.167 -103 -253.5
c-2 -97.333 32.333 -181.833 103 -253.5s154 -106.5 250 -104.5c96 -2 179.333 32.833 250 104.5s105 156.167 103 253.5zM651 264.998c0 -5.33301 -0.335938 -8.66895 -1.00293 -10.002h-127c-3.33301 14.667 -11.333 32.334 -24 53.001
c-13.333 22.667 -24.666 38.667 -33.999 48h-136c35.333 -53.333 60.333 -117 75 -191l-9 -4c-26.667 34.667 -64 72 -112 112c-47.333 40.667 -90.666 71 -129.999 91c38 19.333 81.333 49.333 130 90c48.667 41.333 86 79 112 113l9 -4
c-14.667 -74 -39.667 -137.667 -75 -191h136c8.66699 8.66699 20 24.334 34 47.001c12.667 22 20.667 40 24 54h127c2.66699 -17.333 -2.66602 -37.333 -15.999 -60c-13.333 -22 -29 -38.333 -47 -49c17.333 -9.33301 32.333 -23.833 45 -43.5s19 -38.167 19 -55.5z
M575.997 456.995l-41.001 -0.00195312c-13.333 -32.667 -29.666 -61 -48.999 -85h34c11.333 8.66699 22.5 21.334 33.5 38.001s18.5 32.334 22.5 47.001zM633.996 456.993l-41 -0.000976562c-8 -33.333 -25 -61.666 -51 -84.999h28c14.667 6.66699 28.5 18.5 41.5 35.5
s20.5 33.5 22.5 49.5zM519.996 355.992l-33.999 -0.00195312c19.333 -24 35.666 -52.333 48.999 -85h41c-4 14.667 -11.5 30.334 -22.5 47.001s-22.167 29.334 -33.5 38.001zM569.997 355.99l-28 -0.000976562c26 -23.333 43 -51.666 51 -84.999h41
c-2 16 -9.5 32.5 -22.5 49.5s-26.833 28.833 -41.5 35.5z" />
    <glyph glyph-name="arrowup" unicode="&#x2191;" horiz-adv-x="826" 
d="M788 364c1.33301 -66.667 -15 -129.169 -49 -187.502s-80.167 -104.666 -138.5 -138.999s-120.833 -50.833 -187.5 -49.5c-102 -2 -190.5 34.667 -265.5 110s-111.5 164 -109.5 266c-2 102 34.5 190.667 109.5 266s163.5 112 265.5 110
c66.667 1.33301 129.167 -15.167 187.5 -49.5s104.5 -80.666 138.5 -138.999s50.333 -120.833 49 -187.5zM766 363.998c2 97.333 -32.333 181.833 -103 253.5s-154 106.5 -250 104.5c-96 2 -179.333 -32.833 -250 -104.5s-105 -156.167 -103 -253.5
c-2 -97.333 32.333 -181.833 103 -253.5s154 -106.5 250 -104.5c96 -2 179.333 32.833 250 104.5s105 156.167 103 253.5zM616 382.998l-4.00391 -8.99805c-74 14.667 -137.667 39.667 -191 75v-136c8.66699 -8.66699 24.334 -20 47.001 -34c22 -12.667 40 -20.667 54 -24
v-127c-1.33301 -0.666992 -4.66602 -1 -9.99902 -1c-17.333 0 -35.833 6.33301 -55.5 19s-34.167 27.667 -43.5 45c-11.333 -19.333 -27.666 -35.333 -48.999 -48c-22 -12.667 -42 -17.667 -60 -15v127c14.667 3.33301 32.334 11.333 53.001 24
c22.667 13.333 38.667 24.666 48 33.999v136c-53.333 -35.333 -117 -60.333 -191 -75l-4 9c34.667 26.667 72 64 112 112c40.667 47.333 71 90.666 91 129.999c19.333 -38 49.333 -81.333 90 -130c41.333 -48.667 79 -86 113 -112zM404.996 258l-0.00195312 33.999
c-24 -19.333 -52.333 -35.666 -85 -48.999v-41c14.667 4 30.334 11.5 47.001 22.5s29.334 22.167 38.001 33.5zM505.994 201.999l-0.00195312 41.001c-32.667 13.333 -61 29.666 -85 48.999v-34c8.66699 -11.333 21.334 -22.5 38.001 -33.5s32.334 -18.5 47.001 -22.5z
M404.992 208l-0.000976562 28c-23.333 -26 -51.666 -43 -84.999 -51v-41c16 2 32.5 9.5 49.5 22.5s28.833 26.833 35.5 41.5zM505.991 144l-0.000976562 41c-33.333 8 -61.666 25 -84.999 51v-28c6.66699 -14.667 18.5 -28.5 35.5 -41.5s33.5 -20.5 49.5 -22.5z" />
    <glyph glyph-name="arrowright" unicode="&#x2192;" horiz-adv-x="826" 
d="M788 364c1.33301 -66.667 -15 -129.169 -49 -187.502s-80.167 -104.666 -138.5 -138.999s-120.833 -50.833 -187.5 -49.5c-102 -2 -190.5 34.667 -265.5 110s-111.5 164 -109.5 266c-2 102 34.5 190.667 109.5 266s163.5 112 265.5 110
c66.667 1.33301 129.167 -15.167 187.5 -49.5s104.5 -80.666 138.5 -138.999s50.333 -120.833 49 -187.5zM766 363.998c2 97.333 -32.333 181.833 -103 253.5s-154 106.5 -250 104.5c-96 2 -179.333 -32.833 -250 -104.5s-105 -156.167 -103 -253.5
c-2 -97.333 32.333 -181.833 103 -253.5s154 -106.5 250 -104.5c96 -2 179.333 32.833 250 104.5s105 156.167 103 253.5zM673 363.998c-39.333 -20 -82.668 -50.3291 -130.001 -90.9961c-48 -40 -85.333 -77.333 -112 -112l-9 4c14.667 74 39.667 137.667 75 191h-136
c-9.33301 -9.33301 -20.666 -25.333 -33.999 -48c-12.667 -20.667 -20.667 -38.334 -24 -53.001h-127c-0.666992 1.33301 -1 4.66602 -1 9.99902c0 17.333 6.33301 35.833 19 55.5s27.667 34.167 45 43.5c-19.333 11.333 -35.333 27.666 -48 48.999
c-12.667 22 -17.667 42 -15 60h127c3.33301 -14 11.333 -32 24 -54c14 -22.667 25.333 -38.334 34 -47.001h136c-35.333 53.333 -60.333 117 -75 191l9 4c26 -34 63.333 -71.667 112 -113c48.667 -40.667 92 -70.667 130 -90zM255.998 372.002l28 0.000976562
c-26 23.333 -43 51.666 -51 84.999h-41c2 -16 9.5 -32.5 22.5 -49.5s26.833 -28.833 41.5 -35.5zM305.998 372.003l33.999 0.00195312c-19.333 24 -35.666 52.333 -48.999 85h-41c4 -14.667 11.5 -30.334 22.5 -47.001s22.167 -29.334 33.5 -38.001zM191.997 271.005
l41 0.000976562c8 33.333 25 61.666 51 84.999h-28c-14.667 -6.66699 -28.5 -18.5 -41.5 -35.5s-20.5 -33.5 -22.5 -49.5zM249.997 271.006l41.001 0.00195312c13.333 32.667 29.666 61 48.999 85h-34c-11.333 -8.66699 -22.5 -21.334 -33.5 -38.001
s-18.5 -32.334 -22.5 -47.001z" />
    <glyph glyph-name="arrowdown" unicode="&#x2193;" horiz-adv-x="826" 
d="M788 364c1.33301 -66.667 -15 -129.169 -49 -187.502s-80.167 -104.666 -138.5 -138.999s-120.833 -50.833 -187.5 -49.5c-102 -2 -190.5 34.667 -265.5 110s-111.5 164 -109.5 266c-2 102 34.5 190.667 109.5 266s163.5 112 265.5 110
c66.667 1.33301 129.167 -15.167 187.5 -49.5s104.5 -80.666 138.5 -138.999s50.333 -120.833 49 -187.5zM766 363.998c2 97.333 -32.333 181.833 -103 253.5s-154 106.5 -250 104.5c-96 2 -179.333 -32.833 -250 -104.5s-105 -156.167 -103 -253.5
c-2 -97.333 32.333 -181.833 103 -253.5s154 -106.5 250 -104.5c96 -2 179.333 32.833 250 104.5s105 156.167 103 253.5zM612 353.998l4.00293 -8.99902c-34 -26 -71.667 -63.333 -113 -112c-40.667 -48.667 -70.667 -92 -90 -130c-20 39.333 -50.333 82.666 -91 129.999
c-40 48 -77.333 85.333 -112 112l4 9c74 -14.667 137.667 -39.667 191 -75v136c-9.33301 9.33301 -25.333 20.666 -48 33.999c-20.667 12.667 -38.334 20.667 -53.001 24v127c17.333 2.66699 37.333 -2.66602 60 -15.999c22 -13.333 38.333 -29 49 -47
c9.33301 17.333 23.833 32.333 43.5 45s38.167 19 55.5 19c5.33301 0 8.66602 -0.333008 9.99902 -1v-127c-14 -3.33301 -32 -11.333 -54 -24c-22.667 -14 -38.334 -25.333 -47.001 -34v-136c53.333 35.333 117 60.333 191 75zM320.003 583.999l0.000976562 -41
c33.333 -8 61.666 -25 84.999 -51v28c-6.66699 14.667 -18.5 28.5 -35.5 41.5s-33.5 20.5 -49.5 22.5zM421.004 519.999l0.000976562 -28c23.333 26 51.666 43 84.999 51v41c-16 -2 -32.5 -9.5 -49.5 -22.5s-28.833 -26.833 -35.5 -41.5zM320.005 525.999
l0.00195312 -41.001c32.667 -13.333 61 -29.666 85 -48.999v34c-8.66699 11.333 -21.334 22.5 -38.001 33.5s-32.334 18.5 -47.001 22.5zM421.007 469.998l0.00195312 -33.999c24 19.333 52.333 35.666 85 48.999v41c-14.667 -4 -30.334 -11.5 -47.001 -22.5
s-29.334 -22.167 -38.001 -33.5z" />
    <glyph glyph-name="uni2196" unicode="&#x2196;" horiz-adv-x="826" 
d="M788 364c1.33301 -66.667 -15 -129.169 -49 -187.502s-80.167 -104.666 -138.5 -138.999s-120.833 -50.833 -187.5 -49.5c-102 -2 -190.5 34.667 -265.5 110s-111.5 164 -109.5 266c-2 102 34.5 190.667 109.5 266s163.5 112 265.5 110
c66.667 1.33301 129.167 -15.167 187.5 -49.5s104.5 -80.666 138.5 -138.999s50.333 -120.833 49 -187.5zM766 363.998c2 97.333 -32.333 181.833 -103 253.5s-154 106.5 -250 104.5c-96 2 -179.333 -32.833 -250 -104.5s-105 -156.167 -103 -253.5
c-2 -97.333 32.333 -181.833 103 -253.5s154 -106.5 250 -104.5c96 -2 179.333 32.833 250 104.5s105 156.167 103 253.5zM568 362.998l90.002 -89.999c-16.667 -24 -47 -36 -91 -36c-11.333 0 -21.333 1 -30 3c2 -9.33301 3 -19.333 3 -30c0 -44 -12 -74.333 -36 -91
l-90 90c8 14.667 14.667 33 20 55c6.66699 22.667 10 42 10 58l-97 96c-11.333 -62.667 -38.333 -125.334 -81 -188.001l-9 3c2.66699 16.667 4 40.667 4 72c0 96.667 -10.667 177.667 -32 243c65.333 -21.333 146.333 -32 243 -32c31.333 0 55.333 1.33301 72 4l3 -9
c-62.667 -42.667 -125.334 -69.667 -188.001 -81l96 -97c14.667 0 34 3 58 9c23.333 6.66699 41.666 13.667 54.999 21zM508.002 292.999c31.333 0 60 7.33203 86 21.999l-28 28c-32.667 -13.333 -64.667 -21.666 -96 -24.999l24 -24c2 -0.666992 6.66699 -1 14 -1z
M434.002 210.998l27.999 -28c14.667 26 22 54.667 22 86c0 7.33301 -0.333008 12 -1 14l-24 24c-3.33301 -31.333 -11.666 -63.333 -24.999 -96zM564.001 252.998c28.667 0 52.333 6.66699 71 20l-29 30c-30 -19.333 -62.333 -27.333 -97 -24l21 -21
c10 -3.33301 21.333 -5 34 -5zM524 212.998c0 14 -1.66699 25.332 -5 33.999l-21 21c3.33301 -34.667 -4.66699 -67 -24 -97l30 -29c13.333 18.667 20 42.334 20 71.001z" />
    <glyph glyph-name="uni2197" unicode="&#x2197;" horiz-adv-x="826" 
d="M788 364c1.33301 -66.667 -15 -129.169 -49 -187.502s-80.167 -104.666 -138.5 -138.999s-120.833 -50.833 -187.5 -49.5c-102 -2 -190.5 34.667 -265.5 110s-111.5 164 -109.5 266c-2 102 34.5 190.667 109.5 266s163.5 112 265.5 110
c66.667 1.33301 129.167 -15.167 187.5 -49.5s104.5 -80.666 138.5 -138.999s50.333 -120.833 49 -187.5zM766 363.998c2 97.333 -32.333 181.833 -103 253.5s-154 106.5 -250 104.5c-96 2 -179.333 -32.833 -250 -104.5s-105 -156.167 -103 -253.5
c-2 -97.333 32.333 -181.833 103 -253.5s154 -106.5 250 -104.5c96 -2 179.333 32.833 250 104.5s105 156.167 103 253.5zM354 515.998c96.667 0 177.669 10.665 243.002 31.998c-21.333 -65.333 -32 -146.333 -32 -243c0 -31.333 1.33301 -55.333 4 -72l-9 -3
c-42.667 62.667 -69.667 125.334 -81 188.001l-97 -96c0 -14.667 3 -34 9 -58c6.66699 -23.333 13.667 -41.666 21 -54.999l-90 -90c-24 16.667 -36 47 -36 91c0 10.667 1 20.667 3 30c-8.66699 -2 -18.667 -3 -30 -3c-44 0 -74.333 12 -91 36l90 90
c13.333 -7.33301 31.666 -14.333 54.999 -21c24 -6 43.333 -9 58 -9l96 97c-62.667 11.333 -125.334 38.333 -188.001 81l3 9c16.667 -2.66699 40.667 -4 72 -4zM332.002 293.996l24 24.001c-31.333 3.33301 -63.333 11.666 -96 24.999l-28 -28
c26 -14.667 54.667 -22 86 -22c7.33301 0 12 0.333008 14 1zM367.002 306.997l-24.001 -24c-0.666992 -2 -1 -6.66699 -1 -14c0 -31.333 7.33301 -60 22 -86l28 28c-13.333 32.667 -21.666 64.667 -24.999 96zM262.001 252.997c14 0 25.332 1.66699 33.999 5l21 21
c-34.667 -3.33301 -67 4.66699 -97 24l-29 -30c18.667 -13.333 42.334 -20 71.001 -20zM302 212.997c0 -28.667 6.66699 -52.333 20 -71l30 29c-19.333 30 -27.333 62.333 -24 97l-21 -21c-3.33301 -8.66699 -5 -20 -5 -34z" />
    </font>
</defs>
</svg>
