<?xml version="1.0" standalone="no"?>
<!DOCTYPE svg PUBLIC "-//W3C//DTD SVG 20010904//EN"
 "http://www.w3.org/TR/2001/REC-SVG-20010904/DTD/svg10.dtd">
<svg version="1.0" xmlns="http://www.w3.org/2000/svg"
 width="300.000000pt" height="300.000000pt" viewBox="0 0 300.000000 300.000000"
 preserveAspectRatio="xMidYMid meet">
<metadata>
Created by potrace 1.14, written by Peter Selinger 2001-2017
</metadata>
<g transform="translate(0.000000,300.000000) scale(0.100000,-0.100000)"
fill="#000000" stroke="none">
<path d="M585 2289 c-364 -87 -593 -409 -580 -814 4 -132 5 -142 36 -241 45
-144 117 -264 211 -349 255 -231 623 -257 903 -65 56 38 172 146 186 172 8 16
-1 39 -48 124 -31 57 -61 104 -64 104 -4 0 -19 -17 -35 -37 -53 -72 -153 -160
-221 -195 -87 -46 -141 -60 -228 -61 -186 0 -357 108 -438 275 -56 115 -70
175 -69 298 1 243 109 429 301 523 82 39 91 41 186 43 82 2 112 -1 166 -20
204 -71 363 -263 515 -626 82 -197 158 -320 284 -460 112 -126 247 -210 400
-249 106 -27 276 -21 382 12 146 46 279 141 371 266 47 64 110 197 126 266 6
28 14 61 17 75 14 60 13 267 -2 345 -71 368 -362 626 -709 629 -138 1 -225
-18 -340 -77 -89 -44 -243 -174 -279 -235 -4 -7 16 -54 51 -117 l58 -105 92
94 c153 155 256 208 403 207 294 -2 516 -259 506 -586 -3 -109 -17 -165 -66
-271 -136 -294 -496 -379 -750 -176 -140 112 -220 231 -335 497 -113 264 -213
418 -358 554 -200 187 -434 257 -672 200z"/>
</g>
</svg>
